<svg xmlns="http://www.w3.org/2000/svg" xmlns:xlink="http://www.w3.org/1999/xlink" width="2000" zoomAndPan="magnify" viewBox="0 0 1500 1499.999933" height="2000" preserveAspectRatio="xMidYMid meet" version="1.0"><defs><g/><clipPath id="67e8158306"><rect x="0" width="1002" y="0" height="705"/></clipPath></defs><g transform="matrix(1, 0, 0, 1, 253, 388)"><g clip-path="url(#67e8158306)"><g fill="#222222" fill-opacity="1"><g transform="translate(231.57011, 629.009316)"><g/></g></g><g fill="#222222" fill-opacity="1"><g transform="translate(222.303429, 617.813432)"><g><path d="M -53.84375 -88.65625 C -47.757812 -90.101562 -41.722656 -89.722656 -35.734375 -87.515625 C -29.753906 -85.316406 -24.410156 -81.222656 -19.703125 -75.234375 C -15.003906 -69.242188 -11.457031 -61.207031 -9.0625 -51.125 C -7.164062 -43.113281 -6.441406 -35.878906 -6.890625 -29.421875 C -7.335938 -22.960938 -8.269531 -17.410156 -9.6875 -12.765625 C -11.113281 -8.117188 -12.519531 -4.539062 -13.90625 -2.03125 C -15.289062 0.476562 -15.984375 1.734375 -15.984375 1.734375 L -42.71875 -7.28125 C -42.71875 -7.28125 -42.144531 -8.472656 -41 -10.859375 C -39.863281 -13.242188 -38.921875 -16.472656 -38.171875 -20.546875 C -37.429688 -24.617188 -37.628906 -29.046875 -38.765625 -33.828125 C -39.097656 -35.253906 -39.796875 -36.320312 -40.859375 -37.03125 C -41.921875 -37.738281 -42.898438 -37.984375 -43.796875 -37.765625 C -44.960938 -37.484375 -45.765625 -35.957031 -46.203125 -33.1875 C -46.640625 -30.414062 -47.1875 -26.96875 -47.84375 -22.84375 C -48.507812 -18.726562 -49.679688 -14.457031 -51.359375 -10.03125 C -53.046875 -5.613281 -55.625 -1.660156 -59.09375 1.828125 C -62.570312 5.328125 -67.414062 7.816406 -73.625 9.296875 C -79.832031 10.765625 -85.894531 10.390625 -91.8125 8.171875 C -97.726562 5.953125 -103.046875 1.816406 -107.765625 -4.234375 C -112.492188 -10.285156 -116.039062 -18.285156 -118.40625 -28.234375 C -119.96875 -34.828125 -120.53125 -40.941406 -120.09375 -46.578125 C -119.65625 -52.222656 -118.804688 -57.140625 -117.546875 -61.328125 C -116.285156 -65.523438 -115.050781 -68.828125 -113.84375 -71.234375 C -112.632812 -73.640625 -112.03125 -74.84375 -112.03125 -74.84375 L -85.3125 -65.828125 C -85.3125 -65.828125 -85.765625 -64.863281 -86.671875 -62.9375 C -87.578125 -61.019531 -88.351562 -58.546875 -89 -55.515625 C -89.65625 -52.492188 -89.550781 -49.171875 -88.6875 -45.546875 C -88.351562 -44.128906 -87.6875 -43.054688 -86.6875 -42.328125 C -85.695312 -41.597656 -84.6875 -41.359375 -83.65625 -41.609375 C -82.488281 -41.878906 -81.6875 -43.398438 -81.25 -46.171875 C -80.8125 -48.941406 -80.269531 -52.421875 -79.625 -56.609375 C -78.988281 -60.796875 -77.816406 -65.070312 -76.109375 -69.4375 C -74.410156 -73.800781 -71.820312 -77.726562 -68.34375 -81.21875 C -64.875 -84.707031 -60.039062 -87.1875 -53.84375 -88.65625 Z M -53.84375 -88.65625 "/></g></g></g><g fill="#222222" fill-opacity="1"><g transform="translate(202.735134, 548.278353)"><g><path d="M -65.890625 -17.578125 L -65.8125 -3.625 L -105.6875 -3.40625 L -105.765625 -17.359375 L -139.671875 -17.171875 L -139.9375 -65.03125 L -106.03125 -65.21875 L -106.140625 -83.171875 L -66.265625 -83.390625 L -66.15625 -65.4375 L -49.203125 -65.53125 C -45.222656 -65.550781 -42.238281 -66.492188 -40.25 -68.359375 C -38.269531 -70.234375 -37.289062 -72.632812 -37.3125 -75.5625 C -37.320312 -77.5625 -37.5 -79.390625 -37.84375 -81.046875 C -38.1875 -82.710938 -38.359375 -83.546875 -38.359375 -83.546875 L 1.53125 -83.765625 C 1.53125 -83.765625 1.867188 -82.035156 2.546875 -78.578125 C 3.234375 -75.117188 3.59375 -70.863281 3.625 -65.8125 C 3.707031 -50.925781 -0.675781 -39.203125 -9.53125 -30.640625 C -18.394531 -22.085938 -31.53125 -17.765625 -48.9375 -17.671875 Z M -65.890625 -17.578125 "/></g></g></g><g fill="#222222" fill-opacity="1"><g transform="translate(195.490055, 486.867615)"><g><path d="M 14.78125 -43.5 C 13.050781 -37.082031 9.71875 -31.71875 4.78125 -27.40625 C -0.152344 -23.09375 -6.820312 -20.410156 -15.21875 -19.359375 C -23.625 -18.316406 -33.734375 -19.382812 -45.546875 -22.5625 L -99.453125 -37.046875 L -87.046875 -83.265625 L -33.140625 -68.78125 C -29.285156 -67.738281 -26.179688 -67.757812 -23.828125 -68.84375 C -21.472656 -69.9375 -20.035156 -71.445312 -19.515625 -73.375 C -18.992188 -75.300781 -19.476562 -77.320312 -20.96875 -79.4375 C -22.46875 -81.5625 -25.144531 -83.144531 -29 -84.1875 L -82.90625 -98.671875 L -70.484375 -144.875 L 31.5625 -117.453125 L 19.65625 -73.171875 L 7.0625 -72.4375 C 7.0625 -72.4375 7.671875 -71.753906 8.890625 -70.390625 C 10.117188 -69.023438 11.382812 -67.0625 12.6875 -64.5 C 14 -61.945312 14.96875 -58.898438 15.59375 -55.359375 C 16.21875 -51.828125 15.945312 -47.875 14.78125 -43.5 Z M 14.78125 -43.5 "/></g></g></g><g fill="#222222" fill-opacity="1"><g transform="translate(214.737804, 392.365613)"><g><path d="M -40.703125 -34.234375 C -50.660156 -40.847656 -58.015625 -48.085938 -62.765625 -55.953125 C -67.515625 -63.816406 -69.921875 -71.597656 -69.984375 -79.296875 C -70.054688 -87.003906 -68.070312 -93.90625 -64.03125 -100 C -61.238281 -104.207031 -58.226562 -107.351562 -55 -109.4375 C -51.769531 -111.519531 -48.742188 -112.941406 -45.921875 -113.703125 C -43.109375 -114.460938 -40.773438 -114.863281 -38.921875 -114.90625 C -37.066406 -114.945312 -36.140625 -114.96875 -36.140625 -114.96875 L -80.96875 -144.765625 L -54.46875 -184.625 L 68.421875 -102.96875 L 44.140625 -66.421875 C 40.078125 -67.523438 37.207031 -68.3125 35.53125 -68.78125 C 33.851562 -69.257812 32.835938 -69.535156 32.484375 -69.609375 C 32.128906 -69.691406 31.953125 -69.734375 31.953125 -69.734375 C 31.953125 -69.734375 32.296875 -68.863281 32.984375 -67.125 C 33.679688 -65.394531 34.222656 -63.082031 34.609375 -60.1875 C 35.003906 -57.289062 34.859375 -53.953125 34.171875 -50.171875 C 33.492188 -46.398438 31.757812 -42.410156 28.96875 -38.203125 C 24.925781 -32.109375 19.34375 -27.597656 12.21875 -24.671875 C 5.09375 -21.753906 -3.015625 -20.960938 -12.109375 -22.296875 C -21.203125 -23.628906 -30.734375 -27.609375 -40.703125 -34.234375 Z M -13.125 -75.75 C -9.03125 -73.019531 -5.320312 -71.867188 -2 -72.296875 C 1.308594 -72.734375 3.78125 -74.171875 5.40625 -76.609375 C 7.09375 -79.148438 7.472656 -82.003906 6.546875 -85.171875 C 5.617188 -88.335938 3.105469 -91.285156 -0.984375 -94.015625 C -5.191406 -96.804688 -8.90625 -97.992188 -12.125 -97.578125 C -15.351562 -97.171875 -17.8125 -95.695312 -19.5 -93.15625 C -21.125 -90.71875 -21.519531 -87.90625 -20.6875 -84.71875 C -19.851562 -81.53125 -17.332031 -78.539062 -13.125 -75.75 Z M -13.125 -75.75 "/></g></g></g><g fill="#222222" fill-opacity="1"><g transform="translate(271.514648, 307.256026)"><g><path d="M -64.71875 -84.125 L -29.703125 -116.734375 L 42.3125 -39.40625 L 7.296875 -6.796875 Z M -72.875 -92.890625 L -98.6875 -120.625 L -63.671875 -153.234375 L -37.859375 -125.5 Z M -72.875 -92.890625 "/></g></g></g><g fill="#222222" fill-opacity="1"><g transform="translate(293.811019, 276.304213)"><g><path d="M -20.828125 -48.9375 C -25.941406 -57.957031 -28.320312 -67.414062 -27.96875 -77.3125 C -27.613281 -87.207031 -24.703125 -96.566406 -19.234375 -105.390625 C -13.773438 -114.210938 -5.835938 -121.570312 4.578125 -127.46875 C 14.984375 -133.363281 25.40625 -136.398438 35.84375 -136.578125 C 46.28125 -136.765625 55.804688 -134.445312 64.421875 -129.625 C 73.035156 -124.800781 79.898438 -117.878906 85.015625 -108.859375 C 90.054688 -99.953125 92.441406 -90.535156 92.171875 -80.609375 C 91.910156 -70.691406 89.015625 -61.300781 83.484375 -52.4375 C 77.960938 -43.582031 70 -36.207031 59.59375 -30.3125 C 49.175781 -24.414062 38.78125 -21.394531 28.40625 -21.25 C 18.03125 -21.101562 8.492188 -23.453125 -0.203125 -28.296875 C -8.910156 -33.148438 -15.785156 -40.03125 -20.828125 -48.9375 Z M 43.359375 -85.28125 C 41.128906 -89.21875 38.21875 -91.734375 34.625 -92.828125 C 31.03125 -93.921875 27.726562 -93.613281 24.71875 -91.90625 C 21.707031 -90.207031 19.742188 -87.53125 18.828125 -83.875 C 17.921875 -80.226562 18.582031 -76.4375 20.8125 -72.5 C 23.039062 -68.5625 25.953125 -66.046875 29.546875 -64.953125 C 33.140625 -63.867188 36.441406 -64.175781 39.453125 -65.875 C 42.460938 -67.582031 44.421875 -70.257812 45.328125 -73.90625 C 46.242188 -77.550781 45.585938 -81.34375 43.359375 -85.28125 Z M 43.359375 -85.28125 "/></g></g></g><g fill="#222222" fill-opacity="1"><g transform="translate(385.572967, 226.344119)"><g/></g></g><g fill="#222222" fill-opacity="1"><g transform="translate(403.352949, 219.7488)"><g/></g></g><g fill="#222222" fill-opacity="1"><g transform="translate(421.519206, 214.308611)"><g/></g></g><g fill="#222222" fill-opacity="1"><g transform="translate(439.997451, 210.04531)"><g/></g></g><g fill="#222222" fill-opacity="1"><g transform="translate(450.613032, 201.265707)"><g><path d="M 130.921875 -44 C 130.109375 -32.0625 127.460938 -22.082031 122.984375 -14.0625 C 118.503906 -6.039062 112.929688 -0.0898438 106.265625 3.78125 C 99.597656 7.65625 92.617188 9.34375 85.328125 8.84375 C 80.421875 8.507812 76.226562 7.457031 72.75 5.6875 C 69.28125 3.914062 66.515625 1.992188 64.453125 -0.078125 C 62.398438 -2.148438 60.894531 -3.984375 59.9375 -5.578125 C 58.976562 -7.179688 58.5 -7.984375 58.5 -7.984375 C 58.5 -7.984375 58.421875 -7.820312 58.265625 -7.5 C 58.109375 -7.175781 57.707031 -6.203125 57.0625 -4.578125 C 56.425781 -2.960938 55.304688 -0.210938 53.703125 3.671875 L 9.953125 0.6875 L 20.046875 -146.515625 L 67.78125 -143.25 L 64.09375 -89.546875 C 64.09375 -89.546875 64.675781 -90.269531 65.84375 -91.71875 C 67.007812 -93.164062 68.75 -94.773438 71.0625 -96.546875 C 73.382812 -98.316406 76.382812 -99.84375 80.0625 -101.125 C 83.75 -102.414062 88.046875 -102.894531 92.953125 -102.5625 C 100.242188 -102.0625 106.925781 -99.4375 113 -94.6875 C 119.082031 -89.9375 123.796875 -83.28125 127.140625 -74.71875 C 130.484375 -66.164062 131.742188 -55.925781 130.921875 -44 Z M 81.1875 -47.40625 C 81.53125 -52.445312 80.722656 -56.265625 78.765625 -58.859375 C 76.816406 -61.460938 74.320312 -62.867188 71.28125 -63.078125 C 68.363281 -63.273438 65.722656 -62.222656 63.359375 -59.921875 C 61.003906 -57.617188 59.65625 -53.945312 59.3125 -48.90625 C 58.976562 -44 59.816406 -40.207031 61.828125 -37.53125 C 63.847656 -34.863281 66.316406 -33.429688 69.234375 -33.234375 C 72.273438 -33.023438 74.941406 -34.109375 77.234375 -36.484375 C 79.535156 -38.859375 80.851562 -42.5 81.1875 -47.40625 Z M 81.1875 -47.40625 "/></g></g></g><g fill="#222222" fill-opacity="1"><g transform="translate(552.671013, 208.449212)"><g><path d="M 9.515625 2.96875 L 53.53125 -137.859375 L 99.203125 -123.578125 L 55.1875 17.25 Z M 9.515625 2.96875 "/></g></g></g><g fill="#222222" fill-opacity="1"><g transform="translate(590.602745, 212.493912)"><g><path d="M 32.203125 -42.328125 C 37.503906 -51.234375 44.539062 -57.984375 53.3125 -62.578125 C 62.09375 -67.171875 71.664062 -69.273438 82.03125 -68.890625 C 92.40625 -68.515625 102.734375 -65.265625 113.015625 -59.140625 C 123.285156 -53.015625 131.082031 -45.460938 136.40625 -36.484375 C 141.738281 -27.515625 144.441406 -18.09375 144.515625 -8.21875 C 144.585938 1.652344 141.972656 11.046875 136.671875 19.953125 C 131.421875 28.742188 124.421875 35.476562 115.671875 40.15625 C 106.921875 44.84375 97.328125 46.976562 86.890625 46.5625 C 76.460938 46.15625 66.113281 42.890625 55.84375 36.765625 C 45.5625 30.640625 37.785156 23.101562 32.515625 14.15625 C 27.253906 5.21875 24.570312 -4.226562 24.46875 -14.1875 C 24.375 -24.15625 26.953125 -33.535156 32.203125 -42.328125 Z M 95.5625 -4.5625 C 97.875 -8.445312 98.613281 -12.21875 97.78125 -15.875 C 96.957031 -19.539062 95.0625 -22.257812 92.09375 -24.03125 C 89.125 -25.800781 85.828125 -26.179688 82.203125 -25.171875 C 78.578125 -24.160156 75.609375 -21.710938 73.296875 -17.828125 C 70.972656 -13.941406 70.226562 -10.164062 71.0625 -6.5 C 71.90625 -2.832031 73.8125 -0.113281 76.78125 1.65625 C 79.75 3.425781 83.039062 3.800781 86.65625 2.78125 C 90.269531 1.769531 93.238281 -0.675781 95.5625 -4.5625 Z M 95.5625 -4.5625 "/></g></g></g><g fill="#222222" fill-opacity="1"><g transform="translate(680.038176, 249.372771)"><g><path d="M 175.484375 58.078125 C 179.367188 63.472656 181.414062 69.453125 181.625 76.015625 C 181.832031 82.578125 179.707031 89.421875 175.25 96.546875 C 170.789062 103.679688 163.539062 110.851562 153.5 118.0625 L 108.15625 150.625 L 80.25 111.75 L 125.59375 79.1875 C 128.832031 76.863281 130.773438 74.441406 131.421875 71.921875 C 132.078125 69.410156 131.820312 67.347656 130.65625 65.734375 C 129.488281 64.109375 127.609375 63.203125 125.015625 63.015625 C 122.429688 62.835938 119.519531 63.910156 116.28125 66.234375 L 70.9375 98.796875 L 43.03125 59.9375 L 88.375 27.375 C 91.613281 25.050781 93.554688 22.628906 94.203125 20.109375 C 94.859375 17.585938 94.601562 15.515625 93.4375 13.890625 C 92.28125 12.273438 90.40625 11.375 87.8125 11.1875 C 85.226562 11.007812 82.316406 12.082031 79.078125 14.40625 L 33.734375 46.96875 L 5.8125 8.09375 L 91.640625 -53.546875 L 118.390625 -16.296875 L 111.015625 -6.078125 C 111.015625 -6.078125 111.941406 -6.085938 113.796875 -6.109375 C 115.660156 -6.140625 118.015625 -5.820312 120.859375 -5.15625 C 123.710938 -4.5 126.804688 -3.160156 130.140625 -1.140625 C 133.472656 0.878906 136.570312 3.882812 139.4375 7.875 C 142.382812 11.976562 144.160156 16.101562 144.765625 20.25 C 145.367188 24.394531 145.390625 28.179688 144.828125 31.609375 C 144.265625 35.046875 143.566406 37.84375 142.734375 40 C 141.898438 42.15625 141.484375 43.234375 141.484375 43.234375 C 141.484375 43.234375 142.691406 43.257812 145.109375 43.3125 C 147.535156 43.375 150.539062 43.796875 154.125 44.578125 C 157.71875 45.359375 161.457031 46.804688 165.34375 48.921875 C 169.238281 51.035156 172.617188 54.085938 175.484375 58.078125 Z M 175.484375 58.078125 "/></g></g></g><g fill="#222222" fill-opacity="1"><g transform="translate(776.937733, 366.119365)"><g><path d="M 126.9375 134.390625 C 127.789062 140.984375 126.75 147.210938 123.8125 153.078125 C 120.882812 158.953125 115.769531 163.96875 108.46875 168.125 C 101.175781 172.289062 91.398438 175.164062 79.140625 176.75 L 23.765625 183.90625 L 17.625 136.4375 L 73 129.28125 C 76.945312 128.769531 79.800781 127.5625 81.5625 125.65625 C 83.332031 123.757812 84.09375 121.828125 83.84375 119.859375 C 83.582031 117.867188 82.351562 116.175781 80.15625 114.78125 C 77.96875 113.394531 74.898438 112.957031 70.953125 113.46875 L 15.578125 120.625 L 9.453125 73.171875 L 64.828125 66.015625 C 68.773438 65.503906 71.628906 64.296875 73.390625 62.390625 C 75.160156 60.492188 75.921875 58.550781 75.671875 56.5625 C 75.410156 54.59375 74.179688 52.910156 71.984375 51.515625 C 69.796875 50.117188 66.726562 49.675781 62.78125 50.1875 L 7.40625 57.34375 L 1.28125 9.890625 L 106.078125 -3.65625 L 111.953125 41.828125 L 100.59375 47.296875 C 100.59375 47.296875 101.421875 47.726562 103.078125 48.59375 C 104.734375 49.457031 106.65625 50.851562 108.84375 52.78125 C 111.039062 54.71875 113.128906 57.367188 115.109375 60.734375 C 117.085938 64.097656 118.390625 68.21875 119.015625 73.09375 C 119.671875 78.101562 119.28125 82.570312 117.84375 86.5 C 116.40625 90.4375 114.625 93.785156 112.5 96.546875 C 110.382812 99.304688 108.445312 101.429688 106.6875 102.921875 C 104.9375 104.421875 104.0625 105.171875 104.0625 105.171875 C 104.0625 105.171875 105.113281 105.773438 107.21875 106.984375 C 109.320312 108.191406 111.765625 109.984375 114.546875 112.359375 C 117.335938 114.742188 119.941406 117.789062 122.359375 121.5 C 124.785156 125.21875 126.3125 129.515625 126.9375 134.390625 Z M 126.9375 134.390625 "/></g></g></g><g fill="#222222" fill-opacity="1"><g transform="translate(797.608283, 518.212052)"><g><path d="M 89.75 83.578125 C 86.75 94.472656 81.675781 103.519531 74.53125 110.71875 C 67.382812 117.925781 59.0625 122.878906 49.5625 125.578125 C 40.070312 128.273438 30.328125 128.253906 20.328125 125.515625 C 12.117188 123.253906 3.464844 120.875 -5.625 118.375 C -14.726562 115.875 -23.0625 113.585938 -30.625 111.515625 L -18.484375 67.28125 L -5.875 66.625 C -5.875 66.625 -6.484375 65.9375 -7.703125 64.5625 C -8.921875 63.195312 -10.175781 61.234375 -11.46875 58.671875 C -12.757812 56.109375 -13.707031 53.050781 -14.3125 49.5 C -14.925781 45.957031 -14.632812 42.007812 -13.4375 37.65625 C -11.5 30.601562 -8.441406 24.863281 -4.265625 20.4375 C -0.0859375 16.007812 4.785156 13.039062 10.359375 11.53125 C 15.941406 10.03125 21.75 10.109375 27.78125 11.765625 C 33.9375 13.453125 38.953125 16.519531 42.828125 20.96875 C 46.710938 25.414062 49.097656 31.410156 49.984375 38.953125 C 50.878906 46.503906 49.828125 55.726562 46.828125 66.625 L 42.609375 82.015625 C 42.609375 82.015625 43.609375 81.875 45.609375 81.59375 C 47.617188 81.3125 49.820312 80.191406 52.21875 78.234375 C 54.625 76.285156 56.53125 72.742188 57.9375 67.609375 C 58.820312 64.398438 58.976562 61.304688 58.40625 58.328125 C 57.84375 55.347656 57.132812 52.910156 56.28125 51.015625 C 55.425781 49.128906 55 48.1875 55 48.1875 L 85.453125 38.984375 C 85.453125 38.984375 85.972656 40.085938 87.015625 42.296875 C 88.054688 44.515625 89.132812 47.601562 90.25 51.5625 C 91.375 55.53125 92.019531 60.222656 92.1875 65.640625 C 92.351562 71.054688 91.539062 77.035156 89.75 83.578125 Z M 12.5625 63.421875 C 11.894531 65.847656 12.570312 68.40625 14.59375 71.09375 C 16.613281 73.789062 20.503906 75.929688 26.265625 77.515625 C 27.703125 72.265625 27.738281 68.101562 26.375 65.03125 C 25.019531 61.96875 22.863281 60.03125 19.90625 59.21875 C 18.5 58.832031 17.019531 59.082031 15.46875 59.96875 C 13.914062 60.851562 12.945312 62.003906 12.5625 63.421875 Z M 12.5625 63.421875 "/></g></g></g></g></g></svg>