<svg xmlns="http://www.w3.org/2000/svg" xmlns:xlink="http://www.w3.org/1999/xlink" width="2000" zoomAndPan="magnify" viewBox="0 0 1500 1499.999933" height="2000" preserveAspectRatio="xMidYMid meet" version="1.0"><defs><clipPath id="50c8e48188"><path d="M 150 237.027344 L 1260 237.027344 L 1260 1263 L 150 1263 Z M 150 237.027344 " clip-rule="nonzero"/></clipPath></defs><g clip-path="url(#50c8e48188)"><path fill="#000000" d="M 1259.871094 679.914062 C 1258.730469 645.445312 1256.457031 609.933594 1246.125 576.117188 C 1235.886719 542.578125 1211.566406 517.042969 1184.117188 496.488281 C 1084.042969 438.519531 979.105469 447.0625 890.074219 521.445312 C 887.6875 478.378906 883.210938 436.875 875.492188 394.984375 C 862.546875 324.722656 818.105469 285.792969 758.484375 253.414062 C 682.640625 212.230469 575.835938 255.820312 530.929688 325.335938 C 509.519531 358.5 494.132812 392.933594 489.246094 432.382812 C 487.570312 445.941406 481.675781 535.324219 495.792969 540.824219 C 457.039062 525.71875 421.160156 517.34375 382.574219 520.195312 C 336.511719 523.609375 292.890625 531.015625 250.707031 550.839844 C 186.441406 589.824219 152.890625 637.183594 150.113281 714.550781 C 147.761719 780.320312 180.417969 840.566406 229.929688 882.832031 C 296.320312 937.855469 360.324219 955.445312 448.125 957.050781 C 393.242188 1015.355469 349.453125 1108.878906 397.996094 1183.171875 C 435.890625 1240.65625 521.027344 1277.027344 587.601562 1256.960938 C 630.460938 1242.875 670.050781 1220.53125 703.210938 1189.53125 C 730.121094 1164.371094 746.027344 1133.332031 757.421875 1097.96875 C 778.515625 1127.511719 798.992188 1154.335938 821.203125 1181.566406 C 849.4375 1216.183594 887.875 1237.148438 934.851562 1236.851562 C 972.710938 1244.164062 1009.242188 1235.398438 1037.871094 1212.734375 C 1088.335938 1172.78125 1100.007812 1129.65625 1094.246094 1066.238281 C 1092.101562 999.746094 1049.078125 950.875 1001.09375 910.140625 C 1044.5625 904.710938 1085.703125 899.507812 1125.035156 884.121094 C 1189.28125 858.996094 1234.414062 807.570312 1249.722656 741.058594 C 1254.5 720.351562 1260.558594 701.699219 1259.851562 679.898438 Z M 1191.222656 785.09375 C 1171.230469 822.457031 1133.429688 845.675781 1092.792969 856.140625 C 1051.425781 866.808594 1010.417969 871.714844 967.859375 874.046875 C 938.488281 875.652344 938.523438 904.132812 938.917969 905.121094 C 942.554688 914.46875 957.621094 911.109375 966.929688 913.554688 C 991.339844 931.570312 1011.59375 954.027344 1030.96875 976.878906 C 1057.601562 1008.269531 1065.320312 1044.714844 1065.542969 1084.707031 C 1065.75 1121.339844 1054.765625 1151.183594 1026.660156 1175.410156 C 1001.039062 1197.515625 970.378906 1207.773438 935.710938 1200.535156 C 914.503906 1196.097656 891.027344 1195.351562 873.011719 1181.4375 C 850.035156 1163.714844 798.75 1092.652344 780.4375 1063.925781 C 771.765625 1050.347656 759.605469 1030.578125 741.777344 1037.144531 C 731.78125 1040.816406 738.996094 1058.613281 737.597656 1066.59375 C 723.332031 1147.769531 665.855469 1193.914062 593.328125 1222.769531 C 571.917969 1231.292969 551.5 1231.40625 529.941406 1226.667969 C 461.890625 1211.691406 407.394531 1153.347656 424.125 1082.167969 C 434.363281 1038.578125 458.328125 999.371094 493.59375 972.269531 C 504.429688 963.933594 512.464844 956.230469 518.152344 943.488281 C 520.335938 938.621094 524.457031 935.039062 522.351562 930.097656 C 514.742188 912.320312 484.492188 926.292969 482.496094 926.480469 C 434.230469 931.085938 386.003906 927.132812 339.53125 911.484375 C 268.628906 887.589844 191.644531 823.742188 188.25 741.933594 C 186.960938 710.933594 193.582031 677.957031 210.460938 651.636719 C 227.582031 624.929688 253.726562 601.78125 283.097656 588.984375 C 361.722656 554.722656 444.898438 554.648438 521.25 589.582031 C 531.097656 594.097656 544.355469 597.957031 551.386719 589.714844 C 557.707031 582.289062 553.660156 571.0625 549.839844 562.089844 C 503.550781 453.105469 534.75 331.863281 654.332031 295.660156 C 759.882812 263.691406 837.949219 343.988281 844.644531 442.734375 C 846.269531 466.757812 840.261719 559.382812 871.203125 566.996094 C 893.226562 572.402344 931.570312 523.011719 951.09375 513.761719 C 978.210938 500.929688 1005.175781 492.03125 1036.136719 491.507812 C 1102.710938 490.371094 1188.945312 521.296875 1208.210938 591.765625 C 1225.835938 656.226562 1222.945312 725.875 1191.222656 785.113281 Z M 807.476562 753.332031 C 816.949219 783.324219 805.707031 809.847656 780.027344 828.367188 C 763.148438 840.546875 750.617188 850.601562 728.253906 847.300781 C 693.566406 842.171875 665.949219 802.703125 677.363281 765.921875 C 685.753906 738.914062 706.828125 723.1875 732.542969 715.632812 C 766.242188 705.730469 796.867188 719.699219 807.476562 753.332031 Z M 807.476562 753.332031 " fill-opacity="1" fill-rule="nonzero"/></g></svg>