<svg xmlns="http://www.w3.org/2000/svg" xmlns:xlink="http://www.w3.org/1999/xlink" width="2000" zoomAndPan="magnify" viewBox="0 0 1500 1499.999933" height="2000" preserveAspectRatio="xMidYMid meet" version="1.0"><path fill="#000000" d="M 205.753906 1346.050781 C 205.753906 1295.007812 198.59375 1238.195312 207.152344 1183.777344 C 231.105469 1030.722656 278.191406 883.019531 341.816406 742.558594 C 370.132812 679.90625 420.34375 625.320312 468.496094 574.519531 C 486.195312 555.832031 526.527344 552.457031 556.242188 553.03125 C 588.347656 553.691406 604.808594 549.492188 615.921875 515.40625 C 652.960938 401.539062 721.859375 303.730469 806.640625 223.949219 C 903.851562 132.316406 1027.980469 89.089844 1176.800781 155.78125 C 1247.179688 187.3125 1271.132812 254.085938 1288.832031 322.667969 C 1297.226562 355.1875 1306.773438 388.039062 1309.492188 421.300781 C 1311.054688 440.070312 1300.683594 460.242188 1294.097656 479.179688 C 1279.117188 522.734375 1261.914062 565.628906 1248.003906 609.511719 C 1209.480469 731.609375 1154.414062 845.0625 1071.9375 943.449219 C 1001.144531 1027.921875 929.617188 1111.816406 853.886719 1191.761719 C 821.621094 1225.847656 779.972656 1252.441406 738.980469 1276.480469 C 665.226562 1319.789062 589.582031 1360.046875 513.195312 1398.414062 C 493.601562 1408.296875 468.25 1409.199219 445.449219 1409.695312 C 373.34375 1411.175781 301.238281 1410.519531 229.132812 1410.433594 C 222.464844 1410.433594 214.972656 1409.613281 209.128906 1406.648438 C 194.640625 1399.320312 188.878906 1361.695312 205.671875 1345.96875 Z M 1232.859375 354.363281 C 1226.355469 330.816406 1220.757812 306.859375 1211.539062 284.382812 C 1187.007812 224.773438 1146.675781 188.878906 1078.519531 177.515625 C 993.574219 163.355469 924.183594 193.40625 861.953125 240.746094 C 820.632812 272.199219 786.0625 314.761719 755.195312 357.164062 C 687.367188 450.445312 609.335938 541.585938 660.289062 672.414062 C 691.730469 753.015625 676.421875 837.980469 670 920.3125 C 665.554688 977.453125 648.023438 1034.917969 627.363281 1088.847656 C 614.4375 1122.769531 568.261719 1116.59375 552.210938 1081.929688 C 546.613281 1069.746094 543.484375 1055.585938 542.578125 1042.164062 C 536.324219 945.011719 533.609375 847.945312 558.382812 752.355469 C 565.875 723.375 573.941406 694.230469 577.398438 664.671875 C 579.867188 643.433594 575.175781 621.367188 573.695312 599.632812 C 543.898438 605.148438 513.277344 608.113281 484.632812 617.25 C 472.039062 621.285156 462.324219 637.011719 453.1875 648.867188 C 401.578125 716.132812 357.621094 786.359375 330.375 868.855469 C 280.414062 1019.933594 227.566406 1169.121094 262.632812 1331.808594 C 264.445312 1340.289062 276.214844 1351.980469 284.527344 1352.96875 C 340.171875 1359.71875 396.0625 1364.660156 452.035156 1368.691406 C 465.121094 1369.597656 480.515625 1368.363281 491.546875 1362.1875 C 581.347656 1311.390625 674.363281 1264.789062 758.652344 1205.921875 C 864.011719 1132.320312 952.085938 1038.378906 1029.296875 935.132812 C 1066.75 884.992188 1111.773438 837.816406 1137.375 781.996094 C 1176.308594 696.949219 1201.824219 605.722656 1231.871094 516.722656 C 1242.488281 485.273438 1241.089844 384.003906 1232.859375 354.445312 Z M 616.910156 693.902344 C 577.808594 815.339844 567.851562 932.910156 589.332031 1058.796875 C 641.4375 1001.988281 660.78125 741.652344 616.910156 693.902344 Z M 616.910156 693.902344 " fill-opacity="1" fill-rule="nonzero"/></svg>