<svg xmlns="http://www.w3.org/2000/svg" xmlns:xlink="http://www.w3.org/1999/xlink" width="2000" zoomAndPan="magnify" viewBox="0 0 1500 1499.999933" height="2000" preserveAspectRatio="xMidYMid meet" version="1.0"><defs><clipPath id="c109770565"><path d="M 366 92 L 1135.398438 92 L 1135.398438 1408 L 366 1408 Z M 366 92 " clip-rule="nonzero"/></clipPath><clipPath id="fd4d481f5a"><path d="M 364.402344 137.355469 L 364.402344 1362.644531 C 364.402344 1388.324219 385.21875 1409.144531 410.902344 1409.144531 L 1089.097656 1409.144531 C 1114.78125 1409.144531 1135.597656 1388.324219 1135.597656 1362.644531 L 1135.597656 137.355469 C 1135.597656 111.675781 1114.78125 90.855469 1089.097656 90.855469 L 410.902344 90.855469 C 385.21875 90.855469 364.402344 111.675781 364.402344 137.355469 Z M 364.402344 137.355469 " clip-rule="nonzero"/></clipPath></defs><g clip-path="url(#c109770565)"><g clip-path="url(#fd4d481f5a)"><path fill="#000000" d="M 773.238281 466.78125 C 867.785156 480.636719 953.5 493.511719 1039.433594 505.511719 C 1058.738281 508.238281 1078.800781 506.058594 1097.996094 509.113281 C 1111.734375 511.292969 1136.273438 519.257812 1135.945312 523.511719 C 1134.964844 540.3125 1131.039062 562.351562 1119.480469 572.277344 C 969.53125 701.992188 834.851562 853.417969 659.824219 948.441406 C 547.171875 1009.644531 519.144531 1085.902344 540.191406 1200.78125 C 549.679688 1252.277344 548.261719 1305.734375 550.660156 1358.425781 C 552.1875 1392.355469 535.285156 1407.847656 500.714844 1406.210938 C 472.253906 1404.902344 443.679688 1407.628906 415.109375 1406.972656 C 379.996094 1406.210938 364.945312 1384.0625 366.691406 1349.917969 C 371.816406 1249.222656 375.632812 1148.308594 378.03125 1047.5 C 381.523438 900.222656 384.792969 752.941406 385.339844 605.550781 C 385.664062 530.496094 377.597656 455.4375 377.597656 380.378906 C 377.597656 324.847656 379.121094 268.117188 390.683594 214.332031 C 395.152344 193.714844 427.433594 167.96875 450.332031 164.257812 C 567.675781 145.167969 686.105469 132.730469 804.097656 117.566406 C 862.222656 110.039062 920.238281 100.65625 978.472656 93.5625 C 996.140625 91.382812 1014.351562 94.21875 1032.347656 94.871094 C 1025.367188 111.890625 1021.660156 131.203125 1010.972656 145.382812 C 940.632812 238.988281 868.660156 331.285156 797.554688 424.34375 C 790.46875 433.726562 785.667969 444.855469 773.347656 466.671875 Z M 495.589844 1354.609375 C 495.589844 1337.042969 496.460938 1319.152344 495.480469 1301.476562 C 491.664062 1233.839844 488.285156 1166.199219 482.832031 1098.667969 C 477.050781 1027.320312 512.710938 982.371094 571.164062 949.535156 C 605.1875 930.441406 641.394531 913.640625 671.710938 889.640625 C 787.195312 798.21875 900.9375 704.613281 1014.679688 611.117188 C 1033.546875 595.625 1049.25 576.316406 1073.566406 551.441406 C 939.324219 533.222656 816.3125 516.53125 684.90625 498.636719 C 757.207031 370.777344 863.640625 273.027344 951.648438 147.238281 C 888.832031 151.167969 839.652344 152.039062 791.011719 157.710938 C 688.066406 169.605469 585.121094 182.148438 482.832031 199.058594 C 465.164062 202.003906 440.082031 226.007812 437.574219 243.136719 C 429.832031 294.738281 430.378906 347.757812 429.941406 400.34375 C 429.285156 481.621094 432.121094 562.894531 430.59375 644.0625 C 427.105469 828.980469 421.652344 1013.902344 417.726562 1198.820312 C 417.074219 1227.183594 417.726562 1255.875 421.324219 1283.914062 C 430.050781 1349.917969 437.355469 1356.246094 495.699219 1354.5 Z M 495.589844 1354.609375 " fill-opacity="1" fill-rule="nonzero"/></g></g></svg>