<svg xmlns="http://www.w3.org/2000/svg" xmlns:xlink="http://www.w3.org/1999/xlink" width="2000" zoomAndPan="magnify" viewBox="0 0 1500 1499.999933" height="2000" preserveAspectRatio="xMidYMid meet" version="1.0"><defs><g/></defs><path fill="#c77051" d="M 1494.164062 826.488281 C 1488.683594 878.625 1431.667969 919.746094 1346.554688 942.109375 C 1402.269531 1010.226562 1424.226562 1077.011719 1398.011719 1122.410156 C 1371.800781 1167.808594 1302.988281 1182.1875 1216.140625 1167.996094 C 1239.328125 1252.886719 1232.222656 1322.828125 1189.8125 1353.636719 C 1147.402344 1384.453125 1078.691406 1369.597656 1005.121094 1321.308594 C 991.78125 1408.292969 956.839844 1469.296875 905.566406 1480.195312 C 854.289062 1491.09375 797.558594 1449.574219 749.988281 1375.539062 C 702.421875 1449.574219 645.691406 1491.09375 594.414062 1480.195312 C 543.140625 1469.296875 508.203125 1408.292969 494.855469 1321.308594 C 421.289062 1369.597656 352.578125 1384.453125 310.164062 1353.636719 C 267.753906 1322.828125 260.648438 1252.886719 283.839844 1167.996094 C 196.992188 1182.1875 128.175781 1167.808594 101.964844 1122.410156 C 75.753906 1077.011719 97.710938 1010.226562 153.421875 942.109375 C 68.3125 919.746094 11.296875 878.625 5.816406 826.488281 C 0.335938 774.355469 47.558594 722.277344 126.160156 682.707031 C 57.5 627.65625 22.140625 566.902344 38.339844 517.042969 C 54.539062 467.1875 118.859375 438.816406 206.761719 434.640625 C 166.429688 356.425781 158.835938 286.539062 193.914062 247.582031 C 228.992188 208.625 299.289062 208.867188 381.289062 240.804688 C 376.257812 152.945312 397.75 86.011719 445.640625 64.691406 C 493.527344 43.371094 557.648438 72.1875 619.574219 134.714844 C 650.710938 52.40625 697.566406 0 749.988281 0 C 802.410156 0 849.269531 52.40625 880.40625 134.714844 C 942.328125 72.1875 1006.449219 43.371094 1054.339844 64.691406 C 1102.230469 86.011719 1123.722656 152.945312 1118.6875 240.804688 C 1200.691406 208.867188 1270.988281 208.625 1306.066406 247.582031 C 1341.140625 286.539062 1333.550781 356.425781 1293.21875 434.640625 C 1381.121094 438.816406 1445.441406 467.1875 1461.640625 517.042969 C 1477.839844 566.902344 1442.476562 627.65625 1373.820312 682.707031 C 1452.421875 722.277344 1499.644531 774.355469 1494.164062 826.488281 Z M 1494.164062 826.488281 " fill-opacity="1" fill-rule="nonzero"/><g fill="#ffffff" fill-opacity="1"><g transform="translate(417.332253, 619.843103)"><g><path d="M 84.875 1.703125 C 72.738281 1.703125 64.898438 -2.753906 61.359375 -11.671875 L 60.796875 -11.671875 C 55.734375 -6.421875 51.035156 -2.671875 46.703125 -0.421875 C 42.378906 1.816406 38.128906 2.9375 33.953125 2.9375 C 25.097656 2.9375 18.1875 -0.03125 13.21875 -5.96875 C 8.257812 -11.914062 5.78125 -20.613281 5.78125 -32.0625 C 5.78125 -43.5625 8.070312 -54.257812 12.65625 -64.15625 C 17.238281 -74.050781 23.53125 -81.859375 31.53125 -87.578125 C 39.53125 -93.304688 48.175781 -96.171875 57.46875 -96.171875 C 61.644531 -96.171875 65.597656 -95.488281 69.328125 -94.125 C 73.054688 -92.769531 75.960938 -90.984375 78.046875 -88.765625 L 106.984375 -94.75 L 108.59375 -93.03125 L 95.21875 -35.375 C 93.632812 -29.425781 92.84375 -24.367188 92.84375 -20.203125 C 92.84375 -17.296875 93.441406 -15.144531 94.640625 -13.75 C 95.847656 -12.363281 98.035156 -11.671875 101.203125 -11.671875 C 102.898438 -11.671875 104.921875 -11.96875 107.265625 -12.5625 C 109.609375 -13.164062 111.472656 -13.847656 112.859375 -14.609375 L 111.0625 -5.40625 C 101.320312 -0.664062 92.59375 1.703125 84.875 1.703125 Z M 72.640625 -74.546875 C 72.640625 -78.023438 71.847656 -80.976562 70.265625 -83.40625 C 68.691406 -85.84375 66.515625 -87.0625 63.734375 -87.0625 C 60.253906 -87.0625 56.726562 -84.359375 53.15625 -78.953125 C 49.582031 -73.546875 46.5 -66.160156 43.90625 -56.796875 C 41.3125 -47.441406 40.015625 -39.003906 40.015625 -31.484375 C 40.015625 -25.347656 40.644531 -20.539062 41.90625 -17.0625 C 43.175781 -13.59375 45.519531 -11.859375 48.9375 -11.859375 C 52.289062 -11.859375 56.113281 -14.640625 60.40625 -20.203125 Z M 72.640625 -74.546875 "/></g></g></g><g fill="#ffffff" fill-opacity="1"><g transform="translate(510.209554, 619.843103)"><g><path d="M 41.34375 -19.828125 C 41.34375 -16.785156 41.910156 -14.597656 43.046875 -13.265625 C 44.191406 -11.941406 46.21875 -11.28125 49.125 -11.28125 C 52.476562 -11.28125 57.285156 -12.328125 63.546875 -14.421875 L 61.171875 -5.21875 C 50.171875 -0.03125 40.59375 2.5625 32.4375 2.5625 C 25.351562 2.5625 19.722656 0.773438 15.546875 -2.796875 C 11.378906 -6.367188 9.296875 -11.378906 9.296875 -17.828125 C 9.296875 -20.929688 10.019531 -25.925781 11.46875 -32.8125 L 31.859375 -120.828125 C 32.367188 -123.171875 32.625 -124.972656 32.625 -126.234375 C 32.625 -128.765625 32.195312 -130.769531 31.34375 -132.25 C 30.488281 -133.738281 29.113281 -134.847656 27.21875 -135.578125 C 25.320312 -136.304688 22.128906 -136.828125 17.640625 -137.140625 L 19.625 -144.34375 L 68 -146.8125 L 68.953125 -145.296875 L 43.71875 -34.8125 C 42.132812 -28.101562 41.34375 -23.109375 41.34375 -19.828125 Z M 41.34375 -19.828125 "/></g></g></g><g fill="#ffffff" fill-opacity="1"><g transform="translate(552.159036, 619.843103)"><g><path d="M 113.625 -80.796875 C 113.625 -75.867188 112.296875 -71.789062 109.640625 -68.5625 C 106.984375 -65.34375 103.441406 -63.734375 99.015625 -63.734375 C 96.421875 -63.734375 94 -64.191406 91.75 -65.109375 C 89.507812 -66.023438 86.175781 -68.285156 81.75 -71.890625 C 78.019531 -68.984375 75.175781 -66.515625 73.21875 -64.484375 C 76.4375 -51.773438 79.5625 -40.945312 82.59375 -32 C 85.632812 -23.0625 88.242188 -17.375 90.421875 -14.9375 C 92.609375 -12.5 95.757812 -11.28125 99.875 -11.28125 C 103.539062 -11.28125 107.207031 -12.101562 110.875 -13.75 L 108.96875 -4.640625 C 98.789062 0.160156 88.894531 2.5625 79.28125 2.5625 C 72.007812 2.5625 66.648438 0.695312 63.203125 -3.03125 C 59.765625 -6.757812 56.050781 -16.847656 52.0625 -33.296875 L 50.078125 -41.15625 L 44.484375 -35.75 L 36.703125 0 L 4.84375 0 L 31.484375 -118.828125 C 32.242188 -122.117188 32.625 -124.773438 32.625 -126.796875 C 32.625 -130.210938 31.578125 -132.675781 29.484375 -134.1875 C 27.398438 -135.707031 23.453125 -136.628906 17.640625 -136.953125 L 19.4375 -144.34375 L 67.8125 -146.8125 L 68.953125 -145.109375 L 47.046875 -46.65625 L 47.796875 -46.65625 L 55.953125 -56.53125 C 64.296875 -66.769531 72.007812 -75.492188 79.09375 -82.703125 C 83.90625 -87.890625 87.78125 -91.460938 90.71875 -93.421875 C 93.65625 -95.378906 96.957031 -96.359375 100.625 -96.359375 C 104.414062 -96.359375 107.53125 -94.953125 109.96875 -92.140625 C 112.40625 -89.328125 113.625 -85.546875 113.625 -80.796875 Z M 113.625 -80.796875 "/></g></g></g><g fill="#ffffff" fill-opacity="1"><g transform="translate(643.234418, 619.843103)"><g><path d="M 48.9375 -16.3125 C 48.9375 -11.125 47.070312 -6.617188 43.34375 -2.796875 C 39.613281 1.023438 35 2.9375 29.5 2.9375 C 24.125 2.9375 19.535156 1.007812 15.734375 -2.84375 C 11.941406 -6.695312 10.046875 -11.1875 10.046875 -16.3125 C 10.046875 -21.5625 11.988281 -26.113281 15.875 -29.96875 C 19.769531 -33.820312 24.3125 -35.75 29.5 -35.75 C 34.875 -35.75 39.457031 -33.835938 43.25 -30.015625 C 47.039062 -26.191406 48.9375 -21.625 48.9375 -16.3125 Z M 48.9375 -16.3125 "/></g></g></g><g fill="#ffffff" fill-opacity="1"><g transform="translate(685.373575, 619.843103)"><g><path d="M 52.640625 3.3125 C 39.359375 3.3125 28.875 -1 21.1875 -9.625 C 13.507812 -18.257812 9.671875 -30.128906 9.671875 -45.234375 C 9.671875 -60.410156 13.554688 -74.703125 21.328125 -88.109375 C 29.109375 -101.515625 40.0625 -112.625 54.1875 -121.4375 C 68.320312 -130.257812 84.304688 -135.875 102.140625 -138.28125 L 102.71875 -128.984375 L 94.75 -126.984375 C 83.9375 -123.453125 74.957031 -117.640625 67.8125 -109.546875 C 60.664062 -101.453125 54.753906 -89.722656 50.078125 -74.359375 C 58.734375 -82.515625 68.910156 -86.59375 80.609375 -86.59375 C 89.085938 -86.59375 95.882812 -83.445312 101 -77.15625 C 106.125 -70.863281 108.6875 -62.753906 108.6875 -52.828125 C 108.6875 -42.203125 106.28125 -32.570312 101.46875 -23.9375 C 96.664062 -15.3125 89.960938 -8.613281 81.359375 -3.84375 C 72.765625 0.925781 63.191406 3.3125 52.640625 3.3125 Z M 73.40625 -50.734375 C 73.40625 -57.941406 72.390625 -63.519531 70.359375 -67.46875 C 68.335938 -71.425781 65.65625 -73.40625 62.3125 -73.40625 C 59.90625 -73.40625 57.359375 -72.597656 54.671875 -70.984375 C 51.984375 -69.367188 49.535156 -66.765625 47.328125 -63.171875 C 44.734375 -52.796875 43.4375 -41.820312 43.4375 -30.25 C 43.4375 -21.84375 44.398438 -15.441406 46.328125 -11.046875 C 48.253906 -6.648438 50.988281 -4.453125 54.53125 -4.453125 C 57.945312 -4.453125 61.109375 -6.472656 64.015625 -10.515625 C 66.921875 -14.566406 69.210938 -20.164062 70.890625 -27.3125 C 72.566406 -34.457031 73.40625 -42.265625 73.40625 -50.734375 Z M 73.40625 -50.734375 "/></g></g></g><g fill="#ffffff" fill-opacity="1"><g transform="translate(777.017968, 619.843103)"><g><path d="M 111.34375 -92.09375 C 111.34375 -75.269531 107.578125 -59.984375 100.046875 -46.234375 C 92.523438 -32.484375 81.742188 -21.289062 67.703125 -12.65625 C 53.671875 -4.03125 37.328125 1.546875 18.671875 4.078125 L 18.109375 -5.3125 L 26.453125 -7.203125 C 37.140625 -9.984375 46.132812 -15.4375 53.4375 -23.5625 C 60.738281 -31.6875 66.632812 -43.59375 71.125 -59.28125 C 66.445312 -54.789062 61.832031 -51.53125 57.28125 -49.5 C 52.726562 -47.476562 47.351562 -46.46875 41.15625 -46.46875 C 32.8125 -46.46875 25.96875 -49.863281 20.625 -56.65625 C 15.28125 -63.457031 12.609375 -71.984375 12.609375 -82.234375 C 12.609375 -92.085938 15.101562 -101.234375 20.09375 -109.671875 C 25.09375 -118.117188 31.96875 -124.742188 40.71875 -129.546875 C 49.476562 -134.359375 58.882812 -136.765625 68.9375 -136.765625 C 81.90625 -136.765625 92.210938 -132.71875 99.859375 -124.625 C 107.515625 -116.53125 111.34375 -105.6875 111.34375 -92.09375 Z M 77.671875 -103.5625 C 77.671875 -111.976562 76.738281 -118.285156 74.875 -122.484375 C 73.007812 -126.691406 70.460938 -128.796875 67.234375 -128.796875 C 63.753906 -128.796875 60.53125 -126.722656 57.5625 -122.578125 C 54.59375 -118.441406 52.285156 -112.753906 50.640625 -105.515625 C 48.992188 -98.273438 48.171875 -90.351562 48.171875 -81.75 C 48.171875 -75.238281 49.101562 -69.925781 50.96875 -65.8125 C 52.832031 -61.707031 55.410156 -59.65625 58.703125 -59.65625 C 64.453125 -59.65625 69.507812 -63.164062 73.875 -70.1875 C 75.070312 -74.476562 76.003906 -79.707031 76.671875 -85.875 C 77.335938 -92.039062 77.671875 -97.9375 77.671875 -103.5625 Z M 77.671875 -103.5625 "/></g></g></g><g fill="#ffffff" fill-opacity="1"><g transform="translate(868.662385, 619.843103)"><g><path d="M 49.5 -5.78125 C 54.75 -5.78125 60 -10.757812 65.25 -20.71875 C 70.5 -30.675781 74.796875 -43.601562 78.140625 -59.5 C 81.492188 -75.40625 83.171875 -90.410156 83.171875 -104.515625 C 83.171875 -120.453125 79.410156 -128.421875 71.890625 -128.421875 C 66.640625 -128.421875 61.390625 -123.441406 56.140625 -113.484375 C 50.898438 -103.523438 46.601562 -90.59375 43.25 -74.6875 C 39.894531 -58.78125 38.21875 -43.78125 38.21875 -29.6875 C 38.21875 -13.75 41.976562 -5.78125 49.5 -5.78125 Z M 50.078125 2.75 C 36.234375 2.75 25.5625 -1.878906 18.0625 -11.140625 C 10.570312 -20.398438 6.828125 -33.503906 6.828125 -50.453125 C 6.828125 -66.128906 9.671875 -80.65625 15.359375 -94.03125 C 21.054688 -107.40625 28.800781 -117.867188 38.59375 -125.421875 C 48.394531 -132.984375 59.238281 -136.765625 71.125 -136.765625 C 84.976562 -136.765625 95.648438 -132.128906 103.140625 -122.859375 C 110.628906 -113.597656 114.375 -100.5 114.375 -83.5625 C 114.375 -67.875 111.53125 -53.34375 105.84375 -39.96875 C 100.15625 -26.601562 92.410156 -16.140625 82.609375 -8.578125 C 72.804688 -1.023438 61.960938 2.75 50.078125 2.75 Z M 50.078125 2.75 "/></g></g></g><g fill="#ffffff" fill-opacity="1"><g transform="translate(960.306801, 619.843103)"><g><path d="M 130.3125 -134.578125 L 120.265625 -85.265625 L 111.71875 -85.265625 C 109.882812 -101.578125 107.320312 -112.71875 104.03125 -118.6875 C 100.75 -124.664062 96.101562 -127.65625 90.09375 -127.65625 C 83.019531 -127.65625 76.632812 -124.175781 70.9375 -117.21875 C 65.25 -110.269531 60.445312 -99.804688 56.53125 -85.828125 L 87.4375 -85.828125 L 81 -74.734375 L 53.578125 -74.734375 C 52.691406 -72.078125 51.804688 -67.300781 50.921875 -60.40625 L 73.40625 -60.40625 L 67.25 -49.125 L 49.890625 -49.125 C 49.890625 -23.519531 57.285156 -10.71875 72.078125 -10.71875 C 78.972656 -10.71875 85.484375 -12.960938 91.609375 -17.453125 C 97.742188 -21.941406 103.972656 -29.019531 110.296875 -38.6875 L 117.515625 -33.390625 C 109.546875 -20.359375 100.738281 -10.984375 91.09375 -5.265625 C 81.445312 0.453125 70.617188 3.3125 58.609375 3.3125 C 44.765625 3.3125 33.859375 -1.441406 25.890625 -10.953125 C 17.921875 -20.472656 13.9375 -33.195312 13.9375 -49.125 L 0.5625 -49.125 L 6.828125 -60.40625 L 14.796875 -60.40625 C 15.554688 -65.46875 16.503906 -70.242188 17.640625 -74.734375 L 4.84375 -74.734375 L 11.28125 -85.828125 L 21.53125 -85.828125 C 27.34375 -101.828125 35.972656 -114.441406 47.421875 -123.671875 C 58.867188 -132.898438 71.863281 -137.515625 86.40625 -137.515625 C 92.46875 -137.515625 97.867188 -136.816406 102.609375 -135.421875 C 107.359375 -134.035156 111.816406 -131.890625 115.984375 -128.984375 L 122.15625 -134.578125 Z M 130.3125 -134.578125 "/></g></g></g><path fill="#ffffff" d="M 417.332031 550.84375 L 1059.730469 550.84375 L 1059.730469 569.59375 L 417.332031 569.59375 Z M 417.332031 550.84375 " fill-opacity="1" fill-rule="nonzero"/><path fill="#ffffff" d="M 799.703125 1116.0625 C 801.832031 1115.082031 803.914062 1114.003906 805.949219 1112.839844 C 807.988281 1111.671875 809.96875 1110.421875 811.894531 1109.082031 C 813.820312 1107.742188 815.683594 1106.320312 817.488281 1104.820312 C 819.289062 1103.316406 821.019531 1101.738281 822.683594 1100.085938 C 824.347656 1098.429688 825.9375 1096.707031 827.449219 1094.914062 C 828.964844 1093.121094 830.394531 1091.265625 831.746094 1089.347656 C 833.097656 1087.429688 834.363281 1085.453125 835.539062 1083.425781 C 836.71875 1081.398438 837.804688 1079.320312 838.800781 1077.195312 C 839.796875 1075.070312 840.699219 1072.910156 841.507812 1070.707031 C 842.3125 1068.503906 843.023438 1066.269531 843.632812 1064.003906 C 844.246094 1061.738281 844.757812 1059.449219 845.167969 1057.140625 C 845.578125 1054.832031 845.890625 1052.507812 846.097656 1050.171875 C 846.304688 1047.835938 846.410156 1045.492188 846.414062 1043.148438 C 846.417969 1040.800781 846.316406 1038.457031 846.117188 1036.121094 C 845.914062 1033.785156 845.613281 1031.460938 845.207031 1029.148438 C 844.800781 1026.835938 844.296875 1024.546875 843.691406 1022.28125 C 841.425781 1021.675781 839.136719 1021.171875 836.824219 1020.765625 C 834.511719 1020.363281 832.1875 1020.058594 829.851562 1019.855469 C 827.515625 1019.65625 825.171875 1019.554688 822.828125 1019.558594 C 820.480469 1019.5625 818.140625 1019.667969 815.800781 1019.875 C 813.464844 1020.082031 811.140625 1020.394531 808.832031 1020.804688 C 806.523438 1021.214844 804.234375 1021.726562 801.96875 1022.339844 C 799.703125 1022.949219 797.46875 1023.660156 795.265625 1024.46875 C 793.0625 1025.273438 790.902344 1026.175781 788.777344 1027.171875 C 786.652344 1028.167969 784.574219 1029.253906 782.546875 1030.433594 C 780.519531 1031.613281 778.542969 1032.875 776.625 1034.226562 C 774.707031 1035.578125 772.851562 1037.007812 771.058594 1038.523438 C 769.265625 1040.035156 767.542969 1041.625 765.886719 1043.289062 C 764.234375 1044.953125 762.65625 1046.683594 761.152344 1048.488281 C 759.652344 1050.289062 758.230469 1052.152344 756.890625 1054.078125 C 755.550781 1056.003906 754.300781 1057.988281 753.132812 1060.023438 C 751.96875 1062.058594 750.890625 1064.140625 749.910156 1066.269531 C 748.925781 1064.140625 747.851562 1062.058594 746.683594 1060.023438 C 745.519531 1057.988281 744.265625 1056.003906 742.925781 1054.078125 C 741.585938 1052.152344 740.167969 1050.289062 738.664062 1048.488281 C 737.160156 1046.683594 735.582031 1044.953125 733.929688 1043.289062 C 732.273438 1041.625 730.550781 1040.035156 728.757812 1038.523438 C 726.964844 1037.007812 725.109375 1035.578125 723.191406 1034.226562 C 721.273438 1032.875 719.300781 1031.613281 717.269531 1030.433594 C 715.242188 1029.253906 713.164062 1028.167969 711.039062 1027.171875 C 708.917969 1026.175781 706.753906 1025.273438 704.550781 1024.46875 C 702.347656 1023.660156 700.113281 1022.949219 697.847656 1022.339844 C 695.582031 1021.726562 693.296875 1021.214844 690.984375 1020.804688 C 688.675781 1020.394531 686.351562 1020.082031 684.015625 1019.875 C 681.679688 1019.667969 679.335938 1019.5625 676.992188 1019.558594 C 674.644531 1019.554688 672.304688 1019.65625 669.964844 1019.855469 C 667.628906 1020.058594 665.304688 1020.363281 662.992188 1020.765625 C 660.683594 1021.171875 658.394531 1021.675781 656.125 1022.28125 C 655.519531 1024.546875 655.015625 1026.835938 654.609375 1029.148438 C 654.207031 1031.460938 653.902344 1033.785156 653.699219 1036.121094 C 653.5 1038.457031 653.398438 1040.800781 653.402344 1043.148438 C 653.40625 1045.492188 653.511719 1047.835938 653.71875 1050.171875 C 653.929688 1052.507812 654.238281 1054.832031 654.648438 1057.140625 C 655.0625 1059.449219 655.574219 1061.738281 656.183594 1064.003906 C 656.796875 1066.269531 657.503906 1068.503906 658.3125 1070.707031 C 659.117188 1072.910156 660.019531 1075.070312 661.015625 1077.195312 C 662.011719 1079.320312 663.101562 1081.398438 664.277344 1083.425781 C 665.457031 1085.453125 666.71875 1087.429688 668.070312 1089.347656 C 669.421875 1091.265625 670.855469 1093.121094 672.367188 1094.914062 C 673.878906 1096.707031 675.46875 1098.429688 677.132812 1100.085938 C 678.796875 1101.738281 680.527344 1103.316406 682.332031 1104.820312 C 684.132812 1106.320312 685.996094 1107.742188 687.921875 1109.082031 C 689.851562 1110.421875 691.832031 1111.671875 693.867188 1112.839844 C 695.902344 1114.003906 697.984375 1115.082031 700.117188 1116.0625 C 697.984375 1117.046875 695.902344 1118.121094 693.867188 1119.289062 C 691.832031 1120.453125 689.851562 1121.707031 687.921875 1123.046875 C 685.996094 1124.386719 684.132812 1125.808594 682.332031 1127.308594 C 680.527344 1128.8125 678.796875 1130.390625 677.132812 1132.042969 C 675.46875 1133.699219 673.878906 1135.421875 672.367188 1137.214844 C 670.855469 1139.007812 669.421875 1140.863281 668.070312 1142.78125 C 666.71875 1144.699219 665.457031 1146.671875 664.277344 1148.703125 C 663.101562 1150.730469 662.011719 1152.808594 661.015625 1154.933594 C 660.019531 1157.054688 659.117188 1159.21875 658.3125 1161.421875 C 657.503906 1163.625 656.796875 1165.859375 656.183594 1168.125 C 655.574219 1170.390625 655.0625 1172.675781 654.648438 1174.988281 C 654.238281 1177.296875 653.929688 1179.621094 653.71875 1181.957031 C 653.511719 1184.292969 653.40625 1186.636719 653.402344 1188.980469 C 653.398438 1191.328125 653.5 1193.667969 653.699219 1196.007812 C 653.902344 1198.34375 654.207031 1200.667969 654.609375 1202.980469 C 655.015625 1205.289062 655.519531 1207.578125 656.125 1209.847656 C 658.394531 1210.453125 660.683594 1210.957031 662.992188 1211.363281 C 665.304688 1211.765625 667.628906 1212.070312 669.964844 1212.273438 C 672.304688 1212.472656 674.644531 1212.574219 676.992188 1212.570312 C 679.335938 1212.566406 681.679688 1212.460938 684.015625 1212.253906 C 686.351562 1212.042969 688.675781 1211.734375 690.984375 1211.324219 C 693.296875 1210.914062 695.582031 1210.402344 697.847656 1209.789062 C 700.113281 1209.175781 702.347656 1208.46875 704.550781 1207.660156 C 706.753906 1206.855469 708.917969 1205.953125 711.039062 1204.957031 C 713.164062 1203.960938 715.242188 1202.871094 717.269531 1201.695312 C 719.300781 1200.515625 721.273438 1199.253906 723.191406 1197.902344 C 725.109375 1196.550781 726.964844 1195.117188 728.757812 1193.605469 C 730.550781 1192.09375 732.273438 1190.503906 733.929688 1188.839844 C 735.582031 1187.175781 737.160156 1185.445312 738.664062 1183.640625 C 740.167969 1181.839844 741.585938 1179.976562 742.925781 1178.050781 C 744.265625 1176.121094 745.519531 1174.140625 746.683594 1172.105469 C 747.851562 1170.070312 748.925781 1167.988281 749.910156 1165.855469 C 750.890625 1167.988281 751.96875 1170.070312 753.132812 1172.105469 C 754.300781 1174.140625 755.550781 1176.121094 756.890625 1178.050781 C 758.230469 1179.976562 759.652344 1181.839844 761.152344 1183.640625 C 762.65625 1185.445312 764.234375 1187.175781 765.886719 1188.839844 C 767.542969 1190.503906 769.265625 1192.09375 771.058594 1193.605469 C 772.851562 1195.117188 774.707031 1196.550781 776.625 1197.902344 C 778.542969 1199.253906 780.519531 1200.515625 782.546875 1201.695312 C 784.574219 1202.871094 786.652344 1203.960938 788.777344 1204.957031 C 790.902344 1205.953125 793.0625 1206.855469 795.265625 1207.660156 C 797.46875 1208.46875 799.703125 1209.175781 801.96875 1209.789062 C 804.234375 1210.402344 806.523438 1210.914062 808.832031 1211.324219 C 811.140625 1211.734375 813.464844 1212.042969 815.800781 1212.253906 C 818.140625 1212.460938 820.480469 1212.566406 822.828125 1212.570312 C 825.171875 1212.574219 827.515625 1212.472656 829.851562 1212.273438 C 832.1875 1212.070312 834.511719 1211.765625 836.824219 1211.363281 C 839.136719 1210.957031 841.425781 1210.453125 843.691406 1209.847656 C 844.296875 1207.578125 844.800781 1205.289062 845.207031 1202.980469 C 845.613281 1200.667969 845.914062 1198.34375 846.117188 1196.007812 C 846.316406 1193.667969 846.417969 1191.328125 846.414062 1188.980469 C 846.410156 1186.636719 846.304688 1184.292969 846.097656 1181.957031 C 845.890625 1179.621094 845.578125 1177.296875 845.167969 1174.988281 C 844.757812 1172.675781 844.246094 1170.390625 843.632812 1168.125 C 843.023438 1165.859375 842.3125 1163.625 841.507812 1161.421875 C 840.699219 1159.21875 839.796875 1157.054688 838.800781 1154.933594 C 837.804688 1152.808594 836.71875 1150.730469 835.539062 1148.703125 C 834.363281 1146.671875 833.097656 1144.699219 831.746094 1142.78125 C 830.394531 1140.863281 828.964844 1139.007812 827.449219 1137.214844 C 825.9375 1135.421875 824.347656 1133.699219 822.683594 1132.042969 C 821.019531 1130.390625 819.289062 1128.8125 817.488281 1127.308594 C 815.683594 1125.808594 813.820312 1124.386719 811.894531 1123.046875 C 809.96875 1121.707031 807.988281 1120.453125 805.949219 1119.289062 C 803.914062 1118.121094 801.832031 1117.046875 799.703125 1116.0625 Z M 799.703125 1116.0625 " fill-opacity="1" fill-rule="nonzero"/><g fill="#ffffff" fill-opacity="1"><g transform="translate(223.328714, 873.285313)"><g><path d="M 94.6875 1.90625 C 81.144531 1.90625 72.398438 -3.066406 68.453125 -13.015625 L 67.828125 -13.015625 C 62.179688 -7.160156 56.941406 -2.976562 52.109375 -0.46875 C 47.273438 2.03125 42.53125 3.28125 37.875 3.28125 C 28 3.28125 20.289062 -0.03125 14.75 -6.65625 C 9.21875 -13.289062 6.453125 -22.992188 6.453125 -35.765625 C 6.453125 -48.597656 9.007812 -60.535156 14.125 -71.578125 C 19.238281 -82.617188 26.253906 -91.328125 35.171875 -97.703125 C 44.097656 -104.085938 53.75 -107.28125 64.125 -107.28125 C 68.769531 -107.28125 73.171875 -106.519531 77.328125 -105 C 81.492188 -103.488281 84.742188 -101.5 87.078125 -99.03125 L 119.34375 -105.703125 L 121.140625 -103.796875 L 106.234375 -39.46875 C 104.460938 -32.832031 103.578125 -27.1875 103.578125 -22.53125 C 103.578125 -19.289062 104.25 -16.894531 105.59375 -15.34375 C 106.9375 -13.789062 109.367188 -13.015625 112.890625 -13.015625 C 114.796875 -13.015625 117.050781 -13.347656 119.65625 -14.015625 C 122.269531 -14.691406 124.351562 -15.453125 125.90625 -16.296875 L 123.890625 -6.03125 C 113.035156 -0.738281 103.300781 1.90625 94.6875 1.90625 Z M 81.046875 -83.15625 C 81.046875 -87.039062 80.160156 -90.335938 78.390625 -93.046875 C 76.628906 -95.765625 74.195312 -97.125 71.09375 -97.125 C 67.21875 -97.125 63.285156 -94.109375 59.296875 -88.078125 C 55.316406 -82.046875 51.878906 -73.8125 48.984375 -63.375 C 46.097656 -52.9375 44.65625 -43.519531 44.65625 -35.125 C 44.65625 -28.28125 45.359375 -22.914062 46.765625 -19.03125 C 48.171875 -15.15625 50.78125 -13.21875 54.59375 -13.21875 C 58.332031 -13.21875 62.597656 -16.320312 67.390625 -22.53125 Z M 81.046875 -83.15625 "/></g></g></g><g fill="#ffffff" fill-opacity="1"><g transform="translate(335.178176, 873.285313)"><g><path d="M 46.125 -22.109375 C 46.125 -18.722656 46.757812 -16.289062 48.03125 -14.8125 C 49.300781 -13.332031 51.5625 -12.59375 54.8125 -12.59375 C 58.550781 -12.59375 63.910156 -13.753906 70.890625 -16.078125 L 68.25 -5.8125 C 55.96875 -0.03125 45.28125 2.859375 36.1875 2.859375 C 28.28125 2.859375 22 0.867188 17.34375 -3.109375 C 12.695312 -7.097656 10.375 -12.691406 10.375 -19.890625 C 10.375 -23.347656 11.179688 -28.921875 12.796875 -36.609375 L 35.546875 -134.796875 C 36.109375 -137.398438 36.390625 -139.410156 36.390625 -140.828125 C 36.390625 -143.648438 35.914062 -145.890625 34.96875 -147.546875 C 34.019531 -149.203125 32.484375 -150.4375 30.359375 -151.25 C 28.242188 -152.0625 24.679688 -152.644531 19.671875 -153 L 21.90625 -161.03125 L 75.859375 -163.78125 L 76.921875 -162.09375 L 48.78125 -38.828125 C 47.007812 -31.347656 46.125 -25.773438 46.125 -22.109375 Z M 46.125 -22.109375 "/></g></g></g><g fill="#ffffff" fill-opacity="1"><g transform="translate(390.211962, 873.285313)"><g><path d="M 126.75 -90.140625 C 126.75 -84.640625 125.265625 -80.085938 122.296875 -76.484375 C 119.335938 -72.890625 115.390625 -71.09375 110.453125 -71.09375 C 107.566406 -71.09375 104.867188 -71.601562 102.359375 -72.625 C 99.859375 -73.65625 96.140625 -76.179688 91.203125 -80.203125 C 87.046875 -76.953125 83.875 -74.203125 81.6875 -71.953125 C 85.28125 -57.773438 88.769531 -45.691406 92.15625 -35.703125 C 95.539062 -25.722656 98.445312 -19.375 100.875 -16.65625 C 103.3125 -13.945312 106.820312 -12.59375 111.40625 -12.59375 C 115.5 -12.59375 119.59375 -13.507812 123.6875 -15.34375 L 121.5625 -5.1875 C 110.207031 0.175781 99.171875 2.859375 88.453125 2.859375 C 80.335938 2.859375 74.359375 0.78125 70.515625 -3.375 C 66.671875 -7.539062 62.53125 -18.796875 58.09375 -37.140625 L 55.859375 -45.921875 L 49.625 -39.890625 L 40.953125 0 L 5.390625 0 L 35.125 -132.578125 C 35.96875 -136.242188 36.390625 -139.203125 36.390625 -141.453125 C 36.390625 -145.265625 35.222656 -148.015625 32.890625 -149.703125 C 30.566406 -151.398438 26.160156 -152.425781 19.671875 -152.78125 L 21.6875 -161.03125 L 75.65625 -163.78125 L 76.921875 -161.875 L 52.484375 -52.0625 L 53.328125 -52.0625 L 62.421875 -63.0625 C 71.734375 -74.488281 80.335938 -84.222656 88.234375 -92.265625 C 93.597656 -98.046875 97.921875 -102.03125 101.203125 -104.21875 C 104.484375 -106.40625 108.171875 -107.5 112.265625 -107.5 C 116.492188 -107.5 119.960938 -105.925781 122.671875 -102.78125 C 125.390625 -99.644531 126.75 -95.429688 126.75 -90.140625 Z M 126.75 -90.140625 "/></g></g></g><g fill="#ffffff" fill-opacity="1"><g transform="translate(500.051178, 873.285313)"><g><path d="M 94.6875 1.90625 C 81.144531 1.90625 72.398438 -3.066406 68.453125 -13.015625 L 67.828125 -13.015625 C 62.179688 -7.160156 56.941406 -2.976562 52.109375 -0.46875 C 47.273438 2.03125 42.53125 3.28125 37.875 3.28125 C 28 3.28125 20.289062 -0.03125 14.75 -6.65625 C 9.21875 -13.289062 6.453125 -22.992188 6.453125 -35.765625 C 6.453125 -48.597656 9.007812 -60.535156 14.125 -71.578125 C 19.238281 -82.617188 26.253906 -91.328125 35.171875 -97.703125 C 44.097656 -104.085938 53.75 -107.28125 64.125 -107.28125 C 68.769531 -107.28125 73.171875 -106.519531 77.328125 -105 C 81.492188 -103.488281 84.742188 -101.5 87.078125 -99.03125 L 119.34375 -105.703125 L 121.140625 -103.796875 L 106.234375 -39.46875 C 104.460938 -32.832031 103.578125 -27.1875 103.578125 -22.53125 C 103.578125 -19.289062 104.25 -16.894531 105.59375 -15.34375 C 106.9375 -13.789062 109.367188 -13.015625 112.890625 -13.015625 C 114.796875 -13.015625 117.050781 -13.347656 119.65625 -14.015625 C 122.269531 -14.691406 124.351562 -15.453125 125.90625 -16.296875 L 123.890625 -6.03125 C 113.035156 -0.738281 103.300781 1.90625 94.6875 1.90625 Z M 81.046875 -83.15625 C 81.046875 -87.039062 80.160156 -90.335938 78.390625 -93.046875 C 76.628906 -95.765625 74.195312 -97.125 71.09375 -97.125 C 67.21875 -97.125 63.285156 -94.109375 59.296875 -88.078125 C 55.316406 -82.046875 51.878906 -73.8125 48.984375 -63.375 C 46.097656 -52.9375 44.65625 -43.519531 44.65625 -35.125 C 44.65625 -28.28125 45.359375 -22.914062 46.765625 -19.03125 C 48.171875 -15.15625 50.78125 -13.21875 54.59375 -13.21875 C 58.332031 -13.21875 62.597656 -16.320312 67.390625 -22.53125 Z M 81.046875 -83.15625 "/></g></g></g><g fill="#ffffff" fill-opacity="1"><g transform="translate(611.90064, 873.285313)"><g><path d="M 103.578125 -82.953125 C 103.578125 -75.398438 101.375 -68.992188 96.96875 -63.734375 C 92.5625 -58.484375 85.367188 -54.113281 75.390625 -50.625 C 65.410156 -47.132812 54.953125 -44.71875 44.015625 -43.375 C 44.648438 -23.132812 51.066406 -13.015625 63.265625 -13.015625 C 69.335938 -13.015625 74.820312 -14.722656 79.71875 -18.140625 C 84.625 -21.566406 89.40625 -26.488281 94.0625 -32.90625 L 101.15625 -26.453125 C 94.726562 -16.648438 87.175781 -9.207031 78.5 -4.125 C 69.832031 0.945312 60.273438 3.484375 49.828125 3.484375 C 36.359375 3.484375 25.757812 -0.691406 18.03125 -9.046875 C 10.3125 -17.398438 6.453125 -28.523438 6.453125 -42.421875 C 6.453125 -54.347656 9.1875 -65.367188 14.65625 -75.484375 C 20.125 -85.609375 27.566406 -93.472656 36.984375 -99.078125 C 46.398438 -104.691406 56.960938 -107.5 68.671875 -107.5 C 80.023438 -107.5 88.679688 -105.398438 94.640625 -101.203125 C 100.597656 -97.003906 103.578125 -90.921875 103.578125 -82.953125 Z M 63.265625 -99.03125 C 59.035156 -99.03125 55.050781 -94.617188 51.3125 -85.796875 C 47.570312 -76.984375 45.207031 -65.878906 44.21875 -52.484375 C 54.03125 -53.960938 60.890625 -57.007812 64.796875 -61.625 C 68.710938 -66.25 70.671875 -72.863281 70.671875 -81.46875 C 70.671875 -86.550781 70.035156 -90.75 68.765625 -94.0625 C 67.503906 -97.375 65.671875 -99.03125 63.265625 -99.03125 Z M 63.265625 -99.03125 "/></g></g></g><g fill="#ffffff" fill-opacity="1"><g transform="translate(702.27229, 873.285313)"><g><path d="M 72.578125 -21.0625 C 72.578125 -27.332031 74.550781 -37.695312 78.5 -52.15625 C 82.382812 -66.550781 84.328125 -75.6875 84.328125 -79.5625 C 84.328125 -82.8125 83.640625 -85.210938 82.265625 -86.765625 C 80.890625 -88.316406 79.109375 -89.09375 76.921875 -89.09375 C 74.734375 -89.09375 72.175781 -88.171875 69.25 -86.328125 C 66.320312 -84.492188 63.304688 -81.144531 60.203125 -76.28125 L 43.59375 0 L 7.828125 0 L 21.6875 -62 C 23.664062 -70.75 24.65625 -77.097656 24.65625 -81.046875 C 24.65625 -84.285156 24.070312 -86.71875 22.90625 -88.34375 C 21.738281 -89.96875 19.460938 -90.78125 16.078125 -90.78125 C 12.128906 -90.78125 7.789062 -89.757812 3.0625 -87.71875 L 5.609375 -97.96875 C 10.398438 -100.15625 15.175781 -102.078125 19.9375 -103.734375 C 24.707031 -105.398438 29.628906 -106.234375 34.703125 -106.234375 C 41.972656 -106.234375 47.6875 -104.820312 51.84375 -102 C 56.007812 -99.175781 59.113281 -94.269531 61.15625 -87.28125 L 61.796875 -87.28125 C 67.429688 -94.0625 73.367188 -99.125 79.609375 -102.46875 C 85.859375 -105.820312 92.191406 -107.5 98.609375 -107.5 C 105.097656 -107.5 110.367188 -105.378906 114.421875 -101.140625 C 118.484375 -96.910156 120.515625 -91.585938 120.515625 -85.171875 C 120.515625 -79.804688 119.773438 -74.445312 118.296875 -69.09375 L 110.78125 -39.890625 C 109.007812 -33.890625 108.125 -28.316406 108.125 -23.171875 C 108.125 -19.785156 108.863281 -17.351562 110.34375 -15.875 C 111.832031 -14.394531 114.269531 -13.65625 117.65625 -13.65625 C 120.332031 -13.65625 124.597656 -14.675781 130.453125 -16.71875 L 128.015625 -6.25 C 123.015625 -3.988281 118.132812 -2.097656 113.375 -0.578125 C 108.613281 0.929688 103.691406 1.6875 98.609375 1.6875 C 90.640625 1.6875 84.304688 -0.40625 79.609375 -4.59375 C 74.921875 -8.789062 72.578125 -14.28125 72.578125 -21.0625 Z M 72.578125 -21.0625 "/></g></g></g><g fill="#ffffff" fill-opacity="1"><g transform="translate(817.930621, 873.285313)"><g/></g></g><g fill="#ffffff" fill-opacity="1"><g transform="translate(854.343246, 873.285313)"><g><path d="M 79.78125 -153.203125 C 93.457031 -153.203125 104.085938 -150.519531 111.671875 -145.15625 C 119.253906 -139.800781 123.046875 -132.222656 123.046875 -122.421875 C 123.046875 -115.992188 121.316406 -110.007812 117.859375 -104.46875 C 114.410156 -98.9375 109.332031 -94.144531 102.625 -90.09375 C 95.925781 -86.039062 87.816406 -83.097656 78.296875 -81.265625 L 77.765625 -79.78125 C 88.628906 -79.351562 97.335938 -76.457031 103.890625 -71.09375 C 110.453125 -65.738281 113.734375 -58.789062 113.734375 -50.25 C 113.734375 -40.09375 110.804688 -30.921875 104.953125 -22.734375 C 99.097656 -14.554688 90.953125 -8.175781 80.515625 -3.59375 C 70.078125 0.988281 58.789062 3.28125 46.65625 3.28125 C 33.257812 3.28125 22.46875 0.492188 14.28125 -5.078125 C 6.101562 -10.648438 2.015625 -17.988281 2.015625 -27.09375 C 2.015625 -32.445312 3.773438 -36.957031 7.296875 -40.625 C 10.828125 -44.289062 15.410156 -46.125 21.046875 -46.125 C 26.765625 -46.125 31.050781 -44.675781 33.90625 -41.78125 C 36.757812 -38.894531 38.1875 -34.804688 38.1875 -29.515625 C 38.1875 -25.140625 36.78125 -20.3125 33.96875 -15.03125 L 31.84375 -11.109375 C 34.875 -8.078125 39.492188 -6.5625 45.703125 -6.5625 C 50.566406 -6.5625 55.113281 -8.410156 59.34375 -12.109375 C 63.582031 -15.816406 66.914062 -20.984375 69.34375 -27.609375 C 71.78125 -34.242188 73 -41.863281 73 -50.46875 C 73 -58.4375 71.484375 -64.113281 68.453125 -67.5 C 65.421875 -70.882812 60.875 -72.578125 54.8125 -72.578125 L 45.078125 -72.578125 L 47.71875 -84.96875 L 57.234375 -84.96875 C 65.910156 -84.96875 72.734375 -88.175781 77.703125 -94.59375 C 82.679688 -101.007812 85.171875 -109.789062 85.171875 -120.9375 C 85.171875 -128.195312 84.039062 -133.695312 81.78125 -137.4375 C 79.53125 -141.175781 76.320312 -143.046875 72.15625 -143.046875 C 67.707031 -143.046875 63.582031 -141.53125 59.78125 -138.5 C 62.101562 -133.132812 63.265625 -127.5625 63.265625 -121.78125 C 63.265625 -116.0625 61.695312 -111.492188 58.5625 -108.078125 C 55.425781 -104.660156 50.785156 -102.953125 44.640625 -102.953125 C 39.210938 -102.953125 35.101562 -104.378906 32.3125 -107.234375 C 29.53125 -110.085938 28.140625 -113.84375 28.140625 -118.5 C 28.140625 -124.84375 30.429688 -130.695312 35.015625 -136.0625 C 39.597656 -141.425781 45.835938 -145.625 53.734375 -148.65625 C 61.640625 -151.6875 70.320312 -153.203125 79.78125 -153.203125 Z M 79.78125 -153.203125 "/></g></g></g><g fill="#ffffff" fill-opacity="1"><g transform="translate(964.817266, 873.285313)"><g><path d="M 124.21875 -102.734375 C 124.21875 -83.972656 120.019531 -66.921875 111.625 -51.578125 C 103.226562 -36.234375 91.195312 -23.75 75.53125 -14.125 C 59.875 -4.5 41.644531 1.722656 20.84375 4.546875 L 20.203125 -5.921875 L 29.515625 -8.046875 C 41.429688 -11.148438 51.460938 -17.234375 59.609375 -26.296875 C 67.765625 -35.359375 74.34375 -48.632812 79.34375 -66.125 C 74.125 -61.113281 68.972656 -57.476562 63.890625 -55.21875 C 58.816406 -52.96875 52.828125 -51.84375 45.921875 -51.84375 C 36.609375 -51.84375 28.96875 -55.632812 23 -63.21875 C 17.039062 -70.800781 14.0625 -80.304688 14.0625 -91.734375 C 14.0625 -102.734375 16.847656 -112.941406 22.421875 -122.359375 C 27.992188 -131.773438 35.664062 -139.160156 45.4375 -144.515625 C 55.207031 -149.878906 65.703125 -152.5625 76.921875 -152.5625 C 91.378906 -152.5625 102.875 -148.046875 111.40625 -139.015625 C 119.945312 -129.992188 124.21875 -117.898438 124.21875 -102.734375 Z M 86.65625 -115.53125 C 86.65625 -124.914062 85.613281 -131.953125 83.53125 -136.640625 C 81.445312 -141.335938 78.609375 -143.6875 75.015625 -143.6875 C 71.128906 -143.6875 67.53125 -141.375 64.21875 -136.75 C 60.90625 -132.132812 58.332031 -125.785156 56.5 -117.703125 C 54.664062 -109.628906 53.75 -100.796875 53.75 -91.203125 C 53.75 -83.941406 54.785156 -78.015625 56.859375 -73.421875 C 58.941406 -68.835938 61.816406 -66.546875 65.484375 -66.546875 C 71.910156 -66.546875 77.554688 -70.460938 82.421875 -78.296875 C 83.753906 -83.085938 84.789062 -88.921875 85.53125 -95.796875 C 86.28125 -102.679688 86.65625 -109.257812 86.65625 -115.53125 Z M 86.65625 -115.53125 "/></g></g></g><g fill="#ffffff" fill-opacity="1"><g transform="translate(1075.291286, 873.285313)"><g><path d="M 124.21875 -102.734375 C 124.21875 -83.972656 120.019531 -66.921875 111.625 -51.578125 C 103.226562 -36.234375 91.195312 -23.75 75.53125 -14.125 C 59.875 -4.5 41.644531 1.722656 20.84375 4.546875 L 20.203125 -5.921875 L 29.515625 -8.046875 C 41.429688 -11.148438 51.460938 -17.234375 59.609375 -26.296875 C 67.765625 -35.359375 74.34375 -48.632812 79.34375 -66.125 C 74.125 -61.113281 68.972656 -57.476562 63.890625 -55.21875 C 58.816406 -52.96875 52.828125 -51.84375 45.921875 -51.84375 C 36.609375 -51.84375 28.96875 -55.632812 23 -63.21875 C 17.039062 -70.800781 14.0625 -80.304688 14.0625 -91.734375 C 14.0625 -102.734375 16.847656 -112.941406 22.421875 -122.359375 C 27.992188 -131.773438 35.664062 -139.160156 45.4375 -144.515625 C 55.207031 -149.878906 65.703125 -152.5625 76.921875 -152.5625 C 91.378906 -152.5625 102.875 -148.046875 111.40625 -139.015625 C 119.945312 -129.992188 124.21875 -117.898438 124.21875 -102.734375 Z M 86.65625 -115.53125 C 86.65625 -124.914062 85.613281 -131.953125 83.53125 -136.640625 C 81.445312 -141.335938 78.609375 -143.6875 75.015625 -143.6875 C 71.128906 -143.6875 67.53125 -141.375 64.21875 -136.75 C 60.90625 -132.132812 58.332031 -125.785156 56.5 -117.703125 C 54.664062 -109.628906 53.75 -100.796875 53.75 -91.203125 C 53.75 -83.941406 54.785156 -78.015625 56.859375 -73.421875 C 58.941406 -68.835938 61.816406 -66.546875 65.484375 -66.546875 C 71.910156 -66.546875 77.554688 -70.460938 82.421875 -78.296875 C 83.753906 -83.085938 84.789062 -88.921875 85.53125 -95.796875 C 86.28125 -102.679688 86.65625 -109.257812 86.65625 -115.53125 Z M 86.65625 -115.53125 "/></g></g></g><g fill="#ffffff" fill-opacity="1"><g transform="translate(1185.765398, 873.285313)"><g/></g></g><g fill="#ffffff" fill-opacity="1"><g transform="translate(1222.178023, 873.285313)"><g><path d="M 145.375 -150.140625 L 134.15625 -95.125 L 124.640625 -95.125 C 122.585938 -113.320312 119.726562 -125.75 116.0625 -132.40625 C 112.394531 -139.070312 107.210938 -142.40625 100.515625 -142.40625 C 92.617188 -142.40625 85.492188 -138.523438 79.140625 -130.765625 C 72.796875 -123.015625 67.4375 -111.34375 63.0625 -95.75 L 97.546875 -95.75 L 90.359375 -83.375 L 59.78125 -83.375 C 58.789062 -80.414062 57.800781 -75.085938 56.8125 -67.390625 L 81.890625 -67.390625 L 75.015625 -54.8125 L 55.65625 -54.8125 C 55.65625 -26.238281 63.90625 -11.953125 80.40625 -11.953125 C 88.09375 -11.953125 95.359375 -14.457031 102.203125 -19.46875 C 109.046875 -24.476562 115.992188 -32.378906 123.046875 -43.171875 L 131.09375 -37.25 C 122.207031 -22.71875 112.382812 -12.257812 101.625 -5.875 C 90.863281 0.507812 78.785156 3.703125 65.390625 3.703125 C 49.941406 3.703125 37.769531 -1.601562 28.875 -12.21875 C 19.988281 -22.832031 15.546875 -37.03125 15.546875 -54.8125 L 0.640625 -54.8125 L 7.625 -67.390625 L 16.5 -67.390625 C 17.351562 -73.035156 18.410156 -78.363281 19.671875 -83.375 L 5.390625 -83.375 L 12.59375 -95.75 L 24.015625 -95.75 C 30.503906 -113.59375 40.128906 -127.664062 52.890625 -137.96875 C 65.660156 -148.269531 80.160156 -153.421875 96.390625 -153.421875 C 103.160156 -153.421875 109.191406 -152.644531 114.484375 -151.09375 C 119.773438 -149.539062 124.75 -147.140625 129.40625 -143.890625 L 136.28125 -150.140625 Z M 145.375 -150.140625 "/></g></g></g></svg>