<svg xmlns="http://www.w3.org/2000/svg" xmlns:xlink="http://www.w3.org/1999/xlink" width="2000" zoomAndPan="magnify" viewBox="0 0 1500 1499.999933" height="2000" preserveAspectRatio="xMidYMid meet" version="1.0"><defs><g/><clipPath id="3e4ae03307"><path d="M 87 110 L 1477 110 L 1477 1499.625 L 87 1499.625 Z M 87 110 " clip-rule="nonzero"/></clipPath><clipPath id="de8b059ad1"><rect x="0" width="746" y="0" height="736"/></clipPath></defs><path fill="#473c33" d="M 1469.84375 786.519531 C 1467.890625 714.558594 1419.492188 654.796875 1354.121094 635.15625 C 1398.136719 583.003906 1406.054688 506.507812 1368.375 445.164062 C 1330.710938 383.820312 1258.90625 356.265625 1192.480469 371.929688 C 1204.527344 304.742188 1173.132812 234.550781 1109.835938 200.25 C 1046.539062 165.96875 970.585938 177.996094 920.894531 224.78125 C 897.742188 160.582031 835.445312 115.480469 763.484375 117.433594 C 691.523438 119.386719 631.761719 167.785156 612.125 233.15625 C 559.96875 189.140625 483.472656 181.222656 422.128906 218.902344 C 360.789062 256.566406 333.234375 328.375 348.894531 394.796875 C 281.707031 382.75 211.515625 414.160156 177.214844 477.441406 C 142.933594 540.738281 154.960938 616.691406 201.746094 666.382812 C 137.550781 689.535156 92.445312 751.832031 94.398438 823.792969 C 96.351562 895.753906 144.75 955.515625 210.121094 975.152344 C 166.105469 1027.308594 158.1875 1103.804688 195.867188 1165.148438 C 233.53125 1226.492188 305.339844 1254.042969 371.761719 1238.382812 C 359.71875 1305.570312 391.128906 1375.761719 454.40625 1410.0625 C 517.703125 1444.34375 593.65625 1432.316406 643.347656 1385.53125 C 666.5 1449.730469 728.796875 1494.832031 800.757812 1492.878906 C 872.71875 1490.925781 932.480469 1442.527344 952.121094 1377.15625 C 1004.273438 1421.171875 1080.785156 1429.089844 1142.113281 1391.425781 C 1203.457031 1353.765625 1231.011719 1281.957031 1215.347656 1215.535156 C 1282.535156 1227.578125 1352.730469 1196.167969 1387.027344 1132.886719 C 1421.308594 1069.589844 1409.28125 993.636719 1362.496094 943.949219 C 1426.695312 920.777344 1471.78125 858.464844 1469.84375 786.519531 Z M 1469.84375 786.519531 " fill-opacity="1" fill-rule="nonzero"/><g clip-path="url(#3e4ae03307)"><path fill="#2b2b2b" d="M 796.273438 1499.808594 C 728.21875 1499.808594 667.179688 1459.378906 640.542969 1397.183594 C 587.472656 1441.589844 512.609375 1449.421875 451.113281 1416.09375 C 389.617188 1382.78125 355.28125 1315.796875 363.488281 1247.078125 C 295.351562 1258.988281 226.582031 1228.34375 189.972656 1168.75 C 153.382812 1109.15625 157.136719 1033.964844 198.605469 978.570312 C 133.609375 954.800781 89.40625 893.882812 87.503906 823.980469 C 85.601562 754.074219 126.457031 690.84375 190.058594 663.597656 C 145.652344 610.527344 137.835938 535.660156 171.152344 474.164062 C 204.464844 412.667969 271.5 378.335938 340.164062 386.539062 C 328.238281 318.382812 358.902344 249.632812 418.496094 213.023438 C 478.089844 176.433594 553.277344 180.1875 608.675781 221.65625 C 632.441406 156.660156 693.359375 112.457031 763.265625 110.554688 C 833.035156 108.667969 896.398438 149.507812 923.648438 213.109375 C 976.71875 168.703125 1051.585938 160.890625 1113.082031 194.203125 C 1174.578125 227.515625 1208.910156 294.5 1200.703125 363.214844 C 1268.875 351.289062 1337.625 381.953125 1374.21875 441.546875 C 1410.8125 501.140625 1407.054688 576.328125 1365.589844 631.726562 C 1430.585938 655.492188 1474.789062 716.410156 1476.691406 786.316406 C 1478.59375 856.222656 1437.738281 919.449219 1374.132812 946.699219 C 1418.539062 999.769531 1426.355469 1074.636719 1393.042969 1136.132812 C 1359.726562 1197.628906 1292.710938 1231.960938 1224.027344 1223.753906 C 1235.953125 1291.910156 1205.289062 1360.660156 1145.699219 1397.269531 C 1086.085938 1433.863281 1010.914062 1430.109375 955.515625 1388.640625 C 931.75 1453.636719 870.832031 1497.839844 800.910156 1499.742188 C 799.382812 1499.792969 797.820312 1499.808594 796.273438 1499.808594 Z M 646.253906 1373.351562 L 649.804688 1383.203125 C 672.652344 1446.519531 733.230469 1487.832031 800.570312 1486.015625 C 867.894531 1484.195312 926.164062 1439.65625 945.546875 1375.1875 L 948.550781 1365.164062 L 956.554688 1371.90625 C 1007.992188 1415.328125 1081.125 1420.816406 1138.527344 1385.566406 C 1195.929688 1350.316406 1224.113281 1282.617188 1208.671875 1217.097656 L 1206.277344 1206.902344 L 1216.570312 1208.753906 C 1282.839844 1220.628906 1348.90625 1188.8125 1380.996094 1129.589844 C 1413.085938 1070.371094 1403.640625 997.644531 1357.503906 948.617188 L 1350.332031 940.992188 L 1360.167969 937.441406 C 1423.484375 914.59375 1464.796875 854.011719 1462.980469 786.671875 C 1461.164062 719.332031 1416.621094 661.082031 1352.152344 641.699219 L 1342.128906 638.691406 L 1348.871094 630.691406 C 1392.292969 579.25 1397.78125 506.117188 1362.53125 448.714844 C 1327.28125 391.3125 1259.566406 363.128906 1194.0625 378.574219 L 1183.867188 380.96875 L 1185.722656 370.671875 C 1197.59375 304.421875 1165.792969 238.335938 1106.558594 206.246094 C 1047.320312 174.15625 974.613281 183.601562 925.601562 229.742188 L 917.972656 236.910156 L 914.421875 227.074219 C 891.574219 163.761719 831.097656 122.460938 763.65625 124.261719 C 696.316406 126.082031 638.0625 170.625 618.679688 235.09375 L 615.675781 245.117188 L 607.671875 238.371094 C 556.234375 194.949219 483.101562 189.464844 425.699219 224.714844 C 368.296875 259.960938 340.113281 327.660156 355.554688 393.183594 L 357.949219 403.375 L 347.65625 401.523438 C 281.367188 389.648438 215.320312 421.449219 183.230469 480.6875 C 151.140625 539.90625 160.585938 612.632812 206.722656 661.660156 L 213.894531 669.285156 L 204.058594 672.835938 C 140.742188 695.6875 99.429688 756.265625 101.246094 823.605469 C 103.0625 890.945312 147.605469 949.195312 212.074219 968.578125 L 222.097656 971.585938 L 215.355469 979.589844 C 171.933594 1031.027344 166.445312 1104.160156 201.695312 1161.5625 C 236.945312 1218.964844 304.640625 1247.148438 370.164062 1231.707031 L 380.359375 1229.3125 L 378.503906 1239.605469 C 366.632812 1305.859375 398.433594 1371.941406 457.667969 1404.03125 C 516.90625 1436.121094 589.613281 1426.675781 638.625 1380.535156 Z M 646.253906 1373.351562 " fill-opacity="1" fill-rule="nonzero"/></g><path fill="#c77051" d="M 1416.484375 728.523438 C 1414.53125 656.5625 1366.132812 596.800781 1300.761719 577.160156 C 1344.777344 525.007812 1352.695312 448.511719 1315.015625 387.167969 C 1277.355469 325.824219 1205.546875 298.269531 1139.121094 313.933594 C 1151.167969 246.746094 1119.773438 176.550781 1056.476562 142.253906 C 993.179688 107.972656 917.226562 120 867.535156 166.785156 C 844.382812 102.585938 782.085938 57.484375 710.125 59.4375 C 638.164062 61.390625 578.402344 109.789062 558.765625 175.160156 C 506.613281 131.144531 430.113281 123.226562 368.773438 160.90625 C 307.429688 198.570312 279.875 270.375 295.535156 336.800781 C 228.347656 324.753906 158.15625 356.164062 123.855469 419.445312 C 89.574219 482.742188 101.601562 558.695312 148.386719 608.386719 C 84.191406 631.539062 39.085938 693.835938 41.039062 765.796875 C 42.996094 837.757812 91.394531 897.519531 156.761719 917.15625 C 112.746094 969.308594 104.832031 1045.808594 142.507812 1107.148438 C 180.171875 1168.492188 251.980469 1196.046875 318.402344 1180.386719 C 306.359375 1247.574219 337.769531 1317.765625 401.046875 1352.066406 C 464.34375 1386.347656 540.296875 1374.320312 589.988281 1327.535156 C 613.144531 1391.730469 675.4375 1436.835938 747.398438 1434.882812 C 819.359375 1432.925781 879.121094 1384.527344 898.761719 1319.160156 C 950.914062 1363.175781 1027.425781 1371.089844 1088.753906 1333.429688 C 1150.097656 1295.765625 1177.652344 1223.960938 1161.988281 1157.535156 C 1229.175781 1169.582031 1299.371094 1138.171875 1333.667969 1074.890625 C 1367.949219 1011.59375 1355.921875 935.640625 1309.136719 885.949219 C 1373.335938 862.777344 1418.4375 800.484375 1416.484375 728.523438 Z M 1416.484375 728.523438 " fill-opacity="1" fill-rule="nonzero"/><path fill="#2b2b2b" d="M 742.914062 1441.8125 C 674.859375 1441.8125 613.824219 1401.382812 587.183594 1339.1875 C 534.113281 1383.59375 459.25 1391.410156 397.753906 1358.097656 C 336.257812 1324.78125 301.925781 1257.800781 310.128906 1189.082031 C 241.957031 1200.992188 173.222656 1170.34375 136.613281 1110.75 C 100.023438 1051.160156 103.777344 975.96875 145.246094 920.570312 C 80.25 896.804688 36.046875 835.886719 34.144531 765.980469 C 32.242188 696.078125 73.097656 632.847656 136.699219 605.597656 C 92.292969 552.527344 84.480469 477.664062 117.792969 416.167969 C 151.105469 354.671875 218.140625 320.339844 286.804688 328.542969 C 274.878906 260.386719 305.542969 191.636719 365.136719 155.027344 C 424.730469 118.4375 499.917969 122.191406 555.316406 163.660156 C 579.082031 98.664062 640 54.460938 709.921875 52.558594 C 779.710938 50.6875 843.058594 91.511719 870.304688 155.113281 C 923.375 110.707031 998.242188 102.875 1059.738281 136.207031 C 1121.234375 169.519531 1155.566406 236.503906 1147.363281 305.21875 C 1215.515625 293.292969 1284.285156 323.957031 1320.875 383.550781 C 1357.46875 443.144531 1353.714844 518.332031 1312.246094 573.730469 C 1377.226562 597.496094 1421.445312 658.414062 1423.347656 728.320312 C 1425.25 798.226562 1384.394531 861.453125 1320.792969 888.703125 C 1365.199219 941.773438 1373.011719 1016.640625 1339.699219 1078.136719 C 1306.386719 1139.632812 1239.351562 1173.964844 1170.6875 1165.757812 C 1182.613281 1233.914062 1151.949219 1302.664062 1092.355469 1339.273438 C 1032.761719 1375.867188 957.574219 1372.109375 902.175781 1330.644531 C 878.410156 1395.640625 817.492188 1439.84375 747.585938 1441.746094 C 746.023438 1441.796875 744.476562 1441.8125 742.914062 1441.8125 Z M 589.972656 1320.671875 C 590.496094 1320.671875 591.042969 1320.738281 591.566406 1320.859375 C 593.828125 1321.402344 595.644531 1323.03125 596.425781 1325.207031 C 619.277344 1388.519531 679.871094 1429.851562 747.195312 1428.019531 C 814.535156 1426.199219 872.785156 1381.660156 892.167969 1317.1875 C 892.832031 1314.980469 894.566406 1313.246094 896.789062 1312.585938 C 899 1311.921875 901.410156 1312.433594 903.175781 1313.925781 C 954.617188 1357.347656 1027.75 1362.835938 1085.152344 1327.585938 C 1142.554688 1292.335938 1170.738281 1224.640625 1155.296875 1159.117188 C 1154.769531 1156.855469 1155.398438 1154.496094 1156.992188 1152.8125 C 1158.589844 1151.132812 1160.933594 1150.367188 1163.195312 1150.773438 C 1229.449219 1162.648438 1295.53125 1130.832031 1327.605469 1071.613281 C 1359.695312 1012.390625 1350.25 939.667969 1304.109375 890.640625 C 1302.53125 888.957031 1301.882812 886.578125 1302.425781 884.335938 C 1302.972656 882.078125 1304.601562 880.257812 1306.777344 879.476562 C 1370.089844 856.628906 1411.40625 796.050781 1409.585938 728.710938 C 1407.769531 661.371094 1363.226562 603.117188 1298.757812 583.734375 C 1296.550781 583.074219 1294.816406 581.339844 1294.15625 579.113281 C 1293.492188 576.890625 1294 574.492188 1295.496094 572.726562 C 1338.917969 521.289062 1344.40625 448.15625 1309.15625 390.753906 C 1273.90625 333.351562 1206.191406 305.167969 1140.683594 320.609375 C 1138.425781 321.136719 1136.066406 320.507812 1134.382812 318.910156 C 1132.703125 317.3125 1131.9375 314.988281 1132.34375 312.710938 C 1144.21875 246.457031 1112.417969 180.375 1053.179688 148.285156 C 993.960938 116.195312 921.234375 125.640625 872.226562 171.777344 C 870.542969 173.359375 868.164062 174.003906 865.921875 173.460938 C 863.664062 172.917969 861.84375 171.285156 861.0625 169.113281 C 838.214844 105.796875 777.738281 64.5 710.296875 66.300781 C 642.972656 68.117188 584.703125 112.660156 565.320312 177.128906 C 564.660156 179.339844 562.925781 181.070312 560.699219 181.734375 C 558.492188 182.394531 556.082031 181.886719 554.3125 180.390625 C 502.875 136.96875 429.742188 131.484375 372.339844 166.734375 C 314.9375 201.984375 286.753906 269.679688 302.195312 335.203125 C 302.722656 337.460938 302.09375 339.824219 300.496094 341.503906 C 298.898438 343.1875 296.574219 343.949219 294.296875 343.542969 C 228.007812 331.667969 161.960938 363.46875 129.871094 422.707031 C 97.78125 481.925781 107.226562 554.652344 153.363281 603.679688 C 154.945312 605.359375 155.589844 607.738281 155.046875 609.980469 C 154.503906 612.242188 152.871094 614.058594 150.699219 614.839844 C 87.382812 637.6875 46.070312 698.269531 47.886719 765.609375 C 49.703125 832.949219 94.246094 891.199219 158.714844 910.582031 C 160.925781 911.246094 162.65625 912.976562 163.320312 915.203125 C 163.980469 917.429688 163.472656 919.824219 161.976562 921.589844 C 118.554688 973.03125 113.070312 1046.164062 148.320312 1103.566406 C 183.570312 1160.96875 251.28125 1189.152344 316.789062 1173.707031 C 319.046875 1173.183594 321.410156 1173.8125 323.089844 1175.40625 C 324.773438 1177.003906 325.539062 1179.332031 325.128906 1181.609375 C 313.253906 1247.859375 345.074219 1313.945312 404.292969 1346.035156 C 463.53125 1378.125 536.253906 1368.679688 585.25 1322.539062 C 586.558594 1321.316406 588.253906 1320.671875 589.972656 1320.671875 Z M 589.972656 1320.671875 " fill-opacity="1" fill-rule="nonzero"/><g transform="matrix(1, 0, 0, 1, 342, 382)"><g clip-path="url(#de8b059ad1)"><g fill="#fff7ee" fill-opacity="1"><g transform="translate(6.986669, 593.404518)"><g><path d="M 357.515625 -270.109375 C 357.515625 -251.378906 352.726562 -236.492188 343.15625 -225.453125 C 333.582031 -214.410156 321.117188 -208.890625 305.765625 -208.890625 C 295.035156 -208.890625 285.304688 -210.882812 276.578125 -214.875 C 267.847656 -218.875 260.113281 -222.875 253.375 -226.875 C 243.28125 -219.09375 231.394531 -204.472656 217.71875 -183.015625 L 229.71875 -125.265625 C 235.8125 -94.765625 242.90625 -72.304688 251 -57.890625 C 259.101562 -43.484375 269.15625 -36.28125 281.15625 -36.28125 C 292.09375 -36.28125 304.609375 -39.4375 318.703125 -45.75 L 310.8125 -16.71875 C 279.257812 0.101562 250.441406 8.515625 224.359375 8.515625 C 206.679688 8.515625 192.582031 4.890625 182.0625 -2.359375 C 171.550781 -9.617188 162.71875 -21.082031 155.5625 -36.75 C 148.40625 -52.425781 143.039062 -72.890625 139.46875 -98.140625 L 126.53125 -77.625 C 104.863281 -44.382812 87.984375 -22.082031 75.890625 -10.71875 C 63.796875 0.632812 49.960938 6.3125 34.390625 6.3125 C 23.035156 6.3125 13.515625 2.101562 5.828125 -6.3125 C -1.847656 -14.726562 -5.6875 -26.820312 -5.6875 -42.59375 C -5.6875 -60.6875 -0.164062 -75.570312 10.875 -87.25 C 21.925781 -98.925781 36.394531 -104.765625 54.28125 -104.765625 C 63.945312 -104.765625 72.515625 -102.816406 79.984375 -98.921875 C 87.453125 -95.023438 93.921875 -91.082031 99.390625 -87.09375 C 110.546875 -99.289062 121.171875 -113.171875 131.265625 -128.734375 L 117.0625 -193.421875 C 110.75 -223.929688 104.332031 -244.65625 97.8125 -255.59375 C 91.289062 -266.53125 81.929688 -272 69.734375 -272 C 58.160156 -272 45.429688 -268.53125 31.546875 -261.59375 C 32.179688 -263.476562 34.394531 -273.257812 38.1875 -290.9375 C 71.84375 -308.1875 100.867188 -316.8125 125.265625 -316.8125 C 146.515625 -316.8125 164.082031 -308.867188 177.96875 -292.984375 C 191.851562 -277.097656 202.789062 -250.117188 210.78125 -212.046875 L 227.5 -239.8125 C 244.125 -267.789062 258.851562 -287.828125 271.6875 -299.921875 C 284.519531 -312.015625 297.769531 -318.0625 311.4375 -318.0625 C 324.0625 -318.0625 334.894531 -313.695312 343.9375 -304.96875 C 352.988281 -296.238281 357.515625 -284.617188 357.515625 -270.109375 Z M 357.515625 -270.109375 "/></g></g></g><g fill="#fff7ee" fill-opacity="1"><g transform="translate(360.388515, 593.404518)"><g><path d="M 237.921875 -456.90625 C 278.722656 -456.90625 310.429688 -448.910156 333.046875 -432.921875 C 355.660156 -416.929688 366.96875 -394.316406 366.96875 -365.078125 C 366.96875 -345.941406 361.8125 -328.113281 351.5 -311.59375 C 341.195312 -295.082031 326.050781 -280.78125 306.0625 -268.6875 C 286.082031 -256.59375 261.894531 -247.8125 233.5 -242.34375 L 231.921875 -237.921875 C 264.316406 -236.660156 290.296875 -228.035156 309.859375 -212.046875 C 329.421875 -196.054688 339.203125 -175.335938 339.203125 -149.890625 C 339.203125 -119.585938 330.472656 -92.234375 313.015625 -67.828125 C 295.554688 -43.429688 271.257812 -24.394531 240.125 -10.71875 C 208.988281 2.945312 175.332031 9.78125 139.15625 9.78125 C 99.1875 9.78125 67 1.472656 42.59375 -15.140625 C 18.1875 -31.765625 5.984375 -53.644531 5.984375 -80.78125 C 5.984375 -96.769531 11.242188 -110.234375 21.765625 -121.171875 C 32.285156 -132.109375 45.957031 -137.578125 62.78125 -137.578125 C 79.820312 -137.578125 92.601562 -133.265625 101.125 -124.640625 C 109.644531 -116.015625 113.90625 -103.8125 113.90625 -88.03125 C 113.90625 -74.988281 109.695312 -60.582031 101.28125 -44.8125 L 94.96875 -33.125 C 104.019531 -24.082031 117.800781 -19.5625 136.3125 -19.5625 C 150.820312 -19.5625 164.390625 -25.082031 177.015625 -36.125 C 189.640625 -47.175781 199.578125 -62.585938 206.828125 -82.359375 C 214.085938 -102.128906 217.71875 -124.847656 217.71875 -150.515625 C 217.71875 -174.285156 213.191406 -191.21875 204.140625 -201.3125 C 195.097656 -211.414062 181.535156 -216.46875 163.453125 -216.46875 L 134.421875 -216.46875 L 142.3125 -253.375 L 170.703125 -253.375 C 196.578125 -253.375 216.929688 -262.945312 231.765625 -282.09375 C 246.597656 -301.238281 254.015625 -327.429688 254.015625 -360.671875 C 254.015625 -382.335938 250.644531 -398.742188 243.90625 -409.890625 C 237.175781 -421.035156 227.609375 -426.609375 215.203125 -426.609375 C 201.941406 -426.609375 189.632812 -422.085938 178.28125 -413.046875 C 185.21875 -397.054688 188.6875 -380.4375 188.6875 -363.1875 C 188.6875 -346.144531 184.003906 -332.523438 174.640625 -322.328125 C 165.285156 -312.128906 151.457031 -307.03125 133.15625 -307.03125 C 116.957031 -307.03125 104.703125 -311.285156 96.390625 -319.796875 C 88.085938 -328.316406 83.9375 -339.519531 83.9375 -353.40625 C 83.9375 -372.34375 90.769531 -389.800781 104.4375 -405.78125 C 118.113281 -421.769531 136.726562 -434.285156 160.28125 -443.328125 C 183.84375 -452.378906 209.722656 -456.90625 237.921875 -456.90625 Z M 237.921875 -456.90625 "/></g></g></g></g></g></svg>