<svg xmlns="http://www.w3.org/2000/svg" xmlns:xlink="http://www.w3.org/1999/xlink" width="2000" zoomAndPan="magnify" viewBox="0 0 1500 1499.999933" height="2000" preserveAspectRatio="xMidYMid meet" version="1.0"><defs><g/><clipPath id="f5fc2c111c"><path d="M 87 110 L 1477 110 L 1477 1499.625 L 87 1499.625 Z M 87 110 " clip-rule="nonzero"/></clipPath><clipPath id="9e89c6ac53"><rect x="0" width="1088" y="0" height="326"/></clipPath></defs><path fill="#473c33" d="M 1469.84375 786.519531 C 1467.890625 714.558594 1419.492188 654.796875 1354.121094 635.15625 C 1398.136719 583.003906 1406.054688 506.507812 1368.375 445.164062 C 1330.710938 383.820312 1258.90625 356.265625 1192.480469 371.929688 C 1204.527344 304.742188 1173.132812 234.550781 1109.835938 200.25 C 1046.539062 165.96875 970.585938 177.996094 920.894531 224.78125 C 897.742188 160.582031 835.445312 115.480469 763.484375 117.433594 C 691.523438 119.386719 631.761719 167.785156 612.125 233.15625 C 559.96875 189.140625 483.472656 181.222656 422.128906 218.902344 C 360.789062 256.566406 333.234375 328.375 348.894531 394.796875 C 281.707031 382.75 211.515625 414.160156 177.214844 477.441406 C 142.933594 540.738281 154.960938 616.691406 201.746094 666.382812 C 137.550781 689.535156 92.445312 751.832031 94.398438 823.792969 C 96.351562 895.753906 144.75 955.515625 210.121094 975.152344 C 166.105469 1027.308594 158.1875 1103.804688 195.867188 1165.148438 C 233.53125 1226.492188 305.339844 1254.042969 371.761719 1238.382812 C 359.71875 1305.570312 391.128906 1375.761719 454.40625 1410.0625 C 517.703125 1444.34375 593.65625 1432.316406 643.347656 1385.53125 C 666.5 1449.730469 728.796875 1494.832031 800.757812 1492.878906 C 872.71875 1490.925781 932.480469 1442.527344 952.121094 1377.15625 C 1004.273438 1421.171875 1080.785156 1429.089844 1142.113281 1391.425781 C 1203.457031 1353.765625 1231.011719 1281.957031 1215.347656 1215.535156 C 1282.535156 1227.578125 1352.730469 1196.167969 1387.027344 1132.886719 C 1421.308594 1069.589844 1409.28125 993.636719 1362.496094 943.949219 C 1426.695312 920.777344 1471.78125 858.464844 1469.84375 786.519531 Z M 1469.84375 786.519531 " fill-opacity="1" fill-rule="nonzero"/><g clip-path="url(#f5fc2c111c)"><path fill="#2b2b2b" d="M 796.273438 1499.808594 C 728.21875 1499.808594 667.179688 1459.378906 640.542969 1397.183594 C 587.472656 1441.589844 512.609375 1449.421875 451.113281 1416.09375 C 389.617188 1382.78125 355.28125 1315.796875 363.488281 1247.078125 C 295.351562 1258.988281 226.582031 1228.34375 189.972656 1168.75 C 153.382812 1109.15625 157.136719 1033.964844 198.605469 978.570312 C 133.609375 954.800781 89.40625 893.882812 87.503906 823.980469 C 85.601562 754.074219 126.457031 690.84375 190.058594 663.597656 C 145.652344 610.527344 137.835938 535.660156 171.152344 474.164062 C 204.464844 412.667969 271.5 378.335938 340.164062 386.539062 C 328.238281 318.382812 358.902344 249.632812 418.496094 213.023438 C 478.089844 176.433594 553.277344 180.1875 608.675781 221.65625 C 632.441406 156.660156 693.359375 112.457031 763.265625 110.554688 C 833.035156 108.667969 896.398438 149.507812 923.648438 213.109375 C 976.71875 168.703125 1051.585938 160.890625 1113.082031 194.203125 C 1174.578125 227.515625 1208.910156 294.5 1200.703125 363.214844 C 1268.875 351.289062 1337.625 381.953125 1374.21875 441.546875 C 1410.8125 501.140625 1407.054688 576.328125 1365.589844 631.726562 C 1430.585938 655.492188 1474.789062 716.410156 1476.691406 786.316406 C 1478.59375 856.222656 1437.738281 919.449219 1374.132812 946.699219 C 1418.539062 999.769531 1426.355469 1074.636719 1393.042969 1136.132812 C 1359.726562 1197.628906 1292.710938 1231.960938 1224.027344 1223.753906 C 1235.953125 1291.910156 1205.289062 1360.660156 1145.699219 1397.269531 C 1086.085938 1433.863281 1010.914062 1430.109375 955.515625 1388.640625 C 931.75 1453.636719 870.832031 1497.839844 800.910156 1499.742188 C 799.382812 1499.792969 797.820312 1499.808594 796.273438 1499.808594 Z M 646.253906 1373.351562 L 649.804688 1383.203125 C 672.652344 1446.519531 733.230469 1487.832031 800.570312 1486.015625 C 867.894531 1484.195312 926.164062 1439.65625 945.546875 1375.1875 L 948.550781 1365.164062 L 956.554688 1371.90625 C 1007.992188 1415.328125 1081.125 1420.816406 1138.527344 1385.566406 C 1195.929688 1350.316406 1224.113281 1282.617188 1208.671875 1217.097656 L 1206.277344 1206.902344 L 1216.570312 1208.753906 C 1282.839844 1220.628906 1348.90625 1188.8125 1380.996094 1129.589844 C 1413.085938 1070.371094 1403.640625 997.644531 1357.503906 948.617188 L 1350.332031 940.992188 L 1360.167969 937.441406 C 1423.484375 914.59375 1464.796875 854.011719 1462.980469 786.671875 C 1461.164062 719.332031 1416.621094 661.082031 1352.152344 641.699219 L 1342.128906 638.691406 L 1348.871094 630.691406 C 1392.292969 579.25 1397.78125 506.117188 1362.53125 448.714844 C 1327.28125 391.3125 1259.566406 363.128906 1194.0625 378.574219 L 1183.867188 380.96875 L 1185.722656 370.671875 C 1197.59375 304.421875 1165.792969 238.335938 1106.558594 206.246094 C 1047.320312 174.15625 974.613281 183.601562 925.601562 229.742188 L 917.972656 236.910156 L 914.421875 227.074219 C 891.574219 163.761719 831.097656 122.460938 763.65625 124.261719 C 696.316406 126.082031 638.0625 170.625 618.679688 235.09375 L 615.675781 245.117188 L 607.671875 238.371094 C 556.234375 194.949219 483.101562 189.464844 425.699219 224.714844 C 368.296875 259.960938 340.113281 327.660156 355.554688 393.183594 L 357.949219 403.375 L 347.65625 401.523438 C 281.367188 389.648438 215.320312 421.449219 183.230469 480.6875 C 151.140625 539.90625 160.585938 612.632812 206.722656 661.660156 L 213.894531 669.285156 L 204.058594 672.835938 C 140.742188 695.6875 99.429688 756.265625 101.246094 823.605469 C 103.0625 890.945312 147.605469 949.195312 212.074219 968.578125 L 222.097656 971.585938 L 215.355469 979.589844 C 171.933594 1031.027344 166.445312 1104.160156 201.695312 1161.5625 C 236.945312 1218.964844 304.640625 1247.148438 370.164062 1231.707031 L 380.359375 1229.3125 L 378.503906 1239.605469 C 366.632812 1305.859375 398.433594 1371.941406 457.667969 1404.03125 C 516.90625 1436.121094 589.613281 1426.675781 638.625 1380.535156 Z M 646.253906 1373.351562 " fill-opacity="1" fill-rule="nonzero"/></g><path fill="#c77051" d="M 1416.484375 728.523438 C 1414.53125 656.5625 1366.132812 596.800781 1300.761719 577.160156 C 1344.777344 525.007812 1352.695312 448.511719 1315.015625 387.167969 C 1277.355469 325.824219 1205.546875 298.269531 1139.121094 313.933594 C 1151.167969 246.746094 1119.773438 176.550781 1056.476562 142.253906 C 993.179688 107.972656 917.226562 120 867.535156 166.785156 C 844.382812 102.585938 782.085938 57.484375 710.125 59.4375 C 638.164062 61.390625 578.402344 109.789062 558.765625 175.160156 C 506.613281 131.144531 430.113281 123.226562 368.773438 160.90625 C 307.429688 198.570312 279.875 270.375 295.535156 336.800781 C 228.347656 324.753906 158.15625 356.164062 123.855469 419.445312 C 89.574219 482.742188 101.601562 558.695312 148.386719 608.386719 C 84.191406 631.539062 39.085938 693.835938 41.039062 765.796875 C 42.996094 837.757812 91.394531 897.519531 156.761719 917.15625 C 112.746094 969.308594 104.832031 1045.808594 142.507812 1107.148438 C 180.171875 1168.492188 251.980469 1196.046875 318.402344 1180.386719 C 306.359375 1247.574219 337.769531 1317.765625 401.046875 1352.066406 C 464.34375 1386.347656 540.296875 1374.320312 589.988281 1327.535156 C 613.144531 1391.730469 675.4375 1436.835938 747.398438 1434.882812 C 819.359375 1432.925781 879.121094 1384.527344 898.761719 1319.160156 C 950.914062 1363.175781 1027.425781 1371.089844 1088.753906 1333.429688 C 1150.097656 1295.765625 1177.652344 1223.960938 1161.988281 1157.535156 C 1229.175781 1169.582031 1299.371094 1138.171875 1333.667969 1074.890625 C 1367.949219 1011.59375 1355.921875 935.640625 1309.136719 885.949219 C 1373.335938 862.777344 1418.4375 800.484375 1416.484375 728.523438 Z M 1416.484375 728.523438 " fill-opacity="1" fill-rule="nonzero"/><path fill="#2b2b2b" d="M 742.914062 1441.8125 C 674.859375 1441.8125 613.824219 1401.382812 587.183594 1339.1875 C 534.113281 1383.59375 459.25 1391.410156 397.753906 1358.097656 C 336.257812 1324.78125 301.925781 1257.800781 310.128906 1189.082031 C 241.957031 1200.992188 173.222656 1170.34375 136.613281 1110.75 C 100.023438 1051.160156 103.777344 975.96875 145.246094 920.570312 C 80.25 896.804688 36.046875 835.886719 34.144531 765.980469 C 32.242188 696.078125 73.097656 632.847656 136.699219 605.597656 C 92.292969 552.527344 84.480469 477.664062 117.792969 416.167969 C 151.105469 354.671875 218.140625 320.339844 286.804688 328.542969 C 274.878906 260.386719 305.542969 191.636719 365.136719 155.027344 C 424.730469 118.4375 499.917969 122.191406 555.316406 163.660156 C 579.082031 98.664062 640 54.460938 709.921875 52.558594 C 779.710938 50.6875 843.058594 91.511719 870.304688 155.113281 C 923.375 110.707031 998.242188 102.875 1059.738281 136.207031 C 1121.234375 169.519531 1155.566406 236.503906 1147.363281 305.21875 C 1215.515625 293.292969 1284.285156 323.957031 1320.875 383.550781 C 1357.46875 443.144531 1353.714844 518.332031 1312.246094 573.730469 C 1377.226562 597.496094 1421.445312 658.414062 1423.347656 728.320312 C 1425.25 798.226562 1384.394531 861.453125 1320.792969 888.703125 C 1365.199219 941.773438 1373.011719 1016.640625 1339.699219 1078.136719 C 1306.386719 1139.632812 1239.351562 1173.964844 1170.6875 1165.757812 C 1182.613281 1233.914062 1151.949219 1302.664062 1092.355469 1339.273438 C 1032.761719 1375.867188 957.574219 1372.109375 902.175781 1330.644531 C 878.410156 1395.640625 817.492188 1439.84375 747.585938 1441.746094 C 746.023438 1441.796875 744.476562 1441.8125 742.914062 1441.8125 Z M 589.972656 1320.671875 C 590.496094 1320.671875 591.042969 1320.738281 591.566406 1320.859375 C 593.828125 1321.402344 595.644531 1323.03125 596.425781 1325.207031 C 619.277344 1388.519531 679.871094 1429.851562 747.195312 1428.019531 C 814.535156 1426.199219 872.785156 1381.660156 892.167969 1317.1875 C 892.832031 1314.980469 894.566406 1313.246094 896.789062 1312.585938 C 899 1311.921875 901.410156 1312.433594 903.175781 1313.925781 C 954.617188 1357.347656 1027.75 1362.835938 1085.152344 1327.585938 C 1142.554688 1292.335938 1170.738281 1224.640625 1155.296875 1159.117188 C 1154.769531 1156.855469 1155.398438 1154.496094 1156.992188 1152.8125 C 1158.589844 1151.132812 1160.933594 1150.367188 1163.195312 1150.773438 C 1229.449219 1162.648438 1295.53125 1130.832031 1327.605469 1071.613281 C 1359.695312 1012.390625 1350.25 939.667969 1304.109375 890.640625 C 1302.53125 888.957031 1301.882812 886.578125 1302.425781 884.335938 C 1302.972656 882.078125 1304.601562 880.257812 1306.777344 879.476562 C 1370.089844 856.628906 1411.40625 796.050781 1409.585938 728.710938 C 1407.769531 661.371094 1363.226562 603.117188 1298.757812 583.734375 C 1296.550781 583.074219 1294.816406 581.339844 1294.15625 579.113281 C 1293.492188 576.890625 1294 574.492188 1295.496094 572.726562 C 1338.917969 521.289062 1344.40625 448.15625 1309.15625 390.753906 C 1273.90625 333.351562 1206.191406 305.167969 1140.683594 320.609375 C 1138.425781 321.136719 1136.066406 320.507812 1134.382812 318.910156 C 1132.703125 317.3125 1131.9375 314.988281 1132.34375 312.710938 C 1144.21875 246.457031 1112.417969 180.375 1053.179688 148.285156 C 993.960938 116.195312 921.234375 125.640625 872.226562 171.777344 C 870.542969 173.359375 868.164062 174.003906 865.921875 173.460938 C 863.664062 172.917969 861.84375 171.285156 861.0625 169.113281 C 838.214844 105.796875 777.738281 64.5 710.296875 66.300781 C 642.972656 68.117188 584.703125 112.660156 565.320312 177.128906 C 564.660156 179.339844 562.925781 181.070312 560.699219 181.734375 C 558.492188 182.394531 556.082031 181.886719 554.3125 180.390625 C 502.875 136.96875 429.742188 131.484375 372.339844 166.734375 C 314.9375 201.984375 286.753906 269.679688 302.195312 335.203125 C 302.722656 337.460938 302.09375 339.824219 300.496094 341.503906 C 298.898438 343.1875 296.574219 343.949219 294.296875 343.542969 C 228.007812 331.667969 161.960938 363.46875 129.871094 422.707031 C 97.78125 481.925781 107.226562 554.652344 153.363281 603.679688 C 154.945312 605.359375 155.589844 607.738281 155.046875 609.980469 C 154.503906 612.242188 152.871094 614.058594 150.699219 614.839844 C 87.382812 637.6875 46.070312 698.269531 47.886719 765.609375 C 49.703125 832.949219 94.246094 891.199219 158.714844 910.582031 C 160.925781 911.246094 162.65625 912.976562 163.320312 915.203125 C 163.980469 917.429688 163.472656 919.824219 161.976562 921.589844 C 118.554688 973.03125 113.070312 1046.164062 148.320312 1103.566406 C 183.570312 1160.96875 251.28125 1189.152344 316.789062 1173.707031 C 319.046875 1173.183594 321.410156 1173.8125 323.089844 1175.40625 C 324.773438 1177.003906 325.539062 1179.332031 325.128906 1181.609375 C 313.253906 1247.859375 345.074219 1313.945312 404.292969 1346.035156 C 463.53125 1378.125 536.253906 1368.679688 585.25 1322.539062 C 586.558594 1321.316406 588.253906 1320.671875 589.972656 1320.671875 Z M 589.972656 1320.671875 " fill-opacity="1" fill-rule="nonzero"/><g transform="matrix(1, 0, 0, 1, 207, 587)"><g clip-path="url(#9e89c6ac53)"><g fill="#fff7ee" fill-opacity="1"><g transform="translate(0.769961, 262.235429)"><g><path d="M 72.765625 -8.5 C 80.472656 -8.5 88.179688 -15.816406 95.890625 -30.453125 C 103.609375 -45.085938 109.929688 -64.085938 114.859375 -87.453125 C 119.785156 -110.828125 122.25 -132.878906 122.25 -153.609375 C 122.25 -177.023438 116.71875 -188.734375 105.65625 -188.734375 C 97.945312 -188.734375 90.234375 -181.414062 82.515625 -166.78125 C 74.804688 -152.144531 68.488281 -133.140625 63.5625 -109.765625 C 58.632812 -86.398438 56.171875 -64.351562 56.171875 -43.625 C 56.171875 -20.207031 61.703125 -8.5 72.765625 -8.5 Z M 73.59375 4.046875 C 53.25 4.046875 37.566406 -2.757812 26.546875 -16.375 C 15.535156 -29.988281 10.03125 -49.25 10.03125 -74.15625 C 10.03125 -97.195312 14.210938 -118.546875 22.578125 -138.203125 C 30.941406 -157.859375 42.328125 -173.238281 56.734375 -184.34375 C 71.140625 -195.445312 87.078125 -201 104.546875 -201 C 124.890625 -201 140.566406 -194.191406 151.578125 -180.578125 C 162.597656 -166.960938 168.109375 -147.703125 168.109375 -122.796875 C 168.109375 -99.753906 163.925781 -78.40625 155.5625 -58.75 C 147.195312 -39.09375 135.8125 -23.710938 121.40625 -12.609375 C 107 -1.503906 91.0625 4.046875 73.59375 4.046875 Z M 73.59375 4.046875 "/></g></g><g transform="translate(169.153804, 262.235429)"><g><path d="M 73.046875 -18.53125 C 73.046875 -4.414062 67.210938 9.421875 55.546875 22.984375 C 43.878906 36.554688 28.988281 47.15625 10.875 54.78125 L 6.265625 44.46875 C 19.179688 38.613281 29.101562 32.082031 36.03125 24.875 C 42.957031 17.675781 47.675781 9.382812 50.1875 0 L 41.671875 0 C 24.390625 0 15.75 -6.550781 15.75 -19.65625 C 15.75 -24.207031 17.117188 -28.78125 19.859375 -33.375 C 22.597656 -37.976562 26.222656 -41.695312 30.734375 -44.53125 C 35.242188 -47.363281 40.144531 -48.78125 45.4375 -48.78125 C 54.175781 -48.78125 60.960938 -46.128906 65.796875 -40.828125 C 70.628906 -35.535156 73.046875 -28.101562 73.046875 -18.53125 Z M 73.046875 -18.53125 "/></g></g><g transform="translate(264.775755, 262.235429)"><g><path d="M 72.765625 -8.5 C 80.472656 -8.5 88.179688 -15.816406 95.890625 -30.453125 C 103.609375 -45.085938 109.929688 -64.085938 114.859375 -87.453125 C 119.785156 -110.828125 122.25 -132.878906 122.25 -153.609375 C 122.25 -177.023438 116.71875 -188.734375 105.65625 -188.734375 C 97.945312 -188.734375 90.234375 -181.414062 82.515625 -166.78125 C 74.804688 -152.144531 68.488281 -133.140625 63.5625 -109.765625 C 58.632812 -86.398438 56.171875 -64.351562 56.171875 -43.625 C 56.171875 -20.207031 61.703125 -8.5 72.765625 -8.5 Z M 73.59375 4.046875 C 53.25 4.046875 37.566406 -2.757812 26.546875 -16.375 C 15.535156 -29.988281 10.03125 -49.25 10.03125 -74.15625 C 10.03125 -97.195312 14.210938 -118.546875 22.578125 -138.203125 C 30.941406 -157.859375 42.328125 -173.238281 56.734375 -184.34375 C 71.140625 -195.445312 87.078125 -201 104.546875 -201 C 124.890625 -201 140.566406 -194.191406 151.578125 -180.578125 C 162.597656 -166.960938 168.109375 -147.703125 168.109375 -122.796875 C 168.109375 -99.753906 163.925781 -78.40625 155.5625 -58.75 C 147.195312 -39.09375 135.8125 -23.710938 121.40625 -12.609375 C 107 -1.503906 91.0625 4.046875 73.59375 4.046875 Z M 73.59375 4.046875 "/></g></g><g transform="translate(433.159598, 262.235429)"><g><path d="M 61.890625 3.765625 C 44.234375 3.765625 29.96875 0.117188 19.09375 -7.171875 C 8.21875 -14.472656 2.78125 -24.347656 2.78125 -36.796875 C 2.78125 -44.140625 4.914062 -50.109375 9.1875 -54.703125 C 13.46875 -59.304688 19.046875 -61.609375 25.921875 -61.609375 C 33.359375 -61.609375 39.304688 -59.46875 43.765625 -55.1875 C 48.222656 -50.914062 50.453125 -45.25 50.453125 -38.1875 C 50.453125 -33.269531 49.867188 -28.925781 48.703125 -25.15625 C 47.546875 -21.394531 46.363281 -17.65625 45.15625 -13.9375 C 48.59375 -10.78125 53.613281 -9.203125 60.21875 -9.203125 C 67.5625 -9.203125 74.226562 -11.78125 80.21875 -16.9375 C 86.207031 -22.09375 90.898438 -29.429688 94.296875 -38.953125 C 97.691406 -48.484375 99.390625 -59.289062 99.390625 -71.375 C 99.390625 -84.007812 97.390625 -93.578125 93.390625 -100.078125 C 89.390625 -106.585938 83.675781 -109.84375 76.25 -109.84375 C 70.394531 -109.84375 64.257812 -108.164062 57.84375 -104.8125 C 51.4375 -101.46875 45.582031 -96.78125 40.28125 -90.75 L 28.578125 -93.671875 L 62.859375 -197.796875 L 168.9375 -197.796875 L 160.15625 -158.203125 L 65.65625 -158.203125 L 50.1875 -112.484375 C 57.0625 -117.691406 64.191406 -121.363281 71.578125 -123.5 C 78.960938 -125.632812 87.441406 -126.703125 97.015625 -126.703125 C 107.609375 -126.703125 117.039062 -124.773438 125.3125 -120.921875 C 133.582031 -117.066406 140.085938 -111.46875 144.828125 -104.125 C 149.566406 -96.78125 151.9375 -87.859375 151.9375 -77.359375 C 151.9375 -62.023438 148.03125 -48.15625 140.21875 -35.75 C 132.414062 -23.34375 121.613281 -13.65625 107.8125 -6.6875 C 94.019531 0.277344 78.710938 3.765625 61.890625 3.765625 Z M 61.890625 3.765625 "/></g></g><g transform="translate(601.543442, 262.235429)"><g/></g><g transform="translate(672.353867, 262.235429)"><g><path d="M 128.515625 -115 C 128.515625 -108.957031 126.84375 -104.125 123.5 -100.5 C 120.15625 -96.875 115.601562 -95.0625 109.84375 -95.0625 C 104.914062 -95.0625 100.546875 -97.613281 96.734375 -102.71875 C 92.921875 -107.832031 89.390625 -116.710938 86.140625 -129.359375 C 84.835938 -130.097656 83.257812 -130.46875 81.40625 -130.46875 C 76.851562 -130.46875 72.992188 -128.421875 69.828125 -124.328125 C 66.671875 -120.242188 65.09375 -115.226562 65.09375 -109.28125 C 65.09375 -103.707031 66.648438 -99.15625 69.765625 -95.625 C 72.878906 -92.09375 79.128906 -88.1875 88.515625 -83.90625 C 99.472656 -78.800781 107.390625 -73.066406 112.265625 -66.703125 C 117.148438 -60.335938 119.59375 -52.367188 119.59375 -42.796875 C 119.59375 -28.015625 113.898438 -16.460938 102.515625 -8.140625 C 91.140625 0.167969 75.039062 4.328125 54.21875 4.328125 C 43.53125 4.328125 34.210938 3.1875 26.265625 0.90625 C 18.328125 -1.371094 12.242188 -4.789062 8.015625 -9.34375 C 3.785156 -13.894531 1.671875 -19.050781 1.671875 -24.8125 C 1.671875 -30.570312 3.34375 -35.097656 6.6875 -38.390625 C 10.03125 -41.691406 14.769531 -43.34375 20.90625 -43.34375 C 26.113281 -43.34375 30.503906 -42.15625 34.078125 -39.78125 C 37.660156 -37.414062 40.660156 -34.097656 43.078125 -29.828125 C 45.492188 -25.554688 47.863281 -18.957031 50.1875 -10.03125 C 52.226562 -9.007812 54.921875 -8.5 58.265625 -8.5 C 62.535156 -8.5 66.15625 -10.285156 69.125 -13.859375 C 72.101562 -17.441406 73.59375 -21.972656 73.59375 -27.453125 C 73.59375 -31.265625 72.800781 -34.5625 71.21875 -37.34375 C 69.644531 -40.132812 67.460938 -42.671875 64.671875 -44.953125 C 61.890625 -47.234375 55.851562 -51.019531 46.5625 -56.3125 C 36.144531 -62.070312 29.007812 -68.039062 25.15625 -74.21875 C 21.300781 -80.40625 19.375 -87.632812 19.375 -95.90625 C 19.375 -104.632812 21.90625 -112.484375 26.96875 -119.453125 C 32.03125 -126.421875 39.300781 -131.859375 48.78125 -135.765625 C 58.257812 -139.671875 69.316406 -141.625 81.953125 -141.625 C 96.359375 -141.625 107.71875 -139.226562 116.03125 -134.4375 C 124.351562 -129.65625 128.515625 -123.175781 128.515625 -115 Z M 128.515625 -115 "/></g></g><g transform="translate(806.308232, 262.235429)"><g><path d="M 136.46875 -109.28125 C 136.46875 -99.332031 133.5625 -90.894531 127.75 -83.96875 C 121.9375 -77.050781 112.457031 -71.289062 99.3125 -66.6875 C 86.164062 -62.09375 72.390625 -58.914062 57.984375 -57.15625 C 58.816406 -30.476562 67.273438 -17.140625 83.359375 -17.140625 C 91.347656 -17.140625 98.570312 -19.394531 105.03125 -23.90625 C 111.488281 -28.414062 117.785156 -34.894531 123.921875 -43.34375 L 133.25 -34.84375 C 124.800781 -21.925781 114.859375 -12.125 103.421875 -5.4375 C 91.992188 1.246094 79.40625 4.59375 65.65625 4.59375 C 47.90625 4.59375 33.941406 -0.910156 23.765625 -11.921875 C 13.585938 -22.929688 8.5 -37.585938 8.5 -55.890625 C 8.5 -71.597656 12.097656 -86.117188 19.296875 -99.453125 C 26.503906 -112.785156 36.3125 -123.144531 48.71875 -130.53125 C 61.125 -137.925781 75.039062 -141.625 90.46875 -141.625 C 105.425781 -141.625 116.832031 -138.859375 124.6875 -133.328125 C 132.539062 -127.796875 136.46875 -119.78125 136.46875 -109.28125 Z M 83.359375 -130.46875 C 77.773438 -130.46875 72.519531 -124.660156 67.59375 -113.046875 C 62.675781 -101.429688 59.566406 -86.796875 58.265625 -69.140625 C 71.179688 -71.085938 80.21875 -75.101562 85.375 -81.1875 C 90.53125 -87.28125 93.109375 -95.992188 93.109375 -107.328125 C 93.109375 -114.015625 92.269531 -119.539062 90.59375 -123.90625 C 88.925781 -128.28125 86.515625 -130.46875 83.359375 -130.46875 Z M 83.359375 -130.46875 "/></g></g><g transform="translate(948.207861, 262.235429)"><g><path d="M 134.515625 -106.765625 C 134.515625 -98.410156 132.28125 -91.648438 127.8125 -86.484375 C 123.351562 -81.328125 117.363281 -78.75 109.84375 -78.75 C 103.519531 -78.75 98.289062 -80.535156 94.15625 -84.109375 C 90.019531 -87.691406 87.953125 -91.992188 87.953125 -97.015625 C 87.953125 -101.378906 88.832031 -105.675781 90.59375 -109.90625 C 92.363281 -114.132812 94.921875 -118.988281 98.265625 -124.46875 C 96.128906 -128.46875 92.878906 -130.46875 88.515625 -130.46875 C 83.585938 -130.46875 78.847656 -127.210938 74.296875 -120.703125 C 69.742188 -114.203125 66.117188 -105.46875 63.421875 -94.5 C 60.722656 -83.539062 59.375 -71.648438 59.375 -58.828125 C 59.375 -46.003906 61.628906 -35.894531 66.140625 -28.5 C 70.648438 -21.113281 76.664062 -17.421875 84.1875 -17.421875 C 92.082031 -17.421875 99.003906 -19.671875 104.953125 -24.171875 C 110.898438 -28.679688 116.429688 -34.890625 121.546875 -42.796875 L 131.578125 -34.84375 C 124.242188 -22.300781 115.1875 -12.59375 104.40625 -5.71875 C 93.625 1.152344 82.050781 4.59375 69.6875 4.59375 C 50.363281 4.59375 35.378906 -0.628906 24.734375 -11.078125 C 14.097656 -21.535156 8.78125 -36.101562 8.78125 -54.78125 C 8.78125 -70.394531 12.238281 -84.890625 19.15625 -98.265625 C 26.082031 -111.648438 35.796875 -122.222656 48.296875 -129.984375 C 60.796875 -137.742188 74.757812 -141.625 90.1875 -141.625 C 104.40625 -141.625 115.347656 -138.625 123.015625 -132.625 C 130.679688 -126.632812 134.515625 -118.015625 134.515625 -106.765625 Z M 134.515625 -106.765625 "/></g></g></g></g></g></svg>