<svg xmlns="http://www.w3.org/2000/svg" xmlns:xlink="http://www.w3.org/1999/xlink" width="2000" zoomAndPan="magnify" viewBox="0 0 1500 1499.999933" height="2000" preserveAspectRatio="xMidYMid meet" version="1.0"><path fill="#000000" d="M 1391.023438 317.886719 C 1296.332031 274.625 1161.363281 356.589844 1054.828125 508.933594 C 1049.914062 415.734375 1017.53125 344.917969 958.296875 317.886719 C 863.785156 274.625 728.816406 356.589844 622.277344 508.933594 C 617.277344 415.734375 584.894531 344.917969 525.746094 317.886719 C 405.082031 262.515625 218.601562 411.699219 109.433594 650.042969 C 0.261719 888.390625 9.742188 1127.085938 130.492188 1182.375 C 225.183594 1225.636719 360.152344 1143.671875 466.6875 991.328125 C 471.6875 1084.527344 504.070312 1155.34375 563.21875 1182.375 C 657.90625 1225.636719 792.789062 1143.671875 899.324219 991.328125 C 904.328125 1084.527344 936.710938 1155.34375 995.855469 1182.375 C 1116.695312 1237.574219 1303.003906 1088.914062 1412.257812 850.214844 C 1521.515625 611.519531 1511.863281 373.175781 1391.023438 317.886719 Z M 1391.023438 317.886719 " fill-opacity="1" fill-rule="nonzero"/></svg>