<svg xmlns="http://www.w3.org/2000/svg" xmlns:xlink="http://www.w3.org/1999/xlink" width="2000" zoomAndPan="magnify" viewBox="0 0 1500 1499.999933" height="2000" preserveAspectRatio="xMidYMid meet" version="1.0"><path fill="#000000" d="M 462.933594 1182.921875 C 466.335938 1184.972656 469.660156 1186.941406 472.941406 1188.972656 C 473.824219 1189.515625 474.980469 1190.074219 475.347656 1190.914062 C 477.449219 1195.730469 481.089844 1198.617188 485.847656 1200.675781 C 490.960938 1202.890625 494.328125 1207.234375 497.453125 1211.71875 C 499.027344 1213.980469 500.542969 1216.367188 502.515625 1218.246094 C 508.160156 1223.628906 508.691406 1231.179688 510.609375 1237.953125 C 511.410156 1240.777344 512.039062 1245 509.378906 1248.121094 C 508.925781 1248.652344 508.671875 1249.457031 508.566406 1250.167969 C 508.117188 1253.289062 506.25 1255.160156 503.601562 1256.675781 C 500.160156 1258.636719 497.199219 1261.074219 496.417969 1265.398438 C 495.972656 1267.863281 494.8125 1269.976562 491.734375 1269.96875 C 491.320312 1269.96875 490.769531 1270.179688 490.511719 1270.488281 C 485.007812 1276.953125 476.832031 1276.308594 469.683594 1277.777344 C 464.113281 1278.925781 458.421875 1277.082031 453.632812 1273.378906 C 451.882812 1272.023438 449.703125 1271.234375 447.847656 1270 C 444.617188 1267.84375 441.363281 1265.6875 438.332031 1263.265625 C 433.480469 1259.390625 430.21875 1260.015625 427.953125 1265.636719 C 425.183594 1272.507812 420.269531 1277.296875 413.75 1280.558594 C 412.964844 1280.949219 412.027344 1281.132812 411.144531 1281.203125 C 407.304688 1281.515625 403.425781 1281.527344 399.621094 1282.0625 C 394.167969 1282.832031 389.292969 1281.371094 384.359375 1279.285156 C 374.664062 1275.195312 366.472656 1268.964844 358.820312 1261.9375 C 356.921875 1260.191406 354.804688 1259.761719 352.5625 1260.363281 C 346.230469 1262.058594 340.183594 1264.386719 334.273438 1267.378906 C 324.910156 1272.117188 314.851562 1274.453125 304.230469 1272.605469 C 299.664062 1271.8125 299.015625 1272 297.535156 1276.183594 C 296.488281 1279.15625 295.695312 1282.214844 294.78125 1285.230469 C 291.550781 1295.855469 288.183594 1306.445312 285.132812 1317.121094 C 282.988281 1324.609375 281.273438 1332.222656 279.371094 1339.78125 C 278.480469 1343.3125 277.011719 1346.394531 274.605469 1349.320312 C 271.496094 1353.105469 269.511719 1357.796875 266.546875 1361.730469 C 262.699219 1366.832031 258.964844 1371.949219 254.011719 1376.292969 C 247.515625 1381.992188 241.949219 1388.789062 236.246094 1395.34375 C 233.535156 1398.460938 230.429688 1399.589844 226.636719 1398.683594 C 221.761719 1397.519531 220.304688 1395.566406 219.726562 1390.546875 C 219.519531 1388.765625 219 1387.015625 218.777344 1385.230469 C 218.152344 1380.1875 217.613281 1375.128906 217.023438 1370.078125 C 216.796875 1368.140625 217.082031 1365.890625 216.179688 1364.335938 C 214.003906 1360.585938 214.628906 1356.890625 215.085938 1352.964844 C 215.367188 1350.527344 214.558594 1347.980469 214.480469 1345.476562 C 214.363281 1341.746094 214.414062 1338.007812 214.480469 1334.273438 C 214.507812 1332.777344 215.167969 1331.1875 214.839844 1329.808594 C 213.671875 1324.859375 215.578125 1320.632812 217.546875 1316.394531 C 221.035156 1308.910156 224.238281 1301.261719 228.207031 1294.035156 C 231.652344 1287.773438 233.90625 1281.21875 235.886719 1274.414062 C 237.554688 1268.683594 240.210938 1263.238281 242.371094 1257.644531 C 243.9375 1253.59375 245.261719 1249.441406 246.949219 1245.441406 C 250.6875 1236.597656 254.601562 1227.832031 258.410156 1219.019531 C 260.363281 1214.496094 259.964844 1213.613281 255.167969 1212.753906 C 249.113281 1211.667969 244.953125 1208.03125 241.511719 1203.246094 C 236.609375 1196.429688 231.441406 1189.789062 226.804688 1182.796875 C 224.003906 1178.566406 222.128906 1173.734375 219.582031 1169.320312 C 218.179688 1166.894531 216.351562 1164.6875 214.523438 1162.546875 C 212.480469 1160.152344 209.59375 1158.277344 208.171875 1155.59375 C 204.605469 1148.867188 198.558594 1144.59375 193.542969 1139.28125 C 187.144531 1132.5 180.210938 1126.382812 173.09375 1120.40625 C 170.972656 1118.628906 169.855469 1115.667969 167.746094 1113.867188 C 162.972656 1109.785156 157.707031 1106.277344 152.933594 1102.191406 C 146.15625 1096.386719 137.945312 1092.28125 132.753906 1084.546875 C 130.875 1081.75 128.003906 1079.53125 125.316406 1077.386719 C 114.820312 1069.003906 106.023438 1059.007812 97.75 1048.53125 C 96.113281 1046.453125 95.183594 1043.816406 93.941406 1041.429688 C 93.804688 1041.167969 93.847656 1040.785156 93.667969 1040.574219 C 88.34375 1034.230469 87.25 1025.566406 81.96875 1019.199219 C 81.683594 1018.855469 81.382812 1018.480469 81.242188 1018.066406 C 79.355469 1012.550781 77.074219 1007.125 75.785156 1001.472656 C 74.980469 997.941406 75.519531 994.054688 75.753906 990.347656 C 76.007812 986.355469 76.28125 982.3125 77.140625 978.421875 C 78.261719 973.308594 79.527344 968.144531 81.535156 963.335938 C 83.597656 958.402344 86.644531 953.875 89.234375 949.15625 C 89.945312 947.851562 90.734375 946.554688 91.199219 945.160156 C 93.214844 939.105469 95.863281 933.421875 100.835938 929.210938 C 104.707031 925.933594 108.199219 922.496094 111.359375 918.390625 C 115.785156 912.636719 121.484375 907.800781 126.960938 902.933594 C 132.996094 897.574219 139.515625 892.761719 145.585938 887.4375 C 148.03125 885.289062 150.117188 882.597656 151.90625 879.851562 C 157.878906 870.671875 166.804688 864.339844 174.152344 856.496094 C 175.734375 854.804688 177.960938 853.59375 180.089844 852.570312 C 183.191406 851.074219 185.660156 849.164062 187.117188 845.925781 C 187.84375 844.3125 188.9375 842.792969 190.132812 841.472656 C 194.046875 837.152344 197.570312 832.242188 202.195312 828.863281 C 208.78125 824.046875 213.199219 817.398438 218.292969 811.449219 C 223.203125 805.722656 227.929688 799.921875 233.988281 795.488281 C 239.886719 791.167969 244.246094 785.570312 248.394531 779.777344 C 252.886719 773.496094 259.058594 769.503906 265.441406 765.453125 C 271.621094 761.527344 277.171875 756.601562 282.917969 752.019531 C 283.925781 751.214844 284.511719 749.890625 285.355469 748.859375 C 286.386719 747.59375 287.273438 746.035156 288.597656 745.203125 C 295.183594 741.050781 301.65625 736.902344 309.433594 734.785156 C 315.359375 733.167969 320.75 729.578125 326.375 726.855469 C 327.589844 726.269531 328.71875 725.414062 329.992188 725.046875 C 336.425781 723.199219 342.359375 719.46875 349.46875 720.046875 C 350.769531 720.152344 352.21875 719.042969 353.527344 718.355469 C 357.222656 716.414062 360.9375 715.75 365.230469 716.402344 C 370.082031 717.140625 375.195312 717.507812 380.011719 716.785156 C 384.449219 716.117188 388.625 716.839844 392.925781 716.929688 C 396.9375 717.015625 400.957031 716.328125 404.984375 716.144531 C 407.484375 716.03125 410.027344 716.035156 412.511719 716.332031 C 417.800781 716.960938 418.898438 716.070312 420.746094 711.085938 C 423.144531 704.621094 426.054688 698.351562 428.679688 691.972656 C 430.667969 687.132812 432.953125 682.363281 434.382812 677.355469 C 436.089844 671.390625 439.984375 666.785156 442.824219 661.53125 C 447.726562 652.46875 453.242188 643.773438 456.765625 633.90625 C 459.816406 625.367188 463.53125 616.820312 470.761719 610.574219 C 471.996094 609.511719 473.027344 608.15625 473.9375 606.792969 C 478.726562 599.625 485.558594 600.285156 491.742188 603.757812 C 494.054688 605.054688 496.449219 606.335938 498.964844 607.113281 C 503.539062 608.519531 508.242188 609.492188 512.863281 610.738281 C 518.695312 612.316406 523.519531 618.914062 523.875 625.253906 C 524.476562 636.0625 521.007812 646.011719 517.4375 655.894531 C 516.292969 659.054688 513.707031 661.664062 512.292969 664.761719 C 508.492188 673.066406 504.960938 681.5 501.335938 689.886719 C 501.101562 690.433594 500.898438 691.015625 500.792969 691.605469 C 499.792969 697.058594 498.773438 702.507812 497.855469 707.976562 C 497.15625 712.164062 497.382812 712.519531 501.535156 712.246094 C 506.75 711.910156 511.941406 711.167969 517.15625 710.78125 C 523.128906 710.335938 529.132812 710.261719 535.09375 709.695312 C 539.390625 709.285156 543.96875 709.113281 547.832031 707.457031 C 556.882812 703.578125 566.277344 701.125 575.789062 698.894531 C 577.382812 698.519531 579.019531 698.03125 580.433594 697.230469 C 585.960938 694.097656 592.21875 694.273438 598.175781 693.078125 C 599.496094 692.8125 600.863281 692.605469 602.101562 692.105469 C 609.332031 689.175781 616.527344 686.15625 623.75 683.195312 C 625.414062 682.515625 627.175781 682.0625 628.8125 681.316406 C 633.285156 679.285156 637.765625 677.253906 642.09375 674.9375 C 642.71875 674.605469 643.050781 672.421875 642.601562 671.59375 C 640.324219 667.386719 637.484375 663.476562 635.332031 659.210938 C 632.980469 654.546875 630.878906 649.703125 629.214844 644.753906 C 627.914062 640.890625 630.714844 637.808594 632.722656 634.921875 C 635.269531 631.257812 638.433594 628.023438 641.175781 624.484375 C 642.421875 622.875 643.238281 620.945312 644.347656 619.21875 C 645.144531 617.976562 645.949219 616.675781 647.007812 615.671875 C 650.667969 612.183594 654.503906 608.882812 658.152344 605.382812 C 661.921875 601.769531 665.09375 597.304688 669.363281 594.484375 C 674.871094 590.851562 678.445312 585.269531 683.398438 581.542969 C 694.089844 573.492188 703.550781 564.167969 713.324219 555.179688 C 718.472656 550.445312 722.660156 544.667969 727.324219 539.402344 C 728.414062 538.171875 729.734375 537.148438 730.859375 535.949219 C 736.78125 529.632812 742.652344 523.261719 748.597656 516.964844 C 752.078125 513.273438 755.835938 509.835938 759.175781 506.027344 C 768.421875 495.492188 778.269531 485.519531 787.824219 475.273438 C 791.257812 471.589844 795.484375 468.628906 799.460938 465.476562 C 809.503906 457.511719 817.214844 447.285156 826.011719 438.117188 C 829.933594 434.035156 833.289062 429.40625 836.902344 425.03125 C 837.191406 424.683594 837.480469 424.332031 837.8125 424.03125 C 845.375 417.195312 853.082031 410.515625 860.46875 403.496094 C 869.273438 395.128906 877.792969 386.457031 886.464844 377.949219 C 887.957031 376.484375 889.652344 375.238281 891.152344 373.785156 C 893.292969 371.714844 895.324219 369.53125 897.433594 367.429688 C 899.023438 365.84375 900.613281 364.25 902.289062 362.757812 C 905.414062 359.972656 908.675781 357.332031 911.746094 354.492188 C 915.054688 351.429688 918.257812 348.253906 921.421875 345.042969 C 926.792969 339.601562 932.109375 334.109375 937.421875 328.609375 C 941.6875 324.195312 945.933594 319.753906 950.160156 315.296875 C 952.214844 313.132812 954.039062 310.722656 956.261719 308.75 C 962.265625 303.417969 968.519531 298.371094 974.480469 292.988281 C 977.222656 290.515625 979.066406 286.847656 982.082031 284.929688 C 988.085938 281.117188 990.316406 274.347656 995.214844 269.773438 C 995.757812 269.265625 996.039062 268.296875 996.644531 268.0625 C 1003.054688 265.585938 1006.125 258.917969 1012.0625 255.859375 C 1012.839844 255.460938 1013.84375 254.835938 1014.054688 254.113281 C 1015.3125 249.777344 1019.378906 248.738281 1022.464844 246.488281 C 1025.585938 244.214844 1028.554688 241.683594 1031.339844 239.003906 C 1035.78125 234.742188 1039.8125 230.011719 1045.660156 227.511719 C 1045.929688 227.394531 1046.195312 227.21875 1046.410156 227.015625 C 1052.300781 221.535156 1058.246094 216.121094 1064.042969 210.542969 C 1068.367188 206.382812 1072.34375 201.855469 1076.742188 197.777344 C 1087.507812 187.789062 1098.875 178.539062 1110.644531 169.722656 C 1117.929688 164.265625 1124.273438 157.5625 1131.136719 151.527344 C 1137.878906 145.605469 1144.832031 139.917969 1151.511719 133.925781 C 1153.789062 131.882812 1155.523438 129.234375 1157.5 126.855469 C 1158.347656 125.839844 1159.125 124.769531 1160.027344 123.804688 C 1164.191406 119.335938 1168.109375 114.585938 1172.660156 110.550781 C 1176.414062 107.222656 1180.777344 104.488281 1185.167969 102.015625 C 1187.644531 100.621094 1190.546875 101.503906 1192.746094 103.414062 C 1198.734375 108.621094 1204.902344 113.65625 1210.519531 119.246094 C 1218.570312 127.261719 1226.371094 135.546875 1233.929688 144.023438 C 1238.972656 149.679688 1243.417969 155.867188 1248.125 161.820312 C 1248.589844 162.410156 1248.902344 163.207031 1249.492188 163.601562 C 1255.273438 167.484375 1258.722656 173.316406 1262.5 178.898438 C 1263.582031 180.496094 1265.144531 181.765625 1266.433594 183.230469 C 1270.671875 188.035156 1274.851562 192.894531 1279.128906 197.664062 C 1281.722656 200.558594 1284.488281 203.304688 1287.117188 206.167969 C 1289.105469 208.335938 1290.953125 210.625 1292.945312 212.789062 C 1297.199219 217.417969 1301.609375 221.902344 1305.753906 226.625 C 1308.722656 230.007812 1311.265625 233.769531 1314.1875 237.199219 C 1316.089844 239.429688 1318.417969 241.292969 1320.398438 243.464844 C 1322.613281 245.894531 1324.59375 248.535156 1326.78125 250.992188 C 1328.539062 252.964844 1330.722656 254.605469 1332.238281 256.738281 C 1335.234375 260.957031 1339.410156 264.355469 1341.082031 269.523438 C 1341.425781 270.582031 1342.296875 271.742188 1343.246094 272.285156 C 1347.546875 274.738281 1349.496094 278.914062 1351.757812 282.96875 C 1353.054688 285.300781 1354.949219 287.300781 1356.585938 289.4375 C 1361.71875 296.140625 1366.980469 302.753906 1371.109375 310.152344 C 1372.34375 312.371094 1373.277344 314.757812 1374.515625 316.972656 C 1376.332031 320.214844 1378.285156 323.382812 1380.210938 326.566406 C 1380.515625 327.074219 1381.09375 327.441406 1381.335938 327.96875 C 1384.984375 335.984375 1391.394531 342 1396.429688 349.011719 C 1398.246094 351.539062 1399.496094 354.46875 1401.054688 357.1875 C 1405.066406 364.191406 1409.367188 371.042969 1413.066406 378.210938 C 1416.554688 384.972656 1419.410156 392.0625 1422.566406 399 C 1424.972656 404.289062 1423.105469 408.910156 1419.648438 412.6875 C 1414.992188 417.773438 1409.636719 422.210938 1404.828125 427.164062 C 1400.558594 431.550781 1396.503906 436.160156 1392.574219 440.855469 C 1386.671875 447.910156 1379.796875 453.898438 1372.722656 459.703125 C 1365.996094 465.222656 1359.332031 470.816406 1352.640625 476.378906 C 1345.398438 482.394531 1338.136719 488.390625 1330.914062 494.429688 C 1328.382812 496.546875 1325.9375 498.761719 1323.46875 500.953125 C 1317.972656 505.824219 1312.488281 510.710938 1306.996094 515.589844 C 1306.546875 515.988281 1305.894531 516.285156 1305.65625 516.78125 C 1302.226562 523.929688 1294.648438 526.800781 1289.699219 532.34375 C 1285.414062 537.132812 1281.746094 542.507812 1277.21875 547.035156 C 1271.328125 552.914062 1267.527344 560.8125 1259.707031 564.875 C 1257.507812 566.015625 1255.5 567.929688 1253.996094 569.9375 C 1250.574219 574.511719 1246.113281 577.441406 1241.253906 580.34375 C 1236.070312 583.441406 1231.6875 587.917969 1227.070312 591.929688 C 1224.242188 594.390625 1221.777344 597.28125 1218.886719 599.664062 C 1214.386719 603.375 1209.804688 606.882812 1205.71875 611.160156 C 1201.75 615.320312 1196.457031 618.183594 1191.976562 621.898438 C 1188.894531 624.449219 1186.238281 627.515625 1183.335938 630.292969 C 1182.074219 631.503906 1180.816406 632.824219 1179.316406 633.65625 C 1175.234375 635.910156 1170.929688 637.804688 1168.546875 642.183594 C 1168.476562 642.3125 1168.398438 642.476562 1168.277344 642.542969 C 1164.527344 644.566406 1162.464844 648.34375 1159.441406 651.058594 C 1154.226562 655.738281 1148.339844 659.660156 1142.976562 664.183594 C 1137.363281 668.917969 1132.101562 674.0625 1126.554688 678.878906 C 1123.515625 681.515625 1120.417969 684.203125 1116.972656 686.234375 C 1109.859375 690.425781 1104.328125 696.355469 1098.699219 702.15625 C 1089.558594 711.578125 1079.820312 720.183594 1068.917969 727.589844 C 1063.148438 731.511719 1057.910156 736.386719 1054.195312 742.550781 C 1053.886719 743.058594 1053.496094 743.550781 1053.046875 743.933594 C 1047.035156 749.070312 1040.867188 754.035156 1035.035156 759.371094 C 1032.183594 761.980469 1029.570312 765.03125 1027.523438 768.304688 C 1023.980469 773.976562 1018.414062 777.355469 1013.714844 781.730469 C 1007.902344 787.148438 1002.339844 792.839844 996.675781 798.421875 C 996.144531 798.941406 995.765625 799.734375 995.140625 800.023438 C 989.617188 802.589844 987.160156 807.953125 983.667969 812.382812 C 979.96875 817.070312 976.191406 821.6875 972.398438 826.296875 C 971.738281 827.097656 970.941406 827.984375 970.019531 828.34375 C 961.78125 831.554688 956.542969 838.550781 950.328125 844.207031 C 946.445312 847.738281 943.8125 852.617188 940.425781 856.734375 C 939.039062 858.421875 937.347656 860.117188 935.425781 861.050781 C 932.457031 862.488281 930.386719 864.539062 928.367188 867.097656 C 924.949219 871.425781 921.417969 875.851562 917.15625 879.269531 C 913.039062 882.574219 909.019531 885.886719 905.609375 889.890625 C 899.695312 896.835938 893.039062 903.339844 888.242188 911 C 883.4375 918.679688 877.394531 924.246094 869.722656 928.59375 C 866.878906 930.203125 864.550781 932.695312 861.84375 934.574219 C 857.914062 937.296875 854.015625 940.144531 849.792969 942.339844 C 846.964844 943.8125 843.863281 943.625 840.992188 941.234375 C 837.226562 938.101562 833.34375 935.453125 831.078125 930.640625 C 829.488281 927.277344 826.125 924.660156 823.289062 921.988281 C 813.601562 912.855469 806.199219 901.851562 798.070312 891.449219 C 794.839844 887.320312 792.175781 882.75 789.222656 878.402344 C 788.550781 877.410156 787.941406 876.214844 786.992188 875.597656 C 780.71875 871.527344 776.828125 865.523438 773.3125 859.179688 C 773.1875 858.960938 772.824219 858.871094 772.253906 858.535156 C 771.695312 859.292969 771.09375 860.058594 770.542969 860.863281 C 766.824219 866.316406 763.289062 871.910156 759.320312 877.179688 C 757.652344 879.394531 754.746094 880.667969 753 882.847656 C 750.488281 885.992188 748.511719 889.570312 746.324219 892.972656 C 742.519531 898.890625 738.742188 904.832031 734.914062 910.738281 C 734.265625 911.738281 733.5625 912.8125 732.625 913.503906 C 727.3125 917.421875 723.996094 922.867188 720.75 928.417969 C 719.851562 929.957031 718.550781 931.269531 717.371094 932.632812 C 715.335938 934.984375 713.328125 937.371094 711.171875 939.609375 C 707.0625 943.871094 703.367188 948.785156 698.566406 952.0625 C 691.558594 956.84375 685.464844 962.527344 679.269531 968.183594 C 674.183594 972.824219 669.003906 977.363281 663.882812 981.964844 C 663.214844 982.566406 662.429688 983.164062 662.050781 983.9375 C 659.386719 989.382812 654.617188 992.15625 649.574219 995.128906 C 645.464844 997.550781 642.253906 1001.632812 638.9375 1005.246094 C 631.027344 1013.859375 623.492188 1022.820312 615.390625 1031.242188 C 611.703125 1035.078125 606.972656 1037.894531 602.832031 1041.316406 C 600.667969 1043.097656 598.699219 1045.128906 596.746094 1047.144531 C 592.992188 1051.011719 589.320312 1054.957031 585.589844 1058.847656 C 585.078125 1059.382812 584.273438 1059.691406 583.875 1060.285156 C 577.257812 1070.152344 567.550781 1076.988281 559.082031 1084.964844 C 553.035156 1090.65625 548.519531 1097.445312 542.921875 1103.363281 C 539.457031 1107.019531 534.980469 1109.707031 531.066406 1112.960938 C 529.136719 1114.566406 527.386719 1116.414062 525.667969 1118.257812 C 520.753906 1123.511719 515.878906 1128.800781 511.027344 1134.109375 C 508.007812 1137.414062 504.679688 1140.523438 502.179688 1144.191406 C 498.753906 1149.214844 493.316406 1152.378906 490.113281 1157.253906 C 487.285156 1161.550781 483.804688 1164.433594 479.789062 1167.3125 C 475.949219 1170.070312 472.789062 1173.769531 469.3125 1177.035156 C 467.285156 1178.941406 465.226562 1180.808594 462.929688 1182.921875 Z M 386.703125 1051.722656 C 385.886719 1056.914062 388.871094 1060.761719 391.519531 1065.4375 C 394.863281 1061.246094 400.480469 1060.316406 402.988281 1055.429688 C 403.429688 1054.566406 404.578125 1054.085938 405.34375 1053.367188 C 407.632812 1051.222656 410.203125 1049.28125 412.089844 1046.820312 C 414.898438 1043.160156 418.074219 1040.105469 422.324219 1038.304688 C 425.015625 1037.164062 426.707031 1035.214844 427.667969 1032.539062 C 429.734375 1026.773438 431.414062 1020.835938 433.933594 1015.273438 C 438.332031 1005.570312 439.558594 995.097656 442.015625 984.921875 C 442.277344 983.832031 442.203125 982.453125 441.761719 981.433594 C 439.964844 977.253906 439.761719 973.035156 440.714844 968.636719 C 440.992188 967.351562 441.085938 965.808594 440.640625 964.621094 C 439.066406 960.417969 437.347656 956.257812 435.421875 952.203125 C 434.464844 950.191406 432.820312 950.597656 431.320312 951.898438 C 428.613281 954.257812 425.898438 956.609375 423.152344 958.925781 C 421.339844 960.457031 419.1875 961.6875 417.683594 963.472656 C 412.859375 969.183594 408.234375 975.066406 403.589844 980.925781 C 399.160156 986.515625 395.902344 992.75 394.488281 999.746094 C 393.980469 1002.25 393.496094 1004.050781 391.035156 1005.480469 C 387.507812 1007.523438 387.429688 1010.09375 389.773438 1013.6875 C 390.324219 1014.535156 390.625 1015.890625 390.378906 1016.839844 C 389.898438 1018.703125 388.945312 1020.441406 388.191406 1022.234375 C 386.746094 1025.675781 385.128906 1028.960938 387.019531 1032.9375 C 387.769531 1034.519531 387.265625 1036.738281 387.207031 1038.660156 C 387.085938 1042.664062 386.878906 1046.667969 386.707031 1050.671875 C 386.707031 1051.019531 386.703125 1051.371094 386.703125 1051.722656 Z M 422.023438 906.625 C 428.457031 911.542969 434.574219 916.078125 440.527344 920.816406 C 448.277344 926.984375 454.6875 934.222656 457.949219 943.824219 C 458.238281 944.667969 458.785156 945.417969 459.175781 946.226562 C 462.476562 953.105469 469.125 958.371094 469.117188 966.863281 C 469.117188 967.40625 469.6875 967.933594 469.816406 968.507812 C 470.261719 970.5 471.015625 972.523438 470.960938 974.515625 C 470.699219 983.640625 470.238281 992.761719 469.757812 1001.878906 C 469.6875 1003.195312 469.066406 1004.472656 468.8125 1005.789062 C 468.21875 1008.859375 466.917969 1012.042969 467.3125 1014.992188 C 467.921875 1019.578125 465.9375 1023.480469 464.816406 1027.4375 C 462.988281 1033.898438 459.03125 1039.394531 454.398438 1044.472656 C 451.003906 1048.191406 448.617188 1052.839844 445.863281 1057.125 C 441.761719 1063.519531 437.742188 1069.828125 430.96875 1074.023438 C 427.351562 1076.257812 423.378906 1079.242188 421.636719 1082.878906 C 418.988281 1088.40625 414.289062 1091.121094 409.820312 1094.121094 C 406.851562 1096.113281 404.410156 1098.164062 402.5 1101.167969 C 399.769531 1105.472656 396.671875 1109.375 392.070312 1112.125 C 387.324219 1114.964844 382.125 1117.914062 378.875 1122.160156 C 374.976562 1127.242188 370.644531 1131.605469 365.875 1135.71875 C 364.1875 1137.179688 362.8125 1138.996094 361.191406 1140.539062 C 359.136719 1142.496094 357.210938 1144.738281 354.808594 1146.136719 C 351.800781 1147.886719 348.636719 1149.050781 348.125 1153.1875 C 348 1154.195312 346.738281 1155.089844 345.945312 1155.988281 C 340.820312 1161.78125 335.699219 1167.582031 330.53125 1173.335938 C 329.429688 1174.558594 328.320312 1176.023438 326.898438 1176.652344 C 322.636719 1178.539062 320.691406 1182.0625 319.148438 1186.117188 C 317.785156 1189.707031 315.613281 1192.601562 312.035156 1194.53125 C 310.332031 1195.445312 308.714844 1197.265625 307.953125 1199.054688 C 304.1875 1207.902344 300.617188 1216.832031 297.183594 1225.8125 C 294.5 1232.835938 298.164062 1238.417969 302.199219 1243.503906 C 304.546875 1246.460938 314.605469 1246.875 317.902344 1244.910156 C 319.171875 1244.152344 320.578125 1243.609375 321.964844 1243.082031 C 324.882812 1241.972656 327.863281 1241.027344 330.746094 1239.839844 C 333.519531 1238.695312 336.191406 1237.308594 338.921875 1236.0625 C 342.589844 1234.390625 346.617188 1233.242188 349.882812 1230.988281 C 356.820312 1226.214844 365.417969 1224.605469 371.890625 1219.050781 C 372.304688 1218.695312 373.066406 1218.78125 373.578125 1218.496094 C 376.015625 1217.148438 378.550781 1215.917969 380.8125 1214.308594 C 384.257812 1211.859375 386.445312 1207.570312 391.515625 1207.496094 C 392.460938 1207.480469 393.375 1206.097656 394.324219 1205.375 C 397.648438 1202.851562 400.792969 1200.019531 404.363281 1197.917969 C 407.839844 1195.867188 410.792969 1193.550781 412.648438 1189.945312 C 414.597656 1186.164062 417.789062 1183.960938 421.550781 1182.09375 C 424.28125 1180.738281 426.636719 1178.511719 428.910156 1176.402344 C 431.320312 1174.15625 433.140625 1171.195312 435.742188 1169.253906 C 441.429688 1165.003906 446.882812 1160.65625 450.375 1154.289062 C 450.773438 1153.5625 451.640625 1153.003906 452.410156 1152.585938 C 459.019531 1148.996094 463.910156 1143.648438 468.699219 1137.933594 C 472.796875 1133.039062 477.949219 1129.015625 482.734375 1124.714844 C 485.515625 1122.214844 489.144531 1120.394531 491.25 1117.449219 C 497.582031 1108.59375 504.914062 1100.75 512.953125 1093.484375 C 515.378906 1091.292969 517.722656 1089 519.957031 1086.621094 C 521.890625 1084.5625 523.507812 1082.199219 525.476562 1080.175781 C 527.242188 1078.355469 529.726562 1077.109375 531.144531 1075.085938 C 537.664062 1065.773438 545.398438 1057.726562 554.53125 1050.949219 C 556.394531 1049.566406 557.75 1047.464844 559.207031 1045.589844 C 560.765625 1043.585938 561.945312 1041.25 563.675781 1039.429688 C 568.527344 1034.3125 573.582031 1029.390625 578.550781 1024.386719 C 580.34375 1022.582031 581.945312 1020.539062 583.929688 1018.980469 C 590.265625 1014.015625 596.957031 1009.550781 602.238281 1003.273438 C 605.410156 999.5 609.246094 996.253906 612.988281 993.003906 C 618.035156 988.621094 623.714844 984.96875 626.773438 978.570312 C 627.652344 976.730469 629.988281 975.554688 631.726562 974.160156 C 635.34375 971.261719 639.355469 968.765625 642.570312 965.480469 C 647.148438 960.800781 651 955.417969 655.464844 950.621094 C 658.585938 947.269531 662.308594 944.492188 665.585938 941.285156 C 667.597656 939.316406 669.125 936.859375 671.140625 934.898438 C 675.214844 930.933594 679.613281 927.292969 683.617188 923.261719 C 686.863281 919.992188 689.484375 916.082031 692.832031 912.9375 C 697.597656 908.457031 701.984375 903.617188 707.382812 899.710938 C 711.40625 896.796875 714.367188 892.347656 717.574219 888.394531 C 720.207031 885.148438 722.457031 881.589844 724.960938 878.234375 C 727.195312 875.242188 729.988281 872.574219 731.734375 869.332031 C 733.789062 865.511719 736.503906 862.484375 739.773438 859.804688 C 740.351562 859.332031 740.992188 858.84375 741.359375 858.21875 C 746.3125 849.726562 751.222656 841.207031 756.207031 832.578125 C 754.164062 830.816406 752.320312 829.519531 750.847656 827.886719 C 747.738281 824.429688 744.648438 820.925781 741.878906 817.199219 C 738.582031 812.757812 735.667969 808.039062 732.527344 803.484375 C 730.164062 800.0625 728.074219 796.339844 725.1875 793.417969 C 721.324219 789.5 717.59375 785.722656 716.472656 780.074219 C 716.273438 779.078125 715.699219 778.101562 715.113281 777.242188 C 709.296875 768.714844 703.273438 760.324219 697.636719 751.683594 C 691.25 741.902344 684.90625 732.226562 677.039062 723.414062 C 669.917969 715.441406 664.472656 705.953125 658.453125 697.023438 C 655.996094 693.378906 656.15625 693.246094 652.160156 695.355469 C 648.863281 697.097656 645.628906 698.996094 642.21875 700.480469 C 638.785156 701.972656 635.160156 703.023438 631.632812 704.304688 C 622.410156 707.652344 614.496094 713.976562 604.511719 715.707031 C 597.4375 716.929688 590.519531 719.035156 583.53125 720.746094 C 581.375 721.273438 578.722656 721.179688 577.167969 722.441406 C 574.039062 724.980469 570.410156 725.417969 566.816406 726.289062 C 565.363281 726.640625 563.878906 726.890625 562.464844 727.363281 C 558.664062 728.640625 554.898438 730.03125 551.109375 731.34375 C 548.839844 732.128906 546.597656 733.105469 544.261719 733.539062 C 540.9375 734.15625 537.546875 734.417969 534.171875 734.699219 C 532.6875 734.824219 531.167969 734.484375 529.683594 734.589844 C 524.03125 734.988281 518.359375 735.292969 512.746094 736.011719 C 509.359375 736.445312 506.195312 737.03125 502.625 736.441406 C 498.914062 735.832031 494.914062 736.886719 491.054688 737.3125 C 490.355469 737.386719 489.476562 737.75 489.074219 738.28125 C 487.09375 740.886719 484.972656 743.441406 483.417969 746.292969 C 480.277344 752.050781 477.410156 757.960938 474.554688 763.863281 C 473.390625 766.273438 472.445312 768.800781 471.578125 771.335938 C 469.929688 776.136719 469.066406 781.339844 466.679688 785.722656 C 463.316406 791.894531 461.28125 798.332031 459.519531 805.050781 C 457.667969 812.097656 455.125 818.984375 452.585938 825.828125 C 450.296875 832.003906 447.535156 838.003906 445.128906 844.136719 C 444.425781 845.929688 443.910156 847.914062 443.863281 849.824219 C 443.738281 854.90625 441.390625 858.921875 438.664062 862.988281 C 436.960938 865.53125 436.058594 868.632812 434.890625 871.519531 C 434.007812 873.699219 433.347656 875.96875 432.457031 878.144531 C 430.496094 882.957031 426.882812 887.058594 426.46875 892.5625 C 426.292969 894.902344 425.851562 897.28125 425.121094 899.511719 C 424.285156 902.050781 422.996094 904.441406 422.023438 906.625 Z M 221.363281 996.375 C 217.039062 990.667969 219.511719 985.535156 223.152344 980.519531 C 223.570312 979.941406 223.554688 979.066406 223.886719 978.398438 C 226.269531 973.566406 228.398438 968.738281 233.324219 965.53125 C 236.753906 963.292969 239.605469 959.972656 242.238281 956.746094 C 245.230469 953.078125 247.683594 948.972656 250.398438 945.074219 C 250.734375 944.589844 251.144531 944.039062 251.652344 943.808594 C 254.554688 942.496094 255.554688 939.921875 256.597656 937.171875 C 257.441406 934.960938 258.804688 932.902344 260.171875 930.941406 C 262.316406 927.859375 275.5 920.3125 279.339844 919.800781 C 288.128906 918.632812 296.890625 917.183594 305.714844 916.433594 C 311.507812 915.941406 317.386719 916.414062 323.226562 916.566406 C 330.996094 916.769531 338.761719 917.242188 346.53125 917.273438 C 350.324219 917.292969 351.011719 916 351.414062 912.265625 C 351.792969 908.726562 352.199219 905.070312 353.433594 901.777344 C 355.359375 896.636719 358.085938 891.804688 360.292969 886.761719 C 361.785156 883.351562 362.980469 879.816406 364.277344 876.324219 C 365.519531 872.988281 367.054688 869.714844 367.875 866.273438 C 369.398438 859.894531 370.25 853.5625 374.296875 847.816406 C 378.671875 841.609375 381.722656 834.449219 383.449219 826.875 C 384.609375 821.785156 385.851562 816.703125 387.328125 811.695312 C 388.261719 808.539062 390.222656 805.625 390.792969 802.433594 C 392.667969 791.996094 397.359375 782.539062 400.742188 772.640625 C 402.726562 766.847656 405.96875 761.5 408.207031 755.777344 C 409.984375 751.226562 411.097656 746.414062 412.542969 741.589844 C 407.214844 739.707031 402.644531 738.804688 397.535156 740.699219 C 394.785156 741.714844 391.40625 741.273438 388.328125 741.113281 C 385.367188 740.957031 382.410156 739.863281 379.480469 739.980469 C 373.3125 740.230469 367.523438 742.464844 360.988281 741.996094 C 354.648438 741.542969 348 743.925781 342.65625 748.40625 C 341.488281 749.382812 339.714844 749.964844 338.167969 750.089844 C 332.515625 750.550781 327.214844 751.675781 322.9375 755.816406 C 322.007812 756.71875 320.699219 757.355469 319.453125 757.789062 C 315.628906 759.117188 311.746094 760.273438 307.898438 761.527344 C 304.992188 762.472656 302.394531 763.761719 300.667969 766.554688 C 299.828125 767.914062 298.519531 769.527344 297.125 769.902344 C 289.992188 771.8125 286.277344 778.136719 280.777344 782.121094 C 278.128906 784.035156 275.566406 786.253906 273.535156 788.792969 C 266.269531 797.890625 257.164062 805.035156 248.550781 812.6875 C 242.503906 818.0625 236.574219 823.457031 231.851562 830.121094 C 228.652344 834.636719 225.109375 838.9375 221.441406 843.089844 C 215.789062 849.496094 209.914062 855.703125 204.109375 861.972656 C 201.367188 864.933594 198.648438 867.914062 195.796875 870.761719 C 191.246094 875.308594 186.527344 879.6875 182.023438 884.277344 C 180.582031 885.746094 179.808594 887.875 178.351562 889.324219 C 173.703125 893.945312 168.003906 897.519531 164.585938 903.386719 C 164.015625 904.359375 162.851562 905.046875 161.855469 905.695312 C 156.582031 909.144531 152.738281 913.8125 149.769531 919.320312 C 149.082031 920.601562 148.019531 921.808594 146.851562 922.6875 C 137.71875 929.546875 130.226562 937.847656 124.441406 947.703125 C 123.929688 948.574219 123.035156 949.21875 122.367188 950.011719 C 120.171875 952.613281 117.726562 955.058594 115.886719 957.894531 C 113.871094 961.007812 112.601562 964.59375 110.675781 967.773438 C 108.675781 971.074219 105.929688 973.949219 104.15625 977.347656 C 102.113281 981.257812 99.582031 985.316406 101.164062 990.097656 C 102.292969 993.515625 103.503906 996.941406 105.074219 1000.167969 C 109.070312 1008.386719 113.550781 1016.375 117.347656 1024.683594 C 120.964844 1032.605469 125.792969 1039.460938 132.261719 1045.28125 C 135.707031 1048.386719 138.78125 1051.902344 142.042969 1055.210938 C 143.304688 1056.496094 144.601562 1057.746094 145.921875 1058.96875 C 152.625 1065.191406 159.445312 1071.285156 166.003906 1077.65625 C 169.527344 1081.074219 172.277344 1085.328125 177.410156 1086.75 C 178.523438 1087.058594 179.421875 1088.058594 180.492188 1088.597656 C 189.570312 1093.167969 194.8125 1102.160156 202.808594 1107.976562 C 203.378906 1108.390625 203.761719 1109.140625 204.085938 1109.808594 C 208.300781 1118.476562 215.039062 1125.167969 221.632812 1131.925781 C 227.929688 1138.375 234.578125 1144.492188 238.625 1152.757812 C 239.941406 1155.441406 241.152344 1158.195312 242.679688 1160.753906 C 243.886719 1162.785156 245.683594 1164.464844 246.910156 1166.484375 C 250.464844 1172.347656 253.855469 1178.308594 257.339844 1184.214844 C 257.871094 1185.113281 258.394531 1186.328125 259.222656 1186.667969 C 260.917969 1187.371094 263.507812 1188.539062 264.503906 1187.820312 C 267.972656 1185.316406 271.464844 1182.476562 273.933594 1179.039062 C 277.609375 1173.921875 276.707031 1167.535156 277.105469 1161.582031 C 277.5625 1154.726562 277.65625 1147.824219 278.550781 1141.027344 C 279.203125 1136.0625 279.578125 1131.519531 276.046875 1127.40625 C 275.351562 1126.597656 275.09375 1125.140625 275.144531 1124.007812 C 275.304688 1120.582031 275.753906 1117.171875 275.996094 1113.75 C 276.082031 1112.578125 276.054688 1111.351562 275.796875 1110.214844 C 273.554688 1100.304688 268.515625 1091.378906 265.640625 1081.710938 C 264.101562 1076.539062 260.386719 1072.667969 258.441406 1067.894531 C 255.871094 1061.582031 252.347656 1056.300781 246.722656 1052.394531 C 245.542969 1051.574219 244.777344 1050.15625 243.828125 1049.007812 C 238.789062 1042.882812 233.699219 1036.796875 228.730469 1030.617188 C 226.574219 1027.9375 224.445312 1025.1875 222.6875 1022.238281 C 220.464844 1018.511719 218.066406 1014.722656 216.808594 1010.632812 C 215.796875 1007.347656 215.980469 1003.523438 216.445312 1000.046875 C 216.605469 998.824219 219.179688 997.925781 221.363281 996.371094 Z M 297.472656 1091.160156 C 297.988281 1091.128906 298.503906 1091.09375 299.019531 1091.058594 C 300.058594 1087.878906 302.210938 1084.589844 301.90625 1081.542969 C 301.300781 1075.519531 299.429688 1069.609375 297.917969 1063.695312 C 296.214844 1057.039062 293.0625 1050.472656 292.828125 1043.789062 C 292.488281 1034.28125 291.574219 1024.675781 293.097656 1015.085938 C 294.417969 1006.796875 294.910156 998.375 295.804688 990.015625 C 295.882812 989.289062 296.082031 988.480469 296.492188 987.898438 C 299.6875 983.359375 299.484375 977.953125 300.328125 972.835938 C 301.699219 964.566406 302.289062 956.128906 306.234375 948.476562 C 306.703125 947.566406 306.8125 946.46875 307.078125 945.457031 C 307.710938 943.066406 306.582031 942.03125 304.320312 942.035156 C 302.53125 942.039062 300.742188 942.316406 298.957031 942.277344 C 289.632812 942.070312 282.671875 946.050781 277.652344 953.84375 C 276.046875 956.34375 273.929688 958.515625 272.085938 960.867188 C 270.25 963.210938 268.425781 965.570312 266.660156 967.96875 C 263.300781 972.535156 260.011719 977.15625 256.617188 981.695312 C 256.222656 982.222656 255.371094 982.496094 254.679688 982.695312 C 251.6875 983.554688 250.515625 986.074219 248.6875 988.28125 C 244.078125 993.835938 243.96875 999.25 246.152344 1005.789062 C 247.464844 1009.726562 249.402344 1012.667969 252.328125 1015.355469 C 254.492188 1017.339844 256.453125 1019.59375 258.230469 1021.9375 C 260.015625 1024.285156 261.207031 1027.101562 263.097656 1029.339844 C 267.558594 1034.613281 274.484375 1037.90625 275.992188 1045.546875 C 276.046875 1045.816406 276.335938 1046.03125 276.488281 1046.289062 C 279.265625 1050.933594 281.988281 1055.609375 284.820312 1060.214844 C 289.382812 1067.644531 289.371094 1076.941406 294.632812 1084.074219 C 294.714844 1084.179688 294.652344 1084.378906 294.710938 1084.515625 C 295.625 1086.730469 296.550781 1088.945312 297.472656 1091.160156 Z M 490.484375 1243.820312 C 490.222656 1242.539062 490.050781 1241.957031 489.988281 1241.359375 C 489.421875 1236.027344 486.679688 1231.5 484.800781 1226.628906 C 482.570312 1220.855469 478.761719 1216.714844 474.089844 1213.144531 C 469.601562 1209.710938 465.273438 1206.335938 461.574219 1201.835938 C 459.257812 1199.019531 454.324219 1198.296875 450.492188 1196.828125 C 449.910156 1196.605469 448.8125 1197.300781 448.144531 1197.816406 C 444.226562 1200.824219 440.355469 1203.886719 436.496094 1206.964844 C 433.691406 1209.203125 431.070312 1211.691406 428.125 1213.714844 C 424.539062 1216.179688 423.804688 1218.328125 425.742188 1222.371094 C 427.023438 1225.046875 428.246094 1227.75 429.453125 1230.457031 C 431.808594 1235.734375 435.425781 1239.574219 441.308594 1240.730469 C 445.015625 1241.460938 448.421875 1242.628906 451.714844 1244.695312 C 457.300781 1248.199219 463.113281 1251.464844 469.828125 1252.445312 C 472.34375 1252.8125 474.949219 1252.8125 477.386719 1253.460938 C 480.425781 1254.273438 483.515625 1254.011719 485.449219 1251.996094 C 487.734375 1249.621094 489.023438 1246.292969 490.484375 1243.820312 Z M 320.574219 1022.441406 C 320.8125 1022.539062 321.054688 1022.640625 321.296875 1022.738281 C 321.753906 1021.824219 322.382812 1020.953125 322.644531 1019.988281 C 324.742188 1012.191406 326.765625 1004.375 328.820312 996.570312 C 329.625 993.527344 330.539062 990.515625 331.253906 987.453125 C 332.226562 983.304688 333.101562 979.132812 333.9375 974.953125 C 334.429688 972.472656 334.738281 969.957031 335.171875 967.464844 C 335.738281 964.246094 336.234375 961.007812 336.964844 957.828125 C 337.90625 953.738281 339.195312 949.726562 340 945.617188 C 340.171875 944.742188 338.953125 942.734375 338.300781 942.703125 C 335.183594 942.550781 332.03125 942.808594 328.914062 943.132812 C 328.164062 943.210938 327.058594 943.980469 326.871094 944.644531 C 325.402344 949.8125 323.46875 954.964844 322.933594 960.25 C 322.21875 967.339844 322.730469 974.546875 322.503906 981.695312 C 322.421875 984.214844 321.609375 986.699219 321.320312 989.222656 C 320.875 993.078125 320.445312 996.949219 320.289062 1000.824219 C 320.164062 1003.890625 320.519531 1006.972656 320.558594 1010.050781 C 320.613281 1014.179688 320.574219 1018.3125 320.574219 1022.441406 Z M 376.816406 1250.625 C 377.777344 1251.699219 378.164062 1252.4375 378.765625 1252.746094 C 381.277344 1254.03125 384.144531 1254.804688 386.347656 1256.46875 C 390.359375 1259.5 395.023438 1260.410156 399.625 1261.792969 C 402.390625 1262.625 404.390625 1261.890625 406.023438 1259.902344 C 408.386719 1257.023438 410.855469 1254.164062 412.746094 1250.980469 C 416.4375 1244.769531 417.269531 1238.183594 414.070312 1231.414062 C 412.445312 1227.972656 410.984375 1227.421875 407.832031 1229.503906 C 402.101562 1233.292969 396.085938 1236.726562 391.570312 1242.113281 C 390.835938 1242.988281 389.734375 1243.601562 388.710938 1244.171875 C 384.957031 1246.257812 381.164062 1248.273438 376.816406 1250.625 Z M 233.171875 1373.019531 C 234.785156 1372.082031 235.824219 1371.753906 236.472656 1371.0625 C 241.761719 1365.394531 247.035156 1359.710938 252.191406 1353.921875 C 254.007812 1351.886719 253.550781 1350.734375 250.722656 1349.746094 C 245.777344 1348.027344 240.796875 1346.414062 235.824219 1344.773438 C 233.742188 1344.082031 232.835938 1344.621094 232.023438 1346.972656 C 229.054688 1355.613281 232.148438 1363.78125 233.171875 1373.019531 Z M 366.777344 1062.796875 C 366.238281 1062.816406 365.695312 1062.839844 365.15625 1062.859375 C 363.617188 1068.914062 362.269531 1075.027344 360.488281 1081.007812 C 358.699219 1087 356.476562 1092.859375 354.445312 1098.777344 C 354.742188 1099.046875 355.039062 1099.320312 355.339844 1099.589844 C 359.570312 1096.652344 364.433594 1094.679688 368.019531 1090.789062 C 369.496094 1089.183594 371.773438 1086.964844 371.527344 1085.363281 C 370.355469 1077.777344 368.433594 1070.308594 366.777344 1062.796875 Z M 415.621094 927.605469 C 411.074219 932.828125 404.082031 948.121094 404.527344 951.117188 C 411.335938 946.925781 418.203125 942.699219 425.640625 938.117188 C 422.09375 934.394531 418.878906 931.023438 415.621094 927.605469 Z M 415.621094 927.605469 " fill-opacity="1" fill-rule="nonzero"/><path fill="#000000" d="M 386.597656 1051.757812 C 386.597656 1051.382812 386.601562 1051.007812 386.601562 1050.632812 C 386.601562 1051.007812 386.597656 1051.382812 386.597656 1051.757812 Z M 386.597656 1051.757812 " fill-opacity="1" fill-rule="nonzero"/></svg>