<svg xmlns="http://www.w3.org/2000/svg" xmlns:xlink="http://www.w3.org/1999/xlink" width="2000" zoomAndPan="magnify" viewBox="0 0 1500 1499.999933" height="2000" preserveAspectRatio="xMidYMid meet" version="1.0"><defs><clipPath id="51c10c9071"><path d="M 119.058594 351 L 1381.308594 351 L 1381.308594 1149.902344 L 119.058594 1149.902344 Z M 119.058594 351 " clip-rule="nonzero"/></clipPath></defs><g clip-path="url(#51c10c9071)"><path fill="#000000" d="M 1377.171875 1052.984375 C 1375.949219 1060.007812 1378.0625 1066.40625 1379.671875 1072.878906 C 1380.117188 1074.675781 1380.257812 1076.566406 1380.390625 1078.425781 C 1380.664062 1082.28125 1380.832031 1086.148438 1381.046875 1090.007812 C 1381.105469 1091.019531 1381.285156 1092.039062 1381.203125 1093.039062 C 1380.550781 1100.886719 1379.800781 1108.730469 1379.175781 1116.585938 C 1378.445312 1125.824219 1372.15625 1131.027344 1364.683594 1134.042969 C 1360.003906 1135.933594 1354.1875 1135.214844 1348.875 1135.300781 C 1340.917969 1135.433594 1332.953125 1135.265625 1324.988281 1135.183594 C 1323.246094 1135.167969 1321.480469 1135.140625 1319.769531 1134.847656 C 1310.550781 1133.265625 1301.316406 1134.210938 1292.078125 1134.519531 C 1284.476562 1134.773438 1276.996094 1136.71875 1269.199219 1134.675781 C 1265.699219 1133.753906 1261.445312 1135.214844 1257.636719 1136.054688 C 1252.910156 1137.101562 1248.300781 1137.644531 1243.460938 1136.703125 C 1241.449219 1136.308594 1238.878906 1136.398438 1237.148438 1137.34375 C 1232.210938 1140.046875 1227.101562 1139.390625 1221.914062 1139.183594 C 1219.664062 1139.09375 1217.160156 1139.078125 1215.171875 1139.945312 C 1208.175781 1142.984375 1201.421875 1142.667969 1194.1875 1140.519531 C 1188.707031 1138.886719 1182.804688 1138.410156 1177.046875 1138.050781 C 1173.980469 1137.855469 1170.839844 1139.328125 1167.707031 1139.460938 C 1162.863281 1139.660156 1157.992188 1139.203125 1153.140625 1139.316406 C 1149.816406 1139.394531 1146.511719 1140.050781 1143.183594 1140.289062 C 1141.039062 1140.445312 1138.867188 1140.222656 1136.71875 1140.335938 C 1135.296875 1140.414062 1133.769531 1140.515625 1132.507812 1141.085938 C 1127.519531 1143.347656 1122.792969 1144.042969 1117.546875 1141.304688 C 1115.347656 1140.160156 1112.105469 1140.488281 1109.441406 1140.871094 C 1105.042969 1141.5 1100.867188 1141.578125 1096.847656 1139.40625 C 1096.257812 1139.089844 1095.441406 1138.984375 1094.765625 1139.070312 C 1089.757812 1139.71875 1084.753906 1141.007812 1079.753906 1140.992188 C 1073.832031 1140.976562 1067.785156 1142.714844 1061.921875 1140.265625 C 1061.109375 1139.925781 1059.828125 1140.058594 1059.007812 1140.46875 C 1054.390625 1142.765625 1049.960938 1142.222656 1045.15625 1140.726562 C 1041.664062 1139.640625 1037.800781 1138.882812 1034.035156 1141.078125 C 1032.398438 1142.03125 1029.941406 1142.5 1028.132812 1142.0625 C 1023.140625 1140.847656 1018.332031 1142.042969 1013.453125 1142.351562 C 1012.613281 1142.40625 1011.761719 1142.195312 1010.910156 1142.175781 C 1008.1875 1142.109375 1005.335938 1141.546875 1002.765625 1142.15625 C 998.71875 1143.113281 994.898438 1143.730469 990.816406 1142.351562 C 987.234375 1141.140625 983.667969 1142.347656 980.183594 1143.273438 C 977.273438 1144.046875 974.574219 1144.035156 971.773438 1142.550781 C 968.984375 1141.066406 965.914062 1141.109375 962.886719 1142.195312 C 959.722656 1143.328125 956.582031 1143.964844 953.105469 1143.214844 C 951.125 1142.789062 948.898438 1143.613281 946.777344 1143.71875 C 942.617188 1143.925781 938.453125 1144.011719 934.292969 1144.167969 C 930.699219 1144.304688 927.140625 1144.84375 923.601562 1143.308594 C 922.46875 1142.816406 920.621094 1143.222656 919.398438 1143.824219 C 914.519531 1146.21875 909.605469 1145.789062 904.554688 1144.664062 C 903.351562 1144.398438 902.003906 1144.828125 900.722656 1144.875 C 896.894531 1145.007812 893.070312 1145.066406 889.246094 1145.234375 C 885.367188 1145.402344 881.496094 1145.695312 877.617188 1145.867188 C 876.226562 1145.929688 874.828125 1145.789062 873.433594 1145.753906 C 871.839844 1145.710938 870.023438 1145.164062 868.691406 1145.738281 C 864.476562 1147.566406 860.457031 1145.824219 856.355469 1145.617188 C 855.390625 1145.566406 854.414062 1145.714844 853.445312 1145.777344 C 848.992188 1146.046875 844.417969 1147.082031 840.121094 1146.386719 C 835.578125 1145.652344 831.519531 1146.277344 827.332031 1147.511719 C 824.199219 1148.433594 821.1875 1148.265625 817.925781 1147.5625 C 813.75 1146.664062 809.359375 1146.539062 805.058594 1146.484375 C 799.617188 1146.417969 794.171875 1146.847656 788.730469 1146.859375 C 786.960938 1146.863281 785.199219 1146 783.417969 1145.921875 C 780.988281 1145.8125 778.542969 1146.152344 776.105469 1146.15625 C 774.304688 1146.160156 772.355469 1146.34375 770.722656 1145.753906 C 764.015625 1143.335938 757.136719 1143.675781 750.207031 1143.886719 C 746.503906 1143.996094 742.789062 1143.558594 739.078125 1143.460938 C 737.074219 1143.410156 735.039062 1143.789062 733.066406 1143.570312 C 727.273438 1142.933594 721.507812 1141.8125 715.730469 1143.707031 C 715.074219 1143.921875 714.214844 1143.914062 713.570312 1143.675781 C 706.417969 1141.058594 699.183594 1143.425781 692 1143.339844 C 689.742188 1143.3125 687.375 1143.929688 685.238281 1144.738281 C 680.175781 1146.648438 675.226562 1144.5 670.222656 1144.613281 C 664.453125 1144.75 658.671875 1144.332031 652.894531 1144.3125 C 651.351562 1144.308594 649.816406 1145.085938 648.257812 1145.160156 C 645.417969 1145.292969 642.5625 1145.199219 639.714844 1145.144531 C 637.277344 1145.097656 634.820312 1144.734375 632.40625 1144.929688 C 627.664062 1145.304688 622.941406 1146.382812 618.210938 1146.390625 C 614.078125 1146.398438 609.953125 1145.238281 605.800781 1144.789062 C 604.015625 1144.597656 601.957031 1144.386719 600.40625 1145.0625 C 593.789062 1147.945312 587.039062 1147.148438 580.339844 1146.035156 C 576.207031 1145.347656 572.308594 1144.710938 568.601562 1147.292969 C 568.03125 1147.691406 567.265625 1147.941406 566.566406 1147.996094 C 560.6875 1148.480469 554.796875 1149.300781 548.925781 1149.191406 C 545.335938 1149.125 541.789062 1147.53125 538.191406 1146.761719 C 536.660156 1146.4375 534.90625 1145.980469 533.511719 1146.414062 C 528.921875 1147.835938 524.644531 1148.777344 519.578125 1147.625 C 514.328125 1146.433594 508.644531 1147.0625 503.152344 1147.039062 C 493.195312 1146.992188 483.238281 1147.25 473.289062 1147.015625 C 464.648438 1146.816406 456.023438 1146.050781 447.386719 1145.6875 C 445.578125 1145.613281 443.210938 1145.574219 442.015625 1146.59375 C 438.429688 1149.644531 434.195312 1147.855469 432.511719 1145.992188 C 428.949219 1142.042969 425.117188 1143.429688 421.34375 1143.65625 C 416.160156 1143.972656 411.023438 1144.96875 405.851562 1145.511719 C 404.445312 1145.65625 402.945312 1145.34375 401.542969 1145.007812 C 396.699219 1143.847656 391.875 1143.996094 386.925781 1144.375 C 378.699219 1145.003906 370.421875 1145.003906 362.167969 1145.265625 C 359.125 1145.359375 356.074219 1145.59375 353.039062 1145.472656 C 349.300781 1145.320312 345.578125 1144.808594 341.84375 1144.554688 C 339.96875 1144.429688 337.980469 1144.164062 336.207031 1144.609375 C 331.722656 1145.734375 327.25 1146.414062 322.609375 1146.644531 C 316.328125 1146.960938 310.207031 1147.648438 303.957031 1145.589844 C 300.988281 1144.613281 297.394531 1145.539062 294.085938 1145.597656 C 291.660156 1145.636719 289.226562 1145.8125 286.8125 1145.664062 C 279.304688 1145.203125 271.960938 1145.382812 264.609375 1147.660156 C 261.675781 1148.570312 257.789062 1148.105469 254.855469 1146.949219 C 250.292969 1145.148438 246.023438 1146.398438 241.597656 1146.550781 C 237.578125 1146.691406 233.539062 1146.589844 229.523438 1146.332031 C 221.320312 1145.804688 213.132812 1144.738281 204.925781 1144.621094 C 200.839844 1144.5625 196.726562 1146.109375 192.632812 1146.949219 C 191.785156 1147.125 190.941406 1147.636719 190.125 1147.578125 C 183.925781 1147.144531 177.628906 1147.96875 171.539062 1145.992188 C 170.078125 1145.519531 168.332031 1145.296875 166.847656 1145.605469 C 159.734375 1147.085938 153.4375 1145.175781 147.351562 1141.613281 C 143.117188 1139.136719 138.371094 1137.4375 134.421875 1134.597656 C 130.226562 1131.582031 126.355469 1127.832031 126.765625 1121.8125 C 126.816406 1121.101562 126.761719 1120.300781 127.074219 1119.710938 C 129.523438 1115.105469 129.394531 1110.375 128.535156 1105.355469 C 127.898438 1101.640625 128.273438 1097.75 128.1875 1093.417969 C 127.238281 1093.289062 125.585938 1093.070312 123.941406 1092.847656 C 121.859375 1086.980469 121.640625 1081.253906 124.734375 1075.621094 C 125.253906 1074.671875 125.707031 1073.148438 125.304688 1072.316406 C 122.738281 1066.960938 124.964844 1061.117188 123.386719 1055.640625 C 122.742188 1053.40625 123.191406 1050.832031 123.273438 1048.414062 C 123.652344 1036.917969 123.496094 1025.417969 125.4375 1013.976562 C 126.207031 1009.433594 125.0625 1004.585938 125.046875 999.875 C 125.039062 997.179688 125.515625 994.476562 125.851562 991.789062 C 126.082031 989.929688 126.78125 988.070312 126.6875 986.242188 C 126.261719 978.011719 125.480469 969.800781 125.125 961.570312 C 124.960938 957.699219 125.519531 953.804688 125.671875 949.914062 C 125.972656 942.292969 127.128906 934.589844 123.652344 927.292969 C 123.417969 926.796875 123.507812 926.152344 123.429688 925.574219 C 122.796875 920.859375 122.121094 916.144531 121.558594 911.417969 C 121.410156 910.167969 121.257812 908.726562 121.71875 907.625 C 123.445312 903.460938 122.746094 899.390625 121.824219 895.234375 C 121.523438 893.871094 121.230469 892.136719 121.800781 891.011719 C 124.246094 886.1875 123.277344 881.105469 123.429688 876.089844 C 123.570312 871.453125 124.125 866.824219 124.085938 862.191406 C 124.058594 858.914062 123.136719 855.644531 123.011719 852.359375 C 122.933594 850.285156 123.722656 848.191406 123.882812 846.09375 C 124.078125 843.546875 124.660156 840.785156 123.945312 838.46875 C 122.449219 833.613281 121.917969 829.117188 123.457031 824.050781 C 124.171875 821.683594 122.328125 818.5625 121.710938 815.769531 C 121.179688 813.382812 120.261719 810.949219 120.386719 808.578125 C 120.5625 805.226562 121.167969 802.007812 119.457031 798.800781 C 119.03125 798.003906 119.648438 796.554688 119.988281 795.464844 C 121.328125 791.15625 122.769531 786.882812 121.460938 782.265625 C 121.230469 781.453125 121.289062 780.527344 121.363281 779.664062 C 121.898438 773.355469 123.304688 766.984375 122.828125 760.757812 C 122.152344 751.980469 125.246094 743.289062 122.710938 734.46875 C 121.890625 731.613281 123.109375 728.195312 123.296875 725.027344 C 123.59375 720.03125 123.792969 715.027344 124.0625 710.027344 C 124.308594 705.429688 124.820312 700.828125 124.792969 696.230469 C 124.769531 692.777344 124.074219 689.332031 123.683594 685.878906 C 123.621094 685.300781 123.375 684.644531 123.5625 684.152344 C 125.109375 680.058594 124.226562 676.125 123.253906 672.0625 C 122.714844 669.804688 122.359375 667.222656 124.257812 665.046875 C 124.695312 664.542969 124.359375 663.394531 124.4375 662.546875 C 124.660156 660.09375 124.410156 657.457031 125.25 655.234375 C 127.542969 649.15625 126.71875 642.960938 126.644531 636.777344 C 126.640625 636.347656 126.3125 635.867188 126.425781 635.5 C 128.066406 630.195312 126.714844 624.859375 126.570312 619.554688 C 126.425781 614.097656 125.851562 608.65625 125.640625 603.203125 C 125.570312 601.363281 125.566406 599.265625 126.355469 597.699219 C 129.109375 592.25 128.910156 586.605469 127.398438 581.09375 C 126.5 577.808594 126.742188 574.796875 127.363281 571.707031 C 128.335938 566.863281 128.617188 562.230469 127.933594 557.144531 C 127.148438 551.269531 127.9375 544.855469 129.507812 539.074219 C 131.1875 532.875 131.28125 526.792969 131.375 520.558594 C 131.425781 517.28125 131.742188 513.949219 132.464844 510.757812 C 133.109375 507.914062 133.734375 505.328125 133.101562 502.277344 C 132.46875 499.234375 132.992188 495.941406 133.097656 492.761719 C 133.148438 491.1875 133.8125 489.527344 133.492188 488.058594 C 131.65625 479.707031 135.28125 471.832031 135.40625 463.675781 C 135.46875 459.539062 135.878906 455.503906 135.144531 451.222656 C 134.273438 446.132812 135.386719 440.671875 135.859375 435.390625 C 136.546875 427.691406 137.40625 420.003906 138.242188 412.3125 C 138.671875 408.339844 137.453125 404.28125 139.210938 400.324219 C 139.753906 399.097656 138.597656 397.1875 138.972656 395.789062 C 139.707031 393.015625 140.695312 390.230469 142.0625 387.714844 C 145.5 381.378906 149.96875 376.132812 156.578125 372.550781 C 160.476562 370.433594 163.921875 367.527344 168.523438 367.113281 C 170.074219 366.972656 171.902344 366.863281 173.199219 367.53125 C 179.03125 370.515625 184.835938 368.785156 190.636719 367.792969 C 196.585938 366.777344 202.355469 364.230469 208.585938 365.890625 C 208.726562 365.925781 208.882812 365.972656 209.015625 365.945312 C 219.140625 363.785156 229.03125 367.167969 239.066406 367.234375 C 244.683594 367.273438 250.300781 367.683594 255.917969 367.945312 C 256.632812 367.980469 257.382812 368.042969 258.054688 368.273438 C 264.933594 370.609375 271.808594 369.503906 278.75 368.550781 C 281.664062 368.148438 284.707031 368.667969 287.6875 368.820312 C 288.816406 368.875 290 369.371094 291.054688 369.152344 C 295.152344 368.304688 299.085938 367.480469 303.464844 367.875 C 308.691406 368.347656 314.0625 367.300781 319.355469 366.757812 C 320.734375 366.613281 322.042969 365.835938 323.402344 365.425781 C 326.992188 364.351562 330.496094 363.398438 334.410156 364.382812 C 337.003906 365.039062 339.867188 364.738281 342.601562 364.65625 C 345.3125 364.578125 348.019531 363.972656 350.714844 364.058594 C 355.414062 364.210938 359.902344 363.789062 364.039062 361.3125 C 364.757812 360.886719 365.691406 360.554688 366.5 360.601562 C 369.21875 360.75 371.925781 361.082031 374.632812 361.363281 C 377.367188 361.648438 380.230469 361.527344 382.804688 362.335938 C 390.039062 364.609375 396.785156 361.980469 403.707031 360.859375 C 405.226562 360.613281 406.859375 360.792969 408.40625 361.015625 C 411.871094 361.511719 415.257812 361.824219 418.601562 360.292969 C 419.601562 359.832031 420.855469 359.882812 422.003906 359.800781 C 426.761719 359.464844 431.519531 358.964844 436.285156 358.902344 C 443.886719 358.800781 451.511719 358.011719 459.046875 360.242188 C 461.433594 360.945312 464.273438 360.628906 466.8125 360.214844 C 473.019531 359.199219 479.148438 359.203125 485.410156 359.835938 C 488.375 360.132812 491.535156 358.796875 494.5625 358.023438 C 497.210938 357.34375 499.785156 356.371094 502.417969 355.613281 C 503.375 355.335938 504.414062 355.144531 505.398438 355.195312 C 513.167969 355.578125 520.925781 356.292969 528.695312 356.335938 C 531.753906 356.351562 534.882812 355.101562 537.871094 354.105469 C 541.730469 352.820312 545.550781 353.417969 549.414062 353.757812 C 551.105469 353.90625 552.816406 353.785156 554.519531 353.8125 C 557.089844 353.851562 559.664062 353.847656 562.234375 353.976562 C 565.804688 354.148438 569.390625 354.25 572.933594 354.695312 C 579.554688 355.527344 586.152344 355.148438 592.761719 354.71875 C 600.375 354.222656 607.980469 353.527344 615.601562 353.191406 C 617.855469 353.09375 620.132812 354.121094 622.421875 354.289062 C 625.964844 354.550781 629.546875 354.789062 633.074219 354.511719 C 635.445312 354.328125 637.894531 353.539062 640.050781 352.488281 C 643.800781 350.667969 647.109375 352.40625 650.585938 353.167969 C 653.394531 353.78125 656.25 354.183594 659.039062 354.871094 C 661.230469 355.410156 663.316406 356.402344 665.515625 356.882812 C 666.96875 357.203125 668.796875 357.5 670.015625 356.898438 C 674.539062 354.671875 678.648438 354.574219 683.699219 356.039062 C 688.523438 357.441406 694.066406 356.511719 699.285156 356.339844 C 703.589844 356.203125 707.695312 355.242188 711.917969 354.007812 C 715.792969 352.875 720.542969 353.949219 724.855469 353.003906 C 729.480469 356.851562 734.441406 355.09375 739.394531 353.933594 C 740.203125 353.746094 741.449219 353.636719 741.917969 354.085938 C 744.789062 356.859375 748.664062 354.9375 751.863281 356.359375 C 753.125 356.921875 755.074219 356.40625 756.558594 355.914062 C 763.339844 353.671875 770.398438 353.304688 777.40625 352.609375 C 778.648438 352.488281 780.144531 352.527344 781.179688 353.109375 C 786.78125 356.257812 792.648438 356.804688 798.855469 355.605469 C 802.382812 354.925781 805.949219 354.304688 809.523438 354.085938 C 815.058594 353.746094 820.628906 353.464844 826.152344 353.757812 C 829.835938 353.949219 833.453125 355.257812 837.125 355.917969 C 838.527344 356.167969 840.324219 356.542969 841.390625 355.921875 C 844.980469 353.820312 848.640625 353.679688 852.515625 354.5 C 853.070312 354.617188 853.835938 354.339844 854.210938 354.628906 C 858.484375 357.894531 863.609375 356.539062 868.332031 357.324219 C 870.835938 357.738281 873.359375 358.046875 875.859375 358.464844 C 881.148438 359.355469 886.027344 358.375 891 356.308594 C 893.113281 355.429688 896.421875 355.898438 898.578125 356.976562 C 902.816406 359.097656 907.164062 359.113281 911.640625 359.382812 C 915.085938 359.589844 918.5 360.410156 921.925781 360.96875 C 923.0625 361.15625 924.347656 361.820312 925.304688 361.496094 C 932.394531 359.117188 938.921875 361.820312 945.625 363.34375 C 947.4375 363.753906 949.480469 363.148438 951.414062 363.007812 C 953.664062 362.84375 955.910156 362.625 958.164062 362.546875 C 959 362.515625 960 363.1875 960.667969 362.914062 C 964.441406 361.355469 968.308594 361.914062 972.207031 361.738281 C 976.640625 361.542969 980.179688 363.832031 984.242188 364.382812 C 984.910156 364.472656 985.6875 365.320312 986.144531 365.140625 C 991.703125 362.949219 996.871094 366.25 1002.203125 366.140625 C 1006.71875 366.046875 1011.210938 364.902344 1015.707031 364.210938 C 1016.417969 364.101562 1017.230469 363.609375 1017.796875 363.824219 C 1024.421875 366.328125 1031.152344 364.957031 1037.890625 364.671875 C 1044.527344 364.390625 1051.1875 364.539062 1057.832031 364.722656 C 1060.078125 364.785156 1062.308594 365.539062 1064.546875 365.972656 C 1067.652344 366.570312 1070.53125 366.355469 1073.214844 364.3125 C 1073.96875 363.742188 1075.433594 364.027344 1076.566406 364.054688 C 1078.125 364.09375 1079.714844 364.105469 1081.234375 364.40625 C 1088.15625 365.773438 1094.828125 361.160156 1101.789062 363.582031 C 1102.164062 363.710938 1102.714844 363.640625 1103.074219 363.453125 C 1109.140625 360.320312 1114.3125 363.371094 1119.8125 365.464844 C 1122.363281 366.4375 1125.535156 365.644531 1128.394531 365.941406 C 1136.199219 366.746094 1143.867188 364.992188 1151.613281 364.859375 C 1153.191406 364.832031 1154.769531 365.167969 1156.351562 365.261719 C 1157.621094 365.339844 1158.914062 365.441406 1160.164062 365.292969 C 1162.5625 365.007812 1165 364.769531 1167.3125 364.121094 C 1171.917969 362.824219 1176.085938 365.425781 1180.527344 365.335938 C 1181.792969 365.308594 1183.070312 365.257812 1184.320312 365.066406 C 1185.167969 364.9375 1186.105469 364.113281 1186.773438 364.324219 C 1191.453125 365.808594 1195.519531 362.335938 1199.789062 362.667969 C 1204.664062 363.046875 1209.074219 361.171875 1213.777344 361.121094 C 1216.324219 361.09375 1218.269531 363.503906 1221.269531 362.265625 C 1224.117188 361.09375 1227.398438 360.972656 1230.492188 360.402344 C 1231.0625 360.296875 1231.652344 360.132812 1232.214844 360.183594 C 1241.140625 360.960938 1250.054688 361.820312 1258.984375 362.515625 C 1260.652344 362.644531 1262.371094 362.144531 1264.066406 361.921875 C 1267.472656 361.476562 1271.074219 360.105469 1274.238281 360.785156 C 1279.117188 361.832031 1283.996094 361.140625 1288.78125 361.96875 C 1292.246094 362.570312 1295.386719 362.601562 1298.863281 361.320312 C 1301.382812 360.390625 1304.574219 361.066406 1307.441406 361.3125 C 1312.597656 361.753906 1317.726562 362.46875 1322.878906 362.929688 C 1323.816406 363.015625 1324.847656 362.542969 1325.773438 362.171875 C 1332.546875 359.480469 1338.972656 359.292969 1345.003906 364.203125 C 1347.125 365.929688 1349.703125 367.082031 1351.96875 368.640625 C 1353.019531 369.363281 1354.082031 370.296875 1354.707031 371.378906 C 1359.335938 379.402344 1363.917969 387.472656 1363.425781 397.214844 C 1363.316406 399.375 1362.820312 401.511719 1362.625 403.667969 C 1361.863281 412.097656 1363.570312 420.367188 1364.226562 428.710938 C 1364.46875 431.816406 1363.789062 434.988281 1363.765625 438.132812 C 1363.75 439.960938 1363.917969 441.890625 1364.507812 443.601562 C 1365.867188 447.5625 1366.464844 451.378906 1365.035156 455.519531 C 1363.984375 458.558594 1364.964844 461.550781 1367 464.046875 C 1368.226562 465.558594 1368.289062 466.769531 1367.558594 468.738281 C 1365.761719 473.542969 1366.109375 478.679688 1366.484375 483.730469 C 1366.804688 488.027344 1367.347656 492.3125 1367.53125 496.617188 C 1367.652344 499.359375 1367.960938 501.890625 1368.871094 504.578125 C 1369.792969 507.304688 1370.007812 510.867188 1369.046875 513.527344 C 1366.183594 521.441406 1367.570312 529 1369.488281 536.707031 C 1369.917969 538.425781 1369.542969 540.339844 1369.535156 542.164062 C 1369.515625 546.164062 1369.382812 550.171875 1369.503906 554.167969 C 1369.652344 558.910156 1370.574219 563.699219 1370.101562 568.363281 C 1369.761719 571.730469 1369.96875 574.910156 1370.277344 578.195312 C 1370.652344 582.164062 1370.898438 586.15625 1370.972656 590.144531 C 1371.023438 592.695312 1371.410156 595.628906 1370.34375 597.734375 C 1367.949219 602.449219 1369.859375 606.714844 1370.554688 611.179688 C 1371.332031 616.175781 1373.667969 621.085938 1371.398438 626.289062 C 1371.089844 626.996094 1371.242188 628.050781 1371.5 628.835938 C 1373.113281 633.71875 1372.207031 638.605469 1371.695312 643.5 C 1371.609375 644.332031 1371.269531 645.476562 1371.671875 645.96875 C 1374.984375 650.03125 1372.746094 653.957031 1371.335938 657.753906 C 1370.582031 659.789062 1370.050781 661.421875 1371.191406 663.496094 C 1371.753906 664.523438 1371.644531 666.019531 1371.558594 667.28125 C 1370.832031 677.640625 1370.78125 687.988281 1370.984375 698.378906 C 1371.097656 704.183594 1371.503906 710.082031 1369.808594 716.035156 C 1368.558594 720.421875 1369.441406 725.480469 1369.707031 730.21875 C 1370.054688 736.4375 1370.882812 742.628906 1371.207031 748.847656 C 1371.40625 752.707031 1370.945312 756.59375 1370.96875 760.464844 C 1370.996094 764.867188 1371.378906 769.269531 1371.316406 773.664062 C 1371.28125 776.367188 1370.667969 779.054688 1370.367188 781.757812 C 1370.113281 784.054688 1369.796875 786.300781 1371.414062 788.421875 C 1372.007812 789.195312 1371.957031 790.636719 1371.859375 791.746094 C 1371.417969 796.859375 1370.738281 801.976562 1371.429688 807.105469 C 1372.035156 811.570312 1370.183594 815.578125 1369.464844 819.800781 C 1369.136719 821.738281 1368.875 823.800781 1369.171875 825.714844 C 1370.160156 832.089844 1371.238281 838.398438 1370.570312 844.929688 C 1370.335938 847.226562 1371.832031 849.671875 1371.710938 852.007812 C 1371.382812 858.359375 1373.835938 864.625 1372.046875 871.03125 C 1371.632812 872.507812 1372.285156 874.320312 1372.59375 875.953125 C 1373.125 878.757812 1374.214844 881.53125 1374.285156 884.335938 C 1374.464844 891.507812 1374.136719 898.691406 1374.1875 905.871094 C 1374.199219 907.855469 1374.835938 909.832031 1375.148438 911.816406 C 1375.523438 914.226562 1376.445312 916.738281 1376.0625 919.027344 C 1375.535156 922.175781 1376.035156 924.976562 1376.675781 927.984375 C 1377.175781 930.304688 1377.347656 933.160156 1376.429688 935.226562 C 1374.210938 940.199219 1375.730469 945.382812 1374.769531 950.347656 C 1373.914062 954.757812 1375.714844 959.046875 1375.472656 963.15625 C 1375.121094 969.113281 1375.101562 975.085938 1374.773438 981.042969 C 1374.59375 984.265625 1374.105469 987.78125 1375.109375 990.699219 C 1377.152344 996.617188 1375.78125 1002.554688 1376.324219 1008.445312 C 1376.46875 1009.992188 1376.863281 1011.519531 1377.160156 1013.054688 C 1378.753906 1021.273438 1378.578125 1029.386719 1376.464844 1037.554688 C 1375.539062 1041.140625 1375.457031 1044.992188 1375.410156 1048.730469 C 1375.390625 1050.140625 1376.550781 1051.566406 1377.171875 1052.984375 Z M 1296.042969 1113.003906 C 1298.160156 1109.152344 1300.929688 1107.472656 1305.382812 1108.539062 C 1307.347656 1109.011719 1309.652344 1108.015625 1311.808594 1107.753906 C 1313.371094 1107.566406 1314.949219 1107.414062 1316.519531 1107.375 C 1322.203125 1107.242188 1328 1107.804688 1333.535156 1106.839844 C 1337.136719 1106.210938 1340.617188 1106.121094 1344.1875 1105.839844 C 1351.535156 1105.257812 1352.066406 1105.460938 1352.230469 1098.667969 C 1352.292969 1095.9375 1352.585938 1093.035156 1353.589844 1090.539062 C 1356.804688 1082.566406 1353.753906 1074.238281 1355.359375 1066.210938 C 1355.433594 1065.832031 1355.097656 1065.382812 1355.042969 1064.957031 C 1354.820312 1063.246094 1354.292969 1061.488281 1354.503906 1059.828125 C 1355.226562 1054.191406 1355.222656 1048.625 1353.996094 1043.050781 C 1353.757812 1041.96875 1354.125 1040.757812 1354.199219 1039.605469 C 1354.601562 1033.296875 1355.570312 1026.949219 1355.210938 1020.683594 C 1354.949219 1016.097656 1353.09375 1011.648438 1353.859375 1006.832031 C 1354.625 1002 1351.898438 997.148438 1353.671875 992.21875 C 1353.941406 991.476562 1353.714844 990.453125 1353.457031 989.640625 C 1350.339844 979.742188 1353.085938 969.109375 1349.625 959.253906 C 1349.492188 958.871094 1349.59375 958.382812 1349.648438 957.953125 C 1350.417969 951.96875 1347.585938 945.808594 1350.53125 939.925781 C 1350.644531 939.699219 1350.527344 939.351562 1350.503906 939.0625 C 1349.996094 932.875 1349.457031 926.691406 1349.011719 920.5 C 1348.9375 919.519531 1349.078125 918.425781 1349.453125 917.523438 C 1351.605469 912.34375 1351.019531 907.410156 1348.855469 902.332031 C 1347.75 899.734375 1347.242188 896.769531 1347.050781 893.933594 C 1346.867188 891.238281 1348.046875 888.390625 1347.585938 885.792969 C 1346.300781 878.492188 1349.523438 870.933594 1346.179688 863.804688 C 1346.078125 863.585938 1346.3125 863.234375 1346.285156 862.953125 C 1346.007812 860.105469 1345.652344 857.265625 1345.433594 854.410156 C 1345.171875 850.992188 1344.570312 847.515625 1344.925781 844.148438 C 1345.574219 838.023438 1345.207031 832.121094 1343.636719 826.152344 C 1342.804688 822.992188 1342.359375 819.453125 1342.894531 816.28125 C 1343.621094 811.96875 1344.726562 808.003906 1343.070312 803.519531 C 1342.269531 801.363281 1343.492188 798.449219 1343.820312 795.882812 C 1343.964844 794.753906 1344.539062 793.539062 1344.285156 792.519531 C 1342.109375 783.792969 1344.703125 775.203125 1344.835938 766.546875 C 1344.863281 764.886719 1344.820312 763.171875 1344.441406 761.566406 C 1343.507812 757.628906 1341.882812 753.382812 1343.625 749.730469 C 1345.84375 745.070312 1345.484375 740.445312 1345.398438 735.734375 C 1345.285156 729.707031 1344.601562 723.679688 1344.644531 717.65625 C 1344.683594 712.085938 1345.359375 706.515625 1345.730469 700.941406 C 1345.769531 700.367188 1345.738281 699.753906 1345.578125 699.207031 C 1344.433594 695.28125 1345.574219 691.488281 1346.164062 687.652344 C 1346.382812 686.230469 1346.535156 684.785156 1346.554688 683.347656 C 1346.648438 677.027344 1344.703125 670.75 1346.144531 664.382812 C 1346.28125 663.773438 1345.761719 663.023438 1345.582031 662.328125 C 1344.792969 659.25 1344.179688 656.3125 1345.148438 652.988281 C 1346.136719 649.585938 1346.070312 645.980469 1345.75 642.28125 C 1345.328125 637.347656 1344.828125 632.210938 1346.652344 627.265625 C 1347.585938 624.738281 1348.371094 622.015625 1348.480469 619.351562 C 1348.78125 612.144531 1348.753906 604.921875 1348.695312 597.703125 C 1348.679688 595.554688 1347.964844 593.417969 1347.84375 591.257812 C 1347.542969 585.929688 1347.238281 580.589844 1347.257812 575.257812 C 1347.269531 572.136719 1348.140625 569.019531 1348.195312 565.894531 C 1348.273438 561.417969 1347.234375 556.804688 1348 552.484375 C 1348.902344 547.394531 1348.210938 542.761719 1347.195312 537.882812 C 1346.539062 534.738281 1346.484375 531.273438 1347.0625 528.117188 C 1347.8125 524.007812 1347.980469 520.113281 1346.726562 516.117188 C 1346.3125 514.796875 1345.910156 513.222656 1346.25 511.972656 C 1347.441406 507.578125 1346.410156 503.375 1345.714844 499.109375 C 1345.484375 497.683594 1345.28125 496.226562 1345.304688 494.785156 C 1345.402344 487.988281 1345.714844 481.191406 1345.695312 474.394531 C 1345.683594 467.902344 1345.058594 461.457031 1345.882812 454.917969 C 1346.292969 451.679688 1344.835938 448.179688 1344.085938 444.828125 C 1343.421875 441.867188 1342.566406 438.953125 1341.796875 436.019531 C 1341.394531 434.488281 1341.269531 432.8125 1340.539062 431.457031 C 1338.886719 428.390625 1338.929688 425.207031 1339.980469 422.179688 C 1341.246094 418.554688 1340.804688 415.167969 1340.050781 411.570312 C 1339.230469 407.632812 1338.703125 403.59375 1338.503906 399.574219 C 1338.355469 396.617188 1337.441406 394.273438 1334.695312 393.339844 C 1332.320312 392.535156 1329.699219 392.136719 1327.179688 392.125 C 1321.484375 392.101562 1315.773438 392.753906 1310.09375 392.519531 C 1303.808594 392.261719 1297.535156 390.054688 1291.304688 392.871094 C 1290.9375 393.039062 1290.441406 392.96875 1290.007812 392.9375 C 1283.839844 392.453125 1277.679688 391.875 1271.503906 391.53125 C 1270.007812 391.449219 1268.484375 392.230469 1266.949219 392.453125 C 1264.746094 392.773438 1262.472656 393.332031 1260.316406 393.074219 C 1257.773438 392.769531 1255.339844 391.160156 1252.824219 391.070312 C 1246.210938 390.832031 1239.582031 391.027344 1232.960938 391.214844 C 1229.230469 391.320312 1225.492188 392.253906 1221.882812 390.382812 C 1221.214844 390.035156 1220.132812 390.214844 1219.324219 390.441406 C 1213.050781 392.195312 1206.816406 394.09375 1200.519531 395.765625 C 1199.289062 396.09375 1197.546875 396.089844 1196.570312 395.441406 C 1193.824219 393.628906 1191.277344 393.273438 1188.445312 395.058594 C 1187.875 395.421875 1187.066406 395.558594 1186.367188 395.550781 C 1177.621094 395.464844 1168.941406 393.160156 1160.113281 395.039062 C 1158.21875 395.441406 1156.089844 394.597656 1154.0625 394.570312 C 1152.507812 394.550781 1150.941406 394.882812 1149.390625 395.117188 C 1142.105469 396.21875 1134.851562 397.703125 1127.527344 398.285156 C 1124.21875 398.546875 1120.753906 397.078125 1117.378906 396.308594 C 1112.792969 395.269531 1108.535156 393.523438 1103.410156 394.589844 C 1098.894531 395.53125 1093.960938 394.578125 1089.21875 394.28125 C 1086.640625 394.117188 1084.003906 392.996094 1081.53125 393.332031 C 1077.566406 393.875 1073.6875 395.175781 1069.820312 396.328125 C 1066.722656 397.253906 1063.683594 397.75 1060.425781 397.152344 C 1058.035156 396.714844 1055.410156 396.1875 1053.140625 396.734375 C 1046.789062 398.269531 1040.339844 396.925781 1033.902344 398.003906 C 1028.691406 398.878906 1023.0625 397.171875 1017.609375 396.691406 C 1013.796875 396.355469 1009.972656 396.078125 1006.144531 395.964844 C 1005.445312 395.945312 1004.683594 396.789062 1004.007812 397.308594 C 1001.953125 398.882812 999.835938 399.53125 997.125 399.011719 C 993.632812 398.34375 989.957031 397.695312 986.492188 398.113281 C 983.820312 398.4375 981.597656 398.316406 979.582031 396.800781 C 974.519531 392.996094 968.871094 392.890625 962.976562 393.730469 C 961.578125 393.929688 960.097656 393.953125 958.707031 393.726562 C 951.0625 392.46875 943.441406 392.242188 935.847656 393.988281 C 932.789062 394.691406 930.015625 394.609375 927.019531 393.199219 C 922.8125 391.222656 918.417969 390.175781 913.71875 392.519531 C 910.894531 393.929688 907.683594 394.660156 904.925781 391.761719 C 901.054688 387.6875 896.035156 387.640625 891.089844 388.550781 C 884.839844 389.699219 878.5625 389.105469 872.601562 387.984375 C 864.859375 386.53125 857.355469 386.574219 849.722656 387.765625 C 843.898438 388.675781 838.210938 388.648438 832.691406 386.132812 C 831.65625 385.660156 830.082031 385.664062 829.015625 386.09375 C 823.535156 388.300781 817.855469 387.324219 812.238281 387.460938 C 808.824219 387.542969 805.328125 387.441406 802.019531 388.144531 C 798.976562 388.792969 796.195312 389.375 793.175781 388.101562 C 789.671875 386.621094 786.253906 387.101562 782.621094 388.414062 C 778.914062 389.753906 775.042969 390.441406 771.140625 387.734375 C 767.972656 385.535156 764.082031 385.71875 760.269531 386.695312 C 756.964844 387.542969 753.5625 388.511719 750.203125 388.519531 C 745.160156 388.53125 740.117188 387.460938 735.066406 387.394531 C 730.769531 387.335938 726.453125 388.421875 722.160156 388.316406 C 718.007812 388.214844 713.925781 387.648438 709.699219 388.128906 C 706.601562 388.480469 703.128906 389.171875 700.203125 386.515625 C 699.453125 385.835938 697.425781 386.304688 696.066406 386.613281 C 693.558594 387.183594 691.121094 388.597656 688.636719 388.648438 C 679.789062 388.820312 671.039062 387.832031 662.464844 385.445312 C 660.683594 384.945312 658.742188 385.003906 656.867188 384.835938 C 653.578125 384.539062 650.175781 384.6875 647.023438 383.863281 C 644.136719 383.109375 642.066406 383.359375 639.925781 385.457031 C 638.320312 387.03125 632.234375 387.3125 630.945312 385.855469 C 627.148438 381.570312 622.300781 381.847656 617.320312 382.183594 C 614.710938 382.363281 612.078125 382.175781 609.46875 382.371094 C 605.777344 382.648438 602.105469 383.171875 598.417969 383.507812 C 596.617188 383.671875 594.75 383.941406 593 383.652344 C 588.636719 382.925781 584.511719 380.792969 579.855469 381.8125 C 578.367188 382.136719 576.679688 382.121094 575.1875 381.785156 C 569.964844 380.621094 564.867188 381.085938 559.714844 382.28125 C 554.894531 383.402344 550.101562 383.898438 545.121094 382.40625 C 542.300781 381.5625 539.089844 381.628906 536.105469 381.871094 C 533.414062 382.085938 530.8125 383.5 528.125 383.679688 C 522.855469 384.027344 517.617188 386.007812 512.253906 384.078125 C 509.972656 383.257812 507.5625 382.308594 505.203125 382.285156 C 497.382812 382.210938 489.558594 382.511719 481.738281 382.714844 C 478.867188 382.789062 475.996094 383.136719 473.128906 383.085938 C 470.121094 383.03125 467.082031 382.210938 464.132812 382.507812 C 460.035156 382.921875 456.011719 384.089844 451.945312 384.871094 C 450.953125 385.0625 449.574219 385.445312 448.949219 384.972656 C 444.984375 381.964844 440.445312 383.746094 436.207031 383.1875 C 435.921875 383.148438 435.636719 383.074219 435.351562 383.023438 C 430.894531 382.273438 426.445312 381.46875 422.355469 384.40625 C 421.8125 384.796875 420.984375 384.945312 420.289062 384.945312 C 414.792969 384.941406 409.28125 385.089844 403.804688 384.734375 C 401.054688 384.558594 398.703125 384.886719 396.308594 386.222656 C 393.375 387.863281 390.261719 388.320312 387.355469 386.078125 C 385.691406 384.792969 384.320312 385.40625 382.542969 385.964844 C 380.328125 386.660156 377.441406 387.332031 375.546875 386.472656 C 372.363281 385.03125 369.636719 386.261719 366.734375 386.507812 C 362.003906 386.914062 357.253906 388.078125 352.570312 387.828125 C 347.734375 387.566406 343.015625 385.472656 338.113281 387.863281 C 337.097656 388.359375 335.550781 387.722656 334.246094 387.671875 C 331.046875 387.558594 327.984375 387.589844 324.996094 389.367188 C 323.425781 390.296875 321.140625 390.179688 319.167969 390.242188 C 314.863281 390.378906 310.554688 390.3125 306.25 390.363281 C 305.089844 390.375 303.917969 390.6875 302.777344 390.574219 C 293.851562 389.714844 284.984375 389.070312 276.042969 390.980469 C 272.171875 391.808594 268.019531 391.226562 264.007812 391.496094 C 261.070312 391.695312 258.003906 390.570312 255.171875 392.546875 C 254.410156 393.078125 252.949219 392.664062 251.816406 392.59375 C 246.726562 392.28125 241.628906 390.300781 236.578125 393.242188 C 235.386719 393.933594 233.457031 393.523438 231.894531 393.375 C 229.164062 393.109375 226.449219 392.292969 223.738281 392.34375 C 215.257812 392.507812 206.839844 394.746094 198.292969 393.097656 C 197.609375 392.96875 196.835938 393.113281 196.136719 393.265625 C 189.085938 394.828125 182.058594 396.476562 174.996094 397.984375 C 168.445312 399.378906 163.289062 404.152344 164.597656 411.019531 C 164.980469 413.035156 163.925781 415.496094 163.050781 417.546875 C 161.617188 420.921875 160.195312 424.191406 160.613281 428 C 161.886719 439.613281 161.191406 451.140625 158.984375 462.601562 C 158.804688 463.539062 158.820312 464.714844 159.234375 465.53125 C 160.527344 468.074219 160.132812 470.546875 159.65625 473.183594 C 159.253906 475.433594 159.371094 477.78125 159.332031 480.085938 C 159.265625 484.078125 160.328125 487.988281 159.386719 492.082031 C 157.96875 498.261719 158.699219 504.386719 160.945312 510.386719 C 161.398438 511.597656 160.636719 513.347656 160.214844 514.785156 C 159.488281 517.253906 158.179688 519.617188 157.847656 522.117188 C 157.230469 526.777344 157.128906 531.507812 156.828125 536.210938 C 156.40625 542.8125 155.929688 549.417969 155.605469 556.027344 C 155.429688 559.597656 155.585938 563.1875 155.488281 566.765625 C 155.367188 571.253906 154.984375 575.742188 155.003906 580.230469 C 155.015625 584.269531 155.84375 588.335938 155.554688 592.339844 C 155.066406 599.136719 154.449219 605.847656 156.074219 612.609375 C 156.636719 614.945312 156.402344 617.542969 156.179688 619.988281 C 155.667969 625.585938 154.972656 631.167969 154.292969 636.746094 C 153.628906 642.21875 152.558594 647.667969 152.292969 653.15625 C 152.0625 657.910156 150.476562 662.929688 153.890625 667.414062 C 154.691406 668.464844 155.042969 670.1875 154.929688 671.546875 C 154.40625 677.871094 153.359375 684.164062 153.050781 690.496094 C 152.753906 696.605469 152.074219 703.011719 153.515625 708.800781 C 154.804688 713.957031 154.175781 718.125 152.171875 722.527344 C 151.328125 724.382812 151.007812 726.078125 152.332031 727.847656 C 153.734375 729.71875 154.191406 731.691406 153.03125 733.960938 C 152.605469 734.796875 152.398438 736.082031 152.71875 736.917969 C 155.128906 743.164062 152.546875 749.242188 151.878906 755.269531 C 151.144531 761.945312 151.304688 768.648438 150.429688 775.339844 C 149.632812 781.464844 151.695312 787.855469 150.699219 794.21875 C 150.257812 797.027344 149.972656 799.972656 150.3125 802.769531 C 150.867188 807.273438 150.847656 811.574219 149.769531 816.058594 C 149.214844 818.359375 150.367188 821.089844 150.824219 823.613281 C 151.078125 825.023438 151.734375 826.394531 151.789062 827.800781 C 152.136719 836.496094 152.378906 845.195312 152.621094 853.894531 C 152.691406 856.308594 152.9375 858.769531 152.589844 861.132812 C 152.019531 864.992188 151.042969 868.703125 152.46875 872.667969 C 153.113281 874.460938 152.851562 876.714844 152.546875 878.691406 C 151.90625 882.820312 150.839844 886.84375 152.503906 891.046875 C 152.96875 892.210938 152.5 893.925781 152.046875 895.246094 C 150.566406 899.546875 150.636719 903.945312 151.832031 908.136719 C 153.683594 914.609375 153.980469 921.078125 153.542969 927.726562 C 153.355469 930.632812 153.570312 933.789062 154.546875 936.488281 C 156.070312 940.691406 155.007812 944.933594 155.617188 949.113281 C 155.988281 951.65625 155.847656 954.273438 156.070312 956.84375 C 156.304688 959.570312 157.359375 962.410156 156.855469 964.964844 C 156.128906 968.664062 155.914062 972 157.578125 975.476562 C 157.992188 976.34375 157.335938 977.703125 157.234375 978.839844 C 156.886719 982.714844 156.550781 986.589844 156.25 990.46875 C 156.109375 992.308594 156.078125 994.160156 155.960938 996.003906 C 155.855469 997.707031 155.5625 999.410156 155.597656 1001.105469 C 155.6875 1005.320312 156.113281 1009.503906 153.507812 1013.324219 C 152.785156 1014.386719 152.691406 1016.105469 152.824219 1017.46875 C 153.148438 1020.753906 154.355469 1024.050781 154.125 1027.269531 C 153.882812 1030.71875 154.09375 1034.328125 151.984375 1037.664062 C 150.792969 1039.546875 150.660156 1042.460938 150.910156 1044.820312 C 151.585938 1051.226562 152.78125 1057.574219 153.640625 1063.960938 C 153.921875 1066.058594 154.105469 1068.257812 153.796875 1070.328125 C 152.949219 1076 151.636719 1081.589844 152.457031 1087.417969 C 152.6875 1089.046875 152.632812 1091.425781 151.652344 1092.382812 C 149.21875 1094.773438 149.84375 1097.492188 150.210938 1100.027344 C 150.972656 1105.300781 152.167969 1110.511719 153.25 1115.734375 C 154.34375 1121.035156 158.582031 1123.375 163.847656 1122.296875 C 166.402344 1121.773438 169.210938 1122.171875 171.859375 1122.527344 C 173.988281 1122.8125 176.082031 1124.273438 178.125 1124.148438 C 186.804688 1123.617188 195.476562 1122.855469 204.109375 1121.8125 C 207.226562 1121.4375 210.0625 1121.4375 213.097656 1122.339844 C 216.253906 1123.28125 219.613281 1123.546875 223.433594 1124.203125 C 220.792969 1119.144531 217.824219 1115.15625 216.574219 1110.691406 C 214.320312 1102.632812 207.625 1096.816406 206.074219 1088.511719 C 205.941406 1087.789062 204.734375 1087.324219 204.394531 1086.570312 C 202.917969 1083.316406 200.621094 1080.058594 200.414062 1076.695312 C 200.113281 1071.6875 199.558594 1067.035156 196.90625 1062.703125 C 196.253906 1061.632812 196.007812 1060.25 195.808594 1058.972656 C 194.332031 1049.410156 192.9375 1039.835938 191.464844 1030.273438 C 190.957031 1026.980469 189.785156 1023.703125 189.828125 1020.429688 C 189.917969 1013.910156 190.519531 1007.386719 191.164062 1000.886719 C 191.414062 998.34375 192.390625 995.871094 192.964844 993.351562 C 193.351562 991.660156 194.011719 989.910156 193.875 988.242188 C 193.269531 980.75 193.179688 973.101562 191.484375 965.839844 C 188.859375 954.582031 189.195312 943.441406 190.414062 932.167969 C 190.648438 930.015625 190.925781 927.859375 191.054688 925.699219 C 191.496094 918.363281 191.835938 911.019531 192.304688 903.683594 C 192.496094 900.65625 192.847656 897.632812 193.246094 894.621094 C 194.007812 888.886719 195.371094 883.175781 195.53125 877.429688 C 195.699219 871.308594 197.539062 865.664062 199.566406 860.171875 C 202.265625 852.847656 206.070312 845.9375 209.238281 838.78125 C 210.761719 835.34375 212.109375 831.804688 213.183594 828.207031 C 215.316406 821.066406 218.261719 814.386719 222.859375 808.453125 C 225.871094 804.570312 229.359375 800.839844 231.355469 796.457031 C 233.148438 792.519531 235.988281 789.980469 238.816406 787.136719 C 239.773438 786.171875 240.25 784.679688 240.796875 783.367188 C 242.949219 778.226562 245.515625 773.507812 250.5 770.371094 C 252.769531 768.941406 255.113281 766.945312 256.296875 764.628906 C 258.207031 760.890625 261 758.507812 264.445312 756.4375 C 266.515625 755.191406 268.84375 753.777344 270.070312 751.824219 C 273.734375 745.988281 277.476562 740.5 284.578125 738.398438 C 285.738281 738.054688 286.625 736.816406 287.664062 736.023438 C 293.082031 731.890625 298.40625 727.613281 303.96875 723.683594 C 308.132812 720.742188 313.570312 719.839844 317.042969 715.691406 C 317.484375 715.164062 318.214844 714.828125 318.867188 714.523438 C 327.214844 710.597656 335.546875 706.648438 343.933594 702.8125 C 347.746094 701.070312 351.6875 699.609375 355.539062 697.941406 C 357.121094 697.257812 358.632812 696.398438 360.144531 695.5625 C 362.546875 694.234375 364.808594 692.589844 367.324219 691.550781 C 372.496094 689.410156 377.796875 687.570312 383.054688 685.640625 C 383.71875 685.394531 384.476562 685.410156 385.164062 685.203125 C 388.589844 684.164062 392.378906 683.699219 395.339844 681.882812 C 399.527344 679.316406 403.890625 677.683594 408.566406 676.5 C 413.492188 675.25 418.355469 673.886719 420.921875 668.671875 C 421.566406 667.371094 423.121094 666.292969 424.507812 665.621094 C 430.367188 662.785156 436.285156 660.058594 442.265625 657.476562 C 444.054688 656.703125 445.449219 656.101562 446.277344 654.015625 C 449.628906 645.554688 452.898438 637.105469 454.085938 627.992188 C 454.363281 625.878906 455.328125 623.863281 455.839844 621.773438 C 456.890625 617.476562 457.851562 613.160156 458.941406 608.457031 C 452.515625 607.035156 446.453125 606.246094 440.800781 604.277344 C 435.789062 602.535156 431.039062 599.789062 426.53125 596.921875 C 421.914062 593.988281 417.675781 590.4375 413.382812 587.019531 C 410.695312 584.882812 408.195312 582.503906 405.640625 580.199219 C 404.914062 579.542969 404.328125 578.730469 403.601562 578.074219 C 399.203125 574.09375 394.71875 570.203125 390.402344 566.136719 C 388.835938 564.660156 387.457031 562.898438 386.324219 561.058594 C 384.898438 558.746094 384.789062 556.5625 386.382812 553.839844 C 388.238281 550.675781 389.445312 546.941406 390.085938 543.308594 C 390.753906 539.539062 391.480469 536.015625 393.859375 532.894531 C 395.070312 531.304688 396.035156 529.457031 396.757812 527.585938 C 399.699219 519.992188 402.5 512.34375 405.367188 504.722656 C 405.464844 504.460938 405.699219 504.25 405.878906 504.019531 C 407.738281 501.613281 409.832031 499.355469 411.390625 496.773438 C 413.234375 493.71875 414.601562 490.375 416.203125 487.167969 C 416.96875 485.628906 417.621094 483.992188 418.625 482.621094 C 420.394531 480.199219 422.992188 478.210938 424.144531 475.5625 C 425.679688 472.039062 428.910156 470.644531 431.320312 468.261719 C 432.304688 467.289062 433.960938 467 434.953125 466.035156 C 439.722656 461.40625 445.394531 458.542969 451.78125 456.945312 C 452.757812 456.699219 453.675781 456.230469 454.628906 455.886719 C 460.171875 453.882812 465.660156 451.71875 471.277344 449.953125 C 474.558594 448.921875 478.097656 448.722656 481.425781 447.808594 C 485.253906 446.753906 488.9375 445.78125 492.980469 446.980469 C 494.527344 447.4375 496.472656 447.0625 498.113281 446.609375 C 501.527344 445.671875 504.808594 445.304688 508.359375 446.195312 C 513.269531 447.421875 518.339844 448.011719 523.28125 449.144531 C 526.800781 449.949219 530.253906 451.097656 533.667969 452.289062 C 537.636719 453.671875 541.601562 455.101562 545.425781 456.832031 C 547.714844 457.867188 550.183594 459.121094 551.777344 460.964844 C 555.191406 464.917969 558.128906 469.289062 561.1875 473.542969 C 563.058594 476.144531 565.425781 478.042969 567.964844 480.035156 C 573.058594 484.027344 579.105469 486.269531 584.210938 490.457031 C 590.546875 495.652344 593.59375 502.394531 597.15625 509.042969 C 599.023438 512.523438 600.332031 516.414062 601.191406 520.277344 C 601.691406 522.523438 600.125 525.253906 600.6875 527.464844 C 601.949219 532.460938 600.886719 536.597656 597.734375 540.433594 C 597.371094 540.871094 596.929688 541.410156 596.890625 541.929688 C 596.332031 549.496094 590.136719 552.316406 584.929688 555.738281 C 582.996094 557.011719 580.199219 557.085938 578.195312 554.738281 C 577.546875 553.984375 576.511719 553.5625 576.265625 553.398438 C 574.269531 558.21875 572.394531 562.703125 570.550781 567.199219 C 569.675781 569.347656 568.609375 571.457031 568.066406 573.691406 C 564.605469 587.910156 557.757812 600.433594 549.179688 612.136719 C 547.46875 614.46875 546.296875 617.207031 544.515625 619.476562 C 541.941406 622.761719 539.324219 626.117188 536.210938 628.863281 C 529.726562 634.589844 522.828125 639.851562 516.273438 645.507812 C 514.816406 646.765625 513.765625 648.746094 513.089844 650.601562 C 512.34375 652.640625 512.984375 654.675781 515.042969 655.867188 C 519.308594 658.335938 523.597656 660.769531 527.914062 663.148438 C 528.636719 663.542969 529.574219 663.855469 530.367188 663.769531 C 539.777344 662.710938 549.347656 664.613281 558.683594 662.242188 C 559.082031 662.140625 559.632812 662.132812 559.957031 662.332031 C 564.296875 665.027344 568.988281 666.125 574.082031 665.789062 C 574.855469 665.738281 575.648438 666.5625 576.484375 666.75 C 580.144531 667.570312 583.800781 668.441406 587.5 669.023438 C 590.039062 669.425781 592.726562 669.050781 595.207031 669.625 C 600.015625 670.734375 604.738281 672.234375 609.472656 673.644531 C 613.484375 674.839844 617.402344 676.394531 621.761719 675.332031 C 622.582031 675.132812 623.695312 675.777344 624.570312 676.230469 C 630.335938 679.207031 635.933594 682.5625 641.867188 685.148438 C 646.117188 687.003906 649.078125 690.023438 651.546875 693.574219 C 653 695.667969 654.546875 696.65625 657 697.304688 C 662 698.625 667.140625 699.945312 670.140625 704.984375 C 670.75 706.007812 672.332031 706.671875 673.601562 707.039062 C 677.171875 708.066406 681.117188 708.3125 683.769531 711.289062 C 688.121094 716.171875 693.886719 718.828125 699.449219 721.886719 C 703.636719 724.1875 707.695312 726.738281 711.691406 729.363281 C 713.234375 730.375 714.226562 732.457031 715.84375 733.085938 C 722.585938 735.714844 726.945312 742.269531 734.1875 744 C 734.621094 744.105469 735.070312 744.796875 735.222656 745.304688 C 736.738281 750.40625 743.332031 751.488281 744.414062 756.929688 C 744.457031 757.136719 744.839844 757.3125 745.09375 757.445312 C 749.40625 759.679688 750.933594 764.765625 755.960938 766.835938 C 759.863281 768.441406 762.238281 773.460938 765.742188 776.433594 C 769.742188 779.828125 772.460938 784.503906 776.210938 787.691406 C 780.378906 791.230469 782.6875 795.6875 785.878906 799.679688 C 787.320312 801.476562 788.789062 803.257812 790.3125 804.980469 C 791.417969 806.234375 792.707031 807.328125 793.796875 808.59375 C 797.933594 813.390625 800.964844 819.195312 806.722656 822.515625 C 807.667969 823.058594 808.566406 823.953125 809.097656 824.90625 C 813.078125 832.03125 817.742188 838.304688 824.972656 842.765625 C 829.015625 845.261719 832.027344 849.507812 835.308594 853.140625 C 836.796875 854.789062 837.445312 857.300781 839.097656 858.671875 C 843.871094 862.625 849.160156 865.957031 853.320312 870.644531 C 853.601562 870.960938 854.015625 871.175781 854.398438 871.382812 C 858.914062 873.839844 862.730469 877.027344 865.390625 881.53125 C 865.859375 882.324219 866.875 882.976562 867.777344 883.300781 C 874.472656 885.703125 878.621094 891.289062 883.496094 895.90625 C 886.605469 898.847656 888.828125 902.664062 893.609375 903.597656 C 894.871094 903.84375 895.726562 906.03125 896.828125 907.277344 C 898.023438 908.625 899.0625 910.304688 900.5625 911.152344 C 905.832031 914.128906 912.015625 915.949219 916.464844 919.8125 C 922.542969 925.085938 929.5 927.6875 936.777344 930.121094 C 938.121094 930.570312 939.449219 931.191406 940.621094 931.976562 C 943.613281 933.988281 946.253906 936.824219 949.519531 938.058594 C 953.601562 939.601562 958.179688 939.796875 962.511719 940.738281 C 964.089844 941.078125 966.035156 941.476562 967 942.566406 C 969.660156 945.574219 973.128906 946.367188 976.722656 946.828125 C 981.492188 947.4375 986.082031 948.414062 990.160156 951.136719 C 990.859375 951.605469 991.707031 951.953125 992.535156 952.113281 C 1000.726562 953.691406 1008.941406 955.183594 1017.128906 956.796875 C 1019.253906 957.214844 1021.277344 958.25 1023.410156 958.5 C 1032.183594 959.535156 1040.980469 960.359375 1049.765625 961.3125 C 1050.761719 961.421875 1051.710938 961.894531 1052.703125 962.117188 C 1054.613281 962.550781 1056.542969 962.898438 1058.453125 963.339844 C 1059.714844 963.628906 1060.933594 964.125 1062.203125 964.34375 C 1069.871094 965.65625 1077.523438 967.0625 1085.230469 968.101562 C 1087.292969 968.378906 1089.507812 967.378906 1091.671875 967.191406 C 1093.085938 967.070312 1094.554688 967.246094 1095.964844 967.484375 C 1098.792969 967.957031 1101.582031 968.925781 1104.410156 969.027344 C 1108.859375 969.191406 1113.28125 968.828125 1117.1875 971.710938 C 1118.144531 972.421875 1119.667969 972.519531 1120.953125 972.609375 C 1128.890625 973.148438 1136.582031 975.914062 1144.664062 975.214844 C 1145.496094 975.140625 1146.382812 975.488281 1147.226562 975.710938 C 1155.425781 977.914062 1163.597656 980.410156 1171.976562 976.3125 C 1172.972656 975.828125 1174.296875 975.671875 1175.40625 975.824219 C 1180.792969 976.566406 1185.742188 971.714844 1191.34375 974.679688 C 1192.152344 975.109375 1193.585938 974.402344 1194.722656 974.175781 C 1197.980469 973.523438 1201.316406 973.109375 1204.46875 972.121094 C 1209.285156 970.609375 1213.96875 968.667969 1218.726562 966.960938 C 1220.210938 966.429688 1221.757812 966.058594 1223.28125 965.628906 C 1226.027344 964.859375 1228.765625 964.0625 1231.53125 963.355469 C 1233.851562 962.761719 1236.191406 961.953125 1238.546875 961.851562 C 1240.789062 961.757812 1243.058594 962.671875 1245.332031 962.773438 C 1250.210938 962.984375 1255.109375 968.257812 1254.269531 973.046875 C 1253.496094 977.433594 1252.992188 982.035156 1249.265625 985.304688 C 1248.597656 985.890625 1248.335938 986.933594 1247.886719 987.769531 C 1248.042969 988.074219 1248.199219 988.382812 1248.355469 988.691406 C 1253.570312 987.367188 1259.054688 986.671875 1263.921875 984.554688 C 1269.597656 982.089844 1275.203125 982.355469 1280.988281 982.730469 C 1282.121094 982.800781 1283.289062 983.207031 1284.375 983.03125 C 1288.851562 982.308594 1292.949219 982.679688 1296.324219 986.167969 C 1296.847656 986.707031 1297.753906 986.992188 1298.53125 987.148438 C 1302.511719 987.9375 1304.34375 991.132812 1302.789062 994.703125 C 1302.394531 995.605469 1301.976562 996.5 1301.574219 997.382812 C 1303.078125 998.351562 1304.585938 999.023438 1305.710938 1000.101562 C 1308.550781 1002.820312 1311.738281 1005.804688 1310.660156 1010.097656 C 1309.890625 1013.152344 1309.519531 1015.78125 1310.832031 1018.6875 C 1311.132812 1019.34375 1310.640625 1020.675781 1310.089844 1021.351562 C 1306.3125 1025.976562 1302.367188 1030.40625 1296.523438 1032.574219 C 1292.027344 1034.242188 1287.433594 1035.886719 1284.328125 1039.816406 C 1281.796875 1043.015625 1278.464844 1044.738281 1274.597656 1044.9375 C 1268.695312 1045.242188 1262.679688 1045.675781 1256.859375 1044.90625 C 1248.125 1043.753906 1239.417969 1043.003906 1230.625 1043.175781 C 1228.300781 1043.222656 1225.980469 1043.253906 1223.660156 1043.292969 C 1219.679688 1043.363281 1215.699219 1043.519531 1211.722656 1043.472656 C 1209.617188 1043.445312 1207.5 1043.167969 1205.425781 1042.796875 C 1204.023438 1042.542969 1202.71875 1041.6875 1201.316406 1041.511719 C 1191.308594 1040.234375 1181.226562 1039.417969 1171.285156 1037.746094 C 1162.699219 1036.300781 1154.167969 1036.796875 1145.59375 1036.929688 C 1143.574219 1036.960938 1141.554688 1036.671875 1139.535156 1036.660156 C 1135.632812 1036.640625 1131.460938 1035.851562 1127.902344 1036.972656 C 1123.773438 1038.277344 1119.722656 1039.539062 1115.433594 1040.273438 C 1110.59375 1041.101562 1105.863281 1042.535156 1101.054688 1043.554688 C 1099.53125 1043.878906 1097.503906 1043.144531 1096.398438 1043.898438 C 1090.90625 1047.652344 1084.28125 1047.164062 1078.402344 1047.8125 C 1069.753906 1048.769531 1060.6875 1047.726562 1052.027344 1046.21875 C 1044.902344 1044.980469 1038.070312 1043.21875 1030.808594 1045.082031 C 1028.683594 1045.625 1026.0625 1045.738281 1024.066406 1044.988281 C 1019.246094 1043.179688 1014.40625 1043.449219 1009.488281 1043.722656 C 1008.203125 1043.792969 1006.625 1044.183594 1005.671875 1043.609375 C 998.820312 1039.480469 990.847656 1041.953125 983.703125 1039.710938 C 983.207031 1039.554688 982.539062 1039.765625 981.996094 1039.949219 C 978.136719 1041.226562 974.996094 1039.492188 971.757812 1037.753906 C 969.898438 1036.753906 967.820312 1036.015625 965.75 1035.589844 C 963.207031 1035.066406 960.578125 1034.90625 957.976562 1034.757812 C 956.714844 1034.683594 955.429688 1034.988281 954.15625 1035.121094 C 952.777344 1035.269531 951.339844 1035.738281 950.027344 1035.503906 C 945.355469 1034.667969 940.515625 1034.472656 936.273438 1031.820312 C 935.128906 1031.101562 933.476562 1031.203125 932.0625 1030.90625 C 930.949219 1030.671875 929.601562 1030.714844 928.769531 1030.085938 C 925.929688 1027.933594 922.824219 1028.15625 919.585938 1028.453125 C 918.066406 1028.59375 916.363281 1028.632812 914.984375 1028.09375 C 908.003906 1025.375 901.1875 1022.214844 894.148438 1019.671875 C 888.84375 1017.753906 883.261719 1016.605469 877.855469 1014.953125 C 875.980469 1014.378906 874.21875 1013.375 872.472656 1012.445312 C 869.171875 1010.683594 866 1008.660156 862.621094 1007.078125 C 859.789062 1005.757812 856.488281 1005.328125 853.832031 1003.761719 C 848.472656 1000.601562 843.269531 997.125 838.257812 993.433594 C 830.199219 987.492188 822.183594 981.554688 812.992188 977.375 C 811.011719 976.472656 809.503906 974.460938 807.890625 972.847656 C 806.726562 971.683594 805.847656 970.238281 804.675781 969.085938 C 800.648438 965.109375 796.691406 961.050781 792.441406 957.320312 C 787.894531 953.324219 781.753906 951.234375 778.460938 945.695312 C 778.347656 945.507812 777.90625 945.539062 777.660156 945.394531 C 771.6875 941.964844 765.476562 938.847656 761.589844 932.746094 C 761.152344 932.054688 760.265625 931.648438 759.578125 931.121094 C 754.296875 927.085938 749.1875 922.792969 743.6875 919.085938 C 737.832031 915.136719 732.992188 909.375 725.410156 908.285156 C 724.628906 908.171875 723.828125 907.488281 723.238281 906.875 C 721.234375 904.789062 719.433594 902.488281 717.328125 900.515625 C 715.703125 898.992188 713.847656 897.628906 711.890625 896.578125 C 709.359375 895.21875 706.359375 894.625 704.035156 893.011719 C 699.449219 889.832031 695.1875 886.175781 690.789062 882.71875 C 684.25 877.582031 676.800781 874.011719 669.324219 870.535156 C 666.429688 869.191406 663.613281 870.148438 661.738281 873.023438 C 660.242188 875.316406 659.152344 877.890625 658.035156 880.40625 C 656.511719 883.839844 655.613281 887.664062 653.550781 890.710938 C 651.699219 893.441406 650.734375 896.058594 650.949219 899.203125 C 651.222656 903.160156 650.039062 906.726562 647.789062 909.847656 C 646.386719 911.792969 646.140625 913.625 646.390625 915.945312 C 646.726562 919.039062 647.34375 922.53125 646.296875 925.261719 C 642.003906 936.488281 640.992188 948.707031 635.640625 959.578125 C 635.257812 960.351562 635.113281 961.242188 634.800781 962.054688 C 633.929688 964.332031 633.328125 966.785156 632.078125 968.835938 C 629.003906 973.882812 625.664062 978.765625 622.355469 983.660156 C 621.042969 985.601562 620.289062 987.308594 621.839844 989.621094 C 622.535156 990.660156 622.332031 992.382812 622.335938 993.792969 C 622.34375 995.800781 621.972656 997.820312 622.105469 999.8125 C 622.488281 1005.429688 623.964844 1011.140625 623.320312 1016.617188 C 622.316406 1025.148438 623.527344 1033.328125 624.839844 1041.601562 C 625.496094 1045.734375 625.914062 1049.929688 626.898438 1053.984375 C 629.578125 1065.003906 630.890625 1076.183594 631.417969 1087.476562 C 631.492188 1089.058594 630.789062 1090.816406 631.265625 1092.210938 C 633.363281 1098.351562 632.132812 1104.496094 631.609375 1110.625 C 631.234375 1114.988281 631.996094 1116.15625 636.308594 1116.164062 C 637.539062 1116.167969 638.8125 1115.585938 640 1115.109375 C 641.949219 1114.332031 643.523438 1114.15625 645.707031 1115.238281 C 648.152344 1116.453125 651.230469 1116.578125 654.066406 1116.796875 C 661.203125 1117.347656 668.402344 1114.851562 675.550781 1117.304688 C 676.738281 1117.710938 678.324219 1117.023438 679.710938 1116.769531 C 685.472656 1115.710938 691.210938 1114.488281 697 1113.605469 C 699.65625 1113.199219 702.410156 1113.515625 705.117188 1113.375 C 707.679688 1113.242188 710.910156 1113.839844 712.652344 1112.53125 C 716.21875 1109.847656 719.25 1110.546875 722.691406 1112.054688 C 723.746094 1112.515625 724.921875 1112.78125 726.070312 1112.910156 C 731.1875 1113.488281 736.363281 1113.722656 741.429688 1114.597656 C 744.957031 1115.207031 748.117188 1114.648438 751.070312 1113.03125 C 753.148438 1111.894531 754.761719 1111.632812 757.132812 1112.539062 C 760.433594 1113.800781 764.078125 1114.707031 767.589844 1114.75 C 772.832031 1114.808594 778.085938 1113.976562 783.335938 1113.542969 C 783.757812 1113.507812 784.339844 1113.480469 784.601562 1113.71875 C 787.492188 1116.382812 790.734375 1115.40625 794.085938 1115.019531 C 796.316406 1114.761719 798.878906 1115.039062 800.90625 1115.941406 C 803.550781 1117.117188 806.015625 1117.117188 808.53125 1116.296875 C 812.917969 1114.863281 817.210938 1112.984375 821.828125 1115.46875 C 822.054688 1115.589844 822.421875 1115.574219 822.679688 1115.492188 C 827.84375 1113.847656 832.929688 1115.238281 838.050781 1115.792969 C 839.585938 1115.960938 841.183594 1115.457031 842.753906 1115.359375 C 844.726562 1115.242188 846.703125 1115.207031 848.675781 1115.167969 C 849.964844 1115.140625 851.25 1115.183594 852.539062 1115.167969 C 855.710938 1115.128906 858.914062 1114.765625 862.042969 1115.113281 C 866.09375 1115.558594 870.0625 1116.449219 874.054688 1114.789062 C 874.808594 1114.476562 875.78125 1114.554688 876.636719 1114.632812 C 884.667969 1115.335938 892.695312 1116.058594 900.71875 1114.503906 C 901.253906 1114.398438 901.871094 1114.492188 902.40625 1114.644531 C 906.480469 1115.8125 910.449219 1116.367188 914.660156 1114.761719 C 917.253906 1113.769531 920.191406 1113.417969 923 1113.296875 C 928.882812 1113.046875 934.785156 1113.082031 940.675781 1113.125 C 941.917969 1113.132812 943.277344 1113.445312 944.367188 1114.023438 C 947.105469 1115.472656 949.414062 1115.816406 952.472656 1114.144531 C 955.828125 1112.3125 959.804688 1111.585938 963.550781 1110.527344 C 964.285156 1110.320312 965.359375 1110.566406 966.023438 1110.996094 C 969.015625 1112.925781 972.164062 1113.226562 975.59375 1112.574219 C 977.125 1112.285156 978.800781 1112.328125 980.34375 1112.597656 C 984.714844 1113.363281 988.941406 1113.570312 993.09375 1111.464844 C 994.308594 1110.847656 995.929688 1110.824219 997.355469 1110.863281 C 1002.683594 1111.015625 1008.011719 1111.496094 1013.339844 1111.492188 C 1018.535156 1111.484375 1023.859375 1110.191406 1028.894531 1110.972656 C 1036.734375 1112.191406 1044.355469 1112.160156 1052.039062 1110.523438 C 1053.445312 1110.226562 1054.914062 1109.277344 1056.203125 1109.5 C 1063.765625 1110.796875 1071.320312 1111.421875 1078.996094 1110.757812 C 1087.03125 1110.0625 1095.132812 1112.023438 1103.207031 1109.796875 C 1105.945312 1109.042969 1109.167969 1110.152344 1112.175781 1110.253906 C 1114.246094 1110.324219 1116.394531 1110.425781 1118.382812 1109.976562 C 1121.917969 1109.171875 1125.210938 1108.308594 1128.886719 1109.96875 C 1130.835938 1110.847656 1133.503906 1110.824219 1135.671875 1110.367188 C 1138.90625 1109.6875 1141.953125 1108.164062 1145.144531 1107.203125 C 1146.601562 1106.761719 1148.253906 1106.492188 1149.742188 1106.691406 C 1153.027344 1107.136719 1156.242188 1108.132812 1159.53125 1108.527344 C 1163.675781 1109.023438 1167.898438 1109.585938 1172.027344 1109.300781 C 1176.480469 1108.996094 1180.832031 1108.027344 1185.289062 1109.445312 C 1186.40625 1109.800781 1187.945312 1109.460938 1189.09375 1108.976562 C 1192.074219 1107.710938 1194.925781 1107.980469 1198.027344 1108.628906 C 1206.953125 1110.492188 1215.832031 1112.15625 1225.121094 1109.980469 C 1228.921875 1109.089844 1233.265625 1111.164062 1237.304688 1109.359375 C 1237.65625 1109.203125 1238.3125 1109.886719 1238.867188 1110.015625 C 1242.527344 1110.855469 1246.167969 1111.957031 1249.882812 1112.351562 C 1252.089844 1112.585938 1254.402344 1111.472656 1256.691406 1111.328125 C 1262.597656 1110.949219 1268.429688 1109.875 1274.46875 1111.144531 C 1279.507812 1112.203125 1284.800781 1112.054688 1289.976562 1112.460938 C 1291.992188 1112.617188 1294 1112.820312 1296.042969 1113.007812 Z M 1147.046875 995.851562 C 1136.21875 995.964844 1126.394531 996.9375 1116.582031 995.273438 C 1114.605469 994.9375 1112.539062 994.582031 1110.574219 994.800781 C 1101.558594 995.808594 1092.695312 994.605469 1083.804688 993.367188 C 1079.097656 992.710938 1074.34375 992.3125 1069.597656 992.027344 C 1064.292969 991.710938 1058.976562 991.664062 1053.664062 991.492188 C 1046.363281 991.253906 1040.144531 986.621094 1032.152344 987.617188 C 1025.65625 988.425781 1019 983.652344 1011.863281 984.910156 C 1011.492188 984.976562 1011.050781 984.640625 1010.640625 984.492188 C 1007.433594 983.320312 1004.070312 982.992188 1000.964844 980.976562 C 998.242188 979.210938 994.382812 979.207031 991.035156 978.394531 C 985.597656 977.078125 980.140625 975.832031 974.742188 974.363281 C 971.671875 973.523438 968.351562 972.839844 965.777344 971.136719 C 960.605469 967.714844 955.105469 965.386719 949.152344 963.890625 C 947.332031 963.433594 945.589844 962.636719 943.835938 961.9375 C 939.148438 960.074219 934.535156 957.976562 929.753906 956.382812 C 927.507812 955.636719 924.628906 956.476562 922.582031 955.476562 C 917.425781 952.960938 912.503906 949.925781 907.636719 946.867188 C 904.976562 945.195312 902.875 942.457031 900.070312 941.234375 C 891.578125 937.535156 884.347656 932.074219 877.515625 926.035156 C 874.828125 923.660156 872.925781 920.367188 870.136719 918.160156 C 866.414062 915.214844 862.03125 913.109375 858.199219 910.28125 C 854.980469 907.910156 851.820312 905.296875 849.25 902.269531 C 847.214844 899.863281 845.675781 897.378906 842.046875 897.65625 C 841.386719 897.707031 840.457031 897.464844 840.039062 897.003906 C 837.523438 894.246094 835.109375 891.394531 832.683594 888.558594 C 830.058594 885.488281 828.015625 881.425781 824.722656 879.535156 C 818.707031 876.078125 814.78125 870.71875 809.980469 866.152344 C 808.839844 865.066406 807.757812 863.625 806.371094 863.140625 C 800.949219 861.238281 798.914062 855.722656 794.683594 852.480469 C 791.53125 850.0625 789.96875 845.671875 787.277344 842.519531 C 784.960938 839.808594 782.023438 837.640625 779.40625 835.183594 C 777.121094 833.035156 774.488281 831.097656 772.757812 828.558594 C 770.277344 824.917969 767.902344 821.398438 763.769531 819.429688 C 762.753906 818.945312 761.746094 818.175781 761.078125 817.28125 C 758.148438 813.359375 755.492188 809.226562 752.457031 805.382812 C 748.707031 800.628906 744.875 795.90625 740.707031 791.519531 C 737.839844 788.5 734.421875 785.964844 731.09375 783.417969 C 728.242188 781.238281 725.121094 779.414062 722.21875 777.296875 C 721.011719 776.410156 719.675781 775.355469 719.058594 774.058594 C 717.148438 770.050781 714.710938 766.878906 709.984375 766.136719 C 709.023438 765.984375 707.90625 765.609375 707.25 764.949219 C 704.300781 761.992188 701.15625 759.140625 698.714844 755.789062 C 695.75 751.71875 691.355469 749.984375 687.144531 748.539062 C 681.921875 746.746094 677.414062 744.21875 673.25 740.722656 C 670.175781 738.140625 668.605469 733.625 663.667969 733.304688 C 662.941406 733.257812 662.425781 731.691406 661.597656 731.179688 C 659.792969 730.066406 657.75 728.230469 655.984375 728.417969 C 653.320312 728.699219 652.371094 727.082031 650.914062 725.839844 C 647.429688 722.867188 644.246094 719.4375 640.429688 716.984375 C 634.238281 713.007812 627.726562 709.496094 621.183594 706.113281 C 616.726562 703.808594 611.675781 702.554688 607.472656 699.90625 C 604.195312 697.839844 600.980469 697.292969 597.558594 697.792969 C 594.21875 698.28125 591.523438 697.527344 589.351562 695.15625 C 585.84375 691.328125 581.4375 690.074219 576.449219 689.988281 C 575.230469 689.96875 573.929688 689.535156 572.820312 688.976562 C 568.78125 686.945312 564.824219 684.746094 560.796875 682.691406 C 559.777344 682.171875 558.554688 681.566406 557.503906 681.683594 C 554.160156 682.058594 552.535156 680.1875 550.917969 677.703125 C 550.144531 676.511719 548.59375 675.320312 547.25 675.121094 C 545.046875 674.800781 542.722656 675.289062 539.609375 675.488281 C 541.089844 677.964844 541.863281 680.324219 543.472656 681.753906 C 548.207031 685.964844 549.527344 691.355469 550.089844 697.300781 C 550.789062 704.640625 548.414062 711.269531 545.773438 717.832031 C 544.699219 720.5 543.453125 723.328125 541.527344 725.378906 C 533.875 733.542969 524.328125 738.070312 513.105469 738.613281 C 510.585938 738.734375 508.019531 737.808594 505.464844 737.453125 C 498.066406 736.414062 491.289062 733.949219 485.3125 728.777344 C 481.183594 735.601562 474.90625 739.667969 467.40625 741.585938 C 462.246094 742.90625 456.820312 743.136719 451.597656 744.246094 C 443.148438 746.042969 436.328125 742.164062 429.460938 738.34375 C 428.496094 737.808594 427.796875 736.757812 427.058594 735.875 C 424.820312 733.203125 422.609375 730.507812 420.410156 727.800781 C 419.6875 726.910156 418.53125 726.011719 418.4375 725.035156 C 417.914062 719.539062 413.535156 714.792969 415.332031 708.855469 C 415.480469 708.363281 415.042969 707.726562 415.039062 707.152344 C 415.027344 704.730469 414.875 702.28125 415.144531 699.886719 C 415.535156 696.367188 416.238281 692.886719 416.953125 688.503906 C 414.503906 689.320312 412.40625 689.382812 411.484375 690.460938 C 409.703125 692.539062 407.410156 692.972656 405.117188 693.785156 C 399.441406 695.800781 393.554688 697.246094 388.882812 701.566406 C 385 705.160156 380.25 707.359375 374.886719 708.03125 C 374.058594 708.136719 373.246094 708.539062 372.472656 708.898438 C 369.726562 710.171875 366.976562 711.4375 364.28125 712.8125 C 363.042969 713.449219 361.980469 714.421875 360.753906 715.09375 C 354.425781 718.578125 348.074219 722.019531 341.71875 725.457031 C 341.480469 725.585938 341.136719 725.5 340.867188 725.589844 C 339.144531 726.179688 337.246094 726.496094 335.746094 727.441406 C 330.265625 730.90625 325.320312 735.277344 318.898438 737.113281 C 318.351562 737.269531 317.796875 737.53125 317.34375 737.875 C 311.941406 741.984375 306.722656 746.355469 301.128906 750.179688 C 293.953125 755.082031 287.140625 760.347656 281.183594 766.691406 C 280.601562 767.308594 279.753906 767.667969 279.082031 768.210938 C 277.503906 769.484375 275.863281 770.699219 274.421875 772.117188 C 272.066406 774.433594 269.851562 776.898438 267.570312 779.292969 C 266.96875 779.921875 266.277344 780.46875 265.734375 781.140625 C 259.996094 788.195312 254.273438 795.261719 248.5625 802.339844 C 248.207031 802.785156 248.011719 803.351562 247.707031 803.839844 C 246.265625 806.128906 244.835938 808.421875 243.359375 810.683594 C 242.570312 811.890625 241.507812 812.949219 240.871094 814.222656 C 237.007812 821.945312 233.597656 829.925781 229.273438 837.375 C 227.09375 841.132812 225.421875 844.722656 225.09375 849.015625 C 224.992188 850.289062 224.394531 851.527344 223.976562 852.769531 C 221.503906 860.167969 218.75 867.492188 216.628906 874.992188 C 215.339844 879.554688 214.855469 884.371094 214.289062 889.105469 C 213.332031 897.109375 210.296875 904.675781 210.972656 913.117188 C 211.601562 920.929688 210.082031 928.910156 209.582031 936.824219 C 209.308594 941.160156 208.902344 945.515625 209.070312 949.839844 C 209.332031 956.59375 209.964844 963.339844 210.5625 970.074219 C 211.011719 975.125 211.96875 980.144531 212.128906 985.199219 C 212.328125 991.355469 214.011719 997.40625 212.71875 1003.722656 C 211.921875 1007.621094 212.554688 1011.816406 212.578125 1015.875 C 212.589844 1017.859375 212.972656 1019.886719 212.667969 1021.8125 C 211.609375 1028.425781 210.84375 1035.011719 213.367188 1041.441406 C 215.085938 1045.820312 217.253906 1050.023438 218.90625 1054.421875 C 221.09375 1060.242188 223.042969 1066.152344 224.960938 1072.070312 C 226.457031 1076.699219 228.9375 1081.066406 228.714844 1086.183594 C 228.671875 1087.109375 228.992188 1088.414062 229.640625 1088.945312 C 231.820312 1090.738281 231.902344 1093.167969 232.300781 1095.617188 C 232.667969 1097.871094 233.351562 1100.082031 234.027344 1102.273438 C 234.535156 1103.929688 235.34375 1105.496094 235.851562 1107.152344 C 237.460938 1112.382812 238.917969 1117.660156 240.625 1122.859375 C 240.90625 1123.71875 242.066406 1124.710938 242.953125 1124.863281 C 244.636719 1125.152344 246.414062 1124.90625 248.148438 1124.828125 C 250.6875 1124.714844 253.230469 1124.371094 255.761719 1124.453125 C 263 1124.683594 270.25 1125.3125 277.660156 1123.132812 C 276.132812 1116.554688 275.28125 1110 272.089844 1104.054688 C 271.074219 1102.167969 270.453125 1100.0625 269.730469 1098.027344 C 266.742188 1089.574219 263.742188 1081.128906 260.847656 1072.644531 C 260.007812 1070.1875 259.292969 1067.648438 258.878906 1065.085938 C 257.644531 1057.496094 256.578125 1049.878906 255.460938 1042.269531 C 254.136719 1033.273438 252.824219 1024.277344 251.503906 1015.277344 C 250.382812 1007.628906 253.257812 1000.152344 252.089844 992.367188 C 251.269531 986.890625 252.410156 981.121094 252.636719 975.484375 C 252.734375 973.046875 252.683594 970.605469 252.800781 968.167969 C 252.921875 965.625 252.980469 963.054688 253.398438 960.546875 C 253.914062 957.441406 255.324219 954.398438 255.378906 951.308594 C 255.558594 940.59375 256.550781 929.941406 259.164062 919.613281 C 261.066406 912.089844 260.738281 903.957031 264.945312 897.027344 C 265.085938 896.792969 265.03125 896.449219 265.132812 896.183594 C 267.101562 891.058594 268.851562 885.828125 271.132812 880.847656 C 272.863281 877.066406 275.257812 873.585938 277.386719 869.988281 C 279.4375 866.523438 281.484375 863.054688 283.621094 859.640625 C 284.308594 858.546875 285.300781 857.648438 286.117188 856.628906 C 289.976562 851.816406 293.554688 846.746094 297.757812 842.257812 C 300.898438 838.902344 304.785156 836.230469 308.429688 833.367188 C 315.238281 828.015625 322.105469 822.734375 328.96875 817.449219 C 329.652344 816.921875 330.441406 816.511719 331.226562 816.148438 C 333.449219 815.121094 335.832031 814.367188 337.90625 813.101562 C 341.410156 810.960938 344.859375 809.636719 348.902344 811.578125 C 349.625 811.925781 350.753906 812.085938 351.425781 811.761719 C 354.332031 810.367188 356.578125 811.605469 358.53125 813.476562 C 361.332031 816.164062 364.011719 818.988281 366.582031 821.898438 C 367.28125 822.691406 367.890625 824.109375 367.691406 825.058594 C 367.082031 827.957031 368.085938 830.429688 368.832031 833.105469 C 369.945312 837.101562 370.472656 841.261719 371.222656 845.355469 C 371.300781 845.769531 371.191406 846.21875 371.15625 846.652344 C 370.480469 854.828125 367.03125 862.265625 364.847656 870.039062 C 363.601562 874.472656 361.152344 878.609375 360.253906 883.085938 C 359.527344 886.699219 358.714844 890.082031 356.902344 893.289062 C 356.214844 894.503906 356.140625 896.054688 355.730469 897.433594 C 354.824219 900.46875 354.558594 903.980469 352.808594 906.417969 C 349.328125 911.269531 347.890625 916.46875 347.71875 922.25 C 347.644531 924.710938 347.257812 927.160156 347.121094 929.617188 C 346.867188 934.203125 345.246094 938.691406 346.589844 943.398438 C 347.617188 946.996094 347.832031 950.847656 349.050781 954.359375 C 350.207031 957.691406 352.1875 960.738281 353.820312 963.902344 C 354.621094 965.449219 355.765625 966.894531 356.207031 968.535156 C 358.261719 976.140625 363.628906 981.5 368.898438 986.730469 C 371.648438 989.460938 375.570312 991.058594 379.0625 992.992188 C 383.246094 995.3125 387.40625 997.742188 391.804688 999.582031 C 396.050781 1001.351562 400.667969 1002.214844 404.960938 1003.882812 C 408.003906 1005.066406 410.761719 1006.960938 413.6875 1008.460938 C 414.804688 1009.03125 416 1009.628906 417.210938 1009.785156 C 419.324219 1010.058594 421.5 1009.832031 423.605469 1010.121094 C 426.183594 1010.472656 428.710938 1011.539062 431.273438 1011.585938 C 438.167969 1011.714844 445.070312 1011.511719 451.964844 1011.320312 C 453.644531 1011.273438 455.363281 1010.335938 456.96875 1010.546875 C 465.4375 1011.664062 473.339844 1009.414062 481.242188 1006.902344 C 483.015625 1006.335938 484.867188 1005.761719 486.703125 1005.675781 C 495.867188 1005.253906 504.820312 1004.085938 513.394531 1000.464844 C 517.367188 998.785156 521.671875 997.886719 525.835938 996.660156 C 526.378906 996.5 526.976562 996.515625 527.539062 996.398438 C 529.875 995.914062 532.355469 995.757812 534.519531 994.851562 C 543.367188 991.144531 551.675781 985.746094 561.964844 987.050781 C 566.960938 987.6875 571.503906 984.75 576.703125 985.332031 C 581.035156 985.820312 585.585938 984.082031 589.972656 984.375 C 593.242188 984.59375 595.253906 983.878906 596.792969 981.203125 C 597.078125 980.707031 597.324219 980.132812 597.746094 979.773438 C 604.714844 973.828125 609.027344 965.828125 614.105469 958.445312 C 615.550781 956.34375 617.21875 953.675781 617.089844 951.367188 C 616.867188 947.453125 618.933594 944.445312 619.695312 940.976562 C 620.28125 938.308594 621.445312 935.757812 621.898438 933.078125 C 622.402344 930.132812 622.140625 927.054688 622.644531 924.109375 C 623.554688 918.796875 624.726562 913.523438 625.90625 908.257812 C 626.835938 904.089844 627.9375 899.957031 628.964844 895.804688 C 629.171875 894.964844 629.613281 894.101562 629.550781 893.28125 C 629.210938 888.816406 631.625 885.410156 634.257812 882.421875 C 636.105469 880.324219 636.890625 878.289062 636.417969 875.800781 C 636.015625 873.648438 636.574219 871.863281 638.203125 870.796875 C 641.257812 868.800781 642.5 865.664062 643.539062 862.582031 C 645.484375 856.835938 649.898438 853.753906 655.121094 852.390625 C 660.757812 850.921875 666.363281 849.238281 672.535156 849.511719 C 679.683594 849.828125 686.136719 851.613281 692.425781 854.621094 C 693.457031 855.113281 694.519531 855.773438 695.25 856.625 C 699.074219 861.0625 703.96875 863.992188 709.042969 866.691406 C 712.835938 868.707031 716.726562 870.355469 720.214844 873.117188 C 729.347656 880.355469 738.96875 886.972656 748.28125 893.988281 C 751.800781 896.636719 754.972656 899.746094 758.375 902.558594 C 760.5625 904.371094 762.710938 906.332031 765.175781 907.679688 C 769.050781 909.796875 773.511719 911 775.414062 915.640625 C 775.613281 916.128906 776.207031 916.464844 776.644531 916.839844 C 781.125 920.664062 784.960938 925.253906 790.171875 928.222656 C 790.886719 928.632812 791.292969 929.546875 791.914062 930.148438 C 795.949219 934.074219 800.003906 937.980469 804.074219 941.871094 C 804.371094 942.160156 804.828125 942.324219 805.238281 942.445312 C 810.296875 943.941406 814.746094 946.03125 818.421875 950.28125 C 822.808594 955.351562 829.675781 957.796875 833.699219 963.503906 C 834.324219 964.390625 835.492188 964.953125 836.496094 965.507812 C 841.40625 968.222656 846.363281 970.851562 851.253906 973.597656 C 851.945312 973.984375 852.359375 974.859375 852.917969 975.496094 C 857.511719 980.695312 862.800781 984.699219 869.953125 985.648438 C 871.046875 985.792969 872.570312 986.128906 873.046875 986.898438 C 874.796875 989.734375 877.492188 990.328125 880.414062 990.9375 C 882.375 991.347656 884.269531 992.242188 886.101562 993.109375 C 893.324219 996.535156 900.902344 998.703125 908.804688 999.84375 C 911.785156 1000.277344 915.472656 999.964844 917.539062 1001.613281 C 920.578125 1004.039062 924.023438 1003.714844 927.167969 1004.90625 C 928.359375 1005.355469 929.636719 1005.726562 930.898438 1005.816406 C 935.582031 1006.140625 940.289062 1006.265625 944.625 1008.429688 C 944.847656 1008.539062 945.195312 1008.386719 945.488281 1008.378906 C 949.605469 1008.292969 953.726562 1008.199219 957.847656 1008.148438 C 958.414062 1008.140625 959.050781 1008.226562 959.550781 1008.480469 C 964.824219 1011.121094 970.285156 1012.550781 976.269531 1011.679688 C 977.601562 1011.484375 979.0625 1012.164062 980.464844 1012.460938 C 982.296875 1012.847656 984.121094 1013.570312 985.957031 1013.582031 C 989.996094 1013.609375 994.042969 1013.066406 998.078125 1013.164062 C 1001.636719 1013.25 1005.492188 1013.175781 1008.632812 1014.527344 C 1010.988281 1015.539062 1013.128906 1016.546875 1015.570312 1016.160156 C 1019.546875 1015.535156 1023.4375 1015.695312 1027.421875 1016.171875 C 1033.320312 1016.886719 1039.273438 1017.140625 1045.191406 1017.699219 C 1048.054688 1017.96875 1050.933594 1018.308594 1053.742188 1018.917969 C 1059.5625 1020.183594 1065.265625 1021.035156 1071.203125 1019.160156 C 1076.542969 1017.472656 1081.9375 1015.714844 1087.765625 1016.765625 C 1091.160156 1017.375 1094.652344 1017.859375 1098.082031 1017.757812 C 1103.960938 1017.585938 1109.792969 1016.042969 1115.726562 1017.328125 C 1116.539062 1017.503906 1117.449219 1017.328125 1118.300781 1017.203125 C 1121.929688 1016.667969 1125.425781 1016.640625 1128.9375 1018.222656 C 1131.035156 1019.164062 1133.496094 1019.300781 1135.859375 1019.816406 C 1137.621094 1010.867188 1140.996094 1002.847656 1147.046875 995.851562 Z M 330.917969 967.5 C 329.886719 963.375 328.527344 959.167969 327.828125 954.855469 C 326.757812 948.28125 329.628906 941.371094 326.261719 934.929688 C 326.105469 934.628906 326.46875 934.09375 326.449219 933.675781 C 326.347656 931.707031 326.371094 929.707031 326.023438 927.777344 C 325.417969 924.429688 324.542969 921.605469 327.582031 918.351562 C 330.039062 915.722656 331.597656 911.492188 331.9375 907.820312 C 332.441406 902.3125 333.9375 897.453125 336.582031 892.667969 C 338.65625 888.917969 341.265625 884.8125 341.398438 880.789062 C 341.578125 875.230469 344.3125 870.695312 346.355469 866.320312 C 348.914062 860.847656 350.148438 855.960938 348.859375 850.21875 C 348.261719 847.5625 348.394531 844.976562 348.855469 842.175781 C 349.359375 839.101562 348.484375 835.617188 347.484375 832.554688 C 346.976562 831.003906 344.859375 829.980469 343.472656 828.722656 C 341.671875 830.980469 340.042969 831.972656 338.628906 833.207031 C 332.707031 838.371094 324.292969 839.359375 319.21875 846.585938 C 315.25 852.234375 309.542969 856.796875 305.621094 862.78125 C 302.542969 867.480469 299 871.875 295.714844 876.441406 C 290.019531 884.359375 289.148438 894.59375 283.28125 902.441406 C 282.863281 902.996094 282.71875 903.78125 282.542969 904.484375 C 280.140625 913.953125 277.574219 923.386719 275.4375 932.917969 C 274.148438 938.667969 272.5 944.453125 274.082031 950.539062 C 274.53125 952.261719 273.839844 954.277344 273.722656 956.160156 C 273.550781 958.917969 273.402344 961.671875 273.285156 964.429688 C 273.121094 968.320312 273.136719 972.222656 272.808594 976.09375 C 272.519531 979.527344 271.503906 982.867188 272.75 986.375 C 273.195312 987.625 272.585938 989.230469 272.523438 990.679688 C 272.449219 992.515625 272.410156 994.355469 272.417969 996.191406 C 272.421875 997.789062 272.632812 999.390625 272.542969 1000.980469 C 272.101562 1009.03125 271.421875 1017.074219 271.203125 1025.132812 C 271.128906 1027.917969 272.097656 1030.746094 272.667969 1033.539062 C 273.527344 1037.773438 274.449219 1042 275.359375 1046.226562 C 276.492188 1051.492188 276.558594 1057.132812 280.566406 1061.734375 C 282.367188 1059.53125 284.261719 1057.691406 285.574219 1055.503906 C 288.089844 1051.308594 290.949219 1047.136719 292.453125 1042.554688 C 295.308594 1033.855469 297.539062 1024.992188 300.710938 1016.332031 C 304.40625 1006.25 310.570312 997.621094 315.042969 988.050781 C 316 986.003906 317.683594 984.285156 319.105469 982.472656 C 321.609375 979.273438 324.171875 976.125 326.695312 972.941406 C 328.027344 971.257812 329.328125 969.550781 330.917969 967.5 Z M 514.394531 504.484375 C 514.171875 504.238281 513.949219 503.992188 513.726562 503.746094 C 508.832031 506.683594 503.800781 509.421875 499.097656 512.640625 C 496.40625 514.484375 494.121094 516.996094 491.882812 519.414062 C 487.957031 523.660156 484.332031 528.183594 480.335938 532.359375 C 478.085938 534.714844 475.367188 535.96875 471.703125 534.996094 C 468.472656 534.140625 465.199219 534.429688 463.066406 537.992188 C 461.296875 540.941406 458.683594 543.414062 457.109375 546.445312 C 455.0625 550.390625 452.289062 554.691406 452.332031 558.8125 C 452.398438 565.054688 454.238281 571.394531 456.109375 577.453125 C 456.933594 580.128906 459.253906 582.675781 463.15625 582.054688 C 464.96875 581.761719 466.90625 582.308594 468.792969 582.40625 C 474.089844 582.6875 476.710938 585.578125 477.167969 590.910156 C 477.878906 599.238281 477.628906 607.59375 480.144531 615.84375 C 481.960938 621.800781 483.609375 627.382812 488.628906 631.425781 C 492.324219 634.402344 495.710938 638.304688 501.105469 634.65625 C 501.4375 634.4375 501.976562 634.308594 502.351562 634.40625 C 505.367188 635.164062 507.3125 633.183594 509.296875 631.585938 C 514.011719 627.792969 518.597656 623.835938 523.265625 619.980469 C 524.039062 619.34375 524.976562 618.910156 525.8125 618.339844 C 526.519531 617.863281 527.324219 617.4375 527.847656 616.792969 C 529.652344 614.558594 531.425781 612.292969 533.074219 609.941406 C 534.886719 607.363281 536.632812 604.726562 538.253906 602.023438 C 541.65625 596.34375 543.386719 589.632812 548.855469 585.195312 C 549.71875 584.496094 550.027344 582.90625 550.242188 581.667969 C 550.472656 580.332031 550.292969 578.921875 550.292969 577.59375 C 545.394531 575.589844 545.289062 575.425781 545.210938 569.769531 C 542.046875 568.605469 537.371094 571.414062 535.351562 566.003906 C 541.78125 559.703125 549.394531 559.6875 557.398438 561.847656 C 560.621094 557.277344 564.082031 553.066406 565.6875 547.679688 C 562.769531 546.867188 560.085938 546.582031 557.875 545.40625 C 553.371094 543.011719 547.746094 542.703125 544.328125 538.222656 C 543.984375 537.769531 542.996094 537.804688 542.308594 537.613281 C 534.820312 535.511719 528.46875 531.128906 521.878906 527.273438 C 519.890625 526.109375 518.292969 524.816406 515.722656 524.554688 C 510.066406 523.972656 507.214844 516.078125 510.527344 511.46875 C 512.066406 509.320312 513.121094 506.824219 514.394531 504.484375 Z M 1297.34375 1021.921875 C 1296.054688 1021.121094 1294.496094 1020.636719 1293.742188 1019.578125 C 1292.214844 1017.441406 1290.578125 1017.683594 1288.425781 1018.257812 C 1285.777344 1018.96875 1283.023438 1019.304688 1280.292969 1019.640625 C 1275.5625 1020.21875 1270.789062 1020.5 1266.078125 1021.222656 C 1259.808594 1022.1875 1253.578125 1024.257812 1247.441406 1020.605469 C 1246.660156 1020.140625 1245.457031 1020.328125 1244.445312 1020.3125 C 1242.425781 1020.285156 1239.414062 1021.679688 1239.171875 1018.457031 C 1238.949219 1015.480469 1242.34375 1016.25 1244.175781 1015.425781 C 1244.433594 1015.308594 1244.742188 1015.285156 1245.027344 1015.269531 C 1251.726562 1014.890625 1258.484375 1014.960938 1265.105469 1014.039062 C 1274.566406 1012.722656 1283.898438 1010.53125 1293.5625 1011.011719 C 1295.070312 1011.085938 1296.632812 1010.140625 1298.167969 1009.667969 C 1298.453125 1009.082031 1298.738281 1008.492188 1299.019531 1007.902344 C 1297.882812 1007.289062 1296.660156 1006.035156 1295.617188 1006.167969 C 1291.667969 1006.679688 1287.710938 1005.542969 1283.726562 1006.875 C 1278.703125 1008.550781 1273.519531 1009.894531 1268.300781 1010.777344 C 1262.605469 1011.738281 1256.804688 1012.1875 1251.03125 1012.515625 C 1246.207031 1012.789062 1241.355469 1012.570312 1236.179688 1012.570312 C 1237.113281 1009.613281 1239.230469 1009.8125 1240.953125 1009.457031 C 1244.082031 1008.8125 1247.292969 1008.5 1250.359375 1007.660156 C 1258.972656 1005.308594 1267.519531 1002.71875 1276.117188 1000.308594 C 1278.070312 999.761719 1280.144531 999.148438 1282.113281 999.285156 C 1286.234375 999.574219 1288.765625 997.226562 1291.453125 994.816406 C 1288.886719 994.988281 1286.464844 995.472656 1284.109375 995.253906 C 1277.441406 994.625 1270.984375 994.855469 1264.65625 997.5 C 1262.050781 998.589844 1259.070312 998.996094 1256.222656 999.234375 C 1250.453125 999.71875 1244.660156 999.984375 1238.871094 1000.144531 C 1232.125 1000.328125 1225.371094 1000.414062 1218.625 1000.273438 C 1217.183594 1000.246094 1215.507812 999.359375 1214.386719 998.367188 C 1211.582031 995.875 1212.003906 993.542969 1215.445312 992.042969 C 1217.824219 991.007812 1220.28125 989.960938 1222.808594 989.46875 C 1229.257812 988.207031 1233.816406 983.269531 1239.769531 981.046875 C 1241.050781 980.570312 1242.839844 979.164062 1241.492188 976.851562 C 1238.441406 977.511719 1235.457031 977.96875 1232.597656 978.835938 C 1230.144531 979.582031 1227.910156 981.359375 1225.441406 981.695312 C 1220.335938 982.390625 1215.640625 983.988281 1210.996094 986.113281 C 1209.121094 986.96875 1206.429688 986.316406 1204.8125 987.398438 C 1202.464844 988.96875 1200.101562 989.570312 1197.472656 989.613281 C 1194.757812 989.65625 1191.992188 989.164062 1189.328125 989.511719 C 1182.789062 990.355469 1176.277344 991.453125 1169.800781 992.679688 C 1168.597656 992.90625 1167.136719 993.972656 1166.589844 995.054688 C 1164.699219 998.796875 1162.730469 1002.589844 1161.574219 1006.59375 C 1159.4375 1013.996094 1156.613281 1021.039062 1151.910156 1028.511719 C 1155.636719 1028.511719 1158.628906 1028.722656 1161.582031 1028.472656 C 1170.472656 1027.714844 1179.160156 1028.195312 1187.621094 1031.410156 C 1189.351562 1032.066406 1191.476562 1031.777344 1193.417969 1031.742188 C 1197.410156 1031.671875 1201.320312 1030.84375 1205.355469 1032.453125 C 1207.90625 1033.472656 1211.242188 1034.058594 1213.757812 1033.292969 C 1218.636719 1031.808594 1223.328125 1033.648438 1228.148438 1033 C 1232.753906 1032.382812 1237.546875 1033.027344 1242.25 1033.277344 C 1248.933594 1033.636719 1255.769531 1033.414062 1262.25 1034.796875 C 1268.15625 1036.058594 1273.132812 1033.53125 1278.589844 1033.148438 C 1275.304688 1032.503906 1272.035156 1032.238281 1268.757812 1032.117188 C 1264.132812 1031.945312 1259.484375 1032.121094 1254.886719 1031.710938 C 1249.386719 1031.21875 1243.96875 1030.15625 1239.082031 1026.324219 C 1247.773438 1025.433594 1255.929688 1024.527344 1264.101562 1023.785156 C 1269.125 1023.328125 1274.175781 1022.832031 1279.207031 1022.90625 C 1282.804688 1022.960938 1286.421875 1023.773438 1289.960938 1024.546875 C 1293.078125 1025.230469 1295.308594 1024.128906 1297.34375 1021.921875 Z M 469.601562 635.125 C 467.296875 640.449219 464.605469 646.144531 462.347656 652.007812 C 460.191406 657.605469 457.929688 663.042969 453.511719 667.320312 C 451.988281 668.796875 452.359375 670.289062 453.707031 671.910156 C 455.542969 674.121094 457.070312 676.582031 458.753906 678.917969 C 460.484375 681.328125 462.359375 683.644531 463.96875 686.128906 C 467.734375 691.933594 470.574219 698.605469 475.300781 703.441406 C 479.863281 708.113281 483.699219 713.175781 487.617188 718.394531 C 490.023438 716.777344 491.308594 714.664062 492.097656 711.816406 C 493.40625 707.089844 495.816406 702.644531 496.898438 697.882812 C 498.261719 691.875 498.761719 685.667969 499.628906 679.546875 C 500.050781 676.582031 501.664062 673.078125 500.628906 670.765625 C 498.425781 665.855469 499.726562 661.386719 500.527344 656.78125 C 501.136719 653.273438 501.03125 652.835938 497.292969 652.652344 C 491.203125 652.351562 485.472656 650.882812 480.921875 646.644531 C 476.824219 642.824219 473.046875 638.65625 469.601562 635.125 Z M 442.898438 681.296875 C 439.90625 682.238281 437.640625 683.128906 435.289062 683.644531 C 431.535156 684.472656 429.460938 686.71875 427.933594 690.21875 C 424.007812 699.214844 427.019531 707.753906 429.105469 716.390625 C 429.226562 716.90625 429.761719 717.332031 430.140625 717.769531 C 432.402344 720.367188 434.296875 723.503906 437.039062 725.414062 C 440.464844 727.792969 443.96875 730.125 449.054688 728.820312 C 455.710938 727.113281 462.707031 726.757812 469.535156 725.675781 C 470.984375 725.445312 472.335938 724.578125 473.730469 724.007812 C 473.0625 722.640625 472.6875 720.988281 471.679688 719.957031 C 468.945312 717.167969 465.566406 714.945312 463.136719 711.9375 C 458.773438 706.535156 454.742188 700.84375 450.902344 695.054688 C 447.953125 690.613281 445.511719 685.835938 442.898438 681.296875 Z M 516.285156 676.757812 C 512.765625 692.375 509.382812 707.371094 505.941406 722.625 C 511.300781 726.011719 516.964844 723.269531 522.183594 721.582031 C 528.066406 719.679688 531.347656 714.164062 532.75 708.53125 C 534.230469 702.605469 534.742188 696.175781 529.566406 691.117188 C 528.855469 690.421875 528.160156 689.5 527.925781 688.566406 C 526.457031 682.671875 521.503906 680.273438 516.285156 676.757812 Z M 516.285156 676.757812 " fill-opacity="1" fill-rule="nonzero"/></g><path fill="#000000" d="M 509.777344 555.53125 C 507.734375 555.53125 505.496094 555.375 503.296875 555.585938 C 501.625 555.746094 499.625 556.140625 499.496094 554.09375 C 499.410156 552.726562 500.574219 550.738281 501.78125 549.957031 C 503.796875 548.652344 506.234375 547.613281 508.601562 547.316406 C 513.875 546.65625 519.289062 545.941406 523.800781 550.097656 C 525.835938 551.972656 527.394531 554.042969 526.851562 556.875 C 526.214844 560.199219 522.710938 563.234375 519.601562 563.582031 C 514.074219 564.203125 511.339844 562.101562 509.777344 555.53125 Z M 509.777344 555.53125 " fill-opacity="1" fill-rule="nonzero"/><path fill="#000000" d="M 513.332031 616.96875 C 507.492188 616.363281 501.960938 615.273438 497.824219 610.382812 C 494.964844 606.996094 493.808594 599.515625 496.109375 595.816406 C 497.484375 593.613281 498.875 593.359375 500.515625 595.296875 C 501.617188 596.597656 502.558594 598.121094 503.207031 599.695312 C 504.492188 602.820312 506.4375 605.070312 509.785156 606.015625 C 511.589844 606.523438 513.308594 607.3125 515.105469 607.859375 C 517.582031 608.609375 519.347656 609.960938 518.929688 612.785156 C 518.488281 615.804688 516.636719 617.066406 513.332031 616.96875 Z M 513.332031 616.96875 " fill-opacity="1" fill-rule="nonzero"/><path fill="#000000" d="M 517.195312 584.789062 C 522.347656 586.726562 527.121094 588.53125 531.898438 590.320312 C 533.777344 591.019531 535.96875 591.339844 535.636719 594.222656 C 535.324219 596.914062 533.613281 598.050781 531.203125 598.125 C 527.503906 598.242188 523.964844 598.644531 520.488281 595.949219 C 516.917969 593.183594 516.839844 589.621094 516.328125 585.972656 C 516.261719 585.503906 517.105469 584.910156 517.195312 584.789062 Z M 517.195312 584.789062 " fill-opacity="1" fill-rule="nonzero"/></svg>