<svg xmlns="http://www.w3.org/2000/svg" xmlns:xlink="http://www.w3.org/1999/xlink" width="2000" zoomAndPan="magnify" viewBox="0 0 1500 1499.999933" height="2000" preserveAspectRatio="xMidYMid meet" version="1.0"><path fill="#000000" d="M 1494.164062 826.488281 C 1488.683594 878.625 1431.667969 919.746094 1346.554688 942.109375 C 1402.269531 1010.226562 1424.226562 1077.011719 1398.011719 1122.410156 C 1371.800781 1167.808594 1302.988281 1182.1875 1216.140625 1167.996094 C 1239.328125 1252.886719 1232.222656 1322.828125 1189.8125 1353.636719 C 1147.402344 1384.453125 1078.691406 1369.597656 1005.121094 1321.308594 C 991.78125 1408.292969 956.839844 1469.296875 905.566406 1480.195312 C 854.289062 1491.09375 797.558594 1449.574219 749.988281 1375.539062 C 702.421875 1449.574219 645.691406 1491.09375 594.414062 1480.195312 C 543.140625 1469.296875 508.203125 1408.292969 494.855469 1321.308594 C 421.289062 1369.597656 352.578125 1384.453125 310.164062 1353.636719 C 267.753906 1322.828125 260.648438 1252.886719 283.839844 1167.996094 C 196.992188 1182.1875 128.175781 1167.808594 101.964844 1122.410156 C 75.753906 1077.011719 97.710938 1010.226562 153.421875 942.109375 C 68.3125 919.746094 11.296875 878.625 5.816406 826.488281 C 0.335938 774.355469 47.558594 722.277344 126.160156 682.707031 C 57.5 627.65625 22.140625 566.902344 38.339844 517.042969 C 54.539062 467.1875 118.859375 438.816406 206.761719 434.640625 C 166.429688 356.425781 158.835938 286.539062 193.914062 247.582031 C 228.992188 208.625 299.289062 208.867188 381.289062 240.804688 C 376.257812 152.945312 397.75 86.011719 445.640625 64.691406 C 493.527344 43.371094 557.648438 72.1875 619.574219 134.714844 C 650.710938 52.40625 697.566406 0 749.988281 0 C 802.410156 0 849.269531 52.40625 880.40625 134.714844 C 942.328125 72.1875 1006.449219 43.371094 1054.339844 64.691406 C 1102.230469 86.011719 1123.722656 152.945312 1118.6875 240.804688 C 1200.691406 208.867188 1270.988281 208.625 1306.066406 247.582031 C 1341.140625 286.539062 1333.550781 356.425781 1293.21875 434.640625 C 1381.121094 438.816406 1445.441406 467.1875 1461.640625 517.042969 C 1477.839844 566.902344 1442.476562 627.65625 1373.820312 682.707031 C 1452.421875 722.277344 1499.644531 774.355469 1494.164062 826.488281 Z M 1494.164062 826.488281 " fill-opacity="1" fill-rule="nonzero"/></svg>