<svg xmlns="http://www.w3.org/2000/svg" xmlns:xlink="http://www.w3.org/1999/xlink" width="2000" zoomAndPan="magnify" viewBox="0 0 1500 1499.999933" height="2000" preserveAspectRatio="xMidYMid meet" version="1.0"><path fill="#000000" d="M 751.691406 743.949219 C -203.21875 -180.511719 -203.21875 1668.410156 751.691406 743.949219 Z M 751.691406 743.949219 " fill-opacity="1" fill-rule="nonzero"/><path fill="#000000" d="M 752.078125 744.335938 C -172.378906 1699.246094 1676.539062 1699.246094 752.078125 744.335938 Z M 752.078125 744.335938 " fill-opacity="1" fill-rule="nonzero"/><path fill="#000000" d="M 752.078125 743.5625 C 1676.539062 -211.347656 -172.378906 -211.347656 752.078125 743.5625 Z M 752.078125 743.5625 " fill-opacity="1" fill-rule="nonzero"/><path fill="#000000" d="M 752.464844 743.949219 C 1707.375 1668.410156 1707.375 -180.511719 752.464844 743.949219 Z M 752.464844 743.949219 " fill-opacity="1" fill-rule="nonzero"/><path fill="#000000" d="M 775.574219 720.453125 C 767.679688 728.347656 759.851562 736.046875 752.085938 743.570312 C 752.085938 743.570312 752.082031 743.566406 752.078125 743.5625 C 752.074219 743.566406 752.074219 743.570312 752.070312 743.570312 C 744.304688 736.046875 736.476562 728.347656 728.585938 720.453125 C 736.476562 728.347656 744.175781 736.175781 751.699219 743.941406 C 751.699219 743.945312 751.695312 743.945312 751.691406 743.949219 C 751.695312 743.953125 751.699219 743.953125 751.699219 743.957031 C 744.175781 751.722656 736.476562 759.550781 728.585938 767.445312 C 736.476562 759.550781 744.304688 751.851562 752.070312 744.328125 C 752.074219 744.328125 752.074219 744.332031 752.078125 744.335938 C 752.082031 744.332031 752.085938 744.328125 752.085938 744.328125 C 759.851562 751.851562 767.679688 759.550781 775.574219 767.445312 C 767.679688 759.550781 759.980469 751.722656 752.457031 743.957031 C 752.460938 743.953125 752.464844 743.953125 752.464844 743.949219 C 752.460938 743.945312 752.460938 743.945312 752.457031 743.941406 C 759.980469 736.175781 767.679688 728.347656 775.574219 720.453125 Z M 775.574219 720.453125 " fill-opacity="1" fill-rule="nonzero"/></svg>