<svg xmlns="http://www.w3.org/2000/svg" xmlns:xlink="http://www.w3.org/1999/xlink" width="2000" zoomAndPan="magnify" viewBox="0 0 1500 1499.999933" height="2000" preserveAspectRatio="xMidYMid meet" version="1.0"><defs><g/><clipPath id="4f70b7ef7d"><path d="M 63.945312 534.75 L 1435.695312 534.75 L 1435.695312 965.25 L 63.945312 965.25 Z M 63.945312 534.75 " clip-rule="nonzero"/></clipPath><clipPath id="6252aa7d5a"><path d="M 63.945312 534.75 L 1435.695312 534.75 L 1435.695312 965.25 L 63.945312 965.25 Z M 63.945312 534.75 " clip-rule="nonzero"/></clipPath></defs><path fill="#c87151" d="M 1432.15625 787.441406 C 1432.15625 883.457031 1366.558594 961.269531 1285.664062 961.269531 C 1241.664062 961.269531 1202.171875 938.253906 1175.332031 901.785156 C 1148.488281 938.253906 1108.996094 961.269531 1065 961.269531 C 1026.25 961.269531 991.015625 943.4375 964.914062 914.25 C 938.75 943.4375 903.574219 961.269531 864.761719 961.269531 C 825.269531 961.269531 789.417969 942.757812 763.132812 912.582031 C 736.84375 942.757812 700.992188 961.269531 661.5 961.269531 C 617.441406 961.269531 577.949219 938.191406 551.167969 901.722656 C 524.328125 938.191406 484.832031 961.269531 440.777344 961.269531 C 402.085938 961.269531 366.851562 943.4375 340.6875 914.3125 C 314.523438 943.4375 279.289062 961.269531 240.601562 961.269531 C 159.703125 961.269531 94.109375 883.457031 94.109375 787.441406 C 94.109375 691.425781 159.699219 613.675781 240.597656 613.675781 C 279.289062 613.675781 314.523438 631.511719 340.6875 660.636719 C 366.847656 631.511719 402.082031 613.675781 440.773438 613.675781 C 484.832031 613.675781 524.324219 636.753906 551.167969 673.222656 C 577.949219 636.753906 617.441406 613.675781 661.5 613.675781 C 700.988281 613.675781 736.839844 632.1875 763.128906 662.363281 C 789.417969 632.1875 825.269531 613.675781 864.761719 613.675781 C 903.574219 613.675781 938.746094 631.511719 964.910156 660.699219 C 991.011719 631.511719 1026.246094 613.675781 1065 613.675781 C 1108.996094 613.675781 1148.488281 636.691406 1175.328125 673.160156 C 1202.171875 636.691406 1241.664062 613.675781 1285.660156 613.675781 C 1366.558594 613.675781 1432.152344 691.488281 1432.152344 787.441406 Z M 1432.15625 787.441406 " fill-opacity="1" fill-rule="nonzero"/><g clip-path="url(#4f70b7ef7d)"><path stroke-linecap="butt" transform="matrix(1.954839, 0, 0, 1.954839, 63.946984, 534.767166)" fill="none" stroke-linejoin="miter" d="M 699.908978 129.25579 C 699.908978 178.37269 666.352424 218.177761 624.970736 218.177761 C 602.462487 218.177761 582.260214 206.404093 568.530262 187.748463 C 554.798312 206.404093 534.596039 218.177761 512.089789 218.177761 C 492.267183 218.177761 474.242999 209.055766 460.890715 194.124868 C 447.50646 209.055766 429.51225 218.177761 409.657672 218.177761 C 389.455399 218.177761 371.115493 208.708071 357.669292 193.271616 C 344.221092 208.708071 325.881185 218.177761 305.678913 218.177761 C 283.14069 218.177761 262.938417 206.372121 249.238439 187.716491 C 235.508487 206.372121 215.304216 218.177761 192.767992 218.177761 C 172.975359 218.177761 154.951176 209.055766 141.56692 194.15684 C 128.182665 209.055766 110.158481 218.177761 90.367847 218.177761 C 48.984161 218.177761 15.429605 178.37269 15.429605 129.25579 C 15.429605 80.13889 48.982163 40.36579 90.365849 40.36579 C 110.158481 40.36579 128.182665 49.489784 141.56692 64.38871 C 154.949177 49.489784 172.973361 40.36579 192.765993 40.36579 C 215.304216 40.36579 235.506489 52.171431 249.238439 70.827061 C 262.938417 52.171431 283.14069 40.36579 305.678913 40.36579 C 325.879187 40.36579 344.219094 49.835481 357.667293 65.271935 C 371.115493 49.835481 389.455399 40.36579 409.657672 40.36579 C 429.51225 40.36579 447.504462 49.489784 460.888717 64.420682 C 474.241001 49.489784 492.265184 40.36579 512.089789 40.36579 C 534.596039 40.36579 554.798312 52.139459 568.528264 70.795089 C 582.260214 52.139459 602.462487 40.36579 624.968738 40.36579 C 666.352424 40.36579 699.90698 80.170862 699.90698 129.25579 Z M 699.908978 129.25579 " stroke="#000000" stroke-width="4" stroke-opacity="1" stroke-miterlimit="10"/></g><path fill="#fff7ee" d="M 1405.90625 712.441406 C 1405.90625 808.457031 1340.308594 886.269531 1259.414062 886.269531 C 1215.414062 886.269531 1175.925781 863.253906 1149.082031 826.785156 C 1122.238281 863.253906 1082.746094 886.269531 1038.75 886.269531 C 1000 886.269531 964.765625 868.4375 938.664062 839.25 C 912.5 868.4375 877.324219 886.269531 838.511719 886.269531 C 799.019531 886.269531 763.167969 867.757812 736.882812 837.582031 C 710.597656 867.757812 674.746094 886.269531 635.25 886.269531 C 591.191406 886.269531 551.699219 863.191406 524.917969 826.722656 C 498.078125 863.195312 458.582031 886.269531 414.527344 886.269531 C 375.835938 886.269531 340.601562 868.4375 314.4375 839.3125 C 288.273438 868.4375 253.039062 886.269531 214.351562 886.269531 C 133.453125 886.269531 67.855469 808.457031 67.855469 712.441406 C 67.855469 616.425781 133.453125 538.675781 214.347656 538.675781 C 253.039062 538.675781 288.273438 556.511719 314.4375 585.636719 C 340.601562 556.511719 375.832031 538.675781 414.523438 538.675781 C 458.582031 538.675781 498.074219 561.753906 524.917969 598.222656 C 551.699219 561.753906 591.191406 538.675781 635.25 538.675781 C 674.742188 538.675781 710.59375 557.1875 736.878906 587.363281 C 763.167969 557.1875 799.019531 538.675781 838.511719 538.675781 C 877.324219 538.675781 912.496094 556.511719 938.660156 585.699219 C 964.761719 556.511719 1000 538.675781 1038.75 538.675781 C 1082.746094 538.675781 1122.238281 561.691406 1149.078125 598.164062 C 1175.921875 561.691406 1215.414062 538.675781 1259.410156 538.675781 C 1340.308594 538.675781 1405.902344 616.488281 1405.902344 712.441406 Z M 1405.90625 712.441406 " fill-opacity="1" fill-rule="nonzero"/><g clip-path="url(#6252aa7d5a)"><path stroke-linecap="butt" transform="matrix(1.954839, 0, 0, 1.954839, 63.946984, 534.767166)" fill="none" stroke-linejoin="miter" d="M 686.480761 90.889456 C 686.480761 140.006356 652.924207 179.811428 611.542519 179.811428 C 589.03427 179.811428 568.833996 168.037759 555.102046 149.382129 C 541.370095 168.037759 521.167823 179.811428 498.661572 179.811428 C 478.838966 179.811428 460.814782 170.689432 447.462499 155.758534 C 434.078243 170.689432 416.084033 179.811428 396.229455 179.811428 C 376.027183 179.811428 357.687276 170.341737 344.241075 154.905283 C 330.794874 170.341737 312.454967 179.811428 292.250696 179.811428 C 269.712473 179.811428 249.510201 168.005787 235.810222 149.350157 C 222.08027 168.007785 201.875999 179.811428 179.339775 179.811428 C 159.547143 179.811428 141.522959 170.689432 128.138703 155.790506 C 114.754448 170.689432 96.730264 179.811428 76.93963 179.811428 C 35.555944 179.811428 1.99939 140.006356 1.99939 90.889456 C 1.99939 41.772556 35.555944 1.999457 76.937632 1.999457 C 96.730264 1.999457 114.754448 11.12345 128.138703 26.022377 C 141.522959 11.12345 159.545144 1.999457 179.337776 1.999457 C 201.875999 1.999457 222.078272 13.805097 235.810222 32.460727 C 249.510201 13.805097 269.712473 1.999457 292.250696 1.999457 C 312.452969 1.999457 330.792875 11.469147 344.239077 26.905602 C 357.687276 11.469147 376.027183 1.999457 396.229455 1.999457 C 416.084033 1.999457 434.076245 11.12345 447.4605 26.054349 C 460.812784 11.12345 478.838966 1.999457 498.661572 1.999457 C 521.167823 1.999457 541.370095 13.773125 555.100047 32.430753 C 568.831998 13.773125 589.03427 1.999457 611.540521 1.999457 C 652.924207 1.999457 686.478763 41.804528 686.478763 90.889456 Z M 686.480761 90.889456 " stroke="#231f20" stroke-width="4" stroke-opacity="1" stroke-miterlimit="10"/></g><g fill="#473c33" fill-opacity="1"><g transform="translate(278.894776, 760.395083)"><g><path d="M 35.46875 -17 C 35.46875 -14.394531 35.957031 -12.523438 36.9375 -11.390625 C 37.914062 -10.253906 39.648438 -9.6875 42.140625 -9.6875 C 45.015625 -9.6875 49.140625 -10.582031 54.515625 -12.375 L 52.484375 -4.46875 C 43.046875 -0.0195312 34.828125 2.203125 27.828125 2.203125 C 21.753906 2.203125 16.925781 0.667969 13.34375 -2.390625 C 9.757812 -5.460938 7.96875 -9.765625 7.96875 -15.296875 C 7.96875 -17.953125 8.59375 -22.238281 9.84375 -28.15625 L 27.34375 -103.65625 C 27.769531 -105.664062 27.984375 -107.210938 27.984375 -108.296875 C 27.984375 -110.472656 27.617188 -112.195312 26.890625 -113.46875 C 26.160156 -114.738281 24.976562 -115.6875 23.34375 -116.3125 C 21.71875 -116.9375 18.984375 -117.382812 15.140625 -117.65625 L 16.84375 -123.84375 L 58.34375 -125.953125 L 59.15625 -124.65625 L 37.515625 -29.859375 C 36.148438 -24.109375 35.46875 -19.820312 35.46875 -17 Z M 35.46875 -17 "/></g></g></g><g fill="#473c33" fill-opacity="1"><g transform="translate(334.550136, 760.395083)"><g><path d="M 72.828125 1.46875 C 62.410156 1.46875 55.679688 -2.359375 52.640625 -10.015625 L 52.15625 -10.015625 C 47.8125 -5.503906 43.78125 -2.285156 40.0625 -0.359375 C 36.351562 1.554688 32.707031 2.515625 29.125 2.515625 C 21.53125 2.515625 15.601562 -0.03125 11.34375 -5.125 C 7.09375 -10.226562 4.96875 -17.6875 4.96875 -27.5 C 4.96875 -37.375 6.929688 -46.554688 10.859375 -55.046875 C 14.796875 -63.535156 20.191406 -70.234375 27.046875 -75.140625 C 33.910156 -80.046875 41.332031 -82.5 49.3125 -82.5 C 52.882812 -82.5 56.269531 -81.914062 59.46875 -80.75 C 62.675781 -79.59375 65.175781 -78.0625 66.96875 -76.15625 L 91.78125 -81.28125 L 93.171875 -79.828125 L 81.6875 -30.34375 C 80.332031 -25.25 79.65625 -20.910156 79.65625 -17.328125 C 79.65625 -14.835938 80.171875 -12.992188 81.203125 -11.796875 C 82.234375 -10.609375 84.101562 -10.015625 86.8125 -10.015625 C 88.28125 -10.015625 90.015625 -10.269531 92.015625 -10.78125 C 94.023438 -11.289062 95.628906 -11.875 96.828125 -12.53125 L 95.28125 -4.640625 C 86.925781 -0.566406 79.441406 1.46875 72.828125 1.46875 Z M 62.328125 -63.953125 C 62.328125 -66.941406 61.648438 -69.476562 60.296875 -71.5625 C 58.941406 -73.65625 57.066406 -74.703125 54.671875 -74.703125 C 51.691406 -74.703125 48.671875 -72.378906 45.609375 -67.734375 C 42.546875 -63.097656 39.898438 -56.765625 37.671875 -48.734375 C 35.453125 -40.710938 34.34375 -33.472656 34.34375 -27.015625 C 34.34375 -21.753906 34.882812 -17.628906 35.96875 -14.640625 C 37.050781 -11.660156 39.054688 -10.171875 41.984375 -10.171875 C 44.859375 -10.171875 48.140625 -12.554688 51.828125 -17.328125 Z M 62.328125 -63.953125 "/></g></g></g><g fill="#473c33" fill-opacity="1"><g transform="translate(433.899836, 760.395083)"><g><path d="M 72.828125 1.46875 C 62.410156 1.46875 55.679688 -2.359375 52.640625 -10.015625 L 52.15625 -10.015625 C 47.8125 -5.503906 43.78125 -2.285156 40.0625 -0.359375 C 36.351562 1.554688 32.707031 2.515625 29.125 2.515625 C 21.53125 2.515625 15.601562 -0.03125 11.34375 -5.125 C 7.09375 -10.226562 4.96875 -17.6875 4.96875 -27.5 C 4.96875 -37.375 6.929688 -46.554688 10.859375 -55.046875 C 14.796875 -63.535156 20.191406 -70.234375 27.046875 -75.140625 C 33.910156 -80.046875 41.332031 -82.5 49.3125 -82.5 C 52.882812 -82.5 56.269531 -81.914062 59.46875 -80.75 C 62.675781 -79.59375 65.175781 -78.0625 66.96875 -76.15625 L 91.78125 -81.28125 L 93.171875 -79.828125 L 81.6875 -30.34375 C 80.332031 -25.25 79.65625 -20.910156 79.65625 -17.328125 C 79.65625 -14.835938 80.171875 -12.992188 81.203125 -11.796875 C 82.234375 -10.609375 84.101562 -10.015625 86.8125 -10.015625 C 88.28125 -10.015625 90.015625 -10.269531 92.015625 -10.78125 C 94.023438 -11.289062 95.628906 -11.875 96.828125 -12.53125 L 95.28125 -4.640625 C 86.925781 -0.566406 79.441406 1.46875 72.828125 1.46875 Z M 62.328125 -63.953125 C 62.328125 -66.941406 61.648438 -69.476562 60.296875 -71.5625 C 58.941406 -73.65625 57.066406 -74.703125 54.671875 -74.703125 C 51.691406 -74.703125 48.671875 -72.378906 45.609375 -67.734375 C 42.546875 -63.097656 39.898438 -56.765625 37.671875 -48.734375 C 35.453125 -40.710938 34.34375 -33.472656 34.34375 -27.015625 C 34.34375 -21.753906 34.882812 -17.628906 35.96875 -14.640625 C 37.050781 -11.660156 39.054688 -10.171875 41.984375 -10.171875 C 44.859375 -10.171875 48.140625 -12.554688 51.828125 -17.328125 Z M 62.328125 -63.953125 "/></g></g></g><g fill="#473c33" fill-opacity="1"><g transform="translate(533.249536, 760.395083)"><g><path d="M 38.328125 -17.171875 C 38.328125 -14.398438 39.046875 -12.484375 40.484375 -11.421875 C 41.921875 -10.367188 44.15625 -9.84375 47.1875 -9.84375 C 49.03125 -9.84375 51.238281 -10.179688 53.8125 -10.859375 C 56.394531 -11.535156 58.175781 -12.09375 59.15625 -12.53125 L 57.359375 -4.3125 C 52.046875 -1.757812 47.53125 -0.0351562 43.8125 0.859375 C 40.101562 1.753906 36.160156 2.203125 31.984375 2.203125 C 24.984375 2.203125 19.757812 0.601562 16.3125 -2.59375 C 12.863281 -5.800781 11.140625 -10.035156 11.140625 -15.296875 C 11.140625 -18.609375 11.710938 -23.003906 12.859375 -28.484375 L 22.296875 -70.46875 L 8.46875 -70.46875 L 10.328125 -79.015625 L 24.65625 -79.015625 L 30.34375 -103.65625 L 56.953125 -103.65625 L 51.5 -79.015625 L 70.296875 -79.015625 L 68.671875 -70.46875 L 49.46875 -70.46875 L 40.203125 -28.796875 C 38.953125 -23.484375 38.328125 -19.609375 38.328125 -17.171875 Z M 38.328125 -17.171875 "/></g></g></g><g fill="#473c33" fill-opacity="1"><g transform="translate(599.075831, 760.395083)"><g><path d="M 98.296875 -12.53125 L 96.671875 -4.640625 C 93.304688 -3.066406 89.84375 -1.679688 86.28125 -0.484375 C 82.726562 0.699219 78.867188 1.296875 74.703125 1.296875 C 69.003906 1.296875 64.523438 0.144531 61.265625 -2.15625 C 58.015625 -4.457031 55.765625 -8.023438 54.515625 -12.859375 L 54.03125 -12.859375 C 49.6875 -8.296875 46.238281 -5.09375 43.6875 -3.25 C 41.144531 -1.40625 38.503906 -0.0351562 35.765625 0.859375 C 33.023438 1.753906 30.050781 2.203125 26.84375 2.203125 C 21.476562 2.203125 17.222656 0.613281 14.078125 -2.5625 C 10.929688 -5.738281 9.359375 -9.765625 9.359375 -14.640625 C 9.359375 -17.628906 9.832031 -21.0625 10.78125 -24.9375 C 11.726562 -28.8125 12.769531 -32.878906 13.90625 -37.140625 C 15.050781 -41.398438 16.097656 -45.710938 17.046875 -50.078125 C 17.992188 -54.441406 18.46875 -58.578125 18.46875 -62.484375 C 18.46875 -64.816406 18.003906 -66.59375 17.078125 -67.8125 C 16.160156 -69.039062 14.535156 -69.65625 12.203125 -69.65625 C 9.171875 -69.65625 5.726562 -68.8125 1.875 -67.125 L 3.65625 -75.1875 C 7.507812 -77.03125 11.253906 -78.535156 14.890625 -79.703125 C 18.523438 -80.867188 22.296875 -81.453125 26.203125 -81.453125 C 32.222656 -81.453125 36.941406 -79.820312 40.359375 -76.5625 C 43.773438 -73.3125 45.484375 -68.835938 45.484375 -63.140625 C 45.484375 -59.503906 45.046875 -55.675781 44.171875 -51.65625 C 43.304688 -47.644531 42.359375 -43.660156 41.328125 -39.703125 C 40.296875 -35.742188 39.347656 -31.972656 38.484375 -28.390625 C 37.617188 -24.816406 37.1875 -21.671875 37.1875 -18.953125 C 37.1875 -16.679688 37.671875 -14.945312 38.640625 -13.75 C 39.617188 -12.5625 40.894531 -11.96875 42.46875 -11.96875 C 43.882812 -11.96875 45.703125 -12.585938 47.921875 -13.828125 C 50.148438 -15.078125 52.566406 -17.410156 55.171875 -20.828125 L 68.1875 -80.140625 L 94.140625 -80.953125 L 95.6875 -80.140625 L 84.453125 -30.515625 C 84.078125 -29.160156 83.65625 -27.125 83.1875 -24.40625 C 82.726562 -21.695312 82.5 -19.664062 82.5 -18.3125 C 82.5 -15.539062 83.039062 -13.515625 84.125 -12.234375 C 85.21875 -10.960938 87.117188 -10.328125 89.828125 -10.328125 C 92.109375 -10.328125 94.929688 -11.0625 98.296875 -12.53125 Z M 98.296875 -12.53125 "/></g></g></g><g fill="#473c33" fill-opacity="1"><g transform="translate(701.029291, 760.395083)"><g><path d="M 38.328125 -17.171875 C 38.328125 -14.398438 39.046875 -12.484375 40.484375 -11.421875 C 41.921875 -10.367188 44.15625 -9.84375 47.1875 -9.84375 C 49.03125 -9.84375 51.238281 -10.179688 53.8125 -10.859375 C 56.394531 -11.535156 58.175781 -12.09375 59.15625 -12.53125 L 57.359375 -4.3125 C 52.046875 -1.757812 47.53125 -0.0351562 43.8125 0.859375 C 40.101562 1.753906 36.160156 2.203125 31.984375 2.203125 C 24.984375 2.203125 19.757812 0.601562 16.3125 -2.59375 C 12.863281 -5.800781 11.140625 -10.035156 11.140625 -15.296875 C 11.140625 -18.609375 11.710938 -23.003906 12.859375 -28.484375 L 22.296875 -70.46875 L 8.46875 -70.46875 L 10.328125 -79.015625 L 24.65625 -79.015625 L 30.34375 -103.65625 L 56.953125 -103.65625 L 51.5 -79.015625 L 70.296875 -79.015625 L 68.671875 -70.46875 L 49.46875 -70.46875 L 40.203125 -28.796875 C 38.953125 -23.484375 38.328125 -19.609375 38.328125 -17.171875 Z M 38.328125 -17.171875 "/></g></g></g><g fill="#473c33" fill-opacity="1"><g transform="translate(766.85561, 760.395083)"><g><path d="M 72.828125 1.46875 C 62.410156 1.46875 55.679688 -2.359375 52.640625 -10.015625 L 52.15625 -10.015625 C 47.8125 -5.503906 43.78125 -2.285156 40.0625 -0.359375 C 36.351562 1.554688 32.707031 2.515625 29.125 2.515625 C 21.53125 2.515625 15.601562 -0.03125 11.34375 -5.125 C 7.09375 -10.226562 4.96875 -17.6875 4.96875 -27.5 C 4.96875 -37.375 6.929688 -46.554688 10.859375 -55.046875 C 14.796875 -63.535156 20.191406 -70.234375 27.046875 -75.140625 C 33.910156 -80.046875 41.332031 -82.5 49.3125 -82.5 C 52.882812 -82.5 56.269531 -81.914062 59.46875 -80.75 C 62.675781 -79.59375 65.175781 -78.0625 66.96875 -76.15625 L 91.78125 -81.28125 L 93.171875 -79.828125 L 81.6875 -30.34375 C 80.332031 -25.25 79.65625 -20.910156 79.65625 -17.328125 C 79.65625 -14.835938 80.171875 -12.992188 81.203125 -11.796875 C 82.234375 -10.609375 84.101562 -10.015625 86.8125 -10.015625 C 88.28125 -10.015625 90.015625 -10.269531 92.015625 -10.78125 C 94.023438 -11.289062 95.628906 -11.875 96.828125 -12.53125 L 95.28125 -4.640625 C 86.925781 -0.566406 79.441406 1.46875 72.828125 1.46875 Z M 62.328125 -63.953125 C 62.328125 -66.941406 61.648438 -69.476562 60.296875 -71.5625 C 58.941406 -73.65625 57.066406 -74.703125 54.671875 -74.703125 C 51.691406 -74.703125 48.671875 -72.378906 45.609375 -67.734375 C 42.546875 -63.097656 39.898438 -56.765625 37.671875 -48.734375 C 35.453125 -40.710938 34.34375 -33.472656 34.34375 -27.015625 C 34.34375 -21.753906 34.882812 -17.628906 35.96875 -14.640625 C 37.050781 -11.660156 39.054688 -10.171875 41.984375 -10.171875 C 44.859375 -10.171875 48.140625 -12.554688 51.828125 -17.328125 Z M 62.328125 -63.953125 "/></g></g></g><g fill="#473c33" fill-opacity="1"><g transform="translate(866.205288, 760.395083)"><g><path d="M 97.484375 -69.328125 C 97.484375 -65.097656 96.34375 -61.597656 94.0625 -58.828125 C 91.78125 -56.054688 88.742188 -54.671875 84.953125 -54.671875 C 82.722656 -54.671875 80.644531 -55.0625 78.71875 -55.84375 C 76.789062 -56.632812 73.929688 -58.578125 70.140625 -61.671875 C 66.941406 -59.179688 64.5 -57.066406 62.8125 -55.328125 C 65.582031 -44.421875 68.269531 -35.128906 70.875 -27.453125 C 73.476562 -19.785156 75.710938 -14.90625 77.578125 -12.8125 C 79.453125 -10.726562 82.15625 -9.6875 85.6875 -9.6875 C 88.832031 -9.6875 91.976562 -10.390625 95.125 -11.796875 L 93.484375 -3.984375 C 84.753906 0.136719 76.265625 2.203125 68.015625 2.203125 C 61.785156 2.203125 57.191406 0.601562 54.234375 -2.59375 C 51.273438 -5.800781 48.085938 -14.457031 44.671875 -28.5625 L 42.96875 -35.3125 L 38.15625 -30.671875 L 31.484375 0 L 4.15625 0 L 27.015625 -101.953125 C 27.660156 -104.773438 27.984375 -107.050781 27.984375 -108.78125 C 27.984375 -111.71875 27.085938 -113.835938 25.296875 -115.140625 C 23.515625 -116.441406 20.128906 -117.226562 15.140625 -117.5 L 16.6875 -123.84375 L 58.171875 -125.953125 L 59.15625 -124.5 L 40.359375 -40.03125 L 41.015625 -40.03125 L 48 -48.5 C 55.164062 -57.28125 61.785156 -64.765625 67.859375 -70.953125 C 71.984375 -75.398438 75.304688 -78.460938 77.828125 -80.140625 C 80.347656 -81.828125 83.179688 -82.671875 86.328125 -82.671875 C 89.585938 -82.671875 92.257812 -81.460938 94.34375 -79.046875 C 96.4375 -76.628906 97.484375 -73.390625 97.484375 -69.328125 Z M 97.484375 -69.328125 "/></g></g></g><g fill="#473c33" fill-opacity="1"><g transform="translate(964.009005, 760.395083)"><g><path d="M 98.296875 -12.53125 L 96.671875 -4.640625 C 93.304688 -3.066406 89.84375 -1.679688 86.28125 -0.484375 C 82.726562 0.699219 78.867188 1.296875 74.703125 1.296875 C 69.003906 1.296875 64.523438 0.144531 61.265625 -2.15625 C 58.015625 -4.457031 55.765625 -8.023438 54.515625 -12.859375 L 54.03125 -12.859375 C 49.6875 -8.296875 46.238281 -5.09375 43.6875 -3.25 C 41.144531 -1.40625 38.503906 -0.0351562 35.765625 0.859375 C 33.023438 1.753906 30.050781 2.203125 26.84375 2.203125 C 21.476562 2.203125 17.222656 0.613281 14.078125 -2.5625 C 10.929688 -5.738281 9.359375 -9.765625 9.359375 -14.640625 C 9.359375 -17.628906 9.832031 -21.0625 10.78125 -24.9375 C 11.726562 -28.8125 12.769531 -32.878906 13.90625 -37.140625 C 15.050781 -41.398438 16.097656 -45.710938 17.046875 -50.078125 C 17.992188 -54.441406 18.46875 -58.578125 18.46875 -62.484375 C 18.46875 -64.816406 18.003906 -66.59375 17.078125 -67.8125 C 16.160156 -69.039062 14.535156 -69.65625 12.203125 -69.65625 C 9.171875 -69.65625 5.726562 -68.8125 1.875 -67.125 L 3.65625 -75.1875 C 7.507812 -77.03125 11.253906 -78.535156 14.890625 -79.703125 C 18.523438 -80.867188 22.296875 -81.453125 26.203125 -81.453125 C 32.222656 -81.453125 36.941406 -79.820312 40.359375 -76.5625 C 43.773438 -73.3125 45.484375 -68.835938 45.484375 -63.140625 C 45.484375 -59.503906 45.046875 -55.675781 44.171875 -51.65625 C 43.304688 -47.644531 42.359375 -43.660156 41.328125 -39.703125 C 40.296875 -35.742188 39.347656 -31.972656 38.484375 -28.390625 C 37.617188 -24.816406 37.1875 -21.671875 37.1875 -18.953125 C 37.1875 -16.679688 37.671875 -14.945312 38.640625 -13.75 C 39.617188 -12.5625 40.894531 -11.96875 42.46875 -11.96875 C 43.882812 -11.96875 45.703125 -12.585938 47.921875 -13.828125 C 50.148438 -15.078125 52.566406 -17.410156 55.171875 -20.828125 L 68.1875 -80.140625 L 94.140625 -80.953125 L 95.6875 -80.140625 L 84.453125 -30.515625 C 84.078125 -29.160156 83.65625 -27.125 83.1875 -24.40625 C 82.726562 -21.695312 82.5 -19.664062 82.5 -18.3125 C 82.5 -15.539062 83.039062 -13.515625 84.125 -12.234375 C 85.21875 -10.960938 87.117188 -10.328125 89.828125 -10.328125 C 92.109375 -10.328125 94.929688 -11.0625 98.296875 -12.53125 Z M 98.296875 -12.53125 "/></g></g></g><g fill="#473c33" fill-opacity="1"><g transform="translate(1065.962487, 760.395083)"><g><path d="M 98.296875 -12.53125 L 96.671875 -4.640625 C 93.304688 -3.066406 89.84375 -1.679688 86.28125 -0.484375 C 82.726562 0.699219 78.867188 1.296875 74.703125 1.296875 C 69.003906 1.296875 64.523438 0.144531 61.265625 -2.15625 C 58.015625 -4.457031 55.765625 -8.023438 54.515625 -12.859375 L 54.03125 -12.859375 C 49.6875 -8.296875 46.238281 -5.09375 43.6875 -3.25 C 41.144531 -1.40625 38.503906 -0.0351562 35.765625 0.859375 C 33.023438 1.753906 30.050781 2.203125 26.84375 2.203125 C 21.476562 2.203125 17.222656 0.613281 14.078125 -2.5625 C 10.929688 -5.738281 9.359375 -9.765625 9.359375 -14.640625 C 9.359375 -17.628906 9.832031 -21.0625 10.78125 -24.9375 C 11.726562 -28.8125 12.769531 -32.878906 13.90625 -37.140625 C 15.050781 -41.398438 16.097656 -45.710938 17.046875 -50.078125 C 17.992188 -54.441406 18.46875 -58.578125 18.46875 -62.484375 C 18.46875 -64.816406 18.003906 -66.59375 17.078125 -67.8125 C 16.160156 -69.039062 14.535156 -69.65625 12.203125 -69.65625 C 9.171875 -69.65625 5.726562 -68.8125 1.875 -67.125 L 3.65625 -75.1875 C 7.507812 -77.03125 11.253906 -78.535156 14.890625 -79.703125 C 18.523438 -80.867188 22.296875 -81.453125 26.203125 -81.453125 C 32.222656 -81.453125 36.941406 -79.820312 40.359375 -76.5625 C 43.773438 -73.3125 45.484375 -68.835938 45.484375 -63.140625 C 45.484375 -59.503906 45.046875 -55.675781 44.171875 -51.65625 C 43.304688 -47.644531 42.359375 -43.660156 41.328125 -39.703125 C 40.296875 -35.742188 39.347656 -31.972656 38.484375 -28.390625 C 37.617188 -24.816406 37.1875 -21.671875 37.1875 -18.953125 C 37.1875 -16.679688 37.671875 -14.945312 38.640625 -13.75 C 39.617188 -12.5625 40.894531 -11.96875 42.46875 -11.96875 C 43.882812 -11.96875 45.703125 -12.585938 47.921875 -13.828125 C 50.148438 -15.078125 52.566406 -17.410156 55.171875 -20.828125 L 68.1875 -80.140625 L 94.140625 -80.953125 L 95.6875 -80.140625 L 84.453125 -30.515625 C 84.078125 -29.160156 83.65625 -27.125 83.1875 -24.40625 C 82.726562 -21.695312 82.5 -19.664062 82.5 -18.3125 C 82.5 -15.539062 83.039062 -13.515625 84.125 -12.234375 C 85.21875 -10.960938 87.117188 -10.328125 89.828125 -10.328125 C 92.109375 -10.328125 94.929688 -11.0625 98.296875 -12.53125 Z M 98.296875 -12.53125 "/></g></g></g></svg>