<svg xmlns="http://www.w3.org/2000/svg" xmlns:xlink="http://www.w3.org/1999/xlink" width="2000" zoomAndPan="magnify" viewBox="0 0 1500 1499.999933" height="2000" preserveAspectRatio="xMidYMid meet" version="1.0"><path fill="#000000" d="M 1331.476562 769.230469 C 1408.378906 723.851562 1467.320312 663.730469 1499.9375 598.058594 C 1442.046875 553.046875 1362.855469 524.457031 1273.894531 516.9375 C 1323.492188 442.683594 1350.511719 362.945312 1351.402344 289.621094 C 1279.714844 274.1875 1195.960938 282.785156 1112.546875 314.609375 C 1125.019531 226.191406 1114.761719 142.621094 1083.753906 76.175781 C 1012.464844 93.375 940.738281 137.460938 879.394531 202.328125 C 852.265625 117.253906 806.765625 46.410156 749.996094 0 C 693.230469 46.425781 647.738281 117.265625 620.609375 202.324219 C 559.257812 137.449219 487.527344 93.359375 416.242188 76.175781 C 385.242188 142.632812 374.988281 226.199219 387.453125 314.605469 C 304.027344 282.769531 220.273438 274.171875 148.589844 289.621094 C 149.496094 362.949219 176.515625 442.683594 226.105469 516.929688 C 137.128906 524.445312 57.9375 553.039062 0.0546875 598.058594 C 32.6875 663.730469 91.628906 723.847656 168.519531 769.222656 C 91.613281 814.601562 32.671875 874.71875 0.0546875 940.394531 C 57.949219 985.40625 137.136719 1013.996094 226.101562 1021.515625 C 176.503906 1095.769531 149.480469 1175.507812 148.589844 1248.832031 C 220.28125 1264.265625 304.03125 1255.667969 387.449219 1223.84375 C 374.976562 1312.261719 385.230469 1395.828125 416.242188 1462.277344 C 487.527344 1445.078125 559.253906 1400.992188 620.601562 1336.125 C 647.730469 1421.199219 693.226562 1492.042969 749.996094 1538.453125 C 806.761719 1492.027344 852.257812 1421.1875 879.382812 1336.128906 C 940.738281 1401.003906 1012.464844 1445.09375 1083.75 1462.277344 C 1114.75 1395.820312 1125.003906 1312.253906 1112.539062 1223.847656 C 1195.964844 1255.679688 1279.71875 1264.277344 1351.402344 1248.832031 C 1350.5 1175.503906 1323.476562 1095.765625 1273.890625 1021.523438 C 1362.867188 1014.007812 1442.054688 985.414062 1499.9375 940.394531 C 1467.308594 874.722656 1408.367188 814.605469 1331.476562 769.230469 Z M 1331.476562 769.230469 " fill-opacity="1" fill-rule="nonzero"/></svg>