<svg xmlns="http://www.w3.org/2000/svg" xmlns:xlink="http://www.w3.org/1999/xlink" width="2000" zoomAndPan="magnify" viewBox="0 0 1500 1499.999933" height="2000" preserveAspectRatio="xMidYMid meet" version="1.0"><defs><clipPath id="67864ccfd3"><path d="M 24.894531 109 L 1466 109 L 1466 1399.425781 L 24.894531 1399.425781 Z M 24.894531 109 " clip-rule="nonzero"/></clipPath></defs><g clip-path="url(#67864ccfd3)"><path fill="#000000" d="M 438.894531 1399.398438 C 397.28125 1399.402344 359.515625 1394.605469 325.617188 1384.996094 C 237.859375 1360.117188 174.558594 1302.949219 142.554688 1219.675781 C 108.1875 1130.238281 112.277344 1043.308594 154.382812 968.285156 C 206.878906 874.753906 315.398438 801.558594 486.148438 744.515625 C 617.808594 700.53125 763.195312 673.875 869.347656 654.410156 C 915.269531 645.988281 954.925781 638.714844 981.128906 632.300781 C 1030.09375 620.3125 1102.636719 600.882812 1167.046875 570.679688 C 1226.777344 542.667969 1267.878906 510.347656 1285.90625 477.207031 C 1295.160156 460.195312 1305.46875 431.847656 1288.230469 382.253906 C 1263.574219 311.328125 1157.214844 287.875 1072.332031 280.691406 C 938.113281 269.332031 794.441406 292.410156 738.898438 302.859375 C 499.320312 347.933594 285.828125 446.726562 137.753906 581.042969 L 24.960938 456.773438 C 114.953125 375.140625 223.414062 305.515625 347.324219 249.835938 C 459.238281 199.546875 580.535156 161.902344 707.855469 137.949219 C 770.144531 126.230469 931.722656 100.390625 1086.492188 113.484375 C 1169.355469 120.5 1239.777344 137.894531 1295.800781 165.195312 C 1371.4375 202.050781 1422.234375 256.546875 1446.785156 327.171875 C 1475.304688 409.214844 1470.664062 488.820312 1433.367188 557.378906 C 1356.316406 699.011719 1161.152344 760.992188 1021.058594 795.289062 C 990.0625 802.878906 948.15625 810.5625 899.632812 819.457031 C 798.402344 838.023438 659.761719 863.445312 539.351562 903.667969 C 451.632812 932.972656 339.039062 982.214844 300.773438 1050.394531 C 289.703125 1070.125 277.496094 1102.898438 299.246094 1159.496094 C 312.253906 1193.339844 334.507812 1213.097656 371.410156 1223.558594 C 428.074219 1239.625 568.34375 1245.652344 871.074219 1105.558594 C 1073.15625 1012.042969 1255.214844 895.253906 1328.28125 839.566406 L 1430.046875 973.015625 C 1335.46875 1045.09375 1142.273438 1164.972656 941.585938 1257.839844 C 738.042969 1352.03125 569.625 1399.390625 438.894531 1399.398438 Z M 438.894531 1399.398438 " fill-opacity="1" fill-rule="nonzero"/></g></svg>