<svg xmlns="http://www.w3.org/2000/svg" xmlns:xlink="http://www.w3.org/1999/xlink" width="2000" zoomAndPan="magnify" viewBox="0 0 1500 1499.999933" height="2000" preserveAspectRatio="xMidYMid meet" version="1.0"><defs><g/><clipPath id="39a1d9b91a"><path d="M 49 632.042969 L 1451 632.042969 L 1451 933.542969 L 49 933.542969 Z M 49 632.042969 " clip-rule="nonzero"/></clipPath><clipPath id="63fdc06a21"><rect x="0" width="1265" y="0" height="236"/></clipPath></defs><g clip-path="url(#39a1d9b91a)"><path fill="#c87151" d="M 1450.542969 725.632812 C 1450.542969 673.902344 1408.589844 631.949219 1356.859375 631.949219 C 1330.351562 631.949219 1306.480469 642.984375 1289.441406 660.664062 C 1272.402344 642.984375 1248.53125 631.949219 1222.023438 631.949219 C 1195.515625 631.949219 1171.640625 642.984375 1154.601562 660.664062 C 1137.5625 642.984375 1113.691406 631.949219 1087.183594 631.949219 C 1060.675781 631.949219 1036.804688 642.984375 1019.765625 660.664062 C 1002.726562 642.984375 978.851562 631.949219 952.34375 631.949219 C 925.835938 631.949219 901.964844 642.984375 884.925781 660.664062 C 867.886719 642.984375 844.015625 631.949219 817.507812 631.949219 C 790.996094 631.949219 767.125 642.984375 750.085938 660.664062 C 733.046875 642.984375 709.175781 631.949219 682.667969 631.949219 C 656.160156 631.949219 632.285156 642.984375 615.246094 660.664062 C 598.210938 642.984375 574.335938 631.949219 547.828125 631.949219 C 521.320312 631.949219 497.449219 642.984375 480.410156 660.664062 C 463.371094 642.984375 439.496094 631.949219 412.988281 631.949219 C 386.480469 631.949219 362.609375 642.984375 345.570312 660.664062 C 328.53125 642.984375 304.660156 631.949219 278.152344 631.949219 C 251.644531 631.949219 227.769531 642.984375 210.730469 660.664062 C 193.816406 642.984375 169.941406 631.949219 143.433594 631.949219 C 91.707031 631.949219 49.753906 673.902344 49.753906 725.632812 C 49.753906 747.054688 57.015625 766.726562 69.121094 782.511719 C 57.015625 798.292969 49.753906 817.96875 49.753906 839.386719 C 49.753906 891.117188 91.707031 933.070312 143.433594 933.070312 C 169.941406 933.070312 193.816406 922.039062 210.855469 904.355469 C 227.894531 922.039062 251.765625 933.070312 278.273438 933.070312 C 304.78125 933.070312 328.652344 922.039062 345.691406 904.355469 C 362.730469 922.039062 386.605469 933.070312 413.113281 933.070312 C 439.621094 933.070312 463.492188 922.039062 480.53125 904.355469 C 497.570312 922.039062 521.441406 933.070312 547.949219 933.070312 C 574.460938 933.070312 598.332031 922.039062 615.371094 904.355469 C 632.410156 922.039062 656.28125 933.070312 682.789062 933.070312 C 709.296875 933.070312 733.171875 922.039062 750.210938 904.355469 C 767.246094 922.039062 791.121094 933.070312 817.628906 933.070312 C 844.136719 933.070312 868.007812 922.039062 885.046875 904.355469 C 902.085938 922.039062 925.960938 933.070312 952.46875 933.070312 C 978.976562 933.070312 1002.847656 922.039062 1019.886719 904.355469 C 1036.925781 922.039062 1060.796875 933.070312 1087.304688 933.070312 C 1113.8125 933.070312 1137.6875 922.039062 1154.726562 904.355469 C 1171.765625 922.039062 1195.636719 933.070312 1222.144531 933.070312 C 1248.652344 933.070312 1272.527344 922.039062 1289.566406 904.355469 C 1306.601562 922.039062 1330.476562 933.070312 1356.984375 933.070312 C 1408.714844 933.070312 1450.667969 891.117188 1450.667969 839.386719 C 1450.667969 817.96875 1443.402344 798.292969 1431.296875 782.511719 C 1443.402344 766.726562 1450.667969 747.054688 1450.667969 725.632812 Z M 1450.542969 725.632812 " fill-opacity="1" fill-rule="nonzero"/></g><g transform="matrix(1, 0, 0, 1, 117, 650)"><g clip-path="url(#63fdc06a21)"><g fill="#efe7d2" fill-opacity="1"><g transform="translate(1.049852, 189.749028)"><g><path d="M 86.09375 -102.1875 C 95.070312 -102.1875 102.09375 -98.816406 107.15625 -92.078125 C 112.21875 -85.335938 114.75 -75.863281 114.75 -63.65625 C 114.75 -50.988281 112.203125 -39.523438 107.109375 -29.265625 C 102.015625 -19.003906 94.859375 -11.007812 85.640625 -5.28125 C 76.421875 0.445312 65.875 3.3125 54 3.3125 C 43.875 3.3125 34.851562 1.367188 26.9375 -2.515625 C 19.03125 -6.398438 13.203125 -11.660156 9.453125 -18.296875 L 33.890625 -127.125 C 34.628906 -130.34375 35 -132.585938 35 -133.859375 C 35 -136.335938 34.476562 -138.347656 33.4375 -139.890625 C 32.394531 -141.429688 30.851562 -142.617188 28.8125 -143.453125 C 26.769531 -144.296875 23.265625 -144.953125 18.296875 -145.421875 L 20.421875 -153.0625 L 72.3125 -155.6875 L 73.515625 -154.078125 L 58.734375 -89.203125 L 59.53125 -89.203125 C 64.289062 -93.960938 68.78125 -97.316406 73 -99.265625 C 77.226562 -101.210938 81.59375 -102.1875 86.09375 -102.1875 Z M 78.25 -65.265625 C 78.25 -79.285156 75.03125 -86.296875 68.59375 -86.296875 C 64.90625 -86.296875 60.78125 -83.273438 56.21875 -77.234375 L 43.046875 -16.5 C 43.179688 -13.34375 44.085938 -10.65625 45.765625 -8.4375 C 47.441406 -6.226562 49.882812 -5.125 53.09375 -5.125 C 57.1875 -5.125 61.175781 -8.140625 65.0625 -14.171875 C 68.957031 -20.210938 72.128906 -28.160156 74.578125 -38.015625 C 77.023438 -47.867188 78.25 -56.953125 78.25 -65.265625 Z M 78.25 -65.265625 "/></g></g></g><g fill="#efe7d2" fill-opacity="1"><g transform="translate(103.396366, 189.749028)"><g><path d="M 103.390625 -80.5625 C 103.390625 -73.789062 101.609375 -68.207031 98.046875 -63.8125 C 94.492188 -59.414062 89.769531 -57.21875 83.875 -57.21875 C 79.25 -57.21875 75.546875 -58.425781 72.765625 -60.84375 C 69.984375 -63.257812 68.59375 -66.242188 68.59375 -69.796875 C 68.59375 -75.296875 70.03125 -80.925781 72.90625 -86.6875 C 67.945312 -84.945312 62.585938 -79.753906 56.828125 -71.109375 L 41.234375 0 L 7.640625 0 L 21.21875 -61.34375 C 22.695312 -67.976562 23.4375 -73.007812 23.4375 -76.4375 C 23.4375 -79.71875 22.847656 -82.179688 21.671875 -83.828125 C 20.492188 -85.472656 18.363281 -86.296875 15.28125 -86.296875 C 11.125 -86.296875 7.003906 -85.320312 2.921875 -83.375 L 5.125 -93.125 C 16.59375 -98.351562 26.347656 -100.96875 34.390625 -100.96875 C 40.960938 -100.96875 46.078125 -99.609375 49.734375 -96.890625 C 53.390625 -94.179688 56.085938 -89.539062 57.828125 -82.96875 L 58.53125 -82.96875 C 63.488281 -89.675781 68.113281 -94.554688 72.40625 -97.609375 C 76.695312 -100.660156 81.257812 -102.1875 86.09375 -102.1875 C 91.382812 -102.1875 95.585938 -100.289062 98.703125 -96.5 C 101.828125 -92.707031 103.390625 -87.394531 103.390625 -80.5625 Z M 103.390625 -80.5625 "/></g></g></g><g fill="#efe7d2" fill-opacity="1"><g transform="translate(189.047592, 189.749028)"><g><path d="M 90.015625 1.8125 C 77.140625 1.8125 68.820312 -2.914062 65.0625 -12.375 L 64.46875 -12.375 C 59.101562 -6.800781 54.125 -2.820312 49.53125 -0.4375 C 44.9375 1.933594 40.425781 3.125 36 3.125 C 26.613281 3.125 19.289062 -0.0234375 14.03125 -6.328125 C 8.769531 -12.640625 6.140625 -21.863281 6.140625 -34 C 6.140625 -46.195312 8.566406 -57.539062 13.421875 -68.03125 C 18.285156 -78.53125 24.957031 -86.8125 33.4375 -92.875 C 41.914062 -98.945312 51.085938 -101.984375 60.953125 -101.984375 C 65.367188 -101.984375 69.554688 -101.257812 73.515625 -99.8125 C 77.472656 -98.375 80.554688 -96.484375 82.765625 -94.140625 L 113.4375 -100.46875 L 115.15625 -98.65625 L 100.96875 -37.515625 C 99.289062 -31.210938 98.453125 -25.847656 98.453125 -21.421875 C 98.453125 -18.335938 99.085938 -16.054688 100.359375 -14.578125 C 101.640625 -13.109375 103.957031 -12.375 107.3125 -12.375 C 109.125 -12.375 111.269531 -12.691406 113.75 -13.328125 C 116.226562 -13.960938 118.203125 -14.679688 119.671875 -15.484375 L 117.765625 -5.734375 C 107.441406 -0.703125 98.191406 1.8125 90.015625 1.8125 Z M 77.03125 -79.046875 C 77.03125 -82.734375 76.191406 -85.867188 74.515625 -88.453125 C 72.847656 -91.035156 70.535156 -92.328125 67.578125 -92.328125 C 63.890625 -92.328125 60.148438 -89.457031 56.359375 -83.71875 C 52.578125 -77.988281 49.3125 -70.160156 46.5625 -60.234375 C 43.8125 -50.316406 42.4375 -41.367188 42.4375 -33.390625 C 42.4375 -26.890625 43.109375 -21.796875 44.453125 -18.109375 C 45.796875 -14.421875 48.273438 -12.578125 51.890625 -12.578125 C 55.441406 -12.578125 59.5 -15.523438 64.0625 -21.421875 Z M 116.765625 -135.5625 C 116.765625 -131.144531 115.238281 -127.289062 112.1875 -124 C 109.132812 -120.71875 105.429688 -119.078125 101.078125 -119.078125 C 96.785156 -119.078125 93.078125 -120.664062 89.953125 -123.84375 C 86.835938 -127.03125 85.28125 -130.9375 85.28125 -135.5625 C 85.28125 -140.257812 86.835938 -144.195312 89.953125 -147.375 C 93.078125 -150.5625 96.785156 -152.15625 101.078125 -152.15625 C 105.429688 -152.15625 109.132812 -150.515625 112.1875 -147.234375 C 115.238281 -143.953125 116.765625 -140.0625 116.765625 -135.5625 Z M 71.203125 -135.5625 C 71.203125 -131.070312 69.691406 -127.203125 66.671875 -123.953125 C 63.660156 -120.703125 59.972656 -119.078125 55.609375 -119.078125 C 51.117188 -119.078125 47.347656 -120.71875 44.296875 -124 C 41.242188 -127.289062 39.71875 -131.144531 39.71875 -135.5625 C 39.71875 -139.988281 41.226562 -143.859375 44.25 -147.171875 C 47.269531 -150.492188 51.054688 -152.15625 55.609375 -152.15625 C 59.972656 -152.15625 63.660156 -150.53125 66.671875 -147.28125 C 69.691406 -144.03125 71.203125 -140.125 71.203125 -135.5625 Z M 71.203125 -135.5625 "/></g></g></g><g fill="#efe7d2" fill-opacity="1"><g transform="translate(293.103864, 189.749028)"><g><path d="M 68.984375 -20.015625 C 68.984375 -25.984375 70.863281 -35.835938 74.625 -49.578125 C 78.3125 -63.253906 80.15625 -71.9375 80.15625 -75.625 C 80.15625 -78.707031 79.5 -80.988281 78.1875 -82.46875 C 76.882812 -83.945312 75.191406 -84.6875 73.109375 -84.6875 C 71.035156 -84.6875 68.609375 -83.8125 65.828125 -82.0625 C 63.046875 -80.320312 60.175781 -77.140625 57.21875 -72.515625 L 41.4375 0 L 7.4375 0 L 20.609375 -58.9375 C 22.492188 -67.25 23.4375 -73.28125 23.4375 -77.03125 C 23.4375 -80.113281 22.878906 -82.425781 21.765625 -83.96875 C 20.660156 -85.519531 18.5 -86.296875 15.28125 -86.296875 C 11.53125 -86.296875 7.410156 -85.320312 2.921875 -83.375 L 5.328125 -93.125 C 9.890625 -95.207031 14.429688 -97.035156 18.953125 -98.609375 C 23.484375 -100.179688 28.160156 -100.96875 32.984375 -100.96875 C 39.890625 -100.96875 45.320312 -99.625 49.28125 -96.9375 C 53.238281 -94.257812 56.1875 -89.601562 58.125 -82.96875 L 58.734375 -82.96875 C 64.097656 -89.40625 69.742188 -94.21875 75.671875 -97.40625 C 81.609375 -100.59375 87.628906 -102.1875 93.734375 -102.1875 C 99.898438 -102.1875 104.910156 -100.171875 108.765625 -96.140625 C 112.617188 -92.117188 114.546875 -87.054688 114.546875 -80.953125 C 114.546875 -75.859375 113.84375 -70.765625 112.4375 -65.671875 L 105.296875 -37.921875 C 103.617188 -32.210938 102.78125 -26.914062 102.78125 -22.03125 C 102.78125 -18.8125 103.484375 -16.492188 104.890625 -15.078125 C 106.296875 -13.671875 108.609375 -12.96875 111.828125 -12.96875 C 114.378906 -12.96875 118.4375 -13.941406 124 -15.890625 L 121.6875 -5.9375 C 116.925781 -3.789062 112.28125 -1.992188 107.75 -0.546875 C 103.226562 0.886719 98.554688 1.609375 93.734375 1.609375 C 86.160156 1.609375 80.140625 -0.382812 75.671875 -4.375 C 71.210938 -8.363281 68.984375 -13.578125 68.984375 -20.015625 Z M 68.984375 -20.015625 "/></g></g></g><g fill="#efe7d2" fill-opacity="1"><g transform="translate(400.780802, 189.749028)"><g><path d="M 98.65625 -21.625 C 98.65625 -18.132812 99.328125 -15.753906 100.671875 -14.484375 C 102.015625 -13.210938 104.226562 -12.578125 107.3125 -12.578125 C 108.65625 -12.578125 110.414062 -12.875 112.59375 -13.46875 C 114.769531 -14.070312 116.726562 -14.742188 118.46875 -15.484375 L 116.5625 -5.734375 C 106.101562 -0.566406 96.847656 2.015625 88.796875 2.015625 C 82.296875 2.015625 77.1875 0.789062 73.46875 -1.65625 C 69.75 -4.101562 67.015625 -7.804688 65.265625 -12.765625 L 64.875 -12.765625 C 60.445312 -7.804688 55.769531 -3.914062 50.84375 -1.09375 C 45.914062 1.714844 41.035156 3.125 36.203125 3.125 C 26.546875 3.125 19.15625 -0.160156 14.03125 -6.734375 C 8.90625 -13.304688 6.34375 -22.523438 6.34375 -34.390625 C 6.34375 -46.523438 8.785156 -57.835938 13.671875 -68.328125 C 18.566406 -78.828125 25.171875 -87.09375 33.484375 -93.125 C 41.796875 -99.164062 50.546875 -102.1875 59.734375 -102.1875 C 68.992188 -102.1875 76.003906 -99.632812 80.765625 -94.53125 L 88.203125 -127.53125 C 88.734375 -129.332031 89 -131.238281 89 -133.25 C 89 -136.875 87.691406 -139.675781 85.078125 -141.65625 C 82.460938 -143.632812 78.070312 -144.890625 71.90625 -145.421875 L 73.3125 -153.0625 L 126.421875 -155.6875 L 127.71875 -154.078125 L 101.171875 -37.71875 C 99.492188 -30.207031 98.65625 -24.84375 98.65625 -21.625 Z M 77.03125 -79.75 C 77.03125 -83.769531 76.175781 -86.90625 74.46875 -89.15625 C 72.757812 -91.40625 70.460938 -92.53125 67.578125 -92.53125 C 63.492188 -92.53125 59.503906 -89.59375 55.609375 -83.71875 C 51.722656 -77.851562 48.585938 -70.394531 46.203125 -61.34375 C 43.828125 -52.289062 42.640625 -43.238281 42.640625 -34.1875 C 42.640625 -19.78125 45.65625 -12.578125 51.6875 -12.578125 C 53.695312 -12.578125 55.773438 -13.378906 57.921875 -14.984375 C 60.066406 -16.597656 62.113281 -18.878906 64.0625 -21.828125 Z M 77.03125 -79.75 "/></g></g></g><g fill="#efe7d2" fill-opacity="1"><g transform="translate(503.931907, 189.749028)"><g><path d="M 71.109375 -136.78125 C 71.109375 -131.550781 69.195312 -127.125 65.375 -123.5 C 61.550781 -119.875 56.859375 -118.0625 51.296875 -118.0625 C 45.722656 -118.0625 41.023438 -119.851562 37.203125 -123.4375 C 33.390625 -127.03125 31.484375 -131.546875 31.484375 -136.984375 C 31.484375 -142.273438 33.390625 -146.75 37.203125 -150.40625 C 41.023438 -154.0625 45.722656 -155.890625 51.296875 -155.890625 C 56.660156 -155.890625 61.300781 -154.023438 65.21875 -150.296875 C 69.144531 -146.578125 71.109375 -142.070312 71.109375 -136.78125 Z M 38.921875 2.515625 C 21.617188 2.515625 12.96875 -4.992188 12.96875 -20.015625 C 12.96875 -26.046875 14.007812 -32.75 16.09375 -40.125 L 21.828125 -62.453125 C 23.503906 -68.953125 24.34375 -74.347656 24.34375 -78.640625 C 24.34375 -82.066406 23.550781 -84.363281 21.96875 -85.53125 C 20.394531 -86.707031 17.929688 -87.296875 14.578125 -87.296875 C 11.960938 -87.296875 8.546875 -86.625 4.328125 -85.28125 L 6.640625 -94.9375 C 12.804688 -97.75 17.679688 -99.625 21.265625 -100.5625 C 24.859375 -101.507812 28.460938 -101.984375 32.078125 -101.984375 C 40.660156 -101.984375 47.0625 -100.050781 51.28125 -96.1875 C 55.507812 -92.332031 57.625 -86.851562 57.625 -79.75 C 57.625 -73.71875 56.617188 -66.847656 54.609375 -59.140625 L 48.578125 -36.90625 C 47.097656 -29.9375 46.359375 -24.570312 46.359375 -20.8125 C 46.359375 -17.664062 47.046875 -15.367188 48.421875 -13.921875 C 49.796875 -12.484375 51.992188 -11.765625 55.015625 -11.765625 C 58.972656 -11.765625 63.160156 -12.632812 67.578125 -14.375 L 65.265625 -4.53125 C 60.910156 -2.644531 56.585938 -0.996094 52.296875 0.40625 C 48.003906 1.8125 43.546875 2.515625 38.921875 2.515625 Z M 38.921875 2.515625 "/></g></g></g><g fill="#efe7d2" fill-opacity="1"><g transform="translate(555.387966, 189.749028)"><g/></g></g><g fill="#efe7d2" fill-opacity="1"><g transform="translate(587.734992, 189.749028)"><g><path d="M 129.9375 -84.6875 C 125.644531 -84.6875 120.378906 -80.628906 114.140625 -72.515625 L 98.0625 0 L 64.46875 0 L 77.84375 -60.546875 C 79.382812 -68.585938 80.15625 -73.378906 80.15625 -74.921875 C 80.15625 -77.742188 79.617188 -80.078125 78.546875 -81.921875 C 77.472656 -83.765625 75.796875 -84.6875 73.515625 -84.6875 C 68.691406 -84.6875 63.257812 -80.695312 57.21875 -72.71875 L 41.234375 0 L 7.640625 0 L 21.21875 -61.34375 C 22.894531 -68.925781 23.734375 -74.15625 23.734375 -77.03125 C 23.734375 -80.25 23.128906 -82.597656 21.921875 -84.078125 C 20.710938 -85.554688 18.5 -86.296875 15.28125 -86.296875 C 11.257812 -86.296875 7.207031 -85.320312 3.125 -83.375 L 5.328125 -93.328125 C 16.523438 -98.421875 25.742188 -100.96875 32.984375 -100.96875 C 39.960938 -100.96875 45.425781 -99.609375 49.375 -96.890625 C 53.332031 -94.179688 56.148438 -89.539062 57.828125 -82.96875 L 58.53125 -82.96875 C 66.101562 -90.882812 72.234375 -96.066406 76.921875 -98.515625 C 81.617188 -100.960938 86.820312 -102.1875 92.53125 -102.1875 C 98.625 -102.1875 103.648438 -100.359375 107.609375 -96.703125 C 111.566406 -93.046875 113.742188 -88.398438 114.140625 -82.765625 L 114.953125 -82.765625 C 123.203125 -90.878906 129.65625 -96.144531 134.3125 -98.5625 C 138.96875 -100.976562 144.179688 -102.1875 149.953125 -102.1875 C 156.179688 -102.1875 161.171875 -100.207031 164.921875 -96.25 C 168.679688 -92.289062 170.5625 -87.257812 170.5625 -81.15625 C 170.5625 -76.257812 169.722656 -70.765625 168.046875 -64.671875 L 161.3125 -37.921875 C 159.632812 -30.804688 158.796875 -25.507812 158.796875 -22.03125 C 158.796875 -18.8125 159.5 -16.492188 160.90625 -15.078125 C 162.320312 -13.671875 164.640625 -12.96875 167.859375 -12.96875 C 170.398438 -12.96875 174.453125 -13.941406 180.015625 -15.890625 L 177.703125 -5.9375 C 172.941406 -3.789062 168.296875 -1.992188 163.765625 -0.546875 C 159.242188 0.886719 154.570312 1.609375 149.75 1.609375 C 142.175781 1.609375 136.160156 -0.382812 131.703125 -4.375 C 127.242188 -8.363281 125.015625 -13.578125 125.015625 -20.015625 C 125.015625 -25.242188 125.785156 -30.503906 127.328125 -35.796875 L 133.859375 -61.34375 C 135.398438 -67.507812 136.171875 -72.203125 136.171875 -75.421875 C 136.171875 -81.597656 134.09375 -84.6875 129.9375 -84.6875 Z M 129.9375 -84.6875 "/></g></g></g><g fill="#efe7d2" fill-opacity="1"><g transform="translate(751.23048, 189.749028)"><g><path d="M 71.109375 -136.78125 C 71.109375 -131.550781 69.195312 -127.125 65.375 -123.5 C 61.550781 -119.875 56.859375 -118.0625 51.296875 -118.0625 C 45.722656 -118.0625 41.023438 -119.851562 37.203125 -123.4375 C 33.390625 -127.03125 31.484375 -131.546875 31.484375 -136.984375 C 31.484375 -142.273438 33.390625 -146.75 37.203125 -150.40625 C 41.023438 -154.0625 45.722656 -155.890625 51.296875 -155.890625 C 56.660156 -155.890625 61.300781 -154.023438 65.21875 -150.296875 C 69.144531 -146.578125 71.109375 -142.070312 71.109375 -136.78125 Z M 38.921875 2.515625 C 21.617188 2.515625 12.96875 -4.992188 12.96875 -20.015625 C 12.96875 -26.046875 14.007812 -32.75 16.09375 -40.125 L 21.828125 -62.453125 C 23.503906 -68.953125 24.34375 -74.347656 24.34375 -78.640625 C 24.34375 -82.066406 23.550781 -84.363281 21.96875 -85.53125 C 20.394531 -86.707031 17.929688 -87.296875 14.578125 -87.296875 C 11.960938 -87.296875 8.546875 -86.625 4.328125 -85.28125 L 6.640625 -94.9375 C 12.804688 -97.75 17.679688 -99.625 21.265625 -100.5625 C 24.859375 -101.507812 28.460938 -101.984375 32.078125 -101.984375 C 40.660156 -101.984375 47.0625 -100.050781 51.28125 -96.1875 C 55.507812 -92.332031 57.625 -86.851562 57.625 -79.75 C 57.625 -73.71875 56.617188 -66.847656 54.609375 -59.140625 L 48.578125 -36.90625 C 47.097656 -29.9375 46.359375 -24.570312 46.359375 -20.8125 C 46.359375 -17.664062 47.046875 -15.367188 48.421875 -13.921875 C 49.796875 -12.484375 51.992188 -11.765625 55.015625 -11.765625 C 58.972656 -11.765625 63.160156 -12.632812 67.578125 -14.375 L 65.265625 -4.53125 C 60.910156 -2.644531 56.585938 -0.996094 52.296875 0.40625 C 48.003906 1.8125 43.546875 2.515625 38.921875 2.515625 Z M 38.921875 2.515625 "/></g></g></g><g fill="#efe7d2" fill-opacity="1"><g transform="translate(802.686507, 189.749028)"><g><path d="M 68.984375 -20.015625 C 68.984375 -25.984375 70.863281 -35.835938 74.625 -49.578125 C 78.3125 -63.253906 80.15625 -71.9375 80.15625 -75.625 C 80.15625 -78.707031 79.5 -80.988281 78.1875 -82.46875 C 76.882812 -83.945312 75.191406 -84.6875 73.109375 -84.6875 C 71.035156 -84.6875 68.609375 -83.8125 65.828125 -82.0625 C 63.046875 -80.320312 60.175781 -77.140625 57.21875 -72.515625 L 41.4375 0 L 7.4375 0 L 20.609375 -58.9375 C 22.492188 -67.25 23.4375 -73.28125 23.4375 -77.03125 C 23.4375 -80.113281 22.878906 -82.425781 21.765625 -83.96875 C 20.660156 -85.519531 18.5 -86.296875 15.28125 -86.296875 C 11.53125 -86.296875 7.410156 -85.320312 2.921875 -83.375 L 5.328125 -93.125 C 9.890625 -95.207031 14.429688 -97.035156 18.953125 -98.609375 C 23.484375 -100.179688 28.160156 -100.96875 32.984375 -100.96875 C 39.890625 -100.96875 45.320312 -99.625 49.28125 -96.9375 C 53.238281 -94.257812 56.1875 -89.601562 58.125 -82.96875 L 58.734375 -82.96875 C 64.097656 -89.40625 69.742188 -94.21875 75.671875 -97.40625 C 81.609375 -100.59375 87.628906 -102.1875 93.734375 -102.1875 C 99.898438 -102.1875 104.910156 -100.171875 108.765625 -96.140625 C 112.617188 -92.117188 114.546875 -87.054688 114.546875 -80.953125 C 114.546875 -75.859375 113.84375 -70.765625 112.4375 -65.671875 L 105.296875 -37.921875 C 103.617188 -32.210938 102.78125 -26.914062 102.78125 -22.03125 C 102.78125 -18.8125 103.484375 -16.492188 104.890625 -15.078125 C 106.296875 -13.671875 108.609375 -12.96875 111.828125 -12.96875 C 114.378906 -12.96875 118.4375 -13.941406 124 -15.890625 L 121.6875 -5.9375 C 116.925781 -3.789062 112.28125 -1.992188 107.75 -0.546875 C 103.226562 0.886719 98.554688 1.609375 93.734375 1.609375 C 86.160156 1.609375 80.140625 -0.382812 75.671875 -4.375 C 71.210938 -8.363281 68.984375 -13.578125 68.984375 -20.015625 Z M 68.984375 -20.015625 "/></g></g></g><g fill="#efe7d2" fill-opacity="1"><g transform="translate(910.363476, 189.749028)"><g><path d="M 47.375 -21.21875 C 47.375 -17.800781 48.257812 -15.4375 50.03125 -14.125 C 51.8125 -12.820312 54.578125 -12.171875 58.328125 -12.171875 C 60.609375 -12.171875 63.335938 -12.585938 66.515625 -13.421875 C 69.703125 -14.265625 71.898438 -14.953125 73.109375 -15.484375 L 70.90625 -5.328125 C 64.332031 -2.179688 58.75 -0.0546875 54.15625 1.046875 C 49.5625 2.160156 44.6875 2.71875 39.53125 2.71875 C 30.875 2.71875 24.414062 0.738281 20.15625 -3.21875 C 15.90625 -7.175781 13.78125 -12.40625 13.78125 -18.90625 C 13.78125 -23 14.484375 -28.429688 15.890625 -35.203125 L 27.5625 -87.09375 L 10.453125 -87.09375 L 12.765625 -97.65625 L 30.46875 -97.65625 L 37.515625 -128.125 L 70.40625 -128.125 L 63.65625 -97.65625 L 86.890625 -97.65625 L 84.875 -87.09375 L 61.140625 -87.09375 L 49.6875 -35.609375 C 48.144531 -29.035156 47.375 -24.238281 47.375 -21.21875 Z M 47.375 -21.21875 "/></g></g></g><g fill="#efe7d2" fill-opacity="1"><g transform="translate(972.983282, 189.749028)"><g><path d="M 47.375 -21.21875 C 47.375 -17.800781 48.257812 -15.4375 50.03125 -14.125 C 51.8125 -12.820312 54.578125 -12.171875 58.328125 -12.171875 C 60.609375 -12.171875 63.335938 -12.585938 66.515625 -13.421875 C 69.703125 -14.265625 71.898438 -14.953125 73.109375 -15.484375 L 70.90625 -5.328125 C 64.332031 -2.179688 58.75 -0.0546875 54.15625 1.046875 C 49.5625 2.160156 44.6875 2.71875 39.53125 2.71875 C 30.875 2.71875 24.414062 0.738281 20.15625 -3.21875 C 15.90625 -7.175781 13.78125 -12.40625 13.78125 -18.90625 C 13.78125 -23 14.484375 -28.429688 15.890625 -35.203125 L 27.5625 -87.09375 L 10.453125 -87.09375 L 12.765625 -97.65625 L 30.46875 -97.65625 L 37.515625 -128.125 L 70.40625 -128.125 L 63.65625 -97.65625 L 86.890625 -97.65625 L 84.875 -87.09375 L 61.140625 -87.09375 L 49.6875 -35.609375 C 48.144531 -29.035156 47.375 -24.238281 47.375 -21.21875 Z M 47.375 -21.21875 "/></g></g></g><g fill="#efe7d2" fill-opacity="1"><g transform="translate(1035.603025, 189.749028)"><g><path d="M 71.109375 -136.78125 C 71.109375 -131.550781 69.195312 -127.125 65.375 -123.5 C 61.550781 -119.875 56.859375 -118.0625 51.296875 -118.0625 C 45.722656 -118.0625 41.023438 -119.851562 37.203125 -123.4375 C 33.390625 -127.03125 31.484375 -131.546875 31.484375 -136.984375 C 31.484375 -142.273438 33.390625 -146.75 37.203125 -150.40625 C 41.023438 -154.0625 45.722656 -155.890625 51.296875 -155.890625 C 56.660156 -155.890625 61.300781 -154.023438 65.21875 -150.296875 C 69.144531 -146.578125 71.109375 -142.070312 71.109375 -136.78125 Z M 38.921875 2.515625 C 21.617188 2.515625 12.96875 -4.992188 12.96875 -20.015625 C 12.96875 -26.046875 14.007812 -32.75 16.09375 -40.125 L 21.828125 -62.453125 C 23.503906 -68.953125 24.34375 -74.347656 24.34375 -78.640625 C 24.34375 -82.066406 23.550781 -84.363281 21.96875 -85.53125 C 20.394531 -86.707031 17.929688 -87.296875 14.578125 -87.296875 C 11.960938 -87.296875 8.546875 -86.625 4.328125 -85.28125 L 6.640625 -94.9375 C 12.804688 -97.75 17.679688 -99.625 21.265625 -100.5625 C 24.859375 -101.507812 28.460938 -101.984375 32.078125 -101.984375 C 40.660156 -101.984375 47.0625 -100.050781 51.28125 -96.1875 C 55.507812 -92.332031 57.625 -86.851562 57.625 -79.75 C 57.625 -73.71875 56.617188 -66.847656 54.609375 -59.140625 L 48.578125 -36.90625 C 47.097656 -29.9375 46.359375 -24.570312 46.359375 -20.8125 C 46.359375 -17.664062 47.046875 -15.367188 48.421875 -13.921875 C 49.796875 -12.484375 51.992188 -11.765625 55.015625 -11.765625 C 58.972656 -11.765625 63.160156 -12.632812 67.578125 -14.375 L 65.265625 -4.53125 C 60.910156 -2.644531 56.585938 -0.996094 52.296875 0.40625 C 48.003906 1.8125 43.546875 2.515625 38.921875 2.515625 Z M 38.921875 2.515625 "/></g></g></g><g fill="#efe7d2" fill-opacity="1"><g transform="translate(1087.059053, 189.749028)"><g><path d="M 71.109375 -136.78125 C 71.109375 -131.550781 69.195312 -127.125 65.375 -123.5 C 61.550781 -119.875 56.859375 -118.0625 51.296875 -118.0625 C 45.722656 -118.0625 41.023438 -119.851562 37.203125 -123.4375 C 33.390625 -127.03125 31.484375 -131.546875 31.484375 -136.984375 C 31.484375 -142.273438 33.390625 -146.75 37.203125 -150.40625 C 41.023438 -154.0625 45.722656 -155.890625 51.296875 -155.890625 C 56.660156 -155.890625 61.300781 -154.023438 65.21875 -150.296875 C 69.144531 -146.578125 71.109375 -142.070312 71.109375 -136.78125 Z M 38.921875 2.515625 C 21.617188 2.515625 12.96875 -4.992188 12.96875 -20.015625 C 12.96875 -26.046875 14.007812 -32.75 16.09375 -40.125 L 21.828125 -62.453125 C 23.503906 -68.953125 24.34375 -74.347656 24.34375 -78.640625 C 24.34375 -82.066406 23.550781 -84.363281 21.96875 -85.53125 C 20.394531 -86.707031 17.929688 -87.296875 14.578125 -87.296875 C 11.960938 -87.296875 8.546875 -86.625 4.328125 -85.28125 L 6.640625 -94.9375 C 12.804688 -97.75 17.679688 -99.625 21.265625 -100.5625 C 24.859375 -101.507812 28.460938 -101.984375 32.078125 -101.984375 C 40.660156 -101.984375 47.0625 -100.050781 51.28125 -96.1875 C 55.507812 -92.332031 57.625 -86.851562 57.625 -79.75 C 57.625 -73.71875 56.617188 -66.847656 54.609375 -59.140625 L 48.578125 -36.90625 C 47.097656 -29.9375 46.359375 -24.570312 46.359375 -20.8125 C 46.359375 -17.664062 47.046875 -15.367188 48.421875 -13.921875 C 49.796875 -12.484375 51.992188 -11.765625 55.015625 -11.765625 C 58.972656 -11.765625 63.160156 -12.632812 67.578125 -14.375 L 65.265625 -4.53125 C 60.910156 -2.644531 56.585938 -0.996094 52.296875 0.40625 C 48.003906 1.8125 43.546875 2.515625 38.921875 2.515625 Z M 38.921875 2.515625 "/></g></g></g><g fill="#efe7d2" fill-opacity="1"><g transform="translate(1138.515206, 189.749028)"><g><path d="M 68.984375 -20.015625 C 68.984375 -25.984375 70.863281 -35.835938 74.625 -49.578125 C 78.3125 -63.253906 80.15625 -71.9375 80.15625 -75.625 C 80.15625 -78.707031 79.5 -80.988281 78.1875 -82.46875 C 76.882812 -83.945312 75.191406 -84.6875 73.109375 -84.6875 C 71.035156 -84.6875 68.609375 -83.8125 65.828125 -82.0625 C 63.046875 -80.320312 60.175781 -77.140625 57.21875 -72.515625 L 41.4375 0 L 7.4375 0 L 20.609375 -58.9375 C 22.492188 -67.25 23.4375 -73.28125 23.4375 -77.03125 C 23.4375 -80.113281 22.878906 -82.425781 21.765625 -83.96875 C 20.660156 -85.519531 18.5 -86.296875 15.28125 -86.296875 C 11.53125 -86.296875 7.410156 -85.320312 2.921875 -83.375 L 5.328125 -93.125 C 9.890625 -95.207031 14.429688 -97.035156 18.953125 -98.609375 C 23.484375 -100.179688 28.160156 -100.96875 32.984375 -100.96875 C 39.890625 -100.96875 45.320312 -99.625 49.28125 -96.9375 C 53.238281 -94.257812 56.1875 -89.601562 58.125 -82.96875 L 58.734375 -82.96875 C 64.097656 -89.40625 69.742188 -94.21875 75.671875 -97.40625 C 81.609375 -100.59375 87.628906 -102.1875 93.734375 -102.1875 C 99.898438 -102.1875 104.910156 -100.171875 108.765625 -96.140625 C 112.617188 -92.117188 114.546875 -87.054688 114.546875 -80.953125 C 114.546875 -75.859375 113.84375 -70.765625 112.4375 -65.671875 L 105.296875 -37.921875 C 103.617188 -32.210938 102.78125 -26.914062 102.78125 -22.03125 C 102.78125 -18.8125 103.484375 -16.492188 104.890625 -15.078125 C 106.296875 -13.671875 108.609375 -12.96875 111.828125 -12.96875 C 114.378906 -12.96875 118.4375 -13.941406 124 -15.890625 L 121.6875 -5.9375 C 116.925781 -3.789062 112.28125 -1.992188 107.75 -0.546875 C 103.226562 0.886719 98.554688 1.609375 93.734375 1.609375 C 86.160156 1.609375 80.140625 -0.382812 75.671875 -4.375 C 71.210938 -8.363281 68.984375 -13.578125 68.984375 -20.015625 Z M 68.984375 -20.015625 "/></g></g></g></g></g></svg>