<svg xmlns="http://www.w3.org/2000/svg" xmlns:xlink="http://www.w3.org/1999/xlink" width="2000" zoomAndPan="magnify" viewBox="0 0 1500 1499.999933" height="2000" preserveAspectRatio="xMidYMid meet" version="1.0"><defs><clipPath id="85e25f2185"><path d="M 151 148.398438 L 1350 148.398438 L 1350 1351 L 151 1351 Z M 151 148.398438 " clip-rule="nonzero"/></clipPath></defs><g clip-path="url(#85e25f2185)"><path fill="#000000" d="M 281.28125 790.425781 C 278.882812 787.140625 276.742188 784.394531 274.804688 781.507812 C 272.773438 778.480469 270.804688 775.394531 269.042969 772.207031 C 265.308594 765.449219 261.75 758.597656 258.074219 751.808594 C 256.800781 749.453125 255.964844 747.285156 256.144531 744.308594 C 256.320312 741.4375 254.65625 738.378906 253.503906 735.519531 C 252.121094 732.089844 250.960938 728.800781 251.980469 724.953125 C 252.332031 723.617188 251.613281 721.765625 250.882812 720.425781 C 249.496094 717.902344 248.125 715.585938 248.601562 712.425781 C 248.847656 710.8125 247.816406 709.035156 247.515625 707.304688 C 247.171875 705.339844 246.398438 703.191406 246.863281 701.398438 C 248.144531 696.453125 246.5 692.03125 245.296875 687.457031 C 244.757812 685.40625 244.550781 683.257812 244.253906 681.148438 C 243.972656 679.144531 244.035156 677.050781 243.46875 675.140625 C 242.691406 672.53125 242.332031 670.21875 244.171875 667.851562 C 244.726562 667.132812 245.003906 665.554688 244.59375 664.835938 C 242.824219 661.730469 243.574219 658.515625 243.675781 655.292969 C 243.878906 648.894531 243.855469 642.484375 244.230469 636.097656 C 244.335938 634.320312 245.378906 632.539062 246.222656 630.875 C 247.375 628.601562 249.210938 626.558594 247.933594 623.707031 C 247.792969 623.394531 247.839844 622.8125 248.046875 622.558594 C 251.914062 617.792969 250.472656 611.394531 253.285156 606.15625 C 256.148438 600.824219 257.855469 594.867188 260.058594 589.179688 C 260.300781 588.550781 260.589844 587.90625 260.660156 587.246094 C 261.851562 576.511719 268.117188 568.507812 274.671875 560.550781 C 276.769531 558.003906 277.914062 554.6875 279.652344 551.820312 C 280.664062 550.15625 281.707031 548.285156 283.234375 547.214844 C 285.152344 545.867188 286.265625 544.296875 287.011719 542.171875 C 287.421875 540.996094 288.109375 539.457031 289.089844 539.023438 C 293.269531 537.167969 295.796875 533.636719 298.582031 530.355469 C 305.367188 522.355469 311.410156 513.773438 319.445312 506.777344 C 322.140625 504.433594 325.125 502.316406 327.632812 499.726562 C 329.101562 498.207031 330.421875 496.542969 331.839844 494.972656 C 332.367188 494.386719 332.882812 493.667969 333.5625 493.367188 C 338.800781 491.070312 343.503906 488.101562 347.945312 484.394531 C 352.261719 480.792969 358 478.832031 362.113281 475.058594 C 367.515625 470.105469 374.117188 467.449219 380.152344 463.738281 C 385.273438 460.589844 391.007812 458.410156 396.023438 455.121094 C 401.050781 451.824219 406.5 451.15625 412.152344 450.566406 C 413.574219 450.417969 414.914062 449.484375 416.296875 448.925781 C 417.800781 448.3125 419.300781 447.6875 420.816406 447.109375 C 424.816406 445.585938 428.835938 444.117188 432.828125 442.578125 C 439.378906 440.046875 445.746094 436.800781 452.507812 435.113281 C 458.941406 433.507812 464.996094 430.941406 471.339844 429.214844 C 474.0625 428.472656 476.957031 428.351562 479.671875 427.59375 C 483.8125 426.4375 487.835938 424.867188 491.960938 423.660156 C 498.03125 421.886719 504.160156 420.324219 510.234375 418.574219 C 512 418.066406 513.675781 417.238281 515.378906 416.53125 C 516.226562 416.179688 517.027344 415.484375 517.878906 415.429688 C 521.625 415.195312 525.414062 415.265625 528.75 413.125 C 534.1875 414.800781 538.667969 410.277344 544.347656 411.046875 C 549.136719 411.699219 554.3125 409.511719 559.3125 408.570312 C 562.351562 407.996094 565.414062 407.527344 568.410156 406.785156 C 572.609375 405.746094 576.695312 404.171875 580.9375 403.414062 C 588.636719 402.03125 596.433594 400.121094 604.15625 400.265625 C 609.742188 400.371094 615.34375 400.464844 620.9375 400.265625 C 625.394531 400.109375 629.839844 399.710938 634.289062 399.386719 C 636.320312 399.238281 638.347656 399.039062 640.375 398.828125 C 645.871094 398.257812 651.363281 397.675781 656.859375 397.089844 C 661.398438 396.605469 665.957031 395.582031 670.476562 395.742188 C 676.539062 395.953125 682.589844 396.953125 688.613281 397.863281 C 690.726562 398.179688 692.621094 399.035156 694.722656 397.578125 C 696.886719 396.078125 699.117188 396.753906 701.574219 398.703125 C 703.417969 396.492188 705.6875 394.578125 706.800781 392.136719 C 707.476562 390.648438 706.734375 388.199219 706.007812 386.445312 C 703.191406 379.660156 698.671875 373.875 694.660156 367.789062 C 692.019531 363.777344 689.8125 359.484375 687.207031 355.449219 C 685.757812 353.207031 684.175781 350.851562 680.96875 350.855469 C 680.5625 350.855469 680.160156 350.71875 679.753906 350.710938 C 673.816406 350.585938 669.980469 347.152344 667.125 342.4375 C 664.480469 338.066406 662.042969 333.5625 659.644531 329.050781 C 658.960938 327.765625 658.410156 326.257812 658.332031 324.824219 C 657.941406 317.789062 656.984375 310.664062 657.699219 303.726562 C 658.265625 298.246094 657.746094 292.335938 660.789062 287.246094 C 663.0625 283.441406 665.242188 279.570312 667.746094 275.917969 C 668.503906 274.808594 670.140625 274.226562 671.472656 273.605469 C 673.175781 272.808594 674.976562 272.214844 677.4375 271.257812 C 674.742188 269.820312 672.550781 268.863281 670.613281 267.539062 C 669.503906 266.785156 668.371094 265.558594 668.007812 264.320312 C 667.144531 261.347656 666.558594 258.261719 666.195312 255.183594 C 665.976562 253.34375 665.9375 251.246094 666.609375 249.585938 C 668.984375 243.738281 667.148438 238.15625 666.082031 232.488281 C 665.691406 230.394531 665.386719 228.28125 665.140625 226.167969 C 664.984375 224.828125 664.925781 223.464844 664.976562 222.117188 C 665.050781 220.140625 665.171875 218.160156 665.433594 216.203125 C 665.90625 212.636719 666.328125 209.046875 667.113281 205.546875 C 667.433594 204.125 668.402344 202.621094 669.511719 201.65625 C 672.152344 199.359375 673.890625 196.722656 674.996094 193.335938 C 676.628906 188.351562 680.480469 184.746094 683.96875 180.980469 C 684.976562 179.894531 686.097656 178.910156 687.117188 177.835938 C 689.234375 175.601562 691.683594 174.050781 694.808594 173.609375 C 697.625 173.214844 700.402344 172.492188 703.226562 172.191406 C 706.605469 171.832031 707.527344 168.835938 708.726562 166.707031 C 710.210938 164.070312 712.453125 163.023438 714.714844 161.546875 C 719.230469 158.597656 724.316406 157.332031 729.421875 156.234375 C 731.699219 155.746094 734.222656 156.257812 736.617188 156.488281 C 737.523438 156.578125 738.394531 157.132812 739.261719 157.519531 C 743.035156 159.203125 746.394531 158.484375 749.917969 156.398438 C 754.304688 153.800781 758.835938 151.179688 763.648438 149.667969 C 767.257812 148.53125 771.453125 148.714844 775.320312 149.050781 C 780.996094 149.542969 786.617188 150.644531 792.242188 151.609375 C 793.382812 151.808594 794.433594 152.542969 795.519531 153.039062 C 796.957031 153.699219 798.421875 154.3125 799.824219 155.042969 C 802.761719 156.582031 805.996094 157.785156 808.484375 159.871094 C 810.796875 161.804688 813.082031 162.46875 815.886719 162.433594 C 822.261719 162.355469 828.261719 163.40625 834.355469 165.859375 C 838.121094 167.375 840.597656 170.449219 844.378906 171.699219 C 847.234375 172.648438 849.785156 174.566406 852.414062 176.144531 C 854.144531 177.179688 856.054688 178.117188 857.394531 179.554688 C 861.910156 184.398438 866.148438 189.5 870.621094 194.386719 C 871.878906 195.757812 873.542969 196.773438 875.085938 197.863281 C 881.210938 202.203125 884.207031 212.164062 881.058594 218.839844 C 879.992188 221.109375 880 222.632812 882.070312 224.035156 C 882.179688 224.109375 882.238281 224.257812 882.34375 224.339844 C 888.089844 228.832031 889.378906 234.867188 888.953125 241.816406 C 888.726562 245.511719 889.535156 249.28125 890 253.003906 C 890.109375 253.882812 890.5 254.921875 891.117188 255.507812 C 894.160156 258.382812 893.195312 261.636719 892.226562 264.925781 C 891.773438 266.480469 890.835938 268.035156 890.886719 269.5625 C 891.027344 273.8125 888.492188 276.304688 885.601562 278.667969 C 884.675781 279.429688 883.679688 280.097656 882.492188 280.96875 C 884.910156 283.761719 887.621094 286.128906 889.324219 289.078125 C 890.949219 291.902344 891.890625 295.261719 892.476562 298.507812 C 893.328125 303.214844 892.640625 308.074219 894.613281 312.773438 C 895.449219 314.773438 894.539062 317.804688 893.742188 320.136719 C 892.09375 324.964844 889.21875 329.40625 889.714844 334.847656 C 889.808594 335.875 889.363281 336.996094 889.003906 338.015625 C 887.117188 343.339844 885.386719 348.738281 883.160156 353.921875 C 882.140625 356.300781 880.300781 358.425781 878.488281 360.34375 C 876.367188 362.597656 873.792969 364.417969 871.5625 366.578125 C 868.378906 369.65625 864.867188 371.332031 860.25 370.878906 C 857.179688 370.582031 854.007812 370.960938 850.929688 371.371094 C 849.921875 371.503906 848.457031 372.527344 848.21875 373.414062 C 846.324219 380.488281 840.546875 385.386719 838 392.058594 C 837.8125 392.546875 837.558594 393.011719 837.140625 393.902344 C 838.386719 394.027344 839.371094 394.136719 840.359375 394.222656 C 846.40625 394.730469 852.457031 395.203125 858.5 395.75 C 868.195312 396.625 877.828125 397.828125 887.5625 395.394531 C 892.492188 394.160156 897.707031 393.875 902.816406 393.640625 C 904.835938 393.546875 907.03125 394.511719 908.941406 395.421875 C 914.648438 398.144531 920.1875 401.222656 925.925781 403.875 C 929.726562 405.632812 933.691406 407.105469 937.699219 408.332031 C 945.023438 410.578125 952.4375 412.53125 959.800781 414.652344 C 960.832031 414.949219 961.75 415.621094 962.78125 415.941406 C 964.824219 416.585938 967.027344 417.835938 968.945312 417.515625 C 972.328125 416.949219 974.792969 418.0625 977.164062 420.035156 C 980.007812 422.402344 982.933594 424.527344 986.75 425.070312 C 987.648438 425.195312 988.773438 425.550781 989.296875 426.199219 C 992.179688 429.789062 996.3125 429.1875 1000.128906 429.648438 C 1001.324219 429.792969 1002.734375 429.457031 1003.703125 429.976562 C 1011.265625 434.046875 1019.832031 435.09375 1027.816406 437.886719 C 1030.789062 438.921875 1033.570312 439.753906 1035.996094 441.765625 C 1036.683594 442.339844 1037.710938 442.503906 1038.578125 442.863281 C 1043.210938 444.78125 1047.808594 446.796875 1052.488281 448.601562 C 1059.007812 451.117188 1065.476562 453.890625 1072.191406 455.742188 C 1075.792969 456.734375 1079.679688 457.953125 1083.699219 456.839844 C 1084.648438 456.578125 1086.085938 457.242188 1087.015625 457.886719 C 1093.378906 462.296875 1100.496094 464.585938 1108.078125 465.664062 C 1108.617188 465.742188 1109.203125 465.773438 1109.664062 466.015625 C 1115.625 469.160156 1121.621094 472.242188 1127.480469 475.570312 C 1129.082031 476.476562 1130.289062 478.101562 1131.617188 479.457031 C 1134.054688 481.945312 1136.234375 484.738281 1138.90625 486.9375 C 1143.164062 490.445312 1147.710938 493.597656 1152.179688 496.835938 C 1153.707031 497.945312 1155.308594 498.992188 1156.992188 499.84375 C 1161.679688 502.210938 1164.046875 506.882812 1167.648438 510.3125 C 1171.328125 513.820312 1174.898438 517.417969 1179.6875 519.683594 C 1183.15625 521.328125 1186.082031 524.09375 1189.289062 526.296875 C 1191.039062 527.5 1192.753906 528.886719 1194.695312 529.644531 C 1199.050781 531.347656 1203.066406 533.425781 1206.335938 536.886719 C 1207.902344 538.550781 1209.824219 539.886719 1211.621094 541.324219 C 1216.261719 545.042969 1221.140625 548.5 1225.53125 552.492188 C 1232.414062 558.75 1239.042969 565.296875 1245.660156 571.839844 C 1252.558594 578.65625 1259.089844 585.792969 1264.9375 593.566406 C 1266.40625 595.519531 1268.964844 596.617188 1270.839844 598.308594 C 1273.128906 600.367188 1275.585938 602.386719 1277.339844 604.867188 C 1281.769531 611.140625 1285.84375 617.660156 1290.058594 624.082031 C 1293.605469 629.484375 1297.066406 634.945312 1300.710938 640.28125 C 1304.355469 645.609375 1308.460938 650.640625 1311.8125 656.140625 C 1313.660156 659.171875 1314.371094 662.890625 1315.589844 666.300781 C 1317.71875 672.242188 1320.3125 678.070312 1321.832031 684.167969 C 1323.027344 688.980469 1326.511719 693.015625 1326.292969 698.230469 C 1326.140625 701.882812 1325.800781 705.546875 1326.660156 709.171875 C 1328.003906 714.828125 1326.5 720.449219 1326.4375 726.085938 C 1326.382812 731.335938 1323.542969 735.585938 1321.328125 740.019531 C 1319.414062 743.847656 1317.011719 747.433594 1315.050781 751.242188 C 1314.265625 752.769531 1314.023438 754.597656 1313.644531 756.3125 C 1312.714844 760.515625 1310.777344 763.9375 1307.457031 766.902344 C 1305.253906 768.871094 1304.058594 771.957031 1302.355469 774.507812 C 1299.070312 779.433594 1295.816406 784.382812 1292.414062 789.230469 C 1290.023438 792.632812 1287.277344 795.785156 1284.929688 799.21875 C 1280.890625 805.132812 1277.253906 811.335938 1272.996094 817.082031 C 1271.292969 819.382812 1268.34375 820.742188 1266.054688 822.636719 C 1264.449219 823.960938 1262.996094 825.472656 1261.339844 827.03125 C 1264.703125 830.597656 1268.519531 830.855469 1272.273438 830.621094 C 1276.054688 830.378906 1279.582031 830.355469 1282.597656 833.128906 C 1283.234375 833.71875 1284.3125 834.109375 1285.195312 834.117188 C 1293.589844 834.1875 1298.382812 839.800781 1303.160156 845.539062 C 1304.441406 847.074219 1306.128906 848.273438 1307.414062 849.804688 C 1309.824219 852.679688 1312.089844 855.679688 1314.398438 858.644531 C 1314.8125 859.175781 1315.035156 859.902344 1315.527344 860.324219 C 1321.714844 865.601562 1324.164062 873.585938 1329.472656 879.492188 C 1330.105469 880.191406 1330.734375 880.949219 1331.132812 881.789062 C 1333.105469 885.917969 1335.039062 889.933594 1338 893.625 C 1340.222656 896.390625 1340.867188 900.585938 1341.691406 904.265625 C 1342.636719 908.484375 1343.203125 912.820312 1343.570312 917.132812 C 1344.082031 923.066406 1343.914062 929.074219 1344.675781 934.964844 C 1345.328125 940.03125 1347.113281 944.945312 1347.960938 950 C 1348.699219 954.378906 1348.878906 958.859375 1349.203125 963.304688 C 1349.542969 967.882812 1349.988281 972.46875 1349.984375 977.050781 C 1349.980469 987.3125 1345.800781 996.113281 1340.144531 1004.425781 C 1338.601562 1006.695312 1337.878906 1009.523438 1336.800781 1012.101562 C 1336.492188 1012.839844 1336.480469 1013.875 1335.953125 1014.316406 C 1330.847656 1018.570312 1329.53125 1025.484375 1324.832031 1030.03125 C 1323.800781 1031.03125 1323.394531 1032.648438 1322.492188 1033.820312 C 1321.476562 1035.144531 1320.308594 1036.378906 1319.066406 1037.492188 C 1317.171875 1039.1875 1315.09375 1040.683594 1313.207031 1042.386719 C 1311.199219 1044.191406 1309.484375 1046.347656 1307.359375 1047.984375 C 1301.597656 1052.417969 1297.21875 1058.507812 1290.589844 1061.894531 C 1289.648438 1062.371094 1288.960938 1063.316406 1288.066406 1063.910156 C 1285.386719 1065.691406 1282.660156 1067.402344 1279.957031 1069.148438 C 1277.152344 1070.957031 1274.371094 1072.808594 1271.546875 1074.585938 C 1263.886719 1079.402344 1256.484375 1084.734375 1248.449219 1088.8125 C 1242.207031 1091.980469 1237.144531 1096.75 1231 1099.894531 C 1228.84375 1101 1226.550781 1101.882812 1224.253906 1102.667969 C 1221.042969 1103.769531 1217.949219 1104.808594 1215.402344 1107.371094 C 1211.882812 1110.90625 1207.175781 1112.339844 1202.433594 1113.578125 C 1201.019531 1113.945312 1199.46875 1114.472656 1198.421875 1115.417969 C 1194.785156 1118.699219 1190.546875 1120.34375 1185.855469 1121.613281 C 1180.949219 1122.9375 1176.363281 1125.398438 1171.582031 1127.222656 C 1166.28125 1129.25 1160.917969 1131.121094 1155.582031 1133.058594 C 1151.386719 1134.585938 1147.027344 1135.777344 1143.035156 1137.726562 C 1138.878906 1139.757812 1134.746094 1141.507812 1130.152344 1142.265625 C 1128.207031 1142.585938 1126.414062 1143.753906 1124.503906 1144.390625 C 1117.398438 1146.769531 1110.300781 1149.167969 1103.148438 1151.40625 C 1097.734375 1153.097656 1092.265625 1154.625 1086.785156 1156.085938 C 1083.414062 1156.988281 1079.957031 1157.558594 1076.570312 1158.40625 C 1071.972656 1159.550781 1067.421875 1160.878906 1062.820312 1162.023438 C 1058.917969 1162.992188 1054.78125 1163.320312 1051.085938 1164.789062 C 1042.558594 1168.171875 1033.542969 1168.347656 1024.714844 1168.707031 C 1020.867188 1168.863281 1017.414062 1169.371094 1013.824219 1170.410156 C 1012.238281 1170.871094 1010.324219 1170.824219 1008.707031 1170.417969 C 1004.914062 1169.460938 1001.359375 1169.625 997.558594 1170.726562 C 993.972656 1171.769531 990.105469 1171.832031 986.359375 1172.304688 C 982.359375 1172.808594 978.363281 1173.296875 974.359375 1173.769531 C 973.425781 1173.878906 972.472656 1173.828125 971.542969 1173.964844 C 968.753906 1174.371094 965.984375 1174.917969 963.1875 1175.246094 C 960.28125 1175.585938 957.355469 1175.757812 954.433594 1175.953125 C 953.914062 1175.988281 953.21875 1175.515625 952.871094 1175.726562 C 948.085938 1178.601562 942.59375 1176.867188 937.511719 1178.167969 C 931.402344 1179.734375 925.042969 1180.316406 918.796875 1181.371094 C 917.945312 1181.511719 917.136719 1181.917969 916.199219 1182.238281 C 916.503906 1182.925781 916.566406 1183.476562 916.832031 1183.609375 C 921.78125 1186.042969 926.664062 1188.640625 931.75 1190.75 C 935.609375 1192.351562 939.246094 1194.007812 941.042969 1198.035156 C 942.21875 1200.664062 943.917969 1202.125 946.953125 1202.050781 C 950.433594 1201.964844 953.933594 1202 957.394531 1202.300781 C 958.960938 1202.433594 960.574219 1204.011719 961.972656 1203.777344 C 968.820312 1202.625 974.199219 1207.800781 980.738281 1207.851562 C 981.804688 1207.859375 983.058594 1208.738281 983.882812 1209.558594 C 986.945312 1212.628906 990.53125 1213.078125 994.371094 1211.71875 C 997.242188 1210.703125 999.597656 1211.214844 1002.007812 1212.9375 C 1003.011719 1213.652344 1004.6875 1214.316406 1005.695312 1213.96875 C 1008.855469 1212.867188 1011.726562 1213.574219 1014.777344 1214.300781 C 1021.761719 1215.96875 1027.976562 1218.671875 1032.261719 1224.847656 C 1036.195312 1230.515625 1040.1875 1236.167969 1044.488281 1241.554688 C 1048.347656 1246.386719 1052.671875 1250.761719 1057.457031 1254.820312 C 1061.410156 1258.179688 1066.597656 1258.78125 1070.277344 1262.210938 C 1073.425781 1261.625 1075.945312 1263.246094 1078.5 1264.628906 C 1079.671875 1265.261719 1081.058594 1265.933594 1081.714844 1266.984375 C 1083.617188 1270.007812 1086.625 1270.9375 1089.660156 1272.230469 C 1094.695312 1274.367188 1099.730469 1276.683594 1104.308594 1279.636719 C 1106.992188 1281.367188 1109.507812 1282.636719 1112.640625 1283.378906 C 1115.554688 1284.066406 1118.03125 1286.484375 1120.933594 1287.398438 C 1126.183594 1289.046875 1130.394531 1292.25 1134.910156 1295.140625 C 1137.445312 1296.765625 1139.714844 1298.226562 1141.628906 1300.621094 C 1142.769531 1302.054688 1145.078125 1302.589844 1146.902344 1303.433594 C 1150.65625 1305.164062 1154.5 1306.710938 1158.1875 1308.578125 C 1160.066406 1309.527344 1161.183594 1310.992188 1160.554688 1313.582031 C 1160.078125 1315.558594 1160.429688 1317.792969 1160.683594 1319.878906 C 1160.914062 1321.753906 1161.535156 1323.578125 1161.945312 1325.4375 C 1162.527344 1328.078125 1161.980469 1330.191406 1159.457031 1331.722656 C 1158.515625 1332.292969 1157.863281 1333.503906 1157.328125 1334.550781 C 1155.261719 1338.601562 1153.308594 1342.691406 1147.890625 1343.042969 C 1147.265625 1343.082031 1146.605469 1343.511719 1146.070312 1343.90625 C 1140.40625 1348.105469 1133.855469 1349.414062 1127.019531 1349.84375 C 1126.082031 1349.902344 1125.125 1350.078125 1124.226562 1350.351562 C 1121.414062 1351.210938 1119.140625 1350.328125 1117.226562 1348.28125 C 1116.207031 1347.191406 1115.269531 1346.023438 1114.296875 1344.886719 C 1112.59375 1342.898438 1110.519531 1341.953125 1107.828125 1342.292969 C 1105.136719 1342.636719 1102.421875 1342.886719 1099.710938 1342.980469 C 1096.757812 1343.085938 1093.847656 1343.195312 1091.085938 1341.433594 C 1089.765625 1340.59375 1087.71875 1340.996094 1086.09375 1340.523438 C 1081.839844 1339.28125 1077.597656 1337.964844 1073.421875 1336.480469 C 1071.410156 1335.765625 1069.648438 1334.210938 1067.609375 1333.710938 C 1060.734375 1332.03125 1054.351562 1329.449219 1048.390625 1325.535156 C 1045.78125 1323.816406 1042.359375 1323.363281 1039.367188 1322.179688 C 1037.019531 1321.246094 1034.746094 1320.117188 1032.476562 1318.992188 C 1029.730469 1317.636719 1026.949219 1316.328125 1024.328125 1314.75 C 1021.828125 1313.246094 1019.511719 1311.433594 1017.125 1309.746094 C 1015.929688 1308.902344 1014.828125 1307.449219 1013.550781 1307.28125 C 1008.652344 1306.640625 1004.78125 1303.898438 1000.691406 1301.585938 C 994.832031 1298.273438 989.015625 1294.886719 983.171875 1291.550781 C 982.710938 1291.285156 982.183594 1291.121094 981.667969 1290.964844 C 977.714844 1289.761719 973.761719 1288.785156 970 1286.769531 C 967.035156 1285.179688 963.246094 1285.074219 959.796875 1284.4375 C 954.136719 1283.390625 948.484375 1282.15625 942.773438 1281.535156 C 936.667969 1280.871094 930.5 1280.828125 924.9375 1280.539062 C 923.46875 1284.933594 922.273438 1289.152344 920.621094 1293.179688 C 919.679688 1295.476562 918.304688 1297.773438 916.5625 1299.503906 C 914.503906 1301.550781 911.726562 1300.191406 909.238281 1299.914062 C 908.242188 1299.800781 907.21875 1299.765625 906.21875 1299.839844 C 904.226562 1299.980469 902.242188 1300.242188 900.25 1300.410156 C 898.71875 1300.535156 896.941406 1300.117188 895.691406 1300.761719 C 890.523438 1303.417969 885.308594 1303.03125 879.964844 1301.671875 C 875.335938 1300.5 870.726562 1300.699219 865.996094 1301.351562 C 861.777344 1301.933594 857.664062 1301.953125 853.628906 1304.050781 C 851.238281 1305.292969 847.796875 1305.113281 844.9375 1304.738281 C 837.738281 1303.789062 830.597656 1303.773438 823.472656 1305.007812 C 818.039062 1305.949219 812.695312 1307.492188 807.238281 1308.160156 C 798.523438 1309.21875 789.898438 1309.378906 781.113281 1307.203125 C 775.78125 1305.882812 770.0625 1305.371094 764.367188 1305.078125 C 757.679688 1304.738281 751.050781 1303.730469 744.273438 1304.210938 C 741.566406 1304.402344 738.789062 1303.050781 736.011719 1302.863281 C 730.628906 1302.492188 725.21875 1302.574219 719.835938 1302.214844 C 717.191406 1302.035156 714.589844 1301.230469 711.957031 1300.800781 C 709.890625 1300.464844 707.804688 1300.230469 705.722656 1300.027344 C 703.472656 1299.804688 701.21875 1299.667969 698.964844 1299.496094 C 696.304688 1299.292969 693.378906 1298.292969 691.039062 1299.0625 C 686.953125 1300.410156 683.265625 1299.082031 679.4375 1298.6875 C 675.289062 1298.257812 671.191406 1297.289062 667.039062 1296.925781 C 661.898438 1296.476562 657.027344 1295.222656 652.058594 1293.851562 C 646.894531 1292.429688 641.671875 1290.472656 635.894531 1291.378906 C 633.164062 1291.808594 629.738281 1290.917969 627.324219 1289.464844 C 624.53125 1287.789062 621.726562 1286.980469 618.660156 1286.40625 C 614.449219 1285.613281 610.28125 1284.589844 606.085938 1283.71875 C 605.164062 1283.527344 604.164062 1283.375 603.257812 1283.53125 C 596.144531 1284.738281 589.71875 1282.417969 583.296875 1279.867188 C 581.320312 1279.082031 579.230469 1278.230469 577.152344 1278.117188 C 572.589844 1277.867188 567.964844 1278.417969 563.433594 1277.976562 C 559.886719 1277.632812 556.1875 1276.800781 553.007812 1275.253906 C 549 1273.308594 544.929688 1272.675781 540.832031 1273.496094 C 537.59375 1274.144531 534.652344 1276.144531 531.464844 1277.203125 C 528.421875 1278.210938 525.179688 1278.609375 522.128906 1279.59375 C 519.453125 1280.453125 516.914062 1281.742188 514.324219 1282.859375 C 512.28125 1283.738281 510.300781 1284.789062 508.207031 1285.515625 C 501.367188 1287.882812 495.730469 1292.320312 489.742188 1296.148438 C 488.863281 1296.710938 488.285156 1297.730469 487.417969 1298.332031 C 486.011719 1299.3125 484.582031 1300.53125 482.984375 1300.921875 C 477.765625 1302.1875 472.773438 1303.796875 469.03125 1307.886719 C 466.40625 1310.753906 462.804688 1311.53125 459.390625 1312.765625 C 458.007812 1313.265625 456.121094 1313.445312 455.371094 1314.445312 C 452.140625 1318.765625 446.335938 1318.675781 442.726562 1322.203125 C 434.960938 1323.316406 428.398438 1328.316406 420.394531 1328.882812 C 415.070312 1329.257812 409.824219 1330.640625 404.507812 1331.257812 C 402.566406 1331.484375 400.523438 1330.808594 398.523438 1330.554688 C 397.199219 1330.386719 395.851562 1330 394.546875 1330.117188 C 385.757812 1330.894531 371.414062 1321.039062 369.925781 1313.355469 C 369.371094 1310.5 368.609375 1307.921875 371.167969 1305.46875 C 372.246094 1304.433594 372.820312 1302.597656 373.074219 1301.039062 C 374.199219 1294.050781 378.710938 1289.125 383.214844 1284.261719 C 385.488281 1281.804688 388.414062 1279.960938 390.84375 1277.636719 C 393.269531 1275.316406 395.4375 1272.726562 397.738281 1270.277344 C 398.46875 1269.5 399.1875 1268.292969 400.0625 1268.140625 C 403.9375 1267.460938 406.144531 1264.363281 409.164062 1262.476562 C 413.113281 1260.011719 417.683594 1258.53125 421.992188 1256.640625 C 422.851562 1256.265625 423.8125 1256.085938 424.601562 1255.605469 C 429.09375 1252.886719 433.476562 1249.972656 438.058594 1247.417969 C 439.46875 1246.632812 441.390625 1246.726562 443.085938 1246.5 C 444.757812 1246.273438 446.441406 1246.152344 448.234375 1245.488281 C 445.105469 1242.417969 442.273438 1239.335938 437.4375 1239.261719 C 435.546875 1239.234375 433.492188 1238.390625 431.839844 1237.382812 C 428.203125 1235.164062 424.613281 1233.359375 420.167969 1233.078125 C 418.148438 1232.949219 415.933594 1231.3125 414.371094 1229.789062 C 412.3125 1227.785156 410.0625 1226.882812 407.40625 1227.277344 C 405.371094 1227.578125 404.261719 1226.59375 402.769531 1225.523438 C 398.054688 1222.148438 393.113281 1219.089844 388.257812 1215.910156 C 388.144531 1215.835938 388.019531 1215.742188 387.894531 1215.734375 C 379.058594 1215.101562 372.535156 1209.234375 364.980469 1205.6875 C 359.988281 1203.34375 354.828125 1201.367188 349.828125 1199.039062 C 345.738281 1197.136719 341.535156 1195.316406 337.820312 1192.8125 C 332.171875 1189.003906 327.019531 1184.46875 321.433594 1180.5625 C 317.121094 1177.550781 312.363281 1175.175781 307.988281 1172.246094 C 302.992188 1168.902344 297.066406 1166.976562 293.140625 1161.925781 C 291.636719 1159.996094 289 1158.933594 286.839844 1157.539062 C 280.980469 1153.75 276.257812 1148.207031 269.25 1146.195312 C 268.609375 1146.011719 267.710938 1145.742188 267.484375 1145.253906 C 264.25 1138.34375 255.417969 1137.578125 251.851562 1130.988281 C 251.371094 1130.097656 249.824219 1129.742188 248.726562 1129.238281 C 245.613281 1127.808594 243.378906 1125.441406 242.207031 1122.324219 C 240.582031 1118.003906 237.53125 1115.109375 233.757812 1112.785156 C 233.191406 1112.4375 232.371094 1112.347656 231.992188 1111.875 C 229.199219 1108.429688 226.386719 1104.992188 223.773438 1101.410156 C 218.296875 1093.902344 212.773438 1086.425781 207.59375 1078.71875 C 203.523438 1072.664062 199.914062 1066.296875 196.148438 1060.042969 C 194.058594 1056.578125 191.949219 1053.121094 190.070312 1049.539062 C 188.691406 1046.914062 187.820312 1044.019531 186.453125 1041.382812 C 185.414062 1039.386719 183.863281 1037.660156 182.6875 1035.722656 C 180.886719 1032.742188 179.289062 1029.640625 177.460938 1026.679688 C 175.203125 1023.007812 172.839844 1019.394531 170.445312 1015.808594 C 167.867188 1011.945312 165.734375 1007.976562 165.378906 1003.183594 C 165.246094 1001.371094 164.398438 999.605469 163.8125 997.839844 C 162.589844 994.15625 161.324219 990.484375 160.066406 986.8125 C 159.625 985.53125 159.1875 984.246094 158.6875 982.988281 C 157.519531 980.027344 155.453125 977.273438 156.632812 973.773438 C 156.75 973.429688 156.621094 972.945312 156.476562 972.578125 C 153.597656 965.425781 153.050781 957.917969 152.925781 950.324219 C 152.902344 949.007812 152.214844 947.710938 152.070312 946.382812 C 151.828125 944.148438 151.769531 941.894531 151.65625 939.648438 C 151.640625 939.386719 151.886719 939.066406 151.804688 938.859375 C 150.003906 934.5 151.839844 930.441406 152.742188 926.285156 C 153.371094 923.378906 153.777344 920.417969 154.175781 917.46875 C 154.402344 915.777344 154.394531 914.058594 154.511719 912.351562 C 154.566406 911.550781 154.539062 910.714844 154.769531 909.960938 C 157.226562 901.988281 159.78125 894.046875 162.175781 886.054688 C 162.828125 883.878906 163.015625 881.5625 163.441406 879.316406 C 163.664062 878.125 163.707031 876.824219 164.234375 875.773438 C 168.984375 866.332031 173.089844 856.523438 179.527344 848.015625 C 181.972656 844.785156 184.238281 841.355469 187.070312 838.492188 C 193.398438 832.085938 199.894531 825.828125 206.589844 819.808594 C 210.484375 816.308594 214.890625 813.378906 219.085938 810.21875 C 219.625 809.816406 220.242188 809.390625 220.878906 809.273438 C 226.246094 808.300781 230.113281 804.570312 234.664062 802.089844 C 238.6875 799.898438 243.449219 798.777344 248.019531 797.980469 C 251.328125 797.402344 254.789062 797.988281 257.621094 795.46875 C 258.226562 794.929688 259.429688 794.804688 260.320312 794.882812 C 264.851562 795.269531 268.765625 793.554688 272.804688 791.832031 C 275.0625 790.871094 277.773438 790.960938 281.28125 790.425781 Z M 855.863281 352.441406 C 863.246094 353.386719 866.726562 347.949219 868.820312 342.804688 C 871.617188 335.925781 875.097656 329.292969 876.757812 321.832031 C 878.210938 315.28125 877.695312 308.933594 877.59375 302.472656 C 877.535156 298.914062 875.890625 296.695312 872.230469 295.878906 C 870.878906 295.574219 869.691406 294.421875 868.484375 293.578125 C 865.171875 291.25 863.902344 291.761719 863.109375 295.789062 C 862.980469 296.445312 862.878906 297.132812 862.609375 297.738281 C 860.421875 302.628906 858.273438 307.542969 855.953125 312.375 C 854.675781 315.027344 852.703125 317.378906 853.257812 320.65625 C 853.378906 321.363281 853.144531 322.445312 852.652344 322.894531 C 849.355469 325.90625 846.171875 329.128906 842.503906 331.621094 C 839.191406 333.871094 835.078125 334.933594 831.71875 337.132812 C 826.652344 340.453125 821.140625 340.570312 815.625 339.882812 C 811.539062 339.375 807.289062 338.398438 803.628906 336.585938 C 795.347656 332.484375 792.667969 324.226562 790.410156 316.117188 C 789.617188 313.269531 789.074219 310.414062 787.625 307.792969 C 787.035156 306.734375 786.664062 305.546875 786.265625 304.390625 C 784.984375 300.675781 782.480469 298.886719 778.753906 299.015625 C 775.605469 299.125 774.34375 300.210938 774.820312 303.171875 C 775.527344 307.574219 773.878906 311.261719 771.511719 314.550781 C 768.6875 318.480469 765.230469 321.945312 762.214844 325.742188 C 757.585938 331.5625 750.710938 333.25 744.195312 335.171875 C 740.601562 336.230469 736.398438 335.007812 732.5625 335.523438 C 724.152344 336.652344 717.890625 333.515625 712.960938 326.914062 C 711.761719 325.3125 710.066406 324.089844 708.769531 322.550781 C 705.300781 318.441406 700.964844 314.707031 698.753906 309.988281 C 695.90625 303.910156 690.792969 298.507812 691.417969 291.03125 C 691.445312 290.660156 691.113281 290.273438 691.046875 289.875 C 690.710938 287.917969 689.445312 287.613281 687.734375 287.855469 C 682.828125 288.558594 676.625 295.0625 676.140625 300.015625 C 675.804688 303.488281 675.617188 306.992188 674.984375 310.414062 C 673.96875 315.929688 673.554688 321.335938 676.234375 326.519531 C 679.679688 333.1875 681.832031 335.3125 688.976562 332.867188 C 687.246094 328.058594 685.554688 323.234375 683.773438 318.445312 C 682.453125 314.886719 683.789062 313.089844 687.605469 313.105469 C 689.75 313.113281 690.707031 314.429688 691.722656 315.925781 C 696.070312 322.34375 699.117188 329.40625 701.363281 336.75 C 703.941406 345.1875 706.5625 353.738281 712.1875 360.527344 C 716.917969 366.238281 720.308594 372.605469 724.039062 378.84375 C 725.964844 382.058594 727.667969 385.414062 729.640625 388.601562 C 732.449219 393.132812 735.074219 397.8125 739.59375 401.007812 C 745.210938 404.976562 750.675781 409.171875 756.402344 412.972656 C 757.625 413.78125 759.707031 413.355469 761.394531 413.390625 C 762.964844 413.421875 764.859375 412.710938 766.050781 413.359375 C 771.015625 416.070312 775.578125 414.539062 779.894531 412.242188 C 783.152344 410.507812 786.21875 408.746094 790.042969 408.515625 C 791.398438 408.4375 792.683594 407.253906 794.011719 406.609375 C 796.398438 405.449219 798.867188 404.445312 801.164062 403.136719 C 805.671875 400.566406 810.890625 399.011719 814.097656 394.519531 C 817.054688 390.367188 819.894531 386.132812 822.855469 381.984375 C 824.488281 379.699219 827.101562 377.742188 827.753906 375.238281 C 828.519531 372.316406 830.242188 370.519531 832.074219 368.617188 C 835.417969 365.148438 838.214844 361.433594 839.546875 356.664062 C 840.078125 354.765625 841.441406 353.105469 842.355469 351.296875 C 843.988281 348.066406 845.410156 344.714844 847.21875 341.582031 C 848.695312 339.023438 850.441406 336.566406 852.382812 334.335938 C 853.921875 332.566406 856.398438 331.957031 858.347656 333.191406 C 860.296875 334.425781 860.417969 336.71875 859.71875 339.035156 C 858.363281 343.5 857.195312 348.019531 855.953125 352.515625 C 855.765625 352.613281 855.578125 352.710938 855.390625 352.804688 C 855.523438 352.886719 855.660156 352.96875 855.792969 353.046875 C 855.816406 352.847656 855.839844 352.644531 855.863281 352.441406 Z M 921.988281 1206.6875 C 916.648438 1203.386719 912.0625 1199.820312 905.605469 1201.859375 C 904.253906 1202.289062 902.363281 1201.691406 900.933594 1201.070312 C 895.875 1198.882812 890.699219 1197.796875 885.160156 1198.269531 C 881.378906 1198.589844 877.761719 1198.066406 874.152344 1196.429688 C 871.828125 1195.375 868.871094 1195.210938 866.257812 1195.421875 C 863.042969 1195.679688 859.992188 1196.222656 856.855469 1194.804688 C 854.652344 1193.808594 852.175781 1192.675781 849.878906 1192.792969 C 844.664062 1193.0625 840.121094 1190.765625 835.265625 1189.742188 C 833.253906 1189.316406 831.492188 1187.804688 829.527344 1187.011719 C 826.804688 1185.90625 824 1184.988281 821.214844 1184.042969 C 819.820312 1183.570312 818.40625 1183.105469 816.964844 1182.824219 C 812.578125 1181.972656 809.761719 1178.695312 806.378906 1176.25 C 803.117188 1173.898438 799.878906 1171.132812 796.183594 1169.851562 C 786.472656 1166.488281 776.421875 1164.105469 766.699219 1160.78125 C 761.78125 1159.101562 756.929688 1157.585938 751.753906 1157.207031 C 749.375 1157.035156 747.296875 1156.65625 745.992188 1154.1875 C 745.535156 1153.320312 744.027344 1152.859375 742.90625 1152.511719 C 734.660156 1149.96875 726.230469 1148 718.902344 1143.027344 C 716.980469 1141.722656 714.40625 1141.316406 712.085938 1140.6875 C 710.335938 1140.210938 708.050781 1140.609375 706.796875 1139.617188 C 703.777344 1137.226562 700.234375 1136.074219 696.925781 1134.363281 C 692.148438 1131.890625 687.746094 1128.792969 682.558594 1127.019531 C 674.570312 1124.292969 666.753906 1121.089844 659.046875 1117.625 C 654.550781 1115.605469 649.839844 1114.082031 645.292969 1112.171875 C 641.691406 1110.660156 638.332031 1107.992188 634.625 1107.441406 C 627.855469 1106.445312 622.105469 1103.722656 616.496094 1100.097656 C 612.546875 1097.539062 607.960938 1095.910156 604.191406 1093.140625 C 599.496094 1089.691406 594.117188 1087.980469 588.832031 1086.148438 C 586.105469 1085.203125 583.957031 1084.171875 582.332031 1081.839844 C 581.066406 1080.015625 579.378906 1079.207031 577.019531 1078.679688 C 573.269531 1077.839844 569.191406 1076.550781 566.328125 1074.160156 C 562.664062 1071.101562 558.558594 1069.878906 554.28125 1068.90625 C 550.855469 1068.128906 547.601562 1067 545.398438 1064.425781 C 542.664062 1061.230469 539.542969 1060.636719 535.660156 1061.007812 C 533.03125 1061.257812 530 1061.535156 527.730469 1060.507812 C 522.777344 1058.265625 518.320312 1055.015625 515.640625 1050.019531 C 513.816406 1046.617188 512.574219 1042.816406 508.183594 1041.703125 C 507.632812 1041.566406 507.292969 1040.703125 506.785156 1040.257812 C 504.609375 1038.355469 502.691406 1035.585938 500.15625 1034.785156 C 495.007812 1033.164062 491.050781 1030.386719 487.773438 1026.257812 C 486.882812 1025.140625 485.53125 1024.34375 484.285156 1023.566406 C 482.226562 1022.277344 480.035156 1021.191406 477.980469 1019.890625 C 473.875 1017.289062 469.761719 1014.6875 465.765625 1011.921875 C 460.109375 1008 454.558594 1003.925781 448.953125 999.925781 C 448.070312 999.296875 447.101562 998.785156 446.242188 998.125 C 444.574219 996.835938 442.890625 995.554688 441.328125 994.140625 C 436.914062 990.152344 432.890625 985.625 428.046875 982.265625 C 425.574219 980.554688 423.144531 979.082031 421.410156 976.609375 C 420.113281 974.757812 418.929688 972.800781 417.457031 971.097656 C 415.25 968.539062 412.832031 966.160156 410.515625 963.699219 C 409.867188 963.007812 409.359375 961.808594 408.613281 961.644531 C 403.175781 960.460938 400.878906 955.46875 397.117188 952.292969 C 395.097656 950.585938 393.546875 948.210938 392.152344 945.914062 C 389.734375 941.933594 391.476562 938.351562 393.734375 934.945312 C 395.625 932.09375 398.570312 932.210938 401.035156 933.28125 C 406.078125 935.476562 410.832031 938.203125 415.144531 941.808594 C 418.710938 944.792969 421.234375 949.160156 426.097656 950.53125 C 426.585938 950.671875 427.027344 951.050781 427.433594 951.386719 C 431.148438 954.488281 434.847656 957.605469 438.5625 960.707031 C 440.828125 962.601562 443.019531 964.601562 445.398438 966.34375 C 450.710938 970.234375 456.089844 974.03125 461.496094 977.789062 C 463.144531 978.933594 464.851562 980.324219 466.726562 980.742188 C 471.292969 981.761719 473.4375 985.699219 476.074219 988.644531 C 477.609375 990.363281 478.941406 991.945312 480.984375 993.019531 C 483.375 994.277344 486.121094 995.261719 487.949219 997.117188 C 493.769531 1003.03125 502.003906 1005.015625 508.277344 1010.121094 C 508.34375 1010.175781 508.535156 1010.074219 509.101562 1009.960938 C 509.101562 1008.183594 509.191406 1006.308594 509.085938 1004.441406 C 508.664062 996.777344 508.269531 989.113281 507.675781 981.464844 C 507.4375 978.382812 506.648438 975.347656 506.21875 972.277344 C 505.484375 967.050781 505.539062 961.589844 503.976562 956.632812 C 502 950.359375 503.792969 943.363281 499.921875 937.542969 C 499.558594 936.996094 499.964844 935.960938 499.957031 935.152344 C 499.894531 929.910156 500.554688 924.515625 499.539062 919.457031 C 498.511719 914.351562 498.179688 909.410156 498.851562 903.839844 C 497.0625 903.984375 495.496094 904.214844 493.929688 904.21875 C 490.441406 904.222656 486.804688 904.730469 483.5 903.917969 C 477.746094 902.507812 472.207031 900.242188 466.5625 898.371094 C 465.800781 898.121094 464.929688 898.183594 464.179688 897.914062 C 461.289062 896.878906 458.261719 896.074219 455.597656 894.613281 C 451.566406 892.410156 447.863281 889.582031 442.992188 889.460938 C 439.652344 889.382812 436.757812 888.164062 434.160156 886.066406 C 433.46875 885.507812 432.308594 884.960938 431.550781 885.148438 C 425.210938 886.710938 419.597656 883.871094 414.074219 881.882812 C 405.296875 878.722656 396.820312 874.707031 388.289062 870.886719 C 380.457031 867.378906 372.730469 863.636719 364.941406 860.027344 C 362.371094 858.835938 359.5625 858.042969 357.191406 856.546875 C 351.585938 853.019531 346.183594 849.167969 340.683594 845.464844 C 338.996094 844.328125 337.390625 842.898438 335.527344 842.214844 C 329.195312 839.894531 324.589844 835.261719 319.757812 830.929688 C 314.105469 825.863281 308.71875 820.492188 302.933594 815.582031 C 298.863281 812.132812 294.296875 809.410156 288.46875 811.378906 C 287.640625 811.65625 286.625 811.308594 285.703125 811.378906 C 282.917969 811.582031 280.125 811.773438 277.355469 812.121094 C 275.503906 812.355469 273.683594 812.832031 271.851562 813.226562 C 269.257812 813.78125 266.6875 814.460938 264.078125 814.898438 C 261.496094 815.335938 258.71875 816.222656 256.308594 815.675781 C 253.285156 814.988281 251.046875 815.941406 248.679688 817.203125 C 244.628906 819.363281 240.675781 821.707031 236.566406 823.75 C 232.335938 825.855469 227.695312 827.261719 223.730469 829.757812 C 218.941406 832.769531 214.558594 836.476562 210.21875 840.140625 C 207.742188 842.230469 205.871094 845.027344 203.429688 847.167969 C 196.644531 853.125 190.859375 859.78125 187.214844 868.15625 C 186.199219 870.488281 184.769531 872.636719 183.699219 874.949219 C 182.8125 876.875 182.175781 878.910156 181.433594 880.902344 C 180.394531 883.675781 179.320312 886.4375 178.339844 889.234375 C 176.90625 893.308594 174.902344 897.3125 174.289062 901.511719 C 173.019531 910.195312 172.527344 918.988281 171.667969 927.730469 C 171.507812 929.351562 171.414062 931.070312 170.785156 932.523438 C 169.746094 934.9375 169.800781 937.132812 170.574219 939.617188 C 171.195312 941.605469 171.894531 944.125 171.195312 945.863281 C 168.953125 951.445312 171.234375 956.699219 173.121094 961.164062 C 176.207031 968.457031 176.46875 976.371094 179.671875 983.597656 C 182.273438 989.464844 183.417969 995.972656 185.273438 1002.175781 C 185.535156 1003.046875 185.992188 1004.019531 186.664062 1004.578125 C 190.546875 1007.804688 191.523438 1012.746094 194.003906 1016.789062 C 195.53125 1019.28125 196.519531 1022.105469 198.0625 1024.589844 C 200.921875 1029.203125 204.710938 1033.273438 205.710938 1038.914062 C 205.878906 1039.855469 206.917969 1040.65625 207.605469 1041.480469 C 208.472656 1042.519531 209.664062 1043.382812 210.25 1044.558594 C 213.191406 1050.46875 216.667969 1056.011719 220.644531 1061.292969 C 222.640625 1063.945312 223.871094 1067.171875 225.765625 1069.917969 C 227.351562 1072.214844 229.414062 1074.179688 231.242188 1076.3125 C 233.613281 1079.074219 236.003906 1081.816406 238.304688 1084.632812 C 240 1086.703125 241.523438 1088.914062 243.203125 1090.996094 C 243.871094 1091.828125 244.910156 1092.375 245.511719 1093.242188 C 248.84375 1098.042969 251.332031 1103.671875 257.867188 1105.195312 C 258.441406 1105.328125 258.90625 1106.039062 259.359375 1106.542969 C 263.300781 1110.953125 267.351562 1115.273438 271.121094 1119.828125 C 273.875 1123.152344 277.101562 1125.507812 281.175781 1126.976562 C 283.160156 1127.691406 284.839844 1129.234375 286.664062 1130.394531 C 290.164062 1132.625 293.730469 1134.757812 297.15625 1137.097656 C 299.769531 1138.882812 303.367188 1139.0625 305.140625 1142.277344 C 305.960938 1143.757812 307.171875 1145.132812 308.484375 1146.214844 C 311.097656 1148.371094 313.859375 1150.355469 316.652344 1152.277344 C 317.621094 1152.941406 318.921875 1153.101562 319.972656 1153.675781 C 323.230469 1155.449219 326.628906 1157.054688 329.628906 1159.203125 C 333.488281 1161.972656 335.859375 1166.84375 341.375 1167.273438 C 341.945312 1167.316406 342.441406 1168.054688 343.019531 1168.382812 C 345.828125 1169.976562 348.660156 1171.527344 351.472656 1173.121094 C 354 1174.550781 356.519531 1176 359.027344 1177.46875 C 361.988281 1179.210938 364.765625 1181.960938 367.925781 1182.5 C 371.992188 1183.191406 375.195312 1184.882812 378.4375 1187.0625 C 383.371094 1190.382812 388.398438 1193.5625 393.402344 1196.777344 C 393.851562 1197.066406 394.398438 1197.285156 394.921875 1197.351562 C 404.351562 1198.585938 412.226562 1203.84375 420.578125 1207.675781 C 426.863281 1210.5625 432.914062 1213.984375 439.492188 1216.257812 C 441.019531 1216.789062 443.078125 1216.613281 444.109375 1217.589844 C 450.074219 1223.230469 459.09375 1221.953125 465.195312 1227.140625 C 465.460938 1227.363281 465.988281 1227.269531 466.386719 1227.351562 C 471.664062 1228.460938 477.082031 1228.945312 481.933594 1231.730469 C 484.59375 1233.257812 487.46875 1234.742188 490.433594 1235.335938 C 494.917969 1236.238281 499.441406 1236.746094 503.714844 1238.617188 C 507.289062 1240.183594 511.015625 1241.40625 514.703125 1242.703125 C 515.957031 1243.144531 517.277344 1243.53125 518.589844 1243.644531 C 526.179688 1244.304688 533.574219 1245.710938 540.625 1248.710938 C 541.71875 1249.179688 543.15625 1249.863281 544.089844 1249.515625 C 548.585938 1247.851562 552.492188 1249.117188 556.347656 1251.324219 C 556.792969 1251.578125 557.40625 1251.527344 557.941406 1251.640625 C 562.808594 1252.65625 567.660156 1253.761719 572.546875 1254.667969 C 575.296875 1255.175781 578.140625 1255.195312 580.886719 1255.722656 C 585.609375 1256.625 590.292969 1257.742188 594.988281 1258.792969 C 598.941406 1259.675781 602.875 1260.621094 606.832031 1261.484375 C 609.59375 1262.085938 612.355469 1262.753906 615.15625 1263.101562 C 618.644531 1263.53125 622.230469 1263.332031 625.660156 1263.992188 C 631.296875 1265.082031 636.972656 1266.257812 642.382812 1268.125 C 646.761719 1269.632812 651.027344 1271.113281 655.695312 1271.164062 C 656.074219 1271.167969 656.542969 1271.359375 656.808594 1271.625 C 659.132812 1273.949219 661.9375 1273.660156 664.832031 1273.277344 C 665.859375 1273.140625 666.949219 1273.40625 668 1273.546875 C 671.597656 1274.039062 675.1875 1274.605469 678.792969 1275.046875 C 680.535156 1275.257812 682.457031 1274.835938 684.039062 1275.417969 C 688.628906 1277.105469 693.222656 1277.226562 698.011719 1276.652344 C 701.292969 1276.257812 704.710938 1275.371094 707.910156 1277.445312 C 708.597656 1277.894531 709.765625 1277.582031 710.707031 1277.660156 C 712.980469 1277.855469 715.253906 1278.019531 717.515625 1278.296875 C 720.058594 1278.605469 722.582031 1279.269531 725.125 1279.339844 C 729.566406 1279.457031 733.960938 1279.179688 738.347656 1280.589844 C 741.515625 1281.609375 744.957031 1281.9375 748.304688 1282.21875 C 754.722656 1282.757812 761.160156 1283.027344 767.582031 1283.464844 C 768.21875 1283.507812 768.804688 1284.113281 769.449219 1284.210938 C 773.769531 1284.859375 777.964844 1286.859375 782.476562 1284.289062 C 785.378906 1282.636719 788.765625 1283.28125 792 1284.019531 C 793.378906 1284.335938 794.875 1284.15625 796.320312 1284.144531 C 798.03125 1284.128906 799.746094 1284.039062 801.457031 1284.007812 C 803.183594 1283.980469 804.914062 1284.066406 806.632812 1283.949219 C 807.960938 1283.859375 809.277344 1283.550781 810.59375 1283.304688 C 814.117188 1282.636719 817.945312 1283.9375 821.234375 1281.558594 C 821.734375 1281.199219 822.878906 1281.371094 823.554688 1281.675781 C 827.589844 1283.488281 831.507812 1282.34375 835.476562 1281.453125 C 836.753906 1281.167969 838.109375 1281.089844 839.421875 1281.148438 C 842.082031 1281.261719 844.730469 1281.601562 847.390625 1281.71875 C 849.273438 1281.804688 851.167969 1281.738281 853.054688 1281.628906 C 858.46875 1281.316406 863.949219 1284.667969 869.332031 1281.347656 C 869.722656 1281.105469 870.394531 1281.316406 870.9375 1281.332031 C 876.410156 1281.472656 881.902344 1280.640625 887.355469 1281.902344 C 888.472656 1282.160156 889.804688 1281.804688 890.972656 1281.488281 C 894.226562 1280.605469 897.464844 1279.640625 900.679688 1278.613281 C 902.808594 1277.933594 903.910156 1276.480469 904.191406 1274.140625 C 904.5 1271.59375 905.078125 1269.042969 905.890625 1266.609375 C 906.417969 1265.03125 907.863281 1263.761719 908.378906 1262.183594 C 909.410156 1259.023438 910.308594 1255.785156 910.835938 1252.515625 C 911.363281 1249.25 913.75 1246.550781 914.105469 1243.636719 C 914.636719 1239.320312 916.460938 1235.679688 917.832031 1231.773438 C 918.269531 1230.53125 918.492188 1229.203125 918.703125 1227.894531 C 918.929688 1226.476562 918.996094 1225.03125 919.179688 1223.605469 C 919.636719 1220.046875 920.785156 1216.40625 920.355469 1212.960938 C 920.054688 1210.546875 920.132812 1208.804688 921.988281 1206.683594 Z M 532.566406 1025.28125 C 534.203125 1025.988281 535.292969 1026.847656 536.390625 1026.851562 C 538.769531 1026.855469 540.398438 1028.050781 541.996094 1029.507812 C 545.652344 1032.851562 549.613281 1035.546875 554.78125 1035.96875 C 555.609375 1036.039062 556.6875 1036.65625 557.117188 1037.351562 C 558.945312 1040.296875 561.863281 1040.679688 564.863281 1041.125 C 566.144531 1041.316406 567.386719 1041.832031 568.621094 1042.261719 C 570.878906 1043.046875 573.0625 1044.3125 575.375 1044.597656 C 579.796875 1045.144531 584.289062 1045.214844 588.753906 1045.339844 C 591.140625 1045.40625 593.539062 1045.265625 595.917969 1045.042969 C 598.199219 1044.832031 600.480469 1044 602.722656 1044.136719 C 609.15625 1044.53125 615.632812 1044.898438 621.96875 1045.992188 C 628.398438 1047.105469 635.066406 1045.316406 641.332031 1047.855469 C 642.027344 1048.136719 643.015625 1048.085938 643.746094 1047.832031 C 647.996094 1046.347656 652.035156 1047.671875 656.070312 1048.695312 C 665.5625 1051.105469 675.074219 1053.160156 684.976562 1051.890625 C 686 1051.761719 687.117188 1051.898438 688.117188 1052.175781 C 695.15625 1054.121094 702.101562 1056.527344 709.613281 1055.695312 C 712.835938 1055.335938 716.089844 1055.058594 719.332031 1055.046875 C 721.730469 1055.039062 724.683594 1054.726562 726.421875 1055.9375 C 731.011719 1059.128906 735.363281 1057.382812 739.699219 1056.164062 C 742.121094 1055.484375 744.1875 1054.96875 746.738281 1055.777344 C 748.710938 1056.402344 751.011719 1055.957031 753.167969 1056.007812 C 755.019531 1056.054688 756.992188 1055.742188 758.699219 1056.269531 C 764.550781 1058.089844 770.308594 1059.375 776.597656 1058.605469 C 781.097656 1058.058594 785.824219 1058.46875 790.34375 1059.164062 C 795.433594 1059.945312 800.183594 1059.976562 804.921875 1057.621094 C 808.515625 1055.832031 812.339844 1054.503906 816.082031 1053.015625 C 816.691406 1052.773438 817.402344 1052.605469 818.046875 1052.664062 C 822.65625 1053.089844 826.402344 1051.296875 830.023438 1048.613281 C 831.886719 1047.234375 834.25 1046.429688 836.492188 1045.683594 C 841.097656 1044.152344 845.828125 1043.269531 850.28125 1040.945312 C 855.75 1038.089844 862.09375 1036.898438 867.535156 1034 C 871.917969 1031.664062 877.84375 1034.359375 881.175781 1029.332031 C 881.410156 1028.976562 882.480469 1029.226562 883.144531 1029.09375 C 888.925781 1027.949219 895.050781 1027.613281 900.386719 1025.386719 C 905.734375 1023.15625 911.214844 1021.945312 916.722656 1020.695312 C 921.152344 1019.691406 924.496094 1016.226562 929.453125 1016.179688 C 933.214844 1016.144531 936.933594 1014.269531 940.714844 1013.398438 C 946.511719 1012.066406 952.550781 1011.46875 958.085938 1009.453125 C 961.917969 1008.058594 965.601562 1006.066406 969.671875 1006.101562 C 974.320312 1006.140625 978.367188 1004.574219 982.59375 1003.066406 C 993.285156 999.242188 1003.941406 995.175781 1014.890625 992.261719 C 1021.183594 990.589844 1025.675781 986.472656 1030.785156 983.988281 C 1029.988281 980.828125 1029.640625 977.832031 1028.472656 975.195312 C 1026.078125 969.773438 1026.824219 964.109375 1027.800781 958.855469 C 1028.710938 953.980469 1030.601562 949.332031 1030.273438 944.1875 C 1030.15625 942.363281 1031.253906 940.480469 1031.277344 938.617188 C 1031.359375 931.871094 1031.148438 925.117188 1031.1875 918.367188 C 1031.222656 911.769531 1031.253906 905.160156 1031.617188 898.574219 C 1031.824219 894.824219 1032.671875 891.101562 1033.273438 887.375 C 1033.554688 885.644531 1034.308594 883.914062 1034.222656 882.214844 C 1033.910156 876.148438 1033.316406 870.097656 1032.859375 864.039062 C 1032.460938 858.773438 1031.738281 853.496094 1031.855469 848.238281 C 1031.933594 844.632812 1032.617188 841.164062 1031.742188 837.457031 C 1030.917969 833.972656 1031.300781 830.214844 1031.039062 826.585938 C 1030.734375 822.402344 1029.746094 818.195312 1030.042969 814.066406 C 1030.722656 804.605469 1032.027344 795.1875 1033.023438 785.746094 C 1033.691406 779.402344 1034.296875 773.054688 1034.867188 766.703125 C 1035 765.199219 1034.816406 764.117188 1032.847656 763.367188 C 1028.105469 761.558594 1023.128906 759.808594 1019.074219 756.882812 C 1013.664062 752.976562 1008.390625 750.914062 1002.011719 753.558594 C 999.742188 754.5 997.980469 754.269531 995.964844 752.851562 C 992.105469 750.136719 987.761719 748.457031 982.992188 749.574219 C 980.410156 750.179688 978.105469 749.96875 975.910156 748.796875 C 973.695312 747.613281 971.660156 747.378906 969.3125 748.445312 C 968.328125 748.890625 966.800781 748.992188 965.859375 748.542969 C 960.359375 745.917969 954.996094 745.789062 949.570312 748.6875 C 948.785156 749.105469 947.765625 749.171875 946.84375 749.234375 C 942.28125 749.550781 937.710938 749.859375 933.140625 750.058594 C 931.992188 750.109375 930.824219 749.765625 929.671875 749.5625 C 926.5 748.992188 923.320312 747.871094 920.164062 747.933594 C 914.554688 748.042969 908.945312 748.761719 903.363281 749.421875 C 897.703125 750.089844 891.796875 749.253906 886.472656 752.175781 C 885.78125 752.554688 884.539062 752.484375 883.796875 752.121094 C 876.972656 748.800781 870.171875 750.085938 863.34375 752.027344 C 862.441406 752.28125 861.457031 752.730469 860.601562 752.574219 C 855.582031 751.65625 850.664062 750.964844 845.460938 751.808594 C 841.589844 752.433594 837.5 751.675781 833.503906 751.613281 C 832.71875 751.601562 831.929688 752.023438 831.128906 752.105469 C 830.074219 752.21875 829.003906 752.265625 827.945312 752.21875 C 823.523438 752.027344 819.101562 751.542969 814.6875 751.632812 C 809.453125 751.734375 804.226562 752.335938 798.992188 752.683594 C 796.03125 752.878906 793.0625 752.941406 790.101562 753.160156 C 788.574219 753.273438 786.980469 753.363281 785.5625 753.871094 C 782.277344 755.039062 779.167969 756.566406 775.535156 754.792969 C 774.453125 754.265625 772.882812 754.699219 771.539062 754.753906 C 767.859375 754.910156 764.183594 755.109375 760.503906 755.269531 C 760.25 755.28125 759.980469 755.15625 759.726562 755.0625 C 753.210938 752.691406 746.738281 753.675781 740.195312 755.070312 C 737.746094 755.59375 735.082031 755.53125 732.574219 755.242188 C 730.726562 755.03125 729.21875 754.921875 727.636719 756.148438 C 725.441406 757.84375 722.601562 757.429688 720.726562 756.203125 C 716.902344 753.707031 713.335938 754.621094 709.457031 755.542969 C 705.21875 756.554688 700.601562 754.945312 696.472656 757.199219 C 696.238281 757.328125 695.738281 756.875 695.34375 756.820312 C 692.414062 756.429688 689.332031 755.324219 686.585938 755.871094 C 681.925781 756.800781 677.375 757.21875 672.617188 757.328125 C 668.140625 757.429688 663.308594 755.085938 659.019531 758.367188 C 658.722656 758.59375 657.984375 758.273438 657.457031 758.175781 C 652.203125 757.199219 647.148438 754.445312 641.550781 756.414062 C 641.109375 756.570312 640.492188 756.128906 639.964844 756.15625 C 636.632812 756.320312 633.296875 756.464844 629.972656 756.761719 C 627.964844 756.941406 625.347656 758.335938 624.109375 757.515625 C 620.667969 755.238281 616.980469 756.691406 613.492188 755.910156 C 609.839844 755.09375 605.894531 754.855469 602.183594 755.285156 C 599.457031 755.601562 597.097656 756.238281 594.101562 755.679688 C 587.375 754.421875 580.34375 754.816406 573.601562 753.609375 C 567.628906 752.539062 561.789062 752.84375 555.847656 752.976562 C 553.125 753.039062 550.355469 752.238281 547.652344 751.632812 C 545.164062 751.078125 542.765625 749.875 540.269531 749.675781 C 537.804688 749.480469 535.210938 750.683594 532.777344 750.390625 C 527.328125 749.738281 521.886719 748.78125 516.554688 747.484375 C 512.367188 746.460938 510.636719 747.679688 511.101562 752.019531 C 511.476562 755.527344 511.652344 759.050781 512.007812 762.558594 C 512.511719 767.523438 513.117188 772.476562 513.648438 777.4375 C 514.046875 781.148438 514.523438 784.859375 514.738281 788.582031 C 515.101562 794.917969 514.816406 801.332031 515.71875 807.582031 C 516.335938 811.882812 515.5 816.5625 518.152344 820.515625 C 518.355469 820.820312 518.324219 821.3125 518.324219 821.71875 C 518.304688 826.023438 518.246094 830.328125 518.261719 834.632812 C 518.265625 835.421875 518.386719 836.296875 518.738281 836.988281 C 520.777344 840.984375 520.410156 845.265625 520.503906 849.539062 C 520.617188 854.621094 520.710938 859.753906 521.5 864.757812 C 522.441406 870.703125 523.4375 876.488281 521.484375 882.433594 C 520.269531 886.125 521.191406 889.636719 523.246094 892.9375 C 523.921875 894.023438 524.574219 895.535156 524.363281 896.6875 C 523.3125 902.375 526.128906 907.828125 525.027344 913.539062 C 524.140625 918.132812 526.589844 922.800781 524.820312 927.597656 C 524.164062 929.378906 525.257812 931.828125 525.652344 933.957031 C 526.066406 936.191406 526.546875 938.417969 527.085938 940.625 C 527.808594 943.574219 526.414062 946.929688 528.914062 949.582031 C 529.296875 949.988281 528.777344 951.152344 528.863281 951.945312 C 529.398438 956.726562 528.0625 961.628906 529.917969 966.328125 C 532.15625 971.992188 532.457031 977.90625 532.03125 983.910156 C 531.945312 985.101562 532 986.445312 532.476562 987.5 C 534.050781 990.96875 534.640625 994.691406 533.910156 998.246094 C 533.039062 1002.5 534.433594 1006.53125 534.160156 1010.671875 C 534.113281 1011.425781 534.273438 1012.460938 534.761719 1012.9375 C 538.171875 1016.304688 535.890625 1019.414062 534.433594 1022.542969 C 534.050781 1023.367188 533.402344 1024.074219 532.5625 1025.28125 Z M 712.550781 1115.925781 L 712.480469 1117.273438 C 718.390625 1120.398438 724.265625 1123.582031 730.21875 1126.625 C 734.042969 1128.578125 737.917969 1130.453125 741.886719 1132.089844 C 743.835938 1132.894531 746.089844 1132.9375 748.132812 1133.566406 C 750.414062 1134.269531 752.601562 1135.28125 754.851562 1136.09375 C 757.222656 1136.953125 759.65625 1137.644531 761.992188 1138.578125 C 764.726562 1139.667969 767.382812 1140.953125 770.078125 1142.140625 C 774.253906 1143.980469 778.488281 1145.703125 782.589844 1147.703125 C 784.078125 1148.425781 785.179688 1148.417969 786.75 1147.945312 C 788.757812 1147.339844 791.125 1146.886719 793.085938 1147.378906 C 797.097656 1148.382812 801.015625 1149.882812 804.839844 1151.496094 C 813.0625 1154.96875 821.160156 1158.738281 829.390625 1162.191406 C 834.996094 1164.546875 840.820312 1166.382812 846.386719 1168.8125 C 850.027344 1170.398438 853.480469 1170.949219 857.421875 1170.101562 C 863.488281 1168.800781 869.683594 1168.113281 875.777344 1166.917969 C 879.277344 1166.230469 882.664062 1164.984375 886.128906 1164.113281 C 889.238281 1163.328125 892.566406 1161.730469 895.46875 1162.265625 C 899.167969 1162.945312 902.480469 1162.058594 905.867188 1161.605469 C 916.53125 1160.171875 927.152344 1158.417969 937.769531 1156.660156 C 945.867188 1155.320312 954.160156 1156.527344 962.21875 1154.65625 C 963.210938 1154.425781 964.34375 1154.878906 965.410156 1154.871094 C 967.011719 1154.863281 968.625 1154.820312 970.214844 1154.636719 C 974.363281 1154.152344 978.492188 1153.476562 982.648438 1153.078125 C 986.945312 1152.671875 991.402344 1153.085938 995.539062 1152.09375 C 1003.148438 1150.269531 1010.726562 1149.734375 1018.476562 1150.394531 C 1019.707031 1150.496094 1021.007812 1150.003906 1022.25 1149.6875 C 1026.480469 1148.617188 1030.464844 1146.183594 1035.15625 1147.90625 C 1036.277344 1148.320312 1037.878906 1147.96875 1039.089844 1147.511719 C 1042.707031 1146.140625 1046.167969 1144.3125 1049.835938 1143.117188 C 1052.230469 1142.332031 1054.878906 1142.296875 1057.421875 1141.984375 C 1060.609375 1141.59375 1063.835938 1141.433594 1066.988281 1140.867188 C 1072.429688 1139.894531 1077.648438 1137.734375 1083.355469 1138.121094 C 1085.808594 1138.285156 1087.964844 1137.460938 1089.9375 1135.601562 C 1091.585938 1134.042969 1093.519531 1132.761719 1096.160156 1132.304688 C 1101.464844 1131.386719 1106.648438 1129.71875 1111.832031 1128.191406 C 1112.777344 1127.914062 1113.917969 1127.011719 1114.242188 1126.128906 C 1115.261719 1123.328125 1117.40625 1123.816406 1119.582031 1123.722656 C 1122.367188 1123.601562 1125.367188 1123.675781 1127.871094 1122.667969 C 1131.953125 1121.019531 1135.683594 1118.5 1139.628906 1116.484375 C 1140.667969 1115.953125 1141.964844 1115.730469 1143.148438 1115.710938 C 1147.507812 1115.644531 1151.765625 1115.484375 1154.742188 1111.539062 C 1155.085938 1111.082031 1155.917969 1110.679688 1156.46875 1110.742188 C 1160.128906 1111.15625 1163.316406 1109.578125 1166.710938 1108.691406 C 1173.996094 1106.785156 1180.308594 1102.867188 1186.957031 1099.625 C 1190.582031 1097.855469 1194.167969 1095.515625 1198.023438 1094.808594 C 1202.902344 1093.914062 1206.757812 1091.566406 1210.011719 1088.375 C 1212.90625 1085.53125 1216.183594 1083.738281 1219.726562 1082.035156 C 1224.375 1079.804688 1229.816406 1078.707031 1232.496094 1073.382812 C 1232.992188 1072.402344 1234.75 1072.0625 1235.933594 1071.433594 C 1238.203125 1070.226562 1241.015625 1069.507812 1242.625 1067.707031 C 1244.753906 1065.332031 1247.195312 1064.109375 1250.050781 1063.3125 C 1251.730469 1062.847656 1253.476562 1062.613281 1255.152344 1062.136719 C 1256.683594 1061.703125 1258.398438 1061.402344 1259.621094 1060.492188 C 1264.960938 1056.503906 1269.097656 1050.9375 1275.644531 1048.5 C 1276.558594 1048.160156 1277.203125 1047.066406 1277.953125 1046.300781 C 1278.710938 1045.53125 1279.316406 1044.261719 1280.203125 1044.027344 C 1283.789062 1043.078125 1286.152344 1040.710938 1288.664062 1038.171875 C 1294.089844 1032.703125 1302.003906 1030.035156 1306.03125 1022.925781 C 1306.09375 1022.816406 1306.222656 1022.734375 1306.335938 1022.660156 C 1310.027344 1020.242188 1311.367188 1016.15625 1313.609375 1012.675781 C 1316.316406 1008.472656 1318.675781 1004.195312 1319.691406 999.261719 C 1319.746094 999.003906 1319.90625 998.757812 1320.066406 998.539062 C 1325.144531 991.613281 1327.363281 983.5 1329.613281 975.410156 C 1330.007812 973.996094 1330.230469 972.433594 1330.085938 970.980469 C 1329.480469 964.800781 1329.335938 958.609375 1327.359375 952.539062 C 1326.097656 948.660156 1326.527344 944.261719 1325.953125 940.128906 C 1325.136719 934.230469 1323.871094 928.386719 1323.203125 922.476562 C 1322.136719 913.074219 1319.636719 904.421875 1312.410156 897.730469 C 1311.8125 897.175781 1311.808594 896 1311.476562 895.132812 C 1310.410156 892.359375 1309.835938 889.214844 1308.132812 886.90625 C 1304.519531 882.011719 1300.335938 877.535156 1296.339844 872.929688 C 1295.203125 871.617188 1293.746094 870.5625 1292.71875 869.179688 C 1290.890625 866.71875 1289.441406 863.964844 1287.546875 861.566406 C 1284.390625 857.574219 1279.691406 856.601562 1275.019531 855.640625 C 1271.074219 854.828125 1267.121094 854.019531 1263.234375 852.984375 C 1261.851562 852.617188 1260.625 850.945312 1259.359375 850.980469 C 1253.835938 851.132812 1248.75 847.671875 1243.09375 849.160156 C 1242.457031 849.328125 1241.628906 848.714844 1240.878906 848.5 C 1239.890625 848.214844 1238.898438 847.917969 1237.890625 847.714844 C 1234.125 846.957031 1231.183594 849.101562 1227.988281 850.476562 C 1226.058594 851.308594 1223.582031 852.609375 1221.933594 852.03125 C 1217.386719 850.445312 1213.160156 852.550781 1208.773438 852.253906 C 1201.855469 851.785156 1195.875 857.527344 1188.644531 855.585938 C 1184.320312 857.757812 1179.472656 858.882812 1175.78125 862.339844 C 1173.523438 864.457031 1171.109375 866.480469 1168.507812 868.144531 C 1165.324219 870.183594 1161.984375 872.074219 1158.5 873.53125 C 1152.785156 875.921875 1146.917969 877.957031 1141.070312 880.019531 C 1140.132812 880.347656 1138.964844 880.015625 1137.90625 879.996094 C 1135.875 879.960938 1133.726562 879.492188 1131.832031 879.980469 C 1126.613281 881.332031 1121.5625 883.324219 1116.328125 884.585938 C 1113.414062 885.289062 1111.40625 886.527344 1110.117188 889.1875 C 1109.730469 889.976562 1109.007812 890.878906 1108.234375 891.15625 C 1105.203125 892.242188 1102.03125 892.945312 1099.019531 894.078125 C 1094.933594 895.609375 1090.761719 897.144531 1086.84375 898.820312 C 1082.386719 900.722656 1077.535156 901.042969 1073.242188 903.394531 C 1070.03125 905.152344 1066.246094 906.003906 1062.617188 906.820312 C 1059.382812 907.546875 1056.011719 907.667969 1052.488281 908.078125 C 1052.554688 908.402344 1052.605469 909.203125 1052.878906 909.917969 C 1054.097656 913.132812 1054.628906 916.320312 1054.238281 919.855469 C 1053.613281 925.472656 1053.472656 931.152344 1053.371094 936.8125 C 1053.324219 939.5 1054.714844 942.507812 1053.90625 944.828125 C 1052.449219 949.003906 1052.351562 953.003906 1052.789062 957.238281 C 1052.953125 958.800781 1052.441406 960.445312 1052.175781 962.042969 C 1051.636719 965.324219 1051.0625 968.601562 1050.367188 972.660156 C 1052.289062 971.828125 1053.519531 971.417969 1054.625 970.792969 C 1056.582031 969.6875 1058.390625 968.308594 1060.390625 967.300781 C 1063.40625 965.789062 1066.613281 964.648438 1069.582031 963.058594 C 1071.714844 961.910156 1074.597656 960.6875 1075.359375 958.785156 C 1076.703125 955.421875 1079.285156 953.722656 1081.808594 951.855469 C 1084.0625 950.1875 1086.390625 948.726562 1087.679688 946.101562 C 1087.902344 945.648438 1088.4375 945.328125 1088.878906 945.015625 C 1093.324219 941.882812 1097.371094 938.4375 1100.492188 933.824219 C 1102.375 931.042969 1104.019531 927.691406 1107.742188 926.574219 C 1108.207031 926.4375 1108.554688 925.875 1108.933594 925.488281 C 1112.023438 922.304688 1115.671875 921.769531 1120.003906 922.316406 C 1123.660156 922.777344 1124.753906 924.960938 1125.578125 927.816406 C 1126.371094 930.550781 1126.457031 932.984375 1124.070312 935.28125 C 1121.960938 937.308594 1120.441406 939.941406 1118.570312 942.234375 C 1117.476562 943.574219 1116.429688 945.386719 1114.972656 945.917969 C 1109.117188 948.046875 1106.75 953.398438 1103.21875 957.710938 C 1100.410156 961.140625 1097.824219 965.019531 1094.300781 967.515625 C 1089.421875 970.972656 1085.722656 975.570312 1081.152344 979.257812 C 1077.914062 981.867188 1074.820312 984.726562 1071.308594 986.902344 C 1066.632812 989.800781 1060.972656 991.402344 1056.890625 994.910156 C 1051.191406 999.8125 1044.339844 1001.632812 1037.851562 1004.558594 C 1033.417969 1006.554688 1029.214844 1009.074219 1024.949219 1011.4375 C 1021.097656 1013.574219 1017.328125 1015.859375 1013.476562 1017.996094 C 1010.339844 1019.738281 1006.765625 1019.484375 1003.425781 1020.164062 C 997.136719 1021.445312 991.09375 1024.09375 985.078125 1026.5 C 980.796875 1028.214844 976.617188 1029.839844 971.523438 1028.996094 C 970.1875 1030.46875 968.871094 1033.25 967.101562 1033.582031 C 963.769531 1034.203125 960.859375 1037.242188 957.035156 1035.558594 C 956.378906 1035.269531 955.257812 1035.996094 954.367188 1036.296875 C 950.90625 1037.457031 947.511719 1039.335938 943.980469 1039.652344 C 937.949219 1040.1875 932.222656 1041.296875 926.808594 1044.019531 C 926.011719 1044.421875 924.984375 1044.542969 924.070312 1044.511719 C 918.523438 1044.332031 913.570312 1046.617188 908.378906 1048.015625 C 903.246094 1049.398438 898.121094 1050.699219 893.164062 1052.664062 C 891.175781 1053.453125 889.050781 1054.003906 886.9375 1054.34375 C 881.832031 1055.167969 877.125 1056.894531 872.777344 1059.714844 C 872.089844 1060.160156 870.960938 1059.925781 870.039062 1060.015625 C 867.492188 1060.273438 864.625 1059.871094 862.460938 1060.917969 C 856.621094 1063.746094 851.007812 1067.019531 844.707031 1068.820312 C 843.042969 1069.296875 841.5 1070.261719 839.820312 1070.613281 C 835.792969 1071.457031 831.714844 1072.074219 826.703125 1072.949219 C 829.308594 1075.125 831.203125 1076.707031 833.097656 1078.285156 C 833.050781 1078.566406 833.007812 1078.851562 832.960938 1079.132812 C 831.421875 1079.132812 829.878906 1079.171875 828.339844 1079.125 C 820.914062 1078.910156 813.585938 1078.753906 806.296875 1081.132812 C 799.230469 1083.4375 792.34375 1086.03125 785.648438 1089.246094 C 780.949219 1091.503906 776.078125 1093.429688 771.195312 1095.277344 C 768.730469 1096.214844 765.984375 1096.414062 763.523438 1097.363281 C 759.148438 1099.046875 754.925781 1101.125 750.574219 1102.882812 C 748.078125 1103.894531 745.515625 1105.03125 742.890625 1105.351562 C 737.78125 1105.976562 733.15625 1107.539062 728.933594 1110.46875 C 727.726562 1111.304688 726.339844 1111.984375 724.9375 1112.414062 C 720.835938 1113.671875 716.683594 1114.769531 712.550781 1115.929688 Z M 606.238281 684.417969 C 605.363281 682.722656 604.195312 681.257812 603.828125 679.613281 C 602.285156 672.757812 600.585938 665.890625 599.753906 658.929688 C 599.328125 655.390625 598.777344 652.050781 597.574219 648.707031 C 596.082031 644.546875 594.023438 640.75 591.996094 636.859375 C 589.234375 631.558594 584.960938 626.835938 583.953125 620.621094 C 583.863281 620.070312 583.015625 619.679688 582.65625 619.125 C 582.089844 618.25 581.289062 617.328125 581.203125 616.367188 C 580.730469 611.164062 577.964844 607.308594 574.367188 603.824219 C 573.429688 602.921875 572.269531 601.699219 572.191406 600.554688 C 571.949219 597.0625 569.917969 595.921875 566.894531 595.558594 C 565.820312 595.429688 564.769531 595.097656 563.710938 594.84375 C 556.566406 593.113281 549.453125 591.972656 542.066406 593.78125 C 539.375 594.441406 536.332031 594.355469 533.566406 593.90625 C 525.957031 592.664062 519.792969 594.964844 514.4375 600.363281 C 512.890625 601.925781 510.703125 602.929688 508.671875 603.90625 C 505.03125 605.652344 501.253906 607.121094 497.597656 608.835938 C 494.898438 610.101562 492.4375 612.160156 489.625 612.824219 C 484.269531 614.085938 480.351562 617 477.023438 621.171875 C 474.753906 624.011719 472.605469 627.332031 469.617188 629.128906 C 464.730469 632.066406 460.65625 635.546875 457.585938 640.277344 C 455.839844 642.964844 454.339844 645.847656 452.320312 648.3125 C 450.648438 650.355469 448.363281 651.898438 446.375 653.691406 C 441.660156 657.9375 438.757812 663.027344 438.746094 669.566406 C 438.746094 670.53125 437.996094 671.503906 437.566406 672.460938 C 436.851562 674.050781 435.910156 675.570312 435.421875 677.222656 C 433.785156 682.769531 433.023438 688.296875 433.167969 694.246094 C 433.351562 701.820312 435.113281 708.96875 436.5 716.25 C 437.753906 722.839844 441.160156 728.632812 443.566406 734.789062 C 446.964844 743.484375 452.90625 750.226562 458.359375 757.417969 C 458.761719 757.949219 459.40625 758.289062 459.859375 758.785156 C 460.945312 759.96875 462.007812 761.171875 463.035156 762.40625 C 464.910156 764.664062 466.78125 766.929688 468.605469 769.230469 C 470.542969 771.671875 472.738281 773.980469 474.226562 776.675781 C 475.519531 779.011719 477.109375 780.753906 479.199219 782.347656 C 482.613281 784.953125 485.777344 787.890625 489.082031 790.644531 C 489.449219 790.953125 490.054688 790.976562 491.050781 791.285156 C 491.25 789.476562 491.5 787.914062 491.585938 786.347656 C 492.03125 778.117188 492.269531 769.871094 492.90625 761.65625 C 493.394531 755.339844 493.855469 748.976562 497.328125 743.296875 C 498.34375 741.636719 498.847656 739.640625 498.039062 737.472656 C 497.65625 736.449219 497.808594 734.960938 498.269531 733.925781 C 500.332031 729.277344 509.835938 724.953125 515.054688 726.101562 C 519.914062 727.167969 524.757812 728.6875 529.746094 726.59375 C 530.3125 726.355469 531.070312 726.558594 531.742188 726.578125 C 535.210938 726.679688 538.679688 726.765625 542.148438 726.902344 C 545.078125 727.019531 548.019531 727.070312 550.929688 727.378906 C 555.167969 727.828125 559.382812 728.496094 563.609375 729.035156 C 564.136719 729.101562 564.691406 728.933594 565.230469 728.886719 C 567.082031 728.730469 568.933594 728.429688 570.78125 728.464844 C 573.992188 728.535156 577.203125 728.953125 580.410156 728.914062 C 581.320312 728.902344 582.460938 728.003906 583.074219 727.191406 C 584.609375 725.140625 585.953125 722.9375 587.285156 720.746094 C 588.3125 719.054688 589.570312 717.382812 590.085938 715.527344 C 591.890625 709.054688 595.003906 703.371094 599.398438 698.324219 C 600.273438 697.316406 600.960938 696.097656 601.53125 694.878906 C 603.144531 691.453125 604.648438 687.972656 606.238281 684.417969 Z M 935.621094 682.742188 C 938.078125 686.769531 940.375 690.5 942.628906 694.261719 C 943.5 695.714844 944.296875 697.21875 945.078125 698.726562 C 945.507812 699.558594 945.648438 700.609375 946.242188 701.28125 C 949.742188 705.253906 951.695312 709.789062 952.183594 715.109375 C 952.601562 719.683594 956.460938 722.617188 961.046875 722.726562 C 963.308594 722.78125 965.550781 723.402344 967.804688 723.757812 C 971.644531 724.363281 975.550781 725.667969 979.304688 725.328125 C 981.957031 725.089844 984.371094 725.105469 986.828125 725.78125 C 990.722656 726.847656 994.574219 728.066406 998.449219 729.199219 C 998.964844 729.351562 999.511719 729.453125 1000.046875 729.457031 C 1005.449219 729.511719 1010.847656 729.503906 1016.246094 729.59375 C 1017.710938 729.617188 1019.21875 729.738281 1020.621094 730.121094 C 1026.316406 731.671875 1030.261719 735.78125 1034.359375 739.671875 C 1035.371094 740.632812 1036.53125 741.703125 1037.808594 742.070312 C 1045.519531 744.285156 1051.964844 747.664062 1052.992188 756.753906 C 1053.25 759.039062 1053.945312 761.308594 1053.945312 763.585938 C 1053.953125 768.9375 1053.691406 774.289062 1053.484375 779.640625 C 1053.28125 784.855469 1053.011719 790.070312 1052.753906 795.652344 C 1054.214844 795.496094 1055.144531 795.527344 1055.992188 795.285156 C 1062.074219 793.546875 1068.066406 791.421875 1074.234375 790.09375 C 1078.507812 789.167969 1081.894531 786.902344 1085.527344 784.851562 C 1092.21875 781.078125 1099.078125 777.59375 1105.738281 773.765625 C 1108.421875 772.226562 1110.558594 769.671875 1113.3125 768.339844 C 1119.394531 765.386719 1124.042969 760.785156 1128.738281 756.164062 C 1130.078125 754.84375 1131.527344 753.621094 1132.796875 752.234375 C 1134.121094 750.785156 1135.4375 749.289062 1136.492188 747.644531 C 1138.660156 744.246094 1140.550781 740.832031 1144.085938 738.359375 C 1147.890625 735.703125 1150.746094 732.074219 1150.015625 726.695312 C 1149.785156 724.976562 1150.570312 723.0625 1151.128906 721.316406 C 1151.878906 718.957031 1151.964844 716.84375 1150.144531 714.878906 C 1149.328125 714 1148.554688 712.972656 1148.113281 711.871094 C 1146.253906 707.21875 1143.710938 703.121094 1140.3125 699.34375 C 1138.128906 696.917969 1136.035156 694.964844 1132.863281 694.304688 C 1128.707031 693.4375 1124.539062 692.75 1120.960938 690.09375 C 1119.734375 689.179688 1117.921875 689.078125 1116.425781 688.480469 C 1115.609375 688.152344 1114.34375 687.671875 1114.222656 687.070312 C 1113.285156 682.417969 1109.234375 680.128906 1106.8125 676.65625 C 1103.054688 671.28125 1096.632812 668.953125 1093.066406 663.539062 C 1092.753906 663.066406 1091.871094 662.777344 1091.234375 662.746094 C 1084.515625 662.382812 1081.460938 656.894531 1077.175781 653.007812 C 1073.144531 649.347656 1069.28125 645.25 1062.988281 645.34375 C 1059.957031 645.386719 1056.472656 645.175781 1053.953125 643.742188 C 1048.019531 640.371094 1041.804688 640.519531 1035.433594 640.652344 C 1031.375 640.742188 1027.328125 640.824219 1024.246094 637.238281 C 1023.554688 636.433594 1021.734375 636.203125 1020.5 636.328125 C 1012.027344 637.199219 1004.246094 633.714844 996.097656 632.601562 C 989.613281 631.714844 983.207031 630.878906 977.519531 635.417969 C 973.597656 638.546875 969.6875 641.726562 965.5 644.46875 C 962.042969 646.730469 959.828125 649.457031 958.628906 653.480469 C 957.945312 655.765625 956.253906 658.195312 954.3125 659.574219 C 949.007812 663.34375 944.773438 667.769531 942.5625 673.984375 C 941.328125 677.453125 939.960938 680.871094 935.621094 682.742188 Z M 618.230469 701.773438 C 617.339844 712.523438 613.835938 722.164062 608.082031 730.964844 C 615.621094 733.140625 622.882812 731.890625 630.089844 731.226562 C 634.171875 730.851562 638.066406 730.753906 642.039062 731.976562 C 644.066406 732.601562 646.390625 733.011719 648.441406 732.671875 C 656.289062 731.367188 664.148438 730.71875 672.089844 731.160156 C 675.167969 731.328125 678.246094 731.671875 681.328125 731.699219 C 684.101562 731.722656 686.875 731.414062 689.648438 731.269531 C 690.460938 731.226562 691.277344 731.265625 692.09375 731.230469 C 697.59375 731 703.09375 730.695312 708.59375 730.570312 C 709.746094 730.542969 710.894531 731.273438 712.074219 731.464844 C 713.488281 731.699219 715.136719 732.234375 716.335938 731.753906 C 720.074219 730.257812 723.777344 729.484375 727.769531 730.402344 C 728.390625 730.546875 729.207031 730.515625 729.753906 730.226562 C 733.714844 728.105469 737.660156 729.121094 741.640625 730.085938 C 742.507812 730.292969 743.503906 730.414062 744.339844 730.191406 C 746.824219 729.523438 749.234375 728.585938 751.71875 727.90625 C 753.390625 727.449219 755.324219 726.609375 756.8125 727.050781 C 761.65625 728.480469 766.347656 727.957031 771.199219 727.292969 C 773.925781 726.921875 777.148438 726.914062 779.542969 728.039062 C 785.042969 730.617188 790.742188 729.71875 795.8125 728.445312 C 802.210938 726.84375 808.105469 727.910156 814.25 728.53125 C 817.304688 728.84375 820.484375 729.074219 823.476562 728.558594 C 829.640625 727.496094 835.714844 726.261719 841.984375 727.757812 C 842.964844 727.992188 844.105469 727.632812 845.160156 727.492188 C 849.976562 726.855469 854.75 726.144531 859.59375 727.675781 C 861.03125 728.132812 862.800781 727.605469 864.40625 727.417969 C 865.480469 727.292969 866.519531 726.816406 867.585938 726.757812 C 874.433594 726.378906 881.289062 726.105469 888.136719 725.726562 C 890.277344 725.605469 892.453125 724.886719 894.539062 725.113281 C 905.597656 726.304688 916.65625 725.511719 927.714844 725.320312 C 928.441406 725.308594 929.164062 724.914062 929.453125 724.828125 C 928.753906 722.699219 927.988281 720.851562 927.554688 718.933594 C 926.75 715.382812 926.445312 711.691406 925.378906 708.230469 C 923.640625 702.605469 921.453125 697.121094 919.34375 691.257812 C 913.082031 694.484375 906.320312 694.128906 899.414062 692.804688 C 897.496094 692.4375 895.390625 693.089844 893.367188 693.191406 C 889.984375 693.367188 886.585938 693.738281 883.21875 693.550781 C 878.269531 693.277344 873.34375 692.589844 868.410156 692.0625 C 863.039062 691.488281 857.671875 690.90625 852.304688 690.304688 C 851.914062 690.257812 851.484375 690.128906 851.164062 689.902344 C 848.269531 687.867188 845.226562 688.472656 842.21875 689.457031 C 836.679688 691.273438 831.1875 692.917969 825.238281 693.28125 C 820.429688 693.578125 815.523438 694.71875 810.984375 696.371094 C 806.222656 698.101562 801.570312 699.453125 796.453125 699.613281 C 789.660156 699.828125 782.90625 700.714844 776.679688 703.78125 C 771.707031 706.226562 766.609375 707.460938 761 706.476562 C 758.640625 706.066406 756.136719 706.261719 753.71875 706.4375 C 744.664062 707.109375 735.617188 707.882812 726.570312 708.617188 C 725.894531 708.671875 725.160156 708.5625 724.546875 708.78125 C 719.582031 710.539062 714.496094 710.894531 709.285156 710.460938 C 707.683594 710.328125 706.023438 710.585938 704.421875 710.847656 C 699.480469 711.660156 694.457031 713.59375 689.640625 713.167969 C 683.34375 712.605469 677.117188 712.265625 670.824219 712.527344 C 670.148438 712.554688 669.46875 712.457031 668.792969 712.4375 C 665.292969 712.347656 661.785156 712.386719 658.296875 712.148438 C 653.851562 711.84375 649.308594 711.785156 645.015625 710.757812 C 640.195312 709.601562 635.625 707.421875 630.90625 705.804688 C 626.863281 704.421875 622.765625 703.207031 618.230469 701.773438 Z M 708.292969 227.148438 C 706.558594 228.328125 705.136719 228.824219 704.464844 229.824219 C 701.40625 234.378906 696.625 238.488281 699.828125 244.976562 C 698.574219 251.421875 702.402344 256.691406 703.613281 262.148438 C 708.242188 262.148438 712.617188 261.980469 716.96875 262.1875 C 723.984375 262.527344 730.984375 263.285156 738 263.542969 C 742.515625 263.707031 746.859375 263.71875 750.804688 266.546875 C 752.4375 267.714844 754.558594 268.347656 756.976562 267.519531 C 758.441406 267.015625 760.664062 267.285156 761.996094 268.101562 C 766.59375 270.917969 771.035156 274.023438 775.347656 277.265625 C 776.417969 278.070312 776.914062 279.753906 777.441406 281.121094 C 777.964844 282.46875 778.195312 283.929688 778.578125 285.441406 C 780.984375 284.738281 783.046875 284.132812 784.648438 283.664062 C 786.804688 280.25 788.296875 276.726562 790.804688 274.21875 C 794.003906 271.027344 797.753906 268.121094 802.640625 267.722656 C 808.148438 267.273438 813.261719 264.320312 818.972656 265.199219 C 819.09375 265.21875 819.25 265.15625 819.363281 265.089844 C 822.855469 262.960938 826.648438 263.433594 830.464844 263.65625 C 832.613281 263.78125 834.785156 263.394531 836.949219 263.335938 C 838.539062 263.292969 840.191406 263.144531 841.710938 263.5 C 846.671875 264.648438 851.589844 266.007812 857.257812 267.480469 C 857.007812 265.128906 857.125 263.230469 856.5625 261.558594 C 855.367188 258.011719 854.074219 254.445312 852.332031 251.144531 C 850.78125 248.199219 848.882812 245.332031 844.707031 245.460938 C 842.734375 245.519531 840.277344 245.433594 838.867188 244.34375 C 836.742188 242.695312 835.085938 243.53125 833.21875 244.128906 C 831.804688 244.582031 830.476562 245.328125 829.054688 245.746094 C 820.164062 248.34375 811.144531 250.328125 801.890625 251.027344 C 799.738281 251.191406 797.1875 251.789062 795.480469 250.90625 C 792.589844 249.410156 790.109375 250.359375 787.746094 251.253906 C 784.800781 252.367188 781.988281 252.152344 779.453125 250.980469 C 776.316406 249.53125 773.332031 247.59375 770.621094 245.441406 C 768.25 243.554688 766.203125 242.113281 762.957031 243.347656 C 760.972656 244.101562 758.675781 244.402344 756.542969 244.320312 C 752.625 244.167969 748.246094 244.972656 745.96875 240.144531 C 745.605469 239.375 743.621094 239.179688 742.355469 239.066406 C 737.515625 238.636719 732.539062 238.898438 727.84375 237.859375 C 723.007812 236.789062 718.449219 234.464844 713.746094 232.761719 C 711.292969 231.875 708.960938 230.933594 708.292969 227.148438 Z M 608.148438 1064.96875 C 608.035156 1065.398438 607.917969 1065.828125 607.800781 1066.253906 C 613.148438 1069.675781 618.429688 1073.214844 623.867188 1076.492188 C 630.058594 1080.226562 636.296875 1083.90625 642.691406 1087.285156 C 648.363281 1090.28125 654.261719 1092.851562 660.085938 1095.566406 C 660.808594 1095.902344 661.65625 1096.09375 662.453125 1096.117188 C 667.074219 1096.25 670.988281 1098.078125 674.875 1100.488281 C 677.699219 1102.238281 681.003906 1103.324219 684.222656 1104.273438 C 685.402344 1104.621094 687.375 1104.152344 688.25 1103.300781 C 692.332031 1099.328125 697.539062 1097.472656 702.425781 1094.925781 C 708.585938 1091.710938 714.988281 1089.453125 721.78125 1088.164062 C 722.292969 1088.066406 722.769531 1087.726562 723.234375 1087.453125 C 731.03125 1082.878906 739.53125 1080.257812 748.285156 1078.28125 C 749.660156 1077.972656 750.9375 1077.214844 752.257812 1076.667969 C 750.964844 1076.078125 749.8125 1075.976562 748.683594 1076.097656 C 745.195312 1076.484375 741.699219 1077.382812 738.226562 1077.300781 C 731.621094 1077.144531 725.035156 1076.203125 718.433594 1076.074219 C 715.203125 1076.007812 712.082031 1076.601562 709.054688 1074.777344 C 708.050781 1074.171875 706.433594 1074.613281 705.101562 1074.53125 C 703.289062 1074.417969 701.378906 1074.585938 699.691406 1074.054688 C 696.863281 1073.164062 694.308594 1071.179688 691.078125 1072.820312 C 690.457031 1073.136719 689.46875 1072.820312 688.667969 1072.691406 C 678.4375 1071.015625 668.203125 1069.375 657.988281 1067.617188 C 651.953125 1066.578125 645.71875 1068.375 639.714844 1065.8125 C 637.132812 1064.710938 633.894531 1065.136719 630.953125 1064.882812 C 629.335938 1064.742188 627.714844 1064.539062 626.09375 1064.53125 C 621.265625 1064.507812 616.441406 1064.546875 611.613281 1064.613281 C 610.457031 1064.628906 609.304688 1064.84375 608.148438 1064.96875 Z M 798.003906 283.753906 C 798.949219 287.664062 800.304688 291.945312 799.148438 296.390625 C 799.121094 296.496094 799.214844 296.636719 799.265625 296.753906 C 802.40625 304.359375 803.226562 312.9375 808.824219 319.515625 C 809.167969 319.917969 809.460938 320.421875 809.597656 320.929688 C 810.660156 324.886719 813.910156 325.558594 817.21875 325.710938 C 819.347656 325.8125 821.507812 325.195312 823.65625 324.941406 C 825.386719 324.738281 827.574219 325.207031 828.773438 324.316406 C 832.898438 321.257812 836.570312 317.578125 838.289062 312.5625 C 840.539062 305.984375 843.804688 299.78125 845.375 292.949219 C 846.214844 289.292969 847.386719 285.710938 848.503906 281.753906 C 846.128906 281.101562 844.140625 280.25 842.085938 280.046875 C 837.421875 279.582031 832.535156 278.492188 828.089844 279.398438 C 822.164062 280.605469 816.3125 281.113281 810.441406 280.5 C 806.035156 280.039062 802.128906 280.363281 798.003906 283.753906 Z M 764 291.542969 C 763.878906 289.410156 764.613281 286.28125 763.488281 285.320312 C 759.449219 281.859375 754.671875 279.171875 748.996094 280.097656 C 742.921875 281.09375 736.980469 280.699219 731.054688 279.324219 C 728.988281 278.847656 726.972656 277.796875 724.914062 277.734375 C 722.15625 277.652344 719.386719 278.363281 716.609375 278.570312 C 713.445312 278.8125 710.269531 278.839844 707.105469 279.03125 C 705.523438 279.125 703.886719 281.542969 704.597656 282.992188 C 706.304688 286.457031 708.019531 289.957031 710.128906 293.183594 C 713.414062 298.222656 716.980469 303.082031 720.527344 307.945312 C 721.867188 309.785156 723.785156 311.253906 724.898438 313.203125 C 726.730469 316.40625 730.609375 316.96875 732.632812 319.390625 C 735.617188 322.96875 739.050781 323.054688 742.828125 322.417969 C 745.285156 322.003906 747.851562 321.339844 749.972656 320.105469 C 751.746094 319.082031 753.121094 317.195312 754.355469 315.464844 C 756.910156 311.878906 759.769531 308.414062 760.292969 303.765625 C 760.398438 302.839844 760.507812 301.691406 761.082031 301.082031 C 763.667969 298.332031 763.726562 294.964844 764 291.542969 Z M 820.667969 412.394531 C 820.492188 412.175781 820.320312 411.960938 820.144531 411.742188 C 818.765625 412.667969 817.441406 413.6875 816.003906 414.507812 C 810.1875 417.816406 804.671875 422.195312 798.414062 424.03125 C 791.246094 426.136719 784.339844 428.707031 777.378906 431.300781 C 774.554688 432.355469 771.222656 433.007812 768.289062 432.613281 C 761.835938 431.742188 754.871094 432.847656 749.171875 428.460938 C 744.738281 428.578125 742.730469 425.164062 740.109375 422.476562 C 738.886719 421.222656 736.96875 419.972656 735.335938 419.929688 C 730.136719 419.792969 726.945312 415.898438 723.238281 413.4375 C 720.535156 411.636719 719.410156 407.472656 717.558594 404.375 C 717.113281 403.632812 716.574219 402.941406 716.078125 402.226562 C 716.25 402.546875 716.421875 402.871094 716.589844 403.191406 C 714.632812 404.425781 712.675781 405.664062 710.253906 407.191406 C 712.910156 410.011719 714.894531 412.378906 717.148438 414.453125 C 721.339844 418.308594 725.640625 422.046875 729.976562 425.738281 C 733.265625 428.539062 736.421875 431.628906 740.109375 433.78125 C 743.953125 436.027344 748.261719 437.640625 752.554688 438.902344 C 756.648438 440.105469 760.960938 440.628906 765.210938 441.203125 C 767.984375 441.578125 770.9375 441.054688 773.601562 441.742188 C 778.492188 443 783.324219 442.894531 788.007812 441.550781 C 791.144531 440.652344 794.019531 438.78125 796.929688 437.1875 C 798.53125 436.3125 799.964844 435.121094 801.464844 434.0625 C 802.339844 433.441406 803.34375 432.925781 804.046875 432.144531 C 808.105469 427.644531 812.136719 423.121094 816.078125 418.519531 C 817.734375 416.585938 819.144531 414.441406 820.667969 412.394531 Z M 820.667969 412.394531 " fill-opacity="1" fill-rule="nonzero"/></g><path fill="#000000" d="M 762.878906 377.214844 C 761.113281 376.765625 759.128906 376.613281 757.503906 375.773438 C 754.09375 374.007812 750.507812 372.296875 747.671875 369.796875 C 744.488281 366.992188 744.933594 364.199219 747.984375 361.492188 C 750.386719 359.367188 752.738281 359.339844 755.195312 362.6875 C 759.164062 368.105469 764.792969 367.277344 770.199219 367.75 C 772.058594 367.914062 773.992188 368.0625 775.722656 368.6875 C 778.039062 369.523438 778.328125 371.417969 776.367188 372.9375 C 774.902344 374.074219 773.132812 375 771.355469 375.515625 C 768.648438 376.300781 765.820312 376.648438 762.878906 377.214844 Z M 762.878906 377.214844 " fill-opacity="1" fill-rule="nonzero"/><path fill="#000000" d="M 765.429688 339.878906 C 767.269531 335.484375 768.371094 334.753906 772.496094 335.632812 C 776.839844 336.5625 781.007812 337.613281 785.605469 336.28125 C 788.003906 335.585938 791.0625 336.1875 792.613281 339.417969 C 789.460938 344.523438 784.117188 345.648438 778.867188 346.78125 C 772.730469 348.101562 769.054688 344.25 765.429688 339.878906 Z M 765.429688 339.878906 " fill-opacity="1" fill-rule="nonzero"/><path fill="#000000" d="M 818.789062 314.363281 C 816.324219 313.5 814.011719 313.117188 812.195312 311.957031 C 809.261719 310.082031 809.285156 307.4375 812.050781 305.382812 C 816.546875 302.039062 821.636719 301.800781 826.695312 303.570312 C 828.011719 304.03125 829.480469 306.097656 829.554688 307.496094 C 829.625 308.882812 828.359375 311 827.089844 311.65625 C 824.550781 312.964844 821.613281 313.496094 818.789062 314.363281 Z M 818.789062 314.363281 " fill-opacity="1" fill-rule="nonzero"/><path fill="#000000" d="M 744.109375 314.320312 C 743.316406 314.078125 742.179688 313.660156 741.011719 313.390625 C 739.316406 313.003906 737.605469 312.484375 735.894531 312.453125 C 731.644531 312.371094 728.980469 310.53125 728.519531 307.035156 C 728.175781 304.410156 731.792969 300.3125 734.832031 299.511719 C 739.027344 298.40625 742.945312 298.28125 746.53125 301.25 C 747.210938 301.816406 748.289062 301.921875 749.203125 302.183594 C 753.046875 303.285156 754.847656 304.898438 754.757812 307.203125 C 754.667969 309.53125 751.792969 312.699219 748.964844 313.441406 C 747.527344 313.816406 746.03125 313.980469 744.109375 314.320312 Z M 744.109375 314.320312 " fill-opacity="1" fill-rule="nonzero"/></svg>