<svg xmlns="http://www.w3.org/2000/svg" xmlns:xlink="http://www.w3.org/1999/xlink" width="2000" zoomAndPan="magnify" viewBox="0 0 1500 1499.999933" height="2000" preserveAspectRatio="xMidYMid meet" version="1.0"><defs><g/><clipPath id="74ad9ddebc"><rect x="0" width="1073" y="0" height="638"/></clipPath></defs><path fill="#ac9051" d="M 1494.164062 826.488281 C 1488.683594 878.625 1431.667969 919.746094 1346.554688 942.109375 C 1402.269531 1010.226562 1424.226562 1077.011719 1398.011719 1122.410156 C 1371.800781 1167.808594 1302.988281 1182.1875 1216.140625 1167.996094 C 1239.328125 1252.886719 1232.222656 1322.828125 1189.8125 1353.636719 C 1147.402344 1384.453125 1078.691406 1369.597656 1005.121094 1321.308594 C 991.78125 1408.292969 956.839844 1469.296875 905.566406 1480.195312 C 854.289062 1491.09375 797.558594 1449.574219 749.988281 1375.539062 C 702.421875 1449.574219 645.691406 1491.09375 594.414062 1480.195312 C 543.140625 1469.296875 508.203125 1408.292969 494.855469 1321.308594 C 421.289062 1369.597656 352.578125 1384.453125 310.164062 1353.636719 C 267.753906 1322.828125 260.648438 1252.886719 283.839844 1167.996094 C 196.992188 1182.1875 128.175781 1167.808594 101.964844 1122.410156 C 75.753906 1077.011719 97.710938 1010.226562 153.421875 942.109375 C 68.3125 919.746094 11.296875 878.625 5.816406 826.488281 C 0.335938 774.355469 47.558594 722.277344 126.160156 682.707031 C 57.5 627.65625 22.140625 566.902344 38.339844 517.042969 C 54.539062 467.1875 118.859375 438.816406 206.761719 434.640625 C 166.429688 356.425781 158.835938 286.539062 193.914062 247.582031 C 228.992188 208.625 299.289062 208.867188 381.289062 240.804688 C 376.257812 152.945312 397.75 86.011719 445.640625 64.691406 C 493.527344 43.371094 557.648438 72.1875 619.574219 134.714844 C 650.710938 52.40625 697.566406 0 749.988281 0 C 802.410156 0 849.269531 52.40625 880.40625 134.714844 C 942.328125 72.1875 1006.449219 43.371094 1054.339844 64.691406 C 1102.230469 86.011719 1123.722656 152.945312 1118.6875 240.804688 C 1200.691406 208.867188 1270.988281 208.625 1306.066406 247.582031 C 1341.140625 286.539062 1333.550781 356.425781 1293.21875 434.640625 C 1381.121094 438.816406 1445.441406 467.1875 1461.640625 517.042969 C 1477.839844 566.902344 1442.476562 627.65625 1373.820312 682.707031 C 1452.421875 722.277344 1499.644531 774.355469 1494.164062 826.488281 Z M 1494.164062 826.488281 " fill-opacity="1" fill-rule="nonzero"/><g transform="matrix(1, 0, 0, 1, 190, 315)"><g clip-path="url(#74ad9ddebc)"><g fill="#ffffff" fill-opacity="1"><g transform="translate(144.826756, 288.845914)"><g><path d="M 80.6875 5.984375 C 69.644531 5.984375 58.625 4.5 47.625 1.53125 C 36.632812 -1.433594 27.148438 -5.523438 19.171875 -10.734375 L 5.671875 0 L -6.90625 0 L 9.046875 -79.15625 L 21.9375 -79.15625 C 23.875 -66.164062 27.628906 -54.070312 33.203125 -42.875 C 38.785156 -31.675781 45.460938 -23.335938 53.234375 -17.859375 C 61.003906 -12.390625 69.441406 -9.65625 78.546875 -9.65625 C 90.816406 -9.65625 100.628906 -13.207031 107.984375 -20.3125 C 115.347656 -27.425781 119.03125 -36.757812 119.03125 -48.3125 C 119.03125 -64.269531 110.75 -75.625 94.1875 -82.375 C 76.488281 -88.8125 64.132812 -94.078125 57.125 -98.171875 C 50.125 -102.265625 44.269531 -107.503906 39.5625 -113.890625 C 34.863281 -120.285156 31.644531 -127.519531 29.90625 -135.59375 C 28.164062 -143.675781 27.707031 -148.128906 28.53125 -148.953125 C 28.53125 -162.347656 32.132812 -174.796875 39.34375 -186.296875 C 46.550781 -197.804688 56.546875 -206.859375 69.328125 -213.453125 C 82.117188 -220.046875 96.59375 -223.34375 112.75 -223.34375 C 121.238281 -223.34375 130.59375 -222.035156 140.8125 -219.421875 C 151.039062 -216.816406 159.941406 -213.316406 167.515625 -208.921875 L 178.703125 -217.671875 L 191.90625 -217.671875 L 176.25 -143.265625 L 163.375 -143.265625 C 157.132812 -186.628906 141.738281 -208.3125 117.1875 -208.3125 C 106.863281 -208.3125 98.300781 -204.910156 91.5 -198.109375 C 84.695312 -191.304688 81.296875 -182.535156 81.296875 -171.796875 C 81.296875 -165.765625 82.597656 -160.421875 85.203125 -155.765625 C 87.816406 -151.117188 91.421875 -147.207031 96.015625 -144.03125 C 100.617188 -140.863281 109.363281 -136.722656 122.25 -131.609375 C 132.175781 -127.722656 138.773438 -124.910156 142.046875 -123.171875 C 163.421875 -112.023438 174.109375 -95.253906 174.109375 -72.859375 C 174.109375 -58.140625 170.09375 -44.691406 162.0625 -32.515625 C 154.03125 -20.347656 142.90625 -10.890625 128.6875 -4.140625 C 114.476562 2.605469 98.476562 5.984375 80.6875 5.984375 Z M 80.6875 5.984375 "/></g></g></g><g fill="#ffffff" fill-opacity="1"><g transform="translate(293.670554, 288.845914)"><g><path d="M 72.25 -32.359375 C 72.25 -27.148438 73.601562 -23.546875 76.3125 -21.546875 C 79.019531 -19.554688 83.238281 -18.5625 88.96875 -18.5625 C 92.445312 -18.5625 96.613281 -19.195312 101.46875 -20.46875 C 106.332031 -21.75 109.679688 -22.800781 111.515625 -23.625 L 108.140625 -8.125 C 98.117188 -3.320312 89.601562 -0.0742188 82.59375 1.609375 C 75.59375 3.296875 68.15625 4.140625 60.28125 4.140625 C 47.09375 4.140625 37.25 1.121094 30.75 -4.90625 C 24.257812 -10.9375 21.015625 -18.914062 21.015625 -28.84375 C 21.015625 -35.082031 22.085938 -43.363281 24.234375 -53.6875 L 42.03125 -132.84375 L 15.953125 -132.84375 L 19.484375 -148.953125 L 46.484375 -148.953125 L 57.21875 -195.421875 L 107.375 -195.421875 L 97.09375 -148.953125 L 132.53125 -148.953125 L 129.46875 -132.84375 L 93.265625 -132.84375 L 75.78125 -54.296875 C 73.425781 -44.273438 72.25 -36.960938 72.25 -32.359375 Z M 72.25 -32.359375 "/></g></g></g><g fill="#ffffff" fill-opacity="1"><g transform="translate(380.696479, 288.845914)"><g><path d="M 185.296875 -23.625 L 182.234375 -8.75 C 175.890625 -5.78125 169.367188 -3.171875 162.671875 -0.921875 C 155.972656 1.324219 148.6875 2.453125 140.8125 2.453125 C 130.082031 2.453125 121.644531 0.277344 115.5 -4.0625 C 109.363281 -8.40625 105.125 -15.128906 102.78125 -24.234375 L 101.859375 -24.234375 C 93.671875 -15.640625 87.175781 -9.601562 82.375 -6.125 C 77.570312 -2.65625 72.585938 -0.0742188 67.421875 1.609375 C 62.253906 3.296875 56.65625 4.140625 50.625 4.140625 C 40.5 4.140625 32.46875 1.148438 26.53125 -4.828125 C 20.601562 -10.816406 17.640625 -18.410156 17.640625 -27.609375 C 17.640625 -33.234375 18.535156 -39.703125 20.328125 -47.015625 C 22.117188 -54.328125 24.085938 -61.992188 26.234375 -70.015625 C 28.378906 -78.046875 30.347656 -86.175781 32.140625 -94.40625 C 33.929688 -102.644531 34.828125 -110.445312 34.828125 -117.8125 C 34.828125 -122.207031 33.957031 -125.554688 32.21875 -127.859375 C 30.476562 -130.160156 27.410156 -131.3125 23.015625 -131.3125 C 17.285156 -131.3125 10.789062 -129.722656 3.53125 -126.546875 L 6.90625 -141.734375 C 14.164062 -145.210938 21.21875 -148.050781 28.0625 -150.25 C 34.914062 -152.445312 42.023438 -153.546875 49.390625 -153.546875 C 60.742188 -153.546875 69.640625 -150.476562 76.078125 -144.34375 C 82.523438 -138.207031 85.75 -129.769531 85.75 -119.03125 C 85.75 -112.1875 84.929688 -104.976562 83.296875 -97.40625 C 81.660156 -89.84375 79.867188 -82.328125 77.921875 -74.859375 C 75.984375 -67.390625 74.195312 -60.28125 72.5625 -53.53125 C 70.925781 -46.78125 70.109375 -40.847656 70.109375 -35.734375 C 70.109375 -31.441406 71.023438 -28.171875 72.859375 -25.921875 C 74.703125 -23.671875 77.109375 -22.546875 80.078125 -22.546875 C 82.734375 -22.546875 86.15625 -23.722656 90.34375 -26.078125 C 94.539062 -28.429688 99.09375 -32.828125 104 -39.265625 L 128.546875 -151.09375 L 177.484375 -152.625 L 180.390625 -151.09375 L 159.21875 -57.53125 C 158.507812 -54.96875 157.71875 -51.128906 156.84375 -46.015625 C 155.976562 -40.898438 155.546875 -37.066406 155.546875 -34.515625 C 155.546875 -29.296875 156.566406 -25.484375 158.609375 -23.078125 C 160.660156 -20.679688 164.238281 -19.484375 169.34375 -19.484375 C 173.644531 -19.484375 178.960938 -20.863281 185.296875 -23.625 Z M 185.296875 -23.625 "/></g></g></g><g fill="#ffffff" fill-opacity="1"><g transform="translate(535.829412, 288.845914)"><g><path d="M 150.484375 -32.984375 C 150.484375 -27.660156 151.503906 -24.023438 153.546875 -22.078125 C 155.597656 -20.140625 158.972656 -19.171875 163.671875 -19.171875 C 165.710938 -19.171875 168.394531 -19.628906 171.71875 -20.546875 C 175.050781 -21.472656 178.046875 -22.5 180.703125 -23.625 L 177.78125 -8.75 C 161.832031 -0.875 147.722656 3.0625 135.453125 3.0625 C 125.523438 3.0625 117.722656 1.195312 112.046875 -2.53125 C 106.378906 -6.257812 102.210938 -11.910156 99.546875 -19.484375 L 98.9375 -19.484375 C 92.1875 -11.910156 85.050781 -5.976562 77.53125 -1.6875 C 70.019531 2.601562 62.582031 4.75 55.21875 4.75 C 40.5 4.75 29.222656 -0.257812 21.390625 -10.28125 C 13.566406 -20.300781 9.65625 -34.363281 9.65625 -52.46875 C 9.65625 -70.96875 13.390625 -88.21875 20.859375 -104.21875 C 28.328125 -120.226562 38.398438 -132.832031 51.078125 -142.03125 C 63.765625 -151.238281 77.113281 -155.84375 91.125 -155.84375 C 105.226562 -155.84375 115.910156 -151.957031 123.171875 -144.1875 L 134.53125 -194.5 C 135.34375 -197.269531 135.75 -200.1875 135.75 -203.25 C 135.75 -208.769531 133.753906 -213.035156 129.765625 -216.046875 C 125.785156 -219.066406 119.085938 -220.988281 109.671875 -221.8125 L 111.828125 -233.46875 L 192.8125 -237.453125 L 194.8125 -235 L 154.3125 -57.53125 C 151.757812 -46.070312 150.484375 -37.890625 150.484375 -32.984375 Z M 117.5 -121.640625 C 117.5 -127.773438 116.191406 -132.554688 113.578125 -135.984375 C 110.972656 -139.410156 107.472656 -141.125 103.078125 -141.125 C 96.835938 -141.125 90.753906 -136.648438 84.828125 -127.703125 C 78.898438 -118.753906 74.117188 -107.375 70.484375 -93.5625 C 66.859375 -79.757812 65.046875 -65.957031 65.046875 -52.15625 C 65.046875 -30.164062 69.644531 -19.171875 78.84375 -19.171875 C 81.914062 -19.171875 85.085938 -20.394531 88.359375 -22.84375 C 91.628906 -25.300781 94.75 -28.78125 97.71875 -33.28125 Z M 117.5 -121.640625 "/></g></g></g><g fill="#ffffff" fill-opacity="1"><g transform="translate(684.673257, 288.845914)"><g><path d="M 108.453125 -208.625 C 108.453125 -200.644531 105.535156 -193.894531 99.703125 -188.375 C 93.878906 -182.851562 86.722656 -180.09375 78.234375 -180.09375 C 69.742188 -180.09375 62.582031 -182.828125 56.75 -188.296875 C 50.925781 -193.765625 48.015625 -200.640625 48.015625 -208.921875 C 48.015625 -217.003906 50.925781 -223.832031 56.75 -229.40625 C 62.582031 -234.976562 69.742188 -237.765625 78.234375 -237.765625 C 86.410156 -237.765625 93.488281 -234.925781 99.46875 -229.25 C 105.457031 -223.570312 108.453125 -216.695312 108.453125 -208.625 Z M 59.359375 3.828125 C 32.972656 3.828125 19.78125 -7.625 19.78125 -30.53125 C 19.78125 -39.726562 21.367188 -49.953125 24.546875 -61.203125 L 33.28125 -95.265625 C 35.84375 -105.179688 37.125 -113.410156 37.125 -119.953125 C 37.125 -125.171875 35.921875 -128.671875 33.515625 -130.453125 C 31.109375 -132.242188 27.351562 -133.140625 22.25 -133.140625 C 18.257812 -133.140625 13.039062 -132.117188 6.59375 -130.078125 L 10.125 -144.8125 C 19.53125 -149.101562 26.96875 -151.960938 32.4375 -153.390625 C 37.914062 -154.828125 43.414062 -155.546875 48.9375 -155.546875 C 62.019531 -155.546875 71.78125 -152.601562 78.21875 -146.71875 C 84.664062 -140.84375 87.890625 -132.484375 87.890625 -121.640625 C 87.890625 -112.441406 86.359375 -101.960938 83.296875 -90.203125 L 74.09375 -56.296875 C 71.84375 -45.660156 70.71875 -37.476562 70.71875 -31.75 C 70.71875 -26.945312 71.765625 -23.445312 73.859375 -21.25 C 75.953125 -19.050781 79.300781 -17.953125 83.90625 -17.953125 C 89.9375 -17.953125 96.328125 -19.28125 103.078125 -21.9375 L 99.546875 -6.90625 C 92.898438 -4.039062 86.304688 -1.535156 79.765625 0.609375 C 73.222656 2.753906 66.421875 3.828125 59.359375 3.828125 Z M 59.359375 3.828125 "/></g></g></g><g fill="#ffffff" fill-opacity="1"><g transform="translate(754.672404, 288.845914)"><g><path d="M 169.96875 -91.421875 C 169.96875 -73.523438 165.976562 -57.132812 158 -42.25 C 150.019531 -27.375 138.820312 -15.769531 124.40625 -7.4375 C 109.988281 0.894531 93.675781 5.0625 75.46875 5.0625 C 55.425781 5.0625 39.445312 -0.84375 27.53125 -12.65625 C 15.613281 -24.46875 9.65625 -40.445312 9.65625 -60.59375 C 9.65625 -78.59375 13.617188 -94.976562 21.546875 -109.75 C 29.472656 -124.53125 40.539062 -136.007812 54.75 -144.1875 C 68.96875 -152.375 84.976562 -156.46875 102.78125 -156.46875 C 123.632812 -156.46875 140.046875 -150.738281 152.015625 -139.28125 C 163.984375 -127.832031 169.96875 -111.878906 169.96875 -91.421875 Z M 78.84375 -7.203125 C 85.382812 -7.203125 91.492188 -11.828125 97.171875 -21.078125 C 102.847656 -30.335938 107.550781 -43.914062 111.28125 -61.8125 C 115.019531 -79.707031 116.890625 -96.378906 116.890625 -111.828125 C 116.890625 -132.992188 111.773438 -143.578125 101.546875 -143.578125 C 94.492188 -143.578125 88.101562 -139.023438 82.375 -129.921875 C 76.644531 -120.828125 71.960938 -107.484375 68.328125 -89.890625 C 64.703125 -72.296875 62.890625 -55.320312 62.890625 -38.96875 C 62.890625 -29.351562 64.015625 -21.707031 66.265625 -16.03125 C 68.515625 -10.351562 72.707031 -7.410156 78.84375 -7.203125 Z M 78.84375 -7.203125 "/></g></g></g><g fill="#ffffff" fill-opacity="1"><g transform="translate(897.237207, 288.845914)"><g/></g></g><g fill="#ffffff" fill-opacity="1"><g transform="translate(10.461393, 568.349162)"><g><path d="M 211.375 -177.78125 C 211.375 -163.46875 206.003906 -151.273438 195.265625 -141.203125 C 184.535156 -131.128906 167.507812 -123.332031 144.1875 -117.8125 L 143.890625 -115.046875 C 161.066406 -113.003906 174.613281 -107.890625 184.53125 -99.703125 C 194.457031 -91.523438 199.421875 -80.992188 199.421875 -68.109375 C 199.421875 -45.710938 191.289062 -28.757812 175.03125 -17.25 C 158.769531 -5.75 134.992188 0 103.703125 0 L -8.75 0 L -6.296875 -11.34375 C 12.316406 -11.34375 23.003906 -17.53125 25.765625 -29.90625 L 59.359375 -182.546875 C 60.179688 -185.503906 60.59375 -188.316406 60.59375 -190.984375 C 60.59375 -194.660156 58.414062 -197.828125 54.0625 -200.484375 C 49.71875 -203.148438 43.96875 -204.992188 36.8125 -206.015625 L 39.265625 -217.671875 L 142.046875 -217.671875 C 165.359375 -217.671875 182.738281 -214.445312 194.1875 -208 C 205.644531 -201.5625 211.375 -191.488281 211.375 -177.78125 Z M 150.484375 -175.03125 C 150.484375 -184.945312 148.488281 -192.28125 144.5 -197.03125 C 140.507812 -201.789062 135.191406 -204.171875 128.546875 -204.171875 C 124.660156 -204.171875 121.285156 -203.96875 118.421875 -203.5625 L 100.46875 -121.953125 L 109.0625 -121.953125 C 122.050781 -121.953125 132.203125 -126.679688 139.515625 -136.140625 C 146.828125 -145.597656 150.484375 -158.5625 150.484375 -175.03125 Z M 138.828125 -69.796875 C 138.828125 -82.679688 136.0625 -92.289062 130.53125 -98.625 C 125.007812 -104.96875 117.648438 -108.140625 108.453125 -108.140625 C 103.953125 -108.140625 100.269531 -107.882812 97.40625 -107.375 L 81.296875 -35.125 L 79.453125 -26.078125 C 80.273438 -22.492188 82.375 -19.550781 85.75 -17.25 C 89.125 -14.957031 93.519531 -13.8125 98.9375 -13.8125 C 110.5 -13.8125 120.035156 -18.972656 127.546875 -29.296875 C 135.066406 -39.628906 138.828125 -53.128906 138.828125 -69.796875 Z M 138.828125 -69.796875 "/></g></g></g><g fill="#ffffff" fill-opacity="1"><g transform="translate(189.217043, 568.349162)"><g><path d="M 66.875 -32.0625 C 66.875 -27.15625 67.796875 -23.625 69.640625 -21.46875 C 71.484375 -19.320312 74.753906 -18.25 79.453125 -18.25 C 84.878906 -18.25 92.65625 -19.9375 102.78125 -23.3125 L 98.9375 -8.4375 C 81.144531 -0.0507812 65.65625 4.140625 52.46875 4.140625 C 41.007812 4.140625 31.90625 1.253906 25.15625 -4.515625 C 18.40625 -10.296875 15.03125 -18.40625 15.03125 -28.84375 C 15.03125 -33.851562 16.207031 -41.929688 18.5625 -53.078125 L 51.546875 -195.421875 C 52.359375 -199.210938 52.765625 -202.128906 52.765625 -204.171875 C 52.765625 -208.265625 52.070312 -211.507812 50.6875 -213.90625 C 49.3125 -216.3125 47.085938 -218.101562 44.015625 -219.28125 C 40.953125 -220.457031 35.789062 -221.300781 28.53125 -221.8125 L 31.75 -233.46875 L 109.984375 -237.453125 L 111.515625 -235 L 70.71875 -56.296875 C 68.15625 -45.453125 66.875 -37.375 66.875 -32.0625 Z M 66.875 -32.0625 "/></g></g></g><g fill="#ffffff" fill-opacity="1"><g transform="translate(257.068695, 568.349162)"><g><path d="M 169.96875 -91.421875 C 169.96875 -73.523438 165.976562 -57.132812 158 -42.25 C 150.019531 -27.375 138.820312 -15.769531 124.40625 -7.4375 C 109.988281 0.894531 93.675781 5.0625 75.46875 5.0625 C 55.425781 5.0625 39.445312 -0.84375 27.53125 -12.65625 C 15.613281 -24.46875 9.65625 -40.445312 9.65625 -60.59375 C 9.65625 -78.59375 13.617188 -94.976562 21.546875 -109.75 C 29.472656 -124.53125 40.539062 -136.007812 54.75 -144.1875 C 68.96875 -152.375 84.976562 -156.46875 102.78125 -156.46875 C 123.632812 -156.46875 140.046875 -150.738281 152.015625 -139.28125 C 163.984375 -127.832031 169.96875 -111.878906 169.96875 -91.421875 Z M 78.84375 -7.203125 C 85.382812 -7.203125 91.492188 -11.828125 97.171875 -21.078125 C 102.847656 -30.335938 107.550781 -43.914062 111.28125 -61.8125 C 115.019531 -79.707031 116.890625 -96.378906 116.890625 -111.828125 C 116.890625 -132.992188 111.773438 -143.578125 101.546875 -143.578125 C 94.492188 -143.578125 88.101562 -139.023438 82.375 -129.921875 C 76.644531 -120.828125 71.960938 -107.484375 68.328125 -89.890625 C 64.703125 -72.296875 62.890625 -55.320312 62.890625 -38.96875 C 62.890625 -29.351562 64.015625 -21.707031 66.265625 -16.03125 C 68.515625 -10.351562 72.707031 -7.410156 78.84375 -7.203125 Z M 78.84375 -7.203125 "/></g></g></g><g fill="#ffffff" fill-opacity="1"><g transform="translate(399.623325, 568.349162)"><g><path d="M 198.1875 -129.15625 C 191.644531 -129.15625 183.617188 -122.96875 174.109375 -110.59375 L 149.5625 0 L 98.328125 0 L 118.734375 -92.34375 C 121.078125 -104.613281 122.25 -111.925781 122.25 -114.28125 C 122.25 -118.570312 121.429688 -122.125 119.796875 -124.9375 C 118.160156 -127.75 115.609375 -129.15625 112.140625 -129.15625 C 104.773438 -129.15625 96.488281 -123.070312 87.28125 -110.90625 L 62.890625 0 L 11.65625 0 L 32.359375 -93.578125 C 34.921875 -105.128906 36.203125 -113.101562 36.203125 -117.5 C 36.203125 -122.40625 35.28125 -125.984375 33.4375 -128.234375 C 31.59375 -130.484375 28.21875 -131.609375 23.3125 -131.609375 C 17.175781 -131.609375 10.988281 -130.128906 4.75 -127.171875 L 8.125 -142.359375 C 25.207031 -150.128906 39.269531 -154.015625 50.3125 -154.015625 C 60.945312 -154.015625 69.28125 -151.941406 75.3125 -147.796875 C 81.351562 -143.648438 85.648438 -136.566406 88.203125 -126.546875 L 89.28125 -126.546875 C 100.832031 -138.617188 110.1875 -146.519531 117.34375 -150.25 C 124.507812 -153.976562 132.4375 -155.84375 141.125 -155.84375 C 150.425781 -155.84375 158.09375 -153.054688 164.125 -147.484375 C 170.164062 -141.910156 173.492188 -134.832031 174.109375 -126.25 L 175.328125 -126.25 C 187.910156 -138.625 197.753906 -146.648438 204.859375 -150.328125 C 211.960938 -154.003906 219.914062 -155.84375 228.71875 -155.84375 C 238.226562 -155.84375 245.84375 -152.828125 251.5625 -146.796875 C 257.289062 -140.765625 260.15625 -133.097656 260.15625 -123.796875 C 260.15625 -116.328125 258.878906 -107.941406 256.328125 -98.640625 L 246.046875 -57.828125 C 243.492188 -46.992188 242.21875 -38.914062 242.21875 -33.59375 C 242.21875 -28.6875 243.289062 -25.15625 245.4375 -23 C 247.582031 -20.851562 251.109375 -19.78125 256.015625 -19.78125 C 259.898438 -19.78125 266.085938 -21.265625 274.578125 -24.234375 L 271.046875 -9.046875 C 263.785156 -5.773438 256.703125 -3.039062 249.796875 -0.84375 C 242.898438 1.351562 235.769531 2.453125 228.40625 2.453125 C 216.851562 2.453125 207.675781 -0.585938 200.875 -6.671875 C 194.070312 -12.753906 190.671875 -20.707031 190.671875 -30.53125 C 190.671875 -38.5 191.847656 -46.523438 194.203125 -54.609375 L 204.171875 -93.578125 C 206.523438 -102.984375 207.703125 -110.140625 207.703125 -115.046875 C 207.703125 -124.453125 204.53125 -129.15625 198.1875 -129.15625 Z M 198.1875 -129.15625 "/></g></g></g><g fill="#ffffff" fill-opacity="1"><g transform="translate(640.503624, 568.349162)"><g><path d="M 198.1875 -129.15625 C 191.644531 -129.15625 183.617188 -122.96875 174.109375 -110.59375 L 149.5625 0 L 98.328125 0 L 118.734375 -92.34375 C 121.078125 -104.613281 122.25 -111.925781 122.25 -114.28125 C 122.25 -118.570312 121.429688 -122.125 119.796875 -124.9375 C 118.160156 -127.75 115.609375 -129.15625 112.140625 -129.15625 C 104.773438 -129.15625 96.488281 -123.070312 87.28125 -110.90625 L 62.890625 0 L 11.65625 0 L 32.359375 -93.578125 C 34.921875 -105.128906 36.203125 -113.101562 36.203125 -117.5 C 36.203125 -122.40625 35.28125 -125.984375 33.4375 -128.234375 C 31.59375 -130.484375 28.21875 -131.609375 23.3125 -131.609375 C 17.175781 -131.609375 10.988281 -130.128906 4.75 -127.171875 L 8.125 -142.359375 C 25.207031 -150.128906 39.269531 -154.015625 50.3125 -154.015625 C 60.945312 -154.015625 69.28125 -151.941406 75.3125 -147.796875 C 81.351562 -143.648438 85.648438 -136.566406 88.203125 -126.546875 L 89.28125 -126.546875 C 100.832031 -138.617188 110.1875 -146.519531 117.34375 -150.25 C 124.507812 -153.976562 132.4375 -155.84375 141.125 -155.84375 C 150.425781 -155.84375 158.09375 -153.054688 164.125 -147.484375 C 170.164062 -141.910156 173.492188 -134.832031 174.109375 -126.25 L 175.328125 -126.25 C 187.910156 -138.625 197.753906 -146.648438 204.859375 -150.328125 C 211.960938 -154.003906 219.914062 -155.84375 228.71875 -155.84375 C 238.226562 -155.84375 245.84375 -152.828125 251.5625 -146.796875 C 257.289062 -140.765625 260.15625 -133.097656 260.15625 -123.796875 C 260.15625 -116.328125 258.878906 -107.941406 256.328125 -98.640625 L 246.046875 -57.828125 C 243.492188 -46.992188 242.21875 -38.914062 242.21875 -33.59375 C 242.21875 -28.6875 243.289062 -25.15625 245.4375 -23 C 247.582031 -20.851562 251.109375 -19.78125 256.015625 -19.78125 C 259.898438 -19.78125 266.085938 -21.265625 274.578125 -24.234375 L 271.046875 -9.046875 C 263.785156 -5.773438 256.703125 -3.039062 249.796875 -0.84375 C 242.898438 1.351562 235.769531 2.453125 228.40625 2.453125 C 216.851562 2.453125 207.675781 -0.585938 200.875 -6.671875 C 194.070312 -12.753906 190.671875 -20.707031 190.671875 -30.53125 C 190.671875 -38.5 191.847656 -46.523438 194.203125 -54.609375 L 204.171875 -93.578125 C 206.523438 -102.984375 207.703125 -110.140625 207.703125 -115.046875 C 207.703125 -124.453125 204.53125 -129.15625 198.1875 -129.15625 Z M 198.1875 -129.15625 "/></g></g></g><g fill="#ffffff" fill-opacity="1"><g transform="translate(881.383923, 568.349162)"><g><path d="M 137.296875 2.765625 C 117.660156 2.765625 104.976562 -4.445312 99.25 -18.875 L 98.328125 -18.875 C 90.148438 -10.382812 82.554688 -4.320312 75.546875 -0.6875 C 68.546875 2.9375 61.671875 4.75 54.921875 4.75 C 40.597656 4.75 29.421875 -0.0507812 21.390625 -9.65625 C 13.367188 -19.269531 9.359375 -33.332031 9.359375 -51.84375 C 9.359375 -70.457031 13.0625 -87.765625 20.46875 -103.765625 C 27.882812 -119.773438 38.0625 -132.40625 51 -141.65625 C 63.9375 -150.914062 77.921875 -155.546875 92.953125 -155.546875 C 99.703125 -155.546875 106.09375 -154.445312 112.125 -152.25 C 118.164062 -150.050781 122.875 -147.160156 126.25 -143.578125 L 173.03125 -153.25 L 175.640625 -150.484375 L 154.015625 -57.21875 C 151.453125 -47.601562 150.171875 -39.421875 150.171875 -32.671875 C 150.171875 -27.972656 151.140625 -24.5 153.078125 -22.25 C 155.023438 -20 158.554688 -18.875 163.671875 -18.875 C 166.429688 -18.875 169.703125 -19.359375 173.484375 -20.328125 C 177.273438 -21.296875 180.296875 -22.394531 182.546875 -23.625 L 179.625 -8.75 C 163.875 -1.070312 149.765625 2.765625 137.296875 2.765625 Z M 117.5 -120.5625 C 117.5 -126.1875 116.21875 -130.96875 113.65625 -134.90625 C 111.101562 -138.84375 107.578125 -140.8125 103.078125 -140.8125 C 97.453125 -140.8125 91.75 -136.441406 85.96875 -127.703125 C 80.195312 -118.960938 75.210938 -107.023438 71.015625 -91.890625 C 66.828125 -76.753906 64.734375 -63.097656 64.734375 -50.921875 C 64.734375 -41.003906 65.753906 -33.234375 67.796875 -27.609375 C 69.847656 -21.984375 73.632812 -19.171875 79.15625 -19.171875 C 84.570312 -19.171875 90.757812 -23.671875 97.71875 -32.671875 Z M 117.5 -120.5625 "/></g></g></g><g fill="#ffffff" fill-opacity="1"><g transform="translate(1031.618746, 568.349162)"><g/></g></g></g></g><path fill="#ffffff" d="M 799.703125 1066.882812 C 801.832031 1065.898438 803.914062 1064.824219 805.949219 1063.65625 C 807.988281 1062.492188 809.96875 1061.238281 811.894531 1059.898438 C 813.820312 1058.5625 815.683594 1057.140625 817.488281 1055.636719 C 819.289062 1054.136719 821.019531 1052.558594 822.683594 1050.902344 C 824.347656 1049.25 825.9375 1047.523438 827.449219 1045.730469 C 828.964844 1043.9375 830.394531 1042.082031 831.746094 1040.164062 C 833.097656 1038.246094 834.363281 1036.273438 835.539062 1034.242188 C 836.71875 1032.214844 837.804688 1030.136719 838.800781 1028.015625 C 839.796875 1025.890625 840.699219 1023.726562 841.507812 1021.523438 C 842.3125 1019.320312 843.023438 1017.085938 843.632812 1014.820312 C 844.246094 1012.554688 844.757812 1010.269531 845.167969 1007.960938 C 845.578125 1005.648438 845.890625 1003.328125 846.097656 1000.988281 C 846.304688 998.652344 846.410156 996.3125 846.414062 993.964844 C 846.417969 991.617188 846.316406 989.277344 846.117188 986.9375 C 845.914062 984.601562 845.613281 982.277344 845.207031 979.964844 C 844.800781 977.65625 844.296875 975.367188 843.691406 973.101562 C 841.425781 972.496094 839.136719 971.988281 836.824219 971.585938 C 834.511719 971.179688 832.1875 970.875 829.851562 970.675781 C 827.515625 970.472656 825.171875 970.375 822.828125 970.375 C 820.480469 970.378906 818.140625 970.484375 815.800781 970.695312 C 813.464844 970.902344 811.140625 971.210938 808.832031 971.621094 C 806.523438 972.035156 804.234375 972.546875 801.96875 973.15625 C 799.703125 973.769531 797.46875 974.476562 795.265625 975.285156 C 793.0625 976.09375 790.902344 976.992188 788.777344 977.988281 C 786.652344 978.988281 784.574219 980.074219 782.546875 981.25 C 780.519531 982.429688 778.542969 983.695312 776.625 985.042969 C 774.707031 986.394531 772.851562 987.828125 771.058594 989.339844 C 769.265625 990.851562 767.542969 992.441406 765.886719 994.105469 C 764.234375 995.769531 762.65625 997.503906 761.152344 999.304688 C 759.652344 1001.105469 758.230469 1002.972656 756.890625 1004.898438 C 755.550781 1006.824219 754.300781 1008.804688 753.132812 1010.839844 C 751.96875 1012.875 750.890625 1014.960938 749.910156 1017.089844 C 748.925781 1014.960938 747.851562 1012.875 746.683594 1010.839844 C 745.519531 1008.804688 744.265625 1006.824219 742.925781 1004.898438 C 741.585938 1002.972656 740.167969 1001.105469 738.664062 999.304688 C 737.160156 997.503906 735.582031 995.769531 733.929688 994.105469 C 732.273438 992.441406 730.550781 990.851562 728.757812 989.339844 C 726.964844 987.828125 725.109375 986.394531 723.191406 985.042969 C 721.273438 983.695312 719.300781 982.429688 717.269531 981.25 C 715.242188 980.074219 713.164062 978.988281 711.039062 977.988281 C 708.917969 976.992188 706.753906 976.09375 704.550781 975.285156 C 702.347656 974.476562 700.113281 973.769531 697.847656 973.15625 C 695.582031 972.546875 693.296875 972.035156 690.984375 971.621094 C 688.675781 971.210938 686.351562 970.902344 684.015625 970.695312 C 681.679688 970.484375 679.335938 970.378906 676.992188 970.375 C 674.644531 970.375 672.304688 970.472656 669.964844 970.675781 C 667.628906 970.875 665.304688 971.179688 662.992188 971.585938 C 660.683594 971.988281 658.394531 972.496094 656.125 973.101562 C 655.519531 975.367188 655.015625 977.65625 654.609375 979.964844 C 654.207031 982.277344 653.902344 984.601562 653.699219 986.9375 C 653.5 989.277344 653.398438 991.617188 653.402344 993.964844 C 653.40625 996.3125 653.511719 998.652344 653.71875 1000.988281 C 653.929688 1003.328125 654.238281 1005.648438 654.648438 1007.960938 C 655.0625 1010.269531 655.574219 1012.554688 656.183594 1014.820312 C 656.796875 1017.085938 657.503906 1019.320312 658.3125 1021.523438 C 659.117188 1023.726562 660.019531 1025.890625 661.015625 1028.015625 C 662.011719 1030.136719 663.101562 1032.214844 664.277344 1034.242188 C 665.457031 1036.273438 666.71875 1038.246094 668.070312 1040.164062 C 669.421875 1042.082031 670.855469 1043.9375 672.367188 1045.730469 C 673.878906 1047.523438 675.46875 1049.25 677.132812 1050.902344 C 678.796875 1052.558594 680.527344 1054.136719 682.332031 1055.636719 C 684.132812 1057.140625 685.996094 1058.5625 687.921875 1059.898438 C 689.851562 1061.238281 691.832031 1062.492188 693.867188 1063.65625 C 695.902344 1064.824219 697.984375 1065.898438 700.117188 1066.882812 C 697.984375 1067.867188 695.902344 1068.941406 693.867188 1070.105469 C 691.832031 1071.273438 689.851562 1072.527344 687.921875 1073.863281 C 685.996094 1075.203125 684.132812 1076.625 682.332031 1078.128906 C 680.527344 1079.628906 678.796875 1081.207031 677.132812 1082.863281 C 675.46875 1084.515625 673.878906 1086.238281 672.367188 1088.03125 C 670.855469 1089.824219 669.421875 1091.679688 668.070312 1093.601562 C 666.71875 1095.519531 665.457031 1097.492188 664.277344 1099.519531 C 663.101562 1101.550781 662.011719 1103.625 661.015625 1105.75 C 660.019531 1107.875 659.117188 1110.039062 658.3125 1112.242188 C 657.503906 1114.445312 656.796875 1116.679688 656.183594 1118.941406 C 655.574219 1121.207031 655.0625 1123.496094 654.648438 1125.804688 C 654.238281 1128.113281 653.929688 1130.4375 653.71875 1132.773438 C 653.511719 1135.113281 653.40625 1137.453125 653.402344 1139.800781 C 653.398438 1142.144531 653.5 1144.488281 653.699219 1146.824219 C 653.902344 1149.164062 654.207031 1151.488281 654.609375 1153.796875 C 655.015625 1156.109375 655.519531 1158.398438 656.125 1160.664062 C 658.394531 1161.269531 660.683594 1161.773438 662.992188 1162.179688 C 665.304688 1162.585938 667.628906 1162.886719 669.964844 1163.089844 C 672.304688 1163.292969 674.644531 1163.390625 676.992188 1163.386719 C 679.335938 1163.382812 681.679688 1163.277344 684.015625 1163.070312 C 686.351562 1162.863281 688.675781 1162.554688 690.984375 1162.140625 C 693.296875 1161.730469 695.582031 1161.21875 697.847656 1160.605469 C 700.113281 1159.996094 702.347656 1159.285156 704.550781 1158.480469 C 706.753906 1157.671875 708.917969 1156.769531 711.039062 1155.773438 C 713.164062 1154.777344 715.242188 1153.691406 717.269531 1152.511719 C 719.300781 1151.335938 721.273438 1150.070312 723.191406 1148.71875 C 725.109375 1147.367188 726.964844 1145.9375 728.757812 1144.425781 C 730.550781 1142.910156 732.273438 1141.324219 733.929688 1139.660156 C 735.582031 1137.996094 737.160156 1136.261719 738.664062 1134.460938 C 740.167969 1132.65625 741.585938 1130.792969 742.925781 1128.867188 C 744.265625 1126.941406 745.519531 1124.960938 746.683594 1122.925781 C 747.851562 1120.886719 748.925781 1118.804688 749.910156 1116.675781 C 750.890625 1118.804688 751.96875 1120.886719 753.132812 1122.925781 C 754.300781 1124.960938 755.550781 1126.941406 756.890625 1128.867188 C 758.230469 1130.792969 759.652344 1132.65625 761.152344 1134.460938 C 762.65625 1136.261719 764.234375 1137.996094 765.886719 1139.660156 C 767.542969 1141.324219 769.265625 1142.910156 771.058594 1144.425781 C 772.851562 1145.9375 774.707031 1147.367188 776.625 1148.71875 C 778.542969 1150.070312 780.519531 1151.335938 782.546875 1152.511719 C 784.574219 1153.691406 786.652344 1154.777344 788.777344 1155.773438 C 790.902344 1156.769531 793.0625 1157.671875 795.265625 1158.480469 C 797.46875 1159.285156 799.703125 1159.996094 801.96875 1160.605469 C 804.234375 1161.21875 806.523438 1161.730469 808.832031 1162.140625 C 811.140625 1162.554688 813.464844 1162.863281 815.800781 1163.070312 C 818.140625 1163.277344 820.480469 1163.382812 822.828125 1163.386719 C 825.171875 1163.390625 827.515625 1163.292969 829.851562 1163.089844 C 832.1875 1162.886719 834.511719 1162.585938 836.824219 1162.179688 C 839.136719 1161.773438 841.425781 1161.269531 843.691406 1160.664062 C 844.296875 1158.398438 844.800781 1156.109375 845.207031 1153.796875 C 845.613281 1151.488281 845.914062 1149.164062 846.117188 1146.824219 C 846.316406 1144.488281 846.417969 1142.144531 846.414062 1139.800781 C 846.410156 1137.453125 846.304688 1135.113281 846.097656 1132.773438 C 845.890625 1130.4375 845.578125 1128.113281 845.167969 1125.804688 C 844.757812 1123.496094 844.246094 1121.207031 843.632812 1118.941406 C 843.023438 1116.679688 842.3125 1114.445312 841.507812 1112.242188 C 840.699219 1110.039062 839.796875 1107.875 838.800781 1105.75 C 837.804688 1103.625 836.71875 1101.550781 835.539062 1099.519531 C 834.363281 1097.492188 833.097656 1095.519531 831.746094 1093.601562 C 830.394531 1091.679688 828.964844 1089.824219 827.449219 1088.03125 C 825.9375 1086.238281 824.347656 1084.515625 822.683594 1082.863281 C 821.019531 1081.207031 819.289062 1079.628906 817.488281 1078.128906 C 815.683594 1076.625 813.820312 1075.203125 811.894531 1073.863281 C 809.96875 1072.523438 807.988281 1071.273438 805.949219 1070.105469 C 803.914062 1068.941406 801.832031 1067.867188 799.703125 1066.882812 Z M 799.703125 1066.882812 " fill-opacity="1" fill-rule="nonzero"/></svg>