<svg xmlns="http://www.w3.org/2000/svg" xmlns:xlink="http://www.w3.org/1999/xlink" width="2000" zoomAndPan="magnify" viewBox="0 0 1500 1499.999933" height="2000" preserveAspectRatio="xMidYMid meet" version="1.0"><defs><clipPath id="edac429e17"><path d="M 120 376 L 1380.605469 376 L 1380.605469 1125 L 120 1125 Z M 120 376 " clip-rule="nonzero"/></clipPath></defs><g clip-path="url(#edac429e17)"><path fill="#000000" d="M 1171.613281 767.960938 C 1171.179688 770.820312 1170.53125 773.441406 1170.507812 776.066406 C 1170.5 777.132812 1171.683594 778.949219 1172.609375 779.160156 C 1177.664062 780.292969 1182.808594 781.054688 1187.933594 781.878906 C 1188.429688 781.957031 1189.074219 781.703125 1189.523438 781.40625 C 1194.121094 778.375 1199.359375 778.453125 1204.546875 778.222656 C 1205.800781 778.167969 1207.121094 778.066406 1208.28125 777.628906 C 1215.289062 774.996094 1221.882812 777.214844 1228.414062 779.402344 C 1230.535156 780.113281 1232.316406 780.148438 1234.507812 779.652344 C 1238.964844 778.640625 1243.402344 777.636719 1248.175781 778.28125 C 1252.160156 778.820312 1256.324219 778.292969 1260.382812 777.941406 C 1266.390625 777.421875 1272.371094 776.597656 1278.375 776.015625 C 1279.441406 775.914062 1280.613281 776.203125 1281.644531 776.570312 C 1285.046875 777.785156 1288.339844 779.347656 1291.796875 780.359375 C 1296.808594 781.820312 1301.828125 782.21875 1307.203125 781.707031 C 1313.117188 781.148438 1319.203125 782.421875 1325.214844 782.925781 C 1326.046875 782.992188 1327.019531 783.582031 1327.667969 783.308594 C 1332.210938 781.398438 1336.09375 783.777344 1339.679688 785.609375 C 1347.425781 789.5625 1355.285156 793.554688 1362.253906 798.679688 C 1368.199219 803.050781 1372.625 809.21875 1376.089844 815.992188 C 1378.988281 821.667969 1380.546875 827.496094 1380.335938 833.808594 C 1380.28125 835.449219 1379.90625 837.089844 1379.558594 838.707031 C 1379.230469 840.214844 1378.335938 841.703125 1378.398438 843.167969 C 1378.722656 850.5625 1374.808594 856.230469 1371.136719 862.050781 C 1367.390625 867.988281 1362.167969 872.40625 1356.484375 876.28125 C 1354.320312 877.757812 1351.636719 878.457031 1349.238281 879.613281 C 1347.488281 880.457031 1345.648438 881.253906 1344.152344 882.453125 C 1340.4375 885.4375 1340.667969 887.039062 1343.863281 890.671875 C 1345.859375 892.945312 1347.363281 895.742188 1348.691406 898.496094 C 1351.378906 904.082031 1354.125 909.863281 1353.894531 916.152344 C 1353.582031 924.769531 1350.417969 932.363281 1343.0625 937.53125 C 1340.433594 939.378906 1337.417969 940.675781 1334.648438 942.335938 C 1331.5625 944.1875 1328.550781 946.164062 1325.316406 948.207031 C 1326.097656 949.855469 1326.355469 951.027344 1327.058594 951.773438 C 1329.800781 954.671875 1332.746094 957.371094 1335.484375 960.273438 C 1336.8125 961.679688 1338.390625 963.203125 1338.921875 964.957031 C 1340.871094 971.398438 1342.699219 977.902344 1343.992188 984.5 C 1344.460938 986.890625 1343.542969 989.667969 1342.828125 992.144531 C 1342.050781 994.824219 1341.015625 997.5 1339.644531 999.925781 C 1338.503906 1001.949219 1336.8125 1003.695312 1335.199219 1005.40625 C 1333.09375 1007.644531 1330.972656 1009.914062 1328.585938 1011.828125 C 1325.988281 1013.910156 1323.1875 1015.789062 1320.277344 1017.398438 C 1317.085938 1019.164062 1313.582031 1020.359375 1310.375 1022.097656 C 1306.945312 1023.960938 1306.519531 1025.230469 1307.347656 1029.027344 C 1307.558594 1029.984375 1307.742188 1031.054688 1308.292969 1031.816406 C 1312.460938 1037.617188 1311.605469 1044.273438 1312 1050.828125 C 1312.253906 1055.105469 1312.984375 1059.527344 1310.542969 1063.050781 C 1305.320312 1070.597656 1300.410156 1078.515625 1290.679688 1081.582031 C 1286.648438 1082.851562 1283.15625 1085.832031 1279.417969 1088.03125 C 1277.273438 1089.292969 1275.265625 1090.96875 1272.960938 1091.738281 C 1266.53125 1093.878906 1260.421875 1096.535156 1254.648438 1100.144531 C 1248.183594 1104.179688 1241.3125 1107.03125 1233.511719 1108.109375 C 1228.378906 1108.820312 1223.351562 1111.328125 1218.628906 1113.722656 C 1212.300781 1116.9375 1205.496094 1118.019531 1198.699219 1118.929688 C 1192.324219 1119.785156 1185.789062 1119.375 1179.40625 1120.179688 C 1173.804688 1120.882812 1168.332031 1122.058594 1162.695312 1120.472656 C 1161.398438 1120.109375 1159.769531 1120.132812 1158.507812 1120.582031 C 1153.660156 1122.289062 1148.839844 1121.765625 1143.917969 1121.082031 C 1141.296875 1120.722656 1138.566406 1120.933594 1135.898438 1121.125 C 1127.019531 1121.773438 1118.289062 1121.511719 1109.492188 1119.546875 C 1103.789062 1118.273438 1097.746094 1118.40625 1091.84375 1118.21875 C 1083.605469 1117.960938 1075.355469 1118.007812 1067.113281 1117.878906 C 1066.445312 1117.867188 1065.730469 1117.601562 1065.128906 1117.285156 C 1060.269531 1114.710938 1054.933594 1114.363281 1049.617188 1113.878906 C 1041.019531 1113.09375 1032.378906 1112.582031 1023.84375 1111.347656 C 1019.394531 1110.703125 1015.160156 1108.65625 1010.773438 1107.429688 C 1006.441406 1106.222656 1002.003906 1105.386719 997.675781 1104.152344 C 990.019531 1101.96875 982.441406 1099.507812 974.769531 1097.375 C 971.804688 1096.550781 968.691406 1096 965.621094 1095.859375 C 957.972656 1095.507812 951.183594 1092.371094 944.386719 1089.441406 C 940.128906 1087.609375 935.90625 1087.523438 931.578125 1088.058594 C 929.402344 1088.324219 927.710938 1088.023438 925.613281 1087.167969 C 920.792969 1085.199219 916.171875 1082.828125 910.800781 1081.90625 C 905.382812 1080.976562 900.195312 1078.320312 895.097656 1076.003906 C 889.117188 1073.292969 883.351562 1070.109375 877.472656 1067.175781 C 873.339844 1065.113281 869.054688 1063.335938 865.070312 1061.027344 C 862.566406 1059.582031 860.671875 1057.089844 858.179688 1055.613281 C 854.726562 1053.566406 851.117188 1051.539062 847.308594 1050.402344 C 842.085938 1048.84375 837.5 1046.351562 833.183594 1043.183594 C 830.964844 1041.550781 829.730469 1041.675781 828.671875 1044.152344 C 827.683594 1046.460938 826.894531 1048.914062 826.429688 1051.378906 C 825.582031 1055.90625 825.335938 1060.554688 824.285156 1065.027344 C 823.300781 1069.210938 821.699219 1073.261719 820.183594 1077.304688 C 819.375 1079.472656 818.554688 1081.445312 819.941406 1083.726562 C 820.386719 1084.457031 820.457031 1085.773438 820.117188 1086.570312 C 817.566406 1092.507812 816.484375 1099.335938 811.554688 1103.902344 C 808.195312 1107.011719 807.789062 1110.277344 808.871094 1114.140625 C 810.695312 1120.644531 809.445312 1122.496094 802.71875 1124.082031 C 799.476562 1124.847656 796.746094 1125.09375 794.109375 1122.589844 C 793.511719 1122.019531 791.871094 1122.472656 790.722656 1122.578125 C 788.953125 1122.738281 786.957031 1123.652344 785.476562 1123.109375 C 779.015625 1120.734375 772.328125 1119.4375 765.621094 1118.132812 C 764.679688 1117.949219 763.648438 1117.660156 762.917969 1117.09375 C 758.09375 1113.339844 752.691406 1111.101562 746.851562 1109.199219 C 741.800781 1107.558594 737.042969 1104.375 732.804688 1101.042969 C 727.859375 1097.15625 722.855469 1093.769531 716.714844 1092.144531 C 714.289062 1091.503906 711.925781 1090.523438 709.648438 1089.449219 C 702.988281 1086.304688 695.675781 1085.578125 688.691406 1083.648438 C 686.800781 1083.128906 684.800781 1082.890625 683.003906 1082.15625 C 676.234375 1079.386719 669.484375 1076.558594 662.8125 1073.558594 C 660.148438 1072.363281 657.777344 1070.535156 655.148438 1069.242188 C 652.171875 1067.773438 649 1066.703125 646.015625 1065.246094 C 643.113281 1063.832031 640.339844 1062.148438 637.507812 1060.582031 C 636.519531 1060.039062 635.589844 1059.210938 634.535156 1059.007812 C 628.253906 1057.785156 622.914062 1054.257812 617.054688 1052.035156 C 605.660156 1047.71875 594.191406 1043.597656 582.804688 1039.261719 C 579.015625 1037.816406 575.414062 1035.875 571.667969 1034.300781 C 563.445312 1030.847656 555.636719 1026.484375 546.761719 1024.492188 C 537.753906 1022.476562 529.988281 1017.460938 522.136719 1012.757812 C 519.9375 1011.441406 517.210938 1010.992188 514.714844 1010.183594 C 512.710938 1009.539062 510.707031 1008.882812 508.671875 1008.355469 C 499.875 1006.082031 492.496094 1001.328125 485.738281 995.4375 C 484.902344 994.707031 483.902344 993.992188 482.855469 993.707031 C 477.597656 992.28125 473.15625 989.347656 468.6875 986.414062 C 467.53125 985.652344 466.207031 984.984375 464.867188 984.707031 C 461.101562 983.917969 457.933594 982.34375 454.695312 980.085938 C 449.804688 976.671875 444.0625 974.5 438.808594 971.574219 C 432.832031 968.25 426.992188 964.6875 421.109375 961.199219 C 413.292969 956.566406 406.398438 949.855469 397.1875 948.3125 C 390.390625 947.171875 386.160156 942.636719 381.035156 939.15625 C 379.648438 938.214844 378.324219 937.023438 376.78125 936.496094 C 371.414062 934.664062 367.367188 930.984375 363.179688 927.417969 C 361.390625 925.894531 359.417969 924.253906 357.246094 923.574219 C 352.484375 922.09375 348.898438 919.035156 345.261719 915.929688 C 342.164062 913.289062 339.042969 910.675781 335.90625 908.082031 C 329.855469 903.078125 323.8125 898.058594 317.699219 893.128906 C 315.847656 891.632812 313.894531 890.1875 311.792969 889.097656 C 303.601562 884.84375 296.378906 879.472656 290.316406 872.414062 C 288.480469 870.277344 285.433594 869.203125 283.03125 867.515625 C 280.40625 865.671875 277.621094 863.945312 275.367188 861.707031 C 268.882812 855.265625 262.148438 849.164062 254.992188 843.453125 C 250.667969 840.003906 247.183594 835.5 243.335938 831.460938 C 242.753906 830.851562 242.363281 829.828125 241.675781 829.582031 C 234.601562 827.0625 230.121094 820.953125 224.152344 816.890625 C 221.035156 814.769531 218.957031 811.109375 216.425781 808.132812 C 215.792969 807.386719 215.382812 806.324219 214.601562 805.851562 C 209.546875 802.78125 207.238281 797.589844 204.050781 792.984375 C 200.800781 788.289062 197.109375 783.679688 192.792969 779.984375 C 185.386719 773.648438 178.4375 767.144531 173.09375 758.832031 C 170.359375 754.574219 165.933594 751.425781 162.414062 747.640625 C 155.4375 740.136719 148.429688 732.652344 141.710938 724.917969 C 139.347656 722.195312 138.003906 718.609375 135.800781 715.71875 C 133.863281 713.171875 131.207031 711.183594 129.160156 708.707031 C 121.445312 699.398438 119.078125 688.871094 121 676.859375 C 121.761719 672.105469 124.023438 668.296875 125.574219 664.050781 C 127.207031 659.589844 128.921875 655.152344 130.460938 650.65625 C 132.792969 643.84375 135.792969 637.414062 139.886719 631.429688 C 142.414062 627.734375 144.339844 623.621094 146.457031 619.65625 C 149.894531 613.21875 153.3125 606.765625 156.660156 600.28125 C 159.617188 594.546875 162.46875 588.753906 165.363281 582.984375 C 165.488281 582.734375 165.519531 582.402344 165.703125 582.214844 C 171.53125 576.363281 173.558594 568.339844 177.585938 561.460938 C 177.726562 561.214844 177.9375 560.992188 178.011719 560.730469 C 182.320312 545.714844 193.167969 534.167969 199.535156 520.234375 C 200.5625 517.980469 202.601562 516.210938 203.933594 514.070312 C 207.71875 507.984375 211.867188 502.054688 214.972656 495.625 C 218.964844 487.355469 224.773438 480.320312 229.40625 472.511719 C 230.113281 471.324219 231.117188 470.269531 232.136719 469.324219 C 235.457031 466.242188 238.203125 463.09375 239.390625 458.320312 C 240.300781 454.667969 243.136719 451.464844 245.273438 448.160156 C 247.515625 444.6875 249 440.667969 252.925781 438.375 C 254.25 437.601562 254.953125 435.730469 255.875 434.316406 C 257.789062 431.378906 259.6875 428.429688 261.535156 425.449219 C 263.90625 421.628906 266.21875 417.769531 268.5625 413.929688 C 271.695312 408.796875 274.578125 403.488281 278.039062 398.589844 C 282.078125 392.871094 286.78125 387.625 290.90625 381.964844 C 296.082031 374.855469 308.476562 374.65625 313.902344 378.667969 C 318.765625 382.265625 323.433594 386.128906 328.160156 389.910156 C 334.1875 394.726562 340.03125 399.789062 346.238281 404.359375 C 356.082031 411.613281 366.136719 418.585938 376.148438 425.605469 C 382.132812 429.808594 387.871094 434.566406 394.355469 437.792969 C 399.554688 440.378906 404.417969 443.285156 409.09375 446.613281 C 411.03125 447.992188 413.007812 449.417969 414.609375 451.152344 C 417.691406 454.488281 421.460938 456.332031 425.746094 457.574219 C 428.957031 458.5 432.035156 459.90625 435.109375 461.242188 C 435.796875 461.542969 436.359375 462.371094 436.753906 463.082031 C 441.074219 470.890625 448.144531 475.648438 455.492188 480.125 C 456.921875 480.992188 458.199219 482.113281 459.597656 483.039062 C 461.816406 484.5 463.929688 486.25 466.351562 487.234375 C 471.265625 489.234375 475.390625 492.265625 479.453125 495.578125 C 482.148438 497.773438 485.378906 499.300781 488.273438 501.269531 C 494.410156 505.449219 500.476562 509.726562 506.585938 513.941406 C 507.277344 514.417969 508.03125 514.992188 508.816406 515.117188 C 514.28125 515.996094 517.683594 520.34375 522.152344 522.871094 C 526.726562 525.460938 530.714844 528.660156 534.128906 532.65625 C 534.792969 533.429688 536.039062 533.726562 537.039062 534.191406 C 538.9375 535.070312 540.851562 535.921875 542.769531 536.761719 C 543.789062 537.207031 544.835938 537.957031 545.863281 537.949219 C 552.160156 537.902344 556.617188 541.46875 561.015625 545.285156 C 564.246094 548.082031 567.6875 550.417969 572.339844 549.597656 C 572.996094 549.480469 573.875 549.546875 574.390625 549.90625 C 578.394531 552.671875 582.265625 555.628906 586.316406 558.332031 C 588.824219 560.003906 591.441406 562.21875 594.234375 562.613281 C 598.636719 563.234375 602.273438 565.082031 605.886719 567.261719 C 607.917969 568.488281 610.046875 569.695312 611.734375 571.320312 C 614.539062 574.027344 618.160156 574.59375 621.554688 575.863281 C 624.292969 576.882812 626.871094 578.34375 629.5 579.644531 C 632.636719 581.199219 635.78125 582.746094 638.878906 584.375 C 642.308594 586.183594 644.925781 589.492188 649.167969 589.839844 C 649.769531 589.890625 650.441406 590.5 650.871094 591.019531 C 654.449219 595.390625 659.179688 597.691406 664.636719 598.460938 C 673.050781 599.648438 679.441406 604.90625 686.429688 608.980469 C 690.429688 611.316406 694.511719 613.507812 698.464844 615.917969 C 701.792969 617.945312 704.988281 620.191406 708.242188 622.351562 C 708.472656 622.503906 708.636719 622.808594 708.882812 622.894531 C 716.328125 625.46875 722.425781 631.105469 730.394531 632.464844 C 735.519531 633.339844 740.011719 635.480469 744.023438 638.734375 C 744.675781 639.265625 745.359375 639.863281 746.136719 640.117188 C 751.859375 641.988281 757.652344 643.65625 763.332031 645.636719 C 767.027344 646.925781 770.578125 648.625 774.179688 650.164062 C 777.515625 651.59375 780.832031 653.078125 784.171875 654.496094 C 786.996094 655.695312 789.84375 656.835938 792.679688 658.007812 C 792.808594 658.058594 792.929688 658.175781 793.0625 658.183594 C 800.738281 658.625 805.894531 664.671875 812.796875 667.101562 C 818.867188 669.238281 823.984375 673.949219 829.816406 676.953125 C 835.277344 679.769531 840.945312 682.613281 846.859375 683.976562 C 851.382812 685.023438 855.265625 686.855469 859.199219 688.949219 C 859.820312 689.277344 860.65625 689.515625 860.976562 690.046875 C 863.460938 694.160156 868.105469 694.769531 871.820312 696.878906 C 875.964844 699.230469 880.511719 701.070312 884.183594 704.007812 C 888.890625 707.773438 891.957031 713.011719 891.980469 719.273438 C 891.996094 722.566406 890.9375 725.859375 890.445312 729.164062 C 889.914062 732.765625 889.347656 736.375 889.097656 740 C 889.039062 740.835938 890.011719 742.097656 890.847656 742.585938 C 897.964844 746.726562 904.421875 752.089844 913.242188 752.882812 C 917.171875 753.238281 920.894531 755.546875 924.800781 756.648438 C 933.03125 758.972656 941.316406 761.117188 949.59375 763.261719 C 951.359375 763.71875 953.210938 763.828125 955.007812 764.179688 C 958.648438 764.890625 962.144531 764.589844 965.839844 763.933594 C 971.472656 762.9375 977.273438 762.757812 983.015625 762.550781 C 987.5625 762.390625 991.988281 762.074219 996.164062 760.027344 C 997.257812 759.492188 998.605469 759.261719 999.835938 759.269531 C 1006.890625 759.296875 1013.367188 757.445312 1019.628906 754.175781 C 1025.703125 751 1032.167969 748.578125 1038.28125 745.46875 C 1042.871094 743.136719 1047.1875 740.257812 1051.601562 737.582031 C 1053.761719 736.269531 1055.765625 734.65625 1058.023438 733.554688 C 1062.863281 731.195312 1066.265625 727.28125 1069.789062 723.433594 C 1071.464844 721.609375 1073.515625 720.125 1075.136719 718.265625 C 1078.523438 714.378906 1081.753906 710.359375 1085.023438 706.375 C 1088.484375 702.148438 1092.007812 697.972656 1095.332031 693.640625 C 1098.128906 689.992188 1100.742188 686.195312 1103.320312 682.386719 C 1107.011719 676.945312 1110.816406 671.566406 1114.160156 665.914062 C 1117.351562 660.523438 1121.582031 656.140625 1125.914062 651.730469 C 1127.835938 649.777344 1129.613281 647.203125 1130.277344 644.609375 C 1131.1875 641.050781 1133.324219 638.648438 1135.734375 636.335938 C 1140.519531 631.746094 1143.835938 626.417969 1145.746094 619.992188 C 1146.679688 616.851562 1148.679688 613.921875 1150.628906 611.203125 C 1153.800781 606.78125 1156.175781 602.140625 1156.890625 596.679688 C 1157.101562 595.046875 1157.738281 593.417969 1158.433594 591.90625 C 1159.890625 588.757812 1161.71875 585.925781 1162.296875 582.246094 C 1162.707031 579.617188 1165.605469 577.46875 1166.972656 574.882812 C 1170.648438 567.925781 1174.019531 560.8125 1177.671875 553.84375 C 1179.160156 551.003906 1181.125 548.417969 1182.769531 545.65625 C 1184.03125 543.527344 1184.910156 541.136719 1186.363281 539.160156 C 1188.085938 536.816406 1190.257812 534.808594 1192.210938 532.628906 C 1193.875 530.78125 1195.445312 528.851562 1197.15625 527.046875 C 1198.683594 525.4375 1200.34375 523.957031 1201.9375 522.414062 C 1204.75 519.6875 1207.421875 516.792969 1210.394531 514.257812 C 1215.585938 509.824219 1223.035156 509.371094 1228.914062 512.949219 C 1237.304688 518.058594 1242.859375 525.292969 1245.597656 534.800781 C 1247.003906 539.679688 1248.628906 544.429688 1247.945312 549.625 C 1247.820312 550.550781 1248.253906 551.546875 1248.382812 552.519531 C 1248.933594 556.671875 1249.484375 560.828125 1250.003906 564.988281 C 1250.457031 568.585938 1250.90625 572.1875 1251.277344 575.796875 C 1251.539062 578.300781 1252.109375 580.882812 1251.78125 583.324219 C 1249.839844 597.863281 1246.421875 612.074219 1241.734375 625.976562 C 1240.117188 630.773438 1238.769531 635.664062 1236.996094 640.398438 C 1235.976562 643.105469 1234.683594 645.84375 1232.921875 648.109375 C 1230.277344 651.507812 1230.269531 655.617188 1229.800781 659.347656 C 1229.117188 664.773438 1227.046875 669.605469 1225.332031 674.617188 C 1222.5625 682.714844 1219.6875 690.703125 1215.414062 698.25 C 1212.402344 703.574219 1211.074219 709.835938 1208.792969 715.601562 C 1207.929688 717.789062 1206.550781 719.785156 1205.328125 721.820312 C 1201.859375 727.59375 1198.515625 733.449219 1194.804688 739.0625 C 1192.199219 742.996094 1189.246094 746.738281 1186.117188 750.277344 C 1183.820312 752.867188 1180.75 754.78125 1178.5 757.402344 C 1177.378906 758.710938 1177.097656 760.898438 1176.832031 762.746094 C 1176.183594 767.3125 1176.273438 767.324219 1171.613281 767.960938 Z M 1188.347656 812.511719 C 1182.46875 812.640625 1176.59375 812.832031 1170.714844 812.882812 C 1166.519531 812.917969 1162.234375 813.285156 1158.148438 812.582031 C 1151.296875 811.402344 1144.632812 808.640625 1137.777344 808.144531 C 1132.113281 807.730469 1129.785156 805.273438 1128.777344 801.28125 C 1130.328125 798.503906 1132.242188 796.390625 1132.675781 794.007812 C 1133.371094 790.191406 1134.613281 786.957031 1136.75 783.640625 C 1138.703125 780.609375 1140.722656 777.945312 1143.5625 775.785156 C 1144.546875 775.035156 1145.382812 774.015625 1146.082031 772.980469 C 1149.699219 767.621094 1153.152344 762.144531 1156.875 756.859375 C 1158.464844 754.597656 1160.59375 752.722656 1162.433594 750.632812 C 1162.964844 750.03125 1163.484375 749.351562 1163.769531 748.613281 C 1165.796875 743.378906 1167.773438 738.121094 1169.75 732.867188 C 1170.671875 730.40625 1171.300781 727.804688 1172.5 725.492188 C 1175.863281 719 1179.90625 712.824219 1182.832031 706.152344 C 1185.5625 699.925781 1187.113281 693.191406 1189.371094 686.742188 C 1190.234375 684.277344 1191.601562 681.984375 1192.769531 679.625 C 1193.328125 678.503906 1194.125 677.476562 1194.535156 676.308594 C 1196.910156 669.570312 1199.152344 662.785156 1201.53125 656.046875 C 1203.78125 649.691406 1206.199219 643.390625 1208.453125 637.03125 C 1211.453125 628.578125 1213.996094 619.9375 1217.480469 611.691406 C 1219.085938 607.894531 1219.851562 604.296875 1219.679688 600.332031 C 1219.65625 599.769531 1219.460938 599.105469 1219.683594 598.660156 C 1222.632812 592.824219 1221.800781 586.90625 1220.96875 580.695312 C 1220.375 576.242188 1221.402344 571.453125 1222.34375 566.949219 C 1223.273438 562.496094 1223.195312 558.410156 1221.414062 554.179688 C 1220.144531 551.15625 1219.019531 547.996094 1220.441406 544.496094 C 1220.992188 543.132812 1220.53125 541.359375 1220.53125 539.664062 C 1219.632812 539.746094 1219.132812 539.640625 1218.832031 539.839844 C 1211.023438 545.027344 1206.160156 552.640625 1201.917969 560.707031 C 1200.570312 563.265625 1199.601562 566.039062 1198.636719 568.777344 C 1197.894531 570.875 1197.496094 573.09375 1196.816406 575.214844 C 1196.300781 576.820312 1195.597656 578.367188 1194.949219 579.929688 C 1193.78125 582.734375 1192.546875 585.519531 1191.414062 588.339844 C 1189.847656 592.234375 1188.34375 596.15625 1186.832031 600.074219 C 1186.683594 600.460938 1186.753906 600.933594 1186.597656 601.3125 C 1184.035156 607.507812 1181.625 613.773438 1178.789062 619.835938 C 1177.621094 622.335938 1175.148438 624.210938 1173.929688 626.695312 C 1171.335938 631.976562 1169.253906 637.503906 1166.796875 642.855469 C 1165.867188 644.878906 1164.78125 646.988281 1163.238281 648.53125 C 1160.742188 651.03125 1159.292969 653.910156 1158.246094 657.203125 C 1157.722656 658.851562 1156.636719 660.410156 1155.503906 661.753906 C 1153.34375 664.308594 1150.925781 666.644531 1148.699219 669.144531 C 1147.394531 670.613281 1146.355469 672.320312 1145.015625 673.746094 C 1139.15625 679.984375 1133.730469 686.484375 1129.863281 694.242188 C 1128.0625 697.847656 1125.511719 701.125 1123.023438 704.335938 C 1120.441406 707.664062 1117.597656 710.800781 1114.730469 713.894531 C 1112.144531 716.679688 1109.695312 719.769531 1106.601562 721.859375 C 1102.070312 724.921875 1099.339844 729.464844 1096.011719 733.449219 C 1092.003906 738.242188 1089.097656 744.007812 1083.625 747.460938 C 1076.527344 751.941406 1069.335938 756.265625 1063.960938 762.9375 C 1063.558594 763.441406 1062.785156 763.667969 1062.152344 763.964844 C 1056.078125 766.792969 1050.011719 769.648438 1043.90625 772.414062 C 1038.785156 774.734375 1033.585938 776.878906 1028.472656 779.222656 C 1024.542969 781.023438 1020.195312 781.3125 1016.230469 783.484375 C 1012.992188 785.253906 1009.027344 786.667969 1004.53125 785.421875 C 1001.777344 784.660156 998.347656 786.285156 995.238281 786.917969 C 993.765625 787.21875 992.347656 787.953125 990.875 788.066406 C 987.828125 788.296875 984.753906 788.15625 981.703125 788.328125 C 977.816406 788.546875 973.933594 788.898438 970.054688 789.246094 C 965.742188 789.636719 961.308594 790.953125 957.152344 790.34375 C 947.589844 788.945312 938.109375 786.828125 928.699219 784.582031 C 924.089844 783.484375 919.398438 781.992188 915.285156 779.710938 C 907.546875 775.417969 898.964844 773.734375 890.804688 770.789062 C 889.851562 770.445312 888.667969 770.742188 887.097656 770.742188 C 886.53125 775.867188 886.046875 780.839844 885.402344 785.789062 C 885.210938 787.273438 884.59375 788.703125 884.148438 790.148438 C 883.410156 792.53125 882.265625 794.863281 881.980469 797.296875 C 881.101562 804.828125 880.796875 812.429688 879.792969 819.941406 C 878.957031 826.1875 877.457031 832.34375 876.226562 838.53125 C 875.378906 842.808594 874.800781 847.171875 873.527344 851.316406 C 871.90625 856.605469 869.835938 861.457031 869.890625 867.429688 C 869.964844 875.273438 867.84375 883.164062 866.390625 890.984375 C 865.832031 893.976562 864.457031 896.808594 863.554688 899.746094 C 862.367188 903.621094 861.132812 907.492188 860.183594 911.425781 C 859.394531 914.695312 858.308594 918.113281 858.597656 921.355469 C 858.929688 925.097656 857.976562 928.265625 856.675781 931.535156 C 856.316406 932.441406 855.953125 933.367188 855.765625 934.320312 C 854.597656 940.230469 853.65625 946.1875 852.308594 952.050781 C 850.222656 961.128906 849.554688 970.640625 844.449219 978.835938 C 844.308594 979.058594 844.3125 979.378906 844.273438 979.65625 C 843.683594 983.519531 843.148438 987.390625 842.496094 991.242188 C 842.046875 993.863281 841.605469 996.507812 840.859375 999.054688 C 839.242188 1004.574219 837.457031 1010.046875 835.679688 1015.515625 C 835.144531 1017.164062 835.679688 1018.226562 837.109375 1019.011719 C 841.136719 1021.226562 845.144531 1023.472656 849.175781 1025.675781 C 853.867188 1028.234375 858.957031 1030.257812 863.160156 1033.457031 C 866.5625 1036.050781 870.371094 1037.042969 874.082031 1038.578125 C 881.332031 1041.582031 888.871094 1044.050781 895.71875 1047.785156 C 900.328125 1050.300781 904.0625 1054.378906 909.757812 1054.789062 C 910.519531 1054.847656 911.226562 1055.578125 911.96875 1055.980469 C 917.167969 1058.78125 922.3125 1061.636719 928.523438 1061.605469 C 930.097656 1061.597656 931.683594 1062.453125 933.242188 1062.976562 C 936.753906 1064.152344 939.839844 1066.03125 943.886719 1066.273438 C 948.902344 1066.570312 954.171875 1067.390625 958.324219 1071.296875 C 959.921875 1072.800781 962.542969 1073.425781 964.8125 1073.957031 C 970.953125 1075.402344 977.203125 1076.40625 983.324219 1077.917969 C 987.960938 1079.0625 992.734375 1080.191406 996.945312 1082.320312 C 1000.148438 1083.9375 1003.203125 1084.578125 1006.605469 1084.605469 C 1008.003906 1084.613281 1009.457031 1084.582031 1010.785156 1084.945312 C 1017 1086.636719 1023.328125 1088.066406 1029.332031 1090.335938 C 1037.421875 1093.394531 1045.539062 1094.703125 1054.136719 1093.542969 C 1056.433594 1093.230469 1058.894531 1093.835938 1061.234375 1094.269531 C 1067.15625 1095.367188 1073.023438 1096.730469 1078.953125 1097.753906 C 1086.699219 1099.089844 1094.480469 1100.238281 1102.257812 1101.386719 C 1104.75 1101.753906 1107.28125 1102.007812 1109.796875 1102.046875 C 1117.960938 1102.175781 1126.125 1102.191406 1134.292969 1102.234375 C 1140.457031 1102.269531 1146.621094 1102.316406 1152.789062 1102.292969 C 1156.875 1102.277344 1161.066406 1101.527344 1165.019531 1102.207031 C 1171.96875 1103.402344 1178.738281 1102.675781 1185.554688 1101.730469 C 1188.050781 1101.386719 1190.511719 1100.757812 1192.976562 1100.222656 C 1198.460938 1099.03125 1204.027344 1098.117188 1209.375 1096.488281 C 1212.023438 1095.679688 1214.261719 1093.535156 1216.6875 1091.996094 C 1216.625 1091.617188 1216.566406 1091.234375 1216.503906 1090.855469 C 1212.335938 1090.074219 1208.191406 1088.835938 1203.996094 1088.648438 C 1200.5625 1088.496094 1197.085938 1089.714844 1193.605469 1090.105469 C 1188.410156 1090.683594 1183.269531 1090.867188 1178.15625 1089.011719 C 1176.011719 1088.230469 1173.460938 1088.582031 1171.097656 1088.394531 C 1170.277344 1088.328125 1169.425781 1088.296875 1168.648438 1088.058594 C 1165.585938 1087.121094 1162.496094 1086.238281 1159.507812 1085.097656 C 1150.890625 1081.816406 1142.15625 1079.070312 1135.144531 1072.308594 C 1126.785156 1064.246094 1128.695312 1054.394531 1128.734375 1044.707031 C 1128.734375 1044.578125 1128.828125 1044.4375 1128.90625 1044.324219 C 1131.761719 1040.359375 1134.5625 1036.355469 1137.496094 1032.449219 C 1139.140625 1030.261719 1141.003906 1028.238281 1142.875 1026.019531 C 1140.242188 1024.035156 1138.027344 1022.335938 1135.785156 1020.683594 C 1128.460938 1015.277344 1121.945312 1009.050781 1117.777344 1000.882812 C 1116.3125 998.011719 1114.722656 994.003906 1115.628906 991.34375 C 1118.5625 982.714844 1123.742188 975.09375 1128.679688 967.433594 C 1128.894531 967.097656 1129.277344 966.8125 1129.648438 966.632812 C 1134.808594 964.148438 1139.941406 961.597656 1145.167969 959.253906 C 1147.535156 958.191406 1150.164062 957.660156 1151.914062 954.839844 C 1149.238281 953.9375 1146.890625 953.03125 1144.480469 952.351562 C 1133.523438 949.257812 1125.863281 939.953125 1125.652344 929.066406 C 1125.609375 926.742188 1126.769531 924.375 1126.609375 922.082031 C 1126.355469 918.378906 1127.859375 915.558594 1129.933594 912.8125 C 1133.320312 908.328125 1136.613281 903.773438 1140.085938 899.355469 C 1141.449219 897.617188 1143.023438 895.96875 1144.773438 894.628906 C 1148.574219 891.707031 1152.546875 889.011719 1156.09375 886.480469 C 1152.449219 883.691406 1149.113281 881.203125 1145.84375 878.628906 C 1140 874.023438 1136.105469 868.570312 1138.210938 860.574219 C 1138.347656 860.054688 1138.285156 859.4375 1138.164062 858.898438 C 1136.832031 853 1140.0625 848.007812 1141.746094 842.847656 C 1143.734375 836.738281 1148.96875 833.332031 1155.019531 831.589844 C 1159.195312 830.390625 1162.507812 827.949219 1166.023438 825.566406 C 1172.007812 821.515625 1177.347656 816.15625 1185.113281 815.203125 C 1186.257812 815.066406 1187.214844 813.386719 1188.257812 812.417969 L 1189.039062 812.214844 C 1188.808594 812.3125 1188.578125 812.414062 1188.347656 812.511719 Z M 1194.980469 836.804688 C 1190.632812 835.785156 1188.214844 837.015625 1185.871094 838.8125 C 1181.875 841.875 1177.765625 844.785156 1173.722656 847.789062 C 1170.117188 850.464844 1166.414062 853.027344 1162.984375 855.917969 C 1159.027344 859.25 1159.75 863.445312 1164.5625 865.226562 C 1168.609375 866.726562 1172.800781 867.84375 1176.933594 869.113281 C 1180.542969 870.21875 1184.152344 871.339844 1187.78125 872.375 C 1189.675781 872.914062 1191.820312 872.886719 1193.5 873.78125 C 1200.707031 877.613281 1208.234375 876.285156 1215.769531 875.671875 C 1217.535156 875.527344 1219.359375 875.730469 1221.121094 876.007812 C 1223.199219 876.332031 1225.210938 877.097656 1227.292969 877.324219 C 1229.507812 877.5625 1231.769531 877.355469 1234.011719 877.410156 C 1241.277344 877.578125 1248.550781 878.085938 1255.804688 877.890625 C 1265.714844 877.621094 1275.589844 875.386719 1285.53125 877.710938 C 1286.558594 877.949219 1287.75 877.582031 1288.851562 877.410156 C 1291.621094 876.972656 1294.417969 876.644531 1297.132812 875.980469 C 1301.746094 874.859375 1306.476562 873.929688 1310.84375 872.148438 C 1315.484375 870.253906 1319.78125 867.503906 1324.179688 865.042969 C 1331.898438 860.722656 1339.726562 856.570312 1347.203125 851.859375 C 1350.039062 850.070312 1352.773438 847.292969 1354.195312 844.316406 C 1355.640625 841.292969 1355.503906 837.480469 1355.894531 833.992188 C 1356.203125 831.210938 1355.109375 829.308594 1352.414062 827.921875 C 1349.191406 826.265625 1346.144531 824.160156 1343.28125 821.921875 C 1336.054688 816.277344 1327.792969 814.578125 1318.863281 814.753906 C 1313.730469 814.855469 1308.496094 815.679688 1303.527344 813.449219 C 1302.792969 813.121094 1301.859375 813.058594 1301.035156 813.117188 C 1295.476562 813.503906 1290.054688 813.199219 1284.929688 810.644531 C 1284.136719 810.25 1283 810.523438 1282.023438 810.503906 C 1280.625 810.472656 1279.167969 810.703125 1277.84375 810.382812 C 1273.316406 809.300781 1269.269531 810.574219 1265.152344 812.296875 C 1263.007812 813.195312 1260.476562 814.015625 1258.265625 813.726562 C 1255.148438 813.316406 1252.832031 814.425781 1250.355469 815.804688 C 1248.789062 816.679688 1247.085938 817.332031 1245.410156 817.992188 C 1240.183594 820.046875 1234.945312 822.0625 1229.707031 824.082031 C 1224.878906 825.9375 1220.050781 827.792969 1215.210938 829.621094 C 1211.804688 830.910156 1208.394531 832.191406 1204.960938 833.40625 C 1201.296875 834.703125 1197.601562 835.914062 1194.980469 836.804688 Z M 1179.683594 971.769531 C 1179.605469 971.5 1179.53125 971.230469 1179.453125 970.960938 C 1176.6875 971.882812 1173.859375 972.644531 1171.171875 973.757812 C 1162.761719 977.238281 1154.3125 980.644531 1146.0625 984.476562 C 1139.589844 987.484375 1139.011719 992.839844 1143.914062 998.046875 C 1149.023438 1003.476562 1155.378906 1006.617188 1162.410156 1008.480469 C 1167.015625 1009.703125 1171.703125 1010.984375 1176.425781 1011.339844 C 1184.949219 1011.984375 1193.519531 1012.0625 1202.074219 1012.179688 C 1208.398438 1012.265625 1214.722656 1012.035156 1221.046875 1011.941406 C 1227.089844 1011.855469 1233.136719 1011.894531 1239.167969 1011.640625 C 1245.207031 1011.386719 1251.234375 1010.878906 1257.261719 1010.394531 C 1258.777344 1010.273438 1260.4375 1010.148438 1261.742188 1009.472656 C 1269.628906 1005.375 1278.046875 1004.851562 1286.695312 1005.230469 C 1293.113281 1005.511719 1299.28125 1004.613281 1304.546875 1000.335938 C 1308.765625 996.90625 1313.152344 993.679688 1317.480469 990.386719 C 1319.488281 988.855469 1320.4375 986.921875 1319.507812 984.480469 C 1318.074219 980.703125 1316.480469 976.988281 1314.957031 973.246094 C 1313.085938 968.648438 1308.441406 966.792969 1305.359375 963.453125 C 1301.355469 959.113281 1296.984375 958.398438 1291.621094 959.664062 C 1286.832031 960.792969 1281.980469 961.789062 1277.097656 962.371094 C 1268.75 963.371094 1260.363281 964.097656 1251.980469 964.753906 C 1245.011719 965.300781 1238.171875 967.25 1231.003906 965.921875 C 1227.957031 965.359375 1224.613281 966.480469 1221.398438 966.699219 C 1217.621094 966.957031 1213.78125 967.542969 1210.070312 967.121094 C 1204.675781 966.511719 1199.667969 966.515625 1194.410156 968.574219 C 1189.792969 970.386719 1184.613281 970.761719 1179.683594 971.769531 Z M 1268.066406 941.789062 C 1268.066406 941.816406 1268.070312 941.847656 1268.070312 941.875 C 1269.621094 941.875 1271.203125 942.082031 1272.714844 941.835938 C 1277.699219 941.03125 1282.679688 940.167969 1287.609375 939.09375 C 1288.875 938.816406 1290.339844 937.9375 1291.050781 936.886719 C 1295.078125 930.945312 1301.320312 928.785156 1307.703125 926.964844 C 1311.347656 925.929688 1315.136719 925.398438 1318.867188 924.683594 C 1327.59375 923.011719 1330.433594 918.511719 1328.351562 910.117188 C 1327.375 906.183594 1324.867188 903.851562 1321.214844 903.203125 C 1317.417969 902.527344 1314.503906 900.539062 1311.503906 898.460938 C 1310.488281 897.761719 1309.316406 896.796875 1308.214844 896.796875 C 1304.625 896.800781 1301.03125 897.148438 1297.449219 897.445312 C 1288.105469 898.21875 1278.820312 901.796875 1269.371094 897.984375 C 1268.652344 897.695312 1267.695312 897.964844 1266.855469 898.03125 C 1256.589844 898.835938 1246.371094 898.085938 1236.140625 897.226562 C 1229.75 896.691406 1223.261719 895.742188 1216.9375 896.316406 C 1207.222656 897.195312 1197.261719 897.667969 1188.40625 902.730469 C 1187.484375 903.257812 1186.210938 903.140625 1185.128906 903.429688 C 1181.214844 904.488281 1177.128906 905.171875 1173.449219 906.78125 C 1168.316406 909.03125 1163.640625 912.328125 1158.488281 914.523438 C 1154.460938 916.238281 1153.355469 919.417969 1152.464844 923.007812 C 1152.195312 924.085938 1152.367188 925.28125 1152.078125 926.351562 C 1151.453125 928.65625 1152.410156 930.117188 1154.269531 931.292969 C 1157 933.019531 1159.59375 935.003906 1162.441406 936.507812 C 1164.617188 937.660156 1167.0625 938.355469 1169.449219 939.039062 C 1171.601562 939.652344 1173.832031 940.007812 1176.039062 940.425781 C 1179.433594 941.066406 1182.816406 941.8125 1186.238281 942.230469 C 1188.597656 942.523438 1191.105469 941.9375 1193.390625 942.445312 C 1199.925781 943.902344 1206.402344 944.746094 1212.980469 942.835938 C 1213.238281 942.761719 1213.539062 942.839844 1213.820312 942.839844 C 1223.734375 942.855469 1233.648438 942.910156 1243.5625 942.855469 C 1245.941406 942.839844 1248.589844 941.667969 1250.640625 942.382812 C 1255.085938 943.941406 1259.179688 943.140625 1263.4375 942.132812 C 1264.925781 941.78125 1266.519531 941.890625 1268.066406 941.789062 Z M 1187.527344 1034.070312 C 1187.484375 1033.882812 1187.441406 1033.695312 1187.394531 1033.507812 C 1184.144531 1034.113281 1180.890625 1034.710938 1177.636719 1035.324219 C 1175.984375 1035.640625 1174.339844 1035.992188 1172.691406 1036.324219 C 1168.550781 1037.152344 1164.019531 1037.1875 1160.351562 1038.984375 C 1154.261719 1041.972656 1150.011719 1047.105469 1148.621094 1054.050781 C 1148.421875 1055.03125 1148.535156 1056.703125 1149.136719 1057.105469 C 1153.65625 1060.125 1157.738281 1063.878906 1163.445312 1064.890625 C 1170.203125 1066.09375 1176.867188 1067.804688 1183.605469 1069.132812 C 1187.511719 1069.90625 1191.476562 1070.800781 1195.425781 1070.851562 C 1200.867188 1070.917969 1206.316406 1070.109375 1211.769531 1069.910156 C 1217.925781 1069.683594 1224.109375 1069.378906 1230.246094 1069.742188 C 1234.511719 1069.996094 1238.257812 1068.96875 1242.03125 1067.378906 C 1243.0625 1066.949219 1244.179688 1066.710938 1245.273438 1066.464844 C 1251.308594 1065.113281 1257.351562 1063.820312 1263.375 1062.449219 C 1270.632812 1060.792969 1277.871094 1059.039062 1285.132812 1057.410156 C 1287.039062 1056.984375 1287.925781 1056.265625 1288.023438 1054.0625 C 1288.363281 1046.351562 1286.804688 1039.117188 1283.386719 1032.230469 C 1282.027344 1029.488281 1279.972656 1028.121094 1276.902344 1028.78125 C 1273.742188 1029.464844 1270.628906 1030.347656 1267.46875 1031.042969 C 1265.703125 1031.433594 1263.78125 1032.144531 1262.121094 1031.796875 C 1258.460938 1031.027344 1255.210938 1031.820312 1251.882812 1033.101562 C 1250.605469 1033.59375 1249.132812 1033.710938 1247.738281 1033.769531 C 1243.664062 1033.929688 1239.585938 1034.050781 1235.507812 1034.058594 C 1219.515625 1034.089844 1203.523438 1034.070312 1187.527344 1034.070312 Z M 1187.527344 1034.070312 " fill-opacity="1" fill-rule="nonzero"/></g><path fill="#000000" d="M 1014.285156 1024.914062 C 1014.519531 1019.402344 1016.265625 1015.011719 1019.34375 1011.28125 C 1022.707031 1007.199219 1026.058594 1003.179688 1030.039062 999.515625 C 1034.734375 995.191406 1039.386719 990.445312 1042.667969 984.53125 C 1045.902344 978.703125 1050.414062 973.585938 1054.269531 968.09375 C 1056.429688 965.019531 1058.359375 961.789062 1060.464844 958.679688 C 1061.953125 956.488281 1063.398438 954.222656 1065.175781 952.277344 C 1067.898438 949.289062 1069.460938 945.949219 1070.714844 942.058594 C 1072.644531 936.074219 1075.632812 930.417969 1078.351562 924.710938 C 1080.453125 920.296875 1083.195312 916.164062 1084.988281 911.640625 C 1087.101562 906.304688 1088.578125 900.710938 1090.179688 895.183594 C 1091.183594 891.710938 1091.878906 888.148438 1092.78125 884.648438 C 1092.984375 883.847656 1093.335938 883.011719 1093.851562 882.382812 C 1096.84375 878.75 1097.703125 874.363281 1098.710938 869.933594 C 1099.609375 865.988281 1100.714844 861.972656 1102.515625 858.378906 C 1105.128906 853.152344 1110.128906 852.792969 1113.460938 857.664062 C 1115.285156 860.328125 1116.558594 863.808594 1116.808594 867.015625 C 1117.3125 873.574219 1117.019531 880.199219 1116.910156 886.792969 C 1116.886719 888.242188 1116.246094 889.683594 1115.898438 891.132812 C 1114.890625 895.355469 1113.957031 899.601562 1112.863281 903.804688 C 1111.21875 910.128906 1109.71875 916.507812 1107.6875 922.710938 C 1105.21875 930.246094 1102.660156 937.800781 1099.371094 944.996094 C 1097.300781 949.527344 1093.726562 953.351562 1091 957.605469 C 1088.578125 961.382812 1086.472656 965.363281 1084.078125 969.15625 C 1082.816406 971.15625 1081.289062 973 1079.769531 974.824219 C 1076.214844 979.089844 1072.074219 982.800781 1070.300781 988.472656 C 1069.320312 991.601562 1066.742188 994.242188 1063.21875 995.195312 C 1059.734375 996.136719 1057.03125 998.398438 1055.269531 1001.164062 C 1053.375 1004.132812 1050.628906 1005.421875 1047.894531 1007.019531 C 1045.671875 1008.320312 1043.21875 1009.410156 1041.351562 1011.117188 C 1035.011719 1016.917969 1027.476562 1020.640625 1019.742188 1024.019531 C 1018.183594 1024.699219 1016.289062 1024.609375 1014.285156 1024.914062 Z M 1014.285156 1024.914062 " fill-opacity="1" fill-rule="nonzero"/></svg>