<svg xmlns="http://www.w3.org/2000/svg" xmlns:xlink="http://www.w3.org/1999/xlink" width="2000" zoomAndPan="magnify" viewBox="0 0 1500 1499.999933" height="2000" preserveAspectRatio="xMidYMid meet" version="1.0"><path fill="#000000" d="M 1062.070312 787.425781 C 1068.589844 794.847656 1074.542969 801.53125 1077.628906 810.160156 C 1080.660156 818.636719 1079.558594 826.898438 1075.292969 834.488281 C 1073.886719 836.996094 1070.410156 838.417969 1067.730469 840.101562 C 1065.945312 841.226562 1063.8125 841.792969 1061.984375 842.863281 C 1058.167969 845.09375 1053.953125 845.617188 1049.699219 846.089844 C 1045.34375 846.578125 1040.996094 847.253906 1036.625 847.507812 C 1034.417969 847.636719 1032.171875 846.8125 1029.9375 846.761719 C 1020.808594 846.546875 1012.105469 844.519531 1003.441406 841.679688 C 998.0625 839.917969 993.070312 838.097656 988.570312 834.394531 C 985.980469 832.261719 981.933594 831.984375 978.675781 830.558594 C 973.933594 828.480469 969.320312 826.105469 964.632812 823.890625 C 963.820312 823.507812 962.875 822.976562 962.070312 823.085938 C 955.457031 823.996094 949.582031 820.597656 943.285156 819.976562 C 936.039062 819.265625 929.566406 815.96875 922.574219 814.5 C 920.894531 814.148438 919.082031 813.742188 917.695312 812.816406 C 914.152344 810.453125 910.316406 809.082031 906.140625 808.667969 C 901.753906 808.226562 897.601562 807.40625 893.5625 805.304688 C 890.453125 803.683594 886.695312 803.339844 883.277344 802.261719 C 880.609375 801.421875 877.671875 800.816406 875.46875 799.242188 C 869.558594 795.023438 862.605469 794.46875 855.9375 792.839844 C 853.871094 792.339844 851.773438 791.839844 849.824219 791.023438 C 845.539062 789.226562 841.421875 787 837.078125 785.378906 C 833.234375 783.949219 829.125 783.253906 825.222656 781.964844 C 818.941406 779.886719 812.707031 777.65625 806.5 775.355469 C 800.851562 773.261719 795.152344 771.707031 789.050781 771.558594 C 786.164062 771.488281 783.285156 770.5625 780.425781 769.925781 C 773.171875 768.308594 765.964844 766.445312 758.667969 765.042969 C 753.332031 764.019531 747.875 763.636719 742.488281 762.851562 C 740.015625 762.492188 737.59375 761.808594 735.132812 761.347656 C 729.691406 760.328125 724.429688 760.550781 719.027344 762.308594 C 716.332031 763.1875 712.941406 762.683594 710.046875 762.019531 C 706.335938 761.167969 702.855469 760.613281 699.0625 761.6875 C 695.890625 762.585938 692.492188 762.648438 689.242188 763.320312 C 688.273438 763.519531 686.824219 764.417969 686.703125 765.175781 C 685.863281 770.449219 685.316406 775.789062 686.792969 781.046875 C 688.1875 786.003906 688.324219 790.992188 687.964844 796.105469 C 687.648438 800.589844 687.773438 805.117188 687.921875 809.617188 C 688.09375 814.933594 687.410156 820.109375 684.78125 824.714844 C 682.539062 828.644531 678.375 830.085938 674.230469 831.320312 C 672.207031 831.925781 669.949219 832.3125 668.308594 833.503906 C 663.601562 836.921875 657.960938 837.515625 652.707031 839.28125 C 648.371094 840.742188 643.75 841.429688 640.074219 844.605469 C 637.535156 846.800781 634.574219 848.359375 631.058594 848.582031 C 629.882812 848.65625 628.699219 849.027344 627.570312 849.40625 C 621.765625 851.351562 615.976562 853.347656 610.175781 855.308594 C 609.675781 855.480469 609.121094 855.664062 608.613281 855.625 C 601.644531 855.046875 596.089844 858.839844 590.175781 861.523438 C 589.207031 861.960938 588.253906 862.492188 587.234375 862.734375 C 583.242188 863.691406 579.21875 864.5 575.226562 865.457031 C 571.21875 866.417969 567.074219 867.089844 563.28125 868.613281 C 558.511719 870.53125 554.039062 873.191406 549.429688 875.519531 C 548.722656 875.875 548 876.289062 547.238281 876.433594 C 542.949219 877.257812 538.609375 877.851562 534.359375 878.828125 C 530.082031 879.808594 525.894531 881.175781 521.652344 882.308594 C 520.265625 882.679688 518.804688 882.761719 517.417969 883.132812 C 516.433594 883.398438 515.246094 883.683594 514.625 884.382812 C 512.738281 886.5 510.542969 887.242188 507.800781 886.773438 C 507.027344 886.644531 506.132812 886.589844 505.421875 886.851562 C 500.691406 888.582031 495.992188 890.402344 491.292969 892.21875 C 490.800781 892.40625 490.367188 892.972656 489.90625 892.972656 C 482.539062 892.972656 477.507812 898.042969 471.652344 901.320312 C 467.789062 903.484375 463.53125 904.183594 459.269531 903.601562 C 455.425781 903.074219 452.269531 904.546875 448.941406 905.816406 C 444.53125 907.5 440.074219 909.050781 435.703125 910.824219 C 432.5 912.121094 429.476562 913.863281 426.25 915.082031 C 421.90625 916.726562 417.527344 918.476562 413.007812 919.402344 C 409.339844 920.152344 406.054688 921.214844 402.605469 922.800781 C 397.152344 925.3125 391.800781 928.4375 385.683594 929.417969 C 384.667969 929.578125 383.507812 929.929688 382.773438 930.59375 C 375.929688 936.742188 367.140625 938.988281 358.953125 942.292969 C 349.480469 946.117188 339.585938 948.886719 330.089844 952.660156 C 318.214844 957.375 306.621094 962.808594 294.769531 967.597656 C 289.480469 969.734375 283.859375 971.058594 278.382812 972.734375 C 278.007812 972.847656 277.558594 972.917969 277.191406 972.828125 C 271.738281 971.484375 265.765625 971.535156 261.441406 967.109375 C 260.707031 966.359375 259.929688 965.554688 259.5 964.625 C 258.640625 962.78125 257.851562 961.222656 255.605469 960.460938 C 254.289062 960.011719 253.1875 958.363281 252.40625 957.011719 C 249.003906 951.152344 245.804688 945.175781 242.441406 939.292969 C 238.640625 932.632812 236.679688 925.320312 234.28125 918.109375 C 232.191406 911.828125 228.617188 906.050781 225.855469 899.980469 C 224.871094 897.824219 224.328125 895.46875 223.621094 893.195312 C 223.464844 892.691406 223.566406 892.089844 223.347656 891.625 C 220.300781 885.160156 217.21875 878.714844 214.148438 872.261719 C 213.695312 871.308594 213.074219 870.390625 212.839844 869.386719 C 210.460938 859.300781 204.839844 850.519531 201.425781 840.863281 C 200.464844 838.136719 199.976562 835.246094 199.09375 832.492188 C 197.632812 827.9375 195.984375 823.441406 194.488281 818.894531 C 192.613281 813.203125 191.3125 807.261719 188.851562 801.84375 C 185.90625 795.355469 184.457031 788.738281 183.335938 781.742188 C 182.253906 774.984375 179.511719 768.417969 176.910156 762.003906 C 174.847656 756.910156 172.875 751.960938 172.746094 746.347656 C 172.671875 743.070312 171.984375 739.78125 171.320312 736.550781 C 170.867188 734.339844 169.984375 732.214844 169.28125 730.054688 C 166.234375 720.714844 163.902344 711.222656 161.878906 701.582031 C 160.054688 692.894531 159.277344 684.042969 156.707031 675.414062 C 153.640625 665.132812 152.308594 654.328125 150.421875 643.710938 C 150.039062 641.558594 150.019531 639.066406 150.753906 637.070312 C 151.472656 635.125 153.050781 633.109375 154.804688 632.003906 C 159.277344 629.183594 164.039062 626.824219 168.722656 624.347656 C 170.597656 623.355469 172.625 622.644531 174.476562 621.613281 C 177.488281 619.933594 180.292969 617.847656 183.394531 616.371094 C 189.054688 613.679688 194.863281 611.304688 200.617188 608.808594 C 201.46875 608.4375 202.425781 608.25 203.207031 607.769531 C 207.3125 605.246094 211.519531 603.222656 216.308594 602.015625 C 221.433594 600.722656 226.207031 598.105469 231.207031 596.265625 C 239.582031 593.183594 248.070312 590.40625 256.402344 587.226562 C 264.492188 584.144531 272.414062 580.632812 280.472656 577.464844 C 285.054688 575.664062 289.773438 574.203125 294.417969 572.546875 C 297.929688 571.292969 301.320312 569.527344 304.929688 568.757812 C 315.914062 566.417969 325.6875 561.363281 335.367188 555.976562 C 342.117188 552.21875 349.152344 549.171875 356.644531 547.039062 C 363.804688 545 370.730469 542.136719 377.808594 539.789062 C 386.640625 536.863281 395.550781 534.183594 404.367188 531.222656 C 407.886719 530.042969 411.242188 528.371094 414.691406 526.976562 C 417.027344 526.035156 419.34375 524.96875 421.765625 524.347656 C 426.921875 523.019531 432.160156 522.003906 437.328125 520.714844 C 438.425781 520.441406 439.34375 519.496094 440.402344 518.976562 C 442.503906 517.945312 444.640625 516.996094 446.769531 516.019531 C 447.363281 515.746094 448.167969 515.660156 448.546875 515.210938 C 452.1875 510.875 457.1875 511.585938 462.058594 511.011719 C 467.121094 510.417969 472.707031 509.59375 476.824219 506.941406 C 480.5625 504.535156 484.25 503.945312 488.183594 503.015625 C 492.191406 502.074219 496.070312 500.585938 500.039062 499.464844 C 507.449219 497.371094 514.828125 495.132812 522.320312 493.390625 C 531.257812 491.308594 540.316406 489.753906 549.292969 487.835938 C 553.972656 486.839844 558.808594 486.078125 563.164062 484.238281 C 566.9375 482.644531 570.640625 482.078125 574.421875 482.683594 C 579.230469 483.449219 583.621094 481.789062 588.074219 480.886719 C 593.074219 479.875 597.824219 478.726562 603.050781 479.695312 C 606.796875 480.390625 610.773438 479.835938 614.644531 479.84375 C 619.621094 479.851562 624.511719 480.335938 629.152344 482.332031 C 629.886719 482.648438 630.660156 483.078125 631.421875 483.085938 C 639.210938 483.203125 645.125 486.96875 648.769531 493.445312 C 651.328125 497.992188 652.847656 503.246094 654.113281 508.363281 C 655.023438 512.042969 654.742188 516.015625 655.003906 520.039062 C 658.734375 521.167969 661.660156 519.203125 664.800781 517.867188 C 667.449219 516.742188 670.261719 515.914062 673.074219 515.28125 C 677.855469 514.203125 682.730469 513.542969 687.492188 512.410156 C 692.027344 511.332031 696.46875 509.871094 700.953125 508.585938 C 711.425781 505.585938 722.035156 502.992188 732.328125 499.460938 C 739.714844 496.925781 746.671875 493.144531 753.824219 489.925781 C 754.429688 489.65625 755.054688 489.332031 755.695312 489.253906 C 763.214844 488.324219 769.894531 484.808594 776.976562 482.558594 C 784.96875 480.023438 792.054688 475.234375 800.554688 473.925781 C 804.347656 473.339844 807.792969 470.769531 811.535156 469.515625 C 818.308594 467.246094 825.214844 465.363281 832.011719 463.148438 C 834.269531 462.414062 836.558594 461.449219 838.488281 460.09375 C 843.714844 456.433594 849.652344 455.246094 855.769531 454.378906 C 857.851562 454.085938 860.054688 453.703125 861.882812 452.742188 C 866.347656 450.398438 871.09375 449.433594 876.003906 448.6875 C 878.722656 448.273438 881.605469 447.503906 883.902344 446.070312 C 889.175781 442.78125 895.007812 441.648438 900.933594 440.714844 C 904.976562 440.078125 908.957031 439.878906 912.804688 437.765625 C 915.820312 436.109375 919.878906 436.464844 923.136719 435.109375 C 928.515625 432.867188 934.292969 432.859375 939.675781 431.460938 C 947.210938 429.507812 954.609375 429.421875 962.15625 429.316406 C 966.535156 429.253906 970.917969 429.21875 975.289062 428.984375 C 978.070312 428.832031 980.878906 428.554688 983.59375 427.953125 C 989.519531 426.636719 995.359375 427.84375 1000.992188 429.039062 C 1008.109375 430.542969 1015.214844 430.882812 1022.394531 431.085938 C 1025.839844 431.183594 1029.3125 431.234375 1032.726562 431.664062 C 1040.101562 432.597656 1047.464844 433.652344 1054.800781 434.871094 C 1058.570312 435.496094 1062.253906 436.65625 1066 437.4375 C 1069.390625 438.144531 1072.886719 438.417969 1076.210938 439.335938 C 1082.226562 440.996094 1088.152344 442.996094 1094.113281 444.851562 C 1094.75 445.050781 1095.378906 445.371094 1096.027344 445.425781 C 1109.109375 446.554688 1121.261719 451.753906 1134.058594 454.101562 C 1136.160156 454.488281 1138.34375 454.476562 1140.402344 455.003906 C 1144.636719 456.089844 1148.808594 457.417969 1153.011719 458.636719 C 1156.183594 459.5625 1159.511719 460.136719 1162.503906 461.46875 C 1167.933594 463.886719 1173.832031 463.085938 1179.367188 464.453125 C 1183.46875 465.464844 1187.429688 467.023438 1191.507812 468.136719 C 1196.238281 469.429688 1201.078125 470.320312 1205.773438 471.71875 C 1213.269531 473.949219 1221.253906 474.183594 1228.507812 477.488281 C 1230.238281 478.277344 1232.429688 478.007812 1234.394531 478.339844 C 1236.21875 478.648438 1238.21875 478.726562 1239.800781 479.558594 C 1250.703125 485.300781 1262.921875 486.765625 1274.46875 490.378906 C 1279.78125 492.042969 1285.320312 493.039062 1290.808594 494.046875 C 1294.929688 494.804688 1298.652344 496.273438 1302.398438 498.136719 C 1306.140625 499.996094 1310.394531 500.800781 1314.351562 502.269531 C 1321.066406 504.765625 1327.539062 507.714844 1332.445312 513.234375 C 1332.792969 513.625 1333.1875 514.136719 1333.644531 514.25 C 1339.410156 515.675781 1342.191406 520.914062 1344.910156 524.984375 C 1347.925781 529.503906 1350.03125 535.46875 1347.019531 541.585938 C 1345.3125 545.058594 1344.53125 548.980469 1342.945312 552.523438 C 1342.441406 553.652344 1340.652344 554.171875 1339.511719 555.050781 C 1338.28125 555.996094 1336.515625 556.800781 1336.035156 558.066406 C 1334.402344 562.351562 1330.121094 563.425781 1327.046875 565.84375 C 1325.519531 567.046875 1322.738281 566.550781 1320.589844 567.082031 C 1315.964844 568.230469 1311.390625 569.582031 1306.773438 570.757812 C 1305.769531 571.015625 1304.664062 570.960938 1303.609375 570.910156 C 1300.300781 570.75 1296.996094 570.5625 1293.695312 570.3125 C 1287.867188 569.871094 1282.042969 569.40625 1276.222656 568.890625 C 1273.976562 568.695312 1271.75 568.21875 1269.503906 568.0625 C 1261.109375 567.472656 1252.832031 566.550781 1244.921875 563.253906 C 1242.050781 562.0625 1238.71875 562.007812 1235.617188 561.347656 C 1229.769531 560.101562 1223.980469 558.46875 1218.078125 557.601562 C 1212.441406 556.769531 1206.679688 556.847656 1200.996094 556.265625 C 1195.980469 555.753906 1191 554.898438 1186.011719 554.164062 C 1184.429688 553.933594 1182.828125 553.238281 1181.296875 553.390625 C 1171.171875 554.410156 1161.136719 552.402344 1151.011719 552.703125 C 1142.382812 552.960938 1133.714844 551.832031 1125.074219 551.945312 C 1120.957031 552 1116.882812 552.3125 1112.816406 551.554688 C 1106.265625 550.335938 1099.726562 549.0625 1093.171875 547.871094 C 1091.8125 547.625 1090.40625 547.625 1089.023438 547.511719 C 1088.917969 547.808594 1088.8125 548.105469 1088.707031 548.398438 C 1091.132812 549.945312 1093.410156 551.824219 1096.015625 552.945312 C 1098.726562 554.113281 1100.671875 555.796875 1102.417969 558.105469 C 1104.84375 561.3125 1107.667969 564.058594 1111.847656 565.164062 C 1113.167969 565.511719 1114.695312 567.007812 1115.152344 568.320312 C 1116.488281 572.148438 1119.667969 574.105469 1122.820312 575.414062 C 1127.148438 577.210938 1130.332031 580.117188 1132.828125 583.699219 C 1137.695312 590.667969 1140.921875 598.300781 1141.207031 607.042969 C 1141.441406 614.371094 1142.5 621.644531 1140.707031 628.96875 C 1139.550781 633.675781 1138.472656 638.230469 1134.929688 641.863281 C 1133.277344 643.558594 1132.402344 646.136719 1130.570312 647.503906 C 1125.519531 651.28125 1120.15625 654.640625 1114.902344 658.144531 C 1113.714844 658.9375 1112.476562 659.652344 1110.957031 660.59375 C 1112.578125 662.3125 1113.886719 663.777344 1115.277344 665.160156 C 1119.742188 669.589844 1122.828125 674.996094 1126.417969 680.078125 C 1130.625 686.03125 1130.484375 691.757812 1129.296875 698.179688 C 1128.738281 701.175781 1128.792969 704.289062 1128.601562 707.351562 C 1128.300781 712.101562 1126.660156 715.832031 1121.765625 717.632812 C 1120.226562 718.199219 1119 719.644531 1117.679688 720.746094 C 1114.78125 723.164062 1111.75 725.234375 1107.753906 725.199219 C 1107.089844 725.195312 1106.351562 725.167969 1105.773438 725.433594 C 1099.125 728.515625 1091.832031 728.816406 1084.828125 730.355469 C 1084.621094 730.402344 1084.46875 730.695312 1083.992188 731.171875 C 1086.160156 733.0625 1088.328125 734.925781 1090.46875 736.820312 C 1100.191406 745.441406 1102.632812 754.425781 1099.289062 765.898438 C 1097.714844 771.300781 1094 775.769531 1088.609375 778.3125 C 1083.820312 780.574219 1079.039062 782.875 1074.152344 784.910156 C 1072.105469 785.761719 1069.796875 786 1067.59375 786.457031 C 1065.945312 786.796875 1064.277344 787.042969 1062.070312 787.425781 Z M 735.636719 659.652344 C 735.785156 659.175781 735.929688 658.703125 736.078125 658.226562 C 744.042969 658.226562 752.007812 658.164062 759.972656 658.246094 C 766.351562 658.308594 772.726562 658.636719 779.105469 658.660156 C 782.152344 658.671875 785.199219 658.230469 788.25 658.035156 C 790.617188 657.882812 792.988281 657.824219 795.355469 657.667969 C 802.15625 657.222656 808.6875 655.144531 815.328125 654.148438 C 820.441406 653.378906 824.546875 650.601562 829.453125 649.566406 C 834.949219 648.410156 840.027344 645.363281 845.40625 643.460938 C 847.851562 642.597656 850.585938 642.566406 853.167969 642.054688 C 854.449219 641.800781 855.71875 641.40625 856.929688 640.921875 C 862.371094 638.753906 867.679688 636.179688 873.253906 634.445312 C 877.167969 633.226562 880.582031 631.378906 883.816406 629.058594 C 888.503906 625.691406 893.648438 623.363281 899.429688 623.886719 C 903.878906 624.292969 908.242188 625.6875 912.628906 626.703125 C 917.445312 627.816406 922.113281 629.191406 925.488281 633.234375 C 926.3125 634.222656 927.550781 635.078125 928.769531 635.480469 C 932.4375 636.683594 934.636719 639.496094 936.957031 642.273438 C 938.578125 644.21875 940.363281 646.035156 942.140625 647.84375 C 947.085938 652.882812 951.839844 658.136719 957.09375 662.832031 C 961.136719 666.441406 965.5625 669.800781 970.292969 672.410156 C 975.609375 675.34375 981.511719 677.195312 986.109375 681.433594 C 986.96875 682.226562 988.140625 682.71875 989.21875 683.238281 C 996.519531 686.753906 1003.878906 690.15625 1011.132812 693.769531 C 1015.492188 695.941406 1019.648438 698.515625 1023.976562 700.746094 C 1028.332031 702.992188 1032.609375 705.585938 1037.914062 704.65625 C 1039.042969 704.457031 1040.441406 704.589844 1041.449219 705.101562 C 1046.117188 707.457031 1051.003906 707.808594 1056.164062 707.820312 C 1063.558594 707.84375 1070.945312 708.820312 1078.347656 709.070312 C 1084.046875 709.261719 1089.78125 709.1875 1095.46875 708.808594 C 1099.429688 708.542969 1103.464844 708.011719 1106.78125 705.328125 C 1108.605469 703.851562 1109.035156 702.296875 1108.839844 699.800781 C 1108.339844 693.394531 1106.785156 687.777344 1101.121094 684.019531 C 1101.015625 683.949219 1100.945312 683.816406 1100.871094 683.707031 C 1098.296875 679.726562 1094.484375 677.433594 1090.226562 675.621094 C 1088.175781 674.746094 1086.308594 673.421875 1084.386719 672.253906 C 1082.703125 671.230469 1081.113281 670.046875 1079.386719 669.105469 C 1075.347656 666.898438 1071.101562 665.039062 1067.226562 662.582031 C 1063.550781 660.253906 1059.539062 658.210938 1057.234375 654.125 C 1056.707031 653.191406 1055.359375 652.730469 1054.398438 652.039062 C 1049.210938 648.300781 1043.691406 644.9375 1038.921875 640.726562 C 1033.140625 635.613281 1026.609375 631.597656 1019.796875 628.53125 C 1013.695312 625.777344 1009.085938 621.664062 1005.082031 616.90625 C 999.296875 610.039062 992.878906 604.046875 985.632812 598.832031 C 983.046875 596.976562 980.621094 594.890625 978.191406 592.828125 C 975.75 590.757812 973.609375 588.257812 970.960938 586.527344 C 964.914062 582.578125 960.441406 577.15625 956.0625 571.605469 C 954.09375 569.113281 952.382812 566.414062 950.324219 564.003906 C 949.242188 562.738281 947.402344 562.109375 946.363281 560.824219 C 943.445312 557.222656 940.664062 553.5 938.015625 549.695312 C 933.605469 543.359375 929.378906 536.894531 924.992188 530.546875 C 923.777344 528.792969 923.386719 527.101562 924.753906 525.425781 C 926.289062 523.546875 928.433594 523.648438 930.191406 524.835938 C 932.273438 526.238281 934.0625 528.089844 935.9375 529.789062 C 937.613281 531.308594 939 533.332031 940.929688 534.359375 C 948.613281 538.445312 954.824219 544.484375 961.699219 549.628906 C 967.34375 553.855469 972.535156 558.675781 978.144531 562.953125 C 985.761719 568.757812 993.597656 574.273438 1001.308594 579.957031 C 1002.800781 581.058594 1004.167969 582.335938 1005.574219 583.558594 C 1008.488281 586.085938 1011.324219 588.707031 1014.304688 591.15625 C 1018.820312 594.867188 1023.386719 598.527344 1028.03125 602.078125 C 1029.816406 603.449219 1031.859375 604.488281 1033.820312 605.625 C 1034.855469 606.226562 1036.03125 606.601562 1037.015625 607.269531 C 1043.789062 611.859375 1051.363281 614.976562 1058.238281 619.527344 C 1067.441406 625.613281 1076.40625 631.878906 1084.859375 638.953125 C 1086.382812 640.226562 1088.613281 641.394531 1090.503906 641.371094 C 1099.089844 641.261719 1106.996094 638.574219 1114.074219 633.703125 C 1117.289062 631.492188 1119.277344 628.351562 1119.398438 624.3125 C 1119.59375 617.601562 1118.523438 611.046875 1115.558594 605.042969 C 1112.222656 598.289062 1107.640625 592.433594 1101.070312 588.394531 C 1095.863281 585.191406 1090.632812 582.011719 1085.492188 578.695312 C 1083.5 577.410156 1081.769531 575.726562 1079.84375 574.324219 C 1074.292969 570.285156 1070.699219 563.96875 1064.21875 560.988281 C 1062.050781 559.992188 1059.859375 558.890625 1057.980469 557.449219 C 1053.550781 554.046875 1049.265625 550.457031 1045 546.847656 C 1043.15625 545.285156 1041.253906 544.695312 1038.785156 544.828125 C 1034.542969 545.050781 1030.257812 545.039062 1026.023438 544.699219 C 1020.875 544.285156 1015.773438 543.066406 1010.625 542.839844 C 1001.191406 542.429688 991.734375 542.613281 982.292969 542.277344 C 979.730469 542.1875 977.027344 541.5 974.699219 540.417969 C 972.046875 539.183594 971.859375 536.410156 974.238281 534.621094 C 975.984375 533.308594 978.128906 532.269531 980.25 531.765625 C 987.898438 529.945312 995.585938 528.261719 1003.3125 526.800781 C 1010.09375 525.519531 1016.949219 523.753906 1023.765625 523.773438 C 1030.523438 523.792969 1037.164062 522.445312 1044.039062 523.199219 C 1051.527344 524.015625 1059.210938 523 1066.8125 522.894531 C 1068.917969 522.867188 1071.03125 523.226562 1073.144531 523.425781 C 1074.6875 523.570312 1076.34375 524.1875 1077.757812 523.828125 C 1084.613281 522.089844 1091.488281 522.917969 1098.394531 523.09375 C 1102.054688 523.191406 1105.523438 523.402344 1108.925781 524.910156 C 1110.1875 525.472656 1111.796875 525.367188 1113.25 525.359375 C 1116.007812 525.347656 1118.78125 524.960938 1121.523438 525.140625 C 1125.484375 525.394531 1129.417969 526.070312 1133.375 526.46875 C 1137.605469 526.890625 1141.996094 526.632812 1146.042969 527.707031 C 1150.675781 528.9375 1155.117188 529.011719 1159.773438 528.5 C 1162.375 528.210938 1165.402344 527.925781 1167.636719 528.953125 C 1174.640625 532.171875 1182.109375 530.484375 1189.269531 531.714844 C 1197.65625 533.160156 1206.128906 534.09375 1214.558594 535.292969 C 1220.976562 536.203125 1227.363281 537.375 1233.804688 538.058594 C 1238.441406 538.546875 1243.039062 538.511719 1247.347656 540.894531 C 1249.339844 542 1251.9375 542.300781 1254.285156 542.414062 C 1259.164062 542.648438 1264.066406 542.410156 1268.949219 542.570312 C 1272.128906 542.675781 1275.394531 543.792969 1278.445312 543.324219 C 1284.535156 542.382812 1290.402344 543.425781 1296.328125 544.199219 C 1298.140625 544.433594 1299.882812 545.714844 1301.652344 545.703125 C 1306.304688 545.667969 1310.949219 545.140625 1315.601562 544.898438 C 1318.125 544.765625 1320.011719 543.8125 1320.820312 541.320312 C 1321.640625 538.789062 1320.910156 536.75 1319.011719 534.824219 C 1314.777344 530.527344 1309.988281 527.222656 1304.722656 524.171875 C 1298.332031 520.46875 1291.574219 518.78125 1284.585938 517.308594 C 1280.285156 516.402344 1275.90625 515.738281 1271.714844 514.460938 C 1260.558594 511.0625 1249.71875 506.539062 1237.914062 505.601562 C 1236.472656 505.488281 1235.054688 504.929688 1233.648438 504.507812 C 1229.191406 503.160156 1224.796875 501.550781 1220.277344 500.46875 C 1212.890625 498.699219 1205.390625 497.40625 1197.996094 495.664062 C 1188.667969 493.46875 1179.347656 491.199219 1170.117188 488.625 C 1164.121094 486.953125 1158.296875 484.667969 1152.382812 482.6875 C 1149.363281 481.675781 1146.335938 480.667969 1143.277344 479.773438 C 1139.324219 478.617188 1135.363281 477.4375 1131.347656 476.519531 C 1126.835938 475.484375 1122.261719 474.691406 1117.699219 473.871094 C 1114.855469 473.359375 1111.921875 473.214844 1109.136719 472.488281 C 1106.324219 471.757812 1103.71875 470.117188 1100.890625 469.570312 C 1094.367188 468.308594 1087.769531 467.464844 1081.199219 466.460938 C 1078.046875 465.984375 1074.890625 465.542969 1071.738281 465.066406 C 1067.558594 464.441406 1063.355469 463.914062 1059.203125 463.132812 C 1054.113281 462.171875 1049.054688 460.082031 1043.996094 460.109375 C 1036.199219 460.15625 1028.5625 459.796875 1020.980469 458.039062 C 1020.234375 457.867188 1019.296875 457.757812 1018.652344 458.058594 C 1016.617188 459.003906 1014.835938 458.832031 1013.011719 457.539062 C 1012.410156 457.113281 1011.53125 457 1010.761719 456.914062 C 1004.5625 456.226562 998.359375 455.566406 992.152344 454.9375 C 991.238281 454.847656 990.246094 454.796875 989.382812 455.050781 C 985.164062 456.296875 980.941406 455.3125 976.714844 455.265625 C 970.605469 455.199219 964.386719 454.789062 958.40625 455.742188 C 951.761719 456.800781 945.28125 458.789062 938.542969 459.78125 C 927.242188 461.4375 916.136719 464.5 904.816406 465.890625 C 895.632812 467.019531 887.671875 470.730469 879.878906 475.007812 C 874.789062 477.804688 869.808594 479.453125 864.019531 478.261719 C 863.082031 478.070312 861.925781 478.480469 860.976562 478.871094 C 854.375 481.585938 848.136719 485.207031 841.054688 486.75 C 839.941406 486.992188 838.984375 487.914062 837.933594 488.484375 C 836.085938 489.488281 834.300781 490.671875 832.347656 491.410156 C 828.144531 493 823.601562 493.882812 819.671875 495.953125 C 816.726562 497.511719 813.882812 498.300781 810.675781 498.703125 C 808.679688 498.949219 806.472656 499.667969 804.941406 500.894531 C 803.242188 502.257812 801.515625 502.410156 799.605469 502.929688 C 795.429688 504.074219 791.023438 505.429688 787.578125 507.898438 C 783.929688 510.515625 779.902344 512.109375 775.933594 513.546875 C 769.648438 515.824219 762.671875 516.148438 757.167969 520.652344 C 756.085938 521.539062 754.523438 521.902344 753.132812 522.347656 C 748.464844 523.835938 743.773438 525.242188 739.09375 526.699219 C 735.289062 527.882812 731.480469 529.039062 727.703125 530.304688 C 720.269531 532.796875 712.839844 535.304688 705.449219 537.910156 C 703.328125 538.65625 701.320312 539.730469 699.289062 540.722656 C 694.230469 543.195312 689.734375 546.511719 684.011719 548.019531 C 676.925781 549.890625 670.257812 553.371094 663.433594 556.21875 C 662.777344 556.496094 661.878906 557.160156 661.816406 557.722656 C 661.542969 560.09375 661.234375 562.535156 661.507812 564.882812 C 662.425781 572.671875 663.59375 580.433594 664.652344 588.207031 C 666.191406 599.546875 667.722656 610.882812 669.253906 622.222656 C 669.734375 625.785156 670.273438 629.34375 670.675781 632.914062 C 671.839844 643.351562 672.976562 653.792969 674.0625 664.234375 C 674.636719 669.734375 676.5625 675.035156 675.347656 680.808594 C 674.757812 683.628906 675.859375 686.84375 676.375 689.847656 C 677.589844 696.871094 679.285156 703.835938 680.082031 710.90625 C 680.824219 717.5 680.667969 724.199219 680.898438 730.851562 C 680.96875 732.851562 680.847656 734.871094 681.101562 736.847656 C 681.636719 741.039062 682.542969 741.664062 686.71875 741.242188 C 687.378906 741.175781 688.050781 741.230469 688.71875 741.230469 C 699.324219 741.1875 709.957031 741.648438 720.457031 739.507812 C 721.21875 739.351562 722.050781 739.449219 722.84375 739.515625 C 730.664062 740.179688 738.488281 740.835938 746.304688 741.539062 C 753.871094 742.21875 761.640625 742.101562 768.933594 743.902344 C 775.425781 745.503906 782.039062 746.769531 788.519531 748.566406 C 796.757812 750.855469 805.53125 751.210938 814.082031 752.363281 C 814.570312 752.429688 815.144531 752.242188 815.609375 752.03125 C 818.433594 750.734375 821.035156 751.519531 823.699219 752.652344 C 833.339844 756.761719 843.03125 760.742188 852.65625 764.882812 C 854.582031 765.710938 856.246094 767.136719 858.125 768.101562 C 861.191406 769.679688 864.253906 771.316406 867.464844 772.550781 C 873.761719 774.972656 880.167969 777.105469 886.511719 779.417969 C 888.652344 780.195312 890.738281 781.074219 893.183594 779.632812 C 892.195312 777.535156 891.125 775.539062 890.300781 773.445312 C 888.589844 769.09375 888.289062 764.941406 892.019531 761.246094 C 896.894531 756.40625 901.945312 751.957031 909.15625 751.101562 C 909.328125 751.082031 909.46875 750.773438 909.957031 750.21875 C 908.800781 749.699219 907.722656 749.332031 906.761719 748.765625 C 904.035156 747.144531 900.875 745.898438 898.769531 743.671875 C 895.117188 739.808594 892.167969 735.277344 890.777344 729.996094 C 889.300781 724.398438 888.148438 718.800781 890.894531 713.171875 C 892.683594 709.511719 893.988281 705.601562 895.933594 702.035156 C 897.164062 699.785156 898.875 697.535156 900.921875 696.058594 C 903.699219 694.058594 907.007812 692.796875 910.089844 691.222656 C 920.945312 685.667969 932.265625 681.761719 944.601562 681.433594 C 944.800781 681.429688 944.988281 681.144531 945.792969 680.5 C 943.328125 678.242188 941.175781 675.691406 938.503906 673.933594 C 930.621094 668.746094 924.445312 661.804688 918.1875 654.925781 C 914.617188 651.007812 911.632812 646.320312 905.507812 646.015625 C 904.949219 645.988281 904.3125 645.457031 903.894531 644.992188 C 902.582031 643.53125 901.585938 641.617188 899.070312 642.316406 C 897.167969 642.84375 894.980469 642.875 893.378906 643.871094 C 883.640625 649.929688 873.09375 653.757812 861.917969 656.066406 C 858.921875 656.6875 855.738281 657.15625 853.082031 658.539062 C 845.730469 662.355469 837.953125 664.878906 830.058594 667.167969 C 829.035156 667.464844 828.0625 667.921875 827.058594 668.296875 C 823.070312 669.78125 819.171875 671.65625 815.058594 672.628906 C 811.511719 673.46875 807.695312 673.105469 804.039062 673.582031 C 798.242188 674.335938 792.492188 675.53125 786.585938 675.082031 C 785.398438 674.988281 784.175781 675.285156 782.992188 675.171875 C 780.652344 674.949219 778.042969 675.128906 776.066406 674.117188 C 772.960938 672.535156 769.765625 672.121094 766.460938 671.726562 C 765.285156 671.585938 764.070312 671.410156 762.972656 670.992188 C 756.277344 668.441406 749.589844 665.871094 742.949219 663.183594 C 740.445312 662.171875 738.070312 660.839844 735.636719 659.652344 Z M 964.023438 699.289062 C 959.636719 699.738281 955.914062 700.082031 952.203125 700.507812 C 947.703125 701.019531 943.140625 701.269531 938.734375 702.230469 C 933.289062 703.417969 927.96875 705.183594 922.625 706.800781 C 921.652344 707.09375 920.519531 707.667969 919.996094 708.464844 C 918.316406 711.027344 916.675781 713.660156 915.457031 716.457031 C 914.882812 717.769531 914.757812 719.777344 915.363281 721.015625 C 917.453125 725.308594 919.78125 729.515625 924.019531 732.222656 C 928.960938 735.382812 933.816406 738.671875 938.769531 741.8125 C 942.019531 743.875 945.402344 745.570312 949.144531 746.78125 C 953 748.027344 956.496094 750.371094 960.164062 752.207031 C 961.082031 752.664062 962.035156 753.125 963.023438 753.378906 C 967.800781 754.617188 972.613281 755.707031 977.375 756.996094 C 985.578125 759.21875 993.75 761.546875 1001.9375 763.835938 C 1002.835938 764.085938 1003.828125 764.183594 1004.605469 764.640625 C 1009.261719 767.371094 1014.527344 767.445312 1019.628906 768.101562 C 1026.363281 768.96875 1033.128906 769.605469 1039.890625 770.222656 C 1041.136719 770.335938 1042.476562 770.042969 1043.695312 769.679688 C 1046.464844 768.859375 1049.136719 767.691406 1051.9375 767.015625 C 1055.164062 766.238281 1058.585938 766.160156 1061.742188 765.195312 C 1066.195312 763.828125 1070.441406 762.089844 1075.296875 762.109375 C 1076.828125 762.113281 1078.886719 759.835938 1079.714844 758.121094 C 1080.214844 757.085938 1079.191406 754.792969 1078.1875 753.644531 C 1074.96875 749.953125 1071.304688 746.652344 1068.070312 742.976562 C 1064.285156 738.671875 1058.945312 737.101562 1054.214844 734.425781 C 1044.722656 729.054688 1034.074219 727.542969 1023.773438 724.835938 C 1016.949219 723.039062 1010.109375 721.289062 1003.351562 719.273438 C 1001.089844 718.597656 998.976562 717.292969 996.9375 716.042969 C 991.042969 712.417969 985.296875 708.539062 979.347656 705.015625 C 974.410156 702.089844 969.300781 699.421875 964.023438 699.289062 Z M 927.515625 765.273438 C 926.726562 765.222656 926.15625 765.042969 925.667969 765.171875 C 923.578125 765.726562 920.636719 765.738281 919.628906 767.125 C 917.898438 769.515625 919.113281 772.523438 920.765625 774.949219 C 921.28125 775.703125 922.003906 776.382812 922.769531 776.890625 C 933.894531 784.28125 943.625 793.957031 956.898438 797.855469 C 957.652344 798.078125 958.316406 798.589844 959.027344 798.960938 C 967.394531 803.304688 975.707031 807.757812 984.15625 811.9375 C 987.957031 813.8125 992.226562 814.769531 995.941406 816.777344 C 1004.8125 821.566406 1014.386719 823.839844 1024.070312 826.277344 C 1032.875 828.496094 1041.496094 827.105469 1050.199219 827.316406 C 1051.640625 827.351562 1053.164062 827.078125 1054.53125 826.605469 C 1057.332031 825.632812 1060.40625 824.425781 1060.710938 821.066406 C 1061.160156 816.144531 1059.039062 811.53125 1056.585938 807.605469 C 1054.484375 804.246094 1050.78125 801.855469 1047.640625 799.210938 C 1046.707031 798.421875 1045.320312 798.070312 1044.082031 797.757812 C 1037.777344 796.160156 1031.191406 795.289062 1025.203125 792.90625 C 1019.5625 790.664062 1014.269531 787.660156 1008.101562 786.871094 C 1004.296875 786.382812 1000.535156 785.550781 996.75 784.90625 C 995.308594 784.664062 993.753906 784.78125 992.414062 784.289062 C 984.039062 781.230469 975.726562 778.003906 967.359375 774.925781 C 964.367188 773.828125 961.308594 772.875 958.226562 772.066406 C 954.910156 771.195312 951.476562 770.753906 948.1875 769.800781 C 941.308594 767.800781 934.601562 765.101562 927.515625 765.273438 Z M 927.515625 765.273438 " fill-opacity="1" fill-rule="nonzero"/></svg>