<svg xmlns="http://www.w3.org/2000/svg" xmlns:xlink="http://www.w3.org/1999/xlink" width="2000" zoomAndPan="magnify" viewBox="0 0 1500 1499.999933" height="2000" preserveAspectRatio="xMidYMid meet" version="1.0"><defs><g/><clipPath id="d07b49e04a"><rect x="0" width="860" y="0" height="408"/></clipPath></defs><path fill="#473c33" d="M 1319.152344 872.421875 C 1348.894531 851.9375 1368.417969 817.664062 1368.417969 778.820312 C 1368.417969 739.972656 1348.894531 705.699219 1319.152344 685.214844 C 1350.480469 663.636719 1370.457031 626.773438 1368.253906 585.367188 C 1365.132812 527.089844 1317.316406 480.179688 1258.984375 478.097656 C 1213.25 476.46875 1173.324219 501.882812 1153.867188 539.59375 C 1134.996094 503.03125 1096.875 478.027344 1052.894531 478.027344 C 1008.914062 478.027344 970.792969 503.046875 951.925781 539.59375 C 933.054688 503.03125 894.933594 478.027344 850.953125 478.027344 C 806.972656 478.027344 768.851562 503.046875 749.984375 539.59375 C 731.113281 503.03125 692.992188 478.027344 649.011719 478.027344 C 605.03125 478.027344 566.910156 503.046875 548.042969 539.59375 C 529.171875 503.03125 491.050781 478.027344 447.070312 478.027344 C 403.089844 478.027344 364.96875 503.046875 346.101562 539.59375 C 326.640625 501.882812 286.714844 476.46875 240.980469 478.097656 C 182.648438 480.179688 134.832031 527.089844 131.710938 585.367188 C 129.492188 626.773438 149.484375 663.636719 180.8125 685.214844 C 151.074219 705.699219 131.546875 739.972656 131.546875 778.820312 C 131.546875 817.664062 151.074219 851.9375 180.8125 872.421875 C 149.484375 894.003906 129.507812 930.863281 131.710938 972.269531 C 134.832031 1030.546875 182.648438 1077.460938 240.980469 1079.539062 C 286.714844 1081.171875 326.640625 1055.742188 346.101562 1018.046875 C 364.96875 1054.605469 403.089844 1079.609375 447.070312 1079.609375 C 491.050781 1079.609375 529.171875 1054.59375 548.042969 1018.046875 C 566.910156 1054.605469 605.03125 1079.609375 649.011719 1079.609375 C 692.992188 1079.609375 731.113281 1054.59375 749.984375 1018.046875 C 768.851562 1054.605469 806.972656 1079.609375 850.953125 1079.609375 C 894.933594 1079.609375 933.054688 1054.59375 951.925781 1018.046875 C 970.792969 1054.605469 1008.914062 1079.609375 1052.894531 1079.609375 C 1096.875 1079.609375 1134.996094 1054.59375 1153.867188 1018.046875 C 1173.324219 1055.757812 1213.25 1081.171875 1258.984375 1079.539062 C 1317.316406 1077.460938 1365.132812 1030.546875 1368.253906 972.269531 C 1370.472656 930.863281 1350.480469 894.003906 1319.152344 872.421875 Z M 1319.152344 872.421875 " fill-opacity="1" fill-rule="nonzero"/><path fill="#2b2b2b" d="M 1052.894531 1083.222656 C 1011.078125 1083.222656 972.984375 1061.273438 951.925781 1025.507812 C 930.878906 1061.273438 892.769531 1083.222656 850.953125 1083.222656 C 809.136719 1083.222656 771.042969 1061.273438 749.984375 1025.507812 C 728.9375 1061.273438 690.828125 1083.222656 649.011719 1083.222656 C 607.195312 1083.222656 569.101562 1061.273438 548.042969 1025.507812 C 526.996094 1061.273438 488.886719 1083.222656 447.070312 1083.222656 C 405.253906 1083.222656 367.144531 1061.273438 346.101562 1025.507812 C 324.398438 1062.246094 283.785156 1084.675781 240.855469 1083.15625 C 180.839844 1081.019531 131.328125 1032.394531 128.109375 972.476562 C 126 933.042969 143.308594 896.015625 174.636719 872.4375 C 145.292969 850.308594 127.933594 815.695312 127.933594 778.832031 C 127.933594 741.972656 145.292969 707.355469 174.636719 685.230469 C 143.308594 661.648438 125.988281 624.625 128.109375 585.1875 C 131.3125 525.269531 180.839844 476.644531 240.855469 474.511719 C 283.785156 472.988281 324.398438 495.417969 346.101562 532.15625 C 367.144531 496.390625 405.253906 474.441406 447.070312 474.441406 C 488.886719 474.441406 526.980469 496.390625 548.042969 532.15625 C 569.085938 496.390625 607.195312 474.441406 649.011719 474.441406 C 690.828125 474.441406 728.921875 496.390625 749.984375 532.15625 C 771.027344 496.390625 809.136719 474.441406 850.953125 474.441406 C 892.769531 474.441406 930.863281 496.390625 951.925781 532.15625 C 972.96875 496.390625 1011.078125 474.441406 1052.894531 474.441406 C 1094.714844 474.441406 1132.820312 496.390625 1153.867188 532.171875 C 1175.570312 495.433594 1216.167969 473.003906 1259.109375 474.523438 C 1319.125 476.660156 1368.636719 525.28125 1371.84375 585.203125 C 1373.949219 624.636719 1356.644531 661.664062 1325.3125 685.242188 C 1354.65625 707.371094 1372.019531 741.984375 1372.019531 778.847656 C 1372.019531 815.707031 1354.65625 850.324219 1325.3125 872.449219 C 1356.644531 896.03125 1373.964844 933.054688 1371.84375 972.488281 C 1368.636719 1032.410156 1319.109375 1081.03125 1259.109375 1083.167969 C 1257.726562 1083.222656 1256.355469 1083.238281 1254.972656 1083.238281 C 1213.566406 1083.238281 1174.871094 1061.070312 1153.867188 1025.523438 C 1132.820312 1061.273438 1094.714844 1083.222656 1052.894531 1083.222656 Z M 951.925781 1014.445312 C 953.265625 1014.445312 954.511719 1015.199219 955.128906 1016.390625 C 974.105469 1053.167969 1011.570312 1076.007812 1052.894531 1076.007812 C 1094.21875 1076.007812 1131.683594 1053.167969 1150.660156 1016.390625 C 1151.277344 1015.183594 1152.511719 1014.445312 1153.867188 1014.445312 C 1155.207031 1014.445312 1156.453125 1015.199219 1157.070312 1016.390625 C 1176.515625 1054.070312 1216.441406 1077.445312 1258.863281 1075.9375 C 1315.179688 1073.925781 1361.65625 1028.316406 1364.667969 972.078125 C 1366.734375 933.464844 1348.960938 897.316406 1317.125 875.394531 C 1316.152344 874.722656 1315.566406 873.613281 1315.566406 872.421875 C 1315.566406 871.230469 1316.152344 870.121094 1317.125 869.453125 C 1347.003906 848.871094 1364.832031 814.996094 1364.832031 778.820312 C 1364.832031 742.644531 1347.003906 708.753906 1317.125 688.1875 C 1316.152344 687.515625 1315.566406 686.40625 1315.566406 685.214844 C 1315.566406 684.023438 1316.152344 682.914062 1317.125 682.242188 C 1348.960938 660.308594 1366.734375 624.171875 1364.667969 585.558594 C 1361.65625 529.324219 1315.179688 483.699219 1258.863281 481.699219 C 1216.46875 480.179688 1176.527344 503.566406 1157.070312 541.25 C 1156.453125 542.453125 1155.222656 543.191406 1153.867188 543.191406 C 1152.523438 543.191406 1151.277344 542.441406 1150.660156 541.25 C 1131.683594 504.46875 1094.21875 481.628906 1052.894531 481.628906 C 1011.570312 481.628906 974.105469 504.46875 955.128906 541.25 C 954.511719 542.453125 953.28125 543.191406 951.925781 543.191406 C 950.582031 543.191406 949.335938 542.441406 948.71875 541.25 C 929.742188 504.46875 892.277344 481.628906 850.953125 481.628906 C 809.628906 481.628906 772.164062 504.46875 753.1875 541.25 C 752.570312 542.453125 751.339844 543.191406 749.984375 543.191406 C 748.640625 543.191406 747.394531 542.441406 746.777344 541.25 C 727.800781 504.46875 690.335938 481.628906 649.011719 481.628906 C 607.6875 481.628906 570.222656 504.46875 551.246094 541.25 C 550.628906 542.453125 549.398438 543.191406 548.042969 543.191406 C 546.699219 543.191406 545.453125 542.441406 544.835938 541.25 C 525.859375 504.46875 488.394531 481.628906 447.070312 481.628906 C 405.746094 481.628906 368.28125 504.46875 349.304688 541.25 C 348.6875 542.453125 347.457031 543.191406 346.101562 543.191406 C 344.742188 543.191406 343.511719 542.441406 342.894531 541.25 C 323.453125 503.566406 283.496094 480.179688 241.101562 481.699219 C 184.785156 483.710938 138.3125 529.324219 135.300781 585.558594 C 133.230469 624.171875 151.003906 660.320312 182.839844 682.242188 C 183.8125 682.914062 184.402344 684.023438 184.402344 685.214844 C 184.402344 686.40625 183.8125 687.515625 182.839844 688.1875 C 152.976562 708.765625 135.132812 742.644531 135.132812 778.820312 C 135.132812 814.996094 152.960938 848.886719 182.839844 869.453125 C 183.8125 870.121094 184.402344 871.230469 184.402344 872.421875 C 184.402344 873.613281 183.8125 874.722656 182.839844 875.394531 C 151.003906 897.332031 133.230469 933.464844 135.300781 972.078125 C 138.3125 1028.316406 184.785156 1073.941406 241.101562 1075.9375 C 283.425781 1077.460938 323.4375 1054.070312 342.894531 1016.390625 C 343.511719 1015.183594 344.742188 1014.445312 346.101562 1014.445312 C 347.457031 1014.445312 348.6875 1015.199219 349.304688 1016.390625 C 368.28125 1053.167969 405.746094 1076.007812 447.070312 1076.007812 C 488.394531 1076.007812 525.859375 1053.167969 544.835938 1016.390625 C 545.453125 1015.183594 546.6875 1014.445312 548.042969 1014.445312 C 549.382812 1014.445312 550.628906 1015.199219 551.246094 1016.390625 C 570.222656 1053.167969 607.6875 1076.007812 649.011719 1076.007812 C 690.335938 1076.007812 727.800781 1053.167969 746.777344 1016.390625 C 747.394531 1015.183594 748.628906 1014.445312 749.984375 1014.445312 C 751.324219 1014.445312 752.570312 1015.199219 753.1875 1016.390625 C 772.164062 1053.167969 809.628906 1076.007812 850.953125 1076.007812 C 892.277344 1076.007812 929.742188 1053.167969 948.71875 1016.390625 C 949.351562 1015.199219 950.582031 1014.445312 951.925781 1014.445312 Z M 951.925781 1014.445312 " fill-opacity="1" fill-rule="nonzero"/><path fill="#fff7ee" d="M 1319.152344 814.777344 C 1348.894531 794.292969 1368.417969 760.019531 1368.417969 721.171875 C 1368.417969 682.324219 1348.894531 648.054688 1319.152344 627.570312 C 1350.480469 605.988281 1370.457031 569.128906 1368.253906 527.71875 C 1365.132812 469.445312 1317.316406 422.53125 1258.984375 420.449219 C 1213.25 418.820312 1173.324219 444.234375 1153.867188 481.945312 C 1134.996094 445.386719 1096.875 420.382812 1052.894531 420.382812 C 1008.914062 420.382812 970.792969 445.398438 951.925781 481.945312 C 933.054688 445.386719 894.933594 420.382812 850.953125 420.382812 C 806.972656 420.382812 768.851562 445.398438 749.984375 481.945312 C 731.113281 445.386719 692.992188 420.382812 649.011719 420.382812 C 605.03125 420.382812 566.910156 445.398438 548.042969 481.945312 C 529.171875 445.386719 491.050781 420.382812 447.070312 420.382812 C 403.089844 420.382812 364.96875 445.398438 346.101562 481.945312 C 326.640625 444.234375 286.714844 418.820312 240.980469 420.449219 C 182.648438 422.53125 134.832031 469.445312 131.710938 527.71875 C 129.492188 569.128906 149.484375 605.988281 180.8125 627.570312 C 151.074219 648.054688 131.546875 682.324219 131.546875 721.171875 C 131.546875 760.019531 151.074219 794.292969 180.8125 814.777344 C 149.484375 836.355469 129.507812 873.21875 131.710938 914.625 C 134.832031 972.902344 182.648438 1019.8125 240.980469 1021.894531 C 286.714844 1023.523438 326.640625 998.097656 346.101562 960.398438 C 364.96875 996.960938 403.089844 1021.960938 447.070312 1021.960938 C 491.050781 1021.960938 529.171875 996.945312 548.042969 960.398438 C 566.910156 996.960938 605.03125 1021.960938 649.011719 1021.960938 C 692.992188 1021.960938 731.113281 996.945312 749.984375 960.398438 C 768.851562 996.960938 806.972656 1021.960938 850.953125 1021.960938 C 894.933594 1021.960938 933.054688 996.945312 951.925781 960.398438 C 970.792969 996.960938 1008.914062 1021.960938 1052.894531 1021.960938 C 1096.875 1021.960938 1134.996094 996.945312 1153.867188 960.398438 C 1173.324219 998.109375 1213.25 1023.523438 1258.984375 1021.894531 C 1317.316406 1019.8125 1365.132812 972.902344 1368.253906 914.625 C 1370.472656 873.21875 1350.480469 836.355469 1319.152344 814.777344 Z M 1319.152344 814.777344 " fill-opacity="1" fill-rule="nonzero"/><path fill="#2b2b2b" d="M 1052.894531 1025.5625 C 1011.078125 1025.5625 972.984375 1003.613281 951.925781 967.847656 C 930.878906 1003.613281 892.769531 1025.5625 850.953125 1025.5625 C 809.136719 1025.5625 771.042969 1003.613281 749.996094 967.847656 C 728.949219 1003.613281 690.84375 1025.5625 649.027344 1025.5625 C 607.207031 1025.5625 569.113281 1003.613281 548.054688 967.847656 C 527.007812 1003.613281 488.902344 1025.5625 447.085938 1025.5625 C 405.265625 1025.5625 367.160156 1003.613281 346.113281 967.847656 C 324.410156 1004.585938 283.796875 1027.027344 240.871094 1025.496094 C 180.855469 1023.359375 131.339844 974.734375 128.125 914.816406 C 126.015625 875.378906 143.324219 838.355469 174.652344 814.777344 C 145.308594 792.648438 127.945312 758.035156 127.945312 721.171875 C 127.945312 684.3125 145.308594 649.695312 174.652344 627.566406 C 143.324219 603.988281 126 566.964844 128.125 527.527344 C 131.328125 467.609375 180.855469 418.984375 240.871094 416.851562 C 283.796875 415.316406 324.410156 437.757812 346.113281 474.496094 C 367.160156 438.730469 405.265625 416.78125 447.085938 416.78125 C 488.902344 416.78125 526.996094 438.730469 548.054688 474.496094 C 569.101562 438.730469 607.207031 416.78125 649.027344 416.78125 C 690.84375 416.78125 728.9375 438.730469 749.996094 474.496094 C 771.042969 438.730469 809.148438 416.78125 850.96875 416.78125 C 892.785156 416.78125 930.878906 438.730469 951.9375 474.496094 C 972.984375 438.730469 1011.089844 416.78125 1052.910156 416.78125 C 1094.726562 416.78125 1132.832031 438.730469 1153.878906 474.511719 C 1175.582031 437.773438 1216.183594 415.34375 1259.121094 416.863281 C 1319.136719 419 1368.652344 467.621094 1371.855469 527.542969 C 1373.964844 566.976562 1356.65625 604.003906 1325.328125 627.582031 C 1354.671875 649.710938 1372.035156 684.324219 1372.035156 721.1875 C 1372.035156 758.046875 1354.671875 792.664062 1325.328125 814.789062 C 1356.65625 838.367188 1373.976562 875.394531 1371.855469 914.828125 C 1368.652344 974.75 1319.125 1023.371094 1259.121094 1025.507812 C 1257.738281 1025.5625 1256.371094 1025.578125 1254.988281 1025.578125 C 1213.582031 1025.578125 1174.882812 1003.410156 1153.878906 967.863281 C 1132.820312 1003.613281 1094.714844 1025.5625 1052.894531 1025.5625 Z M 951.925781 952.539062 L 955.128906 958.742188 C 974.105469 995.523438 1011.570312 1018.359375 1052.894531 1018.359375 C 1094.21875 1018.359375 1131.683594 995.523438 1150.660156 958.742188 L 1153.867188 952.539062 L 1157.070312 958.742188 C 1176.515625 996.425781 1216.441406 1019.785156 1258.863281 1018.292969 C 1315.179688 1016.28125 1361.65625 970.667969 1364.667969 914.433594 C 1366.734375 875.820312 1348.960938 839.671875 1317.125 817.746094 L 1312.8125 814.777344 L 1317.125 811.804688 C 1347.003906 791.226562 1364.832031 757.347656 1364.832031 721.171875 C 1364.832031 684.996094 1347.003906 651.105469 1317.125 630.539062 L 1312.8125 627.570312 L 1317.125 624.597656 C 1348.960938 602.660156 1366.734375 566.527344 1364.667969 527.914062 C 1361.65625 471.675781 1315.179688 426.050781 1258.863281 424.050781 C 1216.46875 422.53125 1176.527344 445.917969 1157.070312 483.601562 L 1153.867188 489.804688 L 1150.660156 483.601562 C 1131.683594 446.824219 1094.21875 423.984375 1052.894531 423.984375 C 1011.570312 423.984375 974.105469 446.824219 955.128906 483.601562 L 951.925781 489.804688 L 948.71875 483.601562 C 929.742188 446.824219 892.277344 423.984375 850.953125 423.984375 C 809.628906 423.984375 772.164062 446.824219 753.1875 483.601562 L 749.984375 489.804688 L 746.777344 483.601562 C 727.800781 446.824219 690.335938 423.984375 649.011719 423.984375 C 607.6875 423.984375 570.222656 446.824219 551.246094 483.601562 L 548.042969 489.804688 L 544.835938 483.601562 C 525.859375 446.824219 488.394531 423.984375 447.070312 423.984375 C 405.746094 423.984375 368.28125 446.824219 349.304688 483.601562 L 346.101562 489.804688 L 342.894531 483.601562 C 323.453125 445.917969 283.496094 422.546875 241.101562 424.050781 C 184.785156 426.066406 138.3125 471.675781 135.300781 527.914062 C 133.230469 566.527344 151.003906 602.675781 182.839844 624.597656 L 187.152344 627.570312 L 182.839844 630.539062 C 152.976562 651.121094 135.132812 684.996094 135.132812 721.171875 C 135.132812 757.347656 152.960938 791.238281 182.839844 811.804688 L 187.152344 814.777344 L 182.839844 817.746094 C 151.003906 839.683594 133.230469 875.820312 135.300781 914.433594 C 138.3125 970.667969 184.785156 1016.292969 241.101562 1018.292969 C 283.425781 1019.800781 323.4375 996.425781 342.894531 958.742188 L 346.101562 952.539062 L 349.304688 958.742188 C 368.28125 995.523438 405.746094 1018.359375 447.070312 1018.359375 C 488.394531 1018.359375 525.859375 995.523438 544.835938 958.742188 L 548.042969 952.539062 L 551.246094 958.742188 C 570.222656 995.523438 607.6875 1018.359375 649.011719 1018.359375 C 690.335938 1018.359375 727.800781 995.523438 746.777344 958.742188 L 749.984375 952.539062 L 753.1875 958.742188 C 772.164062 995.523438 809.628906 1018.359375 850.953125 1018.359375 C 892.277344 1018.359375 929.742188 995.523438 948.71875 958.742188 Z M 951.925781 952.539062 " fill-opacity="1" fill-rule="nonzero"/><g transform="matrix(1, 0, 0, 1, 320, 515)"><g clip-path="url(#d07b49e04a)"><g fill="#473c33" fill-opacity="1"><g transform="translate(0.656318, 147.7031)"><g><path d="M 86.625 -46.59375 C 86.625 -37.476562 84.59375 -29.128906 80.53125 -21.546875 C 76.46875 -13.960938 70.757812 -8.046875 63.40625 -3.796875 C 56.0625 0.453125 47.75 2.578125 38.46875 2.578125 C 28.25 2.578125 20.101562 -0.429688 14.03125 -6.453125 C 7.957031 -12.472656 4.921875 -20.617188 4.921875 -30.890625 C 4.921875 -40.054688 6.941406 -48.40625 10.984375 -55.9375 C 15.023438 -63.46875 20.664062 -69.316406 27.90625 -73.484375 C 35.15625 -77.660156 43.316406 -79.75 52.390625 -79.75 C 63.015625 -79.75 71.375 -76.828125 77.46875 -70.984375 C 83.570312 -65.148438 86.625 -57.019531 86.625 -46.59375 Z M 40.1875 -3.671875 C 43.519531 -3.671875 46.632812 -6.03125 49.53125 -10.75 C 52.425781 -15.46875 54.820312 -22.382812 56.71875 -31.5 C 58.625 -40.625 59.578125 -49.125 59.578125 -57 C 59.578125 -67.789062 56.972656 -73.1875 51.765625 -73.1875 C 48.160156 -73.1875 44.898438 -70.863281 41.984375 -66.21875 C 39.066406 -61.582031 36.679688 -54.78125 34.828125 -45.8125 C 32.984375 -36.851562 32.0625 -28.203125 32.0625 -19.859375 C 32.0625 -14.960938 32.632812 -11.066406 33.78125 -8.171875 C 34.925781 -5.273438 37.0625 -3.773438 40.1875 -3.671875 Z M 40.1875 -3.671875 "/></g></g></g><g fill="#473c33" fill-opacity="1"><g transform="translate(92.207162, 147.7031)"><g><path d="M 76.703125 -16.8125 C 76.703125 -14.101562 77.222656 -12.25 78.265625 -11.25 C 79.304688 -10.257812 81.023438 -9.765625 83.421875 -9.765625 C 84.460938 -9.765625 85.832031 -10 87.53125 -10.46875 C 89.226562 -10.945312 90.753906 -11.472656 92.109375 -12.046875 L 90.625 -4.453125 C 82.488281 -0.441406 75.289062 1.5625 69.03125 1.5625 C 63.976562 1.5625 60.003906 0.613281 57.109375 -1.28125 C 54.222656 -3.1875 52.101562 -6.066406 50.75 -9.921875 L 50.4375 -9.921875 C 46.988281 -6.066406 43.347656 -3.046875 39.515625 -0.859375 C 35.691406 1.328125 31.898438 2.421875 28.140625 2.421875 C 20.640625 2.421875 14.894531 -0.128906 10.90625 -5.234375 C 6.914062 -10.347656 4.921875 -17.515625 4.921875 -26.734375 C 4.921875 -36.171875 6.820312 -44.96875 10.625 -53.125 C 14.4375 -61.28125 19.570312 -67.703125 26.03125 -72.390625 C 32.5 -77.085938 39.300781 -79.4375 46.4375 -79.4375 C 53.632812 -79.4375 59.082031 -77.457031 62.78125 -73.5 L 68.5625 -99.140625 C 68.976562 -100.546875 69.1875 -102.03125 69.1875 -103.59375 C 69.1875 -106.40625 68.171875 -108.582031 66.140625 -110.125 C 64.109375 -111.664062 60.695312 -112.644531 55.90625 -113.0625 L 57 -119 L 98.28125 -121.03125 L 99.296875 -119.78125 L 78.65625 -29.3125 C 77.351562 -23.476562 76.703125 -19.3125 76.703125 -16.8125 Z M 59.890625 -62 C 59.890625 -65.125 59.222656 -67.5625 57.890625 -69.3125 C 56.566406 -71.0625 54.785156 -71.9375 52.546875 -71.9375 C 49.359375 -71.9375 46.253906 -69.65625 43.234375 -65.09375 C 40.210938 -60.53125 37.773438 -54.726562 35.921875 -47.6875 C 34.078125 -40.65625 33.15625 -33.617188 33.15625 -26.578125 C 33.15625 -15.367188 35.5 -9.765625 40.1875 -9.765625 C 41.75 -9.765625 43.363281 -10.390625 45.03125 -11.640625 C 46.695312 -12.898438 48.285156 -14.675781 49.796875 -16.96875 Z M 59.890625 -62 "/></g></g></g><g fill="#473c33" fill-opacity="1"><g transform="translate(186.963458, 147.7031)"><g><path d="M 86.625 -46.59375 C 86.625 -37.476562 84.59375 -29.128906 80.53125 -21.546875 C 76.46875 -13.960938 70.757812 -8.046875 63.40625 -3.796875 C 56.0625 0.453125 47.75 2.578125 38.46875 2.578125 C 28.25 2.578125 20.101562 -0.429688 14.03125 -6.453125 C 7.957031 -12.472656 4.921875 -20.617188 4.921875 -30.890625 C 4.921875 -40.054688 6.941406 -48.40625 10.984375 -55.9375 C 15.023438 -63.46875 20.664062 -69.316406 27.90625 -73.484375 C 35.15625 -77.660156 43.316406 -79.75 52.390625 -79.75 C 63.015625 -79.75 71.375 -76.828125 77.46875 -70.984375 C 83.570312 -65.148438 86.625 -57.019531 86.625 -46.59375 Z M 40.1875 -3.671875 C 43.519531 -3.671875 46.632812 -6.03125 49.53125 -10.75 C 52.425781 -15.46875 54.820312 -22.382812 56.71875 -31.5 C 58.625 -40.625 59.578125 -49.125 59.578125 -57 C 59.578125 -67.789062 56.972656 -73.1875 51.765625 -73.1875 C 48.160156 -73.1875 44.898438 -70.863281 41.984375 -66.21875 C 39.066406 -61.582031 36.679688 -54.78125 34.828125 -45.8125 C 32.984375 -36.851562 32.0625 -28.203125 32.0625 -19.859375 C 32.0625 -14.960938 32.632812 -11.066406 33.78125 -8.171875 C 34.925781 -5.273438 37.0625 -3.773438 40.1875 -3.671875 Z M 40.1875 -3.671875 "/></g></g></g><g fill="#473c33" fill-opacity="1"><g transform="translate(278.514302, 147.7031)"><g><path d="M 36.828125 -16.5 C 36.828125 -13.84375 37.515625 -12.003906 38.890625 -10.984375 C 40.273438 -9.960938 42.425781 -9.453125 45.34375 -9.453125 C 47.113281 -9.453125 49.238281 -9.78125 51.71875 -10.4375 C 54.195312 -11.09375 55.90625 -11.628906 56.84375 -12.046875 L 55.125 -4.140625 C 50.007812 -1.691406 45.664062 -0.0390625 42.09375 0.8125 C 38.53125 1.675781 34.742188 2.109375 30.734375 2.109375 C 24.003906 2.109375 18.984375 0.570312 15.671875 -2.5 C 12.367188 -5.570312 10.71875 -9.640625 10.71875 -14.703125 C 10.71875 -17.878906 11.265625 -22.097656 12.359375 -27.359375 L 21.421875 -67.703125 L 8.125 -67.703125 L 9.921875 -75.921875 L 23.6875 -75.921875 L 29.15625 -99.609375 L 54.734375 -99.609375 L 49.484375 -75.921875 L 67.546875 -75.921875 L 65.984375 -67.703125 L 47.53125 -67.703125 L 38.625 -27.671875 C 37.425781 -22.566406 36.828125 -18.84375 36.828125 -16.5 Z M 36.828125 -16.5 "/></g></g></g><g fill="#473c33" fill-opacity="1"><g transform="translate(341.763348, 147.7031)"><g><path d="M 69.96875 1.40625 C 59.96875 1.40625 53.507812 -2.265625 50.59375 -9.609375 L 50.125 -9.609375 C 45.945312 -5.285156 42.070312 -2.195312 38.5 -0.34375 C 34.9375 1.5 31.429688 2.421875 27.984375 2.421875 C 20.691406 2.421875 15 -0.0234375 10.90625 -4.921875 C 6.8125 -9.828125 4.765625 -16.992188 4.765625 -26.421875 C 4.765625 -35.910156 6.65625 -44.734375 10.4375 -52.890625 C 14.21875 -61.046875 19.40625 -67.484375 26 -72.203125 C 32.59375 -76.921875 39.71875 -79.28125 47.375 -79.28125 C 50.820312 -79.28125 54.082031 -78.71875 57.15625 -77.59375 C 60.226562 -76.476562 62.625 -75.007812 64.34375 -73.1875 L 88.1875 -78.109375 L 89.515625 -76.703125 L 78.5 -29.15625 C 77.195312 -24.257812 76.546875 -20.09375 76.546875 -16.65625 C 76.546875 -14.257812 77.039062 -12.484375 78.03125 -11.328125 C 79.019531 -10.179688 80.816406 -9.609375 83.421875 -9.609375 C 84.828125 -9.609375 86.492188 -9.859375 88.421875 -10.359375 C 90.359375 -10.859375 91.898438 -11.421875 93.046875 -12.046875 L 91.5625 -4.453125 C 83.53125 -0.546875 76.332031 1.40625 69.96875 1.40625 Z M 59.890625 -61.453125 C 59.890625 -64.316406 59.238281 -66.753906 57.9375 -68.765625 C 56.632812 -70.773438 54.835938 -71.78125 52.546875 -71.78125 C 49.671875 -71.78125 46.757812 -69.550781 43.8125 -65.09375 C 40.875 -60.632812 38.335938 -54.546875 36.203125 -46.828125 C 34.066406 -39.117188 33 -32.160156 33 -25.953125 C 33 -20.898438 33.519531 -16.9375 34.5625 -14.0625 C 35.601562 -11.195312 37.53125 -9.765625 40.34375 -9.765625 C 43.101562 -9.765625 46.253906 -12.0625 49.796875 -16.65625 Z M 59.890625 -61.453125 "/></g></g></g><g fill="#473c33" fill-opacity="1"><g transform="translate(437.22328, 147.7031)"><g/></g></g><g fill="#473c33" fill-opacity="1"><g transform="translate(476.939615, 147.7031)"><g><path d="M 53.640625 -15.5625 C 53.640625 -20.195312 55.097656 -27.859375 58.015625 -38.546875 C 60.878906 -49.179688 62.3125 -55.929688 62.3125 -58.796875 C 62.3125 -61.191406 61.800781 -62.960938 60.78125 -64.109375 C 59.769531 -65.253906 58.457031 -65.828125 56.84375 -65.828125 C 55.226562 -65.828125 53.335938 -65.148438 51.171875 -63.796875 C 49.003906 -62.441406 46.773438 -59.96875 44.484375 -56.375 L 32.21875 0 L 5.78125 0 L 16.03125 -45.8125 C 17.488281 -52.28125 18.21875 -56.972656 18.21875 -59.890625 C 18.21875 -62.285156 17.785156 -64.082031 16.921875 -65.28125 C 16.066406 -66.476562 14.390625 -67.078125 11.890625 -67.078125 C 8.960938 -67.078125 5.753906 -66.320312 2.265625 -64.8125 L 4.140625 -72.40625 C 7.679688 -74.019531 11.210938 -75.4375 14.734375 -76.65625 C 18.253906 -77.882812 21.890625 -78.5 25.640625 -78.5 C 31.015625 -78.5 35.238281 -77.457031 38.3125 -75.375 C 41.382812 -73.289062 43.675781 -69.664062 45.1875 -64.5 L 45.65625 -64.5 C 49.832031 -69.507812 54.222656 -73.25 58.828125 -75.71875 C 63.441406 -78.195312 68.125 -79.4375 72.875 -79.4375 C 77.664062 -79.4375 81.554688 -77.875 84.546875 -74.75 C 87.546875 -71.625 89.046875 -67.6875 89.046875 -62.9375 C 89.046875 -58.976562 88.5 -55.019531 87.40625 -51.0625 L 81.859375 -29.46875 C 80.554688 -25.039062 79.90625 -20.925781 79.90625 -17.125 C 79.90625 -14.625 80.453125 -12.828125 81.546875 -11.734375 C 82.640625 -10.640625 84.4375 -10.09375 86.9375 -10.09375 C 88.914062 -10.09375 92.070312 -10.847656 96.40625 -12.359375 L 94.609375 -4.609375 C 90.898438 -2.941406 87.285156 -1.546875 83.765625 -0.421875 C 80.253906 0.691406 76.625 1.25 72.875 1.25 C 66.976562 1.25 62.296875 -0.296875 58.828125 -3.390625 C 55.367188 -6.492188 53.640625 -10.550781 53.640625 -15.5625 Z M 53.640625 -15.5625 "/></g></g></g><g fill="#473c33" fill-opacity="1"><g transform="translate(575.214112, 147.7031)"><g><path d="M 86.625 -46.59375 C 86.625 -37.476562 84.59375 -29.128906 80.53125 -21.546875 C 76.46875 -13.960938 70.757812 -8.046875 63.40625 -3.796875 C 56.0625 0.453125 47.75 2.578125 38.46875 2.578125 C 28.25 2.578125 20.101562 -0.429688 14.03125 -6.453125 C 7.957031 -12.472656 4.921875 -20.617188 4.921875 -30.890625 C 4.921875 -40.054688 6.941406 -48.40625 10.984375 -55.9375 C 15.023438 -63.46875 20.664062 -69.316406 27.90625 -73.484375 C 35.15625 -77.660156 43.316406 -79.75 52.390625 -79.75 C 63.015625 -79.75 71.375 -76.828125 77.46875 -70.984375 C 83.570312 -65.148438 86.625 -57.019531 86.625 -46.59375 Z M 40.1875 -3.671875 C 43.519531 -3.671875 46.632812 -6.03125 49.53125 -10.75 C 52.425781 -15.46875 54.820312 -22.382812 56.71875 -31.5 C 58.625 -40.625 59.578125 -49.125 59.578125 -57 C 59.578125 -67.789062 56.972656 -73.1875 51.765625 -73.1875 C 48.160156 -73.1875 44.898438 -70.863281 41.984375 -66.21875 C 39.066406 -61.582031 36.679688 -54.78125 34.828125 -45.8125 C 32.984375 -36.851562 32.0625 -28.203125 32.0625 -19.859375 C 32.0625 -14.960938 32.632812 -11.066406 33.78125 -8.171875 C 34.925781 -5.273438 37.0625 -3.773438 40.1875 -3.671875 Z M 40.1875 -3.671875 "/></g></g></g><g fill="#473c33" fill-opacity="1"><g transform="translate(666.764934, 147.7031)"><g><path d="M 55.28125 -106.328125 C 55.28125 -102.265625 53.789062 -98.828125 50.8125 -96.015625 C 47.84375 -93.203125 44.195312 -91.796875 39.875 -91.796875 C 35.550781 -91.796875 31.898438 -93.1875 28.921875 -95.96875 C 25.953125 -98.757812 24.46875 -102.265625 24.46875 -106.484375 C 24.46875 -110.609375 25.953125 -114.085938 28.921875 -116.921875 C 31.898438 -119.765625 35.550781 -121.1875 39.875 -121.1875 C 44.039062 -121.1875 47.648438 -119.738281 50.703125 -116.84375 C 53.753906 -113.957031 55.28125 -110.453125 55.28125 -106.328125 Z M 30.265625 1.953125 C 16.816406 1.953125 10.09375 -3.882812 10.09375 -15.5625 C 10.09375 -20.25 10.898438 -25.460938 12.515625 -31.203125 L 16.96875 -48.546875 C 18.269531 -53.609375 18.921875 -57.804688 18.921875 -61.140625 C 18.921875 -63.796875 18.304688 -65.578125 17.078125 -66.484375 C 15.859375 -67.398438 13.945312 -67.859375 11.34375 -67.859375 C 9.300781 -67.859375 6.640625 -67.335938 3.359375 -66.296875 L 5.15625 -73.8125 C 9.957031 -76 13.75 -77.457031 16.53125 -78.1875 C 19.320312 -78.914062 22.125 -79.28125 24.9375 -79.28125 C 31.613281 -79.28125 36.59375 -77.78125 39.875 -74.78125 C 43.15625 -71.789062 44.796875 -67.53125 44.796875 -62 C 44.796875 -57.3125 44.015625 -51.96875 42.453125 -45.96875 L 37.765625 -28.6875 C 36.617188 -23.269531 36.046875 -19.101562 36.046875 -16.1875 C 36.046875 -13.738281 36.578125 -11.953125 37.640625 -10.828125 C 38.710938 -9.703125 40.421875 -9.140625 42.765625 -9.140625 C 45.835938 -9.140625 49.097656 -9.820312 52.546875 -11.1875 L 50.75 -3.515625 C 47.351562 -2.054688 43.988281 -0.78125 40.65625 0.3125 C 37.320312 1.40625 33.859375 1.953125 30.265625 1.953125 Z M 30.265625 1.953125 "/></g></g></g><g fill="#473c33" fill-opacity="1"><g transform="translate(721.335804, 147.7031)"><g><path d="M 53.640625 -15.5625 C 53.640625 -20.195312 55.097656 -27.859375 58.015625 -38.546875 C 60.878906 -49.179688 62.3125 -55.929688 62.3125 -58.796875 C 62.3125 -61.191406 61.800781 -62.960938 60.78125 -64.109375 C 59.769531 -65.253906 58.457031 -65.828125 56.84375 -65.828125 C 55.226562 -65.828125 53.335938 -65.148438 51.171875 -63.796875 C 49.003906 -62.441406 46.773438 -59.96875 44.484375 -56.375 L 32.21875 0 L 5.78125 0 L 16.03125 -45.8125 C 17.488281 -52.28125 18.21875 -56.972656 18.21875 -59.890625 C 18.21875 -62.285156 17.785156 -64.082031 16.921875 -65.28125 C 16.066406 -66.476562 14.390625 -67.078125 11.890625 -67.078125 C 8.960938 -67.078125 5.753906 -66.320312 2.265625 -64.8125 L 4.140625 -72.40625 C 7.679688 -74.019531 11.210938 -75.4375 14.734375 -76.65625 C 18.253906 -77.882812 21.890625 -78.5 25.640625 -78.5 C 31.015625 -78.5 35.238281 -77.457031 38.3125 -75.375 C 41.382812 -73.289062 43.675781 -69.664062 45.1875 -64.5 L 45.65625 -64.5 C 49.832031 -69.507812 54.222656 -73.25 58.828125 -75.71875 C 63.441406 -78.195312 68.125 -79.4375 72.875 -79.4375 C 77.664062 -79.4375 81.554688 -77.875 84.546875 -74.75 C 87.546875 -71.625 89.046875 -67.6875 89.046875 -62.9375 C 89.046875 -58.976562 88.5 -55.019531 87.40625 -51.0625 L 81.859375 -29.46875 C 80.554688 -25.039062 79.90625 -20.925781 79.90625 -17.125 C 79.90625 -14.625 80.453125 -12.828125 81.546875 -11.734375 C 82.640625 -10.640625 84.4375 -10.09375 86.9375 -10.09375 C 88.914062 -10.09375 92.070312 -10.847656 96.40625 -12.359375 L 94.609375 -4.609375 C 90.898438 -2.941406 87.285156 -1.546875 83.765625 -0.421875 C 80.253906 0.691406 76.625 1.25 72.875 1.25 C 66.976562 1.25 62.296875 -0.296875 58.828125 -3.390625 C 55.367188 -6.492188 53.640625 -10.550781 53.640625 -15.5625 Z M 53.640625 -15.5625 "/></g></g></g><g fill="#473c33" fill-opacity="1"><g transform="translate(819.61378, 147.7031)"><g/></g></g><g fill="#473c33" fill-opacity="1"><g transform="translate(22.545628, 371.820809)"><g><path d="M 5.15625 0 L 6.40625 -6.09375 C 9.695312 -6.25 13.097656 -6.5625 16.609375 -7.03125 C 20.128906 -7.5 22.175781 -7.863281 22.75 -8.125 C 26.394531 -9.269531 28.6875 -11.90625 29.625 -16.03125 L 46.4375 -91.09375 L 26.265625 -91.09375 L 27.828125 -98.828125 L 32.84375 -98.828125 C 37.53125 -98.828125 41.695312 -99.410156 45.34375 -100.578125 C 49 -101.753906 52.257812 -103.253906 55.125 -105.078125 C 57.988281 -106.898438 61.113281 -109.664062 64.5 -113.375 L 78.65625 -113.375 C 76.882812 -106.59375 75.453125 -101.101562 74.359375 -96.90625 C 73.265625 -92.71875 67.53125 -67.085938 57.15625 -20.015625 C 56.425781 -16.785156 56.0625 -14.648438 56.0625 -13.609375 C 56.0625 -10.734375 58.015625 -8.8125 61.921875 -7.84375 C 65.828125 -6.882812 70.390625 -6.300781 75.609375 -6.09375 L 74.28125 0 Z M 5.15625 0 "/></g></g></g><g fill="#473c33" fill-opacity="1"><g transform="translate(116.989197, 371.820809)"><g><path d="M 52.546875 -33.46875 L 4.921875 -33.46875 L 8.984375 -51.21875 L 56.375 -51.21875 Z M 52.546875 -33.46875 "/></g></g></g><g fill="#473c33" fill-opacity="1"><g transform="translate(177.658244, 371.820809)"><g><path d="M 58.953125 -113.21875 C 69.066406 -113.21875 76.921875 -111.234375 82.515625 -107.265625 C 88.117188 -103.304688 90.921875 -97.707031 90.921875 -90.46875 C 90.921875 -85.71875 89.644531 -81.296875 87.09375 -77.203125 C 84.539062 -73.117188 80.785156 -69.578125 75.828125 -66.578125 C 70.878906 -63.578125 64.890625 -61.398438 57.859375 -60.046875 L 57.46875 -58.953125 C 65.488281 -58.640625 71.921875 -56.5 76.765625 -52.53125 C 81.617188 -48.570312 84.046875 -43.441406 84.046875 -37.140625 C 84.046875 -29.628906 81.878906 -22.847656 77.546875 -16.796875 C 73.222656 -10.753906 67.203125 -6.039062 59.484375 -2.65625 C 51.773438 0.726562 43.441406 2.421875 34.484375 2.421875 C 24.578125 2.421875 16.597656 0.363281 10.546875 -3.75 C 4.503906 -7.863281 1.484375 -13.285156 1.484375 -20.015625 C 1.484375 -23.972656 2.785156 -27.304688 5.390625 -30.015625 C 7.992188 -32.734375 11.382812 -34.09375 15.5625 -34.09375 C 19.78125 -34.09375 22.941406 -33.019531 25.046875 -30.875 C 27.160156 -28.738281 28.21875 -25.71875 28.21875 -21.8125 C 28.21875 -18.582031 27.175781 -15.015625 25.09375 -11.109375 L 23.53125 -8.203125 C 25.769531 -5.960938 29.1875 -4.84375 33.78125 -4.84375 C 37.375 -4.84375 40.734375 -6.210938 43.859375 -8.953125 C 46.984375 -11.691406 49.445312 -15.507812 51.25 -20.40625 C 53.050781 -25.300781 53.953125 -30.929688 53.953125 -37.296875 C 53.953125 -43.179688 52.828125 -47.375 50.578125 -49.875 C 48.335938 -52.382812 44.976562 -53.640625 40.5 -53.640625 L 33.3125 -53.640625 L 35.265625 -62.78125 L 42.296875 -62.78125 C 48.710938 -62.78125 53.753906 -65.148438 57.421875 -69.890625 C 61.097656 -74.640625 62.9375 -81.128906 62.9375 -89.359375 C 62.9375 -94.734375 62.101562 -98.800781 60.4375 -101.5625 C 58.769531 -104.320312 56.398438 -105.703125 53.328125 -105.703125 C 50.035156 -105.703125 46.984375 -104.582031 44.171875 -102.34375 C 45.890625 -98.382812 46.75 -94.265625 46.75 -89.984375 C 46.75 -85.765625 45.585938 -82.390625 43.265625 -79.859375 C 40.953125 -77.335938 37.53125 -76.078125 33 -76.078125 C 28.976562 -76.078125 25.9375 -77.128906 23.875 -79.234375 C 21.820312 -81.347656 20.796875 -84.125 20.796875 -87.5625 C 20.796875 -92.257812 22.488281 -96.585938 25.875 -100.546875 C 29.257812 -104.503906 33.867188 -107.601562 39.703125 -109.84375 C 45.546875 -112.09375 51.960938 -113.21875 58.953125 -113.21875 Z M 58.953125 -113.21875 "/></g></g></g><g fill="#473c33" fill-opacity="1"><g transform="translate(272.101813, 371.820809)"><g/></g></g><g fill="#473c33" fill-opacity="1"><g transform="translate(311.818148, 371.820809)"><g><path d="M 90.625 -49.484375 C 90.625 -40.160156 88.820312 -31.535156 85.21875 -23.609375 C 81.625 -15.691406 76.671875 -9.453125 70.359375 -4.890625 C 64.054688 -0.328125 57.253906 1.953125 49.953125 1.953125 C 45.628906 1.953125 42.148438 1.507812 39.515625 0.625 C 36.890625 -0.257812 34.664062 -1.585938 32.84375 -3.359375 L 28.296875 16.8125 C 27.773438 18.582031 27.515625 20.457031 27.515625 22.4375 C 27.515625 24.207031 28.804688 25.726562 31.390625 27 C 33.972656 28.28125 36.957031 29 40.34375 29.15625 L 39.25 34.71875 L -13.296875 34.71875 L -12.046875 29.15625 C -7.453125 28.6875 -4.21875 27.8125 -2.34375 26.53125 C -0.46875 25.257812 0.832031 22.984375 1.5625 19.703125 L 16.5 -47.6875 C 17.644531 -53.007812 18.21875 -57.023438 18.21875 -59.734375 C 18.21875 -62.179688 17.800781 -64.015625 16.96875 -65.234375 C 16.132812 -66.460938 14.492188 -67.078125 12.046875 -67.078125 C 8.910156 -67.078125 5.597656 -66.320312 2.109375 -64.8125 L 3.828125 -72.40625 C 12.484375 -76.46875 19.753906 -78.5 25.640625 -78.5 C 30.597656 -78.5 34.5625 -77.625 37.53125 -75.875 C 40.5 -74.132812 42.765625 -71.148438 44.328125 -66.921875 L 44.953125 -66.921875 C 48.453125 -70.835938 52.179688 -73.898438 56.140625 -76.109375 C 60.097656 -78.328125 63.953125 -79.4375 67.703125 -79.4375 C 75.054688 -79.4375 80.710938 -76.851562 84.671875 -71.6875 C 88.640625 -66.53125 90.625 -59.128906 90.625 -49.484375 Z M 62.3125 -50.125 C 62.3125 -55.539062 61.660156 -59.691406 60.359375 -62.578125 C 59.054688 -65.472656 57.128906 -66.921875 54.578125 -66.921875 C 53.066406 -66.921875 51.472656 -66.296875 49.796875 -65.046875 C 48.128906 -63.796875 46.59375 -62.128906 45.1875 -60.046875 L 34.875 -13.296875 C 35.707031 -10.734375 36.890625 -8.671875 38.421875 -7.109375 C 39.960938 -5.546875 41.722656 -4.765625 43.703125 -4.765625 C 46.460938 -4.765625 49.300781 -7.003906 52.21875 -11.484375 C 55.144531 -15.972656 57.554688 -21.785156 59.453125 -28.921875 C 61.359375 -36.066406 62.3125 -43.132812 62.3125 -50.125 Z M 62.3125 -50.125 "/></g></g></g><g fill="#473c33" fill-opacity="1"><g transform="translate(407.59083, 371.820809)"><g><path d="M 69.96875 1.40625 C 59.96875 1.40625 53.507812 -2.265625 50.59375 -9.609375 L 50.125 -9.609375 C 45.945312 -5.285156 42.070312 -2.195312 38.5 -0.34375 C 34.9375 1.5 31.429688 2.421875 27.984375 2.421875 C 20.691406 2.421875 15 -0.0234375 10.90625 -4.921875 C 6.8125 -9.828125 4.765625 -16.992188 4.765625 -26.421875 C 4.765625 -35.910156 6.65625 -44.734375 10.4375 -52.890625 C 14.21875 -61.046875 19.40625 -67.484375 26 -72.203125 C 32.59375 -76.921875 39.71875 -79.28125 47.375 -79.28125 C 50.820312 -79.28125 54.082031 -78.71875 57.15625 -77.59375 C 60.226562 -76.476562 62.625 -75.007812 64.34375 -73.1875 L 88.1875 -78.109375 L 89.515625 -76.703125 L 78.5 -29.15625 C 77.195312 -24.257812 76.546875 -20.09375 76.546875 -16.65625 C 76.546875 -14.257812 77.039062 -12.484375 78.03125 -11.328125 C 79.019531 -10.179688 80.816406 -9.609375 83.421875 -9.609375 C 84.828125 -9.609375 86.492188 -9.859375 88.421875 -10.359375 C 90.359375 -10.859375 91.898438 -11.421875 93.046875 -12.046875 L 91.5625 -4.453125 C 83.53125 -0.546875 76.332031 1.40625 69.96875 1.40625 Z M 59.890625 -61.453125 C 59.890625 -64.316406 59.238281 -66.753906 57.9375 -68.765625 C 56.632812 -70.773438 54.835938 -71.78125 52.546875 -71.78125 C 49.671875 -71.78125 46.757812 -69.550781 43.8125 -65.09375 C 40.875 -60.632812 38.335938 -54.546875 36.203125 -46.828125 C 34.066406 -39.117188 33 -32.160156 33 -25.953125 C 33 -20.898438 33.519531 -16.9375 34.5625 -14.0625 C 35.601562 -11.195312 37.53125 -9.765625 40.34375 -9.765625 C 43.101562 -9.765625 46.253906 -12.0625 49.796875 -16.65625 Z M 90.765625 -105.390625 C 90.765625 -101.953125 89.578125 -98.957031 87.203125 -96.40625 C 84.835938 -93.851562 81.960938 -92.578125 78.578125 -92.578125 C 75.234375 -92.578125 72.347656 -93.8125 69.921875 -96.28125 C 67.503906 -98.757812 66.296875 -101.796875 66.296875 -105.390625 C 66.296875 -109.046875 67.503906 -112.109375 69.921875 -114.578125 C 72.347656 -117.054688 75.234375 -118.296875 78.578125 -118.296875 C 81.960938 -118.296875 84.835938 -117.019531 87.203125 -114.46875 C 89.578125 -111.914062 90.765625 -108.890625 90.765625 -105.390625 Z M 55.34375 -105.390625 C 55.34375 -101.898438 54.171875 -98.890625 51.828125 -96.359375 C 49.484375 -93.835938 46.617188 -92.578125 43.234375 -92.578125 C 39.742188 -92.578125 36.8125 -93.851562 34.4375 -96.40625 C 32.0625 -98.957031 30.875 -101.953125 30.875 -105.390625 C 30.875 -108.835938 32.046875 -111.847656 34.390625 -114.421875 C 36.742188 -117.003906 39.691406 -118.296875 43.234375 -118.296875 C 46.617188 -118.296875 49.484375 -117.03125 51.828125 -114.5 C 54.171875 -111.976562 55.34375 -108.941406 55.34375 -105.390625 Z M 55.34375 -105.390625 "/></g></g></g><g fill="#473c33" fill-opacity="1"><g transform="translate(503.05074, 371.820809)"><g><path d="M 55.28125 -106.328125 C 55.28125 -102.265625 53.789062 -98.828125 50.8125 -96.015625 C 47.84375 -93.203125 44.195312 -91.796875 39.875 -91.796875 C 35.550781 -91.796875 31.898438 -93.1875 28.921875 -95.96875 C 25.953125 -98.757812 24.46875 -102.265625 24.46875 -106.484375 C 24.46875 -110.609375 25.953125 -114.085938 28.921875 -116.921875 C 31.898438 -119.765625 35.550781 -121.1875 39.875 -121.1875 C 44.039062 -121.1875 47.648438 -119.738281 50.703125 -116.84375 C 53.753906 -113.957031 55.28125 -110.453125 55.28125 -106.328125 Z M 30.265625 1.953125 C 16.816406 1.953125 10.09375 -3.882812 10.09375 -15.5625 C 10.09375 -20.25 10.898438 -25.460938 12.515625 -31.203125 L 16.96875 -48.546875 C 18.269531 -53.609375 18.921875 -57.804688 18.921875 -61.140625 C 18.921875 -63.796875 18.304688 -65.578125 17.078125 -66.484375 C 15.859375 -67.398438 13.945312 -67.859375 11.34375 -67.859375 C 9.300781 -67.859375 6.640625 -67.335938 3.359375 -66.296875 L 5.15625 -73.8125 C 9.957031 -76 13.75 -77.457031 16.53125 -78.1875 C 19.320312 -78.914062 22.125 -79.28125 24.9375 -79.28125 C 31.613281 -79.28125 36.59375 -77.78125 39.875 -74.78125 C 43.15625 -71.789062 44.796875 -67.53125 44.796875 -62 C 44.796875 -57.3125 44.015625 -51.96875 42.453125 -45.96875 L 37.765625 -28.6875 C 36.617188 -23.269531 36.046875 -19.101562 36.046875 -16.1875 C 36.046875 -13.738281 36.578125 -11.953125 37.640625 -10.828125 C 38.710938 -9.703125 40.421875 -9.140625 42.765625 -9.140625 C 45.835938 -9.140625 49.097656 -9.820312 52.546875 -11.1875 L 50.75 -3.515625 C 47.351562 -2.054688 43.988281 -0.78125 40.65625 0.3125 C 37.320312 1.40625 33.859375 1.953125 30.265625 1.953125 Z M 30.265625 1.953125 "/></g></g></g><g fill="#473c33" fill-opacity="1"><g transform="translate(557.62161, 371.820809)"><g><path d="M 84.984375 -59.421875 C 84.984375 -48.578125 82.804688 -38.242188 78.453125 -28.421875 C 74.109375 -18.597656 68.378906 -11 61.265625 -5.625 C 54.148438 -0.257812 46.367188 2.421875 37.921875 2.421875 C 29.785156 2.421875 23.296875 0.191406 18.453125 -4.265625 C 13.609375 -8.722656 11.1875 -14.78125 11.1875 -22.4375 C 11.1875 -25.09375 11.523438 -27.773438 12.203125 -30.484375 C 12.878906 -33.203125 14.726562 -39.691406 17.75 -49.953125 C 18.84375 -53.453125 19.390625 -56.660156 19.390625 -59.578125 C 19.390625 -64.578125 17.203125 -67.078125 12.828125 -67.078125 C 9.640625 -67.078125 6.535156 -66.320312 3.515625 -64.8125 L 4.921875 -72.09375 C 13.003906 -76.363281 20.171875 -78.5 26.421875 -78.5 C 32.367188 -78.5 36.984375 -76.894531 40.265625 -73.6875 C 43.546875 -70.476562 45.1875 -66.085938 45.1875 -60.515625 C 45.1875 -57.859375 44.796875 -55.003906 44.015625 -51.953125 C 43.234375 -48.898438 42.359375 -45.742188 41.390625 -42.484375 C 40.429688 -39.234375 39.5625 -35.925781 38.78125 -32.5625 C 38 -29.195312 37.609375 -25.875 37.609375 -22.59375 C 37.609375 -13.519531 41.359375 -8.984375 48.859375 -8.984375 C 52.410156 -8.984375 55.707031 -10.273438 58.75 -12.859375 C 61.800781 -15.441406 64.195312 -19.015625 65.9375 -23.578125 C 67.6875 -28.140625 68.5625 -33.101562 68.5625 -38.46875 C 68.5625 -40.96875 68.078125 -43.179688 67.109375 -45.109375 C 66.148438 -47.035156 64.628906 -48.992188 62.546875 -50.984375 C 58.535156 -54.679688 56.53125 -59.238281 56.53125 -64.65625 C 56.53125 -69.039062 57.832031 -72.546875 60.4375 -75.171875 C 63.039062 -77.804688 66.429688 -79.125 70.609375 -79.125 C 75.085938 -79.125 78.601562 -77.363281 81.15625 -73.84375 C 83.707031 -70.320312 84.984375 -65.515625 84.984375 -59.421875 Z M 84.984375 -59.421875 "/></g></g></g><g fill="#473c33" fill-opacity="1"><g transform="translate(646.514296, 371.820809)"><g><path d="M 69.96875 1.40625 C 59.96875 1.40625 53.507812 -2.265625 50.59375 -9.609375 L 50.125 -9.609375 C 45.945312 -5.285156 42.070312 -2.195312 38.5 -0.34375 C 34.9375 1.5 31.429688 2.421875 27.984375 2.421875 C 20.691406 2.421875 15 -0.0234375 10.90625 -4.921875 C 6.8125 -9.828125 4.765625 -16.992188 4.765625 -26.421875 C 4.765625 -35.910156 6.65625 -44.734375 10.4375 -52.890625 C 14.21875 -61.046875 19.40625 -67.484375 26 -72.203125 C 32.59375 -76.921875 39.71875 -79.28125 47.375 -79.28125 C 50.820312 -79.28125 54.082031 -78.71875 57.15625 -77.59375 C 60.226562 -76.476562 62.625 -75.007812 64.34375 -73.1875 L 88.1875 -78.109375 L 89.515625 -76.703125 L 78.5 -29.15625 C 77.195312 -24.257812 76.546875 -20.09375 76.546875 -16.65625 C 76.546875 -14.257812 77.039062 -12.484375 78.03125 -11.328125 C 79.019531 -10.179688 80.816406 -9.609375 83.421875 -9.609375 C 84.828125 -9.609375 86.492188 -9.859375 88.421875 -10.359375 C 90.359375 -10.859375 91.898438 -11.421875 93.046875 -12.046875 L 91.5625 -4.453125 C 83.53125 -0.546875 76.332031 1.40625 69.96875 1.40625 Z M 59.890625 -61.453125 C 59.890625 -64.316406 59.238281 -66.753906 57.9375 -68.765625 C 56.632812 -70.773438 54.835938 -71.78125 52.546875 -71.78125 C 49.671875 -71.78125 46.757812 -69.550781 43.8125 -65.09375 C 40.875 -60.632812 38.335938 -54.546875 36.203125 -46.828125 C 34.066406 -39.117188 33 -32.160156 33 -25.953125 C 33 -20.898438 33.519531 -16.9375 34.5625 -14.0625 C 35.601562 -11.195312 37.53125 -9.765625 40.34375 -9.765625 C 43.101562 -9.765625 46.253906 -12.0625 49.796875 -16.65625 Z M 90.765625 -105.390625 C 90.765625 -101.953125 89.578125 -98.957031 87.203125 -96.40625 C 84.835938 -93.851562 81.960938 -92.578125 78.578125 -92.578125 C 75.234375 -92.578125 72.347656 -93.8125 69.921875 -96.28125 C 67.503906 -98.757812 66.296875 -101.796875 66.296875 -105.390625 C 66.296875 -109.046875 67.503906 -112.109375 69.921875 -114.578125 C 72.347656 -117.054688 75.234375 -118.296875 78.578125 -118.296875 C 81.960938 -118.296875 84.835938 -117.019531 87.203125 -114.46875 C 89.578125 -111.914062 90.765625 -108.890625 90.765625 -105.390625 Z M 55.34375 -105.390625 C 55.34375 -101.898438 54.171875 -98.890625 51.828125 -96.359375 C 49.484375 -93.835938 46.617188 -92.578125 43.234375 -92.578125 C 39.742188 -92.578125 36.8125 -93.851562 34.4375 -96.40625 C 32.0625 -98.957031 30.875 -101.953125 30.875 -105.390625 C 30.875 -108.835938 32.046875 -111.847656 34.390625 -114.421875 C 36.742188 -117.003906 39.691406 -118.296875 43.234375 -118.296875 C 46.617188 -118.296875 49.484375 -117.03125 51.828125 -114.5 C 54.171875 -111.976562 55.34375 -108.941406 55.34375 -105.390625 Z M 55.34375 -105.390625 "/></g></g></g><g fill="#473c33" fill-opacity="1"><g transform="translate(741.974206, 371.820809)"><g><path d="M 69.96875 1.40625 C 59.96875 1.40625 53.507812 -2.265625 50.59375 -9.609375 L 50.125 -9.609375 C 45.945312 -5.285156 42.070312 -2.195312 38.5 -0.34375 C 34.9375 1.5 31.429688 2.421875 27.984375 2.421875 C 20.691406 2.421875 15 -0.0234375 10.90625 -4.921875 C 6.8125 -9.828125 4.765625 -16.992188 4.765625 -26.421875 C 4.765625 -35.910156 6.65625 -44.734375 10.4375 -52.890625 C 14.21875 -61.046875 19.40625 -67.484375 26 -72.203125 C 32.59375 -76.921875 39.71875 -79.28125 47.375 -79.28125 C 50.820312 -79.28125 54.082031 -78.71875 57.15625 -77.59375 C 60.226562 -76.476562 62.625 -75.007812 64.34375 -73.1875 L 88.1875 -78.109375 L 89.515625 -76.703125 L 78.5 -29.15625 C 77.195312 -24.257812 76.546875 -20.09375 76.546875 -16.65625 C 76.546875 -14.257812 77.039062 -12.484375 78.03125 -11.328125 C 79.019531 -10.179688 80.816406 -9.609375 83.421875 -9.609375 C 84.828125 -9.609375 86.492188 -9.859375 88.421875 -10.359375 C 90.359375 -10.859375 91.898438 -11.421875 93.046875 -12.046875 L 91.5625 -4.453125 C 83.53125 -0.546875 76.332031 1.40625 69.96875 1.40625 Z M 59.890625 -61.453125 C 59.890625 -64.316406 59.238281 -66.753906 57.9375 -68.765625 C 56.632812 -70.773438 54.835938 -71.78125 52.546875 -71.78125 C 49.671875 -71.78125 46.757812 -69.550781 43.8125 -65.09375 C 40.875 -60.632812 38.335938 -54.546875 36.203125 -46.828125 C 34.066406 -39.117188 33 -32.160156 33 -25.953125 C 33 -20.898438 33.519531 -16.9375 34.5625 -14.0625 C 35.601562 -11.195312 37.53125 -9.765625 40.34375 -9.765625 C 43.101562 -9.765625 46.253906 -12.0625 49.796875 -16.65625 Z M 90.765625 -105.390625 C 90.765625 -101.953125 89.578125 -98.957031 87.203125 -96.40625 C 84.835938 -93.851562 81.960938 -92.578125 78.578125 -92.578125 C 75.234375 -92.578125 72.347656 -93.8125 69.921875 -96.28125 C 67.503906 -98.757812 66.296875 -101.796875 66.296875 -105.390625 C 66.296875 -109.046875 67.503906 -112.109375 69.921875 -114.578125 C 72.347656 -117.054688 75.234375 -118.296875 78.578125 -118.296875 C 81.960938 -118.296875 84.835938 -117.019531 87.203125 -114.46875 C 89.578125 -111.914062 90.765625 -108.890625 90.765625 -105.390625 Z M 55.34375 -105.390625 C 55.34375 -101.898438 54.171875 -98.890625 51.828125 -96.359375 C 49.484375 -93.835938 46.617188 -92.578125 43.234375 -92.578125 C 39.742188 -92.578125 36.8125 -93.851562 34.4375 -96.40625 C 32.0625 -98.957031 30.875 -101.953125 30.875 -105.390625 C 30.875 -108.835938 32.046875 -111.847656 34.390625 -114.421875 C 36.742188 -117.003906 39.691406 -118.296875 43.234375 -118.296875 C 46.617188 -118.296875 49.484375 -117.03125 51.828125 -114.5 C 54.171875 -111.976562 55.34375 -108.941406 55.34375 -105.390625 Z M 55.34375 -105.390625 "/></g></g></g></g></g></svg>