<svg xmlns="http://www.w3.org/2000/svg" xmlns:xlink="http://www.w3.org/1999/xlink" width="2000" zoomAndPan="magnify" viewBox="0 0 1500 1499.999933" height="2000" preserveAspectRatio="xMidYMid meet" version="1.0"><path fill="#000000" d="M 1066.570312 1066.546875 C 1162.605469 1078.484375 1262.964844 1047.582031 1336.648438 973.851562 C 1463.585938 846.914062 1463.585938 641.089844 1336.648438 514.15625 C 1266.355469 443.859375 1171.792969 412.46875 1079.882812 420.082031 C 1087.449219 328.175781 1056.105469 233.660156 985.8125 163.316406 C 858.878906 36.382812 653.050781 36.382812 526.117188 163.316406 C 452.382812 237.050781 421.484375 337.359375 433.421875 433.394531 C 337.382812 421.507812 237.027344 452.40625 163.339844 526.140625 C 36.40625 653.074219 36.40625 858.902344 163.339844 985.835938 C 233.636719 1056.132812 328.199219 1087.519531 420.109375 1079.90625 C 412.542969 1171.816406 443.882812 1266.328125 514.179688 1336.675781 C 641.113281 1463.609375 846.941406 1463.609375 973.875 1336.675781 C 1047.558594 1262.941406 1078.457031 1162.582031 1066.570312 1066.546875 Z M 1066.570312 1066.546875 " fill-opacity="1" fill-rule="nonzero"/></svg>