<svg xmlns="http://www.w3.org/2000/svg" xmlns:xlink="http://www.w3.org/1999/xlink" width="2000" zoomAndPan="magnify" viewBox="0 0 1500 1499.999933" height="2000" preserveAspectRatio="xMidYMid meet" version="1.0"><defs><g/><clipPath id="dbbf900bc6"><path d="M 24 593.929688 L 1476 593.929688 L 1476 905.929688 L 24 905.929688 Z M 24 593.929688 " clip-rule="nonzero"/></clipPath><clipPath id="5d8121d5ba"><rect x="0" width="1298" y="0" height="242"/></clipPath></defs><g clip-path="url(#dbbf900bc6)"><path fill="#efe7d2" d="M 1475.863281 690.902344 C 1475.863281 637.304688 1432.394531 593.835938 1378.796875 593.835938 C 1351.332031 593.835938 1326.597656 605.265625 1308.941406 623.585938 C 1291.285156 605.265625 1266.550781 593.835938 1239.085938 593.835938 C 1211.621094 593.835938 1186.882812 605.265625 1169.230469 623.585938 C 1151.574219 605.265625 1126.839844 593.835938 1099.375 593.835938 C 1071.90625 593.835938 1047.171875 605.265625 1029.519531 623.585938 C 1011.863281 605.265625 987.128906 593.835938 959.660156 593.835938 C 932.195312 593.835938 907.460938 605.265625 889.804688 623.585938 C 872.152344 605.265625 847.414062 593.835938 819.949219 593.835938 C 792.484375 593.835938 767.75 605.265625 750.09375 623.585938 C 732.441406 605.265625 707.703125 593.835938 680.238281 593.835938 C 652.773438 593.835938 628.035156 605.265625 610.382812 623.585938 C 592.726562 605.265625 567.992188 593.835938 540.527344 593.835938 C 513.058594 593.835938 488.324219 605.265625 470.671875 623.585938 C 453.015625 605.265625 428.28125 593.835938 400.816406 593.835938 C 373.347656 593.835938 348.613281 605.265625 330.957031 623.585938 C 313.304688 605.265625 288.570312 593.835938 261.101562 593.835938 C 233.636719 593.835938 208.902344 605.265625 191.246094 623.585938 C 173.71875 605.265625 148.984375 593.835938 121.519531 593.835938 C 67.917969 593.835938 24.449219 637.304688 24.449219 690.902344 C 24.449219 713.097656 31.976562 733.484375 44.519531 749.835938 C 31.976562 766.1875 24.449219 786.574219 24.449219 808.769531 C 24.449219 862.367188 67.917969 905.835938 121.519531 905.835938 C 148.984375 905.835938 173.71875 894.40625 191.375 876.085938 C 209.027344 894.40625 233.765625 905.835938 261.230469 905.835938 C 288.695312 905.835938 313.429688 894.40625 331.085938 876.085938 C 348.742188 894.40625 373.476562 905.835938 400.941406 905.835938 C 428.40625 905.835938 453.144531 894.40625 470.796875 876.085938 C 488.453125 894.40625 513.1875 905.835938 540.652344 905.835938 C 568.121094 905.835938 592.855469 894.40625 610.507812 876.085938 C 628.164062 894.40625 652.898438 905.835938 680.367188 905.835938 C 707.832031 905.835938 732.566406 894.40625 750.222656 876.085938 C 767.875 894.40625 792.609375 905.835938 820.078125 905.835938 C 847.542969 905.835938 872.277344 894.40625 889.933594 876.085938 C 907.585938 894.40625 932.324219 905.835938 959.789062 905.835938 C 987.253906 905.835938 1011.992188 894.40625 1029.644531 876.085938 C 1047.300781 894.40625 1072.035156 905.835938 1099.5 905.835938 C 1126.964844 905.835938 1151.703125 894.40625 1169.355469 876.085938 C 1187.011719 894.40625 1211.746094 905.835938 1239.210938 905.835938 C 1266.679688 905.835938 1291.414062 894.40625 1309.070312 876.085938 C 1326.722656 894.40625 1351.457031 905.835938 1378.925781 905.835938 C 1432.523438 905.835938 1475.992188 862.367188 1475.992188 808.769531 C 1475.992188 786.574219 1468.46875 766.1875 1455.925781 749.835938 C 1468.46875 733.484375 1475.992188 713.097656 1475.992188 690.902344 Z M 1475.863281 690.902344 " fill-opacity="1" fill-rule="nonzero"/></g><g transform="matrix(1, 0, 0, 1, 101, 629)"><g clip-path="url(#5d8121d5ba)"><g fill="#ac9051" fill-opacity="1"><g transform="translate(0.139951, 194.835831)"><g><path d="M 88.390625 -104.921875 C 97.617188 -104.921875 104.832031 -101.457031 110.03125 -94.53125 C 115.226562 -87.613281 117.828125 -77.890625 117.828125 -65.359375 C 117.828125 -52.347656 115.207031 -40.578125 109.96875 -30.046875 C 104.738281 -19.515625 97.390625 -11.304688 87.921875 -5.421875 C 78.460938 0.460938 67.640625 3.40625 55.453125 3.40625 C 45.054688 3.40625 35.796875 1.410156 27.671875 -2.578125 C 19.546875 -6.578125 13.554688 -11.984375 9.703125 -18.796875 L 34.796875 -130.53125 C 35.554688 -133.832031 35.9375 -136.132812 35.9375 -137.4375 C 35.9375 -139.988281 35.398438 -142.054688 34.328125 -143.640625 C 33.265625 -145.222656 31.679688 -146.441406 29.578125 -147.296875 C 27.484375 -148.160156 23.890625 -148.832031 18.796875 -149.3125 L 20.96875 -157.171875 L 74.25 -159.859375 L 75.484375 -158.203125 L 60.3125 -91.59375 L 61.125 -91.59375 C 66.019531 -96.476562 70.632812 -99.921875 74.96875 -101.921875 C 79.300781 -103.921875 83.773438 -104.921875 88.390625 -104.921875 Z M 80.34375 -67.015625 C 80.34375 -81.398438 77.035156 -88.59375 70.421875 -88.59375 C 66.640625 -88.59375 62.40625 -85.5 57.71875 -79.3125 L 44.203125 -16.9375 C 44.335938 -13.695312 45.265625 -10.941406 46.984375 -8.671875 C 48.703125 -6.398438 51.210938 -5.265625 54.515625 -5.265625 C 58.722656 -5.265625 62.820312 -8.363281 66.8125 -14.5625 C 70.800781 -20.757812 74.050781 -28.914062 76.5625 -39.03125 C 79.082031 -49.15625 80.34375 -58.484375 80.34375 -67.015625 Z M 80.34375 -67.015625 "/></g></g></g><g fill="#ac9051" fill-opacity="1"><g transform="translate(105.225082, 194.835831)"><g><path d="M 106.15625 -82.71875 C 106.15625 -75.757812 104.328125 -70.023438 100.671875 -65.515625 C 97.023438 -61.003906 92.175781 -58.75 86.125 -58.75 C 81.375 -58.75 77.566406 -59.988281 74.703125 -62.46875 C 71.847656 -64.945312 70.421875 -68.015625 70.421875 -71.671875 C 70.421875 -77.304688 71.898438 -83.085938 74.859375 -89.015625 C 69.765625 -87.222656 64.257812 -81.882812 58.34375 -73 L 42.34375 0 L 7.84375 0 L 21.78125 -62.984375 C 23.300781 -69.804688 24.0625 -74.972656 24.0625 -78.484375 C 24.0625 -81.859375 23.457031 -84.382812 22.25 -86.0625 C 21.050781 -87.75 18.867188 -88.59375 15.703125 -88.59375 C 11.429688 -88.59375 7.195312 -87.597656 3 -85.609375 L 5.265625 -95.625 C 17.035156 -100.988281 27.050781 -103.671875 35.3125 -103.671875 C 42.0625 -103.671875 47.3125 -102.273438 51.0625 -99.484375 C 54.8125 -96.703125 57.582031 -91.9375 59.375 -85.1875 L 60.09375 -85.1875 C 65.1875 -92.070312 69.9375 -97.082031 74.34375 -100.21875 C 78.75 -103.351562 83.429688 -104.921875 88.390625 -104.921875 C 93.828125 -104.921875 98.144531 -102.972656 101.34375 -99.078125 C 104.550781 -95.191406 106.15625 -89.738281 106.15625 -82.71875 Z M 106.15625 -82.71875 "/></g></g></g><g fill="#ac9051" fill-opacity="1"><g transform="translate(193.168188, 194.835831)"><g><path d="M 92.421875 1.859375 C 79.203125 1.859375 70.664062 -2.992188 66.8125 -12.703125 L 66.1875 -12.703125 C 60.6875 -6.984375 55.578125 -2.898438 50.859375 -0.453125 C 46.140625 1.984375 41.507812 3.203125 36.96875 3.203125 C 27.332031 3.203125 19.8125 -0.03125 14.40625 -6.5 C 9 -12.976562 6.296875 -22.445312 6.296875 -34.90625 C 6.296875 -47.4375 8.789062 -59.085938 13.78125 -69.859375 C 18.769531 -80.628906 25.617188 -89.128906 34.328125 -95.359375 C 43.035156 -101.585938 52.453125 -104.703125 62.578125 -104.703125 C 67.117188 -104.703125 71.421875 -103.960938 75.484375 -102.484375 C 79.546875 -101.003906 82.710938 -99.0625 84.984375 -96.65625 L 116.484375 -103.15625 L 118.234375 -101.296875 L 103.671875 -38.515625 C 101.953125 -32.046875 101.09375 -26.539062 101.09375 -22 C 101.09375 -18.832031 101.742188 -16.488281 103.046875 -14.96875 C 104.359375 -13.457031 106.738281 -12.703125 110.1875 -12.703125 C 112.039062 -12.703125 114.238281 -13.023438 116.78125 -13.671875 C 119.332031 -14.328125 121.367188 -15.070312 122.890625 -15.90625 L 120.921875 -5.890625 C 110.316406 -0.722656 100.816406 1.859375 92.421875 1.859375 Z M 79.09375 -81.171875 C 79.09375 -84.953125 78.234375 -88.164062 76.515625 -90.8125 C 74.796875 -93.46875 72.421875 -94.796875 69.390625 -94.796875 C 65.609375 -94.796875 61.769531 -91.851562 57.875 -85.96875 C 53.988281 -80.082031 50.632812 -72.046875 47.8125 -61.859375 C 44.988281 -51.671875 43.578125 -42.476562 43.578125 -34.28125 C 43.578125 -27.601562 44.265625 -22.367188 45.640625 -18.578125 C 47.015625 -14.796875 49.5625 -12.90625 53.28125 -12.90625 C 56.925781 -12.90625 61.09375 -15.9375 65.78125 -22 Z M 119.890625 -139.203125 C 119.890625 -134.660156 118.320312 -130.703125 115.1875 -127.328125 C 112.050781 -123.953125 108.25 -122.265625 103.78125 -122.265625 C 99.375 -122.265625 95.566406 -123.898438 92.359375 -127.171875 C 89.160156 -130.441406 87.5625 -134.453125 87.5625 -139.203125 C 87.5625 -144.015625 89.160156 -148.054688 92.359375 -151.328125 C 95.566406 -154.597656 99.375 -156.234375 103.78125 -156.234375 C 108.25 -156.234375 112.050781 -154.546875 115.1875 -151.171875 C 118.320312 -147.804688 119.890625 -143.816406 119.890625 -139.203125 Z M 73.109375 -139.203125 C 73.109375 -134.585938 71.554688 -130.609375 68.453125 -127.265625 C 65.359375 -123.929688 61.578125 -122.265625 57.109375 -122.265625 C 52.492188 -122.265625 48.617188 -123.953125 45.484375 -127.328125 C 42.347656 -130.703125 40.78125 -134.660156 40.78125 -139.203125 C 40.78125 -143.742188 42.328125 -147.71875 45.421875 -151.125 C 48.523438 -154.53125 52.421875 -156.234375 57.109375 -156.234375 C 61.578125 -156.234375 65.359375 -154.5625 68.453125 -151.21875 C 71.554688 -147.882812 73.109375 -143.878906 73.109375 -139.203125 Z M 73.109375 -139.203125 "/></g></g></g><g fill="#ac9051" fill-opacity="1"><g transform="translate(300.008828, 194.835831)"><g><path d="M 70.84375 -20.546875 C 70.84375 -26.671875 72.769531 -36.789062 76.625 -50.90625 C 80.40625 -64.945312 82.296875 -73.863281 82.296875 -77.65625 C 82.296875 -80.820312 81.625 -83.160156 80.28125 -84.671875 C 78.945312 -86.191406 77.210938 -86.953125 75.078125 -86.953125 C 72.941406 -86.953125 70.441406 -86.054688 67.578125 -84.265625 C 64.722656 -82.472656 61.78125 -79.203125 58.75 -74.453125 L 42.546875 0 L 7.640625 0 L 21.171875 -60.515625 C 23.097656 -69.046875 24.0625 -75.238281 24.0625 -79.09375 C 24.0625 -82.257812 23.492188 -84.632812 22.359375 -86.21875 C 21.222656 -87.800781 19.003906 -88.59375 15.703125 -88.59375 C 11.835938 -88.59375 7.601562 -87.597656 3 -85.609375 L 5.46875 -95.625 C 10.15625 -97.757812 14.820312 -99.632812 19.46875 -101.25 C 24.113281 -102.863281 28.914062 -103.671875 33.875 -103.671875 C 40.957031 -103.671875 46.53125 -102.296875 50.59375 -99.546875 C 54.65625 -96.796875 57.6875 -92.007812 59.6875 -85.1875 L 60.3125 -85.1875 C 65.8125 -91.800781 71.609375 -96.742188 77.703125 -100.015625 C 83.796875 -103.285156 89.972656 -104.921875 96.234375 -104.921875 C 102.578125 -104.921875 107.726562 -102.851562 111.6875 -98.71875 C 115.644531 -94.59375 117.625 -89.394531 117.625 -83.125 C 117.625 -77.894531 116.898438 -72.664062 115.453125 -67.4375 L 108.125 -38.9375 C 106.394531 -33.082031 105.53125 -27.640625 105.53125 -22.609375 C 105.53125 -19.304688 106.253906 -16.929688 107.703125 -15.484375 C 109.148438 -14.046875 111.523438 -13.328125 114.828125 -13.328125 C 117.441406 -13.328125 121.609375 -14.320312 127.328125 -16.3125 L 124.953125 -6.09375 C 120.066406 -3.882812 115.296875 -2.039062 110.640625 -0.5625 C 105.992188 0.914062 101.191406 1.65625 96.234375 1.65625 C 88.460938 1.65625 82.285156 -0.390625 77.703125 -4.484375 C 73.128906 -8.585938 70.84375 -13.941406 70.84375 -20.546875 Z M 70.84375 -20.546875 "/></g></g></g><g fill="#ac9051" fill-opacity="1"><g transform="translate(410.567015, 194.835831)"><g><path d="M 101.296875 -22.203125 C 101.296875 -18.617188 101.984375 -16.171875 103.359375 -14.859375 C 104.742188 -13.554688 107.019531 -12.90625 110.1875 -12.90625 C 111.5625 -12.90625 113.363281 -13.210938 115.59375 -13.828125 C 117.832031 -14.453125 119.847656 -15.144531 121.640625 -15.90625 L 119.6875 -5.890625 C 108.945312 -0.585938 99.445312 2.0625 91.1875 2.0625 C 84.507812 2.0625 79.257812 0.804688 75.4375 -1.703125 C 71.613281 -4.210938 68.804688 -8.015625 67.015625 -13.109375 L 66.609375 -13.109375 C 62.066406 -8.015625 57.265625 -4.019531 52.203125 -1.125 C 47.140625 1.757812 42.128906 3.203125 37.171875 3.203125 C 27.265625 3.203125 19.675781 -0.164062 14.40625 -6.90625 C 9.132812 -13.65625 6.5 -23.125 6.5 -35.3125 C 6.5 -47.769531 9.007812 -59.382812 14.03125 -70.15625 C 19.0625 -80.9375 25.84375 -89.425781 34.375 -95.625 C 42.914062 -101.820312 51.90625 -104.921875 61.34375 -104.921875 C 70.84375 -104.921875 78.035156 -102.300781 82.921875 -97.0625 L 90.5625 -130.9375 C 91.113281 -132.800781 91.390625 -134.765625 91.390625 -136.828125 C 91.390625 -140.546875 90.046875 -143.421875 87.359375 -145.453125 C 84.671875 -147.484375 80.160156 -148.769531 73.828125 -149.3125 L 75.28125 -157.171875 L 129.796875 -159.859375 L 131.140625 -158.203125 L 103.890625 -38.71875 C 102.160156 -31.007812 101.296875 -25.503906 101.296875 -22.203125 Z M 79.09375 -81.890625 C 79.09375 -86.015625 78.210938 -89.226562 76.453125 -91.53125 C 74.703125 -93.84375 72.347656 -95 69.390625 -95 C 65.191406 -95 61.09375 -91.988281 57.09375 -85.96875 C 53.101562 -79.945312 49.882812 -72.285156 47.4375 -62.984375 C 45 -53.691406 43.78125 -44.398438 43.78125 -35.109375 C 43.78125 -20.304688 46.878906 -12.90625 53.078125 -12.90625 C 55.140625 -12.90625 57.269531 -13.726562 59.46875 -15.375 C 61.675781 -17.03125 63.78125 -19.375 65.78125 -22.40625 Z M 79.09375 -81.890625 "/></g></g></g><g fill="#ac9051" fill-opacity="1"><g transform="translate(516.478268, 194.835831)"><g><path d="M 73 -140.4375 C 73 -135.070312 71.035156 -130.53125 67.109375 -126.8125 C 63.191406 -123.09375 58.378906 -121.234375 52.671875 -121.234375 C 46.953125 -121.234375 42.128906 -123.070312 38.203125 -126.75 C 34.285156 -130.4375 32.328125 -135.066406 32.328125 -140.640625 C 32.328125 -146.078125 34.285156 -150.671875 38.203125 -154.421875 C 42.128906 -158.179688 46.953125 -160.0625 52.671875 -160.0625 C 58.171875 -160.0625 62.929688 -158.148438 66.953125 -154.328125 C 70.984375 -150.503906 73 -145.875 73 -140.4375 Z M 39.96875 2.578125 C 22.207031 2.578125 13.328125 -5.128906 13.328125 -20.546875 C 13.328125 -26.742188 14.390625 -33.628906 16.515625 -41.203125 L 22.40625 -64.125 C 24.125 -70.800781 24.984375 -76.34375 24.984375 -80.75 C 24.984375 -84.257812 24.175781 -86.617188 22.5625 -87.828125 C 20.945312 -89.035156 18.414062 -89.640625 14.96875 -89.640625 C 12.289062 -89.640625 8.78125 -88.945312 4.4375 -87.5625 L 6.8125 -97.484375 C 13.144531 -100.367188 18.148438 -102.289062 21.828125 -103.25 C 25.515625 -104.21875 29.21875 -104.703125 32.9375 -104.703125 C 41.75 -104.703125 48.320312 -102.722656 52.65625 -98.765625 C 57 -94.804688 59.171875 -89.179688 59.171875 -81.890625 C 59.171875 -75.691406 58.140625 -68.632812 56.078125 -60.71875 L 49.875 -37.890625 C 48.363281 -30.734375 47.609375 -25.226562 47.609375 -21.375 C 47.609375 -18.132812 48.3125 -15.773438 49.71875 -14.296875 C 51.132812 -12.816406 53.390625 -12.078125 56.484375 -12.078125 C 60.546875 -12.078125 64.847656 -12.972656 69.390625 -14.765625 L 67.015625 -4.640625 C 62.546875 -2.710938 58.109375 -1.03125 53.703125 0.40625 C 49.296875 1.851562 44.71875 2.578125 39.96875 2.578125 Z M 39.96875 2.578125 "/></g></g></g><g fill="#ac9051" fill-opacity="1"><g transform="translate(569.311202, 194.835831)"><g/></g></g><g fill="#ac9051" fill-opacity="1"><g transform="translate(602.523779, 194.835831)"><g><path d="M 133.421875 -86.953125 C 129.015625 -86.953125 123.609375 -82.785156 117.203125 -74.453125 L 100.6875 0 L 66.1875 0 L 79.921875 -62.171875 C 81.503906 -70.429688 82.296875 -75.351562 82.296875 -76.9375 C 82.296875 -79.820312 81.742188 -82.210938 80.640625 -84.109375 C 79.546875 -86.003906 77.828125 -86.953125 75.484375 -86.953125 C 70.523438 -86.953125 64.945312 -82.851562 58.75 -74.65625 L 42.34375 0 L 7.84375 0 L 21.78125 -62.984375 C 23.507812 -70.765625 24.375 -76.132812 24.375 -79.09375 C 24.375 -82.40625 23.753906 -84.816406 22.515625 -86.328125 C 21.273438 -87.835938 19.003906 -88.59375 15.703125 -88.59375 C 11.566406 -88.59375 7.398438 -87.597656 3.203125 -85.609375 L 5.46875 -95.828125 C 16.96875 -101.054688 26.4375 -103.671875 33.875 -103.671875 C 41.03125 -103.671875 46.640625 -102.273438 50.703125 -99.484375 C 54.765625 -96.703125 57.65625 -91.9375 59.375 -85.1875 L 60.09375 -85.1875 C 67.875 -93.3125 74.171875 -98.628906 78.984375 -101.140625 C 83.804688 -103.660156 89.144531 -104.921875 95 -104.921875 C 101.269531 -104.921875 106.429688 -103.039062 110.484375 -99.28125 C 114.546875 -95.53125 116.785156 -90.765625 117.203125 -84.984375 L 118.03125 -84.984375 C 126.5 -93.316406 133.125 -98.722656 137.90625 -101.203125 C 142.6875 -103.679688 148.039062 -104.921875 153.96875 -104.921875 C 160.363281 -104.921875 165.488281 -102.890625 169.34375 -98.828125 C 173.207031 -94.765625 175.140625 -89.597656 175.140625 -83.328125 C 175.140625 -78.304688 174.273438 -72.664062 172.546875 -66.40625 L 165.640625 -38.9375 C 163.910156 -31.632812 163.046875 -26.191406 163.046875 -22.609375 C 163.046875 -19.304688 163.769531 -16.929688 165.21875 -15.484375 C 166.664062 -14.046875 169.039062 -13.328125 172.34375 -13.328125 C 174.957031 -13.328125 179.125 -14.320312 184.84375 -16.3125 L 182.46875 -6.09375 C 177.582031 -3.882812 172.8125 -2.039062 168.15625 -0.5625 C 163.507812 0.914062 158.710938 1.65625 153.765625 1.65625 C 145.984375 1.65625 139.800781 -0.390625 135.21875 -4.484375 C 130.644531 -8.585938 128.359375 -13.941406 128.359375 -20.546875 C 128.359375 -25.921875 129.148438 -31.328125 130.734375 -36.765625 L 137.4375 -62.984375 C 139.019531 -69.316406 139.8125 -74.140625 139.8125 -77.453125 C 139.8125 -83.785156 137.679688 -86.953125 133.421875 -86.953125 Z M 133.421875 -86.953125 "/></g></g></g><g fill="#ac9051" fill-opacity="1"><g transform="translate(770.394126, 194.835831)"><g><path d="M 73 -140.4375 C 73 -135.070312 71.035156 -130.53125 67.109375 -126.8125 C 63.191406 -123.09375 58.378906 -121.234375 52.671875 -121.234375 C 46.953125 -121.234375 42.128906 -123.070312 38.203125 -126.75 C 34.285156 -130.4375 32.328125 -135.066406 32.328125 -140.640625 C 32.328125 -146.078125 34.285156 -150.671875 38.203125 -154.421875 C 42.128906 -158.179688 46.953125 -160.0625 52.671875 -160.0625 C 58.171875 -160.0625 62.929688 -158.148438 66.953125 -154.328125 C 70.984375 -150.503906 73 -145.875 73 -140.4375 Z M 39.96875 2.578125 C 22.207031 2.578125 13.328125 -5.128906 13.328125 -20.546875 C 13.328125 -26.742188 14.390625 -33.628906 16.515625 -41.203125 L 22.40625 -64.125 C 24.125 -70.800781 24.984375 -76.34375 24.984375 -80.75 C 24.984375 -84.257812 24.175781 -86.617188 22.5625 -87.828125 C 20.945312 -89.035156 18.414062 -89.640625 14.96875 -89.640625 C 12.289062 -89.640625 8.78125 -88.945312 4.4375 -87.5625 L 6.8125 -97.484375 C 13.144531 -100.367188 18.148438 -102.289062 21.828125 -103.25 C 25.515625 -104.21875 29.21875 -104.703125 32.9375 -104.703125 C 41.75 -104.703125 48.320312 -102.722656 52.65625 -98.765625 C 57 -94.804688 59.171875 -89.179688 59.171875 -81.890625 C 59.171875 -75.691406 58.140625 -68.632812 56.078125 -60.71875 L 49.875 -37.890625 C 48.363281 -30.734375 47.609375 -25.226562 47.609375 -21.375 C 47.609375 -18.132812 48.3125 -15.773438 49.71875 -14.296875 C 51.132812 -12.816406 53.390625 -12.078125 56.484375 -12.078125 C 60.546875 -12.078125 64.847656 -12.972656 69.390625 -14.765625 L 67.015625 -4.640625 C 62.546875 -2.710938 58.109375 -1.03125 53.703125 0.40625 C 49.296875 1.851562 44.71875 2.578125 39.96875 2.578125 Z M 39.96875 2.578125 "/></g></g></g><g fill="#ac9051" fill-opacity="1"><g transform="translate(823.227028, 194.835831)"><g><path d="M 70.84375 -20.546875 C 70.84375 -26.671875 72.769531 -36.789062 76.625 -50.90625 C 80.40625 -64.945312 82.296875 -73.863281 82.296875 -77.65625 C 82.296875 -80.820312 81.625 -83.160156 80.28125 -84.671875 C 78.945312 -86.191406 77.210938 -86.953125 75.078125 -86.953125 C 72.941406 -86.953125 70.441406 -86.054688 67.578125 -84.265625 C 64.722656 -82.472656 61.78125 -79.203125 58.75 -74.453125 L 42.546875 0 L 7.640625 0 L 21.171875 -60.515625 C 23.097656 -69.046875 24.0625 -75.238281 24.0625 -79.09375 C 24.0625 -82.257812 23.492188 -84.632812 22.359375 -86.21875 C 21.222656 -87.800781 19.003906 -88.59375 15.703125 -88.59375 C 11.835938 -88.59375 7.601562 -87.597656 3 -85.609375 L 5.46875 -95.625 C 10.15625 -97.757812 14.820312 -99.632812 19.46875 -101.25 C 24.113281 -102.863281 28.914062 -103.671875 33.875 -103.671875 C 40.957031 -103.671875 46.53125 -102.296875 50.59375 -99.546875 C 54.65625 -96.796875 57.6875 -92.007812 59.6875 -85.1875 L 60.3125 -85.1875 C 65.8125 -91.800781 71.609375 -96.742188 77.703125 -100.015625 C 83.796875 -103.285156 89.972656 -104.921875 96.234375 -104.921875 C 102.578125 -104.921875 107.726562 -102.851562 111.6875 -98.71875 C 115.644531 -94.59375 117.625 -89.394531 117.625 -83.125 C 117.625 -77.894531 116.898438 -72.664062 115.453125 -67.4375 L 108.125 -38.9375 C 106.394531 -33.082031 105.53125 -27.640625 105.53125 -22.609375 C 105.53125 -19.304688 106.253906 -16.929688 107.703125 -15.484375 C 109.148438 -14.046875 111.523438 -13.328125 114.828125 -13.328125 C 117.441406 -13.328125 121.609375 -14.320312 127.328125 -16.3125 L 124.953125 -6.09375 C 120.066406 -3.882812 115.296875 -2.039062 110.640625 -0.5625 C 105.992188 0.914062 101.191406 1.65625 96.234375 1.65625 C 88.460938 1.65625 82.285156 -0.390625 77.703125 -4.484375 C 73.128906 -8.585938 70.84375 -13.941406 70.84375 -20.546875 Z M 70.84375 -20.546875 "/></g></g></g><g fill="#ac9051" fill-opacity="1"><g transform="translate(933.785247, 194.835831)"><g><path d="M 48.640625 -21.78125 C 48.640625 -18.269531 49.550781 -15.84375 51.375 -14.5 C 53.195312 -13.164062 56.035156 -12.5 59.890625 -12.5 C 62.234375 -12.5 65.039062 -12.925781 68.3125 -13.78125 C 71.582031 -14.644531 73.835938 -15.351562 75.078125 -15.90625 L 72.796875 -5.46875 C 66.054688 -2.238281 60.328125 -0.0546875 55.609375 1.078125 C 50.890625 2.210938 45.878906 2.78125 40.578125 2.78125 C 31.703125 2.78125 25.078125 0.753906 20.703125 -3.296875 C 16.328125 -7.359375 14.140625 -12.726562 14.140625 -19.40625 C 14.140625 -23.613281 14.863281 -29.191406 16.3125 -36.140625 L 28.296875 -89.421875 L 10.734375 -89.421875 L 13.109375 -100.265625 L 31.28125 -100.265625 L 38.515625 -131.5625 L 72.28125 -131.5625 L 65.359375 -100.265625 L 89.21875 -100.265625 L 87.15625 -89.421875 L 62.78125 -89.421875 L 51.015625 -36.5625 C 49.429688 -29.8125 48.640625 -24.882812 48.640625 -21.78125 Z M 48.640625 -21.78125 "/></g></g></g><g fill="#ac9051" fill-opacity="1"><g transform="translate(998.080652, 194.835831)"><g><path d="M 48.640625 -21.78125 C 48.640625 -18.269531 49.550781 -15.84375 51.375 -14.5 C 53.195312 -13.164062 56.035156 -12.5 59.890625 -12.5 C 62.234375 -12.5 65.039062 -12.925781 68.3125 -13.78125 C 71.582031 -14.644531 73.835938 -15.351562 75.078125 -15.90625 L 72.796875 -5.46875 C 66.054688 -2.238281 60.328125 -0.0546875 55.609375 1.078125 C 50.890625 2.210938 45.878906 2.78125 40.578125 2.78125 C 31.703125 2.78125 25.078125 0.753906 20.703125 -3.296875 C 16.328125 -7.359375 14.140625 -12.726562 14.140625 -19.40625 C 14.140625 -23.613281 14.863281 -29.191406 16.3125 -36.140625 L 28.296875 -89.421875 L 10.734375 -89.421875 L 13.109375 -100.265625 L 31.28125 -100.265625 L 38.515625 -131.5625 L 72.28125 -131.5625 L 65.359375 -100.265625 L 89.21875 -100.265625 L 87.15625 -89.421875 L 62.78125 -89.421875 L 51.015625 -36.5625 C 49.429688 -29.8125 48.640625 -24.882812 48.640625 -21.78125 Z M 48.640625 -21.78125 "/></g></g></g><g fill="#ac9051" fill-opacity="1"><g transform="translate(1062.375993, 194.835831)"><g><path d="M 73 -140.4375 C 73 -135.070312 71.035156 -130.53125 67.109375 -126.8125 C 63.191406 -123.09375 58.378906 -121.234375 52.671875 -121.234375 C 46.953125 -121.234375 42.128906 -123.070312 38.203125 -126.75 C 34.285156 -130.4375 32.328125 -135.066406 32.328125 -140.640625 C 32.328125 -146.078125 34.285156 -150.671875 38.203125 -154.421875 C 42.128906 -158.179688 46.953125 -160.0625 52.671875 -160.0625 C 58.171875 -160.0625 62.929688 -158.148438 66.953125 -154.328125 C 70.984375 -150.503906 73 -145.875 73 -140.4375 Z M 39.96875 2.578125 C 22.207031 2.578125 13.328125 -5.128906 13.328125 -20.546875 C 13.328125 -26.742188 14.390625 -33.628906 16.515625 -41.203125 L 22.40625 -64.125 C 24.125 -70.800781 24.984375 -76.34375 24.984375 -80.75 C 24.984375 -84.257812 24.175781 -86.617188 22.5625 -87.828125 C 20.945312 -89.035156 18.414062 -89.640625 14.96875 -89.640625 C 12.289062 -89.640625 8.78125 -88.945312 4.4375 -87.5625 L 6.8125 -97.484375 C 13.144531 -100.367188 18.148438 -102.289062 21.828125 -103.25 C 25.515625 -104.21875 29.21875 -104.703125 32.9375 -104.703125 C 41.75 -104.703125 48.320312 -102.722656 52.65625 -98.765625 C 57 -94.804688 59.171875 -89.179688 59.171875 -81.890625 C 59.171875 -75.691406 58.140625 -68.632812 56.078125 -60.71875 L 49.875 -37.890625 C 48.363281 -30.734375 47.609375 -25.226562 47.609375 -21.375 C 47.609375 -18.132812 48.3125 -15.773438 49.71875 -14.296875 C 51.132812 -12.816406 53.390625 -12.078125 56.484375 -12.078125 C 60.546875 -12.078125 64.847656 -12.972656 69.390625 -14.765625 L 67.015625 -4.640625 C 62.546875 -2.710938 58.109375 -1.03125 53.703125 0.40625 C 49.296875 1.851562 44.71875 2.578125 39.96875 2.578125 Z M 39.96875 2.578125 "/></g></g></g><g fill="#ac9051" fill-opacity="1"><g transform="translate(1115.208895, 194.835831)"><g><path d="M 73 -140.4375 C 73 -135.070312 71.035156 -130.53125 67.109375 -126.8125 C 63.191406 -123.09375 58.378906 -121.234375 52.671875 -121.234375 C 46.953125 -121.234375 42.128906 -123.070312 38.203125 -126.75 C 34.285156 -130.4375 32.328125 -135.066406 32.328125 -140.640625 C 32.328125 -146.078125 34.285156 -150.671875 38.203125 -154.421875 C 42.128906 -158.179688 46.953125 -160.0625 52.671875 -160.0625 C 58.171875 -160.0625 62.929688 -158.148438 66.953125 -154.328125 C 70.984375 -150.503906 73 -145.875 73 -140.4375 Z M 39.96875 2.578125 C 22.207031 2.578125 13.328125 -5.128906 13.328125 -20.546875 C 13.328125 -26.742188 14.390625 -33.628906 16.515625 -41.203125 L 22.40625 -64.125 C 24.125 -70.800781 24.984375 -76.34375 24.984375 -80.75 C 24.984375 -84.257812 24.175781 -86.617188 22.5625 -87.828125 C 20.945312 -89.035156 18.414062 -89.640625 14.96875 -89.640625 C 12.289062 -89.640625 8.78125 -88.945312 4.4375 -87.5625 L 6.8125 -97.484375 C 13.144531 -100.367188 18.148438 -102.289062 21.828125 -103.25 C 25.515625 -104.21875 29.21875 -104.703125 32.9375 -104.703125 C 41.75 -104.703125 48.320312 -102.722656 52.65625 -98.765625 C 57 -94.804688 59.171875 -89.179688 59.171875 -81.890625 C 59.171875 -75.691406 58.140625 -68.632812 56.078125 -60.71875 L 49.875 -37.890625 C 48.363281 -30.734375 47.609375 -25.226562 47.609375 -21.375 C 47.609375 -18.132812 48.3125 -15.773438 49.71875 -14.296875 C 51.132812 -12.816406 53.390625 -12.078125 56.484375 -12.078125 C 60.546875 -12.078125 64.847656 -12.972656 69.390625 -14.765625 L 67.015625 -4.640625 C 62.546875 -2.710938 58.109375 -1.03125 53.703125 0.40625 C 49.296875 1.851562 44.71875 2.578125 39.96875 2.578125 Z M 39.96875 2.578125 "/></g></g></g><g fill="#ac9051" fill-opacity="1"><g transform="translate(1168.041926, 194.835831)"><g><path d="M 70.84375 -20.546875 C 70.84375 -26.671875 72.769531 -36.789062 76.625 -50.90625 C 80.40625 -64.945312 82.296875 -73.863281 82.296875 -77.65625 C 82.296875 -80.820312 81.625 -83.160156 80.28125 -84.671875 C 78.945312 -86.191406 77.210938 -86.953125 75.078125 -86.953125 C 72.941406 -86.953125 70.441406 -86.054688 67.578125 -84.265625 C 64.722656 -82.472656 61.78125 -79.203125 58.75 -74.453125 L 42.546875 0 L 7.640625 0 L 21.171875 -60.515625 C 23.097656 -69.046875 24.0625 -75.238281 24.0625 -79.09375 C 24.0625 -82.257812 23.492188 -84.632812 22.359375 -86.21875 C 21.222656 -87.800781 19.003906 -88.59375 15.703125 -88.59375 C 11.835938 -88.59375 7.601562 -87.597656 3 -85.609375 L 5.46875 -95.625 C 10.15625 -97.757812 14.820312 -99.632812 19.46875 -101.25 C 24.113281 -102.863281 28.914062 -103.671875 33.875 -103.671875 C 40.957031 -103.671875 46.53125 -102.296875 50.59375 -99.546875 C 54.65625 -96.796875 57.6875 -92.007812 59.6875 -85.1875 L 60.3125 -85.1875 C 65.8125 -91.800781 71.609375 -96.742188 77.703125 -100.015625 C 83.796875 -103.285156 89.972656 -104.921875 96.234375 -104.921875 C 102.578125 -104.921875 107.726562 -102.851562 111.6875 -98.71875 C 115.644531 -94.59375 117.625 -89.394531 117.625 -83.125 C 117.625 -77.894531 116.898438 -72.664062 115.453125 -67.4375 L 108.125 -38.9375 C 106.394531 -33.082031 105.53125 -27.640625 105.53125 -22.609375 C 105.53125 -19.304688 106.253906 -16.929688 107.703125 -15.484375 C 109.148438 -14.046875 111.523438 -13.328125 114.828125 -13.328125 C 117.441406 -13.328125 121.609375 -14.320312 127.328125 -16.3125 L 124.953125 -6.09375 C 120.066406 -3.882812 115.296875 -2.039062 110.640625 -0.5625 C 105.992188 0.914062 101.191406 1.65625 96.234375 1.65625 C 88.460938 1.65625 82.285156 -0.390625 77.703125 -4.484375 C 73.128906 -8.585938 70.84375 -13.941406 70.84375 -20.546875 Z M 70.84375 -20.546875 "/></g></g></g></g></g></svg>