<svg xmlns="http://www.w3.org/2000/svg" xmlns:xlink="http://www.w3.org/1999/xlink" width="2000" zoomAndPan="magnify" viewBox="0 0 1500 1499.999933" height="2000" preserveAspectRatio="xMidYMid meet" version="1.0"><path fill="#1d1d1b" d="M 1108.917969 749.382812 C 1116.605469 745.832031 1124.207031 742.117188 1131.730469 738.234375 C 1139.253906 734.351562 1146.691406 730.304688 1154.039062 726.097656 C 1161.382812 721.890625 1168.636719 717.523438 1175.792969 713 C 1182.949219 708.476562 1190 703.796875 1196.953125 698.964844 C 1203.902344 694.132812 1210.746094 689.148438 1217.480469 684.015625 C 1224.214844 678.882812 1230.832031 673.605469 1237.332031 668.1875 C 1243.835938 662.765625 1250.21875 657.203125 1256.476562 651.503906 C 1262.734375 645.800781 1268.867188 639.96875 1274.871094 634 C 1280.875 628.027344 1286.746094 621.933594 1292.484375 615.707031 C 1298.222656 609.480469 1303.820312 603.132812 1309.28125 596.664062 C 1314.742188 590.191406 1320.058594 583.605469 1325.230469 576.902344 C 1330.402344 570.199219 1335.425781 563.386719 1340.300781 556.464844 C 1345.171875 549.542969 1349.894531 542.515625 1354.460938 535.386719 C 1359.027344 528.257812 1363.4375 521.035156 1367.6875 513.710938 C 1371.9375 506.390625 1376.027344 498.980469 1379.953125 491.480469 C 1383.882812 483.976562 1387.644531 476.394531 1391.238281 468.730469 C 1394.832031 461.066406 1398.257812 453.324219 1401.515625 445.511719 C 1404.773438 437.695312 1407.859375 429.8125 1410.769531 421.863281 C 1413.683594 413.914062 1416.417969 405.90625 1418.980469 397.835938 C 1421.542969 389.765625 1423.925781 381.644531 1426.132812 373.472656 C 1428.339844 365.296875 1430.367188 357.078125 1432.214844 348.816406 C 1434.0625 340.554688 1435.730469 332.257812 1437.214844 323.921875 C 1438.699219 315.585938 1440 307.222656 1441.117188 298.832031 C 1442.238281 290.4375 1443.171875 282.027344 1443.921875 273.59375 C 1444.675781 265.160156 1445.242188 256.714844 1445.621094 248.257812 C 1446.003906 239.800781 1446.199219 231.335938 1446.210938 222.871094 C 1446.222656 214.40625 1446.050781 205.941406 1445.691406 197.484375 C 1445.332031 189.023438 1444.789062 180.578125 1444.0625 172.144531 C 1443.335938 163.707031 1442.421875 155.292969 1441.328125 146.898438 C 1440.230469 138.503906 1438.953125 130.136719 1437.488281 121.796875 C 1436.027344 113.457031 1434.386719 105.152344 1432.558594 96.886719 C 1430.734375 88.621094 1428.730469 80.394531 1426.546875 72.214844 C 1418.367188 70.03125 1410.144531 68.027344 1401.875 66.203125 C 1393.609375 64.378906 1385.304688 62.734375 1376.964844 61.273438 C 1368.628906 59.8125 1360.261719 58.53125 1351.863281 57.4375 C 1343.46875 56.339844 1335.054688 55.429688 1326.621094 54.699219 C 1318.183594 53.972656 1309.738281 53.429688 1301.277344 53.070312 C 1292.820312 52.714844 1284.359375 52.539062 1275.890625 52.550781 C 1267.425781 52.5625 1258.964844 52.757812 1250.503906 53.140625 C 1242.046875 53.523438 1233.601562 54.089844 1225.171875 54.839844 C 1216.738281 55.589844 1208.324219 56.527344 1199.933594 57.644531 C 1191.539062 58.761719 1183.175781 60.066406 1174.839844 61.550781 C 1166.507812 63.035156 1158.207031 64.699219 1149.945312 66.546875 C 1141.683594 68.394531 1133.464844 70.421875 1125.292969 72.628906 C 1117.117188 74.835938 1108.996094 77.21875 1100.925781 79.78125 C 1092.859375 82.34375 1084.847656 85.082031 1076.898438 87.992188 C 1068.949219 90.90625 1061.066406 93.988281 1053.253906 97.246094 C 1045.4375 100.503906 1037.695312 103.929688 1030.03125 107.523438 C 1022.367188 111.121094 1014.785156 114.882812 1007.285156 118.808594 C 999.785156 122.734375 992.371094 126.824219 985.050781 131.074219 C 977.730469 135.324219 970.503906 139.734375 963.375 144.300781 C 956.246094 148.867188 949.21875 153.589844 942.296875 158.464844 C 935.375 163.335938 928.5625 168.359375 921.859375 173.53125 C 915.15625 178.703125 908.570312 184.019531 902.101562 189.480469 C 895.628906 194.941406 889.28125 200.539062 883.054688 206.277344 C 876.832031 212.015625 870.734375 217.886719 864.765625 223.890625 C 858.796875 229.894531 852.960938 236.027344 847.261719 242.285156 C 841.558594 248.546875 836 254.925781 830.578125 261.429688 C 825.15625 267.933594 819.878906 274.550781 814.746094 281.28125 C 809.613281 288.015625 804.632812 294.859375 799.796875 301.808594 C 794.964844 308.761719 790.285156 315.816406 785.761719 322.972656 C 781.238281 330.125 776.871094 337.378906 772.664062 344.726562 C 768.457031 352.070312 764.410156 359.507812 760.53125 367.03125 C 756.648438 374.554688 752.929688 382.160156 749.382812 389.84375 C 745.832031 382.160156 742.117188 374.554688 738.234375 367.03125 C 734.351562 359.507812 730.304688 352.070312 726.097656 344.726562 C 721.890625 337.378906 717.523438 330.125 713 322.972656 C 708.476562 315.816406 703.796875 308.761719 698.964844 301.808594 C 694.132812 294.859375 689.148438 288.015625 684.015625 281.28125 C 678.882812 274.550781 673.605469 267.933594 668.1875 261.429688 C 662.765625 254.925781 657.203125 248.546875 651.503906 242.285156 C 645.800781 236.027344 639.96875 229.894531 634 223.890625 C 628.03125 217.886719 621.933594 212.015625 615.707031 206.277344 C 609.480469 200.539062 603.132812 194.941406 596.664062 189.480469 C 590.191406 184.019531 583.605469 178.703125 576.902344 173.53125 C 570.199219 168.359375 563.386719 163.335938 556.464844 158.464844 C 549.542969 153.589844 542.515625 148.867188 535.386719 144.300781 C 528.257812 139.734375 521.035156 135.324219 513.710938 131.074219 C 506.390625 126.824219 498.980469 122.734375 491.480469 118.808594 C 483.976562 114.882812 476.394531 111.121094 468.730469 107.523438 C 461.066406 103.929688 453.324219 100.503906 445.511719 97.246094 C 437.695312 93.988281 429.8125 90.90625 421.863281 87.992188 C 413.914062 85.082031 405.90625 82.34375 397.835938 79.78125 C 389.765625 77.21875 381.644531 74.835938 373.472656 72.628906 C 365.296875 70.421875 357.078125 68.394531 348.816406 66.546875 C 340.554688 64.699219 332.257812 63.035156 323.921875 61.550781 C 315.585938 60.066406 307.222656 58.761719 298.832031 57.644531 C 290.4375 56.527344 282.027344 55.589844 273.59375 54.839844 C 265.160156 54.089844 256.714844 53.523438 248.257812 53.140625 C 239.800781 52.757812 231.335938 52.5625 222.871094 52.550781 C 214.40625 52.539062 205.941406 52.714844 197.484375 53.070312 C 189.023438 53.429688 180.578125 53.972656 172.144531 54.699219 C 163.707031 55.429688 155.292969 56.339844 146.898438 57.4375 C 138.503906 58.53125 130.136719 59.8125 121.796875 61.273438 C 113.457031 62.734375 105.152344 64.378906 96.886719 66.203125 C 88.621094 68.027344 80.394531 70.03125 72.214844 72.214844 C 70.03125 80.394531 68.027344 88.621094 66.203125 96.886719 C 64.378906 105.152344 62.734375 113.457031 61.273438 121.796875 C 59.8125 130.136719 58.53125 138.503906 57.4375 146.898438 C 56.339844 155.292969 55.429688 163.707031 54.699219 172.144531 C 53.972656 180.578125 53.429688 189.023438 53.070312 197.484375 C 52.714844 205.941406 52.539062 214.40625 52.550781 222.871094 C 52.5625 231.335938 52.757812 239.800781 53.140625 248.257812 C 53.523438 256.714844 54.089844 265.160156 54.839844 273.59375 C 55.589844 282.027344 56.527344 290.4375 57.644531 298.832031 C 58.761719 307.222656 60.066406 315.585938 61.550781 323.921875 C 63.035156 332.257812 64.699219 340.554688 66.546875 348.816406 C 68.394531 357.078125 70.421875 365.296875 72.628906 373.472656 C 74.835938 381.644531 77.21875 389.765625 79.78125 397.835938 C 82.34375 405.90625 85.082031 413.914062 87.992188 421.863281 C 90.90625 429.8125 93.988281 437.695312 97.246094 445.511719 C 100.503906 453.324219 103.929688 461.066406 107.523438 468.730469 C 111.121094 476.394531 114.882812 483.976562 118.808594 491.480469 C 122.734375 498.980469 126.824219 506.390625 131.074219 513.710938 C 135.324219 521.035156 139.734375 528.257812 144.300781 535.386719 C 148.867188 542.515625 153.589844 549.542969 158.464844 556.464844 C 163.335938 563.386719 168.359375 570.199219 173.53125 576.902344 C 178.703125 583.605469 184.019531 590.191406 189.480469 596.664062 C 194.941406 603.132812 200.539062 609.480469 206.277344 615.707031 C 212.015625 621.933594 217.886719 628.03125 223.890625 634 C 229.894531 639.96875 236.027344 645.800781 242.285156 651.503906 C 248.546875 657.203125 254.925781 662.765625 261.429688 668.1875 C 267.933594 673.605469 274.550781 678.882812 281.28125 684.015625 C 288.015625 689.148438 294.859375 694.132812 301.808594 698.964844 C 308.761719 703.796875 315.816406 708.476562 322.972656 713 C 330.125 717.523438 337.378906 721.890625 344.726562 726.097656 C 352.070312 730.304688 359.507812 734.351562 367.03125 738.234375 C 374.554688 742.117188 382.160156 745.832031 389.84375 749.382812 C 382.160156 752.929688 374.554688 756.648438 367.03125 760.53125 C 359.507812 764.410156 352.070312 768.457031 344.726562 772.664062 C 337.378906 776.871094 330.125 781.238281 322.972656 785.761719 C 315.816406 790.285156 308.761719 794.964844 301.808594 799.796875 C 294.859375 804.632812 288.015625 809.613281 281.28125 814.746094 C 274.550781 819.878906 267.933594 825.15625 261.429688 830.578125 C 254.925781 836 248.546875 841.558594 242.285156 847.261719 C 236.027344 852.960938 229.894531 858.796875 223.890625 864.765625 C 217.886719 870.734375 212.015625 876.832031 206.277344 883.054688 C 200.539062 889.28125 194.941406 895.628906 189.480469 902.101562 C 184.019531 908.570312 178.703125 915.15625 173.53125 921.859375 C 168.359375 928.5625 163.335938 935.375 158.464844 942.296875 C 153.589844 949.21875 148.867188 956.246094 144.300781 963.375 C 139.734375 970.503906 135.324219 977.730469 131.074219 985.050781 C 126.824219 992.371094 122.734375 999.785156 118.808594 1007.285156 C 114.882812 1014.785156 111.121094 1022.367188 107.523438 1030.03125 C 103.929688 1037.699219 100.503906 1045.4375 97.246094 1053.253906 C 93.988281 1061.066406 90.90625 1068.949219 87.992188 1076.898438 C 85.082031 1084.847656 82.34375 1092.859375 79.78125 1100.925781 C 77.21875 1108.996094 74.835938 1117.117188 72.628906 1125.292969 C 70.421875 1133.464844 68.394531 1141.683594 66.546875 1149.945312 C 64.699219 1158.207031 63.035156 1166.507812 61.550781 1174.839844 C 60.066406 1183.175781 58.761719 1191.539062 57.644531 1199.933594 C 56.527344 1208.324219 55.589844 1216.738281 54.839844 1225.171875 C 54.089844 1233.601562 53.523438 1242.046875 53.140625 1250.507812 C 52.757812 1258.964844 52.5625 1267.425781 52.550781 1275.890625 C 52.539062 1284.359375 52.714844 1292.820312 53.070312 1301.28125 C 53.429688 1309.738281 53.972656 1318.183594 54.699219 1326.621094 C 55.429688 1335.054688 56.339844 1343.46875 57.4375 1351.863281 C 58.53125 1360.261719 59.8125 1368.628906 61.273438 1376.964844 C 62.734375 1385.304688 64.378906 1393.609375 66.203125 1401.875 C 68.027344 1410.144531 70.03125 1418.367188 72.214844 1426.546875 C 80.394531 1428.730469 88.621094 1430.734375 96.886719 1432.558594 C 105.152344 1434.386719 113.457031 1436.027344 121.796875 1437.488281 C 130.136719 1438.953125 138.503906 1440.230469 146.898438 1441.328125 C 155.292969 1442.421875 163.707031 1443.335938 172.144531 1444.0625 C 180.578125 1444.789062 189.023438 1445.332031 197.484375 1445.691406 C 205.941406 1446.050781 214.40625 1446.222656 222.871094 1446.210938 C 231.335938 1446.199219 239.800781 1446.003906 248.257812 1445.621094 C 256.714844 1445.242188 265.160156 1444.675781 273.59375 1443.921875 C 282.027344 1443.171875 290.4375 1442.238281 298.832031 1441.117188 C 307.222656 1440 315.585938 1438.699219 323.921875 1437.214844 C 332.257812 1435.730469 340.554688 1434.0625 348.816406 1432.214844 C 357.078125 1430.367188 365.296875 1428.339844 373.472656 1426.132812 C 381.644531 1423.925781 389.765625 1421.542969 397.835938 1418.980469 C 405.90625 1416.417969 413.914062 1413.683594 421.863281 1410.769531 C 429.8125 1407.859375 437.695312 1404.773438 445.511719 1401.515625 C 453.324219 1398.257812 461.066406 1394.832031 468.730469 1391.238281 C 476.394531 1387.644531 483.976562 1383.882812 491.480469 1379.953125 C 498.980469 1376.027344 506.390625 1371.9375 513.710938 1367.6875 C 521.035156 1363.4375 528.257812 1359.027344 535.386719 1354.460938 C 542.515625 1349.894531 549.542969 1345.171875 556.464844 1340.300781 C 563.386719 1335.425781 570.199219 1330.402344 576.902344 1325.230469 C 583.605469 1320.058594 590.191406 1314.742188 596.664062 1309.28125 C 603.132812 1303.820312 609.480469 1298.222656 615.707031 1292.484375 C 621.933594 1286.746094 628.03125 1280.875 634 1274.871094 C 639.96875 1268.867188 645.800781 1262.734375 651.503906 1256.476562 C 657.203125 1250.21875 662.765625 1243.835938 668.1875 1237.332031 C 673.605469 1230.832031 678.882812 1224.214844 684.015625 1217.480469 C 689.148438 1210.746094 694.132812 1203.902344 698.964844 1196.953125 C 703.796875 1190 708.476562 1182.949219 713 1175.792969 C 717.523438 1168.636719 721.890625 1161.382812 726.097656 1154.039062 C 730.304688 1146.691406 734.351562 1139.253906 738.234375 1131.730469 C 742.117188 1124.207031 745.832031 1116.601562 749.382812 1108.917969 C 752.929688 1116.601562 756.648438 1124.207031 760.53125 1131.730469 C 764.410156 1139.253906 768.457031 1146.691406 772.664062 1154.039062 C 776.871094 1161.382812 781.238281 1168.636719 785.761719 1175.792969 C 790.285156 1182.949219 794.964844 1190 799.796875 1196.953125 C 804.632812 1203.902344 809.613281 1210.746094 814.746094 1217.480469 C 819.878906 1224.214844 825.15625 1230.832031 830.578125 1237.332031 C 836 1243.835938 841.558594 1250.21875 847.261719 1256.476562 C 852.960938 1262.734375 858.796875 1268.867188 864.765625 1274.871094 C 870.734375 1280.875 876.832031 1286.746094 883.054688 1292.484375 C 889.28125 1298.222656 895.628906 1303.820312 902.101562 1309.28125 C 908.570312 1314.742188 915.15625 1320.058594 921.859375 1325.230469 C 928.5625 1330.402344 935.375 1335.425781 942.296875 1340.300781 C 949.21875 1345.171875 956.246094 1349.894531 963.375 1354.460938 C 970.503906 1359.027344 977.730469 1363.4375 985.050781 1367.6875 C 992.371094 1371.9375 999.785156 1376.027344 1007.285156 1379.953125 C 1014.785156 1383.882812 1022.367188 1387.644531 1030.03125 1391.238281 C 1037.695312 1394.832031 1045.4375 1398.257812 1053.25 1401.515625 C 1061.066406 1404.773438 1068.949219 1407.859375 1076.898438 1410.769531 C 1084.847656 1413.683594 1092.859375 1416.417969 1100.925781 1418.980469 C 1108.996094 1421.542969 1117.117188 1423.925781 1125.292969 1426.132812 C 1133.464844 1428.339844 1141.683594 1430.367188 1149.945312 1432.214844 C 1158.207031 1434.0625 1166.507812 1435.730469 1174.839844 1437.214844 C 1183.175781 1438.699219 1191.539062 1440 1199.933594 1441.117188 C 1208.324219 1442.238281 1216.738281 1443.171875 1225.171875 1443.921875 C 1233.601562 1444.675781 1242.046875 1445.242188 1250.503906 1445.621094 C 1258.964844 1446.003906 1267.425781 1446.199219 1275.890625 1446.210938 C 1284.359375 1446.222656 1292.820312 1446.050781 1301.277344 1445.691406 C 1309.738281 1445.332031 1318.183594 1444.789062 1326.621094 1444.0625 C 1335.054688 1443.335938 1343.46875 1442.421875 1351.863281 1441.328125 C 1360.261719 1440.230469 1368.628906 1438.953125 1376.964844 1437.488281 C 1385.304688 1436.027344 1393.609375 1434.386719 1401.875 1432.558594 C 1410.144531 1430.734375 1418.367188 1428.730469 1426.546875 1426.546875 C 1428.730469 1418.367188 1430.734375 1410.144531 1432.558594 1401.875 C 1434.386719 1393.609375 1436.027344 1385.304688 1437.488281 1376.964844 C 1438.953125 1368.628906 1440.230469 1360.261719 1441.328125 1351.863281 C 1442.421875 1343.46875 1443.335938 1335.054688 1444.0625 1326.621094 C 1444.789062 1318.183594 1445.332031 1309.738281 1445.691406 1301.28125 C 1446.050781 1292.820312 1446.222656 1284.359375 1446.210938 1275.890625 C 1446.199219 1267.425781 1446.003906 1258.964844 1445.621094 1250.507812 C 1445.242188 1242.046875 1444.675781 1233.601562 1443.921875 1225.171875 C 1443.171875 1216.738281 1442.238281 1208.324219 1441.117188 1199.933594 C 1440 1191.539062 1438.699219 1183.175781 1437.214844 1174.839844 C 1435.730469 1166.507812 1434.0625 1158.207031 1432.214844 1149.945312 C 1430.367188 1141.683594 1428.339844 1133.464844 1426.132812 1125.292969 C 1423.925781 1117.117188 1421.542969 1108.996094 1418.980469 1100.925781 C 1416.417969 1092.859375 1413.683594 1084.847656 1410.769531 1076.898438 C 1407.859375 1068.949219 1404.773438 1061.066406 1401.515625 1053.25 C 1398.257812 1045.4375 1394.832031 1037.695312 1391.238281 1030.03125 C 1387.644531 1022.367188 1383.882812 1014.785156 1379.953125 1007.285156 C 1376.027344 999.785156 1371.9375 992.371094 1367.6875 985.050781 C 1363.4375 977.730469 1359.027344 970.503906 1354.460938 963.375 C 1349.894531 956.246094 1345.171875 949.21875 1340.300781 942.296875 C 1335.425781 935.375 1330.402344 928.5625 1325.230469 921.859375 C 1320.058594 915.15625 1314.742188 908.570312 1309.28125 902.101562 C 1303.820312 895.628906 1298.222656 889.28125 1292.484375 883.054688 C 1286.746094 876.832031 1280.875 870.734375 1274.871094 864.765625 C 1268.867188 858.796875 1262.734375 852.960938 1256.476562 847.261719 C 1250.21875 841.558594 1243.835938 836 1237.332031 830.578125 C 1230.832031 825.15625 1224.214844 819.878906 1217.480469 814.746094 C 1210.746094 809.613281 1203.902344 804.632812 1196.953125 799.796875 C 1190 794.964844 1182.949219 790.285156 1175.792969 785.761719 C 1168.636719 781.238281 1161.382812 776.871094 1154.039062 772.664062 C 1146.691406 768.457031 1139.253906 764.410156 1131.730469 760.53125 C 1124.207031 756.648438 1116.605469 752.929688 1108.917969 749.382812 Z M 1108.917969 749.382812 " fill-opacity="1" fill-rule="nonzero"/></svg>