<svg xmlns="http://www.w3.org/2000/svg" xmlns:xlink="http://www.w3.org/1999/xlink" width="2000" zoomAndPan="magnify" viewBox="0 0 1500 1499.999933" height="2000" preserveAspectRatio="xMidYMid meet" version="1.0"><defs><clipPath id="d5b46ddccc"><path d="M 298 117 L 1202.28125 117 L 1202.28125 1383 L 298 1383 Z M 298 117 " clip-rule="nonzero"/></clipPath><clipPath id="1264a3bd1c"><path d="M 724 1384 L 728 1384 L 728 1385.058594 L 724 1385.058594 Z M 724 1384 " clip-rule="nonzero"/></clipPath></defs><path fill="#1d1d1b" d="M 788.941406 1368.207031 L 786.265625 1375.230469 L 795.207031 1371.296875 C 796.757812 1369.136719 794.671875 1366.082031 788.941406 1368.207031 Z M 788.941406 1368.207031 " fill-opacity="1" fill-rule="nonzero"/><path fill="#1d1d1b" d="M 767.5 1367.234375 C 762.859375 1367.765625 758.121094 1369.542969 753.238281 1372.148438 C 750.90625 1370.957031 752.863281 1369.203125 753.230469 1368.035156 C 746.75 1371.5 738.847656 1377.335938 743.859375 1382.65625 C 750.484375 1376.097656 752.511719 1378.894531 759.074219 1370.609375 C 764.835938 1368.996094 769.675781 1370.976562 769.085938 1373.363281 C 770.007812 1372.414062 772.386719 1372.40625 774.855469 1372.054688 C 777.296875 1371.503906 779.832031 1370.636719 780.960938 1368.363281 C 778.789062 1367.671875 776.585938 1367.28125 774.359375 1367.1875 C 772.117188 1367.007812 769.8125 1366.933594 767.5 1367.234375 Z M 767.5 1367.234375 " fill-opacity="1" fill-rule="nonzero"/><path fill="#1d1d1b" d="M 474.910156 789.335938 C 472.644531 790.632812 471.953125 791.664062 472.109375 792.234375 C 474.058594 790.761719 475.679688 789.558594 474.910156 789.335938 Z M 474.910156 789.335938 " fill-opacity="1" fill-rule="nonzero"/><path fill="#1d1d1b" d="M 324.34375 1068.988281 L 324.535156 1059.75 C 322.421875 1059.40625 323.945312 1064.542969 324.34375 1068.988281 Z M 324.34375 1068.988281 " fill-opacity="1" fill-rule="nonzero"/><path fill="#1d1d1b" d="M 672.390625 1380.734375 C 674.476562 1380.703125 676.25 1380.355469 677.894531 1379.816406 C 676.1875 1379.859375 674.542969 1379.871094 672.84375 1379.816406 C 672.707031 1380.136719 672.59375 1380.410156 672.390625 1380.734375 Z M 672.390625 1380.734375 " fill-opacity="1" fill-rule="nonzero"/><path fill="#1d1d1b" d="M 394.726562 1199.746094 L 396.484375 1201.882812 C 397.539062 1202.042969 398.625 1202.097656 399.84375 1201.984375 Z M 394.726562 1199.746094 " fill-opacity="1" fill-rule="nonzero"/><path fill="#1d1d1b" d="M 474.472656 1278.449219 C 476.933594 1277.5 479.132812 1277.734375 481.289062 1278.683594 C 481.875 1277.878906 482.242188 1276.691406 482.351562 1274.933594 C 480.296875 1273.289062 476.609375 1277.125 474.472656 1278.449219 Z M 474.472656 1278.449219 " fill-opacity="1" fill-rule="nonzero"/><path fill="#1d1d1b" d="M 649.226562 1355.226562 L 652.640625 1355.132812 C 651.746094 1355.191406 650.273438 1355.128906 649.226562 1355.226562 Z M 649.226562 1355.226562 " fill-opacity="1" fill-rule="nonzero"/><path fill="#1d1d1b" d="M 350.808594 1130.847656 C 351.425781 1130.34375 351.863281 1129.683594 352.042969 1129.121094 C 351.445312 1129.402344 351.0625 1130.03125 350.808594 1130.847656 Z M 350.808594 1130.847656 " fill-opacity="1" fill-rule="nonzero"/><path fill="#1d1d1b" d="M 1061.472656 279.257812 C 1061.285156 278.921875 1061.023438 278.84375 1060.824219 278.589844 C 1060.683594 279.453125 1060.785156 279.867188 1061.472656 279.257812 Z M 1061.472656 279.257812 " fill-opacity="1" fill-rule="nonzero"/><path fill="#1d1d1b" d="M 942.832031 356.089844 L 944.03125 354.5625 C 943.492188 353.707031 942.960938 352.867188 942.289062 352.171875 Z M 942.832031 356.089844 " fill-opacity="1" fill-rule="nonzero"/><path fill="#1d1d1b" d="M 635.785156 755.871094 C 635.570312 755.855469 635.503906 755.847656 635.304688 755.832031 C 632.621094 756.796875 634.171875 756.484375 635.785156 755.871094 Z M 635.785156 755.871094 " fill-opacity="1" fill-rule="nonzero"/><path fill="#1d1d1b" d="M 630.136719 925.339844 C 631.914062 930.894531 627.863281 928.636719 624.234375 926.757812 C 620.707031 924.835938 617.425781 923.410156 620.695312 931.570312 C 621.324219 929.183594 636.722656 937.472656 630.136719 925.339844 Z M 630.136719 925.339844 " fill-opacity="1" fill-rule="nonzero"/><path fill="#1d1d1b" d="M 669.289062 1379.636719 C 667.617188 1379.464844 665.910156 1379.324219 664.230469 1379.003906 C 666.496094 1379.523438 668.058594 1379.675781 669.289062 1379.636719 Z M 669.289062 1379.636719 " fill-opacity="1" fill-rule="nonzero"/><path fill="#1d1d1b" d="M 876.027344 769.90625 C 875.941406 770.441406 876.28125 771.234375 877.683594 772.828125 C 877.496094 771.800781 876.789062 770.847656 876.027344 769.90625 Z M 876.027344 769.90625 " fill-opacity="1" fill-rule="nonzero"/><path fill="#1d1d1b" d="M 697.691406 740.792969 L 702.285156 741.378906 C 700.464844 740.941406 698.984375 740.820312 697.691406 740.792969 Z M 697.691406 740.792969 " fill-opacity="1" fill-rule="nonzero"/><path fill="#1d1d1b" d="M 969.023438 810.753906 C 968.945312 810.367188 968.816406 810.042969 968.621094 809.664062 C 967.613281 809.570312 966.578125 809.179688 965.441406 808.109375 C 966.226562 809.046875 966.984375 809.839844 969.023438 810.753906 Z M 969.023438 810.753906 " fill-opacity="1" fill-rule="nonzero"/><path fill="#1d1d1b" d="M 1016.617188 878.765625 C 1016.898438 878.234375 1017.046875 877.574219 1017.261719 876.96875 C 1016.96875 876.136719 1016.628906 875.164062 1016.332031 874.308594 Z M 1016.617188 878.765625 " fill-opacity="1" fill-rule="nonzero"/><path fill="#1d1d1b" d="M 672.746094 1377.8125 C 671.945312 1379.042969 670.953125 1379.570312 669.289062 1379.636719 C 670.511719 1379.734375 671.691406 1379.785156 672.84375 1379.816406 C 673.261719 1379.082031 673.421875 1378.363281 672.746094 1377.8125 Z M 672.746094 1377.8125 " fill-opacity="1" fill-rule="nonzero"/><path fill="#1d1d1b" d="M 992.074219 775.890625 C 996.871094 779.59375 1001.335938 783.976562 1005.886719 788.082031 C 1002.25 784.453125 997.378906 779.632812 992.074219 775.890625 Z M 992.074219 775.890625 " fill-opacity="1" fill-rule="nonzero"/><path fill="#1d1d1b" d="M 769.921875 332.230469 L 772.410156 329.261719 C 771.222656 330.128906 770.289062 331.128906 769.921875 332.230469 Z M 769.921875 332.230469 " fill-opacity="1" fill-rule="nonzero"/><path fill="#1d1d1b" d="M 1042.441406 831.53125 C 1042.632812 835.488281 1043.390625 839.25 1044.261719 843.09375 C 1044.96875 843.664062 1045.660156 844.378906 1046.4375 844.632812 C 1045.324219 840.203125 1044.097656 835.753906 1042.441406 831.53125 Z M 1042.441406 831.53125 " fill-opacity="1" fill-rule="nonzero"/><path fill="#1d1d1b" d="M 587.003906 721.636719 C 587.625 721.480469 588.183594 721.28125 588.816406 721.140625 C 587.988281 721.292969 587.4375 721.460938 587.003906 721.636719 Z M 587.003906 721.636719 " fill-opacity="1" fill-rule="nonzero"/><path fill="#1d1d1b" d="M 728.507812 1373.683594 C 728.113281 1373.378906 727.527344 1373.179688 726.601562 1373.234375 C 727.234375 1373.371094 727.875 1373.53125 728.507812 1373.683594 Z M 728.507812 1373.683594 " fill-opacity="1" fill-rule="nonzero"/><path fill="#1d1d1b" d="M 1056.933594 920.796875 C 1056.875 921.945312 1056.867188 922.992188 1056.988281 923.8125 C 1057 922.984375 1056.992188 921.839844 1056.933594 920.796875 Z M 1056.933594 920.796875 " fill-opacity="1" fill-rule="nonzero"/><path fill="#1d1d1b" d="M 1109.863281 168.339844 C 1108.882812 168.652344 1107.945312 168.957031 1106.789062 169.304688 C 1108.070312 168.941406 1109.050781 168.625 1109.863281 168.339844 Z M 1109.863281 168.339844 " fill-opacity="1" fill-rule="nonzero"/><path fill="#1d1d1b" d="M 703.238281 738.457031 C 704.195312 737.917969 705.1875 737.574219 706.1875 737.308594 C 703.960938 737.792969 701.160156 737.75 703.238281 738.457031 Z M 703.238281 738.457031 " fill-opacity="1" fill-rule="nonzero"/><g clip-path="url(#d5b46ddccc)"><path fill="#1d1d1b" d="M 1202.171875 138.214844 C 1200.765625 138.179688 1198.484375 138.625 1197.25 138.933594 C 1195.867188 139.292969 1194.875 139.746094 1194.328125 140.3125 C 1191.71875 137.894531 1189.226562 137.144531 1188.3125 136.320312 C 1187.296875 135.492188 1187.769531 134.578125 1188.910156 131.640625 C 1179.15625 135.363281 1175.011719 135.382812 1170.191406 134.910156 C 1165.484375 134.449219 1159.65625 133.4375 1149.78125 135.414062 C 1141.710938 132.5 1141.960938 130.386719 1141.425781 129.105469 C 1140.851562 127.835938 1138.65625 127.292969 1124.136719 127.589844 C 1118.589844 125.824219 1122.121094 124.546875 1127.726562 123.765625 C 1133.234375 122.996094 1140.554688 122.800781 1140.554688 122.800781 C 1125.433594 121.445312 1120.703125 122.988281 1119.027344 125.023438 C 1117.324219 127.109375 1117.820312 129.851562 1114.019531 131.578125 C 1083.5 131.527344 1101.144531 125.621094 1090.511719 121.4375 C 1085.289062 121.957031 1080.582031 123.378906 1076.1875 124.753906 C 1076.421875 123.269531 1079.128906 121.847656 1090.527344 120.980469 C 1084.449219 120.941406 1077.859375 120.785156 1070.140625 121.128906 C 1062.929688 121.4375 1055.144531 121.769531 1047.226562 122.109375 C 1031.972656 123.097656 1018.191406 123.5 1008.242188 122.34375 C 1007.328125 121.859375 1006.410156 121.386719 1005.757812 120.636719 L 1008.136719 120.15625 C 1003.277344 119.578125 998.152344 119.875 994.519531 120.636719 C 989.851562 119.898438 986.867188 119.347656 982.371094 119.328125 C 980.566406 115.320312 964.996094 117.632812 957.453125 117.960938 C 957.742188 119.617188 956.941406 120.722656 956.023438 121.578125 C 951.644531 122.042969 946.53125 122.3125 939.476562 122.019531 C 935.320312 125.125 939.410156 126.648438 937.960938 129.238281 C 930.328125 127.175781 923.347656 125.660156 921.472656 123.441406 C 916.644531 124.695312 911.367188 125.960938 906.007812 127.28125 C 903.890625 126.195312 901.761719 125.28125 899.21875 124.96875 C 897.515625 124.761719 895.621094 124.828125 893.425781 125.292969 C 891.1875 125.839844 888.570312 126.917969 885.601562 128.503906 C 883.339844 130.574219 881.820312 133.085938 879.746094 135.332031 C 878.484375 135.839844 877.128906 136.257812 875.910156 136.804688 L 884.054688 169.472656 C 888.09375 168.046875 891.792969 166.3125 895.121094 164.390625 C 896.238281 164.332031 897.328125 164.253906 898.644531 164.328125 C 897.390625 166.988281 896.203125 169.691406 895.117188 172.453125 C 906.882812 170.421875 907.808594 166.222656 911.554688 163.5625 C 915.875 162.734375 920.648438 162.0625 925.128906 161.304688 C 925.558594 161.332031 925.921875 161.332031 926.375 161.363281 C 922.867188 164.480469 910.832031 166.136719 913.992188 166.445312 C 927.398438 169.585938 923.734375 162.195312 931.804688 160 C 931.929688 159.972656 932.042969 159.941406 932.167969 159.910156 C 932.671875 159.789062 933.203125 159.675781 933.800781 159.597656 L 936.699219 165.640625 C 942.949219 164.742188 949.441406 163.589844 956.0625 162.417969 C 972.027344 165.265625 985.777344 163.105469 999.566406 160.292969 C 999.574219 160.820312 999.765625 161.351562 1000.289062 161.886719 C 1006.207031 160.417969 1012.617188 161.015625 1015.574219 162.511719 C 1018.601562 164 1017.335938 166.3125 1012.496094 167.953125 L 1022.808594 166.628906 C 1025.730469 166.28125 1028.492188 165.996094 1031.085938 165.777344 C 1029.949219 166.167969 1021.40625 167.417969 1018.398438 167.667969 C 1013.855469 168.546875 1016.730469 168.175781 1021.34375 167.585938 C 1025.957031 166.996094 1032.835938 165.980469 1035.289062 165.960938 C 1035.203125 166.019531 1035.0625 166.082031 1034.9375 166.121094 C 1032.203125 167.085938 1022.671875 168.066406 1018.894531 168.210938 C 1024.019531 168.300781 1025.265625 170.097656 1021.339844 173.253906 C 1019.394531 174.828125 1016.785156 176.273438 1013.164062 177.800781 C 1009.386719 179.433594 1005.390625 180.597656 1001.980469 180.683594 C 1002.222656 179.953125 1002.40625 179.253906 1002.53125 178.582031 C 1000.417969 179.03125 999.523438 179.957031 998.804688 181.296875 C 998.34375 182.019531 998.398438 182.578125 997.625 183.664062 C 996.796875 184.832031 996.007812 185.945312 995.226562 187.046875 C 992.125 191.5 989.046875 195.535156 980.652344 197.179688 L 982.941406 194.839844 C 948.109375 211.0625 914.640625 237.097656 885.910156 246.496094 C 885.773438 251.355469 877.300781 255.683594 869.539062 260.4375 C 861.8125 265.242188 854.609375 270.160156 856.765625 275.355469 C 835.714844 283.390625 839.707031 278.207031 812.71875 293.777344 C 805.769531 298.316406 806.992188 306.554688 799.816406 313.859375 L 796.070312 309.5 L 789.027344 322.859375 L 778.949219 322.128906 L 772.410156 329.261719 C 775.605469 327.128906 780.375 326.183594 780.96875 327.828125 C 771.019531 339.121094 750.722656 348.386719 748.394531 346.355469 C 740.367188 355.15625 732.890625 364.53125 725.347656 373.742188 C 724.589844 372.058594 726.585938 369.003906 728.664062 365.757812 C 721.128906 377.136719 723.304688 361.664062 714.886719 376.296875 C 717.488281 375.652344 716.316406 379.636719 716.832031 380.742188 C 707.910156 383.871094 694.214844 398.226562 684.917969 409.53125 L 684.050781 404.78125 C 674.1875 413.636719 665.4375 424.652344 656.15625 435.625 C 646.722656 446.46875 638.183594 458.652344 628.644531 470.078125 C 636.859375 462.972656 640.578125 469.257812 635.628906 476.332031 L 628.6875 475.222656 C 628.082031 481.886719 636.21875 469.664062 632.539062 481.386719 C 625.023438 489.449219 622.390625 482.890625 624.890625 476.722656 C 622.539062 480.578125 620.359375 484.625 618.226562 488.699219 C 616.300781 488.242188 617.453125 485.109375 616.121094 483.03125 C 615.808594 489.734375 596.925781 498.324219 597.816406 508.984375 L 595.890625 508.597656 C 578.800781 533.660156 573.582031 546.710938 562.34375 568.800781 C 566.851562 571.671875 561.128906 579.59375 562.050781 588.128906 C 552.714844 603.507812 541.523438 620.949219 535.261719 642.21875 C 533.355469 657.832031 538.230469 647.816406 539.265625 655.28125 C 534.195312 654.988281 529.582031 676.609375 528.898438 664.671875 C 527.445312 671.167969 526.429688 676.535156 525.777344 681.480469 C 525.105469 686.414062 524.273438 690.804688 524.023438 695.527344 C 523.714844 700.234375 523.425781 705.15625 523.273438 711.007812 C 523.445312 716.898438 523.351562 723.683594 524.042969 732.09375 C 526.03125 728.535156 527.273438 724.582031 528.722656 726.765625 C 529.152344 732.757812 526.28125 740.335938 523.972656 739.445312 L 523.527344 737.832031 C 523.898438 740.113281 524.183594 742.433594 524.414062 744.789062 C 523.261719 745.058594 522.207031 745.386719 521.007812 745.628906 C 526.25 735.316406 511.117188 746.332031 507.289062 740.421875 C 502.6875 742.765625 498.207031 745.417969 493.722656 747.980469 L 500.679688 748.792969 C 488.167969 753.6875 479.519531 763.015625 468.367188 766.152344 C 470.902344 763.855469 473.402344 761.402344 476.035156 759.203125 C 468.699219 763.28125 461.328125 767.246094 454.273438 771.796875 C 458.816406 770.214844 463.40625 768.820312 468.019531 767.546875 C 457.746094 776.84375 473.175781 774.484375 457.003906 781.152344 C 458.375 779.984375 455.507812 781.546875 451.292969 783.375 C 447.132812 785.3125 441.707031 787.683594 437.660156 787.738281 L 437.691406 787.699219 C 433.363281 793.136719 429.121094 798.636719 420.3125 803 C 416.949219 802.738281 417.40625 795.566406 415.199219 795.367188 C 414.296875 799.71875 408.167969 804.566406 402.347656 810.195312 C 396.320312 815.539062 390.722656 821.757812 389.820312 826.71875 C 390.816406 823.820312 388.441406 821.039062 387.257812 821.125 C 387 823.535156 386.695312 825.859375 386.53125 828.285156 C 381.175781 831.621094 379.992188 831.792969 378.621094 829.027344 C 371.722656 835.503906 374.398438 835.917969 376.472656 836.417969 C 378.589844 836.988281 379.878906 837.3125 371.300781 844.386719 C 372.148438 842.828125 371.070312 842.992188 372.910156 839.78125 C 356.441406 855.25 348.6875 875.300781 337.226562 892.089844 C 332.761719 893.179688 334.367188 888.933594 336.234375 884.890625 C 338.230469 880.941406 340.324219 877.117188 335.972656 878.667969 C 332.207031 885.261719 329.578125 892.648438 326.8125 899.851562 C 324.683594 907.1875 322.535156 914.574219 320.398438 921.933594 C 318 929.121094 316.871094 936.730469 314.984375 943.894531 C 313.1875 951.101562 310.964844 958.019531 309.355469 964.976562 L 311.210938 959.96875 C 315.589844 963.109375 313.339844 967.839844 310.144531 973.890625 C 308.550781 976.914062 306.71875 980.261719 305.390625 983.804688 C 304.324219 987.386719 303.914062 991.195312 304.660156 994.910156 C 304.316406 991.328125 299.730469 989.566406 300.714844 990.679688 C 298.9375 1000.449219 297.890625 1010.636719 299.421875 1022.082031 C 300.09375 1027.785156 300.375 1033.789062 301.703125 1040.140625 C 303.027344 1046.433594 304.441406 1053.164062 305.976562 1060.460938 L 303.113281 1057.125 C 302.214844 1063.074219 303.765625 1070.605469 304.941406 1078.308594 C 305.648438 1082.132812 306.121094 1086.058594 307.03125 1089.675781 C 307.96875 1093.289062 308.808594 1096.734375 309.417969 1099.84375 C 312.902344 1102.730469 314.5 1109.648438 316.808594 1104.394531 C 316.636719 1106.941406 316.507812 1109.488281 316.683594 1111.929688 C 316.949219 1114.34375 317.332031 1116.710938 317.820312 1119.042969 C 318.789062 1123.707031 320.167969 1128.203125 321.808594 1132.539062 C 325.277344 1141.125 330.613281 1148.636719 335.433594 1156.085938 C 340.792969 1163.246094 346.402344 1169.960938 350.90625 1177.214844 C 355.945312 1184.125 360.101562 1191.445312 362.617188 1200.195312 C 360.253906 1196.917969 355.214844 1193.609375 357.085938 1196.265625 C 360.113281 1200.066406 363.449219 1203.597656 366.859375 1207.042969 L 376.925781 1217.460938 C 378.75 1212.898438 376.5 1212.835938 375.289062 1206.078125 C 379.644531 1207.164062 385.847656 1212.277344 390.765625 1217.183594 C 379.988281 1209.855469 385.648438 1221.832031 387.75 1227.585938 C 388.074219 1226.007812 390.445312 1226.402344 391.101562 1225.144531 C 393.402344 1233.195312 395.425781 1232.1875 398.074219 1231.386719 C 400.738281 1230.617188 403.933594 1230.132812 409.492188 1238.785156 L 407.152344 1239.683594 C 413.558594 1243.9375 420.277344 1246.796875 426.144531 1252.332031 C 425.464844 1258.257812 418.457031 1248.984375 415.457031 1251.527344 C 419.742188 1255.386719 425.804688 1257.058594 431.042969 1259.328125 C 436.394531 1261.484375 440.933594 1264.269531 443.617188 1269.199219 C 438.789062 1267.53125 433.589844 1262.847656 428.929688 1260.847656 C 433.871094 1272.652344 435.875 1272.433594 442.117188 1278.164062 L 441.53125 1277.558594 C 446.246094 1282.148438 450.914062 1286.867188 455.753906 1291.398438 C 454.644531 1290.074219 453.65625 1288.578125 452.613281 1287.167969 C 462.203125 1286.222656 468.671875 1289.503906 475.226562 1293.941406 C 481.691406 1298.460938 488.980469 1303.027344 499.296875 1304.332031 C 479.164062 1301.707031 494.253906 1306.753906 490.1875 1310.898438 C 493.65625 1314.789062 499.339844 1320.21875 496.699219 1320.492188 C 507.023438 1320.90625 508.726562 1331.050781 523.375 1331.160156 C 523.09375 1333.039062 532.253906 1335.53125 528.390625 1338.757812 C 539.960938 1342.617188 527.152344 1334.683594 529.082031 1333.074219 C 538.785156 1334.21875 547.679688 1340.613281 558.183594 1346.433594 C 568.457031 1352.664062 580.472656 1358.035156 594.34375 1358.449219 C 605.878906 1360.082031 613.011719 1359.734375 619.871094 1359.296875 C 626.808594 1358.578125 633.441406 1357.839844 643.84375 1358.816406 C 646.96875 1360.917969 645.226562 1362.292969 642.671875 1363.058594 C 640.132812 1363.765625 636.785156 1363.902344 636.785156 1363.902344 C 642.023438 1366.679688 646.902344 1368.074219 651.789062 1368.945312 C 656.679688 1369.792969 661.585938 1370.140625 667.078125 1370.007812 C 664.652344 1371.289062 666.671875 1372.902344 669.6875 1375.355469 C 678.5 1376.023438 676.363281 1369.550781 687.4375 1373.691406 C 685.273438 1375.449219 682.394531 1378.351562 677.894531 1379.816406 C 688.453125 1379.773438 699.050781 1376.75 709.722656 1375.894531 C 712.449219 1379.253906 703.0625 1380.265625 699.078125 1382.058594 C 711.328125 1381.933594 730.867188 1379.9375 734.3125 1374.949219 C 732.367188 1374.617188 730.4375 1374.144531 728.507812 1373.683594 C 729.972656 1374.800781 728.25 1377.734375 725.683594 1378.453125 C 715.246094 1382.335938 710.714844 1376.761719 710.269531 1374.789062 C 712.804688 1374.554688 715.34375 1374.0625 717.871094 1373.714844 C 714.054688 1368.550781 706.707031 1368.53125 698.164062 1369.574219 C 689.625 1370.921875 679.9375 1372.355469 672.414062 1371.117188 L 679.671875 1364.242188 C 674.363281 1365.640625 668.910156 1367.332031 663.476562 1368.457031 C 660.546875 1365.855469 659.152344 1361.183594 666.558594 1361.402344 C 656.765625 1355.660156 656.757812 1362.359375 648.582031 1356.472656 C 647.726562 1355.632812 648.253906 1355.355469 649.226562 1355.226562 C 645.667969 1355.417969 642.148438 1355.308594 638.601562 1355.222656 C 640.941406 1354.121094 638.167969 1349.480469 644.070312 1352.082031 C 635.589844 1347.675781 628.050781 1347.402344 621.867188 1347.105469 C 615.757812 1346.605469 611 1346.328125 608.515625 1342.515625 L 610.140625 1342.503906 C 597.433594 1340.140625 596.429688 1341.054688 595.984375 1342.980469 C 595.53125 1344.867188 595.765625 1347.535156 585.363281 1347.382812 C 582.746094 1341.484375 580.246094 1335.628906 577.859375 1329.816406 L 573.464844 1334.167969 C 571.066406 1332.957031 566.335938 1330.550781 568.097656 1328.8125 C 557.445312 1328.640625 568.738281 1331.753906 561.996094 1332.953125 C 559.5 1330.523438 556.148438 1328.609375 552.527344 1326.949219 C 548.96875 1325.144531 545.167969 1323.527344 541.675781 1321.964844 C 534.726562 1318.789062 529.023438 1315.851562 529.847656 1311.03125 C 523.757812 1312.820312 539.355469 1319.570312 525.71875 1316.023438 C 526.804688 1305.417969 510.722656 1310.269531 502.714844 1300.316406 C 508.285156 1297.898438 516.601562 1305.492188 508.675781 1295.882812 C 498.40625 1299.542969 489.996094 1282.9375 481.289062 1278.683594 C 479.238281 1281.386719 474.394531 1278.996094 468.183594 1275.023438 C 462.070312 1270.902344 454.925781 1264.835938 447.574219 1260.816406 C 449.644531 1259.808594 425.773438 1238.335938 416.886719 1225.785156 L 418.007812 1225.277344 C 410.867188 1228.417969 401.085938 1215.816406 392.128906 1208.402344 C 395.519531 1206.023438 398.144531 1206.460938 403.683594 1209.6875 C 401.296875 1207.074219 398.71875 1204.617188 396.484375 1201.882812 C 393.246094 1201.382812 390.253906 1199.554688 385.230469 1194.671875 L 390.894531 1193.511719 C 388.609375 1190.839844 386.046875 1188.371094 383.339844 1185.90625 C 380.699219 1183.394531 378.171875 1180.699219 375.507812 1177.914062 C 372.882812 1175.109375 370.261719 1172.117188 367.8125 1168.78125 C 365.382812 1165.433594 363.585938 1161.464844 361.925781 1157.171875 C 357.203125 1158.582031 358.347656 1177.003906 345.242188 1161.390625 C 347.078125 1159.441406 350.535156 1156.636719 354.101562 1160.511719 C 352.945312 1159.246094 349.136719 1156.410156 348.332031 1152.9375 L 356.136719 1157.5 C 353.503906 1149.335938 350.640625 1155.585938 347.667969 1149.476562 C 350.957031 1147.832031 347.769531 1143.765625 350.78125 1143.273438 C 351.847656 1144.613281 351.957031 1149.238281 354.648438 1150.671875 C 351.421875 1143.84375 349.699219 1134.597656 350.808594 1130.847656 C 349.207031 1132.320312 346.34375 1132.992188 343.460938 1128.265625 C 337.796875 1115.308594 345.6875 1122.03125 344.421875 1113.808594 C 340.847656 1111.585938 339.953125 1102.496094 334.832031 1103.988281 C 333.707031 1100.015625 335.9375 1098.507812 336.925781 1096.5625 C 334.890625 1093.453125 331.941406 1085.511719 330.082031 1079.273438 C 328.285156 1073.035156 326.390625 1068.648438 324.296875 1073.257812 L 324.277344 1075.1875 C 324.097656 1074.863281 324.011719 1074.453125 323.8125 1074.050781 C 322.574219 1071.21875 321.539062 1068.292969 320.667969 1065.308594 C 319.722656 1062.332031 319.089844 1059.277344 318.921875 1056.148438 C 318.351562 1049.914062 318.257812 1043.578125 318.261719 1037.300781 C 319.558594 1024.671875 320.558594 1012.359375 321.226562 1000.410156 L 323.046875 1000.640625 C 322.910156 997.0625 322.980469 993.285156 323.117188 989.472656 C 323.164062 985.640625 324.097656 981.890625 324.496094 978.179688 C 325.617188 970.816406 325.949219 963.761719 325.578125 958.300781 C 326.882812 954.183594 331.839844 949.625 333.382812 952.003906 C 334.355469 946.617188 334.445312 943.441406 335.25 939.855469 C 335.886719 936.222656 337.855469 932.355469 342.335938 925.648438 C 341.074219 936.929688 346.441406 923.238281 340.179688 936.835938 C 347.273438 924.425781 350.738281 922.652344 352.53125 906.90625 C 354.632812 913.484375 362.1875 900.261719 364.582031 894.179688 C 362.007812 896.363281 359.269531 898.511719 356.890625 900.910156 C 358.171875 897.398438 360.070312 894.464844 361.804688 891.574219 C 363.613281 888.730469 365.328125 885.945312 367.429688 883.386719 L 370.6875 889.664062 C 381.414062 880.257812 386.011719 868.628906 392.101562 858.128906 C 394.910156 852.757812 398.371094 848.0625 402.183594 843.957031 C 406.28125 840.125 411.027344 837.125 417.113281 836.019531 C 418.597656 832.046875 415.042969 833.757812 411.601562 835.832031 C 408.144531 837.863281 404.480469 839.949219 405.253906 835.789062 C 415.585938 827.191406 431.972656 826.070312 435.136719 823.78125 C 451.367188 816.4375 443.539062 806.664062 461.09375 798.808594 C 457.894531 798.054688 452.742188 794.164062 464.523438 785.253906 C 477.027344 779.535156 483.488281 786.027344 476.785156 791.285156 C 474.027344 792.867188 472.332031 792.945312 472.109375 792.234375 C 468.726562 795.035156 464.316406 798.558594 470.023438 798.136719 L 470.460938 795.367188 C 477.234375 794.125 493.421875 786.097656 491.148438 791.25 C 499.28125 785.28125 493.503906 786.15625 486.285156 788.253906 C 502.054688 784.332031 509.722656 778.183594 525.054688 774.265625 C 524.902344 782.582031 524.6875 791.046875 524.894531 799.496094 C 525.300781 820.683594 528.417969 841.53125 538.511719 854.09375 L 537.476562 852.65625 C 539.960938 857.363281 542.773438 861.894531 545.589844 866.378906 C 548.292969 870.914062 551.300781 875.257812 554.3125 879.554688 C 559.703125 892.898438 547.382812 873.289062 549.28125 884.21875 C 560.382812 897.765625 566.742188 909.261719 573.242188 920.105469 C 579.527344 931.015625 586.101562 941.101562 596.859375 950.171875 C 598.386719 962.847656 611.648438 977.402344 627.300781 990.1875 C 642.914062 1003.164062 660.597656 1014.347656 670.414062 1026.132812 L 670.84375 1022.414062 C 678.890625 1023.835938 677.503906 1028.882812 681.867188 1032.546875 C 682.515625 1029.917969 676.480469 1025.671875 681.394531 1026.613281 C 709.375 1041.679688 738.585938 1056.257812 770.207031 1067.304688 C 801.679688 1078.378906 835.9375 1085.523438 870.753906 1084.109375 C 883.488281 1083.46875 886.496094 1078.3125 890.175781 1074.414062 C 893.914062 1070.074219 898.167969 1067.207031 914.199219 1066.875 L 907.101562 1075.101562 C 919.15625 1070.410156 930.992188 1065.070312 942.714844 1059.53125 C 954.386719 1053.789062 965.695312 1047.199219 976.472656 1039.789062 C 997.632812 1024.597656 1016.15625 1005.070312 1026.394531 982.511719 C 1025.992188 985.71875 1027.683594 986.914062 1024.828125 990.867188 C 1027.371094 989.40625 1029.710938 986.449219 1032.089844 983.019531 C 1034.472656 979.601562 1036.632812 975.558594 1038.117188 971.511719 C 1041.414062 963.636719 1042.402344 956.097656 1040.75 955.300781 C 1044.238281 948.324219 1044.503906 954.949219 1048.164062 951.164062 C 1051.257812 946.453125 1052.445312 939.441406 1052.8125 932.984375 C 1053.285156 926.527344 1053.546875 920.925781 1056.070312 918.261719 C 1056.609375 917.707031 1056.839844 919.125 1056.933594 920.796875 C 1057.160156 916.414062 1058.367188 910.046875 1058.277344 904.496094 C 1058.617188 897.566406 1057.664062 892.519531 1055.207031 896.097656 C 1056.265625 886.058594 1054.757812 876.25 1052.023438 867.539062 C 1051.375 865.355469 1050.734375 863.199219 1050.105469 861.074219 C 1049.355469 859.003906 1048.617188 856.964844 1047.894531 854.957031 C 1046.628906 850.863281 1045.265625 847.011719 1044.261719 843.09375 C 1041.890625 841.320312 1040.03125 838.484375 1038.035156 835.425781 C 1036.101562 832.34375 1034.519531 828.664062 1032.519531 825.574219 C 1028.832031 819.113281 1024.765625 813.984375 1020.617188 815.386719 C 1022.46875 814.328125 1022.441406 811.921875 1021.117188 808.746094 C 1019.710938 805.683594 1016.90625 802.027344 1013.542969 798.300781 C 1010 794.867188 1005.953125 791.265625 1001.914062 788.609375 C 997.84375 786 994.058594 783.828125 991.160156 782.894531 C 995.847656 783.199219 984.691406 774.804688 990.4375 774.675781 C 979.570312 766.714844 968.382812 762.003906 968.105469 766.886719 C 960.546875 756.324219 948.746094 752.453125 938.578125 749.53125 C 928.324219 746.574219 919.535156 744.339844 915.71875 735.980469 C 878.8125 726.578125 845.011719 721.71875 812.292969 718.3125 C 813.554688 714.1875 822.605469 715.5625 831.328125 716.96875 C 840.039062 718.449219 848.417969 720.027344 848.714844 715.550781 C 816.820312 712.199219 798.128906 716.691406 767.683594 711.660156 C 759.800781 709.871094 772.523438 708.382812 775.394531 707.320312 C 744.015625 707.539062 714.871094 702.855469 687.183594 708.289062 C 687.234375 707.503906 690.195312 706.570312 693.011719 705.855469 C 687.546875 706.222656 680.214844 705.023438 681.011719 708.855469 L 686.289062 707.582031 C 695.082031 712.75 665.285156 720.089844 664.671875 723.3125 C 673.03125 711.574219 637.511719 722.847656 650.808594 707.761719 C 647.273438 708.847656 642.964844 711.136719 644.054688 713.589844 C 638.691406 713.40625 636.8125 712.105469 641.90625 708.640625 C 622.597656 712.914062 630.078125 716.152344 612.574219 718.582031 C 612.347656 716.75 615.765625 715.445312 617.273438 713.035156 C 608.871094 718.015625 600.679688 722.917969 585.757812 724.3125 C 586.292969 723.289062 585.136719 722.382812 587.003906 721.636719 C 577.113281 724.074219 568.707031 727.59375 560.464844 731.324219 C 560.859375 728.75 561.386719 726.269531 562.175781 723.988281 L 564.769531 726.390625 C 564.511719 721 560.085938 716.457031 563.925781 709.996094 C 565.023438 710.492188 566.394531 712.496094 566.890625 710.035156 C 566.609375 708.5625 565.882812 704.839844 565.546875 700.570312 C 565.273438 696.316406 565.714844 691.554688 567.140625 688.140625 L 569.078125 694.78125 C 571.246094 687.96875 572.386719 681.863281 573.320312 676.117188 C 574.058594 670.339844 574.289062 664.894531 574.625 659.542969 C 574.957031 648.777344 575.175781 638.203125 578.714844 626.335938 C 582.527344 627.847656 587.203125 623.554688 591.554688 617.738281 C 596.152344 612.003906 600.601562 604.75 603.613281 599.960938 L 604.472656 600.820312 C 620.339844 571.648438 626.289062 547.605469 642.472656 519.765625 C 660.769531 508.957031 687.453125 469.523438 712.890625 449.566406 C 708.550781 452.160156 708.710938 444.539062 712.21875 439.964844 C 718.699219 435.792969 722.851562 421.140625 727.335938 427.300781 L 725.347656 429.109375 C 734.542969 430.273438 743.867188 417.925781 753.003906 410.027344 L 747.730469 401.496094 C 756.015625 398.730469 763.578125 393.511719 770.925781 387.445312 C 778.390625 381.519531 785.433594 374.527344 792.128906 367.769531 C 805.503906 354.273438 818.261719 342.527344 828.835938 342.070312 C 833.230469 335.300781 840.992188 329.835938 845.554688 323.265625 L 848.386719 327.738281 C 866.011719 316 875.167969 310.730469 895.847656 294.675781 L 893.613281 300.84375 C 905.847656 292.777344 900.636719 277.921875 911.933594 270.042969 L 919.644531 274.398438 C 930.375 267.21875 942.5 262.121094 953.863281 255.972656 C 965.332031 249.972656 976.511719 243.683594 985.765625 234.136719 C 985.964844 235.351562 986.425781 237.71875 982.976562 240.082031 C 988.214844 237.019531 999.214844 232.757812 1007.636719 228.105469 C 1011.859375 225.792969 1015.464844 223.421875 1017.472656 221.15625 C 1020.371094 218.726562 1021.675781 216.574219 1020.128906 215.0625 C 1023.53125 216.035156 1032.613281 211.582031 1042.394531 205.691406 C 1047.957031 202.335938 1053.617188 198.570312 1058.601562 195.066406 C 1064.707031 191.480469 1070.070312 188.179688 1074.097656 185.605469 C 1075.992188 186.667969 1077.730469 187.78125 1079.328125 188.949219 C 1084.050781 183.433594 1084.226562 181.023438 1086.449219 178.390625 C 1087.503906 177.09375 1088.953125 175.785156 1091.246094 174.183594 C 1093.628906 172.597656 1097.011719 170.742188 1101.511719 168.375 C 1108.15625 166.308594 1116.597656 165.96875 1109.863281 168.339844 C 1120.671875 164.882812 1121.34375 163.414062 1121.503906 162.097656 L 1121.546875 161.90625 C 1122.960938 161.941406 1124.265625 161.964844 1125.710938 162.007812 L 1133.320312 162.296875 L 1134.273438 162.34375 C 1134.613281 162.351562 1134.050781 162.671875 1133.984375 162.820312 L 1132.863281 163.972656 L 1130.550781 166.316406 C 1127.398438 169.464844 1123.960938 172.742188 1120.304688 175.964844 C 1116.65625 179.183594 1112.800781 182.34375 1108.960938 185.125 C 1107.042969 186.511719 1105.128906 187.804688 1103.269531 188.945312 L 1100.519531 190.53125 L 1099.183594 191.226562 C 1098.71875 191.472656 1097.835938 192.105469 1097.175781 192.519531 C 1084.761719 201.558594 1086.589844 205.875 1082.15625 214.6875 L 1075.882812 212.878906 L 1068.839844 228.511719 C 1055.800781 247.445312 1031.003906 245.386719 1016.539062 271.507812 L 1021.835938 271.707031 C 1013.90625 278.238281 999.859375 295.644531 998.074219 291.328125 C 997.792969 292.546875 998.371094 296.476562 994.097656 297.808594 L 991.828125 295.90625 L 977.089844 316.851562 C 961.464844 328.742188 971.179688 306.347656 950.132812 325.53125 C 943.242188 333.632812 934.246094 352.421875 938.5 351.097656 C 941.703125 348.265625 947.691406 344.90625 949.980469 346.804688 L 944.03125 354.5625 C 948.804688 361.996094 949.617188 373.472656 971.035156 361.496094 L 979.328125 346.3125 L 986.117188 345.671875 L 976.214844 355.433594 C 984.691406 352.847656 985.882812 346.890625 988.269531 341.308594 C 990.789062 342.003906 993.558594 341.53125 996.515625 339.875 L 1002.523438 322.746094 C 1006.308594 323.835938 1001.925781 332.597656 1011.125 326.457031 C 1013.964844 318.457031 1000.550781 326 1007.921875 315.515625 C 1016.398438 312.910156 1016.949219 316.8125 1021.34375 308.003906 C 1023.839844 308.714844 1023.402344 311.09375 1021.414062 314.332031 C 1025.546875 306.71875 1036.480469 298.472656 1036.378906 292.210938 C 1045.722656 290.050781 1055.726562 272.101562 1060.824219 278.59375 C 1061.34375 275.386719 1066.914062 263.921875 1072.179688 258.453125 C 1068.921875 275.097656 1093.175781 239.324219 1097.796875 249.472656 C 1098.460938 242.746094 1104.503906 235.660156 1111.601562 228.25 C 1115.148438 224.542969 1118.960938 220.757812 1122.5 216.894531 C 1123.941406 215.375 1125.371094 213.871094 1126.78125 212.378906 C 1128.230469 210.792969 1129.660156 209.230469 1131.070312 207.6875 C 1133.808594 204.601562 1136.289062 201.613281 1138.351562 198.808594 C 1137.898438 200.207031 1136.828125 203.183594 1134.417969 204.851562 C 1147.605469 193.351562 1154.570312 190.414062 1165.765625 182.089844 C 1157.945312 179.589844 1173.101562 162.351562 1172.746094 156.496094 C 1186.0625 148.476562 1189.003906 148.5625 1189.636719 150.894531 C 1190.46875 153.027344 1189.152344 157.234375 1198.035156 153.3125 C 1192.113281 154.933594 1196.164062 148.894531 1199.253906 143.992188 C 1200.828125 141.515625 1202.210938 139.265625 1202.171875 138.214844 Z M 973.695312 128.015625 C 973.207031 127.808594 972.738281 127.609375 972.089844 127.371094 C 973.144531 127.5 974.183594 127.675781 975.238281 127.8125 C 974.726562 127.886719 974.222656 127.976562 973.695312 128.015625 Z M 980.199219 119.398438 C 976.988281 119.34375 974.246094 119.449219 971.742188 119.644531 C 972.058594 119.132812 972.433594 118.660156 972.945312 118.257812 C 977.925781 117.328125 979.632812 118.304688 980.339844 119.386719 C 980.296875 119.390625 980.242188 119.398438 980.199219 119.398438 Z M 525.074219 773.054688 C 523.273438 772.46875 522.226562 771.535156 524.042969 770.882812 C 524.4375 770.785156 524.738281 770.707031 525.113281 770.609375 C 525.101562 771.425781 525.089844 772.238281 525.074219 773.054688 Z M 565.140625 758.285156 C 576.148438 757.820312 568.757812 763.417969 565.15625 766.199219 C 579.488281 757.894531 594.722656 762.175781 603.632812 761.257812 L 595.804688 764.582031 C 600.476562 762.613281 604.484375 761.84375 608.566406 761.113281 L 603.089844 757.636719 C 608.050781 757.40625 612.191406 756.875 612.398438 758.667969 C 616.953125 754.992188 607.285156 752.046875 616.726562 746.496094 C 623.605469 747.589844 636.578125 741.285156 639.5625 746.835938 C 619.9375 747.496094 639.714844 751.773438 628.074219 754.976562 C 630.816406 754.359375 633.886719 753.972656 637.617188 754.058594 C 638.429688 754.613281 637.070312 755.359375 635.785156 755.871094 C 655.933594 758.964844 643.992188 747.988281 664.640625 746.46875 C 662.292969 750.007812 669.839844 752.28125 673.125 751.457031 C 664.894531 751.925781 668.757812 746.136719 676.300781 743.226562 C 689.691406 745.042969 690.675781 740.730469 697.691406 740.792969 L 689.675781 739.792969 C 692.28125 736.492188 699.003906 736.507812 708.378906 735.550781 C 708.671875 736.496094 707.597656 736.984375 706.292969 737.28125 C 716.152344 734.761719 727.960938 744.152344 741.007812 741.3125 C 747.542969 743.890625 741.335938 747.550781 747.046875 749.363281 C 763.304688 746.171875 763.871094 755.078125 780.792969 753.320312 C 776.515625 748.464844 775.496094 749.210938 787.824219 746.476562 C 778.503906 746.273438 769.183594 746.402344 759.898438 746.703125 C 765.988281 744.9375 772.105469 743.515625 778.300781 741.964844 C 769.894531 740.945312 760.328125 742.996094 755.359375 741.914062 C 764.148438 738.957031 763.234375 739.992188 759.464844 736 C 770.410156 743.496094 782.847656 734.289062 795.679688 740.550781 L 793.746094 751.40625 C 812.445312 759.097656 829.542969 751.367188 854.027344 760.375 L 846.453125 756.539062 C 850.910156 753.03125 862.085938 759.871094 870.582031 760.542969 C 868.792969 763.839844 873.375 766.671875 876.027344 769.90625 C 876.535156 767.054688 893.519531 776.007812 898.238281 770.078125 L 907.082031 778.746094 C 911.570312 781.242188 915.398438 782.449219 918.929688 783.035156 C 922.386719 783.742188 925.566406 783.792969 928.773438 783.828125 C 932.007812 783.820312 935.148438 783.976562 938.609375 784.738281 C 942.078125 785.484375 945.847656 786.855469 949.949219 789.746094 C 942.765625 790.230469 949.230469 796.761719 936.441406 792.960938 C 942.214844 795.953125 946.636719 799.722656 948.113281 797.519531 C 950.167969 801.183594 965.960938 803.144531 968.621094 809.664062 C 971.808594 809.953125 974.84375 807.5625 980.335938 812.515625 C 980.464844 813.59375 979.125 813.878906 979.125 813.878906 C 980.4375 812.335938 989.25 819.820312 987.296875 812.375 C 991.167969 823.433594 1000.457031 833.3125 1007.96875 844.441406 C 1015.535156 855.351562 1020.589844 867.996094 1017.261719 876.96875 C 1018.519531 880.03125 1018.894531 883.460938 1019.800781 886.894531 C 1020.410156 890.367188 1020.730469 893.980469 1021.0625 897.570312 C 1021.289062 904.78125 1020.757812 911.964844 1019.519531 918.066406 C 1018.621094 917.054688 1017.78125 917.644531 1018.640625 915.453125 C 1014.972656 923.285156 1016.96875 926.425781 1018.328125 930.097656 C 1019.761719 933.691406 1021.332031 938.050781 1015.25 946.746094 C 1005.722656 953.738281 1016.617188 935.570312 1011.980469 940.582031 C 1005.8125 939.503906 1004.144531 944.914062 1001.488281 951.753906 C 1000.367188 955.242188 998.859375 958.976562 996.851562 962.34375 C 995.867188 964.03125 994.777344 965.636719 993.527344 967.035156 C 992.171875 968.355469 990.667969 969.480469 988.988281 970.300781 L 990.261719 967.316406 C 985.679688 970.226562 983.171875 975.75 979.796875 981.957031 C 976.53125 988.183594 972.4375 995.222656 965.871094 1000.355469 C 965.871094 1000.355469 965.765625 999.015625 964.742188 998.914062 C 960.558594 1011.09375 943.054688 1025.808594 928.078125 1033.644531 C 930.925781 1027.207031 933.796875 1028.144531 929.023438 1025.15625 C 922.695312 1028.882812 934.417969 1031.429688 920.921875 1038.429688 C 915.359375 1037.773438 904.457031 1038.894531 901.773438 1034.113281 C 906.183594 1033.023438 910.34375 1031.222656 914.628906 1029.820312 C 910.195312 1027.699219 906.292969 1029.285156 902.261719 1031.089844 C 898.25 1032.859375 894.332031 1035.542969 890.667969 1035.546875 L 890.953125 1032.535156 C 881.074219 1035.121094 876.117188 1037.601562 870.832031 1040.1875 C 865.523438 1042.53125 859.789062 1044.792969 848.230469 1044.621094 C 849.023438 1045.394531 849.824219 1046.058594 850.628906 1046.785156 C 837.664062 1053.816406 840.125 1042.714844 827.136719 1047.089844 C 826.074219 1044.527344 825.042969 1042.058594 824.054688 1039.429688 C 815.808594 1040.46875 794.109375 1042.347656 778.898438 1039.332031 C 788.664062 1036.695312 806.34375 1037.40625 817.242188 1035.546875 C 813.234375 1035.132812 806.464844 1033.949219 800.046875 1033.378906 C 793.667969 1032.558594 787.597656 1032.339844 785.082031 1033.433594 C 788.464844 1033.699219 792.941406 1032.746094 795.863281 1034.582031 C 784.808594 1038.214844 770.679688 1037.296875 754.871094 1031.386719 C 756.796875 1028.292969 755.277344 1025.601562 751.878906 1023.101562 C 748.554688 1020.390625 743.253906 1018.011719 737.660156 1015.144531 C 726.367188 1009.683594 713.753906 1002.453125 711.476562 994.742188 C 697.8125 989.796875 686.113281 981.269531 675.105469 971.355469 C 664.125 961.328125 653.859375 949.925781 642.160156 938.28125 C 642.363281 954.5 635.175781 931.523438 628.265625 940.59375 C 622.515625 935.109375 620.621094 932.679688 620.683594 931.65625 L 621.421875 933.222656 C 621.121094 932.535156 620.953125 932.152344 620.695312 931.570312 L 620.667969 931.59375 C 617.308594 923.898438 614.117188 916.292969 611.433594 908.539062 C 610.851562 902.113281 617.820312 913.03125 619.433594 910.910156 C 610.289062 896.847656 619.117188 902.445312 615.589844 891.738281 C 613.464844 895.855469 607.375 890.191406 604.011719 881.191406 C 604.804688 885.847656 605.445312 890.695312 606.554688 895.359375 C 597.691406 887.003906 597.089844 881.253906 596.878906 875.644531 C 596.738281 872.828125 596.617188 870.042969 595.507812 866.859375 C 594.488281 863.621094 592.648438 859.929688 588.761719 855.273438 L 595.15625 860.410156 C 591.617188 855.535156 587.105469 845.539062 582.734375 835.492188 C 580.394531 830.515625 578.183594 825.484375 575.773438 821.121094 C 573.214844 816.800781 570.777344 813.054688 567.84375 810.683594 C 568.613281 808.261719 570.992188 804.859375 573.035156 809.789062 C 570.265625 795.789062 565.25 780.511719 562.433594 765.257812 C 562.082031 763.449219 561.761719 761.644531 561.46875 759.847656 C 562.511719 759.425781 563.679688 758.933594 565.140625 758.285156 Z M 1035.175781 126.859375 C 1034.886719 126.40625 1034.363281 126.050781 1033.648438 125.769531 C 1038.132812 125.988281 1042.144531 126.402344 1045.988281 126.828125 C 1042.503906 126.902344 1038.886719 126.882812 1035.175781 126.859375 Z M 1035.175781 126.859375 " fill-opacity="1" fill-rule="nonzero"/></g><path fill="#1d1d1b" d="M 324.296875 1072.621094 C 324.191406 1073.171875 324.078125 1073.675781 323.8125 1074.050781 C 323.980469 1073.589844 324.140625 1073.558594 324.296875 1073.257812 Z M 324.296875 1072.621094 " fill-opacity="1" fill-rule="nonzero"/><path fill="#1d1d1b" d="M 795.21875 308.492188 L 796.070312 309.5 L 797.476562 306.894531 Z M 795.21875 308.492188 " fill-opacity="1" fill-rule="nonzero"/><path fill="#1d1d1b" d="M 387.75 1227.585938 C 387.636719 1228.140625 387.734375 1228.9375 388.320312 1230.15625 C 388.503906 1229.847656 388.183594 1228.804688 387.75 1227.585938 Z M 387.75 1227.585938 " fill-opacity="1" fill-rule="nonzero"/><path fill="#1d1d1b" d="M 442.117188 1278.164062 L 449.433594 1285.960938 C 446.402344 1282.375 444.058594 1279.988281 442.117188 1278.164062 Z M 442.117188 1278.164062 " fill-opacity="1" fill-rule="nonzero"/><path fill="#1d1d1b" d="M 488.078125 1312.253906 C 489.171875 1311.835938 489.699219 1311.347656 490.1875 1310.898438 L 490.109375 1310.804688 Z M 488.078125 1312.253906 " fill-opacity="1" fill-rule="nonzero"/><path fill="#1d1d1b" d="M 693.011719 705.855469 C 693.785156 705.804688 694.546875 705.71875 695.226562 705.558594 C 700.414062 704.410156 696.878906 704.902344 693.011719 705.855469 Z M 693.011719 705.855469 " fill-opacity="1" fill-rule="nonzero"/><path fill="#1d1d1b" d="M 437.691406 787.699219 C 439.621094 785.398438 441.554688 783.121094 443.816406 781.042969 C 439.484375 783.226562 436.207031 785.109375 437.691406 787.699219 Z M 437.691406 787.699219 " fill-opacity="1" fill-rule="nonzero"/><path fill="#1d1d1b" d="M 990.519531 774.621094 C 990.472656 774.628906 990.492188 774.660156 990.4375 774.675781 C 991.007812 775.097656 991.507812 775.46875 992.074219 775.890625 Z M 990.519531 774.621094 " fill-opacity="1" fill-rule="nonzero"/><path fill="#1d1d1b" d="M 443.816406 781.042969 C 447.347656 779.199219 451.707031 777.472656 454.804688 774.835938 C 450.070312 776.265625 446.609375 778.398438 443.816406 781.042969 Z M 443.816406 781.042969 " fill-opacity="1" fill-rule="nonzero"/><g clip-path="url(#1264a3bd1c)"><path fill="#1d1d1b" d="M 727.039062 1385.058594 C 726.988281 1384.710938 727.148438 1384.429688 727.363281 1384.214844 L 724.207031 1384.835938 Z M 727.039062 1385.058594 " fill-opacity="1" fill-rule="nonzero"/></g><path fill="#1d1d1b" d="M 730.484375 1383.601562 C 729.046875 1383.601562 727.800781 1383.640625 727.363281 1384.214844 Z M 730.484375 1383.601562 " fill-opacity="1" fill-rule="nonzero"/><path fill="#1d1d1b" d="M 737.027344 1382.027344 C 734.847656 1382.660156 732.667969 1383.214844 730.484375 1383.601562 C 732.757812 1383.683594 735.597656 1383.652344 737.027344 1382.027344 Z M 737.027344 1382.027344 " fill-opacity="1" fill-rule="nonzero"/><path fill="#1d1d1b" d="M 648.101562 1374.640625 L 646.867188 1376.34375 C 647.417969 1376.042969 647.839844 1375.5 648.101562 1374.640625 Z M 648.101562 1374.640625 " fill-opacity="1" fill-rule="nonzero"/><path fill="#1d1d1b" d="M 625.417969 1370.042969 C 630.675781 1371.648438 637.90625 1377.566406 645.859375 1377.6875 L 646.867188 1376.34375 C 642.597656 1378.648438 631.222656 1368.160156 625.417969 1370.042969 Z M 625.417969 1370.042969 " fill-opacity="1" fill-rule="nonzero"/><path fill="#1d1d1b" d="M 563.949219 1320.738281 C 554.445312 1313.621094 555.207031 1314.929688 555.421875 1317.070312 C 555.675781 1319.164062 555.582031 1321.808594 544.789062 1316.289062 C 550.136719 1319.386719 555.5 1322.503906 561.0625 1325.207031 C 558.84375 1322.109375 556.046875 1318.015625 563.949219 1320.738281 Z M 563.949219 1320.738281 " fill-opacity="1" fill-rule="nonzero"/><path fill="#1d1d1b" d="M 495.886719 1286.742188 C 504.835938 1290.984375 497.308594 1284.167969 498.367188 1283.46875 C 492.070312 1281.867188 490.492188 1281.46875 495.886719 1286.742188 Z M 495.886719 1286.742188 " fill-opacity="1" fill-rule="nonzero"/><path fill="#1d1d1b" d="M 336.375 948.660156 L 340.628906 951.019531 C 342.1875 943.792969 338.894531 950.382812 336.375 948.660156 Z M 336.375 948.660156 " fill-opacity="1" fill-rule="nonzero"/><path fill="#1d1d1b" d="M 348.816406 865.386719 L 341.847656 870.386719 L 343.585938 875.972656 C 345.089844 872.3125 347.042969 868.921875 348.816406 865.386719 Z M 348.816406 865.386719 " fill-opacity="1" fill-rule="nonzero"/><path fill="#1d1d1b" d="M 410.308594 844.085938 C 408.347656 846.332031 406.417969 848.589844 404.664062 850.996094 L 402.96875 853.714844 C 405.308594 850.445312 407.679688 847.167969 410.308594 844.085938 Z M 410.308594 844.085938 " fill-opacity="1" fill-rule="nonzero"/><path fill="#1d1d1b" d="M 1012.589844 861.441406 C 1009.675781 857.628906 1003.449219 859.699219 1007.921875 865.472656 C 1009.574219 864.144531 1011.058594 862.820312 1012.589844 861.441406 Z M 1012.589844 861.441406 " fill-opacity="1" fill-rule="nonzero"/><path fill="#1d1d1b" d="M 850.820312 1041.28125 C 847.628906 1038.417969 839.808594 1036.335938 834.699219 1038.898438 C 841.070312 1039.660156 847.515625 1042.109375 850.820312 1041.28125 Z M 850.820312 1041.28125 " fill-opacity="1" fill-rule="nonzero"/><path fill="#1d1d1b" d="M 767.875 393.324219 L 763.765625 396.703125 L 760.699219 402.242188 Z M 767.875 393.324219 " fill-opacity="1" fill-rule="nonzero"/></svg>