<svg xmlns="http://www.w3.org/2000/svg" xmlns:xlink="http://www.w3.org/1999/xlink" width="2000" zoomAndPan="magnify" viewBox="0 0 1500 1499.999933" height="2000" preserveAspectRatio="xMidYMid meet" version="1.0"><defs><clipPath id="a9b4fbed3c"><path d="M 16.34375 10.976562 L 1483.34375 10.976562 L 1483.34375 1499.726562 L 16.34375 1499.726562 Z M 16.34375 10.976562 " clip-rule="nonzero"/></clipPath></defs><g clip-path="url(#a9b4fbed3c)"><path fill="#000000" d="M 1323.078125 755.484375 C 1420.804688 679.351562 1483.648438 560.582031 1483.648438 427.085938 C 1483.648438 197.300781 1297.386719 10.980469 1067.542969 10.980469 C 940.25 10.980469 826.296875 68.121094 749.996094 158.210938 C 673.699219 68.121094 559.746094 10.980469 432.449219 10.980469 C 202.609375 10.980469 16.34375 197.246094 16.34375 427.085938 C 16.34375 560.582031 79.191406 679.351562 176.917969 755.484375 C 79.191406 831.617188 16.34375 950.386719 16.34375 1083.882812 C 16.34375 1313.671875 202.609375 1499.988281 432.449219 1499.988281 C 559.746094 1499.988281 673.699219 1442.847656 749.996094 1352.761719 C 826.296875 1442.847656 940.25 1499.988281 1067.542969 1499.988281 C 1297.328125 1499.988281 1483.648438 1313.726562 1483.648438 1083.882812 C 1483.648438 950.386719 1420.804688 831.617188 1323.078125 755.484375 Z M 1323.078125 755.484375 " fill-opacity="1" fill-rule="nonzero"/></g></svg>