<svg xmlns="http://www.w3.org/2000/svg" xmlns:xlink="http://www.w3.org/1999/xlink" width="2000" zoomAndPan="magnify" viewBox="0 0 1500 1499.999933" height="2000" preserveAspectRatio="xMidYMid meet" version="1.0"><defs><g/><clipPath id="1b7388a052"><path d="M 41.464844 41.464844 L 1458.214844 41.464844 L 1458.214844 1458.214844 L 41.464844 1458.214844 Z M 41.464844 41.464844 " clip-rule="nonzero"/></clipPath><clipPath id="d535479753"><rect x="0" width="1275" y="0" height="1270"/></clipPath></defs><g clip-path="url(#1b7388a052)"><path stroke-linecap="butt" transform="matrix(2.776852, 0, 0, 2.776852, 41.463447, 41.741194)" fill="none" stroke-linejoin="miter" d="M 504.691856 255.000513 C 504.691856 259.082811 504.591979 263.163703 504.390818 267.241781 C 504.191064 271.321266 503.890026 275.39231 503.490518 279.454914 C 503.089603 283.518925 502.590218 287.570276 501.990956 291.608966 C 501.391693 295.647655 500.692554 299.670872 499.896351 303.674394 C 499.098742 307.679322 498.204068 311.66315 497.212332 315.623064 C 496.219188 319.584384 495.130388 323.518977 493.944524 327.425435 C 492.75866 331.333301 491.477139 335.208811 490.101368 339.053374 C 488.725596 342.897937 487.255575 346.707331 485.69271 350.480151 C 484.129846 354.251565 482.474138 357.98359 480.728399 361.67482 C 478.981255 365.366051 477.145486 369.012266 475.219688 372.613467 C 473.29389 376.214667 471.282282 379.766632 469.182051 383.267956 C 467.081819 386.770686 464.897185 390.21996 462.626741 393.614373 C 460.357703 397.010193 458.007076 400.34693 455.573452 403.627398 C 453.139828 406.90646 450.627428 410.125033 448.036252 413.28171 C 445.445076 416.436981 442.777937 419.528949 440.034835 422.553394 C 437.291733 425.579247 434.475482 428.53617 431.587488 431.422757 C 428.698088 434.310751 425.741164 437.125595 422.713905 439.867291 C 419.688053 442.608986 416.596085 445.276125 413.438001 447.865894 C 410.279917 450.45707 407.061344 452.968064 403.779469 455.400281 C 400.499 457.832498 397.160857 460.183125 393.76363 462.452162 C 390.367811 464.719793 386.91713 466.904428 383.414399 469.003252 C 379.910263 471.102077 376.356891 473.115092 372.754284 475.039483 C 369.151677 476.963875 365.504054 478.799643 361.811417 480.545381 C 358.11878 482.291119 354.385348 483.945421 350.612528 485.508285 C 346.838301 487.07115 343.028907 488.539764 339.182937 489.915536 C 335.335561 491.291307 331.458644 492.571421 327.549372 493.755878 C 323.641507 494.941742 319.705507 496.030543 315.74278 497.022279 C 311.780053 498.015423 307.796225 498.908689 303.78989 499.706299 C 299.783554 500.502502 295.760338 501.200235 291.718835 501.799497 C 287.678738 502.398759 283.625981 502.898144 279.560563 503.299059 C 275.495146 503.698567 271.422694 503.999605 267.34321 504.199359 C 263.263725 504.399113 259.181427 504.500397 255.096315 504.500397 C 251.011203 504.500397 246.928905 504.399113 242.84942 504.199359 C 238.768529 503.999605 234.696077 503.698567 230.63066 503.299059 C 226.566649 502.898144 222.513892 502.398759 218.472388 501.799497 C 214.432292 501.200235 210.409076 500.502502 206.40274 499.706299 C 202.396405 498.908689 198.41117 498.015423 194.448443 497.022279 C 190.487123 496.030543 186.551123 494.941742 182.641851 493.755878 C 178.732579 492.571421 174.855662 491.291307 171.009693 489.915536 C 167.163723 488.539764 163.352922 487.07115 159.580102 485.508285 C 155.805875 483.945421 152.072443 482.291119 148.379806 480.545381 C 144.687169 478.799643 141.039546 476.963875 137.436939 475.039483 C 133.834332 473.115092 130.28096 471.102077 126.77823 469.003252 C 123.274093 466.904428 119.824819 464.719793 116.427593 462.452162 C 113.031773 460.183125 109.692223 457.832498 106.411754 455.400281 C 103.131286 452.968064 99.911306 450.45707 96.754629 447.865894 C 93.596545 445.276125 90.504577 442.608986 87.477318 439.867291 C 84.451465 437.125595 81.493135 434.310751 78.605142 431.422757 C 75.717148 428.53617 72.900896 425.579247 70.157795 422.553394 C 67.414693 419.528949 64.747554 416.436981 62.156377 413.28171 C 59.563795 410.125033 57.051395 406.90646 54.619178 403.627398 C 52.185554 400.34693 49.83352 397.010193 47.564482 393.614373 C 45.295445 390.21996 43.11081 386.770686 41.010579 383.267956 C 38.910348 379.766632 36.897333 376.214667 34.971535 372.613467 C 33.045737 369.012266 31.209968 365.366051 29.46423 361.67482 C 27.717085 357.98359 26.062784 354.251565 24.499919 350.480151 C 22.935648 346.707331 21.467033 342.897937 20.089855 339.053374 C 18.714084 335.208811 17.43397 331.333301 16.248106 327.425435 C 15.062242 323.518977 13.972035 319.584384 12.980298 315.623064 C 11.987155 311.66315 11.092481 307.679322 10.296278 303.674394 C 9.498669 299.670872 8.800936 295.647655 8.201674 291.608966 C 7.602412 287.570276 7.10162 283.518925 6.702112 279.454914 C 6.301197 275.39231 6.001566 271.321266 5.800405 267.241781 C 5.600651 263.163703 5.499367 259.082811 5.499367 255.000513 C 5.499367 250.916808 5.600651 246.835916 5.800405 242.757838 C 6.001566 238.67976 6.301197 234.608716 6.702112 230.544705 C 7.10162 226.480694 7.602412 222.429343 8.201674 218.390654 C 8.800936 214.351964 9.498669 210.330154 10.296278 206.325226 C 11.092481 202.320297 11.987155 198.337876 12.980298 194.376555 C 13.972035 190.415235 15.062242 186.482049 16.248106 182.574184 C 17.43397 178.666319 18.714084 174.790808 20.089855 170.946245 C 21.467033 167.101682 22.935648 163.292288 24.499919 159.520874 C 26.062784 155.748054 27.717085 152.016029 29.46423 148.324799 C 31.209968 144.633568 33.045737 140.987353 34.971535 137.386152 C 36.897333 133.784952 38.910348 130.232987 41.010579 126.731663 C 43.11081 123.228933 45.295445 119.779659 47.564482 116.385246 C 49.83352 112.989427 52.185554 109.652689 54.619178 106.373628 C 57.051395 103.093159 59.563795 99.874586 62.156377 96.719316 C 64.747554 93.562639 67.414693 90.472077 70.157795 87.446225 C 72.900896 84.420372 75.717148 81.463449 78.605142 78.576862 C 81.493135 75.688868 84.451465 72.87543 87.477318 70.132329 C 90.504577 67.390633 93.596545 64.724901 96.754629 62.133725 C 99.911306 59.543955 103.131286 57.031555 106.411754 54.599338 C 109.692223 52.167121 113.031773 49.816494 116.427593 47.548863 C 119.824819 45.279826 123.274093 43.096598 126.77823 40.996367 C 130.28096 38.897542 133.834332 36.885934 137.436939 34.960136 C 141.039546 33.035744 144.687169 31.199976 148.379806 29.454238 C 152.072443 27.7085 155.805875 26.054199 159.580102 24.492741 C 163.352922 22.929876 167.163723 21.459855 171.009693 20.084084 C 174.855662 18.709719 178.732579 17.428198 182.641851 16.243741 C 186.551123 15.057877 190.487123 13.969076 194.448443 12.97734 C 198.41117 11.985603 202.396405 11.09093 206.40274 10.294727 C 210.409076 9.497117 214.432292 8.799384 218.472388 8.200122 C 222.513892 7.60086 226.566649 7.101475 230.63066 6.701967 C 234.696077 6.301052 238.768529 6.001421 242.84942 5.80026 C 246.928905 5.600506 251.011203 5.500629 255.096315 5.500629 C 259.181427 5.500629 263.263725 5.600506 267.34321 5.80026 C 271.422694 6.001421 275.495146 6.301052 279.560563 6.701967 C 283.625981 7.101475 287.678738 7.60086 291.718835 8.200122 C 295.760338 8.799384 299.783554 9.497117 303.78989 10.294727 C 307.796225 11.09093 311.780053 11.985603 315.74278 12.97734 C 319.705507 13.969076 323.641507 15.057877 327.549372 16.243741 C 331.458644 17.428198 335.336968 18.709719 339.182937 20.084084 C 343.028907 21.459855 346.838301 22.929876 350.612528 24.492741 C 354.386755 26.054199 358.11878 27.7085 361.811417 29.454238 C 365.504054 31.199976 369.151677 33.035744 372.754284 34.960136 C 376.356891 36.885934 379.910263 38.897542 383.414399 40.996367 C 386.91713 43.096598 390.367811 45.279826 393.76363 47.548863 C 397.160857 49.816494 400.499 52.167121 403.779469 54.599338 C 407.061344 57.031555 410.279917 59.543955 413.438001 62.133725 C 416.596085 64.724901 419.688053 67.390633 422.713905 70.132329 C 425.741164 72.87543 428.698088 75.688868 431.587488 78.576862 C 434.475482 81.463449 437.291733 84.420372 440.034835 87.446225 C 442.777937 90.472077 445.445076 93.562639 448.036252 96.719316 C 450.627428 99.874586 453.139828 103.093159 455.573452 106.373628 C 458.007076 109.652689 460.357703 112.989427 462.626741 116.385246 C 464.897185 119.779659 467.081819 123.228933 469.182051 126.731663 C 471.282282 130.232987 473.29389 133.784952 475.219688 137.386152 C 477.145486 140.987353 478.981255 144.633568 480.728399 148.324799 C 482.474138 152.016029 484.129846 155.748054 485.69271 159.520874 C 487.255575 163.292288 488.725596 167.101682 490.101368 170.946245 C 491.477139 174.790808 492.75866 178.666319 493.944524 182.574184 C 495.130388 186.482049 496.219188 190.415235 497.212332 194.376555 C 498.204068 198.337876 499.098742 202.320297 499.896351 206.325226 C 500.692554 210.330154 501.391693 214.351964 501.990956 218.390654 C 502.590218 222.429343 503.089603 226.480694 503.490518 230.544705 C 503.890026 234.608716 504.191064 238.67976 504.390818 242.757838 C 504.591979 246.835916 504.691856 250.916808 504.691856 255.000513 Z M 504.691856 255.000513 " stroke="#000000" stroke-width="11" stroke-opacity="1" stroke-miterlimit="10"/></g><g transform="matrix(1, 0, 0, 1, 113, 114)"><g clip-path="url(#d535479753)"><g fill="#000000" fill-opacity="1"><g transform="translate(599.384809, 1126.861788)"><g><path d="M -109.234375 -25 L -123.65625 38.765625 L -80.390625 -6.59375 L -69.328125 -4.0625 L -49.921875 54.203125 L -35.65625 -8.15625 L -12.59375 -2.875 L -36.890625 103.328125 L -57.234375 98.671875 L -81.875 23.578125 L -136.109375 80.625 L -156.296875 76 L -132.296875 -30.265625 Z M -109.234375 -25 "/></g></g></g><g fill="#000000" fill-opacity="1"><g transform="translate(466.029542, 1095.962422)"><g><path d="M -85.984375 -17.921875 L -40.984375 5.203125 L -21.734375 -11.171875 L 1.25 0.640625 L -91.734375 75.375 L -113.875 64 L -107.4375 -55.1875 L -83.890625 -43.09375 Z M -87.65625 2.734375 L -91.359375 47.75 L -56.921875 18.53125 Z M -87.65625 2.734375 "/></g></g></g><g fill="#000000" fill-opacity="1"><g transform="translate(368.645864, 1047.951657)"><g><path d="M -80.46875 74.578125 L -118.140625 42.5 C -127.148438 34.820312 -133.644531 26.320312 -137.625 17 C -141.613281 7.675781 -142.863281 -1.734375 -141.375 -11.234375 C -139.894531 -20.734375 -135.625 -29.632812 -128.5625 -37.9375 C -121.5 -46.226562 -113.394531 -51.863281 -104.25 -54.84375 C -95.113281 -57.820312 -85.625 -58.085938 -75.78125 -55.640625 C -65.945312 -53.191406 -56.523438 -48.128906 -47.515625 -40.453125 L -9.84375 -8.375 Z M -60 -23.890625 C -68.289062 -30.953125 -76.867188 -34.273438 -85.734375 -33.859375 C -94.609375 -33.441406 -102.410156 -29.285156 -109.140625 -21.390625 C -115.867188 -13.484375 -118.734375 -5.117188 -117.734375 3.703125 C -116.734375 12.523438 -112.085938 20.46875 -103.796875 27.53125 L -86.25 42.46875 L -42.453125 -8.953125 Z M -60 -23.890625 "/></g></g></g><g fill="#000000" fill-opacity="1"><g transform="translate(278.736277, 971.147746)"><g><path d="M -74.875 -65.3125 L -58.75 -77.53125 L -7.796875 -10.296875 L -94.640625 55.5 L -144.359375 -10.125 L -128.234375 -22.34375 L -93.65625 23.3125 L -74.796875 9.03125 L -105.34375 -31.296875 L -89.71875 -43.140625 L -59.171875 -2.8125 L -39.0625 -18.046875 Z M -74.875 -65.3125 "/></g></g></g><g fill="#000000" fill-opacity="1"><g transform="translate(221.078759, 892.372146)"><g/></g></g><g fill="#000000" fill-opacity="1"><g transform="translate(200.0788, 861.787912)"><g><path d="M -85.625 -67.171875 C -85.96875 -73.679688 -84.59375 -79.398438 -81.5 -84.328125 C -78.40625 -89.253906 -73.703125 -92.898438 -67.390625 -95.265625 C -58.441406 -98.609375 -50.265625 -97.703125 -42.859375 -92.546875 C -35.453125 -87.398438 -29.257812 -78.175781 -24.28125 -64.875 L -4.53125 -12.109375 L -106.578125 26.078125 L -125.234375 -23.75 C -129.890625 -36.195312 -131.082031 -46.640625 -128.8125 -55.078125 C -126.539062 -63.515625 -121.320312 -69.257812 -113.15625 -72.3125 C -108.195312 -74.175781 -103.328125 -74.644531 -98.546875 -73.71875 C -93.765625 -72.789062 -89.457031 -70.609375 -85.625 -67.171875 Z M -97.5625 -4.03125 L -73.515625 -13.03125 L -82.296875 -36.5 C -84.472656 -42.332031 -87.144531 -46.375 -90.3125 -48.625 C -93.476562 -50.875 -97.0625 -51.25 -101.0625 -49.75 C -105.039062 -48.257812 -107.457031 -45.632812 -108.3125 -41.875 C -109.175781 -38.125 -108.519531 -33.332031 -106.34375 -27.5 Z M -41.40625 -56.453125 C -43.726562 -62.679688 -46.5 -66.988281 -49.71875 -69.375 C -52.945312 -71.769531 -56.703125 -72.171875 -60.984375 -70.578125 C -69.429688 -67.410156 -71.3125 -59.554688 -66.625 -47.015625 L -56.3125 -19.46875 L -31.09375 -28.90625 Z M -41.40625 -56.453125 "/></g></g></g><g fill="#000000" fill-opacity="1"><g transform="translate(161.503648, 759.641564)"><g><path d="M -47.859375 -58.765625 L -9.6875 -64.5 L -5.9375 -39.5625 L -44.40625 -33.78125 L -107.421875 18.328125 L -111.40625 -8.140625 L -67.859375 -44.109375 L -120.0625 -65.6875 L -123.734375 -90.171875 Z M -47.859375 -58.765625 "/></g></g></g><g fill="#000000" fill-opacity="1"><g transform="translate(148.526257, 662.14872)"><g/></g></g><g fill="#000000" fill-opacity="1"><g transform="translate(145.856843, 624.446701)"><g><path d="M 7.859375 -48.109375 C 6.796875 -39.566406 4.609375 -31.445312 1.296875 -23.75 C -2.003906 -16.0625 -5.8125 -10.03125 -10.125 -5.65625 L -27.921875 -16.484375 C -23.941406 -20.691406 -20.523438 -25.859375 -17.671875 -31.984375 C -14.816406 -38.117188 -12.992188 -44.378906 -12.203125 -50.765625 C -11.316406 -57.867188 -11.71875 -63.25 -13.40625 -66.90625 C -15.101562 -70.5625 -17.695312 -72.609375 -21.1875 -73.046875 C -23.757812 -73.359375 -26.019531 -72.617188 -27.96875 -70.828125 C -29.925781 -69.035156 -31.613281 -66.628906 -33.03125 -63.609375 C -34.445312 -60.597656 -36.113281 -56.488281 -38.03125 -51.28125 C -41 -43.300781 -43.785156 -36.804688 -46.390625 -31.796875 C -49.003906 -26.785156 -52.707031 -22.664062 -57.5 -19.4375 C -62.289062 -16.21875 -68.296875 -15.054688 -75.515625 -15.953125 C -81.785156 -16.734375 -87.253906 -19.140625 -91.921875 -23.171875 C -96.597656 -27.203125 -100.003906 -32.828125 -102.140625 -40.046875 C -104.273438 -47.265625 -104.734375 -55.8125 -103.515625 -65.6875 C -102.660156 -72.582031 -101 -79.222656 -98.53125 -85.609375 C -96.0625 -92.003906 -92.984375 -97.476562 -89.296875 -102.03125 L -71.234375 -91.953125 C -78.140625 -82.671875 -82.210938 -73.039062 -83.453125 -63.0625 C -84.316406 -56.0625 -83.820312 -50.742188 -81.96875 -47.109375 C -80.125 -43.484375 -77.347656 -41.441406 -73.640625 -40.984375 C -69.941406 -40.515625 -66.945312 -42.097656 -64.65625 -45.734375 C -62.375 -49.378906 -59.875 -55.054688 -57.15625 -62.765625 C -54.175781 -70.753906 -51.378906 -77.253906 -48.765625 -82.265625 C -46.148438 -87.273438 -42.5 -91.394531 -37.8125 -94.625 C -33.125 -97.863281 -27.175781 -99.035156 -19.96875 -98.140625 C -13.789062 -97.378906 -8.367188 -94.957031 -3.703125 -90.875 C 0.960938 -86.789062 4.363281 -81.113281 6.5 -73.84375 C 8.632812 -66.570312 9.085938 -57.992188 7.859375 -48.109375 Z M 7.859375 -48.109375 "/></g></g></g><g fill="#000000" fill-opacity="1"><g transform="translate(156.379892, 534.445282)"><g><path d="M -73.640625 -60.4375 L -84.125 -27.1875 L -103.71875 -33.359375 L -75.15625 -123.90625 L -55.5625 -117.734375 L -66.046875 -84.484375 L 18.265625 -57.890625 L 10.671875 -33.84375 Z M -73.640625 -60.4375 "/></g></g></g><g fill="#000000" fill-opacity="1"><g transform="translate(180.243947, 451.039896)"><g><path d="M 31.546875 -52.625 C 23.953125 -39.019531 14.28125 -30.539062 2.53125 -27.1875 C -9.207031 -23.832031 -22.050781 -26.050781 -36 -33.84375 L -89.28125 -63.59375 L -76.984375 -85.609375 L -24.53125 -56.3125 C -7.5 -46.800781 4.960938 -49.109375 12.859375 -63.234375 C 16.703125 -70.117188 17.578125 -76.523438 15.484375 -82.453125 C 13.390625 -88.378906 7.945312 -93.796875 -0.84375 -98.703125 L -53.296875 -128 L -41.15625 -149.734375 L 12.125 -119.984375 C 26.070312 -112.191406 34.691406 -102.410156 37.984375 -90.640625 C 41.285156 -78.878906 39.140625 -66.207031 31.546875 -52.625 Z M 31.546875 -52.625 "/></g></g></g><g fill="#000000" fill-opacity="1"><g transform="translate(233.358868, 352.632306)"><g><path d="M -71.453125 -83.25 L -37.96875 -119.671875 C -29.957031 -128.378906 -21.21875 -134.546875 -11.75 -138.171875 C -2.28125 -141.804688 7.171875 -142.703125 16.609375 -140.859375 C 26.054688 -139.015625 34.789062 -134.40625 42.8125 -127.03125 C 50.832031 -119.65625 56.15625 -111.34375 58.78125 -102.09375 C 61.40625 -92.84375 61.304688 -83.347656 58.484375 -73.609375 C 55.660156 -63.867188 50.242188 -54.644531 42.234375 -45.9375 L 8.75 -9.515625 Z M 26.171875 -59.046875 C 33.546875 -67.066406 37.191406 -75.515625 37.109375 -84.390625 C 37.023438 -93.265625 33.164062 -101.210938 25.53125 -108.234375 C 17.894531 -115.265625 9.644531 -118.445312 0.78125 -117.78125 C -8.070312 -117.125 -16.1875 -112.785156 -23.5625 -104.765625 L -39.171875 -87.796875 L 10.5625 -42.078125 Z M 26.171875 -59.046875 "/></g></g></g><g fill="#000000" fill-opacity="1"><g transform="translate(316.649234, 265.815213)"><g><path d="M -56.59375 -93.984375 L -36.671875 -109.4375 L 30.125 -23.375 L 10.203125 -7.921875 Z M -56.59375 -93.984375 "/></g></g></g><g fill="#000000" fill-opacity="1"><g transform="translate(348.28219, 236.084051)"><g><path d="M 58.828125 -29.265625 C 48.847656 -23.941406 38.703125 -21.296875 28.390625 -21.328125 C 18.085938 -21.359375 8.65625 -23.9375 0.09375 -29.0625 C -8.46875 -34.195312 -15.265625 -41.484375 -20.296875 -50.921875 C -25.328125 -60.347656 -27.585938 -70.046875 -27.078125 -80.015625 C -26.578125 -89.984375 -23.46875 -99.253906 -17.75 -107.828125 C -12.03125 -116.410156 -4.179688 -123.363281 5.796875 -128.6875 C 15.765625 -134.007812 25.878906 -136.644531 36.140625 -136.59375 C 46.398438 -136.539062 55.832031 -133.957031 64.4375 -128.84375 C 73.050781 -123.738281 79.875 -116.472656 84.90625 -107.046875 C 89.9375 -97.609375 92.175781 -87.894531 91.625 -77.90625 C 91.070312 -67.914062 87.957031 -58.640625 82.28125 -50.078125 C 76.613281 -41.523438 68.796875 -34.585938 58.828125 -29.265625 Z M 48.71875 -48.21875 C 54.382812 -51.238281 58.8125 -55.273438 62 -60.328125 C 65.1875 -65.378906 66.835938 -70.9375 66.953125 -77 C 67.078125 -83.0625 65.550781 -89.066406 62.375 -95.015625 C 59.195312 -100.960938 55.054688 -105.578125 49.953125 -108.859375 C 44.859375 -112.140625 39.328125 -113.863281 33.359375 -114.03125 C 27.390625 -114.195312 21.570312 -112.769531 15.90625 -109.75 C 10.226562 -106.71875 5.796875 -102.675781 2.609375 -97.625 C -0.578125 -92.570312 -2.226562 -87.015625 -2.34375 -80.953125 C -2.46875 -74.890625 -0.941406 -68.882812 2.234375 -62.9375 C 5.410156 -56.988281 9.546875 -52.375 14.640625 -49.09375 C 19.742188 -45.8125 25.28125 -44.085938 31.25 -43.921875 C 37.21875 -43.753906 43.039062 -45.1875 48.71875 -48.21875 Z M 48.71875 -48.21875 "/></g></g></g><g fill="#000000" fill-opacity="1"><g transform="translate(458.388317, 180.643023)"><g/></g></g><g fill="#000000" fill-opacity="1"><g transform="translate(492.298777, 165.567097)"><g><path d="M 81.65625 -71.953125 C 88.125 -71.097656 93.5 -68.695312 97.78125 -64.75 C 102.0625 -60.8125 104.785156 -55.523438 105.953125 -48.890625 C 107.617188 -39.484375 105.242188 -31.609375 98.828125 -25.265625 C 92.410156 -18.921875 82.203125 -14.515625 68.203125 -12.046875 L 12.71875 -2.25 L -6.21875 -109.546875 L 46.203125 -118.796875 C 59.273438 -121.097656 69.753906 -120.363281 77.640625 -116.59375 C 85.523438 -112.832031 90.222656 -106.65625 91.734375 -98.0625 C 92.648438 -92.851562 92.21875 -87.984375 90.4375 -83.453125 C 88.664062 -78.921875 85.738281 -75.085938 81.65625 -71.953125 Z M 21.75 -95.171875 L 26.21875 -69.890625 L 50.90625 -74.25 C 57.03125 -75.332031 61.484375 -77.222656 64.265625 -79.921875 C 67.054688 -82.628906 68.082031 -86.082031 67.34375 -90.28125 C 66.601562 -94.46875 64.460938 -97.328125 60.921875 -98.859375 C 57.390625 -100.390625 52.5625 -100.613281 46.4375 -99.53125 Z M 63.0625 -30.40625 C 69.613281 -31.5625 74.359375 -33.503906 77.296875 -36.234375 C 80.234375 -38.972656 81.304688 -42.585938 80.515625 -47.078125 C 78.941406 -55.960938 71.5625 -59.242188 58.375 -56.921875 L 29.40625 -51.796875 L 34.09375 -25.28125 Z M 63.0625 -30.40625 "/></g></g></g><g fill="#000000" fill-opacity="1"><g transform="translate(600.248249, 146.815162)"><g><path d="M 15.515625 -108.609375 L 40.703125 -108.015625 L 38.59375 -19.640625 L 93.21875 -18.34375 L 92.734375 2.203125 L 12.921875 0.3125 Z M 15.515625 -108.609375 "/></g></g></g><g fill="#000000" fill-opacity="1"><g transform="translate(684.640719, 145.834649)"><g><path d="M 63.46875 17.046875 C 52.457031 14.421875 43.101562 9.679688 35.40625 2.828125 C 27.707031 -4.023438 22.347656 -12.207031 19.328125 -21.71875 C 16.304688 -31.226562 16.03125 -41.179688 18.5 -51.578125 C 20.976562 -61.972656 25.710938 -70.742188 32.703125 -77.890625 C 39.691406 -85.035156 48.160156 -89.925781 58.109375 -92.5625 C 68.066406 -95.195312 78.550781 -95.203125 89.5625 -92.578125 C 100.550781 -89.960938 109.875 -85.238281 117.53125 -78.40625 C 125.195312 -71.570312 130.5625 -63.390625 133.625 -53.859375 C 136.6875 -44.328125 136.976562 -34.363281 134.5 -23.96875 C 132.03125 -13.570312 127.28125 -4.8125 120.25 2.3125 C 113.21875 9.4375 104.742188 14.328125 94.828125 16.984375 C 84.910156 19.640625 74.457031 19.660156 63.46875 17.046875 Z M 68.453125 -3.859375 C 74.703125 -2.367188 80.691406 -2.460938 86.421875 -4.140625 C 92.148438 -5.816406 97.066406 -8.882812 101.171875 -13.34375 C 105.273438 -17.8125 108.101562 -23.320312 109.65625 -29.875 C 111.21875 -36.445312 111.175781 -42.648438 109.53125 -48.484375 C 107.882812 -54.316406 104.878906 -59.269531 100.515625 -63.34375 C 96.148438 -67.414062 90.84375 -70.195312 84.59375 -71.6875 C 78.320312 -73.175781 72.320312 -73.082031 66.59375 -71.40625 C 60.875 -69.738281 55.957031 -66.675781 51.84375 -62.21875 C 47.738281 -57.757812 44.90625 -52.242188 43.34375 -45.671875 C 41.789062 -39.117188 41.835938 -32.921875 43.484375 -27.078125 C 45.140625 -21.242188 48.144531 -16.285156 52.5 -12.203125 C 56.863281 -8.128906 62.179688 -5.347656 68.453125 -3.859375 Z M 68.453125 -3.859375 "/></g></g></g><g fill="#000000" fill-opacity="1"><g transform="translate(801.58315, 170.921242)"><g><path d="M 98.625 53.1875 L 129.53125 -4.421875 L 75.75 27.765625 L 65.75 22.359375 L 62.546875 -38.9375 L 32.1875 17.359375 L 11.375 6.140625 L 63.09375 -89.75 L 81.453125 -79.859375 L 85.1875 -0.921875 L 152.671875 -41.4375 L 170.890625 -31.625 L 119.453125 64.421875 Z M 98.625 53.1875 "/></g></g></g><g fill="#000000" fill-opacity="1"><g transform="translate(922.196681, 233.980059)"><g><path d="M 80.328125 78.140625 L 125.796875 31.171875 L 65.265625 47.421875 L 57.125 39.5 L 70.8125 -20.359375 L 26.21875 25.5 L 9.265625 9.015625 L 85.234375 -69.078125 L 100.1875 -54.546875 L 82.203125 22.421875 L 158.1875 1.875 L 173.03125 16.3125 L 97.28125 94.625 Z M 80.328125 78.140625 "/></g></g></g><g fill="#000000" fill-opacity="1"><g transform="translate(1020.093302, 329.700946)"><g><path d="M 64.140625 60 L 37.703125 16.859375 L 12.765625 20.84375 L -0.734375 -1.203125 L 117.546875 -16.71875 L 130.5625 4.515625 L 63.109375 102.984375 L 49.265625 80.421875 Z M 76.3125 43.21875 L 102.859375 6.703125 L 58.25 13.75 Z M 76.3125 43.21875 "/></g></g></g><g fill="#000000" fill-opacity="1"><g transform="translate(1076.490526, 426.134691)"><g/></g></g><g fill="#000000" fill-opacity="1"><g transform="translate(1097.543631, 455.198905)"><g><path d="M 140.203125 154.09375 L 26.515625 139.4375 L 21.453125 112.828125 L 89.46875 75.5 L 12.359375 64.96875 L 7.328125 38.53125 L 107.671875 -17 L 112.5625 8.703125 L 41.921875 47.15625 L 121.953125 58.078125 L 126.3125 81.015625 L 55.125 119.90625 L 135.703125 130.40625 Z M 140.203125 154.09375 "/></g></g></g><g fill="#000000" fill-opacity="1"><g transform="translate(1123.568044, 623.4192)"><g><path d="M 108.546875 16 L 107.828125 41.1875 L -1.078125 38.109375 L -0.359375 12.921875 Z M 108.546875 16 "/></g></g></g><g fill="#000000" fill-opacity="1"><g transform="translate(1124.309835, 667.984023)"><g><path d="M 81.359375 49.5625 L 87.09375 15.171875 L 107.359375 18.546875 L 91.734375 112.1875 L 71.46875 108.8125 L 77.203125 74.4375 L -10 59.875 L -5.84375 35 Z M 81.359375 49.5625 "/></g></g></g><g fill="#000000" fill-opacity="1"><g transform="translate(1112.556704, 753.822312)"><g><path d="M 60.46875 144.75 L -41.03125 105.125 L -31.859375 81.625 L 9.75 97.875 L 27.75 51.765625 L -13.859375 35.515625 L -4.703125 12.03125 L 96.796875 51.65625 L 87.640625 75.140625 L 47.609375 59.515625 L 29.609375 105.625 L 69.640625 121.25 Z M 60.46875 144.75 "/></g></g></g><g fill="#000000" fill-opacity="1"><g transform="translate(1067.235844, 862.715299)"><g/></g></g><g fill="#000000" fill-opacity="1"><g transform="translate(1049.779306, 896.441608)"><g><path d="M 78.234375 76.9375 L 62.796875 96.859375 L -7.09375 42.71875 L -40.546875 85.921875 L -56.796875 73.34375 L -7.90625 10.21875 Z M 78.234375 76.9375 "/></g></g></g><g fill="#000000" fill-opacity="1"><g transform="translate(1000.483156, 964.959909)"><g><path d="M -51.359375 40.96875 C -42.722656 33.664062 -33.363281 28.945312 -23.28125 26.8125 C -13.207031 24.6875 -3.445312 25.234375 6 28.453125 C 15.457031 31.671875 23.640625 37.359375 30.546875 45.515625 C 37.441406 53.679688 41.6875 62.691406 43.28125 72.546875 C 44.882812 82.398438 43.796875 92.117188 40.015625 101.703125 C 36.234375 111.285156 30.023438 119.726562 21.390625 127.03125 C 12.753906 134.332031 3.414062 139.035156 -6.625 141.140625 C -16.675781 143.242188 -26.445312 142.703125 -35.9375 139.515625 C -45.425781 136.328125 -53.617188 130.648438 -60.515625 122.484375 C -67.421875 114.328125 -71.65625 105.304688 -73.21875 95.421875 C -74.78125 85.535156 -73.6875 75.8125 -69.9375 66.25 C -66.1875 56.695312 -59.992188 48.269531 -51.359375 40.96875 Z M -37.5 57.375 C -42.414062 61.53125 -45.894531 66.410156 -47.9375 72.015625 C -49.988281 77.628906 -50.4375 83.410156 -49.28125 89.359375 C -48.125 95.304688 -45.367188 100.851562 -41.015625 106 C -36.660156 111.15625 -31.644531 114.800781 -25.96875 116.9375 C -20.289062 119.070312 -14.515625 119.59375 -8.640625 118.5 C -2.773438 117.414062 2.613281 114.796875 7.53125 110.640625 C 12.445312 106.484375 15.925781 101.597656 17.96875 95.984375 C 20.019531 90.378906 20.46875 84.597656 19.3125 78.640625 C 18.15625 72.691406 15.398438 67.140625 11.046875 61.984375 C 6.691406 56.835938 1.675781 53.195312 -4 51.0625 C -9.675781 48.9375 -15.445312 48.414062 -21.3125 49.5 C -27.1875 50.59375 -32.582031 53.21875 -37.5 57.375 Z M -37.5 57.375 "/></g></g></g><g fill="#000000" fill-opacity="1"><g transform="translate(908.678826, 1043.065734)"><g><path d="M -55.375 150.5 L -62.8125 32.015625 L -40.640625 20.703125 L 50.71875 96.4375 L 26.4375 108.8125 L -38.421875 54.515625 L -33.046875 139.125 Z M -55.375 150.5 "/></g></g></g><g fill="#000000" fill-opacity="1"><g transform="translate(814.109011, 1091.71946)"><g><path d="M -88.546875 45.078125 L -93.859375 25.5625 L -12.46875 3.390625 L 16.15625 108.515625 L -63.28125 130.15625 L -68.59375 110.625 L -13.328125 95.5625 L -19.546875 72.75 L -68.359375 86.046875 L -73.515625 67.125 L -24.703125 53.828125 L -31.328125 29.484375 Z M -88.546875 45.078125 "/></g></g></g><g fill="#000000" fill-opacity="1"><g transform="translate(719.501535, 1115.801883)"><g/></g></g></g></g><path fill="#000000" d="M 749.816406 750.023438 C 236.410156 252.992188 236.410156 1247.054688 749.816406 750.023438 Z M 749.816406 750.023438 " fill-opacity="1" fill-rule="nonzero"/><path fill="#000000" d="M 750.023438 750.230469 C 252.992188 1263.632812 1247.054688 1263.632812 750.023438 750.230469 Z M 750.023438 750.230469 " fill-opacity="1" fill-rule="nonzero"/><path fill="#000000" d="M 750.023438 749.816406 C 1247.054688 236.410156 252.992188 236.410156 750.023438 749.816406 Z M 750.023438 749.816406 " fill-opacity="1" fill-rule="nonzero"/><path fill="#000000" d="M 750.230469 750.023438 C 1263.632812 1247.054688 1263.632812 252.992188 750.230469 750.023438 Z M 750.230469 750.023438 " fill-opacity="1" fill-rule="nonzero"/><path fill="#000000" d="M 762.65625 737.390625 C 758.410156 741.636719 754.203125 745.773438 750.027344 749.820312 C 750.027344 749.820312 750.023438 749.816406 750.023438 749.816406 C 750.023438 749.816406 750.019531 749.820312 750.019531 749.820312 C 745.84375 745.773438 741.632812 741.636719 737.390625 737.390625 C 741.632812 741.636719 745.773438 745.84375 749.820312 750.019531 C 749.816406 750.019531 749.816406 750.023438 749.816406 750.023438 C 749.816406 750.023438 749.820312 750.027344 749.820312 750.027344 C 745.773438 754.203125 741.632812 758.410156 737.390625 762.65625 C 741.632812 758.410156 745.84375 754.269531 750.019531 750.226562 C 750.019531 750.226562 750.023438 750.230469 750.023438 750.230469 C 750.023438 750.230469 750.027344 750.226562 750.027344 750.226562 C 754.203125 754.269531 758.410156 758.410156 762.65625 762.65625 C 758.410156 758.410156 754.269531 754.203125 750.226562 750.027344 C 750.226562 750.027344 750.230469 750.023438 750.230469 750.023438 C 750.230469 750.023438 750.226562 750.019531 750.226562 750.019531 C 754.269531 745.84375 758.410156 741.636719 762.65625 737.390625 Z M 762.65625 737.390625 " fill-opacity="1" fill-rule="nonzero"/></svg>