<svg xmlns="http://www.w3.org/2000/svg" xmlns:xlink="http://www.w3.org/1999/xlink" width="1135" zoomAndPan="magnify" viewBox="182.96 113.92 1135.08 1271.16" height="1271" preserveAspectRatio="xMidYMid meet" version="1.0"><defs><clipPath id="4e61784984"><path d="M 225 161.675781 L 1276 161.675781 L 1276 1338 L 225 1338 Z M 225 161.675781 " clip-rule="nonzero"/></clipPath></defs><g clip-path="url(#4e61784984)"><path fill="#000000" d="M 434.820312 623.402344 C 435.292969 618.597656 435.914062 613.636719 436.222656 608.65625 C 436.433594 605.230469 436.164062 601.78125 436.191406 598.34375 C 436.203125 596.800781 436.375 595.257812 436.558594 593.722656 C 436.964844 590.3125 437.785156 586.910156 437.769531 583.503906 C 437.746094 579.054688 438.363281 574.582031 436.507812 570.125 C 435.660156 568.085938 436.59375 565.199219 437.023438 562.753906 C 438.050781 556.914062 439.296875 551.113281 440.386719 545.285156 C 440.914062 542.449219 441.339844 539.589844 441.730469 536.734375 C 442.089844 534.128906 442.449219 531.515625 442.605469 528.894531 C 442.964844 522.828125 443.503906 516.808594 445.683594 511.058594 C 445.960938 510.324219 446.277344 509.511719 446.226562 508.761719 C 445.621094 499.761719 449.136719 491.355469 449.957031 482.5625 C 450.324219 478.640625 450.777344 474.71875 451.296875 470.8125 C 451.464844 469.523438 452.148438 468.292969 452.265625 467.007812 C 452.542969 463.941406 453.347656 461.078125 451.984375 457.746094 C 451.074219 455.535156 452.625 452.25 453.269531 449.488281 C 453.679688 447.726562 454.683594 446.089844 455.003906 444.316406 C 456.183594 437.8125 458.109375 431.375 457.175781 424.628906 C 457.085938 423.980469 457.089844 423.242188 457.316406 422.644531 C 460.339844 414.703125 459.476562 406.152344 461.246094 398.027344 C 461.65625 396.132812 463.128906 394.464844 463.523438 392.574219 C 464.226562 389.203125 464.410156 385.730469 464.960938 382.324219 C 465.1875 380.941406 466.019531 379.65625 466.210938 378.277344 C 466.867188 373.617188 467.4375 368.945312 467.824219 364.261719 C 467.875 363.660156 466.765625 362.765625 466.007812 362.332031 C 460.199219 359.003906 456.980469 353.65625 453.957031 347.929688 C 451.605469 343.476562 450.542969 338.898438 450.015625 333.996094 C 449.796875 331.964844 448.433594 330.082031 447.878906 328.054688 C 447.453125 326.496094 446.957031 324.648438 447.402344 323.210938 C 448.886719 318.453125 449.609375 313.71875 448.886719 308.742188 C 448.683594 307.347656 449.042969 305.835938 449.320312 304.414062 C 450.617188 297.765625 452.125 291.121094 454.890625 284.949219 C 456.144531 282.152344 458.570312 279.808594 460.726562 277.503906 C 465.597656 272.296875 471.925781 270.152344 478.832031 269.371094 C 481.199219 269.105469 483.558594 268.800781 485.910156 268.515625 C 487.507812 260.015625 493.5625 254.324219 498.078125 247.710938 C 502.546875 241.171875 509.296875 239.761719 516.507812 239.289062 C 516.902344 239.265625 517.359375 239.121094 517.683594 239.265625 C 521.691406 241.074219 523.804688 238.976562 525.515625 235.679688 C 526.113281 234.53125 527.035156 233.460938 528.035156 232.621094 C 532.089844 229.203125 536.234375 225.894531 540.660156 222.285156 C 547.078125 224.582031 553.789062 227.007812 560.527344 229.367188 C 561.480469 229.703125 562.6875 230.125 563.539062 229.828125 C 572.816406 226.613281 581.84375 227.839844 590.800781 231.078125 C 591.28125 231.25 591.808594 231.289062 592.550781 231.4375 C 593.898438 227.347656 595.070312 223.289062 596.582031 219.363281 C 597.804688 216.191406 599.433594 213.175781 600.90625 210.105469 C 601.660156 208.535156 601.609375 207.167969 600.566406 205.636719 C 599.457031 204 598.695312 202.125 597.820312 200.335938 C 594.886719 194.328125 594.671875 188.496094 598.777344 182.832031 C 599.449219 181.90625 599.554688 180.582031 599.988281 179.46875 C 601.359375 175.933594 603.0625 172.613281 606.988281 171.320312 C 611.101562 169.964844 615.238281 168.652344 619.417969 167.519531 C 622.613281 166.65625 625.875 165.976562 629.144531 165.457031 C 630.660156 165.214844 632.273438 165.6875 633.824219 165.589844 C 637.101562 165.390625 640.550781 165.585938 643.59375 164.59375 C 647.003906 163.484375 649.996094 162.71875 653.460938 164.3125 C 654.894531 164.96875 656.867188 164.777344 658.53125 164.539062 C 663.652344 163.800781 668.71875 162.507812 673.859375 162.089844 C 678.929688 161.679688 684.019531 161.925781 689.09375 163.226562 C 692.898438 164.203125 696.96875 164.195312 700.929688 164.457031 C 705.871094 164.785156 710.269531 166.230469 713.933594 169.738281 C 716.507812 172.195312 719.191406 174.550781 721.972656 176.765625 C 722.945312 177.535156 724.332031 177.90625 725.589844 178.179688 C 734.488281 180.101562 741.515625 184.554688 745.746094 192.859375 C 746.226562 193.800781 746.820312 194.765625 746.976562 195.777344 C 747.550781 199.523438 749.941406 201.535156 753.441406 202.945312 C 754.609375 201.972656 756.042969 201.132812 757 199.917969 C 761.722656 193.945312 768.714844 191.382812 774.933594 187.625 C 779.410156 184.917969 783.953125 186.46875 788.429688 187.109375 C 791.132812 187.5 793.699219 188.773438 796.359375 189.546875 C 797.21875 189.796875 798.179688 189.679688 799.089844 189.78125 C 801.804688 190.085938 804.816406 189.773438 807.171875 190.867188 C 813.117188 193.625 818.289062 197.605469 822.238281 202.980469 C 827.019531 209.492188 830.378906 216.640625 831.714844 224.632812 C 832.464844 229.132812 832.804688 233.703125 833.507812 238.214844 C 834.25 242.988281 835.59375 247.703125 835.914062 252.496094 C 836.101562 255.246094 834.851562 258.117188 834.113281 260.894531 C 832.878906 265.535156 832.257812 270.058594 835.136719 274.410156 C 835.671875 275.21875 835.988281 276.597656 835.6875 277.460938 C 834.152344 281.855469 836.605469 285.117188 838.460938 288.617188 C 841.933594 295.152344 845.554688 301.625 848.640625 308.339844 C 849.996094 311.292969 851.648438 314.660156 849.308594 318.152344 C 848.886719 318.78125 848.886719 320.125 849.277344 320.792969 C 851.9375 325.320312 849.902344 329.527344 848.664062 333.828125 C 848.351562 334.902344 848.113281 336.109375 848.273438 337.1875 C 848.910156 341.464844 847.660156 344.234375 843.808594 346.484375 C 843.121094 346.882812 842.191406 347.015625 841.6875 347.5625 C 835.898438 353.828125 828.992188 352.375 822.050781 350.425781 C 819.269531 349.640625 816.625 348.277344 813.808594 347.703125 C 811.140625 347.160156 808.285156 346.90625 805.601562 347.246094 C 802.621094 347.625 800.5 346.824219 798.582031 344.679688 C 794.617188 340.246094 790.589844 335.871094 786.558594 331.5 C 784.460938 329.226562 782.753906 326.804688 782.0625 323.671875 C 781.613281 321.628906 780.609375 319.710938 779.945312 317.703125 C 779.53125 316.449219 779.097656 315.148438 779.007812 313.847656 C 778.660156 308.742188 778.125 303.648438 779.722656 298.582031 C 780.875 294.9375 781.449219 291.109375 782.515625 287.433594 C 783.277344 284.796875 784.042969 282.023438 785.496094 279.753906 C 788.089844 275.707031 789.046875 271.433594 789.675781 266.722656 C 790.203125 262.769531 792.398438 259.027344 793.941406 255.226562 C 795.527344 251.3125 797.332031 247.484375 798.78125 243.527344 C 799.117188 242.605469 798.664062 241.144531 798.113281 240.199219 C 796.171875 236.871094 794.023438 233.660156 791.964844 230.394531 C 790.25 227.675781 788.273438 225.929688 784.570312 226.277344 C 780.132812 226.691406 775.089844 224.550781 772.445312 230.394531 C 772.050781 231.265625 770.527344 231.625 769.191406 232.425781 C 770.066406 234.523438 770.875 236.433594 771.660156 238.351562 C 772.011719 239.199219 772.5625 240.058594 772.597656 240.929688 C 772.769531 245.691406 772.730469 250.460938 772.945312 255.21875 C 773.019531 256.84375 773.3125 258.613281 774.066406 260.015625 C 775.386719 262.476562 775.390625 264.71875 774.445312 267.28125 C 773.691406 269.335938 773.519531 271.597656 772.988281 273.742188 C 771.496094 279.773438 769.953125 285.796875 768.421875 291.820312 C 768.390625 291.945312 768.332031 292.097656 768.234375 292.167969 C 762.402344 296.34375 760.707031 303.902344 755.070312 308.257812 C 754.152344 308.964844 753.347656 310.027344 752.90625 311.097656 C 750.96875 315.828125 746.523438 317.613281 742.695312 320.167969 C 739.21875 322.488281 735.867188 325 732.417969 327.367188 C 726.847656 331.195312 721.042969 334.242188 713.890625 332.371094 C 707.894531 337.605469 705.769531 345.160156 702.097656 351.253906 C 705.707031 354.554688 708.832031 357.585938 712.160156 360.378906 C 714.0625 361.976562 716.171875 363.441406 718.410156 364.503906 C 721.367188 365.910156 724.574219 366.785156 727.613281 368.046875 C 729.042969 368.640625 730.234375 369.910156 731.691406 370.339844 C 736.21875 371.667969 741.105469 372.132812 745.332031 374.070312 C 750.925781 376.625 757.523438 376.730469 762.339844 381.117188 C 762.898438 381.625 763.746094 381.9375 764.511719 382.078125 C 767.871094 382.695312 770.78125 383.996094 773.132812 386.625 C 773.953125 387.542969 775.433594 387.886719 776.625 388.46875 C 779.234375 389.738281 782.003906 390.75 784.429688 392.304688 C 788.53125 394.925781 793.320312 397.183594 796.1875 400.867188 C 801.210938 407.320312 807.960938 412.40625 811.457031 420.113281 C 812.589844 422.605469 814.75 424.617188 816.285156 426.949219 C 817.363281 428.585938 818.167969 430.398438 819.128906 432.117188 C 819.503906 432.792969 819.828125 433.628906 820.421875 434.039062 C 825.207031 437.375 827.101562 442.601562 829.652344 447.476562 C 831.855469 451.699219 834.648438 455.613281 837.203125 459.648438 C 837.484375 460.09375 838.09375 460.382812 838.246094 460.839844 C 839.636719 465.148438 841.007812 469.460938 842.285156 473.800781 C 842.988281 476.195312 843.230469 478.75 844.148438 481.046875 C 846.929688 488.007812 849.945312 494.871094 852.835938 501.789062 C 853.082031 502.378906 853.164062 503.066406 853.199219 503.714844 C 853.429688 507.914062 853.621094 512.117188 853.835938 516.320312 C 853.855469 516.710938 853.835938 517.207031 854.054688 517.476562 C 858.433594 522.816406 859.039062 529.542969 860.855469 535.824219 C 860.925781 536.078125 860.996094 536.394531 861.179688 536.539062 C 864.980469 539.511719 865.015625 544.597656 867.726562 548.195312 C 868.324219 548.988281 868.980469 550.394531 868.667969 551.105469 C 867.363281 554.101562 868.539062 556.867188 869.054688 559.683594 C 869.332031 561.207031 870 562.65625 870.40625 564.164062 C 870.804688 565.644531 871.566406 567.238281 871.324219 568.632812 C 870.949219 570.804688 871.472656 572.378906 872.582031 574.207031 C 875.394531 578.832031 876.957031 583.769531 877.300781 589.367188 C 877.722656 596.292969 879.308594 603.152344 880.515625 610.019531 C 880.710938 611.144531 881.578125 612.144531 882.0625 613.234375 C 882.492188 614.195312 883.125 615.195312 883.144531 616.1875 C 883.257812 621.867188 883.195312 627.554688 883.246094 633.234375 C 883.253906 634.132812 883.386719 635.078125 883.691406 635.917969 C 884.773438 638.886719 885.957031 641.820312 887.089844 644.773438 C 887.234375 645.140625 887.402344 645.542969 887.394531 645.925781 C 887.175781 653.652344 886.78125 661.382812 886.757812 669.109375 C 886.742188 673.265625 886.824219 677.554688 887.824219 681.542969 C 888.855469 685.664062 888.367188 689.628906 888.160156 693.648438 C 887.792969 700.644531 887.734375 707.457031 890.765625 714.128906 C 891.875 716.566406 891.253906 719.898438 891.050781 722.792969 C 890.746094 727.082031 889.511719 731.097656 890.519531 735.707031 C 891.421875 739.824219 889.839844 744.472656 889.433594 748.894531 C 889.167969 751.761719 889.015625 754.636719 888.875 757.511719 C 888.769531 759.722656 889.101562 762.011719 888.636719 764.136719 C 887.507812 769.316406 888.949219 774.066406 891.726562 778.039062 C 896.109375 784.3125 898.351562 791.199219 900.070312 798.492188 C 901.402344 804.128906 903.386719 809.609375 905.101562 815.152344 C 905.886719 817.679688 906.300781 820.441406 907.621094 822.660156 C 911.644531 829.429688 910.792969 836.519531 909.761719 843.722656 C 909.601562 844.84375 909.953125 846.046875 910.136719 847.203125 C 910.929688 852.285156 911.75 857.363281 912.554688 862.441406 C 912.597656 862.703125 912.675781 862.992188 912.613281 863.234375 C 909.738281 873.765625 915.519531 882.808594 917.597656 892.488281 C 917.917969 893.964844 918.367188 896.007812 917.652344 897.003906 C 915.550781 899.945312 916.277344 902.75 916.984375 905.769531 C 917.265625 906.964844 917.074219 908.292969 916.988281 909.550781 C 916.902344 910.839844 916.640625 912.117188 916.535156 913.40625 C 916.460938 914.324219 916.71875 915.3125 916.476562 916.175781 C 914.988281 921.476562 915.222656 926.503906 917.046875 931.847656 C 918.230469 935.308594 917.5 939.417969 917.648438 943.238281 C 917.710938 944.949219 917.941406 946.664062 917.894531 948.375 C 917.824219 950.859375 917.59375 953.34375 917.386719 955.824219 C 917.308594 956.742188 917.09375 957.648438 916.960938 958.5625 C 916.417969 962.359375 915.660156 966.144531 915.417969 969.960938 C 915.222656 973.097656 915.648438 976.269531 915.804688 979.425781 C 915.808594 979.554688 915.90625 979.695312 915.882812 979.8125 C 915.273438 982.742188 913.921875 985.75 914.242188 988.570312 C 914.589844 991.632812 915.449219 994.460938 914.003906 997.460938 C 913.511719 998.480469 913.589844 999.773438 913.410156 1000.945312 C 913.273438 1001.851562 913.441406 1002.992188 912.949219 1003.628906 C 910.125 1007.324219 909.957031 1011.894531 908.945312 1016.105469 C 908.226562 1019.089844 908.492188 1022.410156 908.84375 1025.523438 C 909.402344 1030.492188 910.824219 1035.386719 911.089844 1040.355469 C 911.375 1045.703125 914.03125 1050.0625 915.726562 1054.835938 C 917.050781 1058.566406 917.75 1062.605469 919.59375 1066.039062 C 921.890625 1070.3125 925.105469 1074.085938 927.867188 1078.117188 C 928.734375 1079.382812 929.546875 1080.722656 930.152344 1082.132812 C 931.199219 1084.5625 932.035156 1087.089844 933.03125 1089.542969 C 933.269531 1090.128906 933.765625 1091.011719 934.203125 1091.050781 C 939.234375 1091.476562 943.351562 1096.453125 949.039062 1093.917969 C 950.183594 1093.40625 952.101562 1093.59375 953.203125 1094.238281 C 955.921875 1095.835938 958.554688 1095.398438 961.324219 1094.796875 C 962.46875 1094.546875 963.765625 1094.109375 964.8125 1094.40625 C 972.800781 1096.65625 980.421875 1095.417969 988.121094 1092.796875 C 991.828125 1091.535156 995.949219 1091.542969 999.828125 1090.714844 C 1001.980469 1090.253906 1004.203125 1089.558594 1006.0625 1088.429688 C 1009.464844 1086.363281 1012.960938 1085.195312 1016.972656 1085.144531 C 1019.03125 1085.117188 1021.117188 1084.425781 1023.132812 1083.839844 C 1029.503906 1081.992188 1036.246094 1082.675781 1042.667969 1080.6875 C 1045.789062 1079.722656 1048.925781 1079.128906 1051.910156 1077.558594 C 1053.78125 1076.570312 1056.285156 1076.542969 1058.511719 1076.515625 C 1062.726562 1076.460938 1066.714844 1076.164062 1069.679688 1072.558594 C 1070.164062 1071.964844 1071.304688 1071.769531 1072.179688 1071.65625 C 1077.945312 1070.914062 1083.902344 1070.898438 1089.4375 1069.351562 C 1094.128906 1068.039062 1099.527344 1067.742188 1103.367188 1065.261719 C 1108.0625 1062.230469 1113.320312 1063.097656 1118.007812 1060.929688 C 1121.222656 1059.441406 1125.484375 1060.316406 1128.824219 1058.992188 C 1132.433594 1057.558594 1135.789062 1057.765625 1139.371094 1058.113281 C 1142.316406 1058.398438 1144.335938 1059.902344 1145.601562 1062.429688 C 1146.726562 1064.683594 1147.546875 1067.09375 1148.699219 1069.332031 C 1149.667969 1071.199219 1150.65625 1073.1875 1152.105469 1074.65625 C 1156.132812 1078.75 1158.710938 1083.550781 1160.296875 1089.015625 C 1160.769531 1090.636719 1161.464844 1092.367188 1162.554688 1093.609375 C 1165.3125 1096.75 1166.464844 1100.496094 1167.417969 1104.394531 C 1167.691406 1105.515625 1168.105469 1106.605469 1168.605469 1108.1875 C 1171.980469 1105.824219 1174.945312 1103.667969 1177.992188 1101.632812 C 1182.070312 1098.902344 1186.203125 1096.257812 1190.332031 1093.605469 C 1190.878906 1093.253906 1191.507812 1092.886719 1192.132812 1092.816406 C 1198.710938 1092.066406 1204.589844 1089.183594 1210.660156 1086.863281 C 1212.234375 1086.261719 1214.027344 1086.195312 1215.734375 1085.964844 C 1219.933594 1085.398438 1224.132812 1084.769531 1228.351562 1084.398438 C 1229.554688 1084.292969 1230.964844 1084.734375 1232.054688 1085.335938 C 1241.835938 1090.734375 1247.152344 1099.773438 1250.878906 1109.738281 C 1253.082031 1115.628906 1254.589844 1121.871094 1255.621094 1128.082031 C 1257.214844 1137.710938 1258.027344 1147.464844 1259.371094 1157.136719 C 1260.25 1163.453125 1260.742188 1169.847656 1263.101562 1175.914062 C 1264.183594 1178.695312 1264.632812 1181.730469 1265.257812 1184.675781 C 1266.242188 1189.3125 1266.992188 1194.003906 1268.113281 1198.601562 C 1268.929688 1201.933594 1269.910156 1205.28125 1271.320312 1208.390625 C 1273.328125 1212.820312 1273.371094 1217.550781 1274.144531 1222.175781 C 1274.558594 1224.636719 1274.953125 1227.101562 1275.300781 1229.570312 C 1275.484375 1230.871094 1275.652344 1232.1875 1275.640625 1233.492188 C 1275.621094 1236.363281 1275.148438 1239.273438 1275.464844 1242.097656 C 1275.976562 1246.632812 1275.855469 1250.921875 1274.21875 1255.304688 C 1272.667969 1259.453125 1271.871094 1263.882812 1270.671875 1268.167969 C 1269.855469 1271.097656 1268.308594 1273.566406 1265.417969 1274.84375 C 1262.019531 1276.351562 1258.648438 1278.070312 1255.082031 1279.003906 C 1252.914062 1279.574219 1250.179688 1279.394531 1248.09375 1278.558594 C 1244.445312 1277.09375 1241.0625 1274.9375 1237.640625 1272.949219 C 1232.257812 1269.820312 1228.9375 1264.84375 1226.125 1259.511719 C 1223.453125 1254.441406 1221.546875 1249.136719 1220.894531 1243.339844 C 1220.625 1240.917969 1218.972656 1238.683594 1218.265625 1236.273438 C 1217.34375 1233.132812 1216.570312 1229.925781 1216.035156 1226.699219 C 1215.347656 1222.515625 1214.617188 1218.292969 1214.53125 1214.074219 C 1214.445312 1209.566406 1213.800781 1205.519531 1210.984375 1201.773438 C 1209.902344 1200.335938 1209.488281 1197.902344 1209.730469 1196.046875 C 1210.949219 1186.667969 1208.082031 1177.953125 1205.890625 1169.097656 C 1205.128906 1166.027344 1204.816406 1162.84375 1204.253906 1159.433594 C 1201.011719 1158.933594 1197.898438 1157.871094 1194.296875 1158.96875 C 1190.15625 1160.226562 1185.769531 1160.691406 1181.472656 1161.386719 C 1179.628906 1161.6875 1178.960938 1162.566406 1179.226562 1164.382812 C 1179.402344 1165.558594 1179.058594 1166.894531 1179.492188 1167.925781 C 1181.347656 1172.324219 1180.277344 1176.421875 1178.792969 1180.625 C 1178.300781 1182.023438 1178.585938 1183.71875 1178.609375 1185.277344 C 1178.699219 1191.488281 1178.4375 1197.738281 1179.066406 1203.894531 C 1179.609375 1209.253906 1181.191406 1214.511719 1182.285156 1219.816406 C 1182.5 1220.84375 1182.71875 1221.898438 1182.707031 1222.941406 C 1182.664062 1226.585938 1182.332031 1230.238281 1182.453125 1233.875 C 1182.65625 1239.8125 1178.261719 1246 1172.007812 1248.339844 C 1168.742188 1249.5625 1165.71875 1249.957031 1162.339844 1249.246094 C 1160.855469 1248.9375 1159.144531 1249.296875 1157.617188 1249.679688 C 1152.367188 1250.996094 1147.148438 1252.296875 1141.703125 1252.761719 C 1139.757812 1252.929688 1137.964844 1254.652344 1136.054688 1255.558594 C 1130.671875 1258.109375 1125.253906 1260.585938 1119.867188 1263.132812 C 1115.199219 1265.335938 1110.1875 1267.0625 1105.984375 1269.953125 C 1097.964844 1275.472656 1089.160156 1278.925781 1080.015625 1281.886719 C 1076.28125 1283.097656 1072.546875 1284.730469 1069.289062 1286.890625 C 1065.046875 1289.703125 1060.554688 1291.324219 1055.597656 1291.914062 C 1054.960938 1291.988281 1054.085938 1292.070312 1053.679688 1291.726562 C 1051.144531 1289.597656 1048.703125 1290.910156 1046.183594 1291.683594 C 1042.714844 1292.75 1039.414062 1293.023438 1035.703125 1291.714844 C 1033.421875 1290.914062 1030.175781 1291.722656 1027.738281 1292.71875 C 1022.316406 1294.9375 1016.960938 1295.949219 1011.058594 1295.269531 C 1008.003906 1294.914062 1004.785156 1296.21875 1001.617188 1296.550781 C 999.824219 1296.738281 997.984375 1296.460938 996.164062 1296.429688 C 993.65625 1296.386719 991.066406 1295.957031 988.65625 1296.429688 C 980.941406 1297.945312 973.53125 1297.234375 965.949219 1295.210938 C 962.308594 1294.238281 958.253906 1293.453125 954.203125 1294.71875 C 948.972656 1296.351562 943.820312 1295.773438 938.558594 1294 C 936.136719 1293.183594 933.132812 1294.195312 930.390625 1294.210938 C 926.632812 1294.230469 922.871094 1293.984375 919.113281 1294.050781 C 915.441406 1294.121094 911.742188 1294.195312 908.121094 1294.726562 C 905.105469 1295.171875 902.285156 1296.015625 899.105469 1295.175781 C 896.664062 1294.527344 893.921875 1295.105469 891.367188 1294.746094 C 888.390625 1294.332031 885.5 1293.347656 882.53125 1292.886719 C 879.9375 1292.480469 877.277344 1292.523438 874.65625 1292.257812 C 870.703125 1291.859375 866.757812 1291.371094 862.808594 1290.910156 C 862.28125 1290.851562 861.6875 1290.851562 861.253906 1290.601562 C 857.390625 1288.394531 853.335938 1287.332031 848.804688 1287.269531 C 846.328125 1287.230469 843.917969 1285.5 841.390625 1284.953125 C 838.058594 1284.230469 834.636719 1283.914062 831.253906 1283.429688 C 829.636719 1283.195312 828.019531 1282.964844 826.402344 1282.75 C 825.089844 1282.574219 823.714844 1282.609375 822.472656 1282.214844 C 820.773438 1281.679688 819.15625 1280.875 817.542969 1280.101562 C 815.683594 1279.210938 813.957031 1277.878906 812.007812 1277.355469 C 807.554688 1276.160156 802.996094 1275.375 798.496094 1274.34375 C 797.613281 1274.140625 796.804688 1273.59375 795.972656 1273.1875 C 789.214844 1269.867188 782.585938 1266.222656 775.058594 1264.835938 C 774.171875 1264.675781 773.109375 1264.347656 772.371094 1264.667969 C 770.480469 1265.484375 769.128906 1264.691406 767.5625 1263.828125 C 766.246094 1263.105469 764.644531 1262.921875 763.230469 1262.339844 C 762.320312 1261.96875 761.410156 1261.433594 760.695312 1260.765625 C 757.222656 1257.507812 754.117188 1253.855469 749.300781 1252.292969 C 747.78125 1251.796875 746.644531 1250.175781 745.277344 1249.136719 C 743.414062 1247.71875 741.617188 1246.148438 739.574219 1245.035156 C 736.929688 1243.597656 734.167969 1242.175781 731.28125 1241.425781 C 728.164062 1240.613281 727.171875 1238.355469 726.121094 1235.90625 C 725.8125 1235.179688 725.742188 1234.136719 725.203125 1233.761719 C 716.796875 1227.984375 714.007812 1218.503906 709.929688 1210.03125 C 707.648438 1205.296875 707.058594 1199.746094 705.714844 1194.5625 C 705.484375 1193.671875 705.40625 1192.714844 705.042969 1191.886719 C 702.847656 1186.929688 700.617188 1181.988281 698.332031 1177.074219 C 697.90625 1176.15625 697.339844 1174.832031 696.585938 1174.628906 C 693.628906 1173.820312 693.851562 1171.277344 693.363281 1169.222656 C 692.394531 1165.144531 691.984375 1160.914062 690.746094 1156.929688 C 688.140625 1148.523438 684.429688 1140.394531 682.566406 1131.847656 C 681.277344 1125.933594 680.582031 1119.96875 678.410156 1114.183594 C 676.140625 1108.148438 674.789062 1101.761719 673.171875 1095.492188 C 672.414062 1092.558594 671.835938 1089.640625 669.5625 1087.359375 C 668.871094 1086.667969 668.507812 1085.503906 668.3125 1084.492188 C 667.152344 1078.503906 664.949219 1073 662.132812 1067.539062 C 660.027344 1063.457031 658.34375 1059.039062 657.789062 1054.089844 C 657.144531 1048.300781 656.414062 1042.3125 653.347656 1036.894531 C 651.785156 1034.128906 651.199219 1030.574219 651.007812 1027.324219 C 650.683594 1021.792969 647.605469 1017.382812 645.859375 1012.441406 C 645.429688 1011.214844 644.742188 1009.867188 644.910156 1008.675781 C 645.578125 1003.953125 643.996094 999.734375 642.339844 995.527344 C 640.429688 990.675781 639.660156 985.691406 639.378906 980.476562 C 639.167969 976.601562 637.671875 972.800781 636.875 968.945312 C 636.507812 967.171875 636.433594 965.339844 636.238281 963.53125 C 636.15625 962.769531 636.203125 961.972656 636.007812 961.242188 C 635.292969 958.566406 634.398438 955.929688 633.761719 953.234375 C 632.859375 949.414062 632.773438 945.410156 630.1875 942.042969 C 629.3125 940.902344 628.929688 938.945312 629.152344 937.488281 C 630.046875 931.523438 626.855469 927.0625 622.894531 923.960938 C 617.84375 920.007812 614.691406 914.957031 611.742188 909.664062 C 610.125 906.753906 608.574219 904.007812 605.191406 903.328125 C 600.351562 902.355469 597.007812 898.628906 592.589844 896.953125 C 591.101562 896.386719 589.621094 895.777344 588.09375 895.363281 C 585.632812 894.691406 583.457031 893.800781 581.542969 891.871094 C 578.234375 888.542969 573.65625 887.070312 569.261719 886.65625 C 566.027344 886.355469 563.925781 885.132812 562.261719 882.9375 C 558.582031 878.089844 553.449219 876.160156 547.796875 875.816406 C 542.582031 875.496094 538.171875 873.042969 533.453125 871.433594 C 531.933594 870.917969 531.101562 871.097656 529.875 871.863281 C 528.351562 872.820312 526.605469 873.425781 524.953125 874.179688 C 524.835938 874.234375 524.65625 874.207031 524.574219 874.289062 C 519.894531 878.902344 512.703125 878.359375 507.78125 882.386719 C 501.507812 887.519531 494.125 891.464844 489.988281 898.941406 C 489.550781 899.734375 488.304688 900.066406 487.480469 900.675781 C 486.222656 901.59375 484.730469 902.355469 483.816406 903.550781 C 480.15625 908.34375 476.441406 913.125 473.199219 918.203125 C 469.882812 923.398438 466.25 928.367188 464.402344 934.519531 C 462.898438 939.53125 459.703125 944.007812 457.605469 948.871094 C 455.726562 953.234375 454.3125 957.796875 452.707031 962.277344 C 452.578125 962.644531 452.71875 963.164062 452.507812 963.445312 C 448.449219 968.796875 450.695312 975.828125 447.625 981.511719 C 446.398438 983.78125 446.445312 986.699219 445.441406 989.128906 C 443.539062 993.726562 441.714844 998.453125 439.070312 1002.628906 C 436.398438 1006.84375 435.792969 1011.210938 435.773438 1015.933594 C 435.757812 1019.910156 435.792969 1023.917969 435.304688 1027.851562 C 435.027344 1030.113281 433.722656 1032.238281 432.933594 1034.441406 C 432.492188 1035.675781 431.832031 1036.949219 431.835938 1038.207031 C 431.851562 1042.171875 432.210938 1046.140625 432.28125 1050.109375 C 432.324219 1052.480469 432.171875 1054.867188 431.945312 1057.234375 C 431.597656 1060.882812 432.703125 1064.65625 430.90625 1068.214844 C 430.558594 1068.90625 430.984375 1070.042969 431.191406 1070.941406 C 432.265625 1075.675781 432.96875 1080.300781 429.964844 1084.742188 C 429.332031 1085.671875 429.3125 1087.421875 429.695312 1088.570312 C 431.445312 1093.851562 430.570312 1098.886719 428.371094 1103.714844 C 426.757812 1107.265625 426.699219 1110.683594 427.105469 1114.527344 C 427.570312 1118.945312 427.058594 1123.535156 426.445312 1127.976562 C 425.933594 1131.691406 425.53125 1135.113281 426.660156 1138.921875 C 427.671875 1142.339844 427.109375 1146.21875 427.277344 1149.894531 C 427.398438 1152.515625 427.59375 1155.136719 427.722656 1157.757812 C 427.847656 1160.222656 428.226562 1162.71875 427.949219 1165.140625 C 427.542969 1168.6875 426.769531 1172.066406 427.554688 1175.78125 C 428.273438 1179.183594 427.71875 1182.847656 427.84375 1186.390625 C 427.898438 1187.972656 428.375 1189.539062 428.4375 1191.117188 C 428.53125 1193.59375 428.375 1196.082031 428.441406 1198.558594 C 428.511719 1201.316406 428.761719 1204.070312 428.832031 1206.828125 C 428.867188 1208.371094 429.046875 1210.046875 428.546875 1211.441406 C 427.144531 1215.335938 426.304688 1219.011719 429.210938 1222.660156 C 430.53125 1224.316406 430.347656 1226.011719 429.503906 1228.1875 C 427.765625 1232.65625 426.867188 1237.445312 425.476562 1242.058594 C 423.917969 1247.234375 420.292969 1250.390625 415.367188 1252.449219 C 409.367188 1254.957031 403.25 1256.273438 396.742188 1255.664062 C 395.320312 1255.527344 393.875 1255.644531 391.746094 1255.644531 C 392.011719 1258.742188 392.199219 1261.460938 392.492188 1264.167969 C 393.488281 1273.507812 394.515625 1282.84375 395.546875 1292.183594 C 396.617188 1301.867188 393.035156 1308.902344 384.121094 1313.3125 C 381.84375 1314.4375 379.890625 1315.671875 377.195312 1315.640625 C 375.558594 1315.621094 373.9375 1316.703125 372.265625 1317.09375 C 368.558594 1317.953125 364.816406 1318.6875 361.09375 1319.484375 C 359.535156 1319.816406 357.972656 1320.132812 356.429688 1320.523438 C 353.464844 1321.273438 350.601562 1321.414062 347.460938 1321.101562 C 344.226562 1320.777344 340.625 1321.726562 337.546875 1323 C 334.925781 1324.082031 332.488281 1324.082031 329.851562 1324.058594 C 327.804688 1324.039062 325.722656 1324.238281 323.710938 1324.621094 C 319.453125 1325.4375 315.234375 1326.441406 310.996094 1327.351562 C 309.574219 1327.660156 308.128906 1327.871094 306.710938 1328.199219 C 300.390625 1329.664062 294.078125 1331.136719 287.769531 1332.648438 C 285.839844 1333.109375 283.945312 1333.722656 282.027344 1334.242188 C 278.875 1335.09375 275.945312 1336.695312 272.382812 1335.914062 C 270.746094 1335.554688 268.757812 1336.324219 267.039062 1336.898438 C 262.351562 1338.46875 257.804688 1336.828125 253.257812 1336.328125 C 246.804688 1335.617188 240.726562 1333.386719 235.296875 1329.777344 C 233.472656 1328.5625 231.890625 1326.828125 230.554688 1325.0625 C 225.964844 1319.007812 224.1875 1312.25 226.441406 1304.8125 C 226.835938 1303.519531 227.890625 1302.242188 228.976562 1301.382812 C 233.34375 1297.925781 237.679688 1294.425781 243.226562 1292.816406 C 244.785156 1292.367188 245.921875 1290.5625 247.472656 1289.960938 C 250.421875 1288.828125 253.496094 1287.957031 256.582031 1287.269531 C 260.070312 1286.496094 263.636719 1286.078125 267.15625 1285.433594 C 268.324219 1285.21875 269.636719 1285.050781 270.574219 1284.410156 C 276.914062 1280.082031 284.53125 1280.519531 291.535156 1278.710938 C 294.960938 1277.824219 298.617188 1277.863281 302.101562 1277.152344 C 303.734375 1276.820312 305.582031 1276.054688 306.671875 1274.875 C 309.109375 1272.242188 312.25 1272.09375 315.136719 1272.5 C 319.664062 1273.132812 323.738281 1271.570312 328.003906 1270.953125 C 330.527344 1270.589844 331.335938 1269.363281 332.148438 1266.699219 C 333.164062 1263.355469 333.617188 1260.484375 332.457031 1257.210938 C 328.550781 1257.027344 324.746094 1256.914062 320.953125 1256.648438 C 318.464844 1256.472656 315.878906 1256.4375 313.539062 1255.699219 C 308.800781 1254.210938 304.101562 1254.726562 299.335938 1255.152344 C 293.175781 1255.703125 288.964844 1259.632812 284.660156 1263.398438 C 279.800781 1267.648438 274.109375 1268.75 267.921875 1267.941406 C 267.089844 1267.832031 266.027344 1267.316406 265.59375 1266.648438 C 262.09375 1261.210938 258.335938 1255.882812 255.4375 1250.128906 C 253.59375 1246.46875 254.59375 1242.191406 255.511719 1238.175781 C 255.769531 1237.046875 255.664062 1235.542969 255.101562 1234.570312 C 252.503906 1230.09375 251.886719 1225.214844 252.703125 1220.34375 C 253.328125 1216.589844 253.058594 1213.03125 252.847656 1209.3125 C 252.535156 1203.832031 252.765625 1198.269531 253.359375 1192.808594 C 254.027344 1186.679688 254.5625 1180.726562 252.4375 1174.71875 C 250.101562 1168.117188 249.492188 1161.457031 251.890625 1154.53125 C 252.65625 1152.328125 251.394531 1149.40625 251.015625 1146.820312 C 250.660156 1144.355469 250.15625 1141.910156 249.886719 1139.441406 C 249.636719 1137.160156 249.242188 1134.800781 249.578125 1132.578125 C 250.003906 1129.746094 251.578125 1127.050781 251.789062 1124.230469 C 252.035156 1120.90625 251.53125 1117.484375 251.042969 1114.152344 C 249.875 1106.21875 249.410156 1098.433594 253.328125 1090.976562 C 254.226562 1089.265625 254.433594 1087.179688 254.859375 1085.246094 C 256 1080.101562 256.21875 1074.894531 255.378906 1069.699219 C 254.746094 1065.777344 256.605469 1062.40625 257.878906 1059.089844 C 259.550781 1054.738281 260.265625 1050.542969 259.945312 1045.921875 C 259.769531 1043.378906 260.308594 1040.640625 261.136719 1038.199219 C 262.808594 1033.292969 262.808594 1028.3125 262.804688 1023.238281 C 262.800781 1017.320312 263.183594 1011.398438 263.53125 1005.488281 C 263.597656 1004.34375 264.191406 1003.199219 264.679688 1002.121094 C 266.441406 998.230469 266.207031 994.671875 264.292969 990.695312 C 262.449219 986.867188 261.03125 982.660156 263.128906 978.128906 C 264.394531 975.390625 264.789062 972.261719 265.816406 969.398438 C 267.992188 963.351562 265.828125 957.265625 266.179688 951.214844 C 266.386719 947.65625 266.707031 944.101562 266.992188 940.546875 C 267.226562 937.660156 267.4375 934.769531 267.753906 931.890625 C 267.855469 930.992188 268.003906 929.820312 268.59375 929.300781 C 271.109375 927.101562 270.355469 924.894531 268.960938 922.566406 C 267.882812 920.773438 267.433594 918.96875 268.390625 916.886719 C 268.875 915.839844 269.078125 914.53125 268.988281 913.375 C 268.667969 909.304688 269.222656 905.46875 271.101562 901.789062 C 271.527344 900.957031 271.570312 899.507812 271.117188 898.734375 C 269.589844 896.113281 270.164062 893.710938 271.140625 891.132812 C 271.8125 889.351562 272.730469 887.542969 271.25 885.484375 C 270.734375 884.769531 271.34375 883.21875 271.496094 882.058594 C 271.941406 878.644531 273.527344 874.890625 272.605469 871.910156 C 271.300781 867.714844 272.425781 864.570312 274.042969 861.140625 C 274.988281 859.136719 275.605469 856.890625 276.917969 855.175781 C 279.738281 851.484375 280.84375 847.40625 280.785156 842.878906 C 280.765625 841.554688 280.578125 840.148438 280.945312 838.921875 C 282.25 834.546875 283.582031 830.164062 285.257812 825.925781 C 286.210938 823.515625 287.875 821.386719 289.183594 819.113281 C 291.824219 814.535156 293.089844 809.640625 293.175781 804.3125 C 293.207031 802.457031 294.207031 800.414062 295.289062 798.8125 C 299.519531 792.550781 300.15625 785.640625 299.597656 778.390625 C 299.480469 776.886719 300.09375 775.339844 300.21875 773.800781 C 300.632812 768.625 303.855469 764.957031 306.75 761.035156 C 309.480469 757.339844 311.945312 753.4375 314.398438 749.542969 C 315.949219 747.078125 317.671875 744.570312 315.113281 741.5625 C 314.675781 741.046875 314.957031 739.4375 315.449219 738.695312 C 318.515625 734.066406 321.382812 729.226562 325.054688 725.113281 C 326.988281 722.949219 329.863281 721.738281 331.167969 718.6875 C 333.015625 714.375 335.34375 710.265625 337.472656 706.074219 C 337.589844 705.839844 337.726562 705.582031 337.925781 705.425781 C 343.191406 701.265625 344.96875 694.644531 349.078125 689.671875 C 349.671875 688.953125 350.128906 687.917969 350.890625 687.582031 C 354.074219 686.167969 355.589844 683.171875 357.734375 680.777344 C 358.972656 679.394531 360.054688 677.824219 361.472656 676.660156 C 363.984375 674.59375 365.867188 672.253906 366.957031 669.117188 C 367.757812 666.8125 369.722656 665.648438 372.078125 664.550781 C 376.226562 662.617188 380.125 660.015625 383.816406 657.277344 C 386.855469 655.023438 389.34375 652.414062 393.285156 651.128906 C 398.5 649.425781 403.109375 645.945312 408.207031 643.769531 C 413.398438 641.558594 418.867188 639.980469 424.222656 638.160156 C 428.710938 636.632812 433.292969 635.332031 437.648438 633.5 C 438.523438 633.132812 438.886719 630.835938 438.953125 629.40625 C 439.148438 625.128906 439.007812 625.070312 434.820312 623.402344 Z M 539.964844 334.058594 C 542.59375 331.988281 544.742188 329.800781 545.554688 326.195312 C 547.171875 318.988281 549.519531 311.9375 549.96875 304.492188 C 550.214844 300.394531 550.894531 296.222656 550.386719 292.207031 C 549.992188 289.074219 548.65625 285.664062 546.699219 283.203125 C 543.167969 278.757812 538.660156 275.261719 532.933594 273.714844 C 530.558594 273.070312 528.820312 273.839844 528.71875 276.320312 C 528.660156 277.757812 529.160156 279.539062 530.054688 280.632812 C 531.71875 282.667969 533.914062 284.257812 535.777344 286.144531 C 536.773438 287.152344 538.230469 288.367188 538.28125 289.539062 C 538.566406 296.277344 540.898438 302.625 541.46875 309.382812 C 542.175781 317.71875 537.757812 323.199219 533.738281 329.078125 C 532.480469 330.917969 531.332031 332.363281 531.484375 334.484375 C 533.070312 335.367188 534.4375 336.445312 535.992188 336.921875 C 538.410156 337.664062 539.097656 335.5 540.0625 333.949219 Z M 671.574219 416.304688 C 667.347656 416.992188 663.835938 417.472656 660.363281 418.152344 C 655.742188 419.054688 652.855469 422.125 651.515625 426.40625 C 648.707031 435.367188 644.011719 442.832031 635.9375 447.960938 C 634.742188 448.714844 633.523438 449.8125 632.917969 451.046875 C 630.539062 455.898438 628.296875 460.824219 626.214844 465.808594 C 625.03125 468.640625 622.496094 471.117188 623.660156 474.707031 C 623.828125 475.226562 622.988281 476.050781 622.65625 476.753906 C 620.484375 481.371094 618.265625 485.972656 616.203125 490.636719 C 615.800781 491.554688 616.109375 492.761719 615.902344 493.800781 C 615.03125 498.191406 614.09375 502.566406 613.171875 506.945312 C 612.710938 509.140625 612.183594 511.324219 611.78125 513.527344 C 610.84375 518.707031 610.09375 523.921875 609.011719 529.070312 C 608.339844 532.269531 608.042969 535.28125 609.285156 538.453125 C 609.808594 539.777344 609.925781 541.777344 609.28125 542.953125 C 607.320312 546.503906 606.84375 550.199219 607.636719 553.996094 C 608.519531 558.234375 607.488281 562.277344 606.257812 566.089844 C 605.367188 568.859375 605.007812 571.390625 605.191406 574.21875 C 605.609375 580.582031 606.507812 587.027344 605.863281 593.304688 C 605.34375 598.363281 605.425781 602.921875 607.566406 607.5 C 607.988281 608.398438 608.046875 609.625 607.859375 610.621094 C 606.933594 615.582031 607.125 620.332031 609.582031 624.902344 C 610.101562 625.867188 610.015625 627.195312 610.082031 628.363281 C 610.347656 633.246094 606.847656 638.1875 610.621094 643.089844 C 611.636719 644.414062 611.789062 646.585938 611.867188 648.386719 C 611.953125 650.417969 611.503906 652.46875 611.285156 654.511719 C 611.097656 656.289062 610.277344 658.304688 610.835938 659.800781 C 612.894531 665.300781 611.203125 671.511719 614.273438 676.765625 C 614.507812 677.164062 614.390625 677.8125 614.335938 678.335938 C 613.628906 685.003906 614.308594 691.648438 614.90625 698.261719 C 615.1875 701.375 616.746094 704.355469 617.148438 707.46875 C 617.980469 713.910156 618.136719 720.449219 619.105469 726.863281 C 620.429688 735.652344 621.628906 744.535156 623.996094 753.070312 C 628.796875 770.371094 634.199219 787.507812 639.664062 804.613281 C 641.507812 810.378906 643.535156 816.191406 647.394531 821.105469 C 648.078125 821.976562 648.503906 823.308594 648.5 824.425781 C 648.488281 828.800781 650.511719 832.304688 653.019531 835.585938 C 655.726562 839.128906 658.941406 842.332031 659.671875 847.035156 C 659.804688 847.914062 660.25 848.808594 660.761719 849.550781 C 663.75 853.882812 666.820312 858.152344 669.820312 862.476562 C 671.835938 865.386719 673.757812 868.363281 675.75 871.289062 C 679.519531 876.824219 682.742188 882.867188 687.222656 887.75 C 693.832031 894.953125 700.640625 902.175781 709.492188 906.828125 C 711.785156 908.035156 714.679688 908.21875 716.792969 909.625 C 722.921875 913.703125 730.203125 914.53125 736.84375 917.109375 C 738.683594 917.824219 741.402344 917.335938 743.316406 916.492188 C 745.175781 915.667969 746.714844 915.585938 748.625 915.804688 C 750.488281 916.015625 752.4375 915.574219 754.335938 915.328125 C 755.105469 915.230469 755.867188 914.65625 756.601562 914.707031 C 761.683594 915.066406 766.238281 914.503906 771.011719 911.808594 C 774.269531 909.972656 778.734375 909.808594 782.59375 908.351562 C 788.125 906.261719 794.082031 905.316406 799.636719 903.285156 C 803.839844 901.746094 807.738281 899.34375 811.679688 897.160156 C 812.523438 896.695312 812.957031 895.5 813.605469 894.664062 C 816.585938 890.800781 819.140625 886.46875 822.675781 883.203125 C 827.140625 879.082031 831.3125 875.164062 832.21875 868.75 C 832.421875 867.324219 833.816406 866.050781 834.703125 864.734375 C 835.21875 863.96875 836.085938 863.339844 836.339844 862.511719 C 838.578125 855.199219 840.730469 847.867188 842.867188 840.527344 C 843.941406 836.855469 844.894531 833.148438 845.972656 829.476562 C 847.125 825.554688 849.09375 821.839844 848.503906 817.503906 C 848.355469 816.40625 848.742188 814.996094 849.386719 814.082031 C 852.71875 809.347656 852.980469 803.613281 854.628906 798.351562 C 855.394531 795.902344 855.234375 793.171875 855.597656 790.585938 C 856.558594 783.78125 860.136719 777.582031 860.308594 770.59375 C 860.382812 767.59375 860.671875 764.515625 860.117188 761.617188 C 859.769531 759.796875 859.886719 758.382812 860.410156 756.695312 C 862.585938 749.652344 863.714844 742.464844 863.0625 735.054688 C 862.902344 733.210938 862.957031 731.34375 862.972656 729.484375 C 863.019531 724.445312 863.140625 719.40625 863.132812 714.363281 C 863.132812 713.472656 862.558594 712.59375 862.429688 711.683594 C 861.933594 708.097656 860.617188 704.824219 861.328125 700.839844 C 862.480469 694.367188 862.949219 687.699219 861.664062 681.015625 C 860.964844 677.410156 860.59375 673.46875 861.308594 669.925781 C 862.226562 665.378906 861.289062 661.640625 859.183594 657.789062 C 855.644531 651.304688 856.464844 644.585938 858.433594 637.835938 C 858.789062 636.628906 859.34375 634.984375 858.835938 634.09375 C 855.28125 627.882812 853.6875 621.210938 853.214844 614.136719 C 853.042969 611.546875 852.660156 608.773438 851.53125 606.5 C 849.84375 603.101562 848.542969 599.792969 848.375 595.9375 C 848.257812 593.214844 847.339844 590.539062 846.902344 587.820312 C 846.589844 585.871094 846.484375 583.890625 846.285156 581.921875 C 846.046875 579.546875 846.042969 577.117188 845.523438 574.804688 C 844.042969 568.238281 842.339844 561.722656 840.75 555.179688 C 839.171875 548.675781 837.835938 542.101562 836.003906 535.667969 C 833.738281 527.6875 830.910156 519.859375 828.628906 511.878906 C 826.816406 505.539062 826.074219 498.917969 823.566406 492.742188 C 822.171875 489.316406 821.046875 485.777344 819.792969 482.292969 C 818.871094 479.734375 817.632812 477.246094 817.082031 474.609375 C 816.222656 470.492188 815.082031 466.464844 811.828125 463.738281 C 808.15625 460.65625 806.417969 456.667969 804.910156 452.378906 C 804.351562 450.789062 803.359375 449.347656 802.515625 447.867188 C 801.613281 446.28125 800.613281 444.753906 799.734375 443.15625 C 798.59375 441.085938 797.628906 438.914062 796.40625 436.894531 C 794.902344 434.402344 793.210938 432.027344 791.605469 429.59375 C 791.09375 428.820312 790.78125 427.617188 790.074219 427.316406 C 785.65625 425.421875 783.742188 421.191406 780.816406 417.886719 C 775.53125 411.914062 768.363281 408.675781 761.351562 405.339844 C 755.871094 402.730469 750.144531 400.625 744.613281 398.109375 C 742.140625 396.984375 739.984375 395.136719 737.488281 394.09375 C 734.199219 392.726562 730.710938 391.839844 727.320312 390.726562 C 725.085938 389.992188 722.863281 389.226562 720.285156 388.355469 C 719.796875 389.828125 719.367188 390.90625 719.082031 392.023438 C 718.050781 396.097656 717.417969 400.3125 715.976562 404.234375 C 713.847656 410.03125 712.171875 416.078125 707.710938 420.8125 C 704.257812 424.480469 701.433594 428.761719 696.578125 430.878906 C 693.117188 432.390625 693.160156 432.769531 694.34375 436.667969 C 695.800781 441.46875 697.519531 446.296875 698.070312 451.230469 C 698.617188 456.105469 700.320312 460.402344 702.390625 464.632812 C 703.503906 466.917969 703.769531 469.0625 703.398438 471.546875 C 703.144531 473.273438 703.148438 475.40625 703.949219 476.851562 C 705.699219 480.011719 705.925781 483.097656 705.082031 486.46875 C 704.765625 487.742188 704.476562 489.125 704.636719 490.402344 C 705.289062 495.464844 707.515625 500.339844 706.375 505.625 C 706.304688 505.941406 706.703125 506.332031 706.804688 506.710938 C 707.339844 508.699219 708.027344 510.667969 708.335938 512.695312 C 709.140625 517.957031 706.890625 523.535156 709.953125 528.585938 C 710.074219 528.78125 710.0625 529.136719 709.972656 529.363281 C 708.128906 534.089844 710.816406 538.414062 711.207031 542.941406 C 711.566406 547.105469 713.585938 551.128906 712.148438 555.457031 C 711.964844 556.019531 712.160156 556.773438 712.34375 557.390625 C 713.28125 560.554688 714.328125 563.6875 715.203125 566.871094 C 715.425781 567.695312 715.390625 568.753906 715.066406 569.539062 C 713.523438 573.273438 714.4375 576.824219 715.609375 580.394531 C 716.566406 583.320312 717.53125 586.210938 715.464844 589.167969 C 715.085938 589.707031 715.457031 590.953125 715.769531 591.761719 C 718.214844 598.070312 718.796875 604.738281 719.628906 611.355469 C 720.390625 617.410156 719.011719 623.398438 720.914062 629.679688 C 723.367188 637.804688 723.601562 646.585938 724.953125 655.058594 C 725.589844 659.0625 726.648438 663 727.402344 666.988281 C 727.5625 667.820312 727.144531 668.742188 727.128906 669.628906 C 727.058594 673.960938 726.59375 678.347656 727.113281 682.613281 C 727.652344 687.023438 729.039062 691.324219 728.90625 695.855469 C 728.878906 696.8125 729.3125 697.785156 729.492188 698.554688 C 732.699219 697.804688 735.523438 696.515625 738.269531 696.667969 C 741.386719 696.84375 744.265625 696.339844 747.226562 695.789062 C 748.117188 695.621094 749.050781 695.671875 749.953125 695.546875 C 755.28125 694.8125 760.609375 694.058594 766.089844 693.285156 C 765.988281 691.941406 765.96875 691.027344 765.835938 690.128906 C 765.441406 687.382812 764.722656 684.648438 764.648438 681.890625 C 764.558594 678.621094 763.996094 675.722656 762.085938 672.929688 C 760.78125 671.023438 760.160156 668.609375 759.441406 666.355469 C 758.359375 662.96875 757.585938 659.476562 756.453125 656.109375 C 754.515625 650.355469 752.296875 644.695312 750.40625 638.929688 C 749.132812 635.039062 748.207031 631.035156 747.140625 627.078125 C 745.695312 621.710938 744.429688 616.390625 744.347656 610.703125 C 744.273438 605.414062 742.808594 600.097656 739.6875 595.664062 C 736.359375 590.945312 735.5625 585.796875 735.699219 580.261719 C 735.738281 578.859375 735.492188 577.363281 734.996094 576.050781 C 733.402344 571.839844 731.210938 567.804688 730.082031 563.484375 C 729.34375 560.675781 729.632812 557.402344 730.234375 554.496094 C 730.882812 551.371094 735.726562 548.011719 737.683594 549.09375 C 741.753906 551.351562 745.363281 554.1875 746.96875 558.957031 C 748.140625 562.433594 749.734375 565.761719 751.136719 569.15625 C 753.019531 573.722656 755.34375 578.121094 757.363281 582.554688 C 759.964844 588.265625 760.34375 595.015625 761.515625 601.34375 C 762.226562 605.191406 763.308594 608.839844 765.886719 611.855469 C 767.167969 613.351562 767.667969 614.785156 767.535156 616.882812 C 767.246094 621.550781 766.570312 626.414062 770.433594 630.328125 C 771.152344 631.054688 771.292969 632.5625 771.332031 633.71875 C 771.625 642.5 775.730469 650.324219 777.757812 658.667969 C 780.179688 668.644531 784.476562 678.164062 787.953125 687.886719 C 788.21875 688.636719 788.488281 689.410156 788.585938 690.195312 C 789.242188 695.304688 789.855469 700.421875 790.476562 705.539062 C 790.953125 709.480469 792.339844 713.574219 791.707031 717.328125 C 790.089844 726.878906 791.886719 736.753906 788.714844 746.109375 C 788.488281 746.785156 788.84375 747.65625 788.929688 748.4375 C 789.117188 750.117188 789.574219 751.824219 789.433594 753.476562 C 789.210938 756.097656 788.238281 758.679688 788.21875 761.285156 C 788.1875 765.320312 786.402344 768.320312 783.945312 771.277344 C 782.746094 772.722656 782.1875 774.71875 781.429688 776.503906 C 778.535156 783.320312 774.792969 789.523438 768.347656 793.566406 C 766.433594 794.769531 764.265625 795.175781 761.886719 794.148438 C 760.359375 793.488281 758.515625 793.28125 756.828125 793.335938 C 751.132812 793.519531 746.789062 790.410156 743.253906 786.820312 C 739.628906 783.140625 734.320312 780.847656 732.746094 775.28125 C 732.714844 775.175781 732.558594 775.09375 732.445312 775.023438 C 727.484375 771.898438 725.933594 766.597656 723.894531 761.609375 C 723.09375 759.648438 722.421875 757.609375 721.398438 755.769531 C 717.921875 749.519531 716.234375 742.738281 715.152344 735.757812 C 714.210938 729.691406 712.953125 723.808594 709.542969 718.449219 C 708.132812 716.234375 707.027344 712.898438 707.636719 710.554688 C 708.476562 707.328125 707.425781 704.867188 706.726562 702.09375 C 706.277344 700.316406 705.949219 698.496094 705.703125 696.675781 C 705.105469 692.234375 704.804688 687.742188 703.976562 683.347656 C 703.277344 679.625 701.3125 676.089844 702.996094 672.136719 C 703.273438 671.476562 703.0625 670.558594 702.9375 669.785156 C 701.558594 661.027344 700.066406 652.289062 698.789062 643.515625 C 698.3125 640.246094 697.882812 636.867188 698.191406 633.605469 C 699.097656 623.910156 697.355469 614.640625 694.640625 605.429688 C 694.011719 603.292969 692.992188 600.554688 693.789062 598.859375 C 695.914062 594.320312 694.335938 589.785156 693.929688 585.59375 C 693.132812 577.335938 694.714844 569.128906 693.535156 560.941406 C 693.390625 559.933594 693.761719 558.84375 693.945312 557.796875 C 694.472656 554.789062 694.683594 551.894531 693.855469 548.789062 C 693.019531 545.636719 693.09375 542.238281 692.769531 538.949219 C 692.476562 535.957031 692.234375 532.957031 691.882812 529.96875 C 691.695312 528.398438 691.265625 526.859375 691.042969 525.289062 C 690.261719 519.738281 691.765625 513.90625 688.804688 508.59375 C 688.214844 507.53125 688.28125 505.964844 688.410156 504.667969 C 688.75 501.265625 689.449219 497.894531 689.699219 494.488281 C 689.910156 491.585938 689.792969 488.648438 689.652344 485.730469 C 689.394531 480.46875 689.023438 475.214844 688.671875 469.957031 C 688.480469 467.082031 688.441406 464.179688 687.960938 461.351562 C 686.917969 455.265625 685.375 449.253906 684.527344 443.144531 C 683.800781 437.90625 682.132812 433.414062 677.855469 430.085938 C 677.039062 429.445312 676.148438 428.644531 675.78125 427.726562 C 674.277344 423.960938 672.960938 420.125 671.574219 416.304688 Z M 523.84375 627.289062 C 521.121094 621.878906 518.730469 617.210938 516.429688 612.496094 C 515.933594 611.488281 515.402344 610.292969 515.492188 609.234375 C 515.867188 604.847656 515.5625 600.597656 514.132812 596.394531 C 511.992188 590.109375 508.535156 583.941406 512.003906 577.007812 C 512.28125 576.453125 512.207031 575.699219 512.210938 575.035156 C 512.230469 571.5 511.972656 567.945312 512.269531 564.433594 C 512.921875 556.816406 513.804688 549.214844 514.6875 541.617188 C 515.40625 535.429688 516.5 529.261719 514.277344 523.132812 C 514.027344 522.4375 514.15625 521.539062 514.316406 520.773438 C 516.058594 512.339844 516.910156 503.828125 516.621094 495.207031 C 516.59375 494.414062 516.519531 493.542969 516.792969 492.835938 C 518.722656 487.832031 518.792969 482.550781 519.132812 477.324219 C 519.285156 474.972656 518.964844 472.597656 519.054688 470.242188 C 519.125 468.421875 519.457031 466.605469 519.746094 464.800781 C 520.195312 461.945312 520.785156 459.105469 521.164062 456.242188 C 521.492188 453.761719 521.511719 451.238281 521.835938 448.757812 C 522.417969 444.3125 523.308594 439.898438 523.71875 435.441406 C 524.019531 432.164062 523.695312 428.832031 523.78125 425.527344 C 523.847656 422.929688 524.199219 420.339844 524.265625 417.742188 C 524.324219 415.523438 523.917969 413.269531 524.152344 411.078125 C 524.566406 407.203125 525.527344 403.382812 525.855469 399.507812 C 526.246094 394.910156 526.175781 390.277344 526.367188 385.664062 C 526.582031 380.359375 526.945312 375.0625 527.0625 369.757812 C 527.09375 368.410156 526.605469 366.976562 526.054688 365.710938 C 524.660156 362.523438 522.898438 359.484375 521.675781 356.234375 C 520.976562 354.375 520.011719 353.382812 518.210938 353.90625 C 512.726562 355.5 507.085938 356.8125 501.910156 359.136719 C 497.277344 361.21875 492.972656 363.644531 487.609375 362.164062 C 487.390625 362.867188 487.074219 363.371094 487.113281 363.847656 C 487.617188 370.464844 485.359375 376.617188 483.964844 382.914062 C 483.597656 384.582031 482.820312 386.484375 483.28125 387.949219 C 485.148438 393.894531 482.757812 399.730469 483.21875 405.605469 C 483.257812 406.109375 483.117188 406.71875 482.847656 407.140625 C 480.5 410.785156 480.644531 415.0625 481.394531 418.765625 C 482.578125 424.628906 480.539062 429.949219 479.988281 435.476562 C 479.398438 441.375 477.847656 447.179688 476.726562 453.027344 C 475.867188 457.515625 475.089844 462.019531 474.140625 466.488281 C 473.792969 468.132812 472.269531 469.921875 472.648438 471.253906 C 473.8125 475.367188 471.695312 478.488281 470.339844 481.890625 C 470.003906 482.734375 469.578125 483.574219 469.417969 484.457031 C 468.601562 488.953125 467.703125 493.441406 467.132812 497.96875 C 466.660156 501.730469 466.726562 505.554688 466.328125 509.324219 C 465.828125 514.09375 465.089844 518.832031 464.484375 523.589844 C 464.347656 524.636719 464.117188 525.738281 464.296875 526.75 C 464.875 529.996094 463.667969 532.675781 462.109375 535.378906 C 461.515625 536.410156 461.382812 537.777344 461.300781 539.011719 C 461.144531 541.335938 461.335938 543.6875 461.09375 545.996094 C 460.78125 548.996094 460.132812 551.957031 459.734375 554.949219 C 459.367188 557.714844 459.25 560.515625 458.824219 563.269531 C 458.414062 565.941406 458.105469 568.472656 459.578125 571.011719 C 460.09375 571.894531 459.992188 573.308594 459.777344 574.402344 C 459.003906 578.367188 457.585938 582.191406 458.316406 586.394531 C 458.96875 590.136719 458.640625 594.121094 459.738281 597.691406 C 460.65625 600.6875 461.347656 603.511719 460.835938 606.554688 C 460.292969 609.757812 460.257812 612.839844 461.542969 615.925781 C 461.914062 616.8125 461.773438 618.074219 461.480469 619.046875 C 460.5625 622.121094 461.789062 624.410156 463.152344 625.949219 C 465.660156 626.070312 467.417969 626.101562 469.160156 626.25 C 475.617188 626.804688 482.058594 627.894531 488.304688 624.835938 C 491.28125 623.375 494.480469 622.226562 497.722656 624.585938 C 498.292969 625 499.253906 624.996094 500.035156 624.988281 C 506.601562 624.914062 513.230469 624.109375 519.457031 627.234375 C 520.289062 627.652344 521.511719 627.289062 523.84375 627.289062 Z M 690.128906 416.789062 C 692.691406 412.726562 695.359375 408.972656 697.511719 404.941406 C 699.554688 401.117188 702.5 397.75 703.214844 393.199219 C 703.96875 388.382812 705.378906 383.667969 706.019531 378.84375 C 706.191406 377.550781 704.800781 375.832031 703.746094 374.648438 C 702.1875 372.910156 700.203125 371.558594 698.554688 369.890625 C 695.789062 367.09375 694.140625 363.289062 690.402344 361.300781 C 689.515625 360.828125 689.105469 359.0625 688.878906 357.816406 C 688.101562 353.566406 689.480469 349.605469 691.285156 345.917969 C 693.476562 341.429688 696.046875 337.109375 698.648438 332.839844 C 700.085938 330.480469 701.9375 328.378906 703.566406 326.140625 C 705.984375 322.816406 709.949219 320.5625 710.074219 315.640625 C 710.117188 313.964844 711.300781 311.996094 712.546875 310.734375 C 717.699219 305.5 718.0625 299.488281 716.039062 292.925781 C 715.140625 290.007812 713.128906 288.59375 710.058594 288.941406 C 708.136719 289.160156 706.230469 289.527344 704.339844 289.933594 C 701.363281 290.578125 698.574219 290.015625 696.738281 287.671875 C 694.136719 284.351562 691.746094 280.8125 689.6875 277.132812 C 687.5625 273.328125 686.441406 268.894531 683.976562 265.367188 C 680.738281 260.738281 680.761719 255.910156 681.199219 250.792969 C 681.253906 250.152344 681.28125 249.394531 681 248.859375 C 678.484375 244.039062 675.984375 239.210938 673.292969 234.492188 C 672.175781 232.527344 670.320312 232.09375 668.101562 232.980469 C 666.773438 233.511719 665.300781 233.839844 663.871094 233.921875 C 659.589844 234.167969 655.292969 234.15625 651.011719 234.417969 C 646.410156 234.695312 642.128906 233.515625 638.128906 231.503906 C 634.367188 229.613281 630.941406 227.046875 627.167969 225.179688 C 621.449219 222.347656 615.5625 219.859375 609.328125 217.039062 C 604.824219 222.46875 604.367188 230.003906 599.695312 235.636719 C 603.40625 238.496094 606.71875 241.007812 609.972656 243.589844 C 610.578125 244.070312 610.925781 244.859375 611.453125 245.453125 C 616.421875 251.027344 618.265625 258.214844 621.0625 264.839844 C 622.167969 267.449219 623.632812 268.929688 625.699219 270.359375 C 627.421875 271.546875 629.0625 272.859375 630.707031 274.160156 C 631.949219 275.144531 633.015625 276.425781 634.378906 277.1875 C 639.648438 280.121094 642.351562 285.226562 644.015625 290.402344 C 645.269531 294.300781 648.183594 296.0625 650.492188 298.660156 C 650.898438 299.117188 652.054688 299.300781 652.703125 299.09375 C 657.839844 297.457031 660.394531 300.699219 662.507812 304.378906 C 664.285156 307.460938 665.546875 310.839844 667.242188 313.972656 C 669.171875 317.539062 669.472656 321.242188 667.632812 324.691406 C 665.792969 328.140625 664.917969 331.75 663.976562 335.464844 C 662.714844 340.441406 664.691406 344.71875 666.089844 349.167969 C 666.21875 349.585938 666.816406 349.855469 667.304688 350.285156 C 668.066406 349.816406 668.746094 349.441406 669.375 349 C 671.96875 347.171875 674.515625 345.28125 677.144531 343.507812 C 678.675781 342.472656 680.492188 342.582031 681.371094 344.128906 C 682.035156 345.296875 682.382812 347.359375 681.78125 348.386719 C 680.261719 350.976562 678.277344 353.351562 676.195312 355.546875 C 674.042969 357.816406 671.554688 359.769531 669.300781 361.78125 C 671.285156 369.121094 673.292969 376.402344 675.203125 383.707031 C 675.800781 385.996094 676.09375 388.363281 676.597656 390.679688 C 677.039062 392.699219 677.90625 394.683594 678.007812 396.710938 C 678.167969 399.972656 678.601562 403.019531 681 405.648438 C 683.84375 405.40625 685.863281 406.238281 686.730469 409.546875 C 687.410156 412.121094 688.996094 414.453125 690.128906 416.789062 Z M 575.734375 345.140625 C 576.546875 346.199219 576.984375 346.851562 577.5 347.433594 C 579.910156 350.152344 582.132812 352.882812 581.953125 356.902344 C 581.914062 357.851562 582.898438 359.078125 583.738281 359.800781 C 590.1875 365.394531 596.8125 370.796875 603.191406 376.472656 C 606.335938 379.265625 609.609375 378.976562 613.242188 378.121094 C 617.339844 377.152344 621.472656 376.183594 625.644531 375.714844 C 628.609375 375.378906 631.332031 375.023438 633.816406 373.136719 C 635.234375 372.0625 637.328125 370.859375 638.902344 372.5625 C 640.316406 374.089844 640.730469 376.578125 642.203125 378.011719 C 643.789062 379.554688 646.957031 379.15625 647.707031 382.027344 C 648.945312 386.753906 650.128906 391.492188 651.386719 396.210938 C 651.714844 397.449219 652.089844 398.714844 652.707031 399.820312 C 654.101562 402.316406 655.664062 404.722656 657.386719 407.535156 C 659.816406 406.9375 662.679688 406.230469 665.230469 405.605469 C 664.964844 402.804688 664.019531 400.328125 664.714844 398.46875 C 665.925781 395.230469 665.058594 392.296875 664.820312 389.214844 C 664.167969 380.753906 661.210938 372.863281 657.824219 365.320312 C 655.074219 359.207031 653.421875 353.175781 653.742188 346.605469 C 653.867188 344.085938 653.539062 341.941406 651.984375 339.898438 C 649.382812 336.472656 647.324219 332.894531 650.867188 328.796875 C 651.023438 328.617188 651.027344 328.296875 651.078125 328.039062 C 652.671875 319.566406 648.769531 313.183594 643.386719 306.957031 C 642.980469 307.734375 642.761719 308.058594 642.632812 308.414062 C 639.996094 315.6875 636.132812 321.625 627.390625 321.972656 C 625.054688 322.066406 622.703125 321.800781 620.363281 321.636719 C 619.339844 321.5625 618.171875 320.921875 617.335938 321.242188 C 611.445312 323.476562 605.902344 321.824219 600.34375 320.007812 C 597.269531 319.007812 594.183594 318.046875 591.140625 317.078125 C 589.625 320.015625 587.96875 322.011719 589.730469 324.976562 C 590.285156 325.914062 589.292969 327.957031 588.6875 329.355469 C 587.574219 331.914062 585.171875 332.234375 582.140625 331.871094 C 584.117188 334.976562 584.757812 337.613281 583.402344 340.570312 C 581.976562 343.675781 578.867188 343.863281 575.734375 345.140625 Z M 582.007812 632.132812 C 581.78125 630.175781 581.910156 629.207031 581.550781 628.476562 C 578.667969 622.644531 578.898438 616.121094 577.34375 609.996094 C 577.023438 608.746094 576.640625 607.136719 577.140625 606.109375 C 579.644531 600.980469 577.910156 596.238281 576.25 591.441406 C 574.386719 586.050781 572.445312 580.710938 572.542969 574.84375 C 572.574219 573.097656 571.625 571.335938 571.117188 569.582031 C 570.824219 568.574219 570.421875 567.585938 570.230469 566.558594 C 569.234375 561.160156 569 555.824219 570.828125 550.472656 C 571.449219 548.664062 571.183594 546.519531 571.171875 544.53125 C 571.128906 537.027344 570.035156 529.582031 571.101562 522.003906 C 571.652344 518.082031 573.046875 513.90625 571.273438 509.816406 C 571.042969 509.285156 571.339844 508.527344 571.398438 507.871094 C 571.640625 505.113281 571.96875 502.359375 572.113281 499.597656 C 572.34375 495.167969 572.921875 490.757812 573.230469 486.339844 C 573.8125 478.003906 575.835938 469.769531 577.25 461.488281 C 577.664062 459.0625 579.71875 456.730469 581.660156 456.546875 C 584.605469 456.269531 586.972656 457.617188 588.117188 460.101562 C 588.605469 461.164062 589.410156 462.089844 589.84375 463.167969 C 590.714844 465.324219 591.953125 467.507812 592.089844 469.738281 C 592.332031 473.699219 591.820312 477.699219 591.714844 481.683594 C 591.632812 484.621094 591.699219 487.566406 591.699219 490.507812 C 594.617188 485.148438 596.730469 479.785156 598.820312 474.414062 C 601.308594 468.019531 603.742188 461.601562 606.269531 455.222656 C 607.230469 452.792969 608.207031 450.34375 609.5 448.089844 C 610.585938 446.191406 611.917969 444.316406 613.527344 442.859375 C 617.046875 439.664062 617.757812 436.96875 615.402344 432.847656 C 614.222656 430.785156 612.722656 428.910156 611.394531 426.933594 C 607.453125 421.078125 608.96875 414.117188 607.65625 407.726562 C 606.597656 402.582031 607.023438 397.246094 609.828125 392.445312 C 606.378906 391.867188 603.355469 391.523438 600.410156 390.828125 C 597.132812 390.054688 594.050781 389.320312 590.871094 391.398438 C 589.367188 392.378906 587.375 393.078125 585.601562 393.082031 C 582.15625 393.089844 580.925781 395.230469 579.628906 397.804688 C 576.152344 404.726562 573.585938 411.808594 573.761719 419.746094 C 573.886719 425.242188 573.53125 430.753906 573.339844 436.257812 C 573.3125 437.039062 572.957031 437.804688 572.867188 438.589844 C 572.578125 441.054688 572.058594 443.542969 572.164062 445.996094 C 572.308594 449.429688 573.601562 452.917969 573.222656 456.25 C 572.304688 464.320312 570.65625 472.308594 569.402344 480.347656 C 569.035156 482.699219 568.492188 485.207031 568.933594 487.464844 C 570.535156 495.703125 566.550781 503.066406 565.394531 510.839844 C 564.578125 516.34375 565.007812 521.675781 565.242188 526.996094 C 565.398438 530.503906 565.480469 533.738281 564.457031 537.097656 C 563.140625 541.417969 562.25 545.84375 563.6875 550.351562 C 564.679688 553.457031 564.828125 556.371094 563.667969 559.636719 C 562.839844 561.964844 563.488281 564.8125 563.4375 567.429688 C 563.410156 568.96875 563.675781 570.644531 563.164062 572.011719 C 561.941406 575.25 562.550781 578.199219 563.515625 581.339844 C 564.277344 583.8125 564.792969 586.484375 564.75 589.058594 C 564.664062 594.449219 564.164062 599.835938 563.789062 605.21875 C 563.578125 608.3125 563.933594 611.355469 562.335938 614.425781 C 561.015625 616.964844 560.976562 620.167969 560.402344 622.925781 C 567.824219 626.089844 574.53125 628.945312 582.007812 632.132812 Z M 1251.355469 1258.074219 C 1255.007812 1255.527344 1255.65625 1253.613281 1254.964844 1249.582031 C 1254.570312 1247.277344 1254.101562 1244.550781 1254.953125 1242.570312 C 1256.160156 1239.753906 1255.460938 1237.515625 1254.839844 1234.914062 C 1254.046875 1231.613281 1253.625 1228.207031 1253.285156 1224.824219 C 1252.914062 1221.164062 1253.320312 1217.359375 1252.503906 1213.820312 C 1250.363281 1204.53125 1247.660156 1195.371094 1245.351562 1186.117188 C 1244.425781 1182.398438 1244.46875 1178.375 1243.152344 1174.832031 C 1239.171875 1164.082031 1239.132812 1152.679688 1237.125 1141.613281 C 1236.921875 1140.503906 1237.21875 1139.265625 1237.4375 1138.117188 C 1238.210938 1134.03125 1238.570312 1130.003906 1236.773438 1126.03125 C 1236.125 1124.589844 1235.515625 1123.015625 1235.40625 1121.46875 C 1235.0625 1116.574219 1232.441406 1112.671875 1229.910156 1108.828125 C 1227.773438 1105.574219 1224.652344 1103.21875 1219.753906 1106.496094 C 1217.9375 1107.707031 1215.167969 1108.324219 1213 1108.023438 C 1207.167969 1107.210938 1202.371094 1109.144531 1197.605469 1112.113281 C 1195.648438 1113.328125 1193.128906 1114.378906 1190.925781 1114.277344 C 1187.585938 1114.125 1185.050781 1115.652344 1182.332031 1116.886719 C 1179.445312 1118.199219 1176.792969 1120.121094 1173.820312 1121.132812 C 1171.265625 1122.003906 1171.308594 1123.398438 1171.75 1125.398438 C 1172.714844 1129.777344 1173.695312 1134.15625 1174.535156 1138.558594 C 1174.988281 1140.957031 1175.164062 1143.40625 1175.519531 1146.292969 C 1178.28125 1145.683594 1180.480469 1145.320312 1182.605469 1144.703125 C 1186.269531 1143.640625 1189.816406 1141.882812 1193.539062 1141.410156 C 1197.660156 1140.886719 1201.882812 1139.769531 1206.148438 1141.460938 C 1209.402344 1142.746094 1212.917969 1143.363281 1216.265625 1144.433594 C 1217.484375 1144.820312 1218.632812 1145.5625 1219.6875 1146.316406 C 1224.945312 1150.089844 1222.648438 1156.890625 1225.710938 1161.566406 C 1225.804688 1161.714844 1225.605469 1162.070312 1225.523438 1162.324219 C 1224.273438 1166.09375 1225.726562 1169.515625 1227.355469 1172.65625 C 1229.820312 1177.410156 1232.417969 1181.976562 1230.585938 1187.605469 C 1230.480469 1187.929688 1230.65625 1188.386719 1230.804688 1188.742188 C 1233.640625 1195.671875 1234.039062 1203.125 1235.476562 1210.355469 C 1235.96875 1212.824219 1236.566406 1215.273438 1237.085938 1217.738281 C 1238.011719 1222.128906 1238.910156 1226.527344 1239.835938 1230.917969 C 1240.65625 1234.796875 1241.75 1238.636719 1242.28125 1242.550781 C 1243.164062 1249.050781 1245.644531 1254.46875 1251.355469 1258.074219 Z M 243.894531 1313.074219 C 244.984375 1319.1875 249.757812 1319.128906 253.417969 1320.320312 C 261.59375 1322.984375 269.730469 1321.289062 277.796875 1319.472656 C 280.769531 1318.804688 283.683594 1317.867188 286.636719 1317.09375 C 292.078125 1315.660156 297.527344 1314.25 302.976562 1312.84375 C 305.414062 1312.21875 307.84375 1311.554688 310.300781 1311.03125 C 315.695312 1309.882812 320.929688 1307.753906 326.675781 1308.847656 C 327.925781 1309.085938 329.410156 1308.199219 330.761719 1307.75 C 332.621094 1307.136719 334.429688 1306.015625 336.316406 1305.882812 C 340.203125 1305.613281 344.121094 1305.839844 348.027344 1305.886719 C 355.058594 1305.96875 361.632812 1304.332031 368.035156 1301.382812 C 373.074219 1299.066406 373.933594 1298.351562 373.847656 1292.933594 C 373.75 1286.816406 373.851562 1280.683594 373.453125 1274.585938 C 373.050781 1268.441406 372.140625 1262.332031 371.394531 1255.660156 C 363.023438 1256.574219 355.359375 1257.40625 348.121094 1258.195312 C 348.121094 1262.902344 348.132812 1267.109375 348.101562 1271.320312 C 348.097656 1271.832031 347.957031 1272.398438 347.710938 1272.84375 C 345.136719 1277.460938 344.367188 1283.332031 338.757812 1285.871094 C 338.527344 1285.976562 338.324219 1286.191406 338.167969 1286.402344 C 336.359375 1288.824219 333.800781 1289.601562 330.941406 1290.128906 C 326.523438 1290.945312 321.949219 1291.589844 317.855469 1293.300781 C 314.074219 1294.882812 310.386719 1295.714844 306.375 1295.808594 C 304.816406 1295.847656 303.15625 1296.160156 301.742188 1296.792969 C 298.757812 1298.128906 295.941406 1299.835938 292.976562 1301.222656 C 291.820312 1301.765625 290.457031 1301.910156 289.171875 1302.136719 C 285.675781 1302.753906 282.085938 1303.011719 278.6875 1303.96875 C 273.195312 1305.515625 268.339844 1309.214844 262.25 1308.824219 C 261.742188 1308.792969 261.117188 1308.886719 260.710938 1309.167969 C 256.789062 1311.863281 252.128906 1311.277344 247.800781 1312.15625 C 246.558594 1312.410156 245.332031 1312.734375 243.894531 1313.074219 Z M 541.746094 375.894531 C 541.507812 376.109375 541.269531 376.324219 541.03125 376.539062 C 545.066406 381.027344 545.875 386.179688 544.636719 391.824219 C 544.457031 392.65625 545.019531 393.621094 545.058594 394.535156 C 545.277344 399.957031 546.183594 405.492188 545.410156 410.777344 C 544.726562 415.453125 544.3125 419.996094 544.949219 424.597656 C 545.765625 430.460938 545.535156 436.1875 544.023438 441.917969 C 543.5625 443.671875 543.167969 445.746094 543.671875 447.386719 C 544.660156 450.605469 544.53125 453.582031 543.675781 456.769531 C 542.792969 460.054688 542.355469 463.464844 541.71875 466.820312 C 541.011719 470.558594 540.21875 474.28125 539.621094 478.039062 C 539.125 481.132812 538.929688 484.273438 538.476562 487.378906 C 538.117188 489.855469 537.597656 492.316406 537.101562 494.773438 C 535.980469 500.339844 534.78125 505.890625 533.734375 511.472656 C 533.550781 512.457031 534.035156 513.546875 534.085938 514.59375 C 534.175781 516.386719 534.347656 518.199219 534.160156 519.96875 C 533.65625 524.765625 531.324219 529.394531 533.484375 534.425781 C 534.164062 536.003906 533.757812 538.105469 533.660156 539.957031 C 533.488281 543.109375 533.167969 546.25 532.90625 549.398438 C 532.851562 550.050781 533.007812 550.882812 532.667969 551.332031 C 529.121094 556.019531 532.332031 561.089844 531.773438 565.933594 C 531.476562 568.503906 531.34375 571.09375 531.027344 573.660156 C 530.867188 574.953125 530.078125 576.261719 530.234375 577.480469 C 531.003906 583.5 532.042969 589.488281 532.882812 595.5 C 533.210938 597.832031 533.050781 600.242188 533.484375 602.542969 C 534.195312 606.3125 535.003906 610.089844 536.167969 613.742188 C 537.210938 617.035156 538.785156 620.160156 540.15625 623.433594 C 545.035156 619.894531 545.667969 618.253906 544.769531 612.851562 C 544.296875 609.980469 543.804688 607.089844 543.675781 604.191406 C 543.453125 599.171875 543.566406 594.140625 543.414062 589.117188 C 543.355469 587.273438 543.023438 585.429688 542.6875 583.609375 C 541.441406 576.867188 539.710938 570.1875 540.335938 563.226562 C 540.488281 561.535156 540.09375 559.699219 540.613281 558.152344 C 542.292969 553.144531 541.796875 548.148438 541.265625 543.070312 C 540.867188 539.269531 539.621094 534.929688 540.933594 531.722656 C 542.765625 527.242188 541.824219 522.875 542.546875 518.527344 C 543.449219 513.078125 543.96875 507.566406 544.667969 502.085938 C 544.699219 501.832031 544.863281 501.59375 544.988281 501.359375 C 547.132812 497.320312 547.515625 493.078125 546.820312 488.585938 C 546.328125 485.402344 546.601562 482.351562 548.957031 479.625 C 549.9375 478.488281 550.664062 476.136719 550.152344 474.898438 C 548.390625 470.636719 549.402344 466.667969 550.113281 462.457031 C 550.832031 458.15625 553.269531 453.957031 551.402344 449.363281 C 551.175781 448.808594 551.308594 448.027344 551.476562 447.40625 C 553.121094 441.332031 553.371094 435.113281 553.546875 428.871094 C 553.628906 425.980469 553.519531 422.910156 554.441406 420.25 C 556.253906 415.027344 558.964844 410.125 560.867188 404.929688 C 562.929688 399.300781 563.234375 393.019531 567.433594 388.808594 C 558.574219 384.355469 550.160156 380.125 541.746094 375.894531 Z M 467.367188 337.648438 C 467.089844 337.871094 466.808594 338.097656 466.527344 338.320312 C 467.347656 341.613281 469.96875 343.824219 472.617188 345.40625 C 474.714844 346.65625 477.867188 347.503906 480.101562 346.890625 C 485.40625 345.4375 489.53125 342.207031 490.402344 336.121094 C 490.890625 332.71875 491.804688 329.378906 492.222656 325.972656 C 493 319.664062 493.710938 313.339844 494.101562 307 C 494.226562 305.011719 493.28125 302.945312 492.730469 300.9375 C 492.316406 299.417969 491.535156 297.976562 491.285156 296.4375 C 490.257812 290.148438 485.546875 286.554688 481.210938 282.800781 C 479.246094 281.097656 475.84375 282 474.476562 283.960938 C 472.886719 286.238281 472.5625 290.921875 474.308594 291.613281 C 478.414062 293.238281 479.246094 296.765625 480.34375 300.289062 C 480.535156 300.902344 480.878906 301.527344 481.308594 302.007812 C 484.597656 305.679688 486.082031 310.160156 487.0625 314.851562 C 487.304688 316.011719 487.664062 317.308594 487.386719 318.390625 C 485.480469 325.796875 482.734375 332.851562 478.027344 338.992188 C 476.070312 341.542969 473.582031 341.914062 470.789062 340.132812 C 469.605469 339.375 468.507812 338.480469 467.367188 337.648438 Z M 559.753906 262.882812 C 561.121094 261.351562 562.480469 259.929688 563.730469 258.414062 C 567.660156 253.660156 570.753906 253.652344 574.59375 258.398438 C 575.167969 259.113281 575.894531 259.714844 576.601562 260.316406 C 579.886719 263.117188 580.96875 266.738281 580.324219 270.867188 C 579.851562 273.914062 584.136719 278.453125 587.171875 277.839844 C 587.789062 277.714844 588.625 277.371094 588.863281 276.882812 C 590.59375 273.355469 592.886719 269.976562 591.363281 265.640625 C 590.535156 263.285156 589.933594 260.796875 589.636719 258.320312 C 589.410156 256.402344 588.699219 255.160156 587.070312 254.171875 C 583.4375 251.972656 579.824219 249.730469 576.316406 247.339844 C 569.222656 242.511719 564.34375 242.632812 557.550781 247.996094 C 552 252.382812 552.765625 259.503906 559.753906 262.882812 Z M 628.242188 419.359375 C 628.722656 419.425781 629.199219 419.492188 629.679688 419.554688 C 630.792969 417.824219 632.097656 416.1875 632.984375 414.347656 C 635.558594 408.992188 640.707031 404.417969 637.925781 397.394531 C 637.070312 395.230469 637.222656 392.683594 636.503906 390.445312 C 635.464844 387.195312 633.675781 386.449219 630.460938 387.460938 C 628.59375 388.046875 626.730469 388.636719 624.214844 389.433594 C 626.453125 399.378906 625.328125 409.640625 628.242188 419.359375 Z M 594.707031 305.394531 C 594.945312 305.019531 595.183594 304.640625 595.421875 304.265625 C 595.050781 301.417969 593.597656 299.058594 591.335938 297.386719 C 587.34375 294.4375 583.160156 291.738281 579.0625 288.925781 C 576.804688 287.378906 574.625 285.703125 572.265625 284.332031 C 571.558594 283.917969 569.984375 283.960938 569.507812 284.460938 C 568.980469 285.011719 568.835938 286.621094 569.273438 287.257812 C 570.523438 289.089844 571.953125 290.90625 573.667969 292.289062 C 577.253906 295.171875 580.933594 297.976562 584.824219 300.425781 C 587.929688 302.378906 591.398438 303.757812 594.707031 305.394531 Z M 516.375 251.398438 C 510.171875 253.578125 506.515625 257.691406 504.078125 263.246094 C 506.734375 263.429688 509.1875 263.746094 511.636719 263.726562 C 515.21875 263.699219 517.785156 261.699219 517.632812 258.941406 C 517.5 256.503906 516.847656 254.097656 516.375 251.398438 Z M 516.375 251.398438 " fill-opacity="1" fill-rule="nonzero"/></g></svg>