<svg xmlns="http://www.w3.org/2000/svg" xmlns:xlink="http://www.w3.org/1999/xlink" width="1350" zoomAndPan="magnify" viewBox="75.00 233.76 1350.00 1032.48" height="1032" preserveAspectRatio="xMidYMid meet" version="1.0"><defs><clipPath id="737f634e9d"><path d="M 125.40625 272.394531 L 1374.90625 272.394531 L 1374.90625 1227.894531 L 125.40625 1227.894531 Z M 125.40625 272.394531 " clip-rule="nonzero"/></clipPath></defs><g clip-path="url(#737f634e9d)"><path fill="#000000" d="M 331.214844 275.246094 C 336.148438 274.480469 341.058594 273.375 346.023438 273.050781 C 350.683594 272.746094 355.421875 273.03125 360.085938 273.472656 C 366.726562 274.105469 373.339844 275.070312 379.949219 275.992188 C 382.546875 276.355469 385.089844 277.257812 387.691406 277.433594 C 391.710938 277.707031 395.789062 277.90625 399.789062 277.535156 C 408.855469 276.691406 417.488281 279.242188 426.300781 280.394531 C 428.984375 280.742188 431.824219 280.84375 434.464844 280.363281 C 440.203125 279.324219 445.804688 277.21875 451.566406 276.703125 C 456.875 276.226562 462.34375 277.074219 467.703125 277.664062 C 474.203125 278.378906 480.695312 279.246094 487.125 280.40625 C 492.703125 281.410156 498.171875 283.007812 503.722656 284.175781 C 509.292969 285.347656 514.875 286.507812 520.503906 287.328125 C 530.273438 288.75 540.082031 289.890625 549.871094 291.183594 C 550.828125 291.308594 551.953125 291.378906 552.664062 291.917969 C 557.503906 295.582031 563.46875 295.300781 568.953125 296.601562 C 573.671875 297.722656 578.621094 297.894531 583.328125 299.050781 C 587.0625 299.96875 590.554688 301.824219 594.203125 303.125 C 601.769531 305.816406 609.199219 309.1875 616.988281 310.851562 C 625.363281 312.640625 633.101562 316.046875 641.167969 318.558594 C 646.496094 320.214844 651.25 323.628906 656.433594 325.855469 C 661.117188 327.867188 666.074219 329.234375 670.84375 331.0625 C 674.921875 332.628906 679.136719 332.824219 683.414062 333.238281 C 687.054688 333.589844 690.738281 334.941406 694.09375 336.515625 C 698.957031 338.796875 703.960938 340.054688 709.230469 340.980469 C 715.632812 342.105469 721.886719 344.09375 728.1875 345.757812 C 733.097656 347.058594 738 348.382812 742.875 349.800781 C 745.929688 350.695312 748.886719 351.964844 751.96875 352.746094 C 756.667969 353.941406 761.484375 354.683594 766.160156 355.949219 C 770.582031 357.144531 774.808594 359.105469 779.261719 360.121094 C 786.21875 361.710938 792.800781 364.164062 799.464844 366.660156 C 804.902344 368.699219 810.367188 371.308594 816.597656 371.34375 C 820.242188 371.363281 823.894531 372.992188 827.515625 374.007812 C 836.640625 376.574219 845.957031 377.902344 855.382812 378.742188 C 858.398438 379.011719 861.566406 379.539062 864.28125 380.78125 C 870.4375 383.601562 876.949219 383.777344 883.457031 384.261719 C 889.261719 384.695312 895.074219 385.050781 900.886719 385.421875 C 901.71875 385.476562 902.574219 385.535156 903.390625 385.410156 C 913.453125 383.886719 923.34375 385.085938 933.191406 387.175781 C 934.261719 387.402344 935.410156 387.257812 936.519531 387.308594 C 943.042969 387.597656 949.277344 388.894531 955.472656 391.207031 C 958.464844 392.324219 961.757812 392.804688 964.691406 394.363281 C 968.742188 396.519531 972.839844 398.59375 976.972656 400.585938 C 978.328125 401.238281 979.878906 401.484375 981.3125 401.996094 C 982.863281 402.546875 984.339844 403.335938 985.921875 403.761719 C 987.574219 404.203125 989.304688 404.441406 991.015625 404.582031 C 994.167969 404.835938 997.523438 404.332031 1000.457031 405.234375 C 1010.476562 408.324219 1020.550781 410.621094 1031.101562 410.777344 C 1036.621094 410.859375 1042.058594 411.929688 1047.664062 411.972656 C 1052.769531 412.011719 1057.980469 413.585938 1063.285156 413.742188 C 1065.667969 413.8125 1067.960938 415.550781 1070.378906 415.839844 C 1077.386719 416.679688 1084.527344 416.671875 1091.449219 417.933594 C 1099.046875 419.316406 1106.878906 418.703125 1114.34375 421.929688 C 1119.800781 424.289062 1126.140625 424.625 1132.097656 425.800781 C 1133.179688 426.011719 1134.394531 426.199219 1135.417969 425.921875 C 1142.195312 424.074219 1148.355469 426.601562 1154.617188 428.460938 C 1158.980469 429.753906 1163.40625 430.867188 1167.679688 432.402344 C 1175.121094 435.082031 1182.46875 438.023438 1189.855469 440.859375 C 1189.980469 440.910156 1190.085938 441.039062 1190.214844 441.066406 C 1195.289062 442.167969 1200.339844 443.976562 1205.445312 444.144531 C 1210.191406 444.300781 1214.054688 445.800781 1217.96875 448.011719 C 1219.738281 449.011719 1221.699219 449.890625 1223.679688 450.265625 C 1231.460938 451.738281 1239.265625 452.957031 1246.582031 456.308594 C 1249.324219 457.566406 1252.519531 457.796875 1255.441406 458.710938 C 1260.589844 460.316406 1265.621094 462.308594 1270.816406 463.722656 C 1276.585938 465.289062 1282.511719 466.257812 1288.308594 467.726562 C 1294.773438 469.367188 1301.199219 471.179688 1307.582031 473.109375 C 1313.128906 474.78125 1317.921875 478.320312 1323.722656 479.558594 C 1326.035156 480.054688 1327.964844 482.140625 1330.203125 483.210938 C 1335.171875 485.59375 1339.167969 488.925781 1342.679688 493.253906 C 1344.550781 495.558594 1347.988281 496.589844 1350.726562 498.191406 C 1352.027344 498.953125 1353.277344 499.855469 1354.664062 500.425781 C 1361.113281 503.085938 1364.238281 509.40625 1369.238281 513.679688 C 1374.074219 517.808594 1374.945312 524.214844 1374.582031 530.21875 C 1374.242188 535.855469 1372.683594 541.417969 1371.644531 547.007812 C 1371.566406 547.410156 1371.183594 547.8125 1371.238281 548.171875 C 1372.613281 557.527344 1368.109375 565.78125 1366.359375 574.550781 C 1365.792969 577.40625 1365.4375 580.3125 1364.769531 583.144531 C 1364.265625 585.285156 1363.371094 587.332031 1362.738281 589.445312 C 1360.816406 595.878906 1356.269531 601.128906 1355.519531 608.265625 C 1354.894531 614.230469 1352.144531 619.972656 1350.351562 625.820312 C 1349.457031 628.746094 1348.675781 631.707031 1347.71875 634.609375 C 1344.769531 643.542969 1342.175781 652.628906 1338.609375 661.3125 C 1336.734375 665.871094 1335.730469 670.480469 1334.402344 675.109375 C 1332.714844 680.996094 1329.195312 686.355469 1326.445312 691.933594 C 1325.902344 693.03125 1324.855469 694.042969 1324.742188 695.167969 C 1324.40625 698.578125 1324.132812 702.046875 1324.375 705.453125 C 1324.5625 708.070312 1323.566406 709.945312 1322.296875 712.015625 C 1316.515625 721.425781 1311.542969 731.316406 1309.0625 742.082031 C 1307.507812 748.84375 1305.066406 755.042969 1301.722656 761 C 1301.519531 761.363281 1301.324219 761.75 1301.230469 762.152344 C 1299.621094 768.90625 1298.050781 775.671875 1296.425781 782.421875 C 1295.351562 786.882812 1294.070312 791.300781 1293.136719 795.789062 C 1292.433594 799.175781 1292.269531 802.671875 1291.613281 806.066406 C 1291.167969 808.351562 1290.683594 810.789062 1289.527344 812.746094 C 1284.726562 820.875 1283.144531 829.9375 1281.359375 838.972656 C 1280.988281 840.859375 1280.25 842.675781 1279.738281 844.539062 C 1278.839844 847.816406 1278.148438 851.160156 1277.085938 854.378906 C 1274.652344 861.761719 1271.664062 868.980469 1269.644531 876.464844 C 1268.152344 881.992188 1266.375 887.375 1266.457031 893.503906 C 1266.554688 900.734375 1264.546875 908.074219 1261.625 914.964844 C 1259.574219 919.804688 1257.730469 924.75 1256.152344 929.765625 C 1255.164062 932.917969 1254.769531 936.269531 1254.230469 939.550781 C 1252.910156 947.558594 1250.355469 955.113281 1247.070312 962.558594 C 1245.328125 966.515625 1245.082031 971.183594 1244.4375 975.566406 C 1243.023438 985.121094 1240.519531 994.320312 1236.609375 1003.179688 C 1235.703125 1005.234375 1235.238281 1007.953125 1235.765625 1010.0625 C 1236.445312 1012.75 1235.660156 1014.566406 1234.4375 1016.679688 C 1233.40625 1018.453125 1232.488281 1020.417969 1232.085938 1022.410156 C 1229.84375 1033.582031 1227.753906 1044.789062 1225.664062 1055.992188 C 1225.332031 1057.761719 1225.386719 1059.601562 1225.066406 1061.371094 C 1224.679688 1063.539062 1224.445312 1065.839844 1223.519531 1067.785156 C 1220.335938 1074.480469 1219.902344 1081.535156 1219.769531 1088.777344 C 1219.707031 1092.136719 1218.570312 1095.53125 1217.597656 1098.8125 C 1215.074219 1107.355469 1213.832031 1116.121094 1212.242188 1124.851562 C 1211.152344 1130.828125 1210.699219 1137.058594 1207.777344 1142.851562 C 1205.070312 1148.214844 1203.441406 1154.226562 1203.78125 1160.554688 C 1203.992188 1164.503906 1202.765625 1167.9375 1199.828125 1171.082031 C 1198 1173.042969 1197.453125 1176.347656 1196.714844 1179.152344 C 1195.375 1184.253906 1194.679688 1189.546875 1193.027344 1194.53125 C 1191.832031 1198.140625 1189.582031 1201.414062 1187.703125 1204.78125 C 1186.300781 1207.300781 1185.226562 1210.296875 1183.152344 1212.09375 C 1177.832031 1216.699219 1172.28125 1221.144531 1166.324219 1224.855469 C 1163.417969 1226.664062 1159.40625 1227.335938 1155.878906 1227.386719 C 1147.125 1227.507812 1138.296875 1227.550781 1129.621094 1226.554688 C 1118.875 1225.324219 1108.257812 1222.972656 1097.566406 1221.199219 C 1094.964844 1220.769531 1092.28125 1220.429688 1089.660156 1220.546875 C 1083.21875 1220.84375 1077.085938 1219.527344 1071.578125 1216.453125 C 1066.527344 1213.640625 1061.019531 1213.03125 1055.628906 1211.828125 C 1045.597656 1209.585938 1035.507812 1207.613281 1025.4375 1205.542969 C 1021.902344 1204.816406 1018.3125 1204.296875 1014.820312 1203.398438 C 1009.054688 1201.910156 1003.417969 1199.84375 997.597656 1198.664062 C 991.105469 1197.347656 984.488281 1196.578125 977.890625 1195.886719 C 970.28125 1195.089844 962.660156 1195.421875 955.019531 1195.914062 C 952.242188 1196.09375 949.320312 1194.949219 946.542969 1194.144531 C 936.398438 1191.191406 926.328125 1187.957031 915.535156 1188.496094 C 913.046875 1188.621094 910.503906 1188.429688 908.039062 1188.050781 C 895.535156 1186.113281 882.898438 1184.707031 870.613281 1181.8125 C 863.195312 1180.066406 855.902344 1179.628906 848.4375 1179.136719 C 842.511719 1178.742188 836.652344 1177.152344 830.804688 1175.90625 C 822.53125 1174.140625 814.203125 1172.535156 806.070312 1170.242188 C 797.246094 1167.757812 788.128906 1168.441406 779.253906 1166.917969 C 776.277344 1166.410156 773.332031 1165.492188 770.496094 1164.433594 C 764.050781 1162.03125 757.441406 1160.882812 750.5625 1160.828125 C 745.644531 1160.789062 741.082031 1159.671875 736.890625 1156.574219 C 733.011719 1153.707031 728.152344 1153.019531 723.355469 1153.429688 C 718.890625 1153.808594 714.941406 1152.542969 710.894531 1150.882812 C 706.828125 1149.21875 702.5 1148.191406 698.300781 1146.851562 C 694.894531 1145.761719 691.484375 1144.679688 688.113281 1143.496094 C 680.542969 1140.839844 673.019531 1138.035156 665.410156 1135.5 C 663.964844 1135.015625 662.199219 1135.441406 660.585938 1135.511719 C 658.5625 1135.601562 656.269531 1136.441406 654.566406 1135.765625 C 648.699219 1133.429688 642.546875 1133.308594 636.476562 1133.042969 C 629.039062 1132.71875 622.164062 1130.769531 615.363281 1127.976562 C 612.0625 1126.621094 608.511719 1125.792969 605.007812 1125.03125 C 601.25 1124.214844 597.945312 1122.808594 595.160156 1120.039062 C 594.0625 1118.949219 592.320312 1117.710938 590.960938 1117.808594 C 582.730469 1118.402344 575.546875 1114.957031 568.113281 1112.421875 C 567.199219 1112.109375 566.15625 1111.605469 565.296875 1111.789062 C 560.199219 1112.875 555.371094 1111.027344 550.417969 1110.621094 C 549.734375 1110.5625 549.019531 1110.496094 548.375 1110.273438 C 540.910156 1107.671875 533.117188 1105.703125 526.113281 1102.175781 C 521.492188 1099.847656 516.660156 1099.441406 512.039062 1097.839844 C 503.207031 1094.785156 494.085938 1093.164062 484.9375 1091.535156 C 480.84375 1090.804688 476.8125 1089.710938 472.773438 1088.703125 C 460.417969 1085.617188 448.179688 1081.984375 435.429688 1080.726562 C 434.367188 1080.621094 433.253906 1080.21875 432.324219 1079.675781 C 426.347656 1076.1875 419.457031 1075.621094 413.046875 1073.542969 C 409.769531 1072.476562 406.535156 1071.210938 403.1875 1070.449219 C 399.539062 1069.621094 395.78125 1069.28125 392.074219 1068.71875 C 382.21875 1067.21875 372.402344 1065.675781 363.089844 1061.726562 C 360.15625 1060.480469 356.652344 1060.289062 353.386719 1060.171875 C 349 1060.011719 345.089844 1058.917969 341.003906 1057.183594 C 335.328125 1054.777344 329.105469 1053.683594 323.148438 1051.914062 C 316.566406 1049.953125 309.578125 1050.242188 303.132812 1046.800781 C 298.269531 1044.199219 292.171875 1043.964844 286.675781 1042.488281 C 283.472656 1041.628906 280.375 1040.386719 277.226562 1039.335938 C 274.46875 1038.410156 271.644531 1037.648438 268.957031 1036.554688 C 266.4375 1035.53125 264.054688 1034.167969 261.617188 1032.9375 C 260.875 1032.5625 260.203125 1031.992188 259.425781 1031.761719 C 255.324219 1030.546875 251.140625 1029.566406 247.101562 1028.179688 C 244.910156 1027.425781 242.710938 1026.308594 240.917969 1024.859375 C 235.683594 1020.625 229.433594 1018.839844 223.261719 1016.691406 C 220.195312 1015.625 217.507812 1013.511719 214.570312 1012.023438 C 211.351562 1010.398438 208.085938 1008.851562 204.769531 1007.4375 C 197.011719 1004.128906 188.632812 1003.394531 180.503906 1001.589844 C 172.734375 999.859375 165.601562 996.515625 159.714844 990.753906 C 157.496094 988.582031 154.34375 987.390625 151.75 985.566406 C 150.316406 984.554688 149.128906 983.175781 147.871094 981.921875 C 147.285156 981.335938 146.878906 980.554688 146.257812 980.019531 C 135.386719 970.636719 130.125 958.433594 128.230469 944.492188 C 128.046875 943.136719 127.320312 941.859375 127.113281 940.507812 C 126.460938 936.277344 125.421875 932.023438 125.492188 927.792969 C 125.582031 922.679688 126.011719 917.390625 127.4375 912.515625 C 130.132812 903.320312 129.460938 893.777344 131.164062 884.503906 C 131.734375 881.410156 130.960938 878.078125 131.425781 874.949219 C 132.246094 869.445312 133.476562 863.992188 134.667969 858.546875 C 136.09375 852.054688 137.757812 845.617188 139.140625 839.117188 C 140.753906 831.511719 142.195312 823.871094 143.671875 816.238281 C 145.121094 808.746094 146.402344 801.21875 147.996094 793.753906 C 148.628906 790.78125 149.941406 787.957031 150.863281 785.039062 C 152.570312 779.628906 154.347656 774.234375 155.851562 768.765625 C 157.09375 764.25 158.640625 759.828125 158.011719 754.875 C 157.75 752.796875 159.34375 750.421875 160.289062 748.269531 C 162.683594 742.800781 164.644531 737.277344 165.664062 731.308594 C 166.492188 726.4375 168.699219 721.8125 170.121094 717.027344 C 170.828125 714.648438 171.09375 712.140625 171.65625 709.714844 C 173.410156 702.132812 175.253906 694.566406 176.964844 686.972656 C 177.507812 684.566406 177.863281 682.101562 178.066406 679.644531 C 178.371094 675.9375 177.632812 672.074219 180.089844 668.757812 C 180.394531 668.34375 180.519531 667.699219 180.511719 667.164062 C 180.371094 657.324219 184.726562 648.707031 188.949219 640.410156 C 193.136719 632.191406 194.148438 623.238281 197.171875 614.816406 C 195.75 604.050781 202.625 595.046875 203.546875 584.78125 C 203.878906 581.085938 205.503906 578.0625 207.441406 574.882812 C 209.703125 571.164062 210.898438 566.734375 212.15625 562.492188 C 213.253906 558.796875 213.777344 554.933594 214.59375 551.152344 C 214.765625 550.347656 214.898438 549.425781 215.375 548.808594 C 219.199219 543.847656 219.226562 537.667969 220.933594 532.027344 C 222.371094 527.277344 223.976562 522.621094 226.230469 518.109375 C 231.445312 507.679688 236.625 497.167969 240.734375 486.28125 C 242.820312 480.757812 244.921875 475.226562 247.042969 469.703125 C 248.175781 466.753906 248.257812 463.417969 249.21875 460.382812 C 250.382812 456.699219 252.066406 453.183594 253.347656 449.53125 C 254.855469 445.246094 256.117188 440.875 257.574219 436.570312 C 259.667969 430.386719 262.007812 424.285156 263.910156 418.046875 C 265.082031 414.207031 265.542969 410.160156 266.488281 406.25 C 268.371094 398.460938 270.683594 390.761719 272.207031 382.90625 C 273.390625 376.824219 274.699219 370.449219 274.070312 364.398438 C 273.007812 354.21875 273.070312 344.09375 273.640625 333.976562 C 273.859375 330.089844 275.335938 325.996094 277.261719 322.570312 C 279.304688 318.9375 281.246094 315.445312 280.597656 311.28125 C 279.863281 306.550781 282.957031 303.652344 285.527344 300.863281 C 288.277344 297.875 290.347656 294.730469 292.421875 291.242188 C 297.664062 282.410156 305.371094 276.382812 316.144531 275.496094 C 321.132812 275.082031 326.132812 274.820312 331.128906 274.492188 C 331.15625 274.742188 331.183594 274.992188 331.214844 275.246094 Z M 1350.59375 540.769531 C 1348.609375 535.417969 1349.84375 529.707031 1345.257812 526.027344 C 1343.527344 524.640625 1341.761719 523.257812 1339.859375 522.125 C 1332.09375 517.488281 1324.375 512.761719 1316.433594 508.441406 C 1310.621094 505.273438 1304.582031 502.578125 1297.929688 501.316406 C 1291.125 500.027344 1284.417969 498.210938 1277.707031 496.460938 C 1273.160156 495.273438 1268.675781 493.824219 1264.179688 492.4375 C 1263.257812 492.15625 1262.328125 491.757812 1261.535156 491.214844 C 1256.121094 487.523438 1249.789062 486.226562 1243.6875 484.351562 C 1240.773438 483.457031 1237.871094 482.425781 1234.695312 483.429688 C 1233.871094 483.6875 1232.78125 483.289062 1231.863281 483.015625 C 1229.234375 482.226562 1226.652344 481.269531 1224.011719 480.523438 C 1219.863281 479.347656 1215.59375 478.546875 1211.539062 477.125 C 1206.570312 475.378906 1201.824219 473.007812 1196.878906 471.183594 C 1191.949219 469.371094 1186.945312 467.714844 1181.882812 466.328125 C 1173.71875 464.089844 1165.410156 462.351562 1157.285156 459.984375 C 1150.601562 458.039062 1144.042969 455.824219 1136.949219 455.984375 C 1135.601562 456.011719 1134.242188 455.40625 1132.878906 455.109375 C 1127.734375 453.992188 1122.625 452.257812 1117.429688 451.945312 C 1112.074219 451.621094 1107.066406 450.417969 1101.9375 449.125 C 1096.285156 447.699219 1090.457031 446.886719 1084.664062 446.152344 C 1078.613281 445.386719 1072.507812 445.054688 1066.429688 444.492188 C 1063.527344 444.222656 1060.632812 443.890625 1057.742188 443.53125 C 1054.71875 443.15625 1051.664062 442.894531 1048.699219 442.242188 C 1045.464844 441.53125 1042.371094 440.15625 1039.121094 439.550781 C 1031.226562 438.070312 1023.277344 436.871094 1015.347656 435.550781 C 1013.152344 435.183594 1010.96875 434.695312 1008.757812 434.429688 C 1004.898438 433.96875 1001.019531 433.691406 997.160156 433.238281 C 993.328125 432.785156 989.304688 432.800781 985.714844 431.582031 C 972.960938 427.253906 960.40625 422.339844 947.667969 417.960938 C 943.542969 416.542969 939.363281 415.226562 934.699219 415.511719 C 929.328125 415.835938 923.890625 415.058594 918.484375 414.765625 C 914.203125 414.535156 909.839844 413.695312 905.667969 414.253906 C 901.089844 414.867188 896.816406 414.328125 892.453125 413.394531 C 890.957031 413.074219 889.453125 412.746094 887.933594 412.59375 C 878.816406 411.667969 869.542969 412.136719 860.613281 409.457031 C 859.433594 409.105469 858.117188 409.238281 856.878906 409.046875 C 852.628906 408.378906 848.394531 407.644531 844.144531 406.96875 C 838.109375 406.011719 832.058594 405.152344 826.035156 404.113281 C 821.386719 403.308594 816.71875 402.523438 812.171875 401.308594 C 808.570312 400.347656 805.230469 398.347656 801.613281 397.511719 C 786.667969 394.050781 772.082031 389.640625 758.273438 382.824219 C 755.550781 381.480469 752.625 380.386719 749.667969 379.707031 C 739.804688 377.4375 729.886719 375.390625 719.984375 373.292969 C 714 372.027344 707.992188 370.878906 702.015625 369.578125 C 696.328125 368.339844 690.347656 367.726562 685.066406 365.492188 C 676.414062 361.828125 667.320312 359.882812 658.441406 357.125 C 651.558594 354.988281 644.324219 353.886719 638.074219 349.851562 C 635.695312 348.316406 632.890625 347.394531 630.203125 346.394531 C 627.351562 345.332031 624.394531 344.570312 621.519531 343.578125 C 615.484375 341.488281 609.53125 339.152344 603.441406 337.253906 C 595.882812 334.898438 588.015625 333.40625 580.65625 330.578125 C 573.050781 327.65625 565.332031 325.726562 557.328125 324.636719 C 552.230469 323.945312 547.058594 323.585938 542.058594 322.453125 C 532.1875 320.21875 522.402344 317.59375 512.609375 315.03125 C 510.203125 314.398438 507.960938 312.960938 505.539062 312.613281 C 498.945312 311.664062 492.292969 311.125 485.671875 310.375 C 478.070312 309.511719 470.519531 308.664062 463.039062 306.675781 C 458.382812 305.4375 453.125 305.914062 448.203125 306.359375 C 442.125 306.90625 436.144531 308.71875 430.070312 309.0625 C 423.734375 309.417969 417.328125 308.796875 410.964844 308.367188 C 405.839844 308.019531 400.746094 307.1875 395.617188 306.84375 C 393.300781 306.6875 390.933594 307.417969 388.601562 307.355469 C 384.863281 307.253906 381.113281 306.972656 377.402344 306.507812 C 372.886719 305.9375 368.335938 305.375 363.921875 304.3125 C 358.367188 302.96875 352.671875 300.464844 347.175781 302.703125 C 340.398438 305.464844 333.585938 304.195312 326.953125 303.824219 C 318.433594 303.351562 312.390625 305.628906 308.894531 313.144531 C 307.894531 315.289062 307.109375 317.539062 306.308594 319.765625 C 305.289062 322.589844 305.632812 325.171875 307.488281 327.65625 C 308.722656 329.316406 309.558594 331.269531 310.628906 333.058594 C 313.5625 337.9375 316.253906 342.988281 319.5625 347.597656 C 322.203125 351.277344 325.558594 354.457031 328.699219 357.757812 C 330.789062 359.957031 333.105469 361.9375 335.242188 364.09375 C 339.535156 368.421875 344.339844 372.335938 346.140625 378.597656 C 346.617188 380.265625 347.644531 381.910156 348.808594 383.21875 C 352.300781 387.15625 356.027344 390.882812 359.585938 394.765625 C 364.933594 400.59375 370.066406 406.625 375.574219 412.296875 C 379.804688 416.652344 383.40625 421.675781 388.753906 424.925781 C 389.777344 425.546875 390.117188 427.25 390.847656 428.40625 C 392.613281 431.214844 394.003906 434.417969 396.300781 436.699219 C 403 443.351562 410.222656 449.449219 416.042969 456.992188 C 418.832031 460.601562 422.683594 463.40625 425.359375 467.082031 C 429.351562 472.570312 432.722656 478.515625 436.382812 484.25 C 436.828125 484.953125 437.378906 485.59375 437.9375 486.21875 C 441.265625 489.925781 444.695312 493.550781 447.921875 497.347656 C 450.074219 499.886719 451.488281 503.265625 454.042969 505.207031 C 458.59375 508.664062 461.773438 513.125 465.222656 517.488281 C 468.125 521.160156 471.550781 524.414062 474.628906 527.953125 C 476.894531 530.554688 479.476562 533.066406 481 536.082031 C 482.984375 540.007812 484.96875 543.695312 488.855469 546.011719 C 490.398438 546.933594 491.988281 547.777344 493.480469 548.773438 C 494.726562 549.605469 496.683594 550.441406 496.90625 551.558594 C 497.792969 556.042969 501.546875 558.433594 503.738281 561.921875 C 506.75 566.71875 511.328125 570.285156 513.539062 575.832031 C 515.136719 579.839844 517.980469 583.367188 521.792969 586.09375 C 527.304688 590.035156 530.488281 596.070312 534.214844 601.582031 C 535.753906 603.859375 537.652344 605.902344 539.480469 607.96875 C 543.339844 612.339844 547.703125 616.34375 551.011719 621.089844 C 553.496094 624.652344 555.550781 628.339844 559.457031 630.574219 C 560.246094 631.023438 560.785156 631.925781 561.394531 632.65625 C 565.433594 637.5 568.277344 643.21875 573.640625 647.132812 C 576.367188 649.117188 578.195312 652.722656 579.679688 655.9375 C 581.453125 659.78125 583.289062 663.363281 586.503906 666.257812 C 588.429688 667.992188 590.164062 670.128906 591.394531 672.40625 C 594.933594 678.945312 600.289062 683.851562 606.105469 688.035156 C 610.105469 690.910156 613.507812 693.78125 615.195312 698.484375 C 616.179688 701.230469 617.160156 704.039062 618.625 706.535156 C 619.992188 708.859375 621.859375 710.941406 623.757812 712.890625 C 628.296875 717.542969 633.15625 721.894531 637.535156 726.6875 C 639.746094 729.105469 641.027344 732.351562 643.050781 734.976562 C 644.378906 736.703125 646.582031 737.769531 647.863281 739.519531 C 651.914062 745.054688 655.691406 750.792969 659.644531 756.40625 C 660.273438 757.292969 661.351562 757.851562 662.054688 758.699219 C 665.046875 762.308594 668.074219 765.898438 670.898438 769.640625 C 672.8125 772.171875 673.910156 775.5625 676.265625 777.460938 C 680.117188 780.5625 683.953125 783.726562 686.066406 788.074219 C 689.085938 794.285156 694.191406 798.597656 698.464844 803.679688 C 699.597656 805.027344 700.605469 806.617188 701.1875 808.265625 C 702.800781 812.839844 705.027344 816.835938 709.257812 819.550781 C 711.109375 820.742188 713.289062 822.050781 714.242188 823.871094 C 716.207031 827.636719 719.023438 827.890625 722.632812 827.441406 C 731.960938 826.285156 740.53125 822.71875 749.230469 819.507812 C 751.027344 818.847656 753.011719 818.671875 754.925781 818.386719 C 757.242188 818.039062 759.582031 817.871094 761.894531 817.515625 C 764.46875 817.121094 767.011719 816.539062 769.585938 816.152344 C 773.675781 815.542969 777.570312 815.121094 781.382812 812.683594 C 785.871094 809.8125 791.222656 808.238281 796.296875 806.363281 C 801.601562 804.402344 807.015625 802.742188 812.386719 800.964844 C 813.171875 800.707031 813.964844 800.417969 814.777344 800.308594 C 819.382812 799.679688 823.734375 798.449219 827.574219 795.648438 C 828.660156 794.855469 830.074219 794.453125 831.386719 794.035156 C 837.464844 792.105469 843.542969 790.183594 849.652344 788.359375 C 853.226562 787.292969 856.859375 786.429688 860.457031 785.453125 C 862.46875 784.90625 864.542969 784.5 866.453125 783.703125 C 873.214844 780.890625 879.480469 776.75 887.066406 776.167969 C 887.886719 776.105469 888.6875 775.765625 889.484375 775.511719 C 894.648438 773.871094 899.898438 772.453125 904.941406 770.5 C 908.914062 768.964844 912.902344 768.464844 917.09375 768.058594 C 921.609375 767.617188 926.027344 766.007812 930.433594 764.726562 C 933.070312 763.960938 935.625 762.890625 938.1875 761.882812 C 943.863281 759.648438 949.566406 757.460938 955.179688 755.078125 C 961.035156 752.59375 966.308594 748.695312 972.898438 748.007812 C 975.242188 747.765625 977.628906 747.5 979.871094 746.824219 C 983.308594 745.785156 986.621094 744.332031 990.019531 743.144531 C 992.515625 742.277344 995.238281 741.898438 997.550781 740.703125 C 1004.671875 737.027344 1012.1875 734.695312 1019.984375 733.015625 C 1023.097656 732.34375 1026.054688 730.980469 1029.117188 730.058594 C 1032.292969 729.101562 1035.519531 728.316406 1038.714844 727.421875 C 1042.847656 726.265625 1046.972656 725.078125 1051.097656 723.890625 C 1052.796875 723.398438 1054.519531 722.949219 1056.179688 722.339844 C 1059.796875 721.023438 1063.707031 720.117188 1066.863281 718.0625 C 1068.953125 716.707031 1070.804688 715.730469 1073.222656 715.542969 C 1080.847656 714.957031 1087.726562 711.777344 1094.613281 708.902344 C 1099.457031 706.882812 1103.867188 703.839844 1108.546875 701.410156 C 1113.085938 699.054688 1117.511719 696.082031 1122.363281 694.835938 C 1130.539062 692.730469 1137.460938 688.277344 1144.257812 683.917969 C 1154.9375 677.074219 1166.578125 672.785156 1178.300781 668.464844 C 1180.480469 667.664062 1182.484375 666.359375 1184.523438 665.207031 C 1185.726562 664.527344 1186.773438 663.570312 1188 662.945312 C 1192.964844 660.410156 1197.847656 657.652344 1202.996094 655.558594 C 1208.097656 653.480469 1211.308594 647.9375 1217.453125 647.875 C 1217.890625 647.871094 1218.285156 647.15625 1218.765625 646.886719 C 1224.8125 643.523438 1230.621094 639.765625 1237.398438 637.753906 C 1241.011719 636.683594 1244.296875 634.429688 1247.640625 632.550781 C 1250.261719 631.074219 1252.625 629.09375 1255.328125 627.8125 C 1258.324219 626.386719 1261.847656 625.960938 1264.660156 624.285156 C 1272.246094 619.769531 1278.351562 613.007812 1286.6875 609.566406 C 1287.058594 609.410156 1287.34375 609.050781 1287.683594 608.804688 C 1292.726562 605.210938 1296.902344 600.234375 1303.449219 599.027344 C 1304.214844 598.882812 1304.859375 598.15625 1305.582031 597.738281 C 1307.375 596.699219 1309.199219 595.710938 1310.976562 594.640625 C 1312.375 593.792969 1313.730469 592.867188 1315.09375 591.957031 C 1315.890625 591.421875 1316.644531 590.414062 1317.445312 590.378906 C 1320.617188 590.25 1322.363281 588.078125 1324.382812 586.15625 C 1327.792969 582.910156 1331.230469 579.691406 1334.785156 576.609375 C 1340.257812 571.859375 1343.9375 565.945312 1345.824219 558.863281 C 1347.445312 552.691406 1349.078125 546.519531 1350.59375 540.769531 Z M 279.816406 1011.105469 C 285.785156 1013.230469 290.859375 1015.050781 295.945312 1016.828125 C 296.449219 1017.003906 297.050781 1016.886719 297.605469 1016.945312 C 305.050781 1017.761719 312.496094 1018.457031 318.898438 1023.070312 C 320.769531 1024.417969 323.019531 1025.648438 325.25 1026.015625 C 332.625 1027.222656 340.085938 1027.9375 347.488281 1029.023438 C 349.199219 1029.273438 350.789062 1030.292969 352.464844 1030.875 C 360.941406 1033.839844 368.394531 1040.488281 378.378906 1038.105469 C 379.011719 1037.953125 379.753906 1038.214844 380.441406 1038.328125 C 387.421875 1039.484375 394.386719 1040.738281 401.386719 1041.777344 C 405.714844 1042.417969 409.632812 1043.578125 413.304688 1046.257812 C 416.152344 1048.339844 419.757812 1049.613281 423.558594 1049.03125 C 426.457031 1048.582031 428.984375 1049.152344 431.871094 1050.054688 C 441.515625 1053.070312 451.414062 1055.277344 461.226562 1057.75 C 466.761719 1059.144531 472.3125 1060.496094 477.871094 1061.792969 C 483.6875 1063.148438 489.5 1064.511719 495.351562 1065.6875 C 500.480469 1066.714844 506.15625 1066.441406 510.703125 1068.601562 C 518.828125 1072.464844 528.785156 1071.589844 535.632812 1078.457031 C 535.722656 1078.550781 535.886719 1078.574219 536.019531 1078.613281 C 544.945312 1081.09375 553.917969 1083.414062 562.777344 1086.105469 C 568.488281 1087.839844 574.011719 1090.175781 579.65625 1092.140625 C 581.976562 1092.949219 584.386719 1093.511719 586.765625 1094.144531 C 588.332031 1094.558594 590.160156 1094.527344 591.453125 1095.351562 C 594.484375 1097.28125 597.375 1099.144531 601.003906 1100.0625 C 606.519531 1101.460938 611.785156 1103.792969 617.667969 1103.480469 C 618.835938 1103.421875 620.070312 1104.078125 621.230469 1104.515625 C 625.632812 1106.179688 629.910156 1108.3125 634.4375 1109.46875 C 639.5 1110.757812 644.761719 1111.328125 649.972656 1111.921875 C 653.796875 1112.359375 657.746094 1111.941406 661.519531 1112.609375 C 666.839844 1113.554688 672.109375 1114.953125 677.289062 1116.523438 C 683.132812 1118.292969 688.832031 1120.523438 694.628906 1122.445312 C 698.035156 1123.578125 701.738281 1124.050781 704.914062 1125.621094 C 710.835938 1128.550781 717.148438 1129.316406 723.492188 1129.53125 C 731.015625 1129.789062 738.414062 1130 745.648438 1132.609375 C 750.035156 1134.191406 754.75 1134.921875 759.367188 1135.769531 C 762.054688 1136.265625 765.039062 1135.671875 767.546875 1136.550781 C 778.101562 1140.238281 788.78125 1143.046875 800.003906 1143.839844 C 809.371094 1144.503906 818.511719 1146.367188 827.335938 1149.859375 C 834.183594 1152.570312 841.070312 1155.394531 848.570312 1155.882812 C 851.886719 1156.101562 855.234375 1155.835938 858.238281 1157.859375 C 859.019531 1158.382812 860.394531 1158.027344 861.5 1158.054688 C 867.847656 1158.210938 874.589844 1157.0625 880.4375 1158.847656 C 887.871094 1161.117188 895.101562 1159.222656 902.332031 1160.273438 C 905.1875 1160.6875 908.050781 1161.042969 910.917969 1161.355469 C 915.472656 1161.859375 920.03125 1162.3125 924.59375 1162.765625 C 928.191406 1163.121094 931.789062 1163.632812 935.394531 1163.730469 C 939.460938 1163.839844 943.4375 1163.894531 946.992188 1166.320312 C 948.113281 1167.085938 949.484375 1167.769531 950.800781 1167.90625 C 955.652344 1168.410156 960.535156 1168.582031 965.390625 1169.039062 C 975.625 1170.003906 985.878906 1170.886719 996.078125 1172.164062 C 1001.789062 1172.882812 1007.40625 1174.335938 1013.074219 1175.410156 C 1013.355469 1175.464844 1013.71875 1175.085938 1014.5625 1174.632812 C 1012.398438 1172.878906 1010.324219 1171.492188 1008.632812 1169.738281 C 1007.261719 1168.316406 1005.660156 1166.558594 1005.371094 1164.757812 C 1004.570312 1159.757812 1002.640625 1155.519531 999.128906 1151.902344 C 998.394531 1151.140625 997.847656 1150.011719 997.625 1148.960938 C 996.441406 1143.460938 994.441406 1138.355469 990.898438 1133.914062 C 990.5625 1133.492188 990.367188 1132.929688 990.210938 1132.398438 C 988.679688 1127.171875 988.007812 1121.667969 984.191406 1117.269531 C 982.320312 1115.113281 980.945312 1112.480469 979.617188 1109.917969 C 978.570312 1107.890625 977.804688 1105.6875 977.160156 1103.492188 C 976.59375 1101.550781 976.738281 1099.339844 975.917969 1097.542969 C 974.140625 1093.660156 971.984375 1089.945312 969.902344 1086.207031 C 968.480469 1083.660156 967.074219 1081.082031 965.378906 1078.71875 C 962.617188 1074.867188 959.726562 1071.148438 959.804688 1066.050781 C 959.816406 1065.25 959.488281 1064.40625 959.175781 1063.640625 C 957.234375 1058.886719 955.289062 1054.136719 953.269531 1049.417969 C 951.683594 1045.710938 950.269531 1041.894531 948.257812 1038.425781 C 946.535156 1035.453125 943.8125 1033.066406 942.007812 1030.128906 C 939.261719 1025.664062 936.835938 1020.992188 934.457031 1016.316406 C 933.148438 1013.742188 932.226562 1010.976562 931.117188 1008.304688 C 930.214844 1006.132812 929.234375 1003.996094 928.390625 1001.804688 C 926.800781 997.679688 925.683594 993.3125 923.628906 989.4375 C 921.398438 985.222656 919.398438 981.097656 918.433594 976.355469 C 917.875 973.597656 916.207031 970.996094 914.738281 968.503906 C 909.96875 960.402344 905.058594 952.382812 900.222656 944.324219 C 900.011719 943.980469 900.015625 943.515625 899.863281 943.128906 C 897.855469 938.003906 897.144531 932.476562 894.273438 927.574219 C 891.699219 923.171875 890.097656 918.214844 887.875 913.59375 C 886.933594 911.628906 885.035156 910.050781 884.375 908.035156 C 882.472656 902.21875 881.097656 896.230469 879.292969 890.375 C 877.507812 884.589844 876.183594 878.554688 872.371094 873.625 C 867.183594 866.914062 863.675781 859.449219 861.578125 851.25 C 861.140625 849.542969 860.234375 847.867188 859.207031 846.421875 C 853.882812 838.925781 851.25 830.199219 847.945312 821.808594 C 846.410156 817.914062 844.613281 816.332031 840.976562 818.296875 C 837.339844 820.257812 833.5 821.007812 829.644531 822.125 C 821.167969 824.582031 812.867188 827.667969 804.539062 830.609375 C 802.605469 831.292969 800.925781 832.824219 798.96875 833.289062 C 791.707031 835.007812 784.378906 836.445312 777.078125 837.996094 C 774.792969 838.480469 772.40625 838.726562 770.25 839.558594 C 764.417969 841.804688 758.867188 845.027344 752.871094 846.53125 C 745.851562 848.289062 739.195312 850.730469 732.410156 853.078125 C 726.292969 855.191406 718.851562 855.074219 712.316406 853.988281 C 702.832031 852.414062 694.84375 846.953125 688.691406 839.515625 C 681.339844 830.632812 674.464844 821.351562 667.371094 812.253906 C 660.796875 803.824219 654.714844 794.929688 647.460938 787.128906 C 641.238281 780.433594 635.933594 773.3125 631.097656 765.613281 C 628.140625 760.902344 624.945312 756.058594 619.757812 753.101562 C 618.300781 752.273438 617.203125 750.539062 616.351562 748.992188 C 614.457031 745.539062 613.800781 745.28125 610.414062 747.570312 C 607.648438 749.441406 604.960938 751.417969 602.171875 753.246094 C 596.945312 756.671875 591.59375 759.910156 586.4375 763.4375 C 582.203125 766.335938 578.195312 769.558594 574.046875 772.578125 C 573.398438 773.046875 572.476562 773.117188 571.75 773.5 C 569.691406 774.589844 567.628906 775.683594 565.648438 776.902344 C 564.476562 777.625 563.5625 778.828125 562.339844 779.398438 C 556.066406 782.328125 549.648438 784.953125 545.945312 791.453125 C 545.242188 792.683594 543.6875 793.472656 542.441406 794.34375 C 537.09375 798.074219 530.929688 800.625 526.472656 805.648438 C 521.769531 810.957031 517.210938 816.453125 510.492188 819.472656 C 509.515625 819.910156 508.71875 820.816406 507.945312 821.609375 C 505.554688 824.058594 503.496094 826.925781 500.804688 828.960938 C 495.722656 832.804688 490.230469 836.105469 485.035156 839.800781 C 483.371094 840.988281 482.199219 842.84375 480.613281 844.164062 C 477.976562 846.363281 475.40625 848.824219 472.386719 850.335938 C 469.621094 851.722656 466.261719 851.871094 463.242188 852.824219 C 462.007812 853.214844 460.585938 854.03125 459.9375 855.082031 C 456.839844 860.113281 452.566406 864.089844 447.890625 867.394531 C 441.667969 871.792969 435.671875 876.347656 430.40625 881.882812 C 427.660156 884.765625 424.257812 887.066406 421.734375 890.113281 C 417.320312 895.449219 412.34375 899.910156 406.074219 902.90625 C 405.359375 903.246094 404.777344 903.953125 404.246094 904.582031 C 399.84375 909.816406 395.097656 914.589844 388.570312 917.210938 C 387.449219 917.660156 386.542969 918.667969 385.5625 919.449219 C 377.753906 925.691406 369.738281 931.695312 363.140625 939.308594 C 362.621094 939.90625 361.832031 940.445312 361.074219 940.632812 C 357.164062 941.605469 354.898438 944.410156 352.398438 947.339844 C 349.175781 951.117188 345.214844 954.261719 341.558594 957.671875 C 339.753906 959.355469 337.769531 960.875 336.136719 962.707031 C 332.65625 966.605469 328.828125 969.96875 323.992188 972.085938 C 322.863281 972.582031 321.710938 973.148438 320.753906 973.910156 C 314.578125 978.855469 308.828125 984.453125 302.207031 988.6875 C 295.191406 993.171875 290.515625 999.621094 285.15625 1005.5625 C 283.605469 1007.28125 281.945312 1008.90625 279.816406 1011.105469 Z M 302.128906 365.921875 C 300.679688 373.53125 299.222656 381.003906 297.851562 388.496094 C 297.257812 391.738281 297.023438 395.054688 296.300781 398.265625 C 295.449219 402.035156 294.289062 405.738281 293.164062 409.4375 C 292.847656 410.488281 292.015625 411.382812 291.710938 412.433594 C 289.429688 420.316406 290.402344 428.746094 287.597656 436.574219 C 286.496094 439.648438 286.1875 443.007812 285.097656 446.085938 C 282.800781 452.597656 279.613281 458.867188 279.773438 465.996094 C 279.878906 470.828125 278.160156 474.847656 275.628906 478.882812 C 273.921875 481.601562 273.167969 484.980469 272.277344 488.144531 C 270.929688 492.933594 270.691406 498.246094 268.429688 502.515625 C 265.027344 508.925781 261.503906 515.160156 259.964844 522.320312 C 259.558594 524.203125 259.167969 526.089844 258.800781 527.976562 C 258.589844 529.058594 258.625 530.230469 258.222656 531.226562 C 255.789062 537.21875 253.257812 543.167969 250.773438 549.136719 C 249.863281 551.320312 248.785156 553.464844 248.148438 555.726562 C 246.132812 562.929688 244.820312 570.367188 240.011719 576.511719 C 239.261719 577.46875 239.335938 579.113281 239.140625 580.457031 C 238.519531 584.714844 238.347656 589.085938 237.257812 593.214844 C 235.890625 598.417969 233.917969 603.476562 231.957031 608.5 C 230.429688 612.417969 230.144531 616.3125 230.980469 620.378906 C 231.484375 622.824219 231.003906 624.890625 229.199219 626.90625 C 228.113281 628.113281 227.878906 630.144531 227.445312 631.851562 C 227.144531 633.050781 227.496094 634.511719 226.957031 635.539062 C 225.039062 639.191406 225.191406 643.648438 222.183594 646.933594 C 221.199219 648.003906 221.308594 650.09375 220.964844 651.726562 C 220.683594 653.089844 220.558594 654.488281 220.214844 655.835938 C 218.589844 662.144531 216.917969 668.4375 215.253906 674.738281 C 214.828125 676.351562 214.621094 678.09375 213.871094 679.546875 C 210.8125 685.460938 209.753906 691.894531 208.683594 698.335938 C 208.523438 699.296875 208.621094 700.335938 208.289062 701.226562 C 206.90625 704.945312 205.34375 708.59375 203.976562 712.316406 C 203.167969 714.515625 202.546875 716.785156 201.9375 719.046875 C 200.753906 723.4375 199.6875 727.863281 198.445312 732.238281 C 198.195312 733.121094 197.191406 733.773438 196.859375 734.652344 C 195.597656 737.972656 193.460938 741.359375 193.507812 744.695312 C 193.605469 751.199219 191.640625 756.804688 188.980469 762.515625 C 186.464844 767.925781 184.316406 773.558594 182.59375 779.269531 C 180.855469 785.042969 181.25 791.417969 177.652344 796.707031 C 177.230469 797.324219 177.496094 798.367188 177.242188 799.148438 C 175.695312 803.882812 174.011719 808.570312 172.53125 813.324219 C 171.59375 816.328125 170.648438 819.375 170.234375 822.472656 C 169.898438 824.972656 169.53125 827.21875 168.257812 829.546875 C 164.449219 836.539062 160.714844 843.902344 161.726562 852.070312 C 163.0625 862.855469 159.394531 873.007812 158.910156 883.523438 C 158.867188 884.441406 158.0625 885.304688 157.910156 886.238281 C 157.328125 889.910156 156.800781 893.597656 156.382812 897.289062 C 156.136719 899.453125 156.203125 901.652344 156.003906 903.824219 C 155.800781 906.023438 155.191406 908.210938 155.207031 910.398438 C 155.28125 921.097656 155.175781 931.753906 152.644531 942.253906 C 152.285156 943.75 152.804688 945.535156 153.191406 947.121094 C 154.910156 954.222656 159.453125 959.460938 164.855469 963.996094 C 168.257812 966.847656 171.859375 969.480469 175.503906 972.019531 C 184.628906 978.386719 196.367188 977.761719 205.859375 983.203125 C 206.203125 983.398438 206.675781 983.359375 207.078125 983.460938 C 214.234375 985.214844 221.488281 986.628906 227.082031 992.148438 C 228.242188 993.296875 230.351562 993.550781 232.070312 994.050781 C 235.394531 995.023438 238.746094 995.914062 242.101562 996.769531 C 243.9375 997.238281 246.296875 998.460938 247.5625 997.773438 C 250.136719 996.375 252.542969 994.203125 254.253906 991.808594 C 256.46875 988.710938 258.601562 985.964844 262.1875 984.175781 C 265.472656 982.539062 268.445312 980.109375 271.230469 977.660156 C 274.339844 974.929688 276.664062 971.132812 280.070312 968.960938 C 287.480469 964.238281 294.6875 959.429688 300.789062 953 C 306.128906 947.375 311.21875 941.480469 317.648438 936.933594 C 319.984375 935.28125 322.386719 933.0625 323.546875 930.542969 C 325.960938 925.300781 330.707031 923.402344 335.148438 920.878906 C 338.742188 918.832031 342.722656 917.199219 345.789062 914.53125 C 354.960938 906.554688 364.804688 899.667969 375.414062 893.757812 C 378.398438 892.097656 381.292969 889.804688 383.382812 887.136719 C 385.605469 884.300781 388.03125 882.101562 391.167969 880.445312 C 394.085938 878.898438 397.527344 877.632812 399.542969 875.234375 C 403.945312 870 408.816406 865.777344 415.359375 863.59375 C 416.089844 863.347656 416.714844 862.671875 417.300781 862.109375 C 420.382812 859.128906 423.179688 855.777344 426.582031 853.230469 C 429.152344 851.308594 432.503906 850.441406 435.464844 849.015625 C 437.800781 847.890625 440.414062 847.015625 442.289062 845.339844 C 445.28125 842.664062 448.542969 840.835938 452.3125 839.578125 C 454.480469 838.859375 456.710938 837.8125 458.425781 836.339844 C 462.839844 832.550781 467.09375 828.554688 471.171875 824.410156 C 472.675781 822.886719 474.03125 820.832031 474.515625 818.796875 C 474.996094 816.785156 476.046875 815.746094 477.472656 814.5625 C 481.859375 810.921875 488.445312 810.140625 491.027344 804.148438 C 491.160156 803.839844 491.800781 803.792969 492.078125 803.5 C 494.921875 800.492188 499.648438 799.433594 500.957031 794.753906 C 501.1875 793.921875 502.601562 793.421875 503.46875 792.769531 C 504.335938 792.117188 505.417969 791.621094 506.027344 790.785156 C 507.734375 788.429688 509.128906 785.847656 510.859375 783.515625 C 513.617188 779.796875 515.566406 775.671875 520.070312 773.089844 C 528.847656 768.0625 537.671875 762.789062 545.375 756.304688 C 551.871094 750.839844 559.480469 747.5 566.289062 742.722656 C 574.929688 736.660156 584.15625 731.441406 592.054688 724.324219 C 594.476562 722.144531 594.679688 721.390625 592.632812 718.828125 C 589.527344 714.941406 586.226562 711.214844 583.140625 707.308594 C 578.9375 701.984375 574.746094 696.640625 570.769531 691.144531 C 568.742188 688.34375 567.308594 685.117188 565.402344 682.214844 C 561.121094 675.695312 553.519531 672.148438 549.898438 665.011719 C 545.9375 663.246094 544.949219 659.25 543.042969 655.925781 C 542.074219 654.238281 541.050781 652.539062 539.789062 651.074219 C 536.351562 647.085938 532.738281 643.25 529.261719 639.292969 C 526.621094 636.292969 524.125 633.167969 521.488281 630.164062 C 519.492188 627.894531 517.167969 625.886719 515.347656 623.488281 C 511.265625 618.105469 508.515625 611.683594 502.742188 607.617188 C 502.113281 607.179688 501.863281 606.226562 501.363281 605.574219 C 500.015625 603.808594 498.660156 602.054688 497.25 600.34375 C 493.894531 596.273438 489.746094 592.636719 487.308594 588.082031 C 483.628906 581.195312 477.789062 576.195312 473.4375 569.972656 C 470.167969 565.296875 464.675781 562.710938 462.140625 557.253906 C 460.78125 554.324219 458.542969 551.683594 456.273438 549.324219 C 450.84375 543.6875 446.007812 537.714844 442.84375 530.464844 C 442.355469 529.347656 440.71875 528.78125 439.753906 527.820312 C 436.542969 524.617188 433.292969 521.4375 430.25 518.078125 C 426.917969 514.402344 424.222656 510.03125 420.492188 506.859375 C 414.691406 501.925781 410.28125 495.960938 405.902344 489.910156 C 402.820312 485.65625 400.195312 481.042969 396.894531 476.980469 C 393.40625 472.6875 388.988281 469.199219 386.363281 464.128906 C 385.371094 462.214844 383.511719 460.746094 382.019531 459.097656 C 376.175781 452.628906 369.769531 446.578125 364.640625 439.585938 C 360.574219 434.042969 355.605469 429.488281 351.164062 424.382812 C 350.34375 423.4375 349.566406 422.371094 348.546875 421.691406 C 343.570312 418.371094 339.863281 413.996094 337.191406 408.671875 C 336.769531 407.828125 336.03125 407.125 335.386719 406.398438 C 331.632812 402.144531 327.496094 398.171875 324.183594 393.601562 C 318.25 385.410156 312.765625 376.894531 307.195312 368.445312 C 305.886719 366.460938 304.363281 365.535156 302.128906 365.917969 Z M 871.410156 808.804688 C 872.082031 810.347656 872.183594 810.945312 872.53125 811.324219 C 874.761719 813.773438 875.855469 816.515625 876.175781 819.917969 C 876.410156 822.414062 877.707031 825 879.125 827.15625 C 883.691406 834.105469 890.175781 839.652344 893.886719 847.25 C 894.671875 848.855469 895.679688 850.375 896.300781 852.039062 C 897.605469 855.53125 898.328125 859.296875 899.996094 862.589844 C 903.484375 869.464844 907.984375 875.859375 909.433594 883.648438 C 909.507812 884.050781 909.742188 884.425781 909.921875 884.804688 C 912.667969 890.582031 915.800781 896.21875 918.03125 902.191406 C 919.460938 906.027344 923.964844 908.71875 922.4375 913.742188 C 922.246094 914.371094 923.300781 915.402344 923.824219 916.21875 C 924.574219 917.394531 925.433594 918.503906 926.128906 919.710938 C 928.621094 924.027344 931.078125 928.367188 933.519531 932.710938 C 934.261719 934.035156 935.402344 935.367188 935.53125 936.769531 C 936.097656 942.929688 939.046875 947.777344 943.148438 952.152344 C 943.953125 953.011719 944.417969 954.253906 944.855469 955.390625 C 946.925781 960.796875 948.683594 966.339844 951.035156 971.617188 C 953.113281 976.285156 955.847656 980.554688 957.0625 985.71875 C 958.214844 990.621094 960.644531 995.257812 962.808594 999.875 C 964.6875 1003.886719 967.160156 1007.621094 969.046875 1011.628906 C 971.519531 1016.890625 973.722656 1022.277344 975.957031 1027.648438 C 979.523438 1036.226562 982.996094 1044.84375 986.558594 1053.421875 C 989.796875 1061.21875 993.238281 1068.933594 996.320312 1076.792969 C 998.085938 1081.300781 999.402344 1085.996094 1000.746094 1090.65625 C 1001.929688 1094.761719 1002.824219 1098.945312 1003.941406 1103.070312 C 1004.1875 1103.984375 1004.640625 1105.023438 1005.332031 1105.605469 C 1009.675781 1109.253906 1008.796875 1114.988281 1010.96875 1119.53125 C 1013.136719 1124.0625 1014.242188 1129.097656 1015.910156 1133.878906 C 1016.164062 1134.605469 1017.042969 1135.089844 1017.460938 1135.785156 C 1019.980469 1139.992188 1025.757812 1142.175781 1025.226562 1148.300781 C 1025.1875 1148.765625 1025.738281 1149.269531 1025.972656 1149.773438 C 1028.523438 1155.320312 1031.046875 1160.875 1033.621094 1166.410156 C 1034.125 1167.492188 1034.582031 1168.960938 1035.484375 1169.421875 C 1038.929688 1171.183594 1039.699219 1174.496094 1040.65625 1177.65625 C 1041.851562 1181.613281 1042.667969 1182.285156 1046.5 1182.933594 C 1052.066406 1183.875 1057.640625 1184.886719 1063.105469 1186.285156 C 1071.035156 1188.316406 1078.8125 1190.980469 1086.769531 1192.886719 C 1093.464844 1194.488281 1100.367188 1195.21875 1107.105469 1196.664062 C 1113.78125 1198.09375 1120.425781 1199.273438 1127.304688 1199.238281 C 1132.117188 1199.210938 1136.820312 1200.152344 1141.605469 1201.21875 C 1146.996094 1202.417969 1153.636719 1203.773438 1157.644531 1197.1875 C 1158.050781 1196.515625 1158.84375 1196.007812 1159.558594 1195.605469 C 1165.699219 1192.148438 1168.191406 1186.738281 1168.597656 1179.886719 C 1168.765625 1177.050781 1169.402344 1173.984375 1170.746094 1171.527344 C 1173.820312 1165.90625 1177.105469 1160.457031 1177.515625 1153.851562 C 1177.523438 1153.71875 1177.621094 1153.589844 1177.648438 1153.457031 C 1178.777344 1147.355469 1181.058594 1141.53125 1180.679688 1135.054688 C 1180.460938 1131.332031 1182.039062 1127.484375 1182.929688 1123.71875 C 1183.976562 1119.265625 1185.460938 1114.894531 1186.1875 1110.394531 C 1186.910156 1105.90625 1186.703125 1101.277344 1187.300781 1096.761719 C 1188.128906 1090.5625 1190.019531 1084.433594 1190.207031 1078.238281 C 1190.492188 1069 1194.425781 1061.132812 1198.054688 1053.109375 C 1199.3125 1050.328125 1200.066406 1047.824219 1199.613281 1044.726562 C 1198.949219 1040.175781 1199.25 1035.605469 1201.117188 1031.257812 C 1202.597656 1027.820312 1204.351562 1024.441406 1205.320312 1020.855469 C 1207.496094 1012.816406 1209.191406 1004.648438 1211.222656 996.570312 C 1212.070312 993.199219 1213.363281 989.945312 1214.296875 986.59375 C 1217.101562 976.546875 1219.640625 966.425781 1222.667969 956.445312 C 1224.304688 951.050781 1226.957031 945.96875 1228.703125 940.597656 C 1229.890625 936.929688 1230.183594 932.984375 1231.078125 929.214844 C 1232.9375 921.371094 1234.902344 913.550781 1236.902344 905.742188 C 1237.382812 903.863281 1237.78125 901.773438 1238.894531 900.289062 C 1241.902344 896.273438 1241.921875 891.832031 1241.851562 887.15625 C 1241.816406 884.476562 1242.628906 881.75 1243.300781 879.105469 C 1243.941406 876.5625 1244.96875 874.121094 1245.703125 871.597656 C 1247.585938 865.105469 1249.128906 858.496094 1251.320312 852.109375 C 1253.265625 846.445312 1255.105469 840.878906 1255.507812 834.808594 C 1255.761719 831.007812 1256.542969 827.023438 1258.101562 823.582031 C 1260.773438 817.683594 1263.054688 811.863281 1262.921875 805.246094 C 1262.882812 803.378906 1263.765625 801.472656 1264.3125 799.609375 C 1265.167969 796.695312 1266.515625 793.855469 1266.898438 790.882812 C 1267.554688 785.777344 1268.253906 780.835938 1270.023438 775.871094 C 1273.003906 767.496094 1274.898438 758.742188 1277.386719 750.191406 C 1278.160156 747.535156 1278.820312 744.542969 1280.507812 742.523438 C 1283.738281 738.648438 1284.527344 734.101562 1285.660156 729.535156 C 1286.15625 727.539062 1286.980469 725.613281 1287.769531 723.699219 C 1289.464844 719.585938 1291.25 715.507812 1292.96875 711.402344 C 1294.195312 708.480469 1295.339844 705.523438 1296.574219 702.601562 C 1297.707031 699.917969 1299 697.296875 1300.054688 694.585938 C 1300.859375 692.511719 1301.335938 690.316406 1302.070312 688.214844 C 1304.175781 682.210938 1306.328125 676.222656 1308.476562 670.234375 C 1309.269531 668.023438 1310.285156 665.878906 1310.890625 663.617188 C 1312.785156 656.546875 1314.140625 649.335938 1317.914062 642.863281 C 1322.628906 634.777344 1321.511719 624.769531 1326.613281 616.070312 C 1320.863281 617.96875 1316.109375 620.714844 1311.410156 623.53125 C 1306.644531 626.386719 1301.96875 629.382812 1297.242188 632.300781 C 1292.765625 635.0625 1288.148438 637.613281 1283.832031 640.601562 C 1278.921875 644 1274.605469 648.375 1269.433594 651.257812 C 1261.226562 655.835938 1253.378906 661.25 1244.152344 663.859375 C 1242.457031 664.339844 1240.683594 665.230469 1239.410156 666.425781 C 1231.269531 674.070312 1220.25 676.433594 1211.027344 682.082031 C 1205.957031 685.1875 1200.519531 687.699219 1195.214844 690.417969 C 1191.757812 692.191406 1188.351562 694.921875 1184.722656 695.296875 C 1179.820312 695.804688 1175.496094 697.445312 1171.292969 699.449219 C 1166.167969 701.890625 1161.371094 705.015625 1156.453125 707.882812 C 1153.449219 709.628906 1150.472656 711.425781 1147.5 713.230469 C 1145.363281 714.523438 1143.304688 715.953125 1141.125 717.167969 C 1137.726562 719.0625 1134.292969 720.902344 1130.808594 722.621094 C 1127.875 724.066406 1124.929688 725.578125 1121.832031 726.574219 C 1117.492188 727.96875 1112.804688 728.328125 1109.097656 731.449219 C 1108.277344 732.140625 1107.105469 732.429688 1106.070312 732.847656 C 1101.324219 734.757812 1096.566406 736.632812 1091.820312 738.542969 C 1087.964844 740.09375 1083.847656 741.222656 1080.332031 743.34375 C 1075.039062 746.535156 1069.632812 748.414062 1063.457031 749.515625 C 1051.535156 751.640625 1039.789062 754.859375 1028.078125 758.03125 C 1023.164062 759.363281 1018.554688 761.796875 1013.765625 763.609375 C 1010.515625 764.839844 1007.191406 765.867188 1003.902344 766.988281 C 998.652344 768.78125 992.800781 768.246094 987.847656 771.242188 C 985.964844 772.378906 983.941406 773.316406 981.902344 774.144531 C 978.183594 775.65625 974.414062 777.042969 970.648438 778.4375 C 967.648438 779.546875 964.65625 780.6875 961.609375 781.636719 C 956.472656 783.234375 951.117188 784.273438 946.175781 786.320312 C 940.417969 788.707031 935.105469 792.214844 928.539062 792.101562 C 927.867188 792.089844 927.179688 792.382812 926.515625 792.578125 C 920.601562 794.304688 914.695312 796.066406 908.769531 797.75 C 908 797.96875 907.09375 797.6875 906.289062 797.84375 C 903.898438 798.308594 901.457031 798.671875 899.15625 799.4375 C 892.464844 801.667969 885.835938 804.101562 879.167969 806.402344 C 876.765625 807.230469 874.308594 807.914062 871.410156 808.804688 Z M 871.410156 808.804688 " fill-opacity="1" fill-rule="nonzero"/></g></svg>