<svg xmlns="http://www.w3.org/2000/svg" xmlns:xlink="http://www.w3.org/1999/xlink" width="1406" zoomAndPan="magnify" viewBox="46.92 101.92 1406.16 1298.16" height="1298" preserveAspectRatio="xMidYMid meet" version="1.0"><defs><clipPath id="52d3d20809"><path d="M 99.351562 150 L 1400.601562 150 L 1400.601562 1352 L 99.351562 1352 Z M 99.351562 150 " clip-rule="nonzero"/></clipPath></defs><g clip-path="url(#52d3d20809)"><path fill="#000000" d="M 1400.449219 668.964844 C 1399.113281 628.574219 1396.445312 586.960938 1384.335938 547.335938 C 1372.332031 508.035156 1343.824219 478.113281 1311.644531 454.027344 C 1194.328125 386.097656 1071.308594 396.109375 966.9375 483.273438 C 964.140625 432.804688 958.894531 384.175781 949.84375 335.085938 C 934.667969 252.75 882.570312 207.136719 812.675781 169.195312 C 723.761719 120.933594 598.558594 172.011719 545.914062 253.472656 C 520.8125 292.332031 502.777344 332.679688 497.050781 378.90625 C 495.082031 394.796875 488.175781 499.535156 504.722656 505.980469 C 459.292969 488.277344 417.230469 478.464844 371.996094 481.808594 C 317.996094 485.808594 266.859375 494.484375 217.40625 517.71875 C 142.070312 563.398438 102.738281 618.894531 99.480469 709.554688 C 96.726562 786.621094 135.007812 857.21875 193.054688 906.742188 C 270.882812 971.222656 345.914062 991.832031 448.84375 993.710938 C 384.503906 1062.035156 333.167969 1171.625 390.078125 1258.679688 C 434.5 1326.039062 534.304688 1368.660156 612.351562 1345.144531 C 662.59375 1328.640625 709.003906 1302.457031 747.878906 1266.132812 C 779.425781 1236.648438 798.074219 1200.277344 811.429688 1158.835938 C 836.15625 1193.457031 860.164062 1224.886719 886.199219 1256.800781 C 919.300781 1297.363281 964.359375 1321.929688 1019.429688 1321.582031 C 1063.8125 1330.148438 1106.640625 1319.878906 1140.199219 1293.320312 C 1199.359375 1246.503906 1213.042969 1195.972656 1206.289062 1121.660156 C 1203.773438 1043.742188 1153.335938 986.476562 1097.085938 938.742188 C 1148.046875 932.382812 1196.273438 926.285156 1242.382812 908.253906 C 1317.699219 878.8125 1370.605469 818.550781 1388.554688 740.613281 C 1394.152344 716.351562 1401.257812 694.496094 1400.425781 668.945312 Z M 1319.972656 792.214844 C 1296.535156 835.992188 1252.222656 863.207031 1204.582031 875.46875 C 1156.09375 887.96875 1108.015625 893.71875 1058.125 896.449219 C 1023.691406 898.328125 1023.738281 931.703125 1024.195312 932.863281 C 1028.460938 943.8125 1046.125 939.878906 1057.035156 942.742188 C 1085.652344 963.855469 1109.394531 990.171875 1132.109375 1016.945312 C 1163.328125 1053.730469 1172.378906 1096.4375 1172.640625 1143.296875 C 1172.882812 1186.222656 1160.003906 1221.195312 1127.058594 1249.585938 C 1097.019531 1275.484375 1061.078125 1287.507812 1020.4375 1279.027344 C 995.578125 1273.824219 968.054688 1272.949219 946.933594 1256.644531 C 920 1235.882812 859.878906 1152.609375 838.410156 1118.949219 C 828.242188 1103.039062 813.988281 1079.871094 793.089844 1087.5625 C 781.371094 1091.871094 789.832031 1112.71875 788.191406 1122.074219 C 771.46875 1217.195312 704.085938 1271.269531 619.0625 1305.082031 C 593.964844 1315.070312 570.027344 1315.199219 544.753906 1309.648438 C 464.976562 1292.097656 401.097656 1223.730469 420.707031 1140.324219 C 432.707031 1089.246094 460.800781 1043.304688 502.144531 1011.546875 C 514.847656 1001.777344 524.269531 992.75 530.9375 977.820312 C 533.496094 972.117188 538.328125 967.921875 535.855469 962.128906 C 526.9375 941.300781 491.476562 957.667969 489.136719 957.886719 C 432.554688 963.285156 376.019531 958.652344 321.539062 940.316406 C 238.417969 912.316406 148.167969 837.503906 144.191406 741.640625 C 142.683594 705.3125 150.445312 666.671875 170.230469 635.832031 C 190.296875 604.53125 220.949219 577.410156 255.382812 562.414062 C 347.554688 522.265625 445.0625 522.175781 534.566406 563.113281 C 546.109375 568.402344 561.652344 572.929688 569.894531 563.269531 C 577.308594 554.570312 572.5625 541.410156 568.082031 530.898438 C 513.820312 403.191406 550.394531 261.121094 690.574219 218.699219 C 814.316406 181.238281 905.832031 275.328125 913.683594 391.039062 C 915.582031 419.1875 908.542969 527.730469 944.8125 536.648438 C 970.632812 542.984375 1015.582031 485.109375 1038.472656 474.269531 C 1070.261719 459.230469 1101.875 448.804688 1138.164062 448.191406 C 1216.214844 446.859375 1317.304688 483.097656 1339.890625 565.671875 C 1360.550781 641.207031 1357.160156 722.820312 1319.972656 792.238281 Z M 870.109375 754.992188 C 881.214844 790.140625 868.03125 821.21875 837.929688 842.921875 C 818.144531 857.195312 803.453125 868.976562 777.238281 865.105469 C 736.574219 859.097656 704.195312 812.847656 717.574219 769.746094 C 727.414062 738.097656 752.117188 719.671875 782.265625 710.820312 C 821.773438 699.214844 857.671875 715.585938 870.109375 754.992188 Z M 870.109375 754.992188 " fill-opacity="1" fill-rule="nonzero"/></g></svg>