<svg xmlns="http://www.w3.org/2000/svg" xmlns:xlink="http://www.w3.org/1999/xlink" width="2000" zoomAndPan="magnify" viewBox="0 0 1500 1499.999933" height="2000" preserveAspectRatio="xMidYMid meet" version="1.0"><defs><g/><clipPath id="1f5259cb9c"><rect x="0" width="1500" y="0" height="1500"/></clipPath></defs><g transform="matrix(1, 0, 0, 1, 0, 0.000000000000112861)"><g clip-path="url(#1f5259cb9c)"><g fill="#563c00" fill-opacity="1"><g transform="translate(637.040349, 1222.690009)"><g/></g></g><g fill="#563c00" fill-opacity="1"><g transform="translate(559.095812, 1202.714615)"><g><path d="M -160.015625 -44.171875 C -154.523438 -52.523438 -147.085938 -58.707031 -137.703125 -62.71875 C -128.316406 -66.738281 -117.597656 -67.835938 -105.546875 -66.015625 C -93.503906 -64.203125 -80.554688 -58.734375 -66.703125 -49.609375 C -55.671875 -42.359375 -46.867188 -34.722656 -40.296875 -26.703125 C -33.734375 -18.691406 -28.734375 -11.203125 -25.296875 -4.234375 C -21.867188 2.734375 -19.578125 8.441406 -18.421875 12.890625 C -17.265625 17.347656 -16.6875 19.578125 -16.6875 19.578125 L -57.734375 38.40625 C -57.734375 38.40625 -58.378906 36.390625 -59.671875 32.359375 C -60.972656 28.328125 -63.425781 23.53125 -67.03125 17.96875 C -70.632812 12.414062 -75.722656 7.476562 -82.296875 3.15625 C -84.253906 1.875 -86.234375 1.398438 -88.234375 1.734375 C -90.242188 2.066406 -91.65625 2.851562 -92.46875 4.09375 C -93.53125 5.695312 -92.789062 8.347656 -90.25 12.046875 C -87.71875 15.753906 -84.578125 20.367188 -80.828125 25.890625 C -77.085938 31.410156 -73.765625 37.671875 -70.859375 44.671875 C -67.953125 51.679688 -66.601562 59.125 -66.8125 67 C -67.03125 74.882812 -69.945312 83.09375 -75.5625 91.625 C -81.175781 100.15625 -88.648438 106.378906 -97.984375 110.296875 C -107.316406 114.222656 -118.050781 115.25 -130.1875 113.375 C -142.320312 111.5 -155.234375 106.054688 -168.921875 97.046875 C -177.992188 91.085938 -185.363281 84.582031 -191.03125 77.53125 C -196.707031 70.488281 -201.113281 63.835938 -204.25 57.578125 C -207.394531 51.316406 -209.582031 46.125 -210.8125 42 C -212.039062 37.875 -212.65625 35.8125 -212.65625 35.8125 L -171.640625 16.96875 C -171.640625 16.96875 -171.109375 18.582031 -170.046875 21.8125 C -168.992188 25.050781 -167.1875 28.789062 -164.625 33.03125 C -162.0625 37.269531 -158.289062 41.023438 -153.3125 44.296875 C -151.351562 45.585938 -149.398438 46.109375 -147.453125 45.859375 C -145.503906 45.609375 -144.066406 44.769531 -143.140625 43.34375 C -142.085938 41.75 -142.820312 39.097656 -145.34375 35.390625 C -147.875 31.691406 -151.0625 27.050781 -154.90625 21.46875 C -158.75 15.882812 -162.078125 9.617188 -164.890625 2.671875 C -167.703125 -4.273438 -168.992188 -11.6875 -168.765625 -19.5625 C -168.546875 -27.4375 -165.628906 -35.640625 -160.015625 -44.171875 Z M -160.015625 -44.171875 "/></g></g></g><g fill="#563c00" fill-opacity="1"><g transform="translate(416.01314, 1105.195246)"><g><path d="M -101.625 39.859375 L -88.28125 57.765625 L -139.46875 95.890625 L -152.8125 77.984375 L -196.34375 110.390625 L -242.078125 48.953125 L -198.546875 16.546875 L -215.703125 -6.5 L -164.515625 -44.625 L -147.359375 -21.578125 L -125.609375 -37.78125 C -120.484375 -41.59375 -117.53125 -45.644531 -116.75 -49.9375 C -115.976562 -54.226562 -116.988281 -58.253906 -119.78125 -62.015625 C -121.6875 -64.566406 -123.644531 -66.75 -125.65625 -68.5625 C -127.675781 -70.382812 -128.6875 -71.296875 -128.6875 -71.296875 L -77.484375 -109.421875 C -77.484375 -109.421875 -75.40625 -107.515625 -71.25 -103.703125 C -67.09375 -99.898438 -62.597656 -94.757812 -57.765625 -88.28125 C -43.535156 -69.175781 -38.070312 -49.90625 -41.375 -30.46875 C -44.675781 -11.03125 -57.507812 7.007812 -79.875 23.65625 Z M -101.625 39.859375 "/></g></g></g><g fill="#563c00" fill-opacity="1"><g transform="translate(318.619535, 982.144384)"><g><path d="M -13.59375 -72.296875 C -10.945312 -61.992188 -11.375 -51.890625 -14.875 -41.984375 C -18.375 -32.078125 -25.566406 -23.09375 -36.453125 -15.03125 C -47.347656 -6.96875 -62.273438 -0.507812 -81.234375 4.34375 L -167.796875 26.515625 L -186.8125 -47.6875 L -100.25 -69.859375 C -94.070312 -71.441406 -89.765625 -73.914062 -87.328125 -77.28125 C -84.898438 -80.65625 -84.082031 -83.882812 -84.875 -86.96875 C -85.675781 -90.070312 -87.945312 -92.515625 -91.6875 -94.296875 C -95.4375 -96.078125 -100.398438 -96.175781 -106.578125 -94.59375 L -193.140625 -72.421875 L -212.140625 -146.609375 L -48.296875 -188.578125 L -30.09375 -117.484375 L -47.0625 -106.546875 C -47.0625 -106.546875 -45.675781 -106.078125 -42.90625 -105.140625 C -40.144531 -104.203125 -36.84375 -102.46875 -33 -99.9375 C -29.164062 -97.40625 -25.421875 -93.914062 -21.765625 -89.46875 C -18.109375 -85.019531 -15.382812 -79.296875 -13.59375 -72.296875 Z M -13.59375 -72.296875 "/></g></g></g><g fill="#563c00" fill-opacity="1"><g transform="translate(265.966502, 776.563629)"><g><path d="M -81.140625 -25.71875 C -99.921875 -29.414062 -115.226562 -35.628906 -127.0625 -44.359375 C -138.894531 -53.097656 -147.21875 -63.144531 -152.03125 -74.5 C -156.84375 -85.851562 -158.117188 -97.269531 -155.859375 -108.75 C -154.296875 -116.675781 -151.769531 -123.171875 -148.28125 -128.234375 C -144.789062 -133.296875 -141.191406 -137.25 -137.484375 -140.09375 C -133.785156 -142.945312 -130.570312 -144.972656 -127.84375 -146.171875 C -125.113281 -147.367188 -123.75 -147.96875 -123.75 -147.96875 L -208.296875 -164.609375 L -193.5 -239.75 L 38.21875 -194.140625 L 24.65625 -125.25 C 17.988281 -124.394531 13.265625 -123.804688 10.484375 -123.484375 C 7.710938 -123.160156 6.039062 -122.945312 5.46875 -122.84375 C 4.90625 -122.75 4.625 -122.703125 4.625 -122.703125 C 4.625 -122.703125 5.660156 -121.628906 7.734375 -119.484375 C 9.804688 -117.335938 12.019531 -114.242188 14.375 -110.203125 C 16.726562 -106.160156 18.554688 -101.132812 19.859375 -95.125 C 21.171875 -89.125 21.046875 -82.160156 19.484375 -74.234375 C 17.222656 -62.753906 11.710938 -52.671875 2.953125 -43.984375 C -5.796875 -35.296875 -17.300781 -29.15625 -31.5625 -25.5625 C -45.820312 -21.96875 -62.347656 -22.019531 -81.140625 -25.71875 Z M -65.71875 -104 C -57.988281 -102.476562 -51.800781 -103.050781 -47.15625 -105.71875 C -42.519531 -108.394531 -39.75 -112.023438 -38.84375 -116.609375 C -37.90625 -121.410156 -39.085938 -125.867188 -42.390625 -129.984375 C -45.691406 -134.109375 -51.207031 -136.929688 -58.9375 -138.453125 C -66.863281 -140.015625 -73.085938 -139.503906 -77.609375 -136.921875 C -82.140625 -134.335938 -84.875 -130.644531 -85.8125 -125.84375 C -86.71875 -121.257812 -85.578125 -116.863281 -82.390625 -112.65625 C -79.203125 -108.445312 -73.644531 -105.5625 -65.71875 -104 Z M -65.71875 -104 "/></g></g></g><g fill="#563c00" fill-opacity="1"><g transform="translate(319.056826, 562.181623)"><g><path d="M -135.84375 -102.015625 L -95.796875 -167.3125 L 48.390625 -78.890625 L 8.34375 -13.59375 Z M -152.171875 -112.03125 L -203.859375 -143.734375 L -163.8125 -209.03125 L -112.125 -177.328125 Z M -152.171875 -112.03125 "/></g></g></g><g fill="#563c00" fill-opacity="1"><g transform="translate(374.522476, 457.094583)"><g><path d="M -44.65625 -72.46875 C -54.882812 -85.53125 -60.898438 -99.9375 -62.703125 -115.6875 C -64.515625 -131.4375 -62.144531 -146.945312 -55.59375 -162.21875 C -49.050781 -177.488281 -38.242188 -191.03125 -23.171875 -202.84375 C -8.097656 -214.664062 7.671875 -221.960938 24.140625 -224.734375 C 40.617188 -227.503906 56.25 -226.101562 71.03125 -220.53125 C 85.8125 -214.957031 98.316406 -205.640625 108.546875 -192.578125 C 118.660156 -179.679688 124.695312 -165.347656 126.65625 -149.578125 C 128.613281 -133.804688 126.273438 -118.253906 119.640625 -102.921875 C 113.015625 -87.585938 102.164062 -74.007812 87.09375 -62.1875 C 72.019531 -50.375 56.285156 -43.113281 39.890625 -40.40625 C 23.503906 -37.695312 7.847656 -39.140625 -7.078125 -44.734375 C -22.015625 -50.328125 -34.539062 -59.570312 -44.65625 -72.46875 Z M 48.28125 -145.328125 C 43.820312 -151.015625 38.609375 -154.296875 32.640625 -155.171875 C 26.679688 -156.046875 21.53125 -154.773438 17.1875 -151.359375 C 12.832031 -147.953125 10.367188 -143.25 9.796875 -137.25 C 9.222656 -131.257812 11.164062 -125.421875 15.625 -119.734375 C 20.09375 -114.035156 25.304688 -110.75 31.265625 -109.875 C 37.222656 -109 42.378906 -110.265625 46.734375 -113.671875 C 51.078125 -117.085938 53.535156 -121.789062 54.109375 -127.78125 C 54.691406 -133.78125 52.75 -139.628906 48.28125 -145.328125 Z M 48.28125 -145.328125 "/></g></g></g><g fill="#563c00" fill-opacity="1"><g transform="translate(558.925453, 329.740393)"><g/></g></g><g fill="#563c00" fill-opacity="1"><g transform="translate(642.061555, 301.915487)"><g/></g></g><g fill="#563c00" fill-opacity="1"><g transform="translate(728.902162, 289.896007)"><g/></g></g><g fill="#563c00" fill-opacity="1"><g transform="translate(806.532249, 281.843327)"><g><path d="M 220.75 -11.78125 C 214.375 6.28125 206.015625 20.535156 195.671875 30.984375 C 185.328125 41.429688 174.1875 48.21875 162.25 51.34375 C 150.320312 54.46875 138.84375 54.082031 127.8125 50.1875 C 120.382812 47.5625 114.367188 44.140625 109.765625 39.921875 C 105.160156 35.703125 101.71875 31.550781 99.4375 27.46875 C 97.164062 23.394531 95.628906 19.921875 94.828125 17.046875 C 94.035156 14.171875 93.640625 12.734375 93.640625 12.734375 C 93.640625 12.734375 93.453125 12.953125 93.078125 13.390625 C 92.703125 13.828125 91.671875 15.15625 89.984375 17.375 C 88.296875 19.59375 85.390625 23.359375 81.265625 28.671875 L 15.046875 5.3125 L 93.640625 -217.390625 L 165.859375 -191.90625 L 137.1875 -110.65625 C 137.1875 -110.65625 138.394531 -111.523438 140.8125 -113.265625 C 143.238281 -115.003906 146.617188 -116.742188 150.953125 -118.484375 C 155.285156 -120.222656 160.566406 -121.289062 166.796875 -121.6875 C 173.035156 -122.082031 179.867188 -120.96875 187.296875 -118.34375 C 198.328125 -114.445312 207.503906 -107.539062 214.828125 -97.625 C 222.160156 -87.707031 226.570312 -75.4375 228.0625 -60.8125 C 229.5625 -46.1875 227.125 -29.84375 220.75 -11.78125 Z M 145.515625 -38.328125 C 148.210938 -45.953125 148.609375 -52.1875 146.703125 -57.03125 C 144.796875 -61.875 141.535156 -65.113281 136.921875 -66.75 C 132.503906 -68.300781 127.988281 -67.804688 123.375 -65.265625 C 118.757812 -62.722656 115.101562 -57.640625 112.40625 -50.015625 C 109.789062 -42.585938 109.460938 -36.382812 111.421875 -31.40625 C 113.390625 -26.425781 116.582031 -23.160156 121 -21.609375 C 125.613281 -19.972656 130.195312 -20.492188 134.75 -23.171875 C 139.3125 -25.847656 142.898438 -30.898438 145.515625 -38.328125 Z M 145.515625 -38.328125 "/></g></g></g><g fill="#563c00" fill-opacity="1"><g transform="translate(1010.99923, 365.334869)"><g><path d="M 12.25 10.21875 L 163.5 -171.15625 L 222.328125 -122.109375 L 71.078125 59.265625 Z M 12.25 10.21875 "/></g></g></g><g fill="#563c00" fill-opacity="1"><g transform="translate(1106.97744, 435.395646)"><g><path d="M 78.15625 -33.703125 C 92.5625 -41.953125 107.6875 -45.832031 123.53125 -45.34375 C 139.375 -44.863281 154.375 -40.28125 168.53125 -31.59375 C 182.695312 -22.90625 194.535156 -10.253906 204.046875 6.359375 C 213.566406 22.972656 218.507812 39.628906 218.875 56.328125 C 219.25 73.035156 215.609375 88.300781 207.953125 102.125 C 200.304688 115.945312 189.28125 126.984375 174.875 135.234375 C 160.65625 143.367188 145.601562 147.265625 129.71875 146.921875 C 113.832031 146.578125 98.78125 142.015625 84.5625 133.234375 C 70.34375 124.460938 58.472656 111.769531 48.953125 95.15625 C 39.441406 78.539062 34.53125 61.925781 34.21875 45.3125 C 33.90625 28.695312 37.59375 13.410156 45.28125 -0.546875 C 52.976562 -14.515625 63.9375 -25.566406 78.15625 -33.703125 Z M 136.8125 68.765625 C 143.09375 65.171875 147.09375 60.484375 148.8125 54.703125 C 150.539062 48.929688 150.03125 43.648438 147.28125 38.859375 C 144.539062 34.054688 140.242188 30.941406 134.390625 29.515625 C 128.546875 28.085938 122.484375 29.171875 116.203125 32.765625 C 109.921875 36.359375 105.921875 41.035156 104.203125 46.796875 C 102.484375 52.566406 102.992188 57.851562 105.734375 62.65625 C 108.484375 67.445312 112.78125 70.5625 118.625 72 C 124.46875 73.4375 130.53125 72.359375 136.8125 68.765625 Z M 136.8125 68.765625 "/></g></g></g><g fill="#563c00" fill-opacity="1"><g transform="translate(1224.315937, 613.661279)"><g><path d="M 171.125 241.375 C 171 252.007812 167.957031 261.65625 162 270.3125 C 156.039062 278.96875 146.8125 285.773438 134.3125 290.734375 C 121.8125 295.691406 105.671875 298.054688 85.890625 297.828125 L -3.46875 296.78125 L -2.578125 220.1875 L 86.78125 221.234375 C 93.164062 221.304688 97.96875 220.03125 101.1875 217.40625 C 104.40625 214.789062 106.035156 211.882812 106.078125 208.6875 C 106.109375 205.5 104.546875 202.554688 101.390625 199.859375 C 98.234375 197.160156 93.460938 195.773438 87.078125 195.703125 L -2.28125 194.65625 L -1.375 118.0625 L 87.984375 119.109375 C 94.367188 119.179688 99.171875 117.90625 102.390625 115.28125 C 105.609375 112.664062 107.234375 109.757812 107.265625 106.5625 C 107.304688 103.382812 105.75 100.445312 102.59375 97.75 C 99.4375 95.050781 94.664062 93.664062 88.28125 93.59375 L -1.078125 92.546875 L -0.1875 15.953125 L 168.9375 17.9375 L 168.078125 91.34375 L 148.859375 97.5 C 148.859375 97.5 150.070312 98.363281 152.5 100.09375 C 154.925781 101.820312 157.660156 104.457031 160.703125 108 C 163.753906 111.539062 166.46875 116.195312 168.84375 121.96875 C 171.226562 127.738281 172.375 134.5625 172.28125 142.4375 C 172.1875 150.519531 170.554688 157.519531 167.390625 163.4375 C 164.234375 169.363281 160.664062 174.273438 156.6875 178.171875 C 152.71875 182.066406 149.175781 185.003906 146.0625 186.984375 C 142.945312 188.972656 141.390625 189.96875 141.390625 189.96875 C 141.390625 189.96875 142.921875 191.15625 145.984375 193.53125 C 149.046875 195.90625 152.515625 199.296875 156.390625 203.703125 C 160.273438 208.109375 163.722656 213.519531 166.734375 219.9375 C 169.753906 226.351562 171.21875 233.5 171.125 241.375 Z M 171.125 241.375 "/></g></g></g><g fill="#563c00" fill-opacity="1"><g transform="translate(1223.468065, 914.814031)"><g><path d="M 0.359375 295.890625 C -5.878906 304.492188 -13.925781 310.609375 -23.78125 314.234375 C -33.644531 317.867188 -45.109375 318.097656 -58.171875 314.921875 C -71.242188 311.753906 -85.789062 304.363281 -101.8125 292.75 L -174.171875 240.3125 L -129.21875 178.296875 L -56.859375 230.734375 C -51.691406 234.484375 -47.035156 236.21875 -42.890625 235.9375 C -38.753906 235.664062 -35.75 234.234375 -33.875 231.640625 C -32 229.066406 -31.570312 225.765625 -32.59375 221.734375 C -33.613281 217.703125 -36.707031 213.8125 -41.875 210.0625 L -114.234375 157.625 L -69.296875 95.609375 L 3.0625 148.046875 C 8.226562 151.796875 12.882812 153.53125 17.03125 153.25 C 21.175781 152.976562 24.1875 151.546875 26.0625 148.953125 C 27.925781 146.378906 28.347656 143.078125 27.328125 139.046875 C 26.304688 135.015625 23.210938 131.125 18.046875 127.375 L -54.3125 74.9375 L -9.359375 12.921875 L 127.59375 112.1875 L 84.515625 171.625 L 65.265625 165.5625 C 65.265625 165.5625 65.757812 166.960938 66.75 169.765625 C 67.738281 172.578125 68.445312 176.304688 68.875 180.953125 C 69.3125 185.609375 68.832031 190.984375 67.4375 197.078125 C 66.050781 203.171875 63.046875 209.40625 58.421875 215.78125 C 53.679688 222.320312 48.3125 227.097656 42.3125 230.109375 C 36.3125 233.117188 30.566406 235.0625 25.078125 235.9375 C 19.585938 236.820312 15 237.175781 11.3125 237 C 7.625 236.832031 5.78125 236.75 5.78125 236.75 C 5.78125 236.75 6.34375 238.597656 7.46875 242.296875 C 8.601562 246.003906 9.476562 250.78125 10.09375 256.625 C 10.71875 262.46875 10.40625 268.878906 9.15625 275.859375 C 7.914062 282.835938 4.984375 289.515625 0.359375 295.890625 Z M 0.359375 295.890625 "/></g></g></g><g fill="#563c00" fill-opacity="1"><g transform="translate(1035.399599, 1152.238598)"><g><path d="M -10.96875 195.96875 C -27.4375 203.4375 -43.757812 206.460938 -59.9375 205.046875 C -76.125 203.628906 -90.738281 198.457031 -103.78125 189.53125 C -116.832031 180.613281 -126.785156 168.597656 -133.640625 153.484375 C -139.265625 141.078125 -145.195312 127.992188 -151.4375 114.234375 C -157.675781 100.484375 -163.390625 87.894531 -168.578125 76.46875 L -101.71875 46.140625 L -88 60.953125 C -88 60.953125 -87.773438 59.503906 -87.328125 56.609375 C -86.890625 53.722656 -85.757812 50.171875 -83.9375 45.953125 C -82.113281 41.734375 -79.328125 37.429688 -75.578125 33.046875 C -71.835938 28.671875 -66.675781 24.992188 -60.09375 22.015625 C -49.4375 17.179688 -39.238281 15.066406 -29.5 15.671875 C -19.769531 16.273438 -11.125 19.242188 -3.5625 24.578125 C 3.988281 29.910156 9.832031 37.128906 13.96875 46.234375 C 18.1875 55.535156 19.546875 64.847656 18.046875 74.171875 C 16.554688 83.492188 11.617188 92.566406 3.234375 101.390625 C -5.140625 110.210938 -17.566406 118.359375 -34.046875 125.828125 L -57.296875 136.375 C -57.296875 136.375 -56.097656 137.46875 -53.703125 139.65625 C -51.304688 141.84375 -47.671875 143.40625 -42.796875 144.34375 C -37.929688 145.289062 -31.625 144.003906 -23.875 140.484375 C -19.03125 138.296875 -15.0625 135.332031 -11.96875 131.59375 C -8.875 127.851562 -6.601562 124.484375 -5.15625 121.484375 C -3.707031 118.492188 -2.984375 117 -2.984375 117 L 39.515625 145.03125 C 39.515625 145.03125 38.679688 146.804688 37.015625 150.359375 C 35.359375 153.921875 32.664062 158.410156 28.9375 163.828125 C 25.21875 169.253906 20.109375 174.84375 13.609375 180.59375 C 7.109375 186.351562 -1.082031 191.476562 -10.96875 195.96875 Z M -65.15625 80.375 C -68.832031 82.039062 -71.296875 85.492188 -72.546875 90.734375 C -73.804688 95.972656 -72.457031 102.953125 -68.5 111.671875 C -60.539062 108.066406 -55.378906 103.859375 -53.015625 99.046875 C -50.648438 94.234375 -50.476562 89.597656 -52.5 85.140625 C -53.46875 83.015625 -55.285156 81.445312 -57.953125 80.4375 C -60.628906 79.425781 -63.03125 79.40625 -65.15625 80.375 Z M -65.15625 80.375 "/></g></g></g></g></g></svg>