<svg xmlns="http://www.w3.org/2000/svg" xmlns:xlink="http://www.w3.org/1999/xlink" width="2000" zoomAndPan="magnify" viewBox="0 0 1500 1499.999933" height="2000" preserveAspectRatio="xMidYMid meet" version="1.0"><defs><clipPath id="46c1bc9cf6"><path d="M 120.636719 179.625 L 1380 179.625 L 1380 1416 L 120.636719 1416 Z M 120.636719 179.625 " clip-rule="nonzero"/></clipPath><clipPath id="84a4113f65"><path d="M 750 179.625 L 822.261719 566.566406 L 1092.652344 279.855469 L 945.800781 645.820312 L 1328.082031 550.25 L 1006.40625 778.683594 L 1379.363281 906.886719 L 985.429688 923.203125 L 1230.179688 1230.894531 L 889.859375 1032.761719 L 929.484375 1426.695312 L 750 1074.71875 L 570.515625 1426.695312 L 610.140625 1032.761719 L 269.820312 1230.894531 L 514.570312 923.203125 L 120.636719 906.886719 L 493.59375 778.683594 L 171.917969 550.25 L 554.199219 645.820312 L 407.347656 279.855469 L 677.738281 566.566406 Z M 750 179.625 " clip-rule="nonzero"/></clipPath><clipPath id="af723eda82"><path d="M 0.636719 0.625 L 1259.519531 0.625 L 1259.519531 1236.28125 L 0.636719 1236.28125 Z M 0.636719 0.625 " clip-rule="nonzero"/></clipPath><clipPath id="c2c3ac6f03"><path d="M 630 0.625 L 702.261719 387.566406 L 972.652344 100.855469 L 825.800781 466.820312 L 1208.082031 371.25 L 886.40625 599.683594 L 1259.363281 727.886719 L 865.429688 744.203125 L 1110.179688 1051.894531 L 769.859375 853.761719 L 809.484375 1247.695312 L 630 895.71875 L 450.515625 1247.695312 L 490.140625 853.761719 L 149.820312 1051.894531 L 394.570312 744.203125 L 0.636719 727.886719 L 373.59375 599.683594 L 51.917969 371.25 L 434.199219 466.820312 L 287.347656 100.855469 L 557.738281 387.566406 Z M 630 0.625 " clip-rule="nonzero"/></clipPath><clipPath id="13bef5e3f6"><rect x="0" width="1260" y="0" height="1237"/></clipPath></defs><g clip-path="url(#46c1bc9cf6)"><g clip-path="url(#84a4113f65)"><g transform="matrix(1, 0, 0, 1, 120, 179)"><g clip-path="url(#13bef5e3f6)"><g clip-path="url(#af723eda82)"><g clip-path="url(#c2c3ac6f03)"><path fill="#000000" d="M 0.636719 0.625 L 1260.183594 0.625 L 1260.183594 1236.039062 L 0.636719 1236.039062 Z M 0.636719 0.625 " fill-opacity="1" fill-rule="nonzero"/></g></g></g></g></g></g></svg>