<svg xmlns="http://www.w3.org/2000/svg" xmlns:xlink="http://www.w3.org/1999/xlink" width="2000" zoomAndPan="magnify" viewBox="0 0 1500 1499.999933" height="2000" preserveAspectRatio="xMidYMid meet" version="1.0"><defs><clipPath id="53d488fd4d"><path d="M 297.710938 117 L 1202 117 L 1202 1383 L 297.710938 1383 Z M 297.710938 117 " clip-rule="nonzero"/></clipPath><clipPath id="7a9394793b"><path d="M 772 114.933594 L 776 114.933594 L 776 116 L 772 116 Z M 772 114.933594 " clip-rule="nonzero"/></clipPath></defs><path fill="#1d1d1b" d="M 711.050781 131.789062 L 713.730469 124.765625 L 704.789062 128.695312 C 703.238281 130.855469 705.324219 133.914062 711.050781 131.789062 Z M 711.050781 131.789062 " fill-opacity="1" fill-rule="nonzero"/><path fill="#1d1d1b" d="M 732.496094 132.757812 C 737.132812 132.226562 741.875 130.449219 746.757812 127.847656 C 749.089844 129.035156 747.132812 130.789062 746.765625 131.957031 C 753.246094 128.492188 761.148438 122.65625 756.136719 117.339844 C 749.511719 123.894531 747.484375 121.097656 740.921875 129.382812 C 735.160156 130.996094 730.316406 129.015625 730.910156 126.628906 C 729.988281 127.578125 727.605469 127.585938 725.136719 127.941406 C 722.695312 128.488281 720.164062 129.355469 719.035156 131.632812 C 721.207031 132.324219 723.410156 132.710938 725.636719 132.804688 C 727.875 132.984375 730.179688 133.058594 732.496094 132.757812 Z M 732.496094 132.757812 " fill-opacity="1" fill-rule="nonzero"/><path fill="#1d1d1b" d="M 1025.085938 710.660156 C 1027.351562 709.359375 1028.039062 708.332031 1027.886719 707.757812 C 1025.9375 709.234375 1024.3125 710.433594 1025.085938 710.660156 Z M 1025.085938 710.660156 " fill-opacity="1" fill-rule="nonzero"/><path fill="#1d1d1b" d="M 1175.648438 431.003906 L 1175.460938 440.242188 C 1177.574219 440.585938 1176.050781 435.449219 1175.648438 431.003906 Z M 1175.648438 431.003906 " fill-opacity="1" fill-rule="nonzero"/><path fill="#1d1d1b" d="M 827.605469 119.257812 C 825.519531 119.292969 823.746094 119.640625 822.101562 120.179688 C 823.804688 120.132812 825.453125 120.121094 827.152344 120.175781 C 827.289062 119.855469 827.402344 119.582031 827.605469 119.257812 Z M 827.605469 119.257812 " fill-opacity="1" fill-rule="nonzero"/><path fill="#1d1d1b" d="M 1105.269531 300.246094 L 1103.511719 298.113281 C 1102.453125 297.949219 1101.371094 297.894531 1100.148438 298.007812 Z M 1105.269531 300.246094 " fill-opacity="1" fill-rule="nonzero"/><path fill="#1d1d1b" d="M 1025.523438 221.542969 C 1023.0625 222.492188 1020.863281 222.261719 1018.707031 221.308594 C 1018.121094 222.117188 1017.753906 223.300781 1017.644531 225.058594 C 1019.699219 226.703125 1023.386719 222.867188 1025.523438 221.542969 Z M 1025.523438 221.542969 " fill-opacity="1" fill-rule="nonzero"/><path fill="#1d1d1b" d="M 850.769531 144.765625 L 847.355469 144.859375 C 848.246094 144.800781 849.722656 144.867188 850.769531 144.765625 Z M 850.769531 144.765625 " fill-opacity="1" fill-rule="nonzero"/><path fill="#1d1d1b" d="M 1149.183594 369.144531 C 1148.570312 369.652344 1148.132812 370.308594 1147.949219 370.871094 C 1148.546875 370.589844 1148.933594 369.960938 1149.183594 369.144531 Z M 1149.183594 369.144531 " fill-opacity="1" fill-rule="nonzero"/><path fill="#1d1d1b" d="M 438.523438 1220.734375 C 438.710938 1221.070312 438.972656 1221.148438 439.171875 1221.402344 C 439.3125 1220.539062 439.210938 1220.125 438.523438 1220.734375 Z M 438.523438 1220.734375 " fill-opacity="1" fill-rule="nonzero"/><path fill="#1d1d1b" d="M 557.164062 1143.90625 L 555.960938 1145.429688 C 556.503906 1146.285156 557.03125 1147.128906 557.707031 1147.824219 Z M 557.164062 1143.90625 " fill-opacity="1" fill-rule="nonzero"/><path fill="#1d1d1b" d="M 864.210938 744.121094 C 864.421875 744.136719 864.492188 744.144531 864.691406 744.160156 C 867.375 743.199219 865.824219 743.511719 864.210938 744.121094 Z M 864.210938 744.121094 " fill-opacity="1" fill-rule="nonzero"/><path fill="#1d1d1b" d="M 869.859375 574.652344 C 868.082031 569.097656 872.132812 571.355469 875.761719 573.234375 C 879.289062 575.15625 882.570312 576.585938 879.300781 568.425781 C 878.671875 570.808594 863.273438 562.519531 869.859375 574.652344 Z M 869.859375 574.652344 " fill-opacity="1" fill-rule="nonzero"/><path fill="#1d1d1b" d="M 830.707031 120.359375 C 832.378906 120.527344 834.085938 120.667969 835.765625 120.988281 C 833.5 120.472656 831.9375 120.316406 830.707031 120.359375 Z M 830.707031 120.359375 " fill-opacity="1" fill-rule="nonzero"/><path fill="#1d1d1b" d="M 623.96875 730.085938 C 624.054688 729.550781 623.714844 728.757812 622.308594 727.167969 C 622.496094 728.191406 623.207031 729.148438 623.96875 730.085938 Z M 623.96875 730.085938 " fill-opacity="1" fill-rule="nonzero"/><path fill="#1d1d1b" d="M 802.304688 759.199219 L 797.707031 758.617188 C 799.53125 759.050781 801.011719 759.171875 802.304688 759.199219 Z M 802.304688 759.199219 " fill-opacity="1" fill-rule="nonzero"/><path fill="#1d1d1b" d="M 530.972656 689.238281 C 531.050781 689.625 531.175781 689.949219 531.375 690.328125 C 532.382812 690.421875 533.417969 690.8125 534.554688 691.882812 C 533.765625 690.945312 533.007812 690.15625 530.972656 689.238281 Z M 530.972656 689.238281 " fill-opacity="1" fill-rule="nonzero"/><path fill="#1d1d1b" d="M 483.378906 621.226562 C 483.097656 621.757812 482.949219 622.417969 482.734375 623.023438 C 483.023438 623.855469 483.363281 624.828125 483.664062 625.6875 Z M 483.378906 621.226562 " fill-opacity="1" fill-rule="nonzero"/><path fill="#1d1d1b" d="M 827.25 122.183594 C 828.050781 120.953125 829.042969 120.425781 830.707031 120.359375 C 829.484375 120.257812 828.304688 120.207031 827.152344 120.175781 C 826.734375 120.910156 826.570312 121.628906 827.25 122.183594 Z M 827.25 122.183594 " fill-opacity="1" fill-rule="nonzero"/><path fill="#1d1d1b" d="M 507.921875 724.105469 C 503.125 720.398438 498.660156 716.015625 494.109375 711.910156 C 497.746094 715.542969 502.613281 720.363281 507.921875 724.105469 Z M 507.921875 724.105469 " fill-opacity="1" fill-rule="nonzero"/><path fill="#1d1d1b" d="M 730.074219 1167.761719 L 727.585938 1170.734375 C 728.773438 1169.867188 729.707031 1168.867188 730.074219 1167.761719 Z M 730.074219 1167.761719 " fill-opacity="1" fill-rule="nonzero"/><path fill="#1d1d1b" d="M 457.554688 668.460938 C 457.359375 664.507812 456.605469 660.746094 455.734375 656.898438 C 455.027344 656.328125 454.335938 655.613281 453.558594 655.363281 C 454.671875 659.789062 455.898438 664.238281 457.554688 668.460938 Z M 457.554688 668.460938 " fill-opacity="1" fill-rule="nonzero"/><path fill="#1d1d1b" d="M 912.992188 778.359375 C 912.371094 778.511719 911.8125 778.710938 911.179688 778.855469 C 912.007812 778.699219 912.558594 778.53125 912.992188 778.359375 Z M 912.992188 778.359375 " fill-opacity="1" fill-rule="nonzero"/><path fill="#1d1d1b" d="M 771.488281 126.3125 C 771.882812 126.613281 772.46875 126.8125 773.394531 126.761719 C 772.761719 126.621094 772.121094 126.464844 771.488281 126.3125 Z M 771.488281 126.3125 " fill-opacity="1" fill-rule="nonzero"/><path fill="#1d1d1b" d="M 443.058594 579.199219 C 443.121094 578.046875 443.125 577 443.003906 576.183594 C 442.996094 577.007812 443.003906 578.152344 443.058594 579.199219 Z M 443.058594 579.199219 " fill-opacity="1" fill-rule="nonzero"/><path fill="#1d1d1b" d="M 390.132812 1331.652344 C 391.113281 1331.339844 392.050781 1331.035156 393.207031 1330.6875 C 391.925781 1331.054688 390.945312 1331.367188 390.132812 1331.652344 Z M 390.132812 1331.652344 " fill-opacity="1" fill-rule="nonzero"/><path fill="#1d1d1b" d="M 796.757812 761.535156 C 795.796875 762.074219 794.808594 762.421875 793.808594 762.683594 C 796.035156 762.199219 798.835938 762.242188 796.757812 761.535156 Z M 796.757812 761.535156 " fill-opacity="1" fill-rule="nonzero"/><g clip-path="url(#53d488fd4d)"><path fill="#1d1d1b" d="M 297.820312 1361.777344 C 299.230469 1361.8125 301.507812 1361.371094 302.742188 1361.0625 C 304.128906 1360.703125 305.121094 1360.25 305.667969 1359.679688 C 308.273438 1362.097656 310.769531 1362.847656 311.683594 1363.671875 C 312.699219 1364.503906 312.226562 1365.414062 311.085938 1368.351562 C 320.839844 1364.628906 324.984375 1364.609375 329.800781 1365.082031 C 334.511719 1365.542969 340.339844 1366.554688 350.214844 1364.578125 C 358.285156 1367.496094 358.035156 1369.605469 358.570312 1370.890625 C 359.144531 1372.15625 361.335938 1372.699219 375.859375 1372.402344 C 381.40625 1374.171875 377.875 1375.445312 372.269531 1376.230469 C 366.761719 1376.996094 359.4375 1377.191406 359.4375 1377.191406 C 374.5625 1378.550781 379.292969 1377.003906 380.964844 1374.96875 C 382.671875 1372.882812 382.171875 1370.140625 385.976562 1368.414062 C 416.496094 1368.464844 398.847656 1374.375 409.484375 1378.554688 C 414.707031 1378.039062 419.414062 1376.613281 423.804688 1375.238281 C 423.574219 1376.722656 420.863281 1378.144531 409.46875 1379.011719 C 415.546875 1379.050781 422.136719 1379.207031 429.851562 1378.867188 C 437.066406 1378.554688 444.847656 1378.222656 452.769531 1377.882812 C 468.023438 1376.898438 481.804688 1376.492188 491.753906 1377.648438 C 492.667969 1378.132812 493.585938 1378.605469 494.238281 1379.355469 L 491.859375 1379.839844 C 496.714844 1380.414062 501.84375 1380.117188 505.472656 1379.355469 C 510.144531 1380.09375 513.128906 1380.644531 517.621094 1380.664062 C 519.429688 1384.675781 535 1382.359375 542.539062 1382.035156 C 542.253906 1380.375 543.054688 1379.273438 543.972656 1378.414062 C 548.351562 1377.953125 553.464844 1377.679688 560.515625 1377.972656 C 564.675781 1374.867188 560.585938 1373.34375 562.035156 1370.757812 C 569.664062 1372.816406 576.648438 1374.332031 578.519531 1376.554688 C 583.351562 1375.300781 588.628906 1374.035156 593.988281 1372.710938 C 596.105469 1373.796875 598.230469 1374.714844 600.777344 1375.023438 C 602.480469 1375.230469 604.375 1375.167969 606.570312 1374.703125 C 608.808594 1374.152344 611.421875 1373.074219 614.390625 1371.492188 C 616.652344 1369.421875 618.171875 1366.90625 620.246094 1364.660156 C 621.511719 1364.152344 622.867188 1363.738281 624.085938 1363.1875 L 615.941406 1330.519531 C 611.902344 1331.949219 608.203125 1333.683594 604.875 1335.601562 C 603.757812 1335.660156 602.667969 1335.738281 601.347656 1335.664062 C 602.605469 1333.007812 603.792969 1330.300781 604.878906 1327.539062 C 593.113281 1329.570312 592.1875 1333.773438 588.441406 1336.433594 C 584.117188 1337.257812 579.34375 1337.929688 574.867188 1338.6875 C 574.4375 1338.664062 574.074219 1338.660156 573.621094 1338.628906 C 577.128906 1335.511719 589.160156 1333.855469 586.003906 1333.550781 C 572.597656 1330.410156 576.261719 1337.796875 568.1875 1339.992188 C 568.066406 1340.019531 567.953125 1340.054688 567.828125 1340.085938 C 567.324219 1340.207031 566.792969 1340.316406 566.195312 1340.398438 L 563.292969 1334.351562 C 557.046875 1335.253906 550.550781 1336.402344 543.933594 1337.574219 C 527.964844 1334.726562 514.21875 1336.890625 500.429688 1339.703125 C 500.421875 1339.171875 500.226562 1338.640625 499.707031 1338.105469 C 493.789062 1339.574219 487.375 1338.976562 484.417969 1337.480469 C 481.394531 1335.992188 482.65625 1333.679688 487.5 1332.039062 L 477.1875 1333.363281 C 474.265625 1333.710938 471.503906 1333.996094 468.910156 1334.214844 C 470.046875 1333.824219 478.589844 1332.578125 481.597656 1332.324219 C 486.140625 1331.445312 483.265625 1331.816406 478.652344 1332.40625 C 474.035156 1332.996094 467.160156 1334.011719 464.707031 1334.03125 C 464.789062 1333.976562 464.933594 1333.910156 465.058594 1333.871094 C 467.792969 1332.90625 477.324219 1331.929688 481.101562 1331.785156 C 475.976562 1331.691406 474.730469 1329.894531 478.65625 1326.742188 C 480.601562 1325.164062 483.210938 1323.71875 486.832031 1322.191406 C 490.609375 1320.558594 494.601562 1319.394531 498.015625 1319.3125 C 497.773438 1320.039062 497.589844 1320.738281 497.464844 1321.410156 C 499.578125 1320.960938 500.472656 1320.035156 501.191406 1318.699219 C 501.652344 1317.972656 501.597656 1317.414062 502.367188 1316.332031 C 503.199219 1315.160156 503.988281 1314.050781 504.769531 1312.945312 C 507.871094 1308.492188 510.949219 1304.457031 519.339844 1302.8125 L 517.050781 1305.15625 C 551.886719 1288.933594 585.351562 1262.898438 614.085938 1253.496094 C 614.222656 1248.640625 622.695312 1244.308594 630.457031 1239.554688 C 638.183594 1234.75 645.386719 1229.832031 643.230469 1224.636719 C 664.28125 1216.601562 660.289062 1221.785156 687.277344 1206.214844 C 694.226562 1201.675781 693.003906 1193.4375 700.179688 1186.132812 L 703.925781 1190.492188 L 710.96875 1177.132812 L 721.042969 1177.863281 L 727.585938 1170.734375 C 724.390625 1172.863281 719.621094 1173.808594 719.027344 1172.164062 C 728.972656 1160.871094 749.273438 1151.605469 751.601562 1153.636719 C 759.625 1144.835938 767.105469 1135.460938 774.648438 1126.253906 C 775.40625 1127.933594 773.410156 1130.988281 771.332031 1134.238281 C 778.863281 1122.855469 776.691406 1138.328125 785.109375 1123.699219 C 782.507812 1124.339844 783.675781 1120.355469 783.160156 1119.25 C 792.085938 1116.121094 805.78125 1101.765625 815.074219 1090.460938 L 815.941406 1095.210938 C 825.808594 1086.355469 834.558594 1075.339844 843.839844 1064.367188 C 853.273438 1053.523438 861.8125 1041.34375 871.347656 1029.917969 C 863.132812 1037.023438 859.417969 1030.738281 864.367188 1023.660156 L 871.308594 1024.773438 C 871.914062 1018.109375 863.777344 1030.332031 867.457031 1018.609375 C 874.96875 1010.542969 877.605469 1017.101562 875.105469 1023.273438 C 877.457031 1019.414062 879.636719 1015.371094 881.769531 1011.292969 C 883.695312 1011.75 882.542969 1014.886719 883.875 1016.964844 C 884.1875 1010.257812 903.070312 1001.667969 902.175781 991.007812 L 904.101562 991.394531 C 921.195312 966.332031 926.414062 953.28125 937.652344 931.191406 C 933.144531 928.324219 938.863281 920.398438 937.945312 911.863281 C 947.28125 896.484375 958.472656 879.046875 964.734375 857.773438 C 966.640625 842.160156 961.765625 852.175781 960.730469 844.710938 C 965.800781 845.003906 970.410156 823.382812 971.097656 835.324219 C 972.550781 828.824219 973.566406 823.460938 974.21875 818.515625 C 974.890625 813.582031 975.722656 809.1875 975.96875 804.46875 C 976.28125 799.761719 976.570312 794.835938 976.722656 788.988281 C 976.550781 783.09375 976.644531 776.3125 975.953125 767.898438 C 973.964844 771.457031 972.722656 775.410156 971.273438 773.226562 C 970.84375 767.234375 973.714844 759.660156 976.023438 760.546875 L 976.46875 762.160156 C 976.097656 759.878906 975.8125 757.558594 975.582031 755.203125 C 976.734375 754.933594 977.789062 754.605469 978.988281 754.363281 C 973.746094 764.679688 988.875 753.660156 992.707031 759.570312 C 997.308594 757.230469 1001.789062 754.574219 1006.273438 752.011719 L 999.316406 751.199219 C 1011.824219 746.308594 1020.476562 736.976562 1031.628906 733.839844 C 1029.09375 736.136719 1026.589844 738.589844 1023.960938 740.789062 C 1031.292969 736.710938 1038.667969 732.75 1045.71875 728.195312 C 1041.179688 729.78125 1036.589844 731.175781 1031.972656 732.445312 C 1042.246094 723.152344 1026.820312 725.507812 1042.992188 718.84375 C 1041.621094 720.011719 1044.484375 718.449219 1048.703125 716.617188 C 1052.863281 714.679688 1058.289062 712.3125 1062.335938 712.253906 L 1062.304688 712.296875 C 1066.632812 706.859375 1070.875 701.355469 1079.683594 696.992188 C 1083.046875 697.253906 1082.589844 704.425781 1084.796875 704.625 C 1085.699219 700.273438 1091.828125 695.425781 1097.648438 689.800781 C 1103.675781 684.453125 1109.273438 678.234375 1110.175781 673.273438 C 1109.179688 676.175781 1111.554688 678.953125 1112.738281 678.871094 C 1112.996094 676.457031 1113.300781 674.132812 1113.460938 671.707031 C 1118.816406 668.371094 1120.003906 668.203125 1121.375 670.96875 C 1128.273438 664.492188 1125.59375 664.078125 1123.523438 663.574219 C 1121.40625 663.003906 1120.117188 662.683594 1128.695312 655.605469 C 1127.847656 657.164062 1128.925781 657 1127.085938 660.210938 C 1143.554688 644.742188 1151.308594 624.691406 1162.769531 607.90625 C 1167.234375 606.8125 1165.628906 611.058594 1163.757812 615.101562 C 1161.765625 619.050781 1159.671875 622.875 1164.023438 621.328125 C 1167.789062 614.730469 1170.417969 607.34375 1173.183594 600.144531 C 1175.3125 592.804688 1177.460938 585.417969 1179.59375 578.058594 C 1181.996094 570.875 1183.125 563.261719 1185.011719 556.097656 C 1186.804688 548.894531 1189.027344 541.976562 1190.640625 535.019531 L 1188.785156 540.027344 C 1184.40625 536.882812 1186.65625 532.152344 1189.851562 526.101562 C 1191.445312 523.078125 1193.273438 519.730469 1194.601562 516.191406 C 1195.671875 512.605469 1196.078125 508.800781 1195.335938 505.082031 C 1195.679688 508.664062 1200.265625 510.425781 1199.277344 509.316406 C 1201.058594 499.542969 1202.105469 489.355469 1200.574219 477.910156 C 1199.902344 472.207031 1199.617188 466.203125 1198.289062 459.851562 C 1196.96875 453.558594 1195.550781 446.828125 1194.019531 439.53125 L 1196.878906 442.867188 C 1197.78125 436.917969 1196.226562 429.386719 1195.054688 421.683594 C 1194.34375 417.859375 1193.875 413.933594 1192.960938 410.316406 C 1192.023438 406.703125 1191.183594 403.257812 1190.578125 400.152344 C 1187.09375 397.261719 1185.496094 390.34375 1183.1875 395.601562 C 1183.359375 393.054688 1183.488281 390.507812 1183.3125 388.0625 C 1183.046875 385.652344 1182.664062 383.28125 1182.175781 380.949219 C 1181.207031 376.289062 1179.824219 371.792969 1178.1875 367.457031 C 1174.71875 358.867188 1169.382812 351.355469 1164.558594 343.910156 C 1159.203125 336.746094 1153.59375 330.03125 1149.089844 322.777344 C 1144.046875 315.871094 1139.894531 308.546875 1137.375 299.796875 C 1139.742188 303.078125 1144.777344 306.382812 1142.90625 303.730469 C 1139.882812 299.925781 1136.546875 296.394531 1133.136719 292.949219 L 1123.070312 282.53125 C 1121.246094 287.09375 1123.496094 287.15625 1124.707031 293.914062 C 1120.347656 292.828125 1114.148438 287.714844 1109.230469 282.8125 C 1120.007812 290.136719 1114.347656 278.160156 1112.246094 272.40625 C 1111.917969 273.984375 1109.550781 273.589844 1108.894531 274.851562 C 1106.59375 266.796875 1104.570312 267.808594 1101.921875 268.605469 C 1099.257812 269.375 1096.0625 269.863281 1090.503906 261.207031 L 1092.84375 260.308594 C 1086.4375 256.054688 1079.71875 253.195312 1073.847656 247.660156 C 1074.527344 241.734375 1081.539062 251.011719 1084.539062 248.464844 C 1080.253906 244.605469 1074.191406 242.9375 1068.953125 240.667969 C 1063.601562 238.507812 1059.0625 235.722656 1056.375 230.792969 C 1061.207031 232.464844 1066.40625 237.148438 1071.066406 239.144531 C 1066.121094 227.339844 1064.121094 227.5625 1057.878906 221.828125 L 1058.464844 222.433594 C 1053.75 217.84375 1049.082031 213.128906 1044.242188 208.59375 C 1045.351562 209.921875 1046.339844 211.417969 1047.382812 212.824219 C 1037.792969 213.769531 1031.324219 210.492188 1024.769531 206.054688 C 1018.304688 201.535156 1011.015625 196.964844 1000.699219 195.660156 C 1020.828125 198.289062 1005.738281 193.242188 1009.808594 189.097656 C 1006.335938 185.203125 1000.65625 179.773438 1003.296875 179.5 C 992.972656 179.089844 991.269531 168.945312 976.621094 168.832031 C 976.902344 166.953125 967.742188 164.460938 971.601562 161.234375 C 960.035156 157.378906 972.84375 165.308594 970.910156 166.921875 C 961.210938 165.777344 952.316406 159.378906 941.8125 153.5625 C 931.539062 147.328125 919.523438 141.960938 905.648438 141.542969 C 894.117188 139.910156 886.980469 140.257812 880.125 140.695312 C 873.1875 141.414062 866.550781 142.15625 856.152344 141.175781 C 853.027344 139.074219 854.769531 137.699219 857.324219 136.933594 C 859.863281 136.226562 863.210938 136.089844 863.210938 136.089844 C 857.972656 133.3125 853.09375 131.917969 848.207031 131.050781 C 843.3125 130.199219 838.410156 129.855469 832.917969 129.984375 C 835.339844 128.703125 833.320312 127.089844 830.308594 124.636719 C 821.496094 123.96875 823.628906 130.441406 812.558594 126.304688 C 814.722656 124.542969 817.601562 121.644531 822.101562 120.179688 C 811.542969 120.21875 800.945312 123.246094 790.273438 124.097656 C 787.546875 120.742188 796.933594 119.730469 800.917969 117.933594 C 788.667969 118.0625 769.128906 120.054688 765.683594 125.042969 C 767.625 125.375 769.558594 125.851562 771.488281 126.3125 C 770.023438 125.195312 771.746094 122.257812 774.308594 121.539062 C 784.746094 117.65625 789.28125 123.230469 789.726562 125.203125 C 787.191406 125.4375 784.652344 125.929688 782.125 126.28125 C 785.941406 131.445312 793.289062 131.460938 801.828125 130.417969 C 810.371094 129.070312 820.058594 127.636719 827.582031 128.878906 L 820.320312 135.75 C 825.632812 134.351562 831.085938 132.664062 836.519531 131.535156 C 839.449219 134.136719 840.84375 138.808594 833.4375 138.589844 C 843.230469 144.332031 843.238281 137.632812 851.414062 143.523438 C 852.269531 144.359375 851.742188 144.640625 850.769531 144.765625 C 854.328125 144.574219 857.847656 144.6875 861.394531 144.769531 C 859.050781 145.871094 861.828125 150.511719 855.921875 147.910156 C 864.40625 152.316406 871.945312 152.59375 878.125 152.886719 C 884.238281 153.386719 888.996094 153.664062 891.480469 157.476562 L 889.855469 157.488281 C 902.5625 159.855469 903.566406 158.9375 904.007812 157.011719 C 904.464844 155.125 904.230469 152.457031 914.632812 152.613281 C 917.25 158.507812 919.75 164.367188 922.136719 170.179688 L 926.53125 165.824219 C 928.929688 167.035156 933.65625 169.445312 931.898438 171.179688 C 942.550781 171.355469 931.257812 168.238281 938 167.039062 C 940.496094 169.46875 943.847656 171.382812 947.46875 173.042969 C 951.023438 174.847656 954.828125 176.464844 958.316406 178.027344 C 965.269531 181.207031 970.972656 184.140625 970.148438 188.960938 C 976.238281 187.175781 960.640625 180.421875 974.273438 183.96875 C 973.191406 194.578125 989.273438 189.722656 997.28125 199.675781 C 991.710938 202.09375 983.394531 194.503906 991.320312 204.109375 C 1001.589844 200.453125 1009.996094 217.054688 1018.707031 221.308594 C 1020.757812 218.605469 1025.601562 220.996094 1031.8125 224.96875 C 1037.925781 229.089844 1045.070312 235.160156 1052.421875 239.179688 C 1050.351562 240.1875 1074.222656 261.65625 1083.109375 274.207031 L 1081.988281 274.714844 C 1089.128906 271.578125 1098.910156 284.175781 1107.863281 291.589844 C 1104.472656 293.972656 1101.851562 293.53125 1096.3125 290.308594 C 1098.699219 292.917969 1101.273438 295.378906 1103.511719 298.113281 C 1106.75 298.609375 1109.742188 300.4375 1114.761719 305.320312 L 1109.101562 306.480469 C 1111.386719 309.152344 1113.949219 311.621094 1116.65625 314.085938 C 1119.296875 316.601562 1121.824219 319.296875 1124.484375 322.078125 C 1127.113281 324.882812 1129.734375 327.875 1132.183594 331.210938 C 1134.609375 334.558594 1136.410156 338.527344 1138.070312 342.820312 C 1142.792969 341.410156 1141.648438 322.988281 1154.753906 338.601562 C 1152.914062 340.550781 1149.457031 343.355469 1145.894531 339.480469 C 1147.050781 340.746094 1150.859375 343.582031 1151.664062 347.054688 L 1143.855469 342.496094 C 1146.492188 350.65625 1149.355469 344.40625 1152.328125 350.519531 C 1149.035156 352.164062 1152.226562 356.226562 1149.214844 356.722656 C 1148.148438 355.378906 1148.039062 350.753906 1145.347656 349.324219 C 1148.574219 356.148438 1150.296875 365.398438 1149.183594 369.144531 C 1150.789062 367.671875 1153.652344 367.003906 1156.535156 371.726562 C 1162.199219 384.683594 1154.308594 377.960938 1155.574219 386.183594 C 1159.148438 388.410156 1160.042969 397.496094 1165.164062 396.003906 C 1166.289062 399.976562 1164.054688 401.484375 1163.066406 403.429688 C 1165.101562 406.539062 1168.054688 414.480469 1169.914062 420.71875 C 1171.710938 426.960938 1173.601562 431.34375 1175.699219 426.738281 L 1175.71875 424.804688 C 1175.898438 425.128906 1175.984375 425.539062 1176.183594 425.941406 C 1177.421875 428.773438 1178.453125 431.699219 1179.328125 434.683594 C 1180.273438 437.660156 1180.90625 440.714844 1181.074219 443.847656 C 1181.644531 450.078125 1181.734375 456.414062 1181.734375 462.691406 C 1180.4375 475.324219 1179.4375 487.632812 1178.769531 499.582031 L 1176.949219 499.351562 C 1177.085938 502.929688 1177.015625 506.707031 1176.878906 510.523438 C 1176.828125 514.351562 1175.898438 518.101562 1175.5 521.8125 C 1174.378906 529.179688 1174.046875 536.230469 1174.417969 541.695312 C 1173.113281 545.8125 1168.15625 550.367188 1166.613281 547.992188 C 1165.640625 553.375 1165.546875 556.550781 1164.746094 560.136719 C 1164.109375 563.769531 1162.140625 567.640625 1157.660156 574.34375 C 1158.921875 563.0625 1153.554688 576.753906 1159.816406 563.15625 C 1152.722656 575.566406 1149.257812 577.339844 1147.464844 593.085938 C 1145.363281 586.507812 1137.808594 599.730469 1135.414062 605.8125 C 1137.988281 603.628906 1140.726562 601.480469 1143.105469 599.082031 C 1141.824219 602.59375 1139.925781 605.527344 1138.191406 608.417969 C 1136.382812 611.265625 1134.667969 614.046875 1132.566406 616.605469 L 1129.308594 610.332031 C 1118.582031 619.734375 1113.984375 631.363281 1107.894531 641.863281 C 1105.082031 647.234375 1101.625 651.929688 1097.8125 656.035156 C 1093.714844 659.871094 1088.964844 662.871094 1082.882812 663.972656 C 1081.398438 667.945312 1084.953125 666.234375 1088.394531 664.160156 C 1091.851562 662.128906 1095.511719 660.042969 1094.738281 664.203125 C 1084.410156 672.804688 1068.019531 673.925781 1064.859375 676.210938 C 1048.628906 683.554688 1056.457031 693.328125 1038.902344 701.183594 C 1042.097656 701.9375 1047.25 705.828125 1035.46875 714.738281 C 1022.96875 720.457031 1016.507812 713.964844 1023.210938 708.707031 C 1025.96875 707.125 1027.660156 707.050781 1027.886719 707.757812 C 1031.265625 704.957031 1035.679688 701.433594 1029.972656 701.855469 L 1029.53125 704.628906 C 1022.761719 705.867188 1006.574219 713.894531 1008.847656 708.742188 C 1000.714844 714.710938 1006.492188 713.835938 1013.710938 711.738281 C 997.941406 715.664062 990.269531 721.8125 974.9375 725.726562 C 975.09375 717.410156 975.308594 708.945312 975.101562 700.496094 C 974.691406 679.308594 971.574219 658.460938 961.484375 645.898438 L 962.519531 647.339844 C 960.035156 642.632812 957.21875 638.101562 954.40625 633.613281 C 951.703125 629.082031 948.695312 624.734375 945.679688 620.4375 C 940.292969 607.09375 952.609375 626.707031 950.710938 615.773438 C 939.613281 602.230469 933.253906 590.734375 926.753906 579.886719 C 920.464844 568.976562 913.894531 558.890625 903.136719 549.820312 C 901.609375 537.144531 888.347656 522.589844 872.695312 509.808594 C 857.082031 496.828125 839.398438 485.644531 829.578125 473.859375 L 829.152344 477.582031 C 821.105469 476.160156 822.488281 471.109375 818.128906 467.449219 C 817.480469 470.074219 823.515625 474.320312 818.601562 473.378906 C 790.621094 458.3125 761.410156 443.734375 729.785156 432.6875 C 698.316406 421.613281 664.058594 414.46875 629.242188 415.882812 C 616.503906 416.523438 613.496094 421.683594 609.820312 425.582031 C 606.078125 429.917969 601.828125 432.789062 585.796875 433.117188 L 592.894531 424.894531 C 580.839844 429.582031 569.003906 434.921875 557.28125 440.460938 C 545.609375 446.203125 534.300781 452.796875 523.523438 460.203125 C 502.363281 475.398438 483.835938 494.921875 473.601562 517.484375 C 474.003906 514.277344 472.3125 513.078125 475.167969 509.128906 C 472.625 510.585938 470.285156 513.542969 467.90625 516.972656 C 465.519531 520.390625 463.363281 524.433594 461.875 528.480469 C 458.578125 536.355469 457.589844 543.894531 459.246094 544.695312 C 455.757812 551.667969 455.488281 545.046875 451.828125 548.828125 C 448.738281 553.542969 447.550781 560.550781 447.183594 567.007812 C 446.710938 573.46875 446.445312 579.066406 443.925781 581.730469 C 443.382812 582.289062 443.152344 580.867188 443.058594 579.195312 C 442.835938 583.578125 441.628906 589.949219 441.71875 595.5 C 441.375 602.425781 442.332031 607.476562 444.789062 603.894531 C 443.730469 613.9375 445.238281 623.746094 447.972656 632.453125 C 448.621094 634.636719 449.261719 636.796875 449.890625 638.917969 C 450.636719 640.988281 451.378906 643.027344 452.101562 645.035156 C 453.367188 649.128906 454.730469 652.980469 455.734375 656.898438 C 458.105469 658.675781 459.964844 661.511719 461.957031 664.566406 C 463.894531 667.652344 465.476562 671.332031 467.476562 674.417969 C 471.164062 680.882812 475.230469 686.007812 479.375 684.605469 C 477.527344 685.664062 477.554688 688.070312 478.875 691.25 C 480.285156 694.308594 483.089844 697.96875 486.453125 701.695312 C 489.996094 705.125 494.042969 708.730469 498.082031 711.382812 C 502.152344 713.996094 505.933594 716.164062 508.835938 717.097656 C 504.148438 716.792969 515.300781 725.1875 509.558594 725.316406 C 520.425781 733.277344 531.613281 737.992188 531.890625 733.109375 C 539.449219 743.671875 551.25 747.542969 561.417969 750.460938 C 571.671875 753.417969 580.460938 755.652344 584.277344 764.011719 C 621.183594 773.414062 654.980469 778.273438 687.703125 781.679688 C 686.441406 785.808594 677.390625 784.429688 668.667969 783.023438 C 659.953125 781.546875 651.578125 779.964844 651.277344 784.445312 C 683.175781 787.792969 701.867188 783.304688 732.3125 788.332031 C 740.195312 790.121094 727.46875 791.609375 724.601562 792.671875 C 755.980469 792.453125 785.125 797.136719 812.808594 791.707031 C 812.761719 792.488281 809.800781 793.421875 806.980469 794.136719 C 812.449219 793.773438 819.777344 794.96875 818.984375 791.140625 L 813.703125 792.410156 C 804.914062 787.246094 834.710938 779.90625 835.324219 776.683594 C 826.964844 788.417969 862.484375 777.144531 849.1875 792.230469 C 852.722656 791.148438 857.03125 788.859375 855.941406 786.40625 C 861.300781 786.585938 863.183594 787.886719 858.089844 791.351562 C 877.394531 787.078125 869.917969 783.839844 887.421875 781.414062 C 887.644531 783.246094 884.230469 784.546875 882.722656 786.960938 C 891.125 781.980469 899.316406 777.078125 914.238281 775.679688 C 913.699219 776.703125 914.859375 777.613281 912.992188 778.359375 C 922.878906 775.921875 931.289062 772.398438 939.53125 768.671875 C 939.136719 771.246094 938.605469 773.722656 937.820312 776.003906 L 935.226562 773.601562 C 935.484375 778.992188 939.910156 783.535156 936.070312 790 C 934.972656 789.5 933.601562 787.496094 933.101562 789.957031 C 933.386719 791.433594 934.113281 795.15625 934.449219 799.425781 C 934.722656 803.679688 934.28125 808.4375 932.855469 811.855469 L 930.917969 805.214844 C 928.75 812.023438 927.609375 818.132812 926.675781 823.878906 C 925.9375 829.652344 925.707031 835.097656 925.371094 840.453125 C 925.039062 851.21875 924.820312 861.789062 921.277344 873.65625 C 917.46875 872.144531 912.792969 876.441406 908.441406 882.253906 C 903.84375 887.988281 899.394531 895.242188 896.382812 900.03125 L 895.519531 899.171875 C 879.65625 928.34375 873.707031 952.390625 857.519531 980.230469 C 839.226562 991.035156 812.539062 1030.46875 787.105469 1050.425781 C 791.445312 1047.832031 791.285156 1055.453125 787.777344 1060.027344 C 781.296875 1064.199219 777.144531 1078.851562 772.660156 1072.691406 L 774.648438 1070.882812 C 765.453125 1069.722656 756.128906 1082.070312 746.992188 1089.964844 L 752.265625 1098.496094 C 743.980469 1101.261719 736.414062 1106.484375 729.070312 1112.546875 C 721.605469 1118.476562 714.5625 1125.464844 707.867188 1132.222656 C 694.492188 1145.71875 681.734375 1157.464844 671.160156 1157.921875 C 666.765625 1164.691406 659.003906 1170.15625 654.441406 1176.726562 L 651.609375 1172.257812 C 633.980469 1183.996094 624.828125 1189.265625 604.148438 1205.316406 L 606.382812 1199.148438 C 594.148438 1207.21875 599.355469 1222.070312 588.0625 1229.949219 L 580.347656 1225.59375 C 569.621094 1232.773438 557.496094 1237.871094 546.128906 1244.019531 C 534.660156 1250.023438 523.484375 1256.308594 514.230469 1265.855469 C 514.027344 1264.640625 513.570312 1262.273438 517.019531 1259.914062 C 511.78125 1262.972656 500.78125 1267.234375 492.359375 1271.890625 C 488.132812 1274.203125 484.527344 1276.574219 482.523438 1278.835938 C 479.621094 1281.265625 478.320312 1283.421875 479.867188 1284.929688 C 476.464844 1283.957031 467.378906 1288.410156 457.601562 1294.300781 C 452.039062 1297.65625 446.378906 1301.421875 441.390625 1304.925781 C 435.289062 1308.515625 429.925781 1311.816406 425.894531 1314.386719 C 424.003906 1313.324219 422.261719 1312.210938 420.667969 1311.042969 C 415.945312 1316.5625 415.769531 1318.972656 413.546875 1321.605469 C 412.492188 1322.902344 411.042969 1324.207031 408.75 1325.808594 C 406.367188 1327.394531 402.984375 1329.253906 398.484375 1331.617188 C 391.839844 1333.683594 383.398438 1334.023438 390.132812 1331.652344 C 379.324219 1335.109375 378.648438 1336.582031 378.492188 1337.898438 L 378.445312 1338.085938 C 377.035156 1338.050781 375.730469 1338.03125 374.28125 1337.984375 L 366.675781 1337.699219 L 365.722656 1337.652344 C 365.382812 1337.644531 365.945312 1337.320312 366.011719 1337.171875 L 367.132812 1336.019531 L 369.441406 1333.675781 C 372.597656 1330.527344 376.035156 1327.25 379.691406 1324.027344 C 383.339844 1320.8125 387.195312 1317.648438 391.035156 1314.867188 C 392.953125 1313.480469 394.863281 1312.1875 396.726562 1311.050781 L 399.476562 1309.460938 L 400.8125 1308.765625 C 401.273438 1308.523438 402.160156 1307.886719 402.820312 1307.472656 C 415.234375 1298.4375 413.40625 1294.121094 417.839844 1285.304688 L 424.113281 1287.113281 L 431.152344 1271.480469 C 444.195312 1252.546875 468.992188 1254.605469 483.457031 1228.488281 L 478.160156 1228.285156 C 486.085938 1221.753906 500.136719 1204.351562 501.921875 1208.664062 C 502.203125 1207.445312 501.625 1203.519531 505.894531 1202.183594 L 508.167969 1204.089844 L 522.90625 1183.144531 C 538.53125 1171.25 528.816406 1193.644531 549.863281 1174.460938 C 556.753906 1166.359375 565.746094 1147.570312 561.492188 1148.894531 C 558.292969 1151.730469 552.304688 1155.085938 550.015625 1153.1875 L 555.960938 1145.429688 C 551.1875 1138 550.375 1126.519531 528.960938 1138.496094 L 520.667969 1153.679688 L 513.878906 1154.320312 L 523.78125 1144.558594 C 515.300781 1147.144531 514.113281 1153.101562 511.722656 1158.683594 C 509.203125 1157.992188 506.4375 1158.460938 503.480469 1160.121094 L 497.472656 1177.246094 C 493.6875 1176.15625 498.070312 1167.394531 488.871094 1173.535156 C 486.03125 1181.535156 499.441406 1173.996094 492.074219 1184.476562 C 483.597656 1187.082031 483.046875 1183.179688 478.652344 1191.992188 C 476.15625 1191.277344 476.59375 1188.898438 478.578125 1185.660156 C 474.449219 1193.277344 463.515625 1201.519531 463.617188 1207.78125 C 454.269531 1209.941406 444.265625 1227.890625 439.171875 1221.402344 C 438.652344 1224.605469 433.082031 1236.070312 427.816406 1241.539062 C 431.074219 1224.894531 406.820312 1260.667969 402.199219 1250.519531 C 401.53125 1257.246094 395.492188 1264.332031 388.394531 1271.742188 C 384.84375 1275.449219 381.035156 1279.234375 377.496094 1283.097656 C 376.054688 1284.617188 374.625 1286.125 373.210938 1287.613281 C 371.765625 1289.199219 370.335938 1290.765625 368.925781 1292.308594 C 366.1875 1295.394531 363.707031 1298.382812 361.644531 1301.183594 C 362.09375 1299.785156 363.167969 1296.808594 365.578125 1295.140625 C 352.390625 1306.644531 345.425781 1309.582031 334.230469 1317.90625 C 342.050781 1320.402344 326.894531 1337.640625 327.25 1343.5 C 313.933594 1351.515625 310.992188 1351.429688 310.359375 1349.101562 C 309.527344 1346.96875 310.84375 1342.757812 301.960938 1346.679688 C 307.882812 1345.058594 303.832031 1351.097656 300.738281 1356 C 299.167969 1358.476562 297.78125 1360.726562 297.824219 1361.777344 Z M 526.296875 1371.980469 C 526.789062 1372.183594 527.257812 1372.382812 527.90625 1372.621094 C 526.851562 1372.492188 525.808594 1372.320312 524.757812 1372.183594 C 525.265625 1372.105469 525.769531 1372.019531 526.296875 1371.980469 Z M 519.796875 1380.59375 C 523.007812 1380.648438 525.75 1380.542969 528.25 1380.347656 C 527.9375 1380.859375 527.5625 1381.335938 527.050781 1381.734375 C 522.066406 1382.664062 520.359375 1381.6875 519.65625 1380.605469 C 519.699219 1380.605469 519.753906 1380.597656 519.796875 1380.59375 Z M 974.921875 726.941406 C 976.722656 727.527344 977.769531 728.460938 975.953125 729.109375 C 975.558594 729.207031 975.257812 729.289062 974.882812 729.382812 C 974.894531 728.570312 974.90625 727.757812 974.921875 726.941406 Z M 934.855469 741.707031 C 923.847656 742.171875 931.238281 736.578125 934.839844 733.792969 C 920.507812 742.097656 905.273438 737.816406 896.363281 738.734375 L 904.191406 735.410156 C 899.519531 737.378906 895.511719 738.152344 891.429688 738.882812 L 896.902344 742.355469 C 891.941406 742.589844 887.804688 743.121094 887.597656 741.324219 C 883.042969 745 892.710938 747.945312 883.265625 753.496094 C 876.390625 752.402344 863.417969 758.707031 860.433594 753.160156 C 880.058594 752.496094 860.28125 748.21875 871.921875 745.015625 C 869.179688 745.632812 866.109375 746.019531 862.378906 745.933594 C 861.566406 745.382812 862.925781 744.636719 864.210938 744.121094 C 844.058594 741.03125 856.003906 752.007812 835.355469 753.523438 C 837.699219 749.984375 830.15625 747.710938 826.871094 748.539062 C 835.101562 748.066406 831.234375 753.855469 823.695312 756.765625 C 810.304688 754.949219 809.320312 759.261719 802.304688 759.199219 L 810.320312 760.203125 C 807.714844 763.5 800.988281 763.484375 791.617188 764.445312 C 791.320312 763.496094 792.398438 763.011719 793.703125 762.714844 C 783.839844 765.230469 772.035156 755.839844 758.988281 758.683594 C 752.453125 756.101562 758.660156 752.441406 752.949219 750.628906 C 736.6875 753.820312 736.125 744.914062 719.199219 746.675781 C 723.480469 751.527344 724.5 750.78125 712.171875 753.515625 C 721.488281 753.71875 730.8125 753.589844 740.097656 753.289062 C 734.007812 755.054688 727.890625 756.476562 721.695312 758.03125 C 730.101562 759.046875 739.667969 756.996094 744.632812 758.078125 C 735.847656 761.039062 736.761719 760 740.53125 763.992188 C 729.582031 756.5 717.148438 765.707031 704.3125 759.441406 L 706.25 748.585938 C 687.550781 740.894531 670.453125 748.625 645.964844 739.617188 L 653.542969 743.453125 C 649.085938 746.960938 637.910156 740.125 629.414062 739.453125 C 631.199219 736.15625 626.621094 733.320312 623.96875 730.085938 C 623.460938 732.941406 606.476562 723.984375 601.753906 729.914062 L 592.914062 721.246094 C 588.425781 718.753906 584.597656 717.546875 581.066406 716.957031 C 577.609375 716.25 574.425781 716.199219 571.222656 716.164062 C 567.988281 716.171875 564.847656 716.015625 561.386719 715.253906 C 557.917969 714.511719 554.144531 713.140625 550.046875 710.25 C 557.230469 709.761719 550.765625 703.230469 563.554688 707.035156 C 557.78125 704.039062 553.359375 700.269531 551.882812 702.472656 C 549.828125 698.808594 534.035156 696.847656 531.375 690.328125 C 528.1875 690.039062 525.152344 692.433594 519.660156 687.476562 C 519.53125 686.398438 520.871094 686.113281 520.871094 686.113281 C 519.558594 687.65625 510.746094 680.171875 512.699219 687.617188 C 508.828125 676.558594 499.539062 666.679688 492.027344 655.550781 C 484.460938 644.640625 479.40625 631.996094 482.734375 623.023438 C 481.476562 619.960938 481.101562 616.535156 480.195312 613.101562 C 479.585938 609.628906 479.265625 606.011719 478.929688 602.425781 C 478.707031 595.210938 479.238281 588.027344 480.476562 581.925781 C 481.375 582.9375 482.210938 582.351562 481.355469 584.539062 C 485.023438 576.710938 483.023438 573.566406 481.667969 569.898438 C 480.230469 566.300781 478.664062 561.945312 484.746094 553.25 C 494.273438 546.253906 483.378906 564.421875 488.015625 559.414062 C 494.179688 560.492188 495.847656 555.078125 498.507812 548.238281 C 499.628906 544.75 501.136719 541.015625 503.144531 537.652344 C 504.128906 535.960938 505.21875 534.355469 506.46875 532.957031 C 507.824219 531.636719 509.324219 530.511719 511.003906 529.691406 L 509.730469 532.675781 C 514.3125 529.769531 516.820312 524.242188 520.199219 518.039062 C 523.464844 511.808594 527.558594 504.769531 534.121094 499.636719 C 534.121094 499.636719 534.230469 500.980469 535.253906 501.082031 C 539.433594 488.898438 556.9375 474.183594 571.917969 466.347656 C 569.070312 472.785156 566.199219 471.851562 570.96875 474.839844 C 577.300781 471.109375 565.578125 468.566406 579.074219 461.566406 C 584.632812 462.21875 595.539062 461.097656 598.21875 465.882812 C 593.8125 466.972656 589.652344 468.769531 585.367188 470.175781 C 589.800781 472.292969 593.703125 470.707031 597.730469 468.902344 C 601.742188 467.136719 605.660156 464.449219 609.328125 464.445312 L 609.042969 467.460938 C 618.917969 464.871094 623.878906 462.390625 629.164062 459.804688 C 634.472656 457.460938 640.203125 455.203125 651.765625 455.371094 C 650.96875 454.597656 650.171875 453.933594 649.367188 453.207031 C 662.328125 446.175781 659.871094 457.277344 672.859375 452.902344 C 673.921875 455.464844 674.953125 457.933594 675.941406 460.566406 C 684.183594 459.523438 705.886719 457.648438 721.097656 460.660156 C 711.332031 463.300781 693.652344 462.589844 682.753906 464.445312 C 686.761719 464.859375 693.53125 466.042969 699.949219 466.613281 C 706.328125 467.433594 712.398438 467.652344 714.914062 466.558594 C 711.53125 466.292969 707.054688 467.246094 704.132812 465.410156 C 715.1875 461.78125 729.316406 462.695312 745.121094 468.609375 C 743.195312 471.699219 744.714844 474.394531 748.117188 476.890625 C 751.4375 479.601562 756.738281 481.980469 762.335938 484.851562 C 773.628906 490.308594 786.242188 497.542969 788.515625 505.25 C 802.183594 510.195312 813.882812 518.722656 824.890625 528.636719 C 835.871094 538.664062 846.136719 550.070312 857.832031 561.714844 C 857.632812 545.496094 864.816406 568.46875 871.730469 559.398438 C 877.476562 564.886719 879.375 567.316406 879.308594 568.335938 L 878.574219 566.773438 C 878.875 567.457031 879.042969 567.839844 879.300781 568.425781 L 879.328125 568.402344 C 882.683594 576.097656 885.878906 583.699219 888.5625 591.457031 C 889.144531 597.878906 882.175781 586.960938 880.5625 589.082031 C 889.707031 603.148438 880.878906 597.550781 884.40625 608.253906 C 886.53125 604.136719 892.621094 609.800781 895.984375 618.804688 C 895.191406 614.144531 894.550781 609.296875 893.441406 604.636719 C 902.304688 612.988281 902.90625 618.738281 903.117188 624.351562 C 903.257812 627.164062 903.378906 629.949219 904.488281 633.132812 C 905.507812 636.371094 907.34375 640.0625 911.234375 644.71875 L 904.839844 639.582031 C 908.375 644.457031 912.886719 654.453125 917.261719 664.5 C 919.601562 669.480469 921.8125 674.507812 924.222656 678.871094 C 926.78125 683.195312 929.21875 686.941406 932.152344 689.308594 C 931.382812 691.734375 929.003906 695.132812 926.960938 690.203125 C 929.726562 704.203125 934.746094 719.480469 937.5625 734.738281 C 937.914062 736.546875 938.234375 738.351562 938.527344 740.148438 C 937.480469 740.570312 936.316406 741.058594 934.855469 741.707031 Z M 464.820312 1373.132812 C 465.109375 1373.585938 465.632812 1373.941406 466.347656 1374.222656 C 461.859375 1374.003906 457.847656 1373.589844 454.007812 1373.164062 C 457.492188 1373.09375 461.109375 1373.109375 464.820312 1373.132812 Z M 464.820312 1373.132812 " fill-opacity="1" fill-rule="nonzero"/></g><path fill="#1d1d1b" d="M 1175.699219 427.371094 C 1175.804688 426.824219 1175.917969 426.316406 1176.183594 425.941406 C 1176.015625 426.402344 1175.851562 426.433594 1175.699219 426.738281 Z M 1175.699219 427.371094 " fill-opacity="1" fill-rule="nonzero"/><path fill="#1d1d1b" d="M 704.773438 1191.5 L 703.925781 1190.492188 L 702.519531 1193.101562 Z M 704.773438 1191.5 " fill-opacity="1" fill-rule="nonzero"/><path fill="#1d1d1b" d="M 1112.246094 272.40625 C 1112.359375 271.855469 1112.261719 271.054688 1111.671875 269.835938 C 1111.492188 270.144531 1111.8125 271.1875 1112.246094 272.40625 Z M 1112.246094 272.40625 " fill-opacity="1" fill-rule="nonzero"/><path fill="#1d1d1b" d="M 1057.878906 221.828125 L 1050.558594 214.03125 C 1053.59375 217.621094 1055.9375 220.003906 1057.878906 221.828125 Z M 1057.878906 221.828125 " fill-opacity="1" fill-rule="nonzero"/><path fill="#1d1d1b" d="M 1011.917969 187.742188 C 1010.824219 188.15625 1010.292969 188.648438 1009.808594 189.097656 L 1009.886719 189.1875 L 1011.917969 187.738281 Z M 1011.917969 187.742188 " fill-opacity="1" fill-rule="nonzero"/><path fill="#1d1d1b" d="M 806.980469 794.136719 C 806.207031 794.1875 805.449219 794.273438 804.769531 794.433594 C 799.578125 795.582031 803.117188 795.09375 806.980469 794.136719 Z M 806.980469 794.136719 " fill-opacity="1" fill-rule="nonzero"/><path fill="#1d1d1b" d="M 1062.304688 712.296875 C 1060.375 714.59375 1058.441406 716.871094 1056.179688 718.953125 C 1060.511719 716.765625 1063.789062 714.882812 1062.304688 712.296875 Z M 1062.304688 712.296875 " fill-opacity="1" fill-rule="nonzero"/><path fill="#1d1d1b" d="M 509.476562 725.371094 C 509.523438 725.367188 509.5 725.335938 509.558594 725.316406 C 508.988281 724.894531 508.488281 724.523438 507.921875 724.105469 Z M 509.476562 725.371094 " fill-opacity="1" fill-rule="nonzero"/><path fill="#1d1d1b" d="M 1056.179688 718.953125 C 1052.648438 720.792969 1048.289062 722.519531 1045.1875 725.15625 C 1049.921875 723.726562 1053.386719 721.597656 1056.179688 718.953125 Z M 1056.179688 718.953125 " fill-opacity="1" fill-rule="nonzero"/><g clip-path="url(#7a9394793b)"><path fill="#1d1d1b" d="M 772.957031 114.933594 C 773.007812 115.28125 772.84375 115.5625 772.632812 115.777344 L 775.785156 115.15625 Z M 772.957031 114.933594 " fill-opacity="1" fill-rule="nonzero"/></g><path fill="#1d1d1b" d="M 769.507812 116.394531 C 770.949219 116.394531 772.191406 116.355469 772.632812 115.777344 Z M 769.507812 116.394531 " fill-opacity="1" fill-rule="nonzero"/><path fill="#1d1d1b" d="M 762.96875 117.964844 C 765.144531 117.335938 767.328125 116.777344 769.507812 116.394531 C 767.238281 116.308594 764.398438 116.339844 762.96875 117.964844 Z M 762.96875 117.964844 " fill-opacity="1" fill-rule="nonzero"/><path fill="#1d1d1b" d="M 851.894531 125.351562 L 853.128906 123.652344 C 852.578125 123.949219 852.15625 124.492188 851.894531 125.351562 Z M 851.894531 125.351562 " fill-opacity="1" fill-rule="nonzero"/><path fill="#1d1d1b" d="M 874.578125 129.953125 C 869.316406 128.347656 862.089844 122.425781 854.136719 122.304688 L 853.128906 123.652344 C 857.398438 121.34375 868.773438 131.835938 874.578125 129.953125 Z M 874.578125 129.953125 " fill-opacity="1" fill-rule="nonzero"/><path fill="#1d1d1b" d="M 936.046875 179.253906 C 945.550781 186.375 944.789062 185.0625 944.574219 182.921875 C 944.320312 180.832031 944.414062 178.183594 955.207031 183.703125 C 949.855469 180.605469 944.496094 177.492188 938.933594 174.789062 C 941.152344 177.886719 943.945312 181.976562 936.046875 179.253906 Z M 936.046875 179.253906 " fill-opacity="1" fill-rule="nonzero"/><path fill="#1d1d1b" d="M 1004.109375 213.25 C 995.160156 209.011719 1002.6875 215.824219 1001.628906 216.527344 C 1007.921875 218.125 1009.503906 218.523438 1004.109375 213.25 Z M 1004.109375 213.25 " fill-opacity="1" fill-rule="nonzero"/><path fill="#1d1d1b" d="M 1163.621094 551.332031 L 1159.367188 548.972656 C 1157.808594 556.199219 1161.101562 549.609375 1163.621094 551.332031 Z M 1163.621094 551.332031 " fill-opacity="1" fill-rule="nonzero"/><path fill="#1d1d1b" d="M 1151.175781 634.605469 L 1158.144531 629.605469 L 1156.410156 624.019531 C 1154.90625 627.679688 1152.953125 631.070312 1151.175781 634.605469 Z M 1151.175781 634.605469 " fill-opacity="1" fill-rule="nonzero"/><path fill="#1d1d1b" d="M 1089.6875 655.90625 C 1091.648438 653.660156 1093.578125 651.402344 1095.332031 648.996094 L 1097.027344 646.277344 C 1094.6875 649.546875 1092.3125 652.824219 1089.6875 655.90625 Z M 1089.6875 655.90625 " fill-opacity="1" fill-rule="nonzero"/><path fill="#1d1d1b" d="M 487.402344 638.550781 C 490.320312 642.363281 496.546875 640.292969 492.074219 634.519531 C 490.421875 635.847656 488.933594 637.171875 487.402344 638.550781 Z M 487.402344 638.550781 " fill-opacity="1" fill-rule="nonzero"/><path fill="#1d1d1b" d="M 649.175781 458.710938 C 652.367188 461.574219 660.183594 463.65625 665.296875 461.09375 C 658.925781 460.332031 652.480469 457.886719 649.175781 458.710938 Z M 649.175781 458.710938 " fill-opacity="1" fill-rule="nonzero"/><path fill="#1d1d1b" d="M 732.117188 1106.667969 L 736.230469 1103.292969 L 739.296875 1097.753906 Z M 732.117188 1106.667969 " fill-opacity="1" fill-rule="nonzero"/></svg>