<svg xmlns="http://www.w3.org/2000/svg" xmlns:xlink="http://www.w3.org/1999/xlink" width="2000" zoomAndPan="magnify" viewBox="0 0 1500 1499.999933" height="2000" preserveAspectRatio="xMidYMid meet" version="1.0"><defs><g/><clipPath id="92d1e84081"><rect x="0" width="1365" y="0" height="278"/></clipPath></defs><g transform="matrix(1, 0, 0, 1, 65, 611)"><g clip-path="url(#92d1e84081)"><g fill="#222222" fill-opacity="1"><g transform="translate(1.075261, 201.527184)"><g/></g></g><g fill="#222222" fill-opacity="1"><g transform="translate(24.007765, 201.527184)"><g><path d="M 98.703125 -31.90625 C 98.703125 -25.65625 96.9375 -19.867188 93.40625 -14.546875 C 89.882812 -9.234375 84.664062 -4.984375 77.75 -1.796875 C 70.84375 1.390625 62.207031 2.984375 51.84375 2.984375 C 43.601562 2.984375 36.390625 2.019531 30.203125 0.09375 C 24.023438 -1.832031 18.84375 -4.023438 14.65625 -6.484375 C 10.46875 -8.941406 7.3125 -11.132812 5.1875 -13.0625 C 3.0625 -14.988281 2 -15.953125 2 -15.953125 L 16.953125 -39.875 C 16.953125 -39.875 17.976562 -39.039062 20.03125 -37.375 C 22.09375 -35.71875 25.019531 -34.054688 28.8125 -32.390625 C 32.601562 -30.734375 36.957031 -29.90625 41.875 -29.90625 C 43.332031 -29.90625 44.523438 -30.335938 45.453125 -31.203125 C 46.390625 -32.066406 46.859375 -32.960938 46.859375 -33.890625 C 46.859375 -35.085938 45.5625 -36.21875 42.96875 -37.28125 C 40.375 -38.34375 37.148438 -39.671875 33.296875 -41.265625 C 29.441406 -42.867188 25.550781 -45 21.625 -47.65625 C 17.707031 -50.3125 14.453125 -53.734375 11.859375 -57.921875 C 9.265625 -62.109375 7.96875 -67.394531 7.96875 -73.78125 C 7.96875 -80.15625 9.726562 -85.96875 13.25 -91.21875 C 16.78125 -96.46875 22.035156 -100.6875 29.015625 -103.875 C 35.992188 -107.070312 44.597656 -108.671875 54.828125 -108.671875 C 61.609375 -108.671875 67.691406 -107.804688 73.078125 -106.078125 C 78.460938 -104.347656 83.046875 -102.382812 86.828125 -100.1875 C 90.617188 -98 93.546875 -96.039062 95.609375 -94.3125 C 97.671875 -92.582031 98.703125 -91.71875 98.703125 -91.71875 L 83.75 -67.796875 C 83.75 -67.796875 82.914062 -68.457031 81.25 -69.78125 C 79.59375 -71.113281 77.367188 -72.441406 74.578125 -73.765625 C 71.785156 -75.097656 68.523438 -75.765625 64.796875 -75.765625 C 63.335938 -75.765625 62.140625 -75.363281 61.203125 -74.5625 C 60.273438 -73.769531 59.8125 -72.84375 59.8125 -71.78125 C 59.8125 -70.582031 61.109375 -69.453125 63.703125 -68.390625 C 66.296875 -67.328125 69.550781 -66 73.46875 -64.40625 C 77.394531 -62.8125 81.285156 -60.679688 85.140625 -58.015625 C 88.992188 -55.359375 92.21875 -51.9375 94.8125 -47.75 C 97.40625 -43.5625 98.703125 -38.28125 98.703125 -31.90625 Z M 98.703125 -31.90625 "/></g></g></g><g fill="#222222" fill-opacity="1"><g transform="translate(109.746599, 201.527184)"><g><path d="M 17.9375 -65.796875 L 3.984375 -65.796875 L 3.984375 -105.671875 L 17.9375 -105.671875 L 17.9375 -139.578125 L 65.796875 -139.578125 L 65.796875 -105.671875 L 83.75 -105.671875 L 83.75 -65.796875 L 65.796875 -65.796875 L 65.796875 -48.84375 C 65.796875 -44.863281 66.722656 -41.875 68.578125 -39.875 C 70.441406 -37.882812 72.835938 -36.890625 75.765625 -36.890625 C 77.765625 -36.890625 79.59375 -37.054688 81.25 -37.390625 C 82.914062 -37.722656 83.75 -37.890625 83.75 -37.890625 L 83.75 2 C 83.75 2 82.019531 2.328125 78.5625 2.984375 C 75.101562 3.648438 70.847656 3.984375 65.796875 3.984375 C 50.910156 3.984375 39.210938 -0.46875 30.703125 -9.375 C 22.191406 -18.28125 17.9375 -31.4375 17.9375 -48.84375 Z M 17.9375 -65.796875 "/></g></g></g><g fill="#222222" fill-opacity="1"><g transform="translate(186.512746, 201.527184)"><g><path d="M 45.859375 2.984375 C 39.210938 2.984375 33.164062 1.160156 27.71875 -2.484375 C 22.269531 -6.140625 17.945312 -11.890625 14.75 -19.734375 C 11.5625 -27.578125 9.96875 -37.613281 9.96875 -49.84375 L 9.96875 -105.671875 L 57.828125 -105.671875 L 57.828125 -49.84375 C 57.828125 -45.851562 58.65625 -42.863281 60.3125 -40.875 C 61.976562 -38.882812 63.804688 -37.890625 65.796875 -37.890625 C 67.796875 -37.890625 69.625 -38.882812 71.28125 -40.875 C 72.945312 -42.863281 73.78125 -45.851562 73.78125 -49.84375 L 73.78125 -105.671875 L 121.625 -105.671875 L 121.625 0 L 75.765625 0 L 71.78125 -11.96875 C 71.78125 -11.96875 71.28125 -11.203125 70.28125 -9.671875 C 69.289062 -8.140625 67.726562 -6.410156 65.59375 -4.484375 C 63.46875 -2.554688 60.773438 -0.832031 57.515625 0.6875 C 54.265625 2.21875 50.378906 2.984375 45.859375 2.984375 Z M 45.859375 2.984375 "/></g></g></g><g fill="#222222" fill-opacity="1"><g transform="translate(301.163637, 201.527184)"><g><path d="M 5.984375 -52.84375 C 5.984375 -64.800781 7.941406 -74.929688 11.859375 -83.234375 C 15.785156 -91.546875 20.9375 -97.863281 27.3125 -102.1875 C 33.695312 -106.507812 40.546875 -108.671875 47.859375 -108.671875 C 52.910156 -108.671875 57.195312 -107.90625 60.71875 -106.375 C 64.238281 -104.84375 67.09375 -103.113281 69.28125 -101.1875 C 71.476562 -99.257812 73.109375 -97.53125 74.171875 -96 C 75.234375 -94.476562 75.765625 -93.71875 75.765625 -93.71875 L 75.765625 -147.546875 L 123.625 -147.546875 L 123.625 0 L 79.75 0 C 78.425781 -3.988281 77.5 -6.8125 76.96875 -8.46875 C 76.4375 -10.132812 76.101562 -11.132812 75.96875 -11.46875 C 75.832031 -11.800781 75.765625 -11.96875 75.765625 -11.96875 C 75.765625 -11.96875 75.234375 -11.203125 74.171875 -9.671875 C 73.109375 -8.140625 71.476562 -6.410156 69.28125 -4.484375 C 67.09375 -2.554688 64.238281 -0.832031 60.71875 0.6875 C 57.195312 2.21875 52.910156 2.984375 47.859375 2.984375 C 40.546875 2.984375 33.695312 0.828125 27.3125 -3.484375 C 20.9375 -7.804688 15.785156 -14.117188 11.859375 -22.421875 C 7.941406 -30.734375 5.984375 -40.875 5.984375 -52.84375 Z M 55.828125 -52.84375 C 55.828125 -47.925781 56.921875 -44.203125 59.109375 -41.671875 C 61.304688 -39.148438 63.867188 -37.890625 66.796875 -37.890625 C 69.847656 -37.890625 72.4375 -39.148438 74.5625 -41.671875 C 76.695312 -44.203125 77.765625 -47.925781 77.765625 -52.84375 C 77.765625 -57.894531 76.695312 -61.648438 74.5625 -64.109375 C 72.4375 -66.566406 69.847656 -67.796875 66.796875 -67.796875 C 63.867188 -67.796875 61.304688 -66.566406 59.109375 -64.109375 C 56.921875 -61.648438 55.828125 -57.894531 55.828125 -52.84375 Z M 55.828125 -52.84375 "/></g></g></g><g fill="#222222" fill-opacity="1"><g transform="translate(417.808465, 201.527184)"><g><path d="M 9.96875 -105.671875 L 57.828125 -105.671875 L 57.828125 0 L 9.96875 0 Z M 9.96875 -117.640625 L 9.96875 -155.53125 L 57.828125 -155.53125 L 57.828125 -117.640625 Z M 9.96875 -117.640625 "/></g></g></g><g fill="#222222" fill-opacity="1"><g transform="translate(468.653412, 201.527184)"><g><path d="M 5.984375 -52.84375 C 5.984375 -63.207031 8.570312 -72.609375 13.75 -81.046875 C 18.9375 -89.492188 26.082031 -96.207031 35.1875 -101.1875 C 44.289062 -106.175781 54.828125 -108.671875 66.796875 -108.671875 C 78.753906 -108.671875 89.316406 -106.175781 98.484375 -101.1875 C 107.660156 -96.207031 114.804688 -89.492188 119.921875 -81.046875 C 125.046875 -72.609375 127.609375 -63.207031 127.609375 -52.84375 C 127.609375 -42.601562 125.046875 -33.226562 119.921875 -24.71875 C 114.804688 -16.21875 107.660156 -9.472656 98.484375 -4.484375 C 89.316406 0.492188 78.753906 2.984375 66.796875 2.984375 C 54.828125 2.984375 44.289062 0.492188 35.1875 -4.484375 C 26.082031 -9.472656 18.9375 -16.21875 13.75 -24.71875 C 8.570312 -33.226562 5.984375 -42.601562 5.984375 -52.84375 Z M 79.75 -52.84375 C 79.75 -57.363281 78.453125 -60.984375 75.859375 -63.703125 C 73.273438 -66.429688 70.253906 -67.796875 66.796875 -67.796875 C 63.335938 -67.796875 60.3125 -66.429688 57.71875 -63.703125 C 55.125 -60.984375 53.828125 -57.363281 53.828125 -52.84375 C 53.828125 -48.320312 55.125 -44.695312 57.71875 -41.96875 C 60.3125 -39.25 63.335938 -37.890625 66.796875 -37.890625 C 70.253906 -37.890625 73.273438 -39.25 75.859375 -41.96875 C 78.453125 -44.695312 79.75 -48.320312 79.75 -52.84375 Z M 79.75 -52.84375 "/></g></g></g><g fill="#222222" fill-opacity="1"><g transform="translate(585.29824, 201.527184)"><g/></g></g><g fill="#222222" fill-opacity="1"><g transform="translate(608.228128, 201.527184)"><g><path d="M 127.609375 -52.84375 C 127.609375 -40.875 125.644531 -30.734375 121.71875 -22.421875 C 117.800781 -14.117188 112.648438 -7.804688 106.265625 -3.484375 C 99.890625 0.828125 93.046875 2.984375 85.734375 2.984375 C 80.816406 2.984375 76.5625 2.21875 72.96875 0.6875 C 69.382812 -0.832031 66.492188 -2.554688 64.296875 -4.484375 C 62.109375 -6.410156 60.484375 -8.140625 59.421875 -9.671875 C 58.359375 -11.203125 57.828125 -11.96875 57.828125 -11.96875 C 57.828125 -11.96875 57.757812 -11.800781 57.625 -11.46875 C 57.488281 -11.132812 57.15625 -10.132812 56.625 -8.46875 C 56.09375 -6.8125 55.160156 -3.988281 53.828125 0 L 9.96875 0 L 9.96875 -147.546875 L 57.828125 -147.546875 L 57.828125 -93.71875 C 57.828125 -93.71875 58.359375 -94.476562 59.421875 -96 C 60.484375 -97.53125 62.109375 -99.257812 64.296875 -101.1875 C 66.492188 -103.113281 69.382812 -104.84375 72.96875 -106.375 C 76.5625 -107.90625 80.816406 -108.671875 85.734375 -108.671875 C 93.046875 -108.671875 99.890625 -106.507812 106.265625 -102.1875 C 112.648438 -97.863281 117.800781 -91.546875 121.71875 -83.234375 C 125.644531 -74.929688 127.609375 -64.800781 127.609375 -52.84375 Z M 77.765625 -52.84375 C 77.765625 -57.894531 76.695312 -61.648438 74.5625 -64.109375 C 72.4375 -66.566406 69.847656 -67.796875 66.796875 -67.796875 C 63.867188 -67.796875 61.304688 -66.566406 59.109375 -64.109375 C 56.921875 -61.648438 55.828125 -57.894531 55.828125 -52.84375 C 55.828125 -47.925781 56.921875 -44.203125 59.109375 -41.671875 C 61.304688 -39.148438 63.867188 -37.890625 66.796875 -37.890625 C 69.847656 -37.890625 72.4375 -39.148438 74.5625 -41.671875 C 76.695312 -44.203125 77.765625 -47.925781 77.765625 -52.84375 Z M 77.765625 -52.84375 "/></g></g></g><g fill="#222222" fill-opacity="1"><g transform="translate(724.872957, 201.527184)"><g><path d="M 9.96875 0 L 9.96875 -147.546875 L 57.828125 -147.546875 L 57.828125 0 Z M 9.96875 0 "/></g></g></g><g fill="#222222" fill-opacity="1"><g transform="translate(775.717956, 201.527184)"><g><path d="M 5.984375 -52.84375 C 5.984375 -63.207031 8.570312 -72.609375 13.75 -81.046875 C 18.9375 -89.492188 26.082031 -96.207031 35.1875 -101.1875 C 44.289062 -106.175781 54.828125 -108.671875 66.796875 -108.671875 C 78.753906 -108.671875 89.316406 -106.175781 98.484375 -101.1875 C 107.660156 -96.207031 114.804688 -89.492188 119.921875 -81.046875 C 125.046875 -72.609375 127.609375 -63.207031 127.609375 -52.84375 C 127.609375 -42.601562 125.046875 -33.226562 119.921875 -24.71875 C 114.804688 -16.21875 107.660156 -9.472656 98.484375 -4.484375 C 89.316406 0.492188 78.753906 2.984375 66.796875 2.984375 C 54.828125 2.984375 44.289062 0.492188 35.1875 -4.484375 C 26.082031 -9.472656 18.9375 -16.21875 13.75 -24.71875 C 8.570312 -33.226562 5.984375 -42.601562 5.984375 -52.84375 Z M 79.75 -52.84375 C 79.75 -57.363281 78.453125 -60.984375 75.859375 -63.703125 C 73.273438 -66.429688 70.253906 -67.796875 66.796875 -67.796875 C 63.335938 -67.796875 60.3125 -66.429688 57.71875 -63.703125 C 55.125 -60.984375 53.828125 -57.363281 53.828125 -52.84375 C 53.828125 -48.320312 55.125 -44.695312 57.71875 -41.96875 C 60.3125 -39.25 63.335938 -37.890625 66.796875 -37.890625 C 70.253906 -37.890625 73.273438 -39.25 75.859375 -41.96875 C 78.453125 -44.695312 79.75 -48.320312 79.75 -52.84375 Z M 79.75 -52.84375 "/></g></g></g><g fill="#222222" fill-opacity="1"><g transform="translate(892.362733, 201.527184)"><g><path d="M 149.546875 -108.671875 C 156.191406 -108.671875 162.238281 -106.84375 167.6875 -103.1875 C 173.132812 -99.53125 177.453125 -93.8125 180.640625 -86.03125 C 183.835938 -78.257812 185.4375 -68.191406 185.4375 -55.828125 L 185.4375 0 L 137.578125 0 L 137.578125 -55.828125 C 137.578125 -59.816406 136.742188 -62.804688 135.078125 -64.796875 C 133.421875 -66.796875 131.597656 -67.796875 129.609375 -67.796875 C 127.609375 -67.796875 125.773438 -66.796875 124.109375 -64.796875 C 122.453125 -62.804688 121.625 -59.816406 121.625 -55.828125 L 121.625 0 L 73.78125 0 L 73.78125 -55.828125 C 73.78125 -59.816406 72.945312 -62.804688 71.28125 -64.796875 C 69.625 -66.796875 67.796875 -67.796875 65.796875 -67.796875 C 63.804688 -67.796875 61.976562 -66.796875 60.3125 -64.796875 C 58.65625 -62.804688 57.828125 -59.816406 57.828125 -55.828125 L 57.828125 0 L 9.96875 0 L 9.96875 -105.671875 L 55.828125 -105.671875 L 59.8125 -93.71875 C 59.8125 -93.71875 60.34375 -94.476562 61.40625 -96 C 62.46875 -97.53125 64.097656 -99.257812 66.296875 -101.1875 C 68.492188 -103.113281 71.382812 -104.84375 74.96875 -106.375 C 78.5625 -107.90625 82.816406 -108.671875 87.734375 -108.671875 C 92.785156 -108.671875 97.171875 -107.707031 100.890625 -105.78125 C 104.609375 -103.851562 107.695312 -101.660156 110.15625 -99.203125 C 112.625 -96.742188 114.488281 -94.546875 115.75 -92.609375 C 117.007812 -90.679688 117.640625 -89.71875 117.640625 -89.71875 C 117.640625 -89.71875 118.367188 -90.679688 119.828125 -92.609375 C 121.296875 -94.546875 123.390625 -96.742188 126.109375 -99.203125 C 128.835938 -101.660156 132.195312 -103.851562 136.1875 -105.78125 C 140.175781 -107.707031 144.628906 -108.671875 149.546875 -108.671875 Z M 149.546875 -108.671875 "/></g></g></g><g fill="#222222" fill-opacity="1"><g transform="translate(1068.82557, 201.527184)"><g><path d="M 149.546875 -108.671875 C 156.191406 -108.671875 162.238281 -106.84375 167.6875 -103.1875 C 173.132812 -99.53125 177.453125 -93.8125 180.640625 -86.03125 C 183.835938 -78.257812 185.4375 -68.191406 185.4375 -55.828125 L 185.4375 0 L 137.578125 0 L 137.578125 -55.828125 C 137.578125 -59.816406 136.742188 -62.804688 135.078125 -64.796875 C 133.421875 -66.796875 131.597656 -67.796875 129.609375 -67.796875 C 127.609375 -67.796875 125.773438 -66.796875 124.109375 -64.796875 C 122.453125 -62.804688 121.625 -59.816406 121.625 -55.828125 L 121.625 0 L 73.78125 0 L 73.78125 -55.828125 C 73.78125 -59.816406 72.945312 -62.804688 71.28125 -64.796875 C 69.625 -66.796875 67.796875 -67.796875 65.796875 -67.796875 C 63.804688 -67.796875 61.976562 -66.796875 60.3125 -64.796875 C 58.65625 -62.804688 57.828125 -59.816406 57.828125 -55.828125 L 57.828125 0 L 9.96875 0 L 9.96875 -105.671875 L 55.828125 -105.671875 L 59.8125 -93.71875 C 59.8125 -93.71875 60.34375 -94.476562 61.40625 -96 C 62.46875 -97.53125 64.097656 -99.257812 66.296875 -101.1875 C 68.492188 -103.113281 71.382812 -104.84375 74.96875 -106.375 C 78.5625 -107.90625 82.816406 -108.671875 87.734375 -108.671875 C 92.785156 -108.671875 97.171875 -107.707031 100.890625 -105.78125 C 104.609375 -103.851562 107.695312 -101.660156 110.15625 -99.203125 C 112.625 -96.742188 114.488281 -94.546875 115.75 -92.609375 C 117.007812 -90.679688 117.640625 -89.71875 117.640625 -89.71875 C 117.640625 -89.71875 118.367188 -90.679688 119.828125 -92.609375 C 121.296875 -94.546875 123.390625 -96.742188 126.109375 -99.203125 C 128.835938 -101.660156 132.195312 -103.851562 136.1875 -105.78125 C 140.175781 -107.707031 144.628906 -108.671875 149.546875 -108.671875 Z M 149.546875 -108.671875 "/></g></g></g><g fill="#222222" fill-opacity="1"><g transform="translate(1245.288463, 201.527184)"><g><path d="M 56.828125 -108.671875 C 68.128906 -108.671875 78.195312 -106.175781 87.03125 -101.1875 C 95.875 -96.207031 102.851562 -89.492188 107.96875 -81.046875 C 113.082031 -72.609375 115.640625 -63.207031 115.640625 -52.84375 C 115.640625 -44.332031 115.640625 -35.359375 115.640625 -25.921875 C 115.640625 -16.484375 115.640625 -7.84375 115.640625 0 L 69.78125 0 L 65.796875 -11.96875 C 65.796875 -11.96875 65.296875 -11.203125 64.296875 -9.671875 C 63.304688 -8.140625 61.742188 -6.410156 59.609375 -4.484375 C 57.484375 -2.554688 54.789062 -0.832031 51.53125 0.6875 C 48.28125 2.21875 44.394531 2.984375 39.875 2.984375 C 32.5625 2.984375 26.210938 1.554688 20.828125 -1.296875 C 15.453125 -4.148438 11.300781 -8.066406 8.375 -13.046875 C 5.445312 -18.035156 3.984375 -23.65625 3.984375 -29.90625 C 3.984375 -36.289062 5.613281 -41.941406 8.875 -46.859375 C 12.132812 -51.773438 17.285156 -55.660156 24.328125 -58.515625 C 31.367188 -61.378906 40.539062 -62.8125 51.84375 -62.8125 L 67.796875 -62.8125 C 67.796875 -62.8125 67.394531 -63.738281 66.59375 -65.59375 C 65.800781 -67.457031 64.140625 -69.285156 61.609375 -71.078125 C 59.085938 -72.878906 55.164062 -73.78125 49.84375 -73.78125 C 46.519531 -73.78125 43.492188 -73.113281 40.765625 -71.78125 C 38.046875 -70.445312 35.890625 -69.113281 34.296875 -67.78125 C 32.703125 -66.457031 31.90625 -65.796875 31.90625 -65.796875 L 14.953125 -92.71875 C 14.953125 -92.71875 15.878906 -93.515625 17.734375 -95.109375 C 19.597656 -96.703125 22.289062 -98.5625 25.8125 -100.6875 C 29.34375 -102.8125 33.695312 -104.671875 38.875 -106.265625 C 44.0625 -107.867188 50.046875 -108.671875 56.828125 -108.671875 Z M 57.828125 -28.90625 C 60.347656 -28.90625 62.640625 -30.234375 64.703125 -32.890625 C 66.765625 -35.554688 67.796875 -39.878906 67.796875 -45.859375 C 62.347656 -45.859375 58.328125 -44.796875 55.734375 -42.671875 C 53.140625 -40.546875 51.84375 -37.953125 51.84375 -34.890625 C 51.84375 -33.429688 52.472656 -32.066406 53.734375 -30.796875 C 54.992188 -29.535156 56.359375 -28.90625 57.828125 -28.90625 Z M 57.828125 -28.90625 "/></g></g></g></g></g></svg>