<svg xmlns="http://www.w3.org/2000/svg" xmlns:xlink="http://www.w3.org/1999/xlink" width="2000" zoomAndPan="magnify" viewBox="0 0 1500 1499.999933" height="2000" preserveAspectRatio="xMidYMid meet" version="1.0"><defs><clipPath id="729784f4d1"><path d="M 204.617188 204.617188 L 1295.117188 204.617188 L 1295.117188 1295.117188 L 204.617188 1295.117188 Z M 204.617188 204.617188 " clip-rule="nonzero"/></clipPath></defs><g clip-path="url(#729784f4d1)"><path fill="#222222" d="M 941.097656 395.71875 C 941.097656 501.304688 749.996094 749.996094 749.996094 749.996094 C 749.996094 749.996094 558.894531 501.304688 558.894531 395.71875 C 558.894531 290.132812 644.410156 204.617188 749.996094 204.617188 C 855.582031 204.617188 941.097656 290.132812 941.097656 395.71875 Z M 1295.375 749.996094 C 1295.375 644.410156 1209.859375 558.894531 1104.273438 558.894531 C 998.6875 558.894531 749.996094 749.996094 749.996094 749.996094 C 749.996094 749.996094 998.6875 941.097656 1104.273438 941.097656 C 1209.859375 941.097656 1295.375 855.582031 1295.375 749.996094 Z M 749.996094 1295.375 C 855.582031 1295.375 941.097656 1209.859375 941.097656 1104.273438 C 941.097656 998.6875 749.996094 749.996094 749.996094 749.996094 C 749.996094 749.996094 558.894531 998.6875 558.894531 1104.273438 C 558.894531 1209.859375 644.410156 1295.375 749.996094 1295.375 Z M 204.617188 749.996094 C 204.617188 855.582031 290.132812 941.097656 395.71875 941.097656 C 501.304688 941.097656 749.996094 749.996094 749.996094 749.996094 C 749.996094 749.996094 501.304688 558.894531 395.71875 558.894531 C 290.132812 558.894531 204.617188 644.410156 204.617188 749.996094 Z M 204.617188 749.996094 " fill-opacity="1" fill-rule="nonzero"/></g></svg>