<svg xmlns="http://www.w3.org/2000/svg" xmlns:xlink="http://www.w3.org/1999/xlink" width="2000" zoomAndPan="magnify" viewBox="0 0 1500 1499.999933" height="2000" preserveAspectRatio="xMidYMid meet" version="1.0"><defs><g/><clipPath id="bad199d10f"><rect x="0" width="660" y="0" height="400"/></clipPath></defs><path fill="#8f915f" d="M 861.65625 333.179688 C 947.488281 293.492188 1046.613281 350.839844 1055.15625 444.839844 C 1149.34375 453.382812 1206.503906 552.507812 1166.8125 638.339844 C 1244.101562 692.839844 1244.101562 807.34375 1166.8125 861.65625 C 1206.503906 947.488281 1149.15625 1046.613281 1055.15625 1055.15625 C 1046.613281 1149.34375 947.488281 1206.503906 861.65625 1166.8125 C 807.15625 1244.101562 692.648438 1244.101562 638.339844 1166.8125 C 552.507812 1206.503906 453.382812 1149.15625 444.839844 1055.15625 C 350.839844 1046.613281 293.492188 947.488281 333.179688 861.65625 C 255.894531 807.15625 255.894531 692.648438 333.179688 638.339844 C 293.492188 552.507812 350.839844 453.382812 444.839844 444.839844 C 453.382812 350.839844 552.507812 293.492188 638.339844 333.179688 C 692.648438 255.894531 807.34375 255.894531 861.65625 333.179688 Z M 861.65625 333.179688 " fill-opacity="1" fill-rule="nonzero"/><g transform="matrix(1, 0, 0, 1, 420, 550)"><g clip-path="url(#bad199d10f)"><g fill="#222222" fill-opacity="1"><g transform="translate(0.375238, 290.02415)"><g><path d="M 135.296875 7.609375 C 114.046875 7.609375 95.84375 5.976562 80.6875 2.71875 C 65.53125 -0.539062 53 -5.007812 43.09375 -10.6875 C 33.195312 -16.363281 25.378906 -22.941406 19.640625 -30.421875 C 13.910156 -37.910156 9.867188 -45.910156 7.515625 -54.421875 C 5.160156 -62.929688 3.984375 -71.597656 3.984375 -80.421875 L 3.984375 -81.5 L 122.609375 -81.5 L 122.609375 -79.140625 C 122.734375 -78.296875 123.097656 -77.207031 123.703125 -75.875 C 124.304688 -74.550781 125.753906 -73.890625 128.046875 -73.890625 C 129.859375 -73.890625 131.1875 -74.492188 132.03125 -75.703125 C 132.875 -76.910156 133.296875 -78.054688 133.296875 -79.140625 C 133.296875 -79.628906 132.960938 -80.414062 132.296875 -81.5 C 131.640625 -82.582031 130.460938 -83.25 128.765625 -83.5 C 125.390625 -84.101562 120.648438 -84.703125 114.546875 -85.296875 C 108.453125 -85.898438 101.570312 -86.742188 93.90625 -87.828125 C 86.238281 -88.921875 78.300781 -90.492188 70.09375 -92.546875 C 61.882812 -94.597656 53.914062 -97.40625 46.1875 -100.96875 C 38.457031 -104.53125 31.484375 -109.117188 25.265625 -114.734375 C 19.046875 -120.347656 14.09375 -127.171875 10.40625 -135.203125 C 6.726562 -143.234375 4.890625 -152.800781 4.890625 -163.90625 L 4.890625 -164.625 C 5.492188 -186.363281 10.535156 -203.753906 20.015625 -216.796875 C 29.492188 -229.835938 42.984375 -239.222656 60.484375 -244.953125 C 77.992188 -250.691406 99.1875 -253.5625 124.0625 -253.5625 C 145.789062 -253.5625 164.535156 -251.414062 180.296875 -247.125 C 196.054688 -242.84375 209.003906 -236.773438 219.140625 -228.921875 C 229.285156 -221.078125 236.832031 -211.8125 241.78125 -201.125 C 246.738281 -190.4375 249.273438 -178.632812 249.390625 -165.71875 L 249.390625 -165 L 135.46875 -165 L 135.46875 -167.171875 C 135.46875 -168.378906 135.015625 -169.492188 134.109375 -170.515625 C 133.203125 -171.546875 131.90625 -172.0625 130.21875 -172.0625 C 128.644531 -172.0625 127.34375 -171.515625 126.3125 -170.421875 C 125.289062 -169.335938 124.78125 -168.132812 124.78125 -166.8125 C 124.78125 -166.320312 125.351562 -165.382812 126.5 -164 C 127.65625 -162.613281 129.015625 -161.796875 130.578125 -161.546875 C 133.960938 -160.941406 138.703125 -160.425781 144.796875 -160 C 150.898438 -159.582031 157.785156 -158.921875 165.453125 -158.015625 C 173.117188 -157.109375 181.054688 -155.660156 189.265625 -153.671875 C 197.472656 -151.679688 205.46875 -148.8125 213.25 -145.0625 C 221.039062 -141.320312 228.046875 -136.375 234.265625 -130.21875 C 240.484375 -124.0625 245.429688 -116.394531 249.109375 -107.21875 C 252.796875 -98.039062 254.640625 -87.050781 254.640625 -74.25 L 254.640625 -73.34375 C 254.160156 -59.582031 250.867188 -47.628906 244.765625 -37.484375 C 238.671875 -27.347656 230.28125 -18.925781 219.59375 -12.21875 C 208.914062 -5.519531 196.421875 -0.539062 182.109375 2.71875 C 167.796875 5.976562 152.191406 7.609375 135.296875 7.609375 Z M 135.296875 7.609375 "/></g></g><g transform="translate(259.00206, 290.02415)"><g><path d="M 4.703125 0 L 4.703125 -246.3125 L 136.734375 -246.3125 C 160.398438 -246.3125 180.472656 -245.039062 196.953125 -242.5 C 213.441406 -239.96875 226.753906 -235.984375 236.890625 -230.546875 C 247.035156 -225.117188 254.429688 -218.023438 259.078125 -209.265625 C 263.734375 -200.515625 266.0625 -189.863281 266.0625 -177.3125 L 266.0625 -175.140625 C 266.0625 -167.171875 265.210938 -159.773438 263.515625 -152.953125 C 261.828125 -146.128906 258.898438 -140.148438 254.734375 -135.015625 C 250.566406 -129.890625 244.742188 -125.9375 237.265625 -123.15625 C 248.367188 -119.050781 256.546875 -112.316406 261.796875 -102.953125 C 267.046875 -93.597656 269.671875 -83.003906 269.671875 -71.171875 L 269.671875 -69 C 269.671875 -56.445312 267.347656 -45.789062 262.703125 -37.03125 C 258.054688 -28.28125 250.660156 -21.1875 240.515625 -15.75 C 230.378906 -10.320312 217.066406 -6.335938 200.578125 -3.796875 C 184.097656 -1.265625 164.023438 0 140.359375 0 Z M 131.125 -152.671875 L 134.9375 -152.671875 C 137.59375 -152.671875 139.367188 -153.304688 140.265625 -154.578125 C 141.171875 -155.847656 141.625 -158.535156 141.625 -162.640625 L 141.625 -162.828125 C 141.625 -167.046875 141.203125 -169.878906 140.359375 -171.328125 C 139.515625 -172.773438 137.460938 -173.5 134.203125 -173.5 L 131.125 -173.5 Z M 131.125 -72.8125 L 134.203125 -72.8125 C 137.460938 -72.8125 139.515625 -73.535156 140.359375 -74.984375 C 141.203125 -76.429688 141.625 -79.269531 141.625 -83.5 L 141.625 -83.671875 C 141.625 -87.773438 141.171875 -90.460938 140.265625 -91.734375 C 139.367188 -93.003906 137.59375 -93.640625 134.9375 -93.640625 L 131.125 -93.640625 Z M 131.125 -72.8125 "/></g></g><g transform="translate(532.11778, 290.02415)"><g><path d="M 63.75 7.78125 C 48.289062 7.78125 36.09375 6.390625 27.15625 3.609375 C 18.226562 0.835938 11.890625 -3.832031 8.140625 -10.40625 C 4.398438 -16.988281 2.53125 -25.957031 2.53125 -37.3125 C 2.53125 -48.78125 4.398438 -57.773438 8.140625 -64.296875 C 11.890625 -70.816406 18.226562 -75.460938 27.15625 -78.234375 C 36.09375 -81.015625 48.351562 -82.40625 63.9375 -82.40625 C 79.507812 -82.40625 91.765625 -81.015625 100.703125 -78.234375 C 109.640625 -75.460938 115.976562 -70.816406 119.71875 -64.296875 C 123.457031 -57.773438 125.328125 -48.78125 125.328125 -37.3125 C 125.328125 -25.957031 123.425781 -16.988281 119.625 -10.40625 C 115.820312 -3.832031 109.453125 0.835938 100.515625 3.609375 C 91.578125 6.390625 79.320312 7.78125 63.75 7.78125 Z M 63.75 7.78125 "/></g></g></g></g></g></svg>