<svg xmlns="http://www.w3.org/2000/svg" xmlns:xlink="http://www.w3.org/1999/xlink" width="2000" zoomAndPan="magnify" viewBox="0 0 1500 1499.999933" height="2000" preserveAspectRatio="xMidYMid meet" version="1.0"><defs><clipPath id="923d25ef56"><path d="M 204.167969 172.675781 L 1295.832031 172.675781 L 1295.832031 1322 L 204.167969 1322 Z M 204.167969 172.675781 " clip-rule="nonzero"/></clipPath><clipPath id="fc85c379ca"><path d="M 750 172.675781 L 791.988281 615.640625 L 1087.996094 281.84375 L 861.265625 666.027344 L 1295.832031 569.457031 L 886.457031 745.800781 L 1295.832031 924.246094 L 861.265625 827.675781 L 1087.996094 1211.859375 L 791.988281 875.960938 L 750 1321.023438 L 708.011719 875.960938 L 412.003906 1211.859375 L 638.734375 827.675781 L 204.167969 924.246094 L 613.542969 745.800781 L 204.167969 569.457031 L 638.734375 666.027344 L 412.003906 281.84375 L 708.011719 615.640625 Z M 750 172.675781 " clip-rule="nonzero"/></clipPath><clipPath id="675c5f23c6"><path d="M 0.167969 0.675781 L 1091.832031 0.675781 L 1091.832031 1149.199219 L 0.167969 1149.199219 Z M 0.167969 0.675781 " clip-rule="nonzero"/></clipPath><clipPath id="0fa697180d"><path d="M 546 0.675781 L 587.988281 443.640625 L 883.996094 109.84375 L 657.265625 494.027344 L 1091.832031 397.457031 L 682.457031 573.800781 L 1091.832031 752.246094 L 657.265625 655.675781 L 883.996094 1039.859375 L 587.988281 703.960938 L 546 1149.023438 L 504.011719 703.960938 L 208.003906 1039.859375 L 434.734375 655.675781 L 0.167969 752.246094 L 409.542969 573.800781 L 0.167969 397.457031 L 434.734375 494.027344 L 208.003906 109.84375 L 504.011719 443.640625 Z M 546 0.675781 " clip-rule="nonzero"/></clipPath><clipPath id="3ba000adbd"><rect x="0" width="1092" y="0" height="1150"/></clipPath></defs><g clip-path="url(#923d25ef56)"><g clip-path="url(#fc85c379ca)"><g transform="matrix(1, 0, 0, 1, 204, 172)"><g clip-path="url(#3ba000adbd)"><g clip-path="url(#675c5f23c6)"><g clip-path="url(#0fa697180d)"><path fill="#000000" d="M 0.167969 0.675781 L 1091.832031 0.675781 L 1091.832031 1156.304688 L 0.167969 1156.304688 Z M 0.167969 0.675781 " fill-opacity="1" fill-rule="nonzero"/></g></g></g></g></g></g></svg>