<svg xmlns="http://www.w3.org/2000/svg" xmlns:xlink="http://www.w3.org/1999/xlink" width="2000" zoomAndPan="magnify" viewBox="0 0 1500 1499.999933" height="2000" preserveAspectRatio="xMidYMid meet" version="1.0"><defs><g/><clipPath id="d55d5085d1"><rect x="0" width="1500" y="0" height="318"/></clipPath></defs><g transform="matrix(1, 0, 0, 1, 0, 605)"><g clip-path="url(#d55d5085d1)"><g fill="#000000" fill-opacity="1"><g transform="translate(0.0430096, 251.265435)"><g><path d="M 30.40625 0 L 30.40625 -123.59375 L 7.890625 -123.59375 L 7.890625 -142.421875 L 30.40625 -142.421875 L 30.40625 -157.03125 C 30.40625 -172.289062 34.484375 -184.085938 42.640625 -192.421875 C 50.804688 -200.765625 62.347656 -204.9375 77.265625 -204.9375 C 82.878906 -204.9375 88.453125 -204.191406 93.984375 -202.703125 L 92.65625 -182.953125 C 88.53125 -183.742188 84.144531 -184.140625 79.5 -184.140625 C 71.601562 -184.140625 65.503906 -181.832031 61.203125 -177.21875 C 56.898438 -172.613281 54.75 -166.015625 54.75 -157.421875 L 54.75 -142.421875 L 85.15625 -142.421875 L 85.15625 -123.59375 L 54.75 -123.59375 L 54.75 0 Z M 30.40625 0 "/></g></g></g><g fill="#000000" fill-opacity="1"><g transform="translate(93.621096, 251.265435)"><g><path d="M 44.890625 0 L 20.53125 0 L 20.53125 -202.171875 L 44.890625 -202.171875 Z M 44.890625 0 "/></g></g></g><g fill="#000000" fill-opacity="1"><g transform="translate(159.033625, 251.265435)"><g><path d="M 11.984375 -72.53125 C 11.984375 -86.476562 14.722656 -99.023438 20.203125 -110.171875 C 25.691406 -121.316406 33.328125 -129.914062 43.109375 -135.96875 C 52.890625 -142.019531 64.054688 -145.046875 76.609375 -145.046875 C 95.992188 -145.046875 111.675781 -138.332031 123.65625 -124.90625 C 135.632812 -111.476562 141.625 -93.625 141.625 -71.34375 L 141.625 -69.625 C 141.625 -55.757812 138.96875 -43.320312 133.65625 -32.3125 C 128.351562 -21.300781 120.765625 -12.722656 110.890625 -6.578125 C 101.015625 -0.441406 89.675781 2.625 76.875 2.625 C 57.5625 2.625 41.914062 -4.082031 29.9375 -17.5 C 17.96875 -30.925781 11.984375 -48.695312 11.984375 -70.8125 Z M 36.453125 -69.625 C 36.453125 -53.832031 40.113281 -41.15625 47.4375 -31.59375 C 54.769531 -22.03125 64.582031 -17.25 76.875 -17.25 C 89.238281 -17.25 99.0625 -22.09375 106.34375 -31.78125 C 113.632812 -41.476562 117.28125 -55.0625 117.28125 -72.53125 C 117.28125 -88.144531 113.570312 -100.800781 106.15625 -110.5 C 98.738281 -120.195312 88.890625 -125.046875 76.609375 -125.046875 C 64.585938 -125.046875 54.890625 -120.257812 47.515625 -110.6875 C 40.140625 -101.125 36.453125 -87.4375 36.453125 -69.625 Z M 36.453125 -69.625 "/></g></g></g><g fill="#000000" fill-opacity="1"><g transform="translate(312.759651, 251.265435)"><g><path d="M 87.265625 -120.5625 C 83.578125 -121.175781 79.582031 -121.484375 75.28125 -121.484375 C 59.3125 -121.484375 48.476562 -114.6875 42.78125 -101.09375 L 42.78125 0 L 18.421875 0 L 18.421875 -142.421875 L 42.125 -142.421875 L 42.515625 -125.96875 C 50.492188 -138.6875 61.8125 -145.046875 76.46875 -145.046875 C 81.207031 -145.046875 84.804688 -144.429688 87.265625 -143.203125 Z M 87.265625 -120.5625 "/></g></g></g><g fill="#000000" fill-opacity="1"><g transform="translate(401.467866, 251.265435)"><g><path d="M 77.53125 2.625 C 58.21875 2.625 42.503906 -3.710938 30.390625 -16.390625 C 18.285156 -29.066406 12.234375 -46.023438 12.234375 -67.265625 L 12.234375 -71.734375 C 12.234375 -85.859375 14.929688 -98.46875 20.328125 -109.5625 C 25.734375 -120.664062 33.28125 -129.351562 42.96875 -135.625 C 52.664062 -141.90625 63.175781 -145.046875 74.5 -145.046875 C 93.007812 -145.046875 107.394531 -138.945312 117.65625 -126.75 C 127.925781 -114.550781 133.0625 -97.085938 133.0625 -74.359375 L 133.0625 -64.234375 L 36.59375 -64.234375 C 36.945312 -50.191406 41.046875 -38.847656 48.890625 -30.203125 C 56.742188 -21.566406 66.726562 -17.25 78.84375 -17.25 C 87.4375 -17.25 94.71875 -19 100.6875 -22.5 C 106.65625 -26.007812 111.878906 -30.660156 116.359375 -36.453125 L 131.234375 -24.875 C 119.296875 -6.539062 101.394531 2.625 77.53125 2.625 Z M 74.5 -125.046875 C 64.664062 -125.046875 56.414062 -121.46875 49.75 -114.3125 C 43.082031 -107.164062 38.957031 -97.140625 37.375 -84.234375 L 108.71875 -84.234375 L 108.71875 -86.078125 C 108.019531 -98.453125 104.6875 -108.039062 98.71875 -114.84375 C 92.75 -121.644531 84.675781 -125.046875 74.5 -125.046875 Z M 74.5 -125.046875 "/></g></g></g><g fill="#000000" fill-opacity="1"><g transform="translate(544.269868, 251.265435)"><g><path d="M 106.34375 0 C 104.945312 -2.8125 103.804688 -7.8125 102.921875 -15 C 91.609375 -3.25 78.097656 2.625 62.390625 2.625 C 48.347656 2.625 36.828125 -1.34375 27.828125 -9.28125 C 18.835938 -17.21875 14.34375 -27.285156 14.34375 -39.484375 C 14.34375 -54.316406 19.976562 -65.832031 31.25 -74.03125 C 42.53125 -82.238281 58.394531 -86.34375 78.84375 -86.34375 L 102.53125 -86.34375 L 102.53125 -97.53125 C 102.53125 -106.039062 99.984375 -112.816406 94.890625 -117.859375 C 89.804688 -122.910156 82.304688 -125.4375 72.390625 -125.4375 C 63.703125 -125.4375 56.414062 -123.242188 50.53125 -118.859375 C 44.65625 -114.472656 41.71875 -109.160156 41.71875 -102.921875 L 17.25 -102.921875 C 17.25 -110.035156 19.769531 -116.90625 24.8125 -123.53125 C 29.851562 -130.15625 36.695312 -135.394531 45.34375 -139.25 C 53.988281 -143.113281 63.488281 -145.046875 73.84375 -145.046875 C 90.25 -145.046875 103.101562 -140.941406 112.40625 -132.734375 C 121.707031 -124.535156 126.535156 -113.238281 126.890625 -98.84375 L 126.890625 -33.296875 C 126.890625 -20.222656 128.554688 -9.828125 131.890625 -2.109375 L 131.890625 0 Z M 65.9375 -18.5625 C 73.570312 -18.5625 80.8125 -20.535156 87.65625 -24.484375 C 94.5 -28.429688 99.457031 -33.5625 102.53125 -39.875 L 102.53125 -69.109375 L 83.453125 -69.109375 C 53.617188 -69.109375 38.703125 -60.375 38.703125 -42.90625 C 38.703125 -35.269531 41.242188 -29.300781 46.328125 -25 C 51.421875 -20.707031 57.957031 -18.5625 65.9375 -18.5625 Z M 65.9375 -18.5625 "/></g></g></g><g fill="#000000" fill-opacity="1"><g transform="translate(690.888697, 251.265435)"><g/></g></g><g fill="#000000" fill-opacity="1"><g transform="translate(757.617333, 251.265435)"><g><path d="M 106.34375 0 C 104.945312 -2.8125 103.804688 -7.8125 102.921875 -15 C 91.609375 -3.25 78.097656 2.625 62.390625 2.625 C 48.347656 2.625 36.828125 -1.34375 27.828125 -9.28125 C 18.835938 -17.21875 14.34375 -27.285156 14.34375 -39.484375 C 14.34375 -54.316406 19.976562 -65.832031 31.25 -74.03125 C 42.53125 -82.238281 58.394531 -86.34375 78.84375 -86.34375 L 102.53125 -86.34375 L 102.53125 -97.53125 C 102.53125 -106.039062 99.984375 -112.816406 94.890625 -117.859375 C 89.804688 -122.910156 82.304688 -125.4375 72.390625 -125.4375 C 63.703125 -125.4375 56.414062 -123.242188 50.53125 -118.859375 C 44.65625 -114.472656 41.71875 -109.160156 41.71875 -102.921875 L 17.25 -102.921875 C 17.25 -110.035156 19.769531 -116.90625 24.8125 -123.53125 C 29.851562 -130.15625 36.695312 -135.394531 45.34375 -139.25 C 53.988281 -143.113281 63.488281 -145.046875 73.84375 -145.046875 C 90.25 -145.046875 103.101562 -140.941406 112.40625 -132.734375 C 121.707031 -124.535156 126.535156 -113.238281 126.890625 -98.84375 L 126.890625 -33.296875 C 126.890625 -20.222656 128.554688 -9.828125 131.890625 -2.109375 L 131.890625 0 Z M 65.9375 -18.5625 C 73.570312 -18.5625 80.8125 -20.535156 87.65625 -24.484375 C 94.5 -28.429688 99.457031 -33.5625 102.53125 -39.875 L 102.53125 -69.109375 L 83.453125 -69.109375 C 53.617188 -69.109375 38.703125 -60.375 38.703125 -42.90625 C 38.703125 -35.269531 41.242188 -29.300781 46.328125 -25 C 51.421875 -20.707031 57.957031 -18.5625 65.9375 -18.5625 Z M 65.9375 -18.5625 "/></g></g></g><g fill="#000000" fill-opacity="1"><g transform="translate(904.236162, 251.265435)"><g><path d="M 51.46875 -176.90625 L 51.46875 -142.421875 L 78.046875 -142.421875 L 78.046875 -123.59375 L 51.46875 -123.59375 L 51.46875 -35.28125 C 51.46875 -29.570312 52.648438 -25.289062 55.015625 -22.4375 C 57.390625 -19.582031 61.425781 -18.15625 67.125 -18.15625 C 69.9375 -18.15625 73.796875 -18.6875 78.703125 -19.75 L 78.703125 0 C 72.304688 1.75 66.078125 2.625 60.015625 2.625 C 49.140625 2.625 40.9375 -0.660156 35.40625 -7.234375 C 29.875 -13.816406 27.109375 -23.164062 27.109375 -35.28125 L 27.109375 -123.59375 L 1.1875 -123.59375 L 1.1875 -142.421875 L 27.109375 -142.421875 L 27.109375 -176.90625 Z M 51.46875 -176.90625 "/></g></g></g><g fill="#000000" fill-opacity="1"><g transform="translate(992.286429, 251.265435)"><g><path d="M 77.53125 2.625 C 58.21875 2.625 42.503906 -3.710938 30.390625 -16.390625 C 18.285156 -29.066406 12.234375 -46.023438 12.234375 -67.265625 L 12.234375 -71.734375 C 12.234375 -85.859375 14.929688 -98.46875 20.328125 -109.5625 C 25.734375 -120.664062 33.28125 -129.351562 42.96875 -135.625 C 52.664062 -141.90625 63.175781 -145.046875 74.5 -145.046875 C 93.007812 -145.046875 107.394531 -138.945312 117.65625 -126.75 C 127.925781 -114.550781 133.0625 -97.085938 133.0625 -74.359375 L 133.0625 -64.234375 L 36.59375 -64.234375 C 36.945312 -50.191406 41.046875 -38.847656 48.890625 -30.203125 C 56.742188 -21.566406 66.726562 -17.25 78.84375 -17.25 C 87.4375 -17.25 94.71875 -19 100.6875 -22.5 C 106.65625 -26.007812 111.878906 -30.660156 116.359375 -36.453125 L 131.234375 -24.875 C 119.296875 -6.539062 101.394531 2.625 77.53125 2.625 Z M 74.5 -125.046875 C 64.664062 -125.046875 56.414062 -121.46875 49.75 -114.3125 C 43.082031 -107.164062 38.957031 -97.140625 37.375 -84.234375 L 108.71875 -84.234375 L 108.71875 -86.078125 C 108.019531 -98.453125 104.6875 -108.039062 98.71875 -114.84375 C 92.75 -121.644531 84.675781 -125.046875 74.5 -125.046875 Z M 74.5 -125.046875 "/></g></g></g><g fill="#000000" fill-opacity="1"><g transform="translate(1135.088431, 251.265435)"><g><path d="M 44.890625 0 L 20.53125 0 L 20.53125 -202.171875 L 44.890625 -202.171875 Z M 44.890625 0 "/></g></g></g><g fill="#000000" fill-opacity="1"><g transform="translate(1200.500961, 251.265435)"><g><path d="M 44.890625 0 L 20.53125 0 L 20.53125 -142.421875 L 44.890625 -142.421875 Z M 18.5625 -180.1875 C 18.5625 -184.132812 19.765625 -187.46875 22.171875 -190.1875 C 24.585938 -192.914062 28.164062 -194.28125 32.90625 -194.28125 C 37.644531 -194.28125 41.242188 -192.914062 43.703125 -190.1875 C 46.160156 -187.46875 47.390625 -184.132812 47.390625 -180.1875 C 47.390625 -176.238281 46.160156 -172.945312 43.703125 -170.3125 C 41.242188 -167.6875 37.644531 -166.375 32.90625 -166.375 C 28.164062 -166.375 24.585938 -167.6875 22.171875 -170.3125 C 19.765625 -172.945312 18.5625 -176.238281 18.5625 -180.1875 Z M 18.5625 -180.1875 "/></g></g></g><g fill="#000000" fill-opacity="1"><g transform="translate(1265.913491, 251.265435)"><g><path d="M 77.53125 2.625 C 58.21875 2.625 42.503906 -3.710938 30.390625 -16.390625 C 18.285156 -29.066406 12.234375 -46.023438 12.234375 -67.265625 L 12.234375 -71.734375 C 12.234375 -85.859375 14.929688 -98.46875 20.328125 -109.5625 C 25.734375 -120.664062 33.28125 -129.351562 42.96875 -135.625 C 52.664062 -141.90625 63.175781 -145.046875 74.5 -145.046875 C 93.007812 -145.046875 107.394531 -138.945312 117.65625 -126.75 C 127.925781 -114.550781 133.0625 -97.085938 133.0625 -74.359375 L 133.0625 -64.234375 L 36.59375 -64.234375 C 36.945312 -50.191406 41.046875 -38.847656 48.890625 -30.203125 C 56.742188 -21.566406 66.726562 -17.25 78.84375 -17.25 C 87.4375 -17.25 94.71875 -19 100.6875 -22.5 C 106.65625 -26.007812 111.878906 -30.660156 116.359375 -36.453125 L 131.234375 -24.875 C 119.296875 -6.539062 101.394531 2.625 77.53125 2.625 Z M 74.5 -125.046875 C 64.664062 -125.046875 56.414062 -121.46875 49.75 -114.3125 C 43.082031 -107.164062 38.957031 -97.140625 37.375 -84.234375 L 108.71875 -84.234375 L 108.71875 -86.078125 C 108.019531 -98.453125 104.6875 -108.039062 98.71875 -114.84375 C 92.75 -121.644531 84.675781 -125.046875 74.5 -125.046875 Z M 74.5 -125.046875 "/></g></g></g><g fill="#000000" fill-opacity="1"><g transform="translate(1408.715493, 251.265435)"><g><path d="M 87.265625 -120.5625 C 83.578125 -121.175781 79.582031 -121.484375 75.28125 -121.484375 C 59.3125 -121.484375 48.476562 -114.6875 42.78125 -101.09375 L 42.78125 0 L 18.421875 0 L 18.421875 -142.421875 L 42.125 -142.421875 L 42.515625 -125.96875 C 50.492188 -138.6875 61.8125 -145.046875 76.46875 -145.046875 C 81.207031 -145.046875 84.804688 -144.429688 87.265625 -143.203125 Z M 87.265625 -120.5625 "/></g></g></g></g></g></svg>