<svg xmlns="http://www.w3.org/2000/svg" xmlns:xlink="http://www.w3.org/1999/xlink" width="2000" zoomAndPan="magnify" viewBox="0 0 1500 1499.999933" height="2000" preserveAspectRatio="xMidYMid meet" version="1.0"><defs><g/><clipPath id="dc95c162f2"><path d="M 521 0.078125 L 625 0.078125 L 625 112 L 521 112 Z M 521 0.078125 " clip-rule="nonzero"/></clipPath><clipPath id="00b01b455a"><rect x="0" width="1260" y="0" height="356"/></clipPath></defs><g transform="matrix(1, 0, 0, 1, 154, 574)"><g clip-path="url(#00b01b455a)"><g fill="#d9d9d9" fill-opacity="1"><g transform="translate(75.229367, 337.193821)"><g><path d="M 19.765625 -131.359375 C 22.503906 -128.140625 23.546875 -125.21875 22.890625 -122.59375 C 22.242188 -119.976562 20.429688 -117.394531 17.453125 -114.84375 C 15.910156 -113.53125 14.328125 -112.253906 12.703125 -111.015625 C 11.078125 -109.773438 9.492188 -108.492188 7.953125 -107.171875 C 6.753906 -106.148438 5.625 -105.082031 4.5625 -103.96875 C 3.507812 -102.863281 2.648438 -101.617188 1.984375 -100.234375 C 5.128906 -93.640625 8.242188 -87.125 11.328125 -80.6875 C 14.410156 -74.25 17.472656 -67.742188 20.515625 -61.171875 C 21.941406 -58.054688 23.554688 -55.023438 25.359375 -52.078125 C 27.160156 -49.140625 28.921875 -46.1875 30.640625 -43.21875 C 31.660156 -41.40625 32.648438 -39.570312 33.609375 -37.71875 C 34.578125 -35.875 35.347656 -33.957031 35.921875 -31.96875 C 36.628906 -29.46875 36.78125 -27.09375 36.375 -24.84375 C 35.976562 -22.59375 34.765625 -20.601562 32.734375 -18.875 C 31.722656 -18.007812 30.546875 -17.335938 29.203125 -16.859375 C 27.859375 -16.378906 26.503906 -16.148438 25.140625 -16.171875 C 23.773438 -16.203125 22.460938 -16.472656 21.203125 -16.984375 C 19.941406 -17.503906 18.851562 -18.300781 17.9375 -19.375 C 16.71875 -20.800781 15.59375 -22.59375 14.5625 -24.75 C 13.53125 -26.914062 12.554688 -29.226562 11.640625 -31.6875 C 10.722656 -34.144531 9.828125 -36.578125 8.953125 -38.984375 C 8.085938 -41.390625 7.257812 -43.484375 6.46875 -45.265625 C 3.269531 -52.128906 -0.0390625 -58.863281 -3.46875 -65.46875 C -6.90625 -72.070312 -10.335938 -78.757812 -13.765625 -85.53125 C -16.378906 -83.289062 -18.847656 -80.96875 -21.171875 -78.5625 C -23.503906 -76.15625 -25.984375 -73.832031 -28.609375 -71.59375 C -30.335938 -70.113281 -31.941406 -68.945312 -33.421875 -68.09375 C -34.898438 -67.238281 -36.347656 -66.765625 -37.765625 -66.671875 C -39.191406 -66.585938 -40.625 -66.9375 -42.0625 -67.71875 C -43.507812 -68.507812 -45.050781 -69.859375 -46.6875 -71.765625 C -48.71875 -74.148438 -49.515625 -76.53125 -49.078125 -78.90625 C -48.640625 -81.28125 -47.597656 -83.585938 -45.953125 -85.828125 C -44.304688 -88.066406 -42.363281 -90.140625 -40.125 -92.046875 C -37.894531 -93.953125 -35.976562 -95.59375 -34.375 -96.96875 C -28.59375 -101.914062 -23.015625 -106.972656 -17.640625 -112.140625 C -12.265625 -117.304688 -6.894531 -122.59375 -1.53125 -128 C -1.039062 -128.519531 -0.523438 -129.035156 0.015625 -129.546875 C 0.566406 -130.066406 1.109375 -130.554688 1.640625 -131.015625 C 2.953125 -132.140625 4.394531 -133.066406 5.96875 -133.796875 C 7.550781 -134.535156 9.15625 -134.953125 10.78125 -135.046875 C 12.40625 -135.140625 14 -134.90625 15.5625 -134.34375 C 17.132812 -133.78125 18.535156 -132.785156 19.765625 -131.359375 Z M 19.765625 -131.359375 "/></g></g></g><g fill="#d9d9d9" fill-opacity="1"><g transform="translate(135.7484, 284.633369)"><g><path d="M 28.609375 -129.21875 C 29.503906 -127.925781 30.285156 -126.390625 30.953125 -124.609375 C 31.617188 -122.828125 32.210938 -120.972656 32.734375 -119.046875 C 33.253906 -117.117188 33.738281 -115.210938 34.1875 -113.328125 C 34.644531 -111.453125 35.109375 -109.769531 35.578125 -108.28125 C 38.359375 -100.007812 41.363281 -91.65625 44.59375 -83.21875 C 47.832031 -74.78125 51.148438 -66.535156 54.546875 -58.484375 C 55.003906 -57.285156 55.582031 -56.113281 56.28125 -54.96875 C 56.976562 -53.832031 57.707031 -52.71875 58.46875 -51.625 C 60.613281 -48.53125 61.394531 -45.398438 60.8125 -42.234375 C 60.238281 -39.078125 58.410156 -36.425781 55.328125 -34.28125 C 53.003906 -32.664062 50.613281 -32.050781 48.15625 -32.4375 C 45.695312 -32.832031 43.640625 -34.21875 41.984375 -36.59375 C 41.046875 -37.945312 40.160156 -39.597656 39.328125 -41.546875 C 38.492188 -43.503906 37.707031 -45.5625 36.96875 -47.71875 C 36.238281 -49.875 35.535156 -51.984375 34.859375 -54.046875 C 34.191406 -56.117188 33.5625 -58 32.96875 -59.6875 C 32.664062 -59.5625 32.382812 -59.410156 32.125 -59.234375 C 31.875 -59.054688 31.617188 -58.878906 31.359375 -58.703125 C 27.242188 -55.835938 23.3125 -52.769531 19.5625 -49.5 C 15.820312 -46.238281 11.894531 -43.179688 7.78125 -40.328125 C 7.070312 -39.835938 6.378906 -39.359375 5.703125 -38.890625 C 5.023438 -38.421875 4.3125 -37.96875 3.5625 -37.53125 C 4.28125 -34.695312 5.410156 -31.765625 6.953125 -28.734375 C 7.816406 -26.941406 8.863281 -24.875 10.09375 -22.53125 C 11.332031 -20.195312 12.3125 -17.828125 13.03125 -15.421875 C 13.757812 -13.015625 13.945312 -10.6875 13.59375 -8.4375 C 13.25 -6.195312 11.945312 -4.289062 9.6875 -2.71875 C 8.46875 -1.875 7.140625 -1.285156 5.703125 -0.953125 C 4.265625 -0.628906 2.84375 -0.550781 1.4375 -0.71875 C 0.03125 -0.882812 -1.304688 -1.335938 -2.578125 -2.078125 C -3.859375 -2.816406 -4.941406 -3.828125 -5.828125 -5.109375 C -6.816406 -6.523438 -7.628906 -8.109375 -8.265625 -9.859375 C -8.910156 -11.609375 -9.472656 -13.410156 -9.953125 -15.265625 C -10.441406 -17.128906 -10.867188 -18.976562 -11.234375 -20.8125 C -11.609375 -22.65625 -12.039062 -24.40625 -12.53125 -26.0625 C -13.863281 -30.59375 -15.34375 -35.03125 -16.96875 -39.375 C -18.601562 -43.726562 -20.3125 -48.078125 -22.09375 -52.421875 C -23.875 -56.765625 -25.625 -61.101562 -27.34375 -65.4375 C -29.070312 -69.78125 -30.664062 -74.164062 -32.125 -78.59375 C -32.601562 -79.96875 -33.054688 -81.582031 -33.484375 -83.4375 C -33.910156 -85.289062 -34.113281 -87.128906 -34.09375 -88.953125 C -34.070312 -90.773438 -33.785156 -92.5 -33.234375 -94.125 C -32.679688 -95.75 -31.664062 -97.070312 -30.1875 -98.09375 C -28.96875 -98.945312 -27.65625 -99.59375 -26.25 -100.03125 C -24.851562 -100.476562 -23.472656 -100.648438 -22.109375 -100.546875 C -20.753906 -100.453125 -19.472656 -100.085938 -18.265625 -99.453125 C -17.054688 -98.816406 -15.984375 -97.820312 -15.046875 -96.46875 C -13.390625 -94.082031 -12.347656 -91.414062 -11.921875 -88.46875 C -11.523438 -85.6875 -11.128906 -83.117188 -10.734375 -80.765625 C -10.347656 -78.421875 -9.882812 -76.144531 -9.34375 -73.9375 C -8.8125 -71.726562 -8.164062 -69.523438 -7.40625 -67.328125 C -6.644531 -65.140625 -5.65625 -62.753906 -4.4375 -60.171875 C 0.402344 -63.628906 5.285156 -67.140625 10.203125 -70.703125 C 15.128906 -74.265625 19.5625 -78.375 23.5 -83.03125 C 22.550781 -87.125 21.34375 -91.117188 19.875 -95.015625 C 18.40625 -98.921875 16.8125 -102.800781 15.09375 -106.65625 C 14.382812 -108.351562 13.582031 -110.015625 12.6875 -111.640625 C 11.800781 -113.265625 11.097656 -115 10.578125 -116.84375 C 10.253906 -117.851562 10.0625 -119.023438 10 -120.359375 C 9.9375 -121.691406 10.019531 -123.015625 10.25 -124.328125 C 10.488281 -125.640625 10.890625 -126.847656 11.453125 -127.953125 C 12.023438 -129.054688 12.820312 -129.96875 13.84375 -130.6875 C 15.007812 -131.488281 16.285156 -132.085938 17.671875 -132.484375 C 19.066406 -132.890625 20.441406 -133.035156 21.796875 -132.921875 C 23.160156 -132.816406 24.4375 -132.460938 25.625 -131.859375 C 26.8125 -131.253906 27.804688 -130.375 28.609375 -129.21875 Z M 28.609375 -129.21875 "/></g></g></g><g fill="#d9d9d9" fill-opacity="1"><g transform="translate(203.5863, 237.007993)"><g><path d="M 39.15625 -125.21875 C 40.9375 -122.007812 41.296875 -118.9375 40.234375 -116 C 39.179688 -113.070312 37.113281 -110.753906 34.03125 -109.046875 C 31.5625 -107.671875 28.972656 -106.632812 26.265625 -105.9375 C 23.566406 -105.25 20.984375 -104.21875 18.515625 -102.84375 C 14.617188 -100.675781 10.554688 -98.101562 6.328125 -95.125 C 2.109375 -92.144531 -1.742188 -89.195312 -5.234375 -86.28125 C -4.273438 -82.5 -3.410156 -78.738281 -2.640625 -75 C -1.867188 -71.257812 -0.976562 -67.515625 0.03125 -63.765625 C 4.832031 -66.890625 9.941406 -70.273438 15.359375 -73.921875 C 20.785156 -77.566406 25.992188 -80.773438 30.984375 -83.546875 C 32.015625 -84.117188 33.304688 -84.703125 34.859375 -85.296875 C 36.410156 -85.898438 37.992188 -86.3125 39.609375 -86.53125 C 41.234375 -86.757812 42.757812 -86.6875 44.1875 -86.3125 C 45.613281 -85.945312 46.691406 -85.113281 47.421875 -83.8125 C 51.828125 -75.875 50.054688 -69.691406 42.109375 -65.265625 C 40.734375 -64.503906 39.320312 -63.851562 37.875 -63.3125 C 36.4375 -62.769531 35.035156 -62.117188 33.671875 -61.359375 C 31.335938 -60.066406 28.929688 -58.617188 26.453125 -57.015625 C 23.984375 -55.421875 21.546875 -53.753906 19.140625 -52.015625 C 16.742188 -50.273438 14.40625 -48.476562 12.125 -46.625 C 9.84375 -44.78125 7.738281 -42.914062 5.8125 -41.03125 C 6.488281 -38.539062 7.210938 -36.070312 7.984375 -33.625 C 8.753906 -31.1875 9.507812 -28.742188 10.25 -26.296875 L 14.25 -28.515625 C 16.375 -29.691406 18.582031 -30.960938 20.875 -32.328125 C 23.175781 -33.691406 25.46875 -35.097656 27.75 -36.546875 C 30.039062 -38.003906 32.269531 -39.519531 34.4375 -41.09375 C 36.613281 -42.664062 38.617188 -44.222656 40.453125 -45.765625 C 41.660156 -46.804688 42.835938 -47.914062 43.984375 -49.09375 C 45.128906 -50.269531 46.421875 -51.253906 47.859375 -52.046875 C 50.660156 -53.609375 53.15625 -53.789062 55.34375 -52.59375 C 57.539062 -51.394531 59.347656 -49.523438 60.765625 -46.984375 C 62.054688 -44.648438 62.628906 -42.566406 62.484375 -40.734375 C 62.335938 -38.898438 61.734375 -37.242188 60.671875 -35.765625 C 59.617188 -34.285156 58.242188 -32.9375 56.546875 -31.71875 C 54.847656 -30.5 53.085938 -29.34375 51.265625 -28.25 C 49.046875 -26.925781 46.6875 -25.566406 44.1875 -24.171875 C 41.6875 -22.785156 39.210938 -21.347656 36.765625 -19.859375 C 34.328125 -18.367188 31.921875 -16.847656 29.546875 -15.296875 C 27.179688 -13.742188 24.984375 -12.140625 22.953125 -10.484375 C 21.234375 -9.066406 19.5 -7.671875 17.75 -6.296875 C 16 -4.921875 14.128906 -3.679688 12.140625 -2.578125 C 8.785156 -0.710938 5.390625 -0.125 1.953125 -0.8125 C -1.472656 -1.507812 -4.15625 -3.609375 -6.09375 -7.109375 C -7.15625 -9.015625 -7.804688 -11.023438 -8.046875 -13.140625 C -8.285156 -15.253906 -8.660156 -17.332031 -9.171875 -19.375 C -11.546875 -28.632812 -13.851562 -37.816406 -16.09375 -46.921875 C -18.34375 -56.035156 -20.710938 -65.1875 -23.203125 -74.375 C -23.773438 -76.675781 -24.535156 -78.925781 -25.484375 -81.125 C -26.429688 -83.320312 -27.125 -85.601562 -27.5625 -87.96875 C -27.9375 -90.445312 -27.832031 -92.613281 -27.25 -94.46875 C -26.675781 -96.320312 -25.390625 -98.023438 -23.390625 -99.578125 C -21.960938 -100.734375 -20.445312 -101.726562 -18.84375 -102.5625 C -17.25 -103.40625 -15.703125 -104.332031 -14.203125 -105.34375 C -8.835938 -109.050781 -3.105469 -112.757812 2.984375 -116.46875 C 9.085938 -120.175781 14.988281 -123.613281 20.6875 -126.78125 C 22.394531 -127.726562 24.097656 -128.609375 25.796875 -129.421875 C 27.492188 -130.242188 29.117188 -130.703125 30.671875 -130.796875 C 32.234375 -130.898438 33.726562 -130.546875 35.15625 -129.734375 C 36.59375 -128.921875 37.925781 -127.414062 39.15625 -125.21875 Z M 39.15625 -125.21875 "/></g></g></g><g fill="#d9d9d9" fill-opacity="1"><g transform="translate(272.829936, 198.831798)"><g/></g></g><g fill="#d9d9d9" fill-opacity="1"><g transform="translate(311.578655, 179.690959)"><g><path d="M 55.546875 -106.5625 C 55.898438 -105.601562 56.007812 -104.578125 55.875 -103.484375 C 55.738281 -102.398438 55.425781 -101.328125 54.9375 -100.265625 C 54.457031 -99.203125 53.828125 -98.253906 53.046875 -97.421875 C 52.265625 -96.585938 51.394531 -95.992188 50.4375 -95.640625 C 48.53125 -94.929688 46.613281 -94.578125 44.6875 -94.578125 C 42.769531 -94.578125 40.851562 -94.222656 38.9375 -93.515625 C 33.644531 -91.546875 28.804688 -88.640625 24.421875 -84.796875 C 20.046875 -80.960938 16.457031 -76.5625 13.65625 -71.59375 C 10.863281 -66.632812 9.09375 -61.328125 8.34375 -55.671875 C 7.59375 -50.015625 8.253906 -44.390625 10.328125 -38.796875 C 11.359375 -36.003906 12.703125 -33.847656 14.359375 -32.328125 C 16.015625 -30.804688 17.875 -29.78125 19.9375 -29.25 C 22.007812 -28.726562 24.21875 -28.628906 26.5625 -28.953125 C 28.914062 -29.273438 31.34375 -29.898438 33.84375 -30.828125 C 36.925781 -31.972656 39.863281 -33.394531 42.65625 -35.09375 C 45.457031 -36.800781 48.007812 -38.835938 50.3125 -41.203125 C 51.507812 -42.472656 52.71875 -43.644531 53.9375 -44.71875 C 55.15625 -45.800781 56.613281 -46.660156 58.3125 -47.296875 C 59.5625 -47.753906 60.828125 -48.054688 62.109375 -48.203125 C 63.398438 -48.347656 64.644531 -48.265625 65.84375 -47.953125 C 67.039062 -47.648438 68.101562 -47.082031 69.03125 -46.25 C 69.96875 -45.425781 70.695312 -44.316406 71.21875 -42.921875 C 72.632812 -39.109375 72.179688 -35.597656 69.859375 -32.390625 C 68.242188 -30.203125 66.421875 -28.125 64.390625 -26.15625 C 62.367188 -24.195312 60.1875 -22.363281 57.84375 -20.65625 C 55.507812 -18.957031 53.085938 -17.429688 50.578125 -16.078125 C 48.066406 -14.734375 45.5625 -13.597656 43.0625 -12.671875 C 37.625 -10.660156 32.03125 -9.40625 26.28125 -8.90625 C 20.53125 -8.414062 15.234375 -9.066406 10.390625 -10.859375 C 5.921875 -12.546875 2.101562 -15.242188 -1.0625 -18.953125 C -4.226562 -22.671875 -6.804688 -27.21875 -8.796875 -32.59375 C -10.265625 -36.5625 -11.203125 -40.664062 -11.609375 -44.90625 C -12.015625 -49.144531 -11.953125 -53.367188 -11.421875 -57.578125 C -10.890625 -61.785156 -9.957031 -65.925781 -8.625 -70 C -7.300781 -74.082031 -5.644531 -77.957031 -3.65625 -81.625 C -1.625 -85.382812 0.519531 -88.789062 2.78125 -91.84375 C 5.039062 -94.894531 7.488281 -97.640625 10.125 -100.078125 C 12.769531 -102.523438 15.703125 -104.757812 18.921875 -106.78125 C 22.140625 -108.8125 25.691406 -110.671875 29.578125 -112.359375 C 30.285156 -112.710938 31.007812 -113.023438 31.75 -113.296875 C 32.488281 -113.566406 33.222656 -113.84375 33.953125 -114.125 C 36.085938 -114.90625 38.242188 -115.382812 40.421875 -115.5625 C 42.609375 -115.75 44.675781 -115.578125 46.625 -115.046875 C 48.582031 -114.515625 50.335938 -113.554688 51.890625 -112.171875 C 53.453125 -110.785156 54.671875 -108.914062 55.546875 -106.5625 Z M 55.546875 -106.5625 "/></g></g></g><g fill="#d9d9d9" fill-opacity="1"><g transform="translate(388.021465, 150.728198)"><g><path d="M 79.5625 -26.59375 C 80.425781 -23.257812 80.085938 -20.257812 78.546875 -17.59375 C 77.015625 -14.9375 74.582031 -13.175781 71.25 -12.3125 C 68.8125 -11.6875 66.8125 -11.734375 65.25 -12.453125 C 63.6875 -13.179688 62.410156 -14.289062 61.421875 -15.78125 C 60.429688 -17.269531 59.628906 -18.96875 59.015625 -20.875 C 58.410156 -22.78125 57.878906 -24.601562 57.421875 -26.34375 C 57.328125 -26.71875 57.160156 -27.28125 56.921875 -28.03125 C 56.679688 -28.78125 56.488281 -29.296875 56.34375 -29.578125 C 53.5 -28.691406 50.71875 -27.796875 48 -26.890625 C 45.28125 -25.984375 42.476562 -25.15625 39.59375 -24.40625 C 35.71875 -23.40625 31.925781 -22.242188 28.21875 -20.921875 C 24.519531 -19.609375 20.8125 -18.148438 17.09375 -16.546875 C 16.175781 -14.453125 15.441406 -12.28125 14.890625 -10.03125 C 14.335938 -7.78125 13.382812 -5.675781 12.03125 -3.71875 C 11.0625 -2.164062 9.640625 -0.621094 7.765625 0.90625 C 5.890625 2.4375 4.039062 3.4375 2.21875 3.90625 C 0.769531 4.28125 -0.578125 4.304688 -1.828125 3.984375 C -3.085938 3.660156 -4.203125 3.097656 -5.171875 2.296875 C -6.140625 1.492188 -6.976562 0.496094 -7.6875 -0.6875 C -8.40625 -1.875 -8.929688 -3.113281 -9.265625 -4.40625 C -9.617188 -5.769531 -9.6875 -7.125 -9.46875 -8.46875 C -9.25 -9.820312 -8.878906 -11.132812 -8.359375 -12.40625 C -7.835938 -13.675781 -7.234375 -14.945312 -6.546875 -16.21875 C -5.859375 -17.488281 -5.265625 -18.710938 -4.765625 -19.890625 C -2.273438 -25.628906 0.21875 -31.332031 2.71875 -37 C 5.21875 -42.664062 7.65625 -48.429688 10.03125 -54.296875 C 11.738281 -58.628906 13.367188 -62.957031 14.921875 -67.28125 C 16.484375 -71.613281 17.976562 -76.023438 19.40625 -80.515625 C 20.820312 -84.753906 22.222656 -89.054688 23.609375 -93.421875 C 24.992188 -97.796875 26.695312 -102.019531 28.71875 -106.09375 C 29.4375 -107.65625 30.4375 -108.863281 31.71875 -109.71875 C 33 -110.582031 34.472656 -111.226562 36.140625 -111.65625 C 37.734375 -112.070312 39.390625 -112.238281 41.109375 -112.15625 C 42.828125 -112.070312 44.382812 -111.519531 45.78125 -110.5 C 47.675781 -109.132812 49.15625 -107.25 50.21875 -104.84375 C 51.28125 -102.445312 52.160156 -100.207031 52.859375 -98.125 C 53.566406 -96.039062 54.171875 -93.929688 54.671875 -91.796875 C 55.179688 -89.660156 55.863281 -87.566406 56.71875 -85.515625 C 59.238281 -79.203125 61.617188 -72.875 63.859375 -66.53125 C 66.109375 -60.195312 68.515625 -53.925781 71.078125 -47.71875 C 72.554688 -44.207031 74.097656 -40.738281 75.703125 -37.3125 C 77.316406 -33.882812 78.601562 -30.3125 79.5625 -26.59375 Z M 47.984375 -49.265625 C 46.597656 -53.367188 45.097656 -57.378906 43.484375 -61.296875 C 41.867188 -65.210938 40.078125 -69.097656 38.109375 -72.953125 C 35.304688 -67.546875 32.648438 -62.085938 30.140625 -56.578125 C 27.628906 -51.066406 25.296875 -45.445312 23.140625 -39.71875 C 27.429688 -40.976562 31.675781 -42.332031 35.875 -43.78125 C 40.070312 -45.226562 44.109375 -47.054688 47.984375 -49.265625 Z M 47.984375 -49.265625 "/></g></g></g><g fill="#d9d9d9" fill-opacity="1"><g transform="translate(469.584294, 129.488622)"><g><path d="M 68.515625 -19.859375 C 68.710938 -18.609375 68.628906 -17.378906 68.265625 -16.171875 C 67.898438 -14.972656 67.335938 -13.859375 66.578125 -12.828125 C 65.828125 -11.796875 64.910156 -10.9375 63.828125 -10.25 C 62.753906 -9.5625 61.59375 -9.117188 60.34375 -8.921875 C 59.039062 -8.710938 57.734375 -8.582031 56.421875 -8.53125 C 55.117188 -8.488281 53.804688 -8.363281 52.484375 -8.15625 C 46.992188 -7.289062 41.601562 -6.023438 36.3125 -4.359375 C 31.03125 -2.691406 25.640625 -1.421875 20.140625 -0.546875 C 18.585938 -0.304688 17.039062 -0.0429688 15.5 0.234375 C 13.96875 0.515625 12.425781 0.773438 10.875 1.015625 C 9.394531 1.253906 7.96875 1.140625 6.59375 0.671875 C 5.21875 0.210938 3.976562 -0.476562 2.875 -1.40625 C 1.769531 -2.34375 0.835938 -3.445312 0.078125 -4.71875 C -0.671875 -5.988281 -1.15625 -7.316406 -1.375 -8.703125 C -1.6875 -10.722656 -1.765625 -12.734375 -1.609375 -14.734375 C -1.453125 -16.742188 -1.195312 -18.75 -0.84375 -20.75 C -0.488281 -22.757812 -0.0898438 -24.765625 0.34375 -26.765625 C 0.789062 -28.773438 1.097656 -30.75 1.265625 -32.6875 C 2.066406 -40.1875 3.015625 -47.613281 4.109375 -54.96875 C 5.203125 -62.332031 6.191406 -69.769531 7.078125 -77.28125 C 7.390625 -79.789062 7.523438 -82.289062 7.484375 -84.78125 C 7.453125 -87.269531 7.601562 -89.773438 7.9375 -92.296875 C 8.488281 -96.742188 10.9375 -99.3125 15.28125 -100 C 16.664062 -100.21875 18.117188 -100.171875 19.640625 -99.859375 C 21.160156 -99.546875 22.535156 -99.007812 23.765625 -98.25 C 24.992188 -97.488281 26.0625 -96.503906 26.96875 -95.296875 C 27.875 -94.085938 28.441406 -92.75 28.671875 -91.28125 C 28.984375 -89.269531 28.9375 -87.28125 28.53125 -85.3125 C 28.132812 -83.351562 27.648438 -81.414062 27.078125 -79.5 C 26.648438 -78.144531 26.296875 -76.847656 26.015625 -75.609375 C 25.742188 -74.378906 25.484375 -73.078125 25.234375 -71.703125 C 24.160156 -65.816406 23.269531 -59.960938 22.5625 -54.140625 C 21.863281 -48.316406 21.226562 -42.457031 20.65625 -36.5625 C 20.40625 -34.070312 20.195312 -31.601562 20.03125 -29.15625 C 19.875 -26.71875 19.832031 -24.238281 19.90625 -21.71875 C 25.394531 -22.582031 30.753906 -23.78125 35.984375 -25.3125 C 41.222656 -26.851562 46.585938 -28.054688 52.078125 -28.921875 C 53.703125 -29.179688 55.421875 -29.195312 57.234375 -28.96875 C 59.054688 -28.738281 60.738281 -28.269531 62.28125 -27.5625 C 63.820312 -26.851562 65.171875 -25.851562 66.328125 -24.5625 C 67.492188 -23.28125 68.222656 -21.710938 68.515625 -19.859375 Z M 68.515625 -19.859375 "/></g></g></g><g fill="#d9d9d9" fill-opacity="1"><g transform="translate(539.980222, 117.720446)"><g><path d="M 89.09375 -96.296875 C 89.332031 -92.628906 88.34375 -89.703125 86.125 -87.515625 C 83.914062 -85.328125 81.050781 -84.117188 77.53125 -83.890625 C 74.71875 -83.710938 71.9375 -83.890625 69.1875 -84.421875 C 66.445312 -84.953125 63.664062 -85.125 60.84375 -84.9375 C 56.394531 -84.65625 51.625 -84.078125 46.53125 -83.203125 C 41.445312 -82.328125 36.703125 -81.316406 32.296875 -80.171875 C 31.535156 -76.347656 30.703125 -72.582031 29.796875 -68.875 C 28.890625 -65.164062 28.09375 -61.40625 27.40625 -57.59375 C 33.082031 -58.351562 39.144531 -59.210938 45.59375 -60.171875 C 52.050781 -61.128906 58.132812 -61.796875 63.84375 -62.171875 C 65.019531 -62.242188 66.4375 -62.210938 68.09375 -62.078125 C 69.75 -61.953125 71.359375 -61.644531 72.921875 -61.15625 C 74.484375 -60.675781 75.828125 -59.957031 76.953125 -59 C 78.078125 -58.050781 78.6875 -56.832031 78.78125 -55.34375 C 79.363281 -46.28125 75.117188 -41.457031 66.046875 -40.875 C 64.472656 -40.769531 62.914062 -40.785156 61.375 -40.921875 C 59.84375 -41.066406 58.296875 -41.085938 56.734375 -40.984375 C 54.078125 -40.816406 51.289062 -40.535156 48.375 -40.140625 C 45.457031 -39.753906 42.539062 -39.289062 39.625 -38.75 C 36.707031 -38.207031 33.816406 -37.59375 30.953125 -36.90625 C 28.097656 -36.226562 25.40625 -35.453125 22.875 -34.578125 C 22.40625 -32.023438 21.992188 -29.484375 21.640625 -26.953125 C 21.296875 -24.421875 20.929688 -21.882812 20.546875 -19.34375 L 25.125 -19.640625 C 27.539062 -19.796875 30.078125 -20 32.734375 -20.25 C 35.390625 -20.5 38.0625 -20.785156 40.75 -21.109375 C 43.4375 -21.441406 46.101562 -21.847656 48.75 -22.328125 C 51.394531 -22.804688 53.867188 -23.351562 56.171875 -23.96875 C 57.722656 -24.394531 59.265625 -24.890625 60.796875 -25.453125 C 62.328125 -26.023438 63.914062 -26.363281 65.5625 -26.46875 C 68.769531 -26.675781 71.101562 -25.765625 72.5625 -23.734375 C 74.03125 -21.710938 74.859375 -19.25 75.046875 -16.34375 C 75.210938 -13.6875 74.832031 -11.566406 73.90625 -9.984375 C 72.988281 -8.398438 71.734375 -7.164062 70.140625 -6.28125 C 68.554688 -5.394531 66.738281 -4.765625 64.6875 -4.390625 C 62.632812 -4.015625 60.546875 -3.722656 58.421875 -3.515625 C 55.847656 -3.265625 53.132812 -3.046875 50.28125 -2.859375 C 47.425781 -2.679688 44.578125 -2.441406 41.734375 -2.140625 C 38.890625 -1.847656 36.0625 -1.507812 33.25 -1.125 C 30.445312 -0.75 27.773438 -0.242188 25.234375 0.390625 C 23.066406 0.921875 20.898438 1.429688 18.734375 1.921875 C 16.566406 2.410156 14.347656 2.726562 12.078125 2.875 C 8.242188 3.125 4.925781 2.195312 2.125 0.09375 C -0.675781 -1.996094 -2.207031 -5.039062 -2.46875 -9.03125 C -2.601562 -11.207031 -2.320312 -13.300781 -1.625 -15.3125 C -0.925781 -17.332031 -0.375 -19.375 0.03125 -21.4375 C 1.851562 -30.820312 3.707031 -40.109375 5.59375 -49.296875 C 7.476562 -58.492188 9.265625 -67.773438 10.953125 -77.140625 C 11.429688 -79.453125 11.710938 -81.804688 11.796875 -84.203125 C 11.878906 -86.609375 12.238281 -88.972656 12.875 -91.296875 C 13.570312 -93.691406 14.582031 -95.597656 15.90625 -97.015625 C 17.238281 -98.429688 19.140625 -99.421875 21.609375 -99.984375 C 23.398438 -100.410156 25.191406 -100.660156 26.984375 -100.734375 C 28.785156 -100.804688 30.582031 -100.976562 32.375 -101.25 C 38.820312 -102.300781 45.59375 -103.191406 52.6875 -103.921875 C 59.789062 -104.648438 66.585938 -105.222656 73.078125 -105.640625 C 75.035156 -105.765625 76.953125 -105.828125 78.828125 -105.828125 C 80.710938 -105.835938 82.382812 -105.550781 83.84375 -104.96875 C 85.300781 -104.394531 86.5 -103.429688 87.4375 -102.078125 C 88.382812 -100.734375 88.9375 -98.804688 89.09375 -96.296875 Z M 89.09375 -96.296875 "/></g></g></g><g fill="#d9d9d9" fill-opacity="1"><g transform="translate(618.90634, 112.954941)"><g/></g></g><g fill="#d9d9d9" fill-opacity="1"><g transform="translate(662.077116, 112.22702)"><g><path d="M 83.875 1.703125 C 83.5625 5.128906 82.234375 7.835938 79.890625 9.828125 C 77.554688 11.816406 74.671875 12.65625 71.234375 12.34375 C 68.734375 12.113281 66.867188 11.394531 65.640625 10.1875 C 64.410156 8.976562 63.578125 7.507812 63.140625 5.78125 C 62.710938 4.050781 62.53125 2.179688 62.59375 0.171875 C 62.664062 -1.828125 62.78125 -3.722656 62.9375 -5.515625 C 62.976562 -5.898438 63.007812 -6.484375 63.03125 -7.265625 C 63.0625 -8.054688 63.054688 -8.613281 63.015625 -8.9375 C 60.035156 -9.039062 57.109375 -9.125 54.234375 -9.1875 C 51.367188 -9.25 48.453125 -9.414062 45.484375 -9.6875 C 41.503906 -10.039062 37.546875 -10.21875 33.609375 -10.21875 C 29.679688 -10.226562 25.703125 -10.101562 21.671875 -9.84375 C 20.097656 -8.175781 18.671875 -6.375 17.390625 -4.4375 C 16.117188 -2.507812 14.515625 -0.847656 12.578125 0.546875 C 11.140625 1.679688 9.28125 2.65625 7 3.46875 C 4.726562 4.28125 2.65625 4.601562 0.78125 4.4375 C -0.707031 4.300781 -1.988281 3.867188 -3.0625 3.140625 C -4.132812 2.410156 -4.992188 1.503906 -5.640625 0.421875 C -6.296875 -0.660156 -6.757812 -1.878906 -7.03125 -3.234375 C -7.300781 -4.585938 -7.375 -5.925781 -7.25 -7.25 C -7.125 -8.664062 -6.726562 -9.972656 -6.0625 -11.171875 C -5.40625 -12.367188 -4.617188 -13.476562 -3.703125 -14.5 C -2.785156 -15.519531 -1.789062 -16.507812 -0.71875 -17.46875 C 0.339844 -18.4375 1.316406 -19.394531 2.203125 -20.34375 C 6.460938 -24.914062 10.722656 -29.445312 14.984375 -33.9375 C 19.242188 -38.425781 23.484375 -43.039062 27.703125 -47.78125 C 30.765625 -51.269531 33.753906 -54.789062 36.671875 -58.34375 C 39.585938 -61.894531 42.476562 -65.550781 45.34375 -69.3125 C 48.09375 -72.832031 50.851562 -76.410156 53.625 -80.046875 C 56.394531 -83.691406 59.421875 -87.101562 62.703125 -90.28125 C 63.910156 -91.507812 65.257812 -92.3125 66.75 -92.6875 C 68.238281 -93.0625 69.847656 -93.171875 71.578125 -93.015625 C 73.210938 -92.867188 74.828125 -92.46875 76.421875 -91.8125 C 78.015625 -91.15625 79.289062 -90.113281 80.25 -88.6875 C 81.582031 -86.757812 82.34375 -84.488281 82.53125 -81.875 C 82.726562 -79.269531 82.804688 -76.863281 82.765625 -74.65625 C 82.722656 -72.457031 82.582031 -70.265625 82.34375 -68.078125 C 82.101562 -65.898438 82.039062 -63.703125 82.15625 -61.484375 C 82.414062 -54.691406 82.535156 -47.929688 82.515625 -41.203125 C 82.492188 -34.484375 82.648438 -27.769531 82.984375 -21.0625 C 83.203125 -17.25 83.488281 -13.457031 83.84375 -9.6875 C 84.207031 -5.925781 84.21875 -2.128906 83.875 1.703125 Z M 61.75 -30.296875 C 61.820312 -34.617188 61.753906 -38.894531 61.546875 -43.125 C 61.347656 -47.351562 60.972656 -51.613281 60.421875 -55.90625 C 55.941406 -51.75 51.597656 -47.5 47.390625 -43.15625 C 43.179688 -38.820312 39.097656 -34.3125 35.140625 -29.625 C 39.609375 -29.375 44.0625 -29.222656 48.5 -29.171875 C 52.9375 -29.128906 57.351562 -29.503906 61.75 -30.296875 Z M 61.75 -30.296875 "/></g></g></g><g fill="#d9d9d9" fill-opacity="1"><g transform="translate(734.700514, 117.921347)"><g><path d="M 114.1875 -67.875 C 113.4375 -63.71875 111.835938 -61.054688 109.390625 -59.890625 C 106.953125 -58.734375 103.804688 -58.503906 99.953125 -59.203125 C 97.953125 -59.554688 95.957031 -59.972656 93.96875 -60.453125 C 91.988281 -60.929688 90 -61.347656 88 -61.703125 C 86.445312 -61.984375 84.90625 -62.179688 83.375 -62.296875 C 81.84375 -62.410156 80.332031 -62.285156 78.84375 -61.921875 C 75.738281 -55.304688 72.664062 -48.769531 69.625 -42.3125 C 66.59375 -35.851562 63.5 -29.363281 60.34375 -22.84375 C 58.84375 -19.78125 57.519531 -16.613281 56.375 -13.34375 C 55.226562 -10.082031 54.050781 -6.851562 52.84375 -3.65625 C 52.101562 -1.71875 51.320312 0.207031 50.5 2.125 C 49.675781 4.050781 48.675781 5.867188 47.5 7.578125 C 46 9.691406 44.253906 11.304688 42.265625 12.421875 C 40.273438 13.535156 37.96875 13.859375 35.34375 13.390625 C 34.03125 13.148438 32.765625 12.660156 31.546875 11.921875 C 30.328125 11.191406 29.289062 10.289062 28.4375 9.21875 C 27.59375 8.15625 26.972656 6.96875 26.578125 5.65625 C 26.179688 4.351562 26.109375 3.003906 26.359375 1.609375 C 26.679688 -0.230469 27.351562 -2.234375 28.375 -4.390625 C 29.40625 -6.554688 30.582031 -8.773438 31.90625 -11.046875 C 33.226562 -13.328125 34.539062 -15.5625 35.84375 -17.75 C 37.15625 -19.9375 38.25 -21.910156 39.125 -23.671875 C 42.40625 -30.484375 45.515625 -37.304688 48.453125 -44.140625 C 51.398438 -50.984375 54.414062 -57.867188 57.5 -64.796875 C 54.101562 -65.398438 50.734375 -65.84375 47.390625 -66.125 C 44.054688 -66.40625 40.691406 -66.851562 37.296875 -67.46875 C 35.054688 -67.863281 33.140625 -68.363281 31.546875 -68.96875 C 29.953125 -69.570312 28.671875 -70.398438 27.703125 -71.453125 C 26.734375 -72.503906 26.09375 -73.832031 25.78125 -75.4375 C 25.476562 -77.050781 25.550781 -79.09375 26 -81.5625 C 26.550781 -84.65625 27.882812 -86.785156 30 -87.953125 C 32.125 -89.117188 34.570312 -89.769531 37.34375 -89.90625 C 40.113281 -90.039062 42.941406 -89.847656 45.828125 -89.328125 C 48.722656 -88.816406 51.210938 -88.375 53.296875 -88 C 60.773438 -86.65625 68.21875 -85.535156 75.625 -84.640625 C 83.03125 -83.753906 90.523438 -82.945312 98.109375 -82.21875 C 98.828125 -82.175781 99.554688 -82.109375 100.296875 -82.015625 C 101.035156 -81.921875 101.75 -81.8125 102.4375 -81.6875 C 104.132812 -81.382812 105.769531 -80.851562 107.34375 -80.09375 C 108.914062 -79.332031 110.253906 -78.351562 111.359375 -77.15625 C 112.460938 -75.96875 113.289062 -74.585938 113.84375 -73.015625 C 114.40625 -71.441406 114.519531 -69.726562 114.1875 -67.875 Z M 114.1875 -67.875 "/></g></g></g><g fill="#d9d9d9" fill-opacity="1"><g transform="translate(813.759392, 131.632024)"><g><path d="M 116.09375 -61.125 C 115.09375 -57.582031 113.1875 -55.148438 110.375 -53.828125 C 107.5625 -52.503906 104.453125 -52.320312 101.046875 -53.28125 C 98.335938 -54.050781 95.773438 -55.144531 93.359375 -56.5625 C 90.941406 -57.976562 88.375 -59.066406 85.65625 -59.828125 C 81.375 -61.046875 76.6875 -62.085938 71.59375 -62.953125 C 66.507812 -63.816406 61.695312 -64.445312 57.15625 -64.84375 C 55.164062 -61.5 53.125 -58.222656 51.03125 -55.015625 C 48.945312 -51.816406 46.941406 -48.539062 45.015625 -45.1875 C 50.617188 -44.007812 56.625 -42.796875 63.03125 -41.546875 C 69.445312 -40.304688 75.410156 -38.910156 80.921875 -37.359375 C 82.046875 -37.035156 83.367188 -36.535156 84.890625 -35.859375 C 86.410156 -35.191406 87.820312 -34.363281 89.125 -33.375 C 90.4375 -32.394531 91.460938 -31.269531 92.203125 -30 C 92.953125 -28.738281 93.125 -27.390625 92.71875 -25.953125 C 90.25 -17.210938 84.640625 -14.078125 75.890625 -16.546875 C 74.367188 -16.972656 72.90625 -17.503906 71.5 -18.140625 C 70.101562 -18.785156 68.65625 -19.320312 67.15625 -19.75 C 64.59375 -20.46875 61.867188 -21.132812 58.984375 -21.75 C 56.097656 -22.363281 53.191406 -22.894531 50.265625 -23.34375 C 47.335938 -23.800781 44.410156 -24.179688 41.484375 -24.484375 C 38.554688 -24.796875 35.753906 -24.957031 33.078125 -24.96875 C 31.785156 -22.726562 30.554688 -20.472656 29.390625 -18.203125 C 28.222656 -15.929688 27.035156 -13.660156 25.828125 -11.390625 L 30.21875 -10.15625 C 32.5625 -9.488281 35.023438 -8.828125 37.609375 -8.171875 C 40.191406 -7.523438 42.804688 -6.910156 45.453125 -6.328125 C 48.097656 -5.742188 50.75 -5.238281 53.40625 -4.8125 C 56.0625 -4.394531 58.578125 -4.09375 60.953125 -3.90625 C 62.546875 -3.789062 64.160156 -3.742188 65.796875 -3.765625 C 67.441406 -3.785156 69.054688 -3.570312 70.640625 -3.125 C 73.722656 -2.25 75.617188 -0.613281 76.328125 1.78125 C 77.035156 4.175781 76.992188 6.773438 76.203125 9.578125 C 75.484375 12.140625 74.421875 14.015625 73.015625 15.203125 C 71.617188 16.390625 70.019531 17.132812 68.21875 17.4375 C 66.425781 17.738281 64.5 17.722656 62.4375 17.390625 C 60.382812 17.066406 58.328125 16.648438 56.265625 16.140625 C 53.753906 15.515625 51.125 14.8125 48.375 14.03125 C 45.625 13.257812 42.859375 12.539062 40.078125 11.875 C 37.296875 11.207031 34.515625 10.582031 31.734375 10 C 28.960938 9.425781 26.269531 9.015625 23.65625 8.765625 C 21.4375 8.546875 19.222656 8.304688 17.015625 8.046875 C 14.816406 7.785156 12.625 7.347656 10.4375 6.734375 C 6.738281 5.679688 3.914062 3.703125 1.96875 0.796875 C 0.03125 -2.109375 -0.386719 -5.488281 0.703125 -9.34375 C 1.296875 -11.445312 2.253906 -13.332031 3.578125 -15 C 4.898438 -16.664062 6.097656 -18.398438 7.171875 -20.203125 C 12.023438 -28.441406 16.867188 -36.578125 21.703125 -44.609375 C 26.535156 -52.648438 31.3125 -60.8125 36.03125 -69.09375 C 37.238281 -71.113281 38.28125 -73.238281 39.15625 -75.46875 C 40.039062 -77.695312 41.164062 -79.804688 42.53125 -81.796875 C 44 -83.816406 45.59375 -85.273438 47.3125 -86.171875 C 49.039062 -87.078125 51.160156 -87.378906 53.671875 -87.078125 C 55.492188 -86.890625 57.265625 -86.53125 58.984375 -86 C 60.710938 -85.46875 62.460938 -85.03125 64.234375 -84.6875 C 70.671875 -83.53125 77.351562 -82.113281 84.28125 -80.4375 C 91.21875 -78.757812 97.820312 -77.035156 104.09375 -75.265625 C 105.976562 -74.734375 107.804688 -74.15625 109.578125 -73.53125 C 111.359375 -72.914062 112.835938 -72.09375 114.015625 -71.0625 C 115.191406 -70.039062 116.003906 -68.734375 116.453125 -67.140625 C 116.898438 -65.546875 116.78125 -63.539062 116.09375 -61.125 Z M 116.09375 -61.125 "/></g></g></g><g fill="#d9d9d9" fill-opacity="1"><g transform="translate(889.411803, 152.67991)"><g><path d="M 69.25 17.109375 C 68.789062 18.285156 68.101562 19.304688 67.1875 20.171875 C 66.269531 21.035156 65.226562 21.722656 64.0625 22.234375 C 62.894531 22.742188 61.671875 23.023438 60.390625 23.078125 C 59.109375 23.128906 57.878906 22.929688 56.703125 22.484375 C 55.460938 22.003906 54.265625 21.457031 53.109375 20.84375 C 51.960938 20.238281 50.769531 19.695312 49.53125 19.21875 C 44.332031 17.21875 39.023438 15.613281 33.609375 14.40625 C 28.203125 13.207031 22.898438 11.609375 17.703125 9.609375 C 16.242188 9.046875 14.78125 8.5 13.3125 7.96875 C 11.84375 7.4375 10.375 6.882812 8.90625 6.3125 C 7.507812 5.78125 6.328125 4.972656 5.359375 3.890625 C 4.398438 2.804688 3.675781 1.582031 3.1875 0.21875 C 2.707031 -1.144531 2.457031 -2.5625 2.4375 -4.03125 C 2.414062 -5.507812 2.660156 -6.90625 3.171875 -8.21875 C 3.898438 -10.125 4.832031 -11.90625 5.96875 -13.5625 C 7.113281 -15.226562 8.34375 -16.835938 9.65625 -18.390625 C 10.96875 -19.941406 12.316406 -21.476562 13.703125 -23 C 15.097656 -24.519531 16.351562 -26.078125 17.46875 -27.671875 C 21.90625 -33.753906 26.441406 -39.703125 31.078125 -45.515625 C 35.722656 -51.335938 40.300781 -57.285156 44.8125 -63.359375 C 46.34375 -65.367188 47.71875 -67.460938 48.9375 -69.640625 C 50.15625 -71.816406 51.53125 -73.910156 53.0625 -75.921875 C 55.78125 -79.492188 59.191406 -80.488281 63.296875 -78.90625 C 64.609375 -78.394531 65.84375 -77.625 67 -76.59375 C 68.15625 -75.5625 69.070312 -74.40625 69.75 -73.125 C 70.4375 -71.851562 70.867188 -70.472656 71.046875 -68.984375 C 71.222656 -67.492188 71.046875 -66.050781 70.515625 -64.65625 C 69.785156 -62.757812 68.753906 -61.054688 67.421875 -59.546875 C 66.085938 -58.046875 64.691406 -56.613281 63.234375 -55.25 C 62.191406 -54.300781 61.238281 -53.359375 60.375 -52.421875 C 59.519531 -51.492188 58.632812 -50.5 57.71875 -49.4375 C 53.863281 -44.875 50.171875 -40.25 46.640625 -35.5625 C 43.117188 -30.875 39.628906 -26.125 36.171875 -21.3125 C 34.722656 -19.28125 33.3125 -17.242188 31.9375 -15.203125 C 30.5625 -13.171875 29.28125 -11.046875 28.09375 -8.828125 C 33.289062 -6.828125 38.535156 -5.179688 43.828125 -3.890625 C 49.128906 -2.597656 54.375 -0.949219 59.5625 1.046875 C 61.101562 1.640625 62.597656 2.488281 64.046875 3.59375 C 65.503906 4.695312 66.722656 5.9375 67.703125 7.3125 C 68.691406 8.695312 69.363281 10.238281 69.71875 11.9375 C 70.070312 13.632812 69.914062 15.359375 69.25 17.109375 Z M 69.25 17.109375 "/></g></g></g><g fill="#d9d9d9" fill-opacity="1"><g transform="translate(956.350221, 178.164408)"><g><path d="M 108.921875 -42.359375 C 108.035156 -40.535156 106.945312 -39.191406 105.65625 -38.328125 C 104.363281 -37.472656 102.960938 -36.972656 101.453125 -36.828125 C 99.953125 -36.679688 98.398438 -36.847656 96.796875 -37.328125 C 95.203125 -37.804688 93.625 -38.425781 92.0625 -39.1875 C 90.582031 -39.90625 89.160156 -40.703125 87.796875 -41.578125 C 86.441406 -42.453125 85.023438 -43.25 83.546875 -43.96875 C 83.191406 -44.132812 82.835938 -44.300781 82.484375 -44.46875 C 82.140625 -44.644531 81.769531 -44.789062 81.375 -44.90625 C 79.445312 -43.570312 77.628906 -42.050781 75.921875 -40.34375 C 74.222656 -38.644531 72.578125 -36.832031 70.984375 -34.90625 C 69.390625 -32.976562 67.859375 -31.039062 66.390625 -29.09375 C 64.929688 -27.15625 63.457031 -25.28125 61.96875 -23.46875 C 58.6875 -19.582031 55.507812 -15.679688 52.4375 -11.765625 C 49.363281 -7.859375 46.394531 -3.855469 43.53125 0.234375 C 43.914062 0.503906 44.316406 0.742188 44.734375 0.953125 C 45.160156 1.160156 45.582031 1.363281 46 1.5625 C 47.769531 2.425781 49.5625 3.226562 51.375 3.96875 C 53.195312 4.71875 54.992188 5.519531 56.765625 6.375 C 60.140625 8.019531 61.910156 9.972656 62.078125 12.234375 C 62.242188 14.492188 61.609375 17.101562 60.171875 20.0625 C 59.242188 21.96875 57.960938 23.347656 56.328125 24.203125 C 54.691406 25.066406 52.953125 25.550781 51.109375 25.65625 C 49.273438 25.769531 47.425781 25.59375 45.5625 25.125 C 43.695312 24.664062 42.023438 24.078125 40.546875 23.359375 C 38.492188 22.359375 36.503906 21.28125 34.578125 20.125 C 32.660156 18.976562 30.675781 17.910156 28.625 16.921875 C 26.15625 15.722656 23.710938 14.601562 21.296875 13.5625 C 18.890625 12.519531 16.453125 11.398438 13.984375 10.203125 C 12.367188 9.410156 10.734375 8.785156 9.078125 8.328125 C 7.421875 7.867188 5.785156 7.25 4.171875 6.46875 C 2.617188 5.71875 1.425781 4.722656 0.59375 3.484375 C -0.238281 2.253906 -0.757812 0.914062 -0.96875 -0.53125 C -1.1875 -1.988281 -1.144531 -3.472656 -0.84375 -4.984375 C -0.550781 -6.492188 -0.0585938 -7.957031 0.625 -9.375 C 1.789062 -11.757812 3.269531 -13.28125 5.0625 -13.9375 C 6.863281 -14.59375 8.769531 -14.757812 10.78125 -14.4375 C 12.800781 -14.113281 14.832031 -13.453125 16.875 -12.453125 C 18.925781 -11.460938 20.796875 -10.554688 22.484375 -9.734375 C 22.835938 -9.554688 23.132812 -9.410156 23.375 -9.296875 C 23.625 -9.179688 23.941406 -9.066406 24.328125 -8.953125 C 25.515625 -10.828125 26.914062 -12.71875 28.53125 -14.625 C 30.15625 -16.539062 31.820312 -18.453125 33.53125 -20.359375 C 35.238281 -22.273438 36.9375 -24.148438 38.625 -25.984375 C 40.3125 -27.828125 41.894531 -29.65625 43.375 -31.46875 C 46.351562 -35.070312 49.25 -38.695312 52.0625 -42.34375 C 54.875 -45.988281 57.675781 -49.703125 60.46875 -53.484375 C 60.21875 -53.691406 59.8125 -53.929688 59.25 -54.203125 C 58.613281 -54.503906 57.953125 -54.800781 57.265625 -55.09375 C 56.585938 -55.394531 55.929688 -55.703125 55.296875 -56.015625 C 52.265625 -57.484375 50.242188 -59.375 49.234375 -61.6875 C 48.222656 -64.007812 48.488281 -66.753906 50.03125 -69.921875 C 51.707031 -73.378906 53.953125 -75.488281 56.765625 -76.25 C 59.578125 -77.019531 62.671875 -76.582031 66.046875 -74.9375 C 68.515625 -73.738281 70.914062 -72.484375 73.25 -71.171875 C 75.582031 -69.867188 77.976562 -68.617188 80.4375 -67.421875 C 83.257812 -66.054688 86.097656 -64.722656 88.953125 -63.421875 C 91.804688 -62.117188 94.675781 -60.851562 97.5625 -59.625 C 99.007812 -59.019531 100.472656 -58.441406 101.953125 -57.890625 C 103.429688 -57.347656 104.875 -56.738281 106.28125 -56.0625 C 107.550781 -55.4375 108.507812 -54.578125 109.15625 -53.484375 C 109.800781 -52.398438 110.179688 -51.21875 110.296875 -49.9375 C 110.421875 -48.65625 110.359375 -47.351562 110.109375 -46.03125 C 109.867188 -44.71875 109.472656 -43.492188 108.921875 -42.359375 Z M 108.921875 -42.359375 "/></g></g></g><g fill="#d9d9d9" fill-opacity="1"><g transform="translate(1015.081369, 205.840864)"><g><path d="M 128.046875 -28.5625 C 126.160156 -25.40625 123.679688 -23.554688 120.609375 -23.015625 C 117.546875 -22.472656 114.503906 -23.109375 111.484375 -24.921875 C 109.054688 -26.378906 106.863281 -28.109375 104.90625 -30.109375 C 102.957031 -32.109375 100.773438 -33.832031 98.359375 -35.28125 C 94.535156 -37.582031 90.28125 -39.816406 85.59375 -41.984375 C 80.90625 -44.148438 76.425781 -46.019531 72.15625 -47.59375 C 69.351562 -44.882812 66.523438 -42.257812 63.671875 -39.71875 C 60.816406 -37.1875 58.019531 -34.546875 55.28125 -31.796875 C 60.382812 -29.191406 65.863281 -26.445312 71.71875 -23.5625 C 77.582031 -20.6875 82.96875 -17.78125 87.875 -14.84375 C 88.882812 -14.238281 90.035156 -13.410156 91.328125 -12.359375 C 92.617188 -11.304688 93.765625 -10.132812 94.765625 -8.84375 C 95.773438 -7.550781 96.472656 -6.191406 96.859375 -4.765625 C 97.242188 -3.347656 97.050781 -2.003906 96.28125 -0.734375 C 91.601562 7.054688 85.363281 8.609375 77.5625 3.921875 C 76.21875 3.117188 74.953125 2.222656 73.765625 1.234375 C 72.585938 0.242188 71.328125 -0.648438 69.984375 -1.453125 C 67.703125 -2.828125 65.25 -4.179688 62.625 -5.515625 C 60 -6.859375 57.332031 -8.132812 54.625 -9.34375 C 51.925781 -10.5625 49.203125 -11.695312 46.453125 -12.75 C 43.710938 -13.8125 41.046875 -14.703125 38.453125 -15.421875 C 36.628906 -13.597656 34.851562 -11.742188 33.125 -9.859375 C 31.394531 -7.972656 29.648438 -6.097656 27.890625 -4.234375 L 31.828125 -1.875 C 33.898438 -0.625 36.097656 0.648438 38.421875 1.953125 C 40.753906 3.265625 43.117188 4.550781 45.515625 5.8125 C 47.921875 7.070312 50.34375 8.25 52.78125 9.34375 C 55.226562 10.445312 57.582031 11.40625 59.84375 12.21875 C 61.363281 12.75 62.914062 13.21875 64.5 13.625 C 66.082031 14.03125 67.578125 14.65625 68.984375 15.5 C 71.734375 17.15625 73.132812 19.226562 73.1875 21.71875 C 73.25 24.21875 72.53125 26.710938 71.03125 29.203125 C 69.664062 31.492188 68.148438 33.03125 66.484375 33.8125 C 64.828125 34.59375 63.09375 34.894531 61.28125 34.71875 C 59.46875 34.539062 57.609375 34.019531 55.703125 33.15625 C 53.804688 32.300781 51.925781 31.359375 50.0625 30.328125 C 47.800781 29.066406 45.441406 27.703125 42.984375 26.234375 C 40.535156 24.765625 38.054688 23.34375 35.546875 21.96875 C 33.046875 20.59375 30.53125 19.257812 28 17.96875 C 25.476562 16.6875 22.988281 15.585938 20.53125 14.671875 C 18.445312 13.867188 16.375 13.050781 14.3125 12.21875 C 12.25 11.394531 10.25 10.398438 8.3125 9.234375 C 5.007812 7.253906 2.800781 4.601562 1.6875 1.28125 C 0.570312 -2.03125 1.046875 -5.398438 3.109375 -8.828125 C 4.234375 -10.703125 5.65625 -12.269531 7.375 -13.53125 C 9.09375 -14.789062 10.707031 -16.15625 12.21875 -17.625 C 19.0625 -24.300781 25.867188 -30.882812 32.640625 -37.375 C 39.410156 -43.863281 46.15625 -50.484375 52.875 -57.234375 C 54.582031 -58.859375 56.148438 -60.632812 57.578125 -62.5625 C 59.003906 -64.488281 60.640625 -66.226562 62.484375 -67.78125 C 64.441406 -69.351562 66.363281 -70.34375 68.25 -70.75 C 70.144531 -71.164062 72.269531 -70.90625 74.625 -69.96875 C 76.332031 -69.300781 77.945312 -68.484375 79.46875 -67.515625 C 81 -66.554688 82.578125 -65.679688 84.203125 -64.890625 C 90.097656 -62.085938 96.171875 -58.960938 102.421875 -55.515625 C 108.679688 -52.078125 114.597656 -48.6875 120.171875 -45.34375 C 121.859375 -44.332031 123.476562 -43.296875 125.03125 -42.234375 C 126.582031 -41.171875 127.789062 -39.988281 128.65625 -38.6875 C 129.519531 -37.394531 129.957031 -35.921875 129.96875 -34.265625 C 129.976562 -32.609375 129.335938 -30.707031 128.046875 -28.5625 Z M 128.046875 -28.5625 "/></g></g></g><g fill="#d9d9d9" fill-opacity="1"><g transform="translate(1082.564761, 245.242175)"><g><path d="M 123.25 7.359375 C 120.375 11.179688 116.96875 14.039062 113.03125 15.9375 C 109.09375 17.832031 104.9375 19.046875 100.5625 19.578125 C 96.195312 20.117188 91.738281 20.113281 87.1875 19.5625 C 82.632812 19.019531 78.3125 18.144531 74.21875 16.9375 C 75.03125 20.289062 75.609375 23.71875 75.953125 27.21875 C 76.304688 30.726562 76.472656 34.191406 76.453125 37.609375 C 76.410156 40.128906 75.660156 42.363281 74.203125 44.3125 C 73.390625 45.375 72.425781 46.289062 71.3125 47.0625 C 70.195312 47.832031 69.003906 48.40625 67.734375 48.78125 C 66.472656 49.15625 65.171875 49.253906 63.828125 49.078125 C 62.492188 48.898438 61.265625 48.382812 60.140625 47.53125 C 58.140625 46.019531 56.679688 44.28125 55.765625 42.3125 C 54.847656 40.351562 54.203125 38.28125 53.828125 36.09375 C 53.460938 33.90625 53.234375 31.664062 53.140625 29.375 C 53.046875 27.09375 52.84375 24.859375 52.53125 22.671875 C 52.1875 20.535156 51.738281 18.425781 51.1875 16.34375 C 50.644531 14.269531 49.984375 12.253906 49.203125 10.296875 C 48.722656 9.242188 47.984375 8.144531 46.984375 7 C 45.984375 5.863281 44.867188 4.734375 43.640625 3.609375 C 42.421875 2.492188 41.171875 1.453125 39.890625 0.484375 C 38.609375 -0.480469 37.492188 -1.320312 36.546875 -2.03125 L 34.6875 -3.4375 C 33.257812 -2.84375 31.773438 -1.945312 30.234375 -0.75 C 28.703125 0.433594 27.109375 1.734375 25.453125 3.140625 C 23.804688 4.546875 22.09375 5.90625 20.3125 7.21875 C 18.539062 8.53125 16.785156 9.5625 15.046875 10.3125 C 13.304688 11.0625 11.585938 11.457031 9.890625 11.5 C 8.191406 11.539062 6.523438 10.945312 4.890625 9.71875 C 3.773438 8.863281 2.847656 7.84375 2.109375 6.65625 C 1.378906 5.476562 0.890625 4.207031 0.640625 2.84375 C 0.398438 1.476562 0.421875 0.117188 0.703125 -1.234375 C 0.992188 -2.585938 1.5625 -3.828125 2.40625 -4.953125 C 3.351562 -6.210938 4.503906 -7.382812 5.859375 -8.46875 C 7.222656 -9.550781 8.664062 -10.546875 10.1875 -11.453125 C 11.707031 -12.367188 13.226562 -13.253906 14.75 -14.109375 C 16.28125 -14.972656 17.710938 -15.832031 19.046875 -16.6875 C 22.847656 -19.125 26.59375 -21.550781 30.28125 -23.96875 C 33.976562 -26.394531 37.65625 -28.925781 41.3125 -31.5625 C 44.757812 -34.0625 48.035156 -36.71875 51.140625 -39.53125 C 54.242188 -42.351562 57.222656 -45.332031 60.078125 -48.46875 C 60.148438 -50.382812 60.800781 -52.15625 62.03125 -53.78125 C 63.539062 -55.789062 65.578125 -57.03125 68.140625 -57.5 C 70.710938 -57.96875 73.535156 -57.898438 76.609375 -57.296875 C 79.679688 -56.691406 82.890625 -55.710938 86.234375 -54.359375 C 89.585938 -53.015625 92.789062 -51.535156 95.84375 -49.921875 C 98.90625 -48.316406 101.707031 -46.695312 104.25 -45.0625 C 106.800781 -43.4375 108.796875 -42.082031 110.234375 -41 C 112.617188 -39.207031 114.875 -37.316406 117 -35.328125 C 119.125 -33.335938 121.175781 -31.242188 123.15625 -29.046875 C 125.414062 -26.554688 127.054688 -23.75 128.078125 -20.625 C 129.109375 -17.5 129.585938 -14.289062 129.515625 -11 C 129.441406 -7.71875 128.859375 -4.476562 127.765625 -1.28125 C 126.679688 1.914062 125.175781 4.796875 123.25 7.359375 Z M 107.6875 -4.796875 C 108.820312 -6.304688 109.289062 -7.742188 109.09375 -9.109375 C 108.894531 -10.484375 108.25 -11.878906 107.15625 -13.296875 C 105.3125 -15.660156 103.28125 -17.875 101.0625 -19.9375 C 98.851562 -22 96.554688 -23.929688 94.171875 -25.734375 C 88.421875 -30.066406 82.238281 -33.390625 75.625 -35.703125 C 73.539062 -34.628906 71.613281 -33.335938 69.84375 -31.828125 C 68.082031 -30.328125 66.378906 -28.75 64.734375 -27.09375 C 63.085938 -25.4375 61.425781 -23.789062 59.75 -22.15625 C 58.070312 -20.519531 56.265625 -19.0625 54.328125 -17.78125 C 55.421875 -16.757812 56.492188 -15.773438 57.546875 -14.828125 C 58.597656 -13.890625 59.722656 -12.972656 60.921875 -12.078125 C 62.546875 -10.847656 64.597656 -9.539062 67.078125 -8.15625 C 69.566406 -6.78125 72.269531 -5.453125 75.1875 -4.171875 C 78.113281 -2.898438 81.160156 -1.832031 84.328125 -0.96875 C 87.492188 -0.101562 90.546875 0.398438 93.484375 0.546875 C 96.421875 0.703125 99.125 0.382812 101.59375 -0.40625 C 104.0625 -1.207031 106.09375 -2.671875 107.6875 -4.796875 Z M 107.6875 -4.796875 "/></g></g></g><g fill="#d9d9d9" fill-opacity="1"><g transform="translate(1156.633715, 301.854727)"><g/></g></g><g fill="#5c4f42" fill-opacity="1"><g transform="translate(64.839524, 326.803977)"><g><path d="M 19.765625 -131.359375 C 22.503906 -128.140625 23.546875 -125.21875 22.890625 -122.59375 C 22.242188 -119.976562 20.429688 -117.394531 17.453125 -114.84375 C 15.910156 -113.53125 14.328125 -112.253906 12.703125 -111.015625 C 11.078125 -109.773438 9.492188 -108.492188 7.953125 -107.171875 C 6.753906 -106.148438 5.625 -105.082031 4.5625 -103.96875 C 3.507812 -102.863281 2.648438 -101.617188 1.984375 -100.234375 C 5.128906 -93.640625 8.242188 -87.125 11.328125 -80.6875 C 14.410156 -74.25 17.472656 -67.742188 20.515625 -61.171875 C 21.941406 -58.054688 23.554688 -55.023438 25.359375 -52.078125 C 27.160156 -49.140625 28.921875 -46.1875 30.640625 -43.21875 C 31.660156 -41.40625 32.648438 -39.570312 33.609375 -37.71875 C 34.578125 -35.875 35.347656 -33.957031 35.921875 -31.96875 C 36.628906 -29.46875 36.78125 -27.09375 36.375 -24.84375 C 35.976562 -22.59375 34.765625 -20.601562 32.734375 -18.875 C 31.722656 -18.007812 30.546875 -17.335938 29.203125 -16.859375 C 27.859375 -16.378906 26.503906 -16.148438 25.140625 -16.171875 C 23.773438 -16.203125 22.460938 -16.472656 21.203125 -16.984375 C 19.941406 -17.503906 18.851562 -18.300781 17.9375 -19.375 C 16.71875 -20.800781 15.59375 -22.59375 14.5625 -24.75 C 13.53125 -26.914062 12.554688 -29.226562 11.640625 -31.6875 C 10.722656 -34.144531 9.828125 -36.578125 8.953125 -38.984375 C 8.085938 -41.390625 7.257812 -43.484375 6.46875 -45.265625 C 3.269531 -52.128906 -0.0390625 -58.863281 -3.46875 -65.46875 C -6.90625 -72.070312 -10.335938 -78.757812 -13.765625 -85.53125 C -16.378906 -83.289062 -18.847656 -80.96875 -21.171875 -78.5625 C -23.503906 -76.15625 -25.984375 -73.832031 -28.609375 -71.59375 C -30.335938 -70.113281 -31.941406 -68.945312 -33.421875 -68.09375 C -34.898438 -67.238281 -36.347656 -66.765625 -37.765625 -66.671875 C -39.191406 -66.585938 -40.625 -66.9375 -42.0625 -67.71875 C -43.507812 -68.507812 -45.050781 -69.859375 -46.6875 -71.765625 C -48.71875 -74.148438 -49.515625 -76.53125 -49.078125 -78.90625 C -48.640625 -81.28125 -47.597656 -83.585938 -45.953125 -85.828125 C -44.304688 -88.066406 -42.363281 -90.140625 -40.125 -92.046875 C -37.894531 -93.953125 -35.976562 -95.59375 -34.375 -96.96875 C -28.59375 -101.914062 -23.015625 -106.972656 -17.640625 -112.140625 C -12.265625 -117.304688 -6.894531 -122.59375 -1.53125 -128 C -1.039062 -128.519531 -0.523438 -129.035156 0.015625 -129.546875 C 0.566406 -130.066406 1.109375 -130.554688 1.640625 -131.015625 C 2.953125 -132.140625 4.394531 -133.066406 5.96875 -133.796875 C 7.550781 -134.535156 9.15625 -134.953125 10.78125 -135.046875 C 12.40625 -135.140625 14 -134.90625 15.5625 -134.34375 C 17.132812 -133.78125 18.535156 -132.785156 19.765625 -131.359375 Z M 19.765625 -131.359375 "/></g></g></g><g fill="#5c4f42" fill-opacity="1"><g transform="translate(125.358557, 274.243527)"><g><path d="M 28.609375 -129.21875 C 29.503906 -127.925781 30.285156 -126.390625 30.953125 -124.609375 C 31.617188 -122.828125 32.210938 -120.972656 32.734375 -119.046875 C 33.253906 -117.117188 33.738281 -115.210938 34.1875 -113.328125 C 34.644531 -111.453125 35.109375 -109.769531 35.578125 -108.28125 C 38.359375 -100.007812 41.363281 -91.65625 44.59375 -83.21875 C 47.832031 -74.78125 51.148438 -66.535156 54.546875 -58.484375 C 55.003906 -57.285156 55.582031 -56.113281 56.28125 -54.96875 C 56.976562 -53.832031 57.707031 -52.71875 58.46875 -51.625 C 60.613281 -48.53125 61.394531 -45.398438 60.8125 -42.234375 C 60.238281 -39.078125 58.410156 -36.425781 55.328125 -34.28125 C 53.003906 -32.664062 50.613281 -32.050781 48.15625 -32.4375 C 45.695312 -32.832031 43.640625 -34.21875 41.984375 -36.59375 C 41.046875 -37.945312 40.160156 -39.597656 39.328125 -41.546875 C 38.492188 -43.503906 37.707031 -45.5625 36.96875 -47.71875 C 36.238281 -49.875 35.535156 -51.984375 34.859375 -54.046875 C 34.191406 -56.117188 33.5625 -58 32.96875 -59.6875 C 32.664062 -59.5625 32.382812 -59.410156 32.125 -59.234375 C 31.875 -59.054688 31.617188 -58.878906 31.359375 -58.703125 C 27.242188 -55.835938 23.3125 -52.769531 19.5625 -49.5 C 15.820312 -46.238281 11.894531 -43.179688 7.78125 -40.328125 C 7.070312 -39.835938 6.378906 -39.359375 5.703125 -38.890625 C 5.023438 -38.421875 4.3125 -37.96875 3.5625 -37.53125 C 4.28125 -34.695312 5.410156 -31.765625 6.953125 -28.734375 C 7.816406 -26.941406 8.863281 -24.875 10.09375 -22.53125 C 11.332031 -20.195312 12.3125 -17.828125 13.03125 -15.421875 C 13.757812 -13.015625 13.945312 -10.6875 13.59375 -8.4375 C 13.25 -6.195312 11.945312 -4.289062 9.6875 -2.71875 C 8.46875 -1.875 7.140625 -1.285156 5.703125 -0.953125 C 4.265625 -0.628906 2.84375 -0.550781 1.4375 -0.71875 C 0.03125 -0.882812 -1.304688 -1.335938 -2.578125 -2.078125 C -3.859375 -2.816406 -4.941406 -3.828125 -5.828125 -5.109375 C -6.816406 -6.523438 -7.628906 -8.109375 -8.265625 -9.859375 C -8.910156 -11.609375 -9.472656 -13.410156 -9.953125 -15.265625 C -10.441406 -17.128906 -10.867188 -18.976562 -11.234375 -20.8125 C -11.609375 -22.65625 -12.039062 -24.40625 -12.53125 -26.0625 C -13.863281 -30.59375 -15.34375 -35.03125 -16.96875 -39.375 C -18.601562 -43.726562 -20.3125 -48.078125 -22.09375 -52.421875 C -23.875 -56.765625 -25.625 -61.101562 -27.34375 -65.4375 C -29.070312 -69.78125 -30.664062 -74.164062 -32.125 -78.59375 C -32.601562 -79.96875 -33.054688 -81.582031 -33.484375 -83.4375 C -33.910156 -85.289062 -34.113281 -87.128906 -34.09375 -88.953125 C -34.070312 -90.773438 -33.785156 -92.5 -33.234375 -94.125 C -32.679688 -95.75 -31.664062 -97.070312 -30.1875 -98.09375 C -28.96875 -98.945312 -27.65625 -99.59375 -26.25 -100.03125 C -24.851562 -100.476562 -23.472656 -100.648438 -22.109375 -100.546875 C -20.753906 -100.453125 -19.472656 -100.085938 -18.265625 -99.453125 C -17.054688 -98.816406 -15.984375 -97.820312 -15.046875 -96.46875 C -13.390625 -94.082031 -12.347656 -91.414062 -11.921875 -88.46875 C -11.523438 -85.6875 -11.128906 -83.117188 -10.734375 -80.765625 C -10.347656 -78.421875 -9.882812 -76.144531 -9.34375 -73.9375 C -8.8125 -71.726562 -8.164062 -69.523438 -7.40625 -67.328125 C -6.644531 -65.140625 -5.65625 -62.753906 -4.4375 -60.171875 C 0.402344 -63.628906 5.285156 -67.140625 10.203125 -70.703125 C 15.128906 -74.265625 19.5625 -78.375 23.5 -83.03125 C 22.550781 -87.125 21.34375 -91.117188 19.875 -95.015625 C 18.40625 -98.921875 16.8125 -102.800781 15.09375 -106.65625 C 14.382812 -108.351562 13.582031 -110.015625 12.6875 -111.640625 C 11.800781 -113.265625 11.097656 -115 10.578125 -116.84375 C 10.253906 -117.851562 10.0625 -119.023438 10 -120.359375 C 9.9375 -121.691406 10.019531 -123.015625 10.25 -124.328125 C 10.488281 -125.640625 10.890625 -126.847656 11.453125 -127.953125 C 12.023438 -129.054688 12.820312 -129.96875 13.84375 -130.6875 C 15.007812 -131.488281 16.285156 -132.085938 17.671875 -132.484375 C 19.066406 -132.890625 20.441406 -133.035156 21.796875 -132.921875 C 23.160156 -132.816406 24.4375 -132.460938 25.625 -131.859375 C 26.8125 -131.253906 27.804688 -130.375 28.609375 -129.21875 Z M 28.609375 -129.21875 "/></g></g></g><g fill="#5c4f42" fill-opacity="1"><g transform="translate(193.196485, 226.618149)"><g><path d="M 39.15625 -125.21875 C 40.9375 -122.007812 41.296875 -118.9375 40.234375 -116 C 39.179688 -113.070312 37.113281 -110.753906 34.03125 -109.046875 C 31.5625 -107.671875 28.972656 -106.632812 26.265625 -105.9375 C 23.566406 -105.25 20.984375 -104.21875 18.515625 -102.84375 C 14.617188 -100.675781 10.554688 -98.101562 6.328125 -95.125 C 2.109375 -92.144531 -1.742188 -89.195312 -5.234375 -86.28125 C -4.273438 -82.5 -3.410156 -78.738281 -2.640625 -75 C -1.867188 -71.257812 -0.976562 -67.515625 0.03125 -63.765625 C 4.832031 -66.890625 9.941406 -70.273438 15.359375 -73.921875 C 20.785156 -77.566406 25.992188 -80.773438 30.984375 -83.546875 C 32.015625 -84.117188 33.304688 -84.703125 34.859375 -85.296875 C 36.410156 -85.898438 37.992188 -86.3125 39.609375 -86.53125 C 41.234375 -86.757812 42.757812 -86.6875 44.1875 -86.3125 C 45.613281 -85.945312 46.691406 -85.113281 47.421875 -83.8125 C 51.828125 -75.875 50.054688 -69.691406 42.109375 -65.265625 C 40.734375 -64.503906 39.320312 -63.851562 37.875 -63.3125 C 36.4375 -62.769531 35.035156 -62.117188 33.671875 -61.359375 C 31.335938 -60.066406 28.929688 -58.617188 26.453125 -57.015625 C 23.984375 -55.421875 21.546875 -53.753906 19.140625 -52.015625 C 16.742188 -50.273438 14.40625 -48.476562 12.125 -46.625 C 9.84375 -44.78125 7.738281 -42.914062 5.8125 -41.03125 C 6.488281 -38.539062 7.210938 -36.070312 7.984375 -33.625 C 8.753906 -31.1875 9.507812 -28.742188 10.25 -26.296875 L 14.25 -28.515625 C 16.375 -29.691406 18.582031 -30.960938 20.875 -32.328125 C 23.175781 -33.691406 25.46875 -35.097656 27.75 -36.546875 C 30.039062 -38.003906 32.269531 -39.519531 34.4375 -41.09375 C 36.613281 -42.664062 38.617188 -44.222656 40.453125 -45.765625 C 41.660156 -46.804688 42.835938 -47.914062 43.984375 -49.09375 C 45.128906 -50.269531 46.421875 -51.253906 47.859375 -52.046875 C 50.660156 -53.609375 53.15625 -53.789062 55.34375 -52.59375 C 57.539062 -51.394531 59.347656 -49.523438 60.765625 -46.984375 C 62.054688 -44.648438 62.628906 -42.566406 62.484375 -40.734375 C 62.335938 -38.898438 61.734375 -37.242188 60.671875 -35.765625 C 59.617188 -34.285156 58.242188 -32.9375 56.546875 -31.71875 C 54.847656 -30.5 53.085938 -29.34375 51.265625 -28.25 C 49.046875 -26.925781 46.6875 -25.566406 44.1875 -24.171875 C 41.6875 -22.785156 39.210938 -21.347656 36.765625 -19.859375 C 34.328125 -18.367188 31.921875 -16.847656 29.546875 -15.296875 C 27.179688 -13.742188 24.984375 -12.140625 22.953125 -10.484375 C 21.234375 -9.066406 19.5 -7.671875 17.75 -6.296875 C 16 -4.921875 14.128906 -3.679688 12.140625 -2.578125 C 8.785156 -0.710938 5.390625 -0.125 1.953125 -0.8125 C -1.472656 -1.507812 -4.15625 -3.609375 -6.09375 -7.109375 C -7.15625 -9.015625 -7.804688 -11.023438 -8.046875 -13.140625 C -8.285156 -15.253906 -8.660156 -17.332031 -9.171875 -19.375 C -11.546875 -28.632812 -13.851562 -37.816406 -16.09375 -46.921875 C -18.34375 -56.035156 -20.710938 -65.1875 -23.203125 -74.375 C -23.773438 -76.675781 -24.535156 -78.925781 -25.484375 -81.125 C -26.429688 -83.320312 -27.125 -85.601562 -27.5625 -87.96875 C -27.9375 -90.445312 -27.832031 -92.613281 -27.25 -94.46875 C -26.675781 -96.320312 -25.390625 -98.023438 -23.390625 -99.578125 C -21.960938 -100.734375 -20.445312 -101.726562 -18.84375 -102.5625 C -17.25 -103.40625 -15.703125 -104.332031 -14.203125 -105.34375 C -8.835938 -109.050781 -3.105469 -112.757812 2.984375 -116.46875 C 9.085938 -120.175781 14.988281 -123.613281 20.6875 -126.78125 C 22.394531 -127.726562 24.097656 -128.609375 25.796875 -129.421875 C 27.492188 -130.242188 29.117188 -130.703125 30.671875 -130.796875 C 32.234375 -130.898438 33.726562 -130.546875 35.15625 -129.734375 C 36.59375 -128.921875 37.925781 -127.414062 39.15625 -125.21875 Z M 39.15625 -125.21875 "/></g></g></g><g fill="#5c4f42" fill-opacity="1"><g transform="translate(262.440123, 188.441954)"><g/></g></g><g fill="#5c4f42" fill-opacity="1"><g transform="translate(301.188811, 169.301115)"><g><path d="M 55.546875 -106.5625 C 55.898438 -105.601562 56.007812 -104.578125 55.875 -103.484375 C 55.738281 -102.398438 55.425781 -101.328125 54.9375 -100.265625 C 54.457031 -99.203125 53.828125 -98.253906 53.046875 -97.421875 C 52.265625 -96.585938 51.394531 -95.992188 50.4375 -95.640625 C 48.53125 -94.929688 46.613281 -94.578125 44.6875 -94.578125 C 42.769531 -94.578125 40.851562 -94.222656 38.9375 -93.515625 C 33.644531 -91.546875 28.804688 -88.640625 24.421875 -84.796875 C 20.046875 -80.960938 16.457031 -76.5625 13.65625 -71.59375 C 10.863281 -66.632812 9.09375 -61.328125 8.34375 -55.671875 C 7.59375 -50.015625 8.253906 -44.390625 10.328125 -38.796875 C 11.359375 -36.003906 12.703125 -33.847656 14.359375 -32.328125 C 16.015625 -30.804688 17.875 -29.78125 19.9375 -29.25 C 22.007812 -28.726562 24.21875 -28.628906 26.5625 -28.953125 C 28.914062 -29.273438 31.34375 -29.898438 33.84375 -30.828125 C 36.925781 -31.972656 39.863281 -33.394531 42.65625 -35.09375 C 45.457031 -36.800781 48.007812 -38.835938 50.3125 -41.203125 C 51.507812 -42.472656 52.71875 -43.644531 53.9375 -44.71875 C 55.15625 -45.800781 56.613281 -46.660156 58.3125 -47.296875 C 59.5625 -47.753906 60.828125 -48.054688 62.109375 -48.203125 C 63.398438 -48.347656 64.644531 -48.265625 65.84375 -47.953125 C 67.039062 -47.648438 68.101562 -47.082031 69.03125 -46.25 C 69.96875 -45.425781 70.695312 -44.316406 71.21875 -42.921875 C 72.632812 -39.109375 72.179688 -35.597656 69.859375 -32.390625 C 68.242188 -30.203125 66.421875 -28.125 64.390625 -26.15625 C 62.367188 -24.195312 60.1875 -22.363281 57.84375 -20.65625 C 55.507812 -18.957031 53.085938 -17.429688 50.578125 -16.078125 C 48.066406 -14.734375 45.5625 -13.597656 43.0625 -12.671875 C 37.625 -10.660156 32.03125 -9.40625 26.28125 -8.90625 C 20.53125 -8.414062 15.234375 -9.066406 10.390625 -10.859375 C 5.921875 -12.546875 2.101562 -15.242188 -1.0625 -18.953125 C -4.226562 -22.671875 -6.804688 -27.21875 -8.796875 -32.59375 C -10.265625 -36.5625 -11.203125 -40.664062 -11.609375 -44.90625 C -12.015625 -49.144531 -11.953125 -53.367188 -11.421875 -57.578125 C -10.890625 -61.785156 -9.957031 -65.925781 -8.625 -70 C -7.300781 -74.082031 -5.644531 -77.957031 -3.65625 -81.625 C -1.625 -85.382812 0.519531 -88.789062 2.78125 -91.84375 C 5.039062 -94.894531 7.488281 -97.640625 10.125 -100.078125 C 12.769531 -102.523438 15.703125 -104.757812 18.921875 -106.78125 C 22.140625 -108.8125 25.691406 -110.671875 29.578125 -112.359375 C 30.285156 -112.710938 31.007812 -113.023438 31.75 -113.296875 C 32.488281 -113.566406 33.222656 -113.84375 33.953125 -114.125 C 36.085938 -114.90625 38.242188 -115.382812 40.421875 -115.5625 C 42.609375 -115.75 44.675781 -115.578125 46.625 -115.046875 C 48.582031 -114.515625 50.335938 -113.554688 51.890625 -112.171875 C 53.453125 -110.785156 54.671875 -108.914062 55.546875 -106.5625 Z M 55.546875 -106.5625 "/></g></g></g><g fill="#5c4f42" fill-opacity="1"><g transform="translate(377.631681, 140.338298)"><g><path d="M 79.5625 -26.59375 C 80.425781 -23.257812 80.085938 -20.257812 78.546875 -17.59375 C 77.015625 -14.9375 74.582031 -13.175781 71.25 -12.3125 C 68.8125 -11.6875 66.8125 -11.734375 65.25 -12.453125 C 63.6875 -13.179688 62.410156 -14.289062 61.421875 -15.78125 C 60.429688 -17.269531 59.628906 -18.96875 59.015625 -20.875 C 58.410156 -22.78125 57.878906 -24.601562 57.421875 -26.34375 C 57.328125 -26.71875 57.160156 -27.28125 56.921875 -28.03125 C 56.679688 -28.78125 56.488281 -29.296875 56.34375 -29.578125 C 53.5 -28.691406 50.71875 -27.796875 48 -26.890625 C 45.28125 -25.984375 42.476562 -25.15625 39.59375 -24.40625 C 35.71875 -23.40625 31.925781 -22.242188 28.21875 -20.921875 C 24.519531 -19.609375 20.8125 -18.148438 17.09375 -16.546875 C 16.175781 -14.453125 15.441406 -12.28125 14.890625 -10.03125 C 14.335938 -7.78125 13.382812 -5.675781 12.03125 -3.71875 C 11.0625 -2.164062 9.640625 -0.621094 7.765625 0.90625 C 5.890625 2.4375 4.039062 3.4375 2.21875 3.90625 C 0.769531 4.28125 -0.578125 4.304688 -1.828125 3.984375 C -3.085938 3.660156 -4.203125 3.097656 -5.171875 2.296875 C -6.140625 1.492188 -6.976562 0.496094 -7.6875 -0.6875 C -8.40625 -1.875 -8.929688 -3.113281 -9.265625 -4.40625 C -9.617188 -5.769531 -9.6875 -7.125 -9.46875 -8.46875 C -9.25 -9.820312 -8.878906 -11.132812 -8.359375 -12.40625 C -7.835938 -13.675781 -7.234375 -14.945312 -6.546875 -16.21875 C -5.859375 -17.488281 -5.265625 -18.710938 -4.765625 -19.890625 C -2.273438 -25.628906 0.21875 -31.332031 2.71875 -37 C 5.21875 -42.664062 7.65625 -48.429688 10.03125 -54.296875 C 11.738281 -58.628906 13.367188 -62.957031 14.921875 -67.28125 C 16.484375 -71.613281 17.976562 -76.023438 19.40625 -80.515625 C 20.820312 -84.753906 22.222656 -89.054688 23.609375 -93.421875 C 24.992188 -97.796875 26.695312 -102.019531 28.71875 -106.09375 C 29.4375 -107.65625 30.4375 -108.863281 31.71875 -109.71875 C 33 -110.582031 34.472656 -111.226562 36.140625 -111.65625 C 37.734375 -112.070312 39.390625 -112.238281 41.109375 -112.15625 C 42.828125 -112.070312 44.382812 -111.519531 45.78125 -110.5 C 47.675781 -109.132812 49.15625 -107.25 50.21875 -104.84375 C 51.28125 -102.445312 52.160156 -100.207031 52.859375 -98.125 C 53.566406 -96.039062 54.171875 -93.929688 54.671875 -91.796875 C 55.179688 -89.660156 55.863281 -87.566406 56.71875 -85.515625 C 59.238281 -79.203125 61.617188 -72.875 63.859375 -66.53125 C 66.109375 -60.195312 68.515625 -53.925781 71.078125 -47.71875 C 72.554688 -44.207031 74.097656 -40.738281 75.703125 -37.3125 C 77.316406 -33.882812 78.601562 -30.3125 79.5625 -26.59375 Z M 47.984375 -49.265625 C 46.597656 -53.367188 45.097656 -57.378906 43.484375 -61.296875 C 41.867188 -65.210938 40.078125 -69.097656 38.109375 -72.953125 C 35.304688 -67.546875 32.648438 -62.085938 30.140625 -56.578125 C 27.628906 -51.066406 25.296875 -45.445312 23.140625 -39.71875 C 27.429688 -40.976562 31.675781 -42.332031 35.875 -43.78125 C 40.070312 -45.226562 44.109375 -47.054688 47.984375 -49.265625 Z M 47.984375 -49.265625 "/></g></g></g><g fill="#5c4f42" fill-opacity="1"><g transform="translate(459.194407, 119.098779)"><g><path d="M 68.515625 -19.859375 C 68.710938 -18.609375 68.628906 -17.378906 68.265625 -16.171875 C 67.898438 -14.972656 67.335938 -13.859375 66.578125 -12.828125 C 65.828125 -11.796875 64.910156 -10.9375 63.828125 -10.25 C 62.753906 -9.5625 61.59375 -9.117188 60.34375 -8.921875 C 59.039062 -8.710938 57.734375 -8.582031 56.421875 -8.53125 C 55.117188 -8.488281 53.804688 -8.363281 52.484375 -8.15625 C 46.992188 -7.289062 41.601562 -6.023438 36.3125 -4.359375 C 31.03125 -2.691406 25.640625 -1.421875 20.140625 -0.546875 C 18.585938 -0.304688 17.039062 -0.0429688 15.5 0.234375 C 13.96875 0.515625 12.425781 0.773438 10.875 1.015625 C 9.394531 1.253906 7.96875 1.140625 6.59375 0.671875 C 5.21875 0.210938 3.976562 -0.476562 2.875 -1.40625 C 1.769531 -2.34375 0.835938 -3.445312 0.078125 -4.71875 C -0.671875 -5.988281 -1.15625 -7.316406 -1.375 -8.703125 C -1.6875 -10.722656 -1.765625 -12.734375 -1.609375 -14.734375 C -1.453125 -16.742188 -1.195312 -18.75 -0.84375 -20.75 C -0.488281 -22.757812 -0.0898438 -24.765625 0.34375 -26.765625 C 0.789062 -28.773438 1.097656 -30.75 1.265625 -32.6875 C 2.066406 -40.1875 3.015625 -47.613281 4.109375 -54.96875 C 5.203125 -62.332031 6.191406 -69.769531 7.078125 -77.28125 C 7.390625 -79.789062 7.523438 -82.289062 7.484375 -84.78125 C 7.453125 -87.269531 7.601562 -89.773438 7.9375 -92.296875 C 8.488281 -96.742188 10.9375 -99.3125 15.28125 -100 C 16.664062 -100.21875 18.117188 -100.171875 19.640625 -99.859375 C 21.160156 -99.546875 22.535156 -99.007812 23.765625 -98.25 C 24.992188 -97.488281 26.0625 -96.503906 26.96875 -95.296875 C 27.875 -94.085938 28.441406 -92.75 28.671875 -91.28125 C 28.984375 -89.269531 28.9375 -87.28125 28.53125 -85.3125 C 28.132812 -83.351562 27.648438 -81.414062 27.078125 -79.5 C 26.648438 -78.144531 26.296875 -76.847656 26.015625 -75.609375 C 25.742188 -74.378906 25.484375 -73.078125 25.234375 -71.703125 C 24.160156 -65.816406 23.269531 -59.960938 22.5625 -54.140625 C 21.863281 -48.316406 21.226562 -42.457031 20.65625 -36.5625 C 20.40625 -34.070312 20.195312 -31.601562 20.03125 -29.15625 C 19.875 -26.71875 19.832031 -24.238281 19.90625 -21.71875 C 25.394531 -22.582031 30.753906 -23.78125 35.984375 -25.3125 C 41.222656 -26.851562 46.585938 -28.054688 52.078125 -28.921875 C 53.703125 -29.179688 55.421875 -29.195312 57.234375 -28.96875 C 59.054688 -28.738281 60.738281 -28.269531 62.28125 -27.5625 C 63.820312 -26.851562 65.171875 -25.851562 66.328125 -24.5625 C 67.492188 -23.28125 68.222656 -21.710938 68.515625 -19.859375 Z M 68.515625 -19.859375 "/></g></g></g><g clip-path="url(#dc95c162f2)"><g fill="#5c4f42" fill-opacity="1"><g transform="translate(529.590383, 107.330545)"><g><path d="M 89.09375 -96.296875 C 89.332031 -92.628906 88.34375 -89.703125 86.125 -87.515625 C 83.914062 -85.328125 81.050781 -84.117188 77.53125 -83.890625 C 74.71875 -83.710938 71.9375 -83.890625 69.1875 -84.421875 C 66.445312 -84.953125 63.664062 -85.125 60.84375 -84.9375 C 56.394531 -84.65625 51.625 -84.078125 46.53125 -83.203125 C 41.445312 -82.328125 36.703125 -81.316406 32.296875 -80.171875 C 31.535156 -76.347656 30.703125 -72.582031 29.796875 -68.875 C 28.890625 -65.164062 28.09375 -61.40625 27.40625 -57.59375 C 33.082031 -58.351562 39.144531 -59.210938 45.59375 -60.171875 C 52.050781 -61.128906 58.132812 -61.796875 63.84375 -62.171875 C 65.019531 -62.242188 66.4375 -62.210938 68.09375 -62.078125 C 69.75 -61.953125 71.359375 -61.644531 72.921875 -61.15625 C 74.484375 -60.675781 75.828125 -59.957031 76.953125 -59 C 78.078125 -58.050781 78.6875 -56.832031 78.78125 -55.34375 C 79.363281 -46.28125 75.117188 -41.457031 66.046875 -40.875 C 64.472656 -40.769531 62.914062 -40.785156 61.375 -40.921875 C 59.84375 -41.066406 58.296875 -41.085938 56.734375 -40.984375 C 54.078125 -40.816406 51.289062 -40.535156 48.375 -40.140625 C 45.457031 -39.753906 42.539062 -39.289062 39.625 -38.75 C 36.707031 -38.207031 33.816406 -37.59375 30.953125 -36.90625 C 28.097656 -36.226562 25.40625 -35.453125 22.875 -34.578125 C 22.40625 -32.023438 21.992188 -29.484375 21.640625 -26.953125 C 21.296875 -24.421875 20.929688 -21.882812 20.546875 -19.34375 L 25.125 -19.640625 C 27.539062 -19.796875 30.078125 -20 32.734375 -20.25 C 35.390625 -20.5 38.0625 -20.785156 40.75 -21.109375 C 43.4375 -21.441406 46.101562 -21.847656 48.75 -22.328125 C 51.394531 -22.804688 53.867188 -23.351562 56.171875 -23.96875 C 57.722656 -24.394531 59.265625 -24.890625 60.796875 -25.453125 C 62.328125 -26.023438 63.914062 -26.363281 65.5625 -26.46875 C 68.769531 -26.675781 71.101562 -25.765625 72.5625 -23.734375 C 74.03125 -21.710938 74.859375 -19.25 75.046875 -16.34375 C 75.210938 -13.6875 74.832031 -11.566406 73.90625 -9.984375 C 72.988281 -8.398438 71.734375 -7.164062 70.140625 -6.28125 C 68.554688 -5.394531 66.738281 -4.765625 64.6875 -4.390625 C 62.632812 -4.015625 60.546875 -3.722656 58.421875 -3.515625 C 55.847656 -3.265625 53.132812 -3.046875 50.28125 -2.859375 C 47.425781 -2.679688 44.578125 -2.441406 41.734375 -2.140625 C 38.890625 -1.847656 36.0625 -1.507812 33.25 -1.125 C 30.445312 -0.75 27.773438 -0.242188 25.234375 0.390625 C 23.066406 0.921875 20.898438 1.429688 18.734375 1.921875 C 16.566406 2.410156 14.347656 2.726562 12.078125 2.875 C 8.242188 3.125 4.925781 2.195312 2.125 0.09375 C -0.675781 -1.996094 -2.207031 -5.039062 -2.46875 -9.03125 C -2.601562 -11.207031 -2.320312 -13.300781 -1.625 -15.3125 C -0.925781 -17.332031 -0.375 -19.375 0.03125 -21.4375 C 1.851562 -30.820312 3.707031 -40.109375 5.59375 -49.296875 C 7.476562 -58.492188 9.265625 -67.773438 10.953125 -77.140625 C 11.429688 -79.453125 11.710938 -81.804688 11.796875 -84.203125 C 11.878906 -86.609375 12.238281 -88.972656 12.875 -91.296875 C 13.570312 -93.691406 14.582031 -95.597656 15.90625 -97.015625 C 17.238281 -98.429688 19.140625 -99.421875 21.609375 -99.984375 C 23.398438 -100.410156 25.191406 -100.660156 26.984375 -100.734375 C 28.785156 -100.804688 30.582031 -100.976562 32.375 -101.25 C 38.820312 -102.300781 45.59375 -103.191406 52.6875 -103.921875 C 59.789062 -104.648438 66.585938 -105.222656 73.078125 -105.640625 C 75.035156 -105.765625 76.953125 -105.828125 78.828125 -105.828125 C 80.710938 -105.835938 82.382812 -105.550781 83.84375 -104.96875 C 85.300781 -104.394531 86.5 -103.429688 87.4375 -102.078125 C 88.382812 -100.734375 88.9375 -98.804688 89.09375 -96.296875 Z M 89.09375 -96.296875 "/></g></g></g></g><g fill="#5c4f42" fill-opacity="1"><g transform="translate(608.516429, 102.565098)"><g/></g></g><g fill="#5c4f42" fill-opacity="1"><g transform="translate(651.687349, 101.837177)"><g><path d="M 83.875 1.703125 C 83.5625 5.128906 82.234375 7.835938 79.890625 9.828125 C 77.554688 11.816406 74.671875 12.65625 71.234375 12.34375 C 68.734375 12.113281 66.867188 11.394531 65.640625 10.1875 C 64.410156 8.976562 63.578125 7.507812 63.140625 5.78125 C 62.710938 4.050781 62.53125 2.179688 62.59375 0.171875 C 62.664062 -1.828125 62.78125 -3.722656 62.9375 -5.515625 C 62.976562 -5.898438 63.007812 -6.484375 63.03125 -7.265625 C 63.0625 -8.054688 63.054688 -8.613281 63.015625 -8.9375 C 60.035156 -9.039062 57.109375 -9.125 54.234375 -9.1875 C 51.367188 -9.25 48.453125 -9.414062 45.484375 -9.6875 C 41.503906 -10.039062 37.546875 -10.21875 33.609375 -10.21875 C 29.679688 -10.226562 25.703125 -10.101562 21.671875 -9.84375 C 20.097656 -8.175781 18.671875 -6.375 17.390625 -4.4375 C 16.117188 -2.507812 14.515625 -0.847656 12.578125 0.546875 C 11.140625 1.679688 9.28125 2.65625 7 3.46875 C 4.726562 4.28125 2.65625 4.601562 0.78125 4.4375 C -0.707031 4.300781 -1.988281 3.867188 -3.0625 3.140625 C -4.132812 2.410156 -4.992188 1.503906 -5.640625 0.421875 C -6.296875 -0.660156 -6.757812 -1.878906 -7.03125 -3.234375 C -7.300781 -4.585938 -7.375 -5.925781 -7.25 -7.25 C -7.125 -8.664062 -6.726562 -9.972656 -6.0625 -11.171875 C -5.40625 -12.367188 -4.617188 -13.476562 -3.703125 -14.5 C -2.785156 -15.519531 -1.789062 -16.507812 -0.71875 -17.46875 C 0.339844 -18.4375 1.316406 -19.394531 2.203125 -20.34375 C 6.460938 -24.914062 10.722656 -29.445312 14.984375 -33.9375 C 19.242188 -38.425781 23.484375 -43.039062 27.703125 -47.78125 C 30.765625 -51.269531 33.753906 -54.789062 36.671875 -58.34375 C 39.585938 -61.894531 42.476562 -65.550781 45.34375 -69.3125 C 48.09375 -72.832031 50.851562 -76.410156 53.625 -80.046875 C 56.394531 -83.691406 59.421875 -87.101562 62.703125 -90.28125 C 63.910156 -91.507812 65.257812 -92.3125 66.75 -92.6875 C 68.238281 -93.0625 69.847656 -93.171875 71.578125 -93.015625 C 73.210938 -92.867188 74.828125 -92.46875 76.421875 -91.8125 C 78.015625 -91.15625 79.289062 -90.113281 80.25 -88.6875 C 81.582031 -86.757812 82.34375 -84.488281 82.53125 -81.875 C 82.726562 -79.269531 82.804688 -76.863281 82.765625 -74.65625 C 82.722656 -72.457031 82.582031 -70.265625 82.34375 -68.078125 C 82.101562 -65.898438 82.039062 -63.703125 82.15625 -61.484375 C 82.414062 -54.691406 82.535156 -47.929688 82.515625 -41.203125 C 82.492188 -34.484375 82.648438 -27.769531 82.984375 -21.0625 C 83.203125 -17.25 83.488281 -13.457031 83.84375 -9.6875 C 84.207031 -5.925781 84.21875 -2.128906 83.875 1.703125 Z M 61.75 -30.296875 C 61.820312 -34.617188 61.753906 -38.894531 61.546875 -43.125 C 61.347656 -47.351562 60.972656 -51.613281 60.421875 -55.90625 C 55.941406 -51.75 51.597656 -47.5 47.390625 -43.15625 C 43.179688 -38.820312 39.097656 -34.3125 35.140625 -29.625 C 39.609375 -29.375 44.0625 -29.222656 48.5 -29.171875 C 52.9375 -29.128906 57.351562 -29.503906 61.75 -30.296875 Z M 61.75 -30.296875 "/></g></g></g><g fill="#5c4f42" fill-opacity="1"><g transform="translate(724.310675, 107.531446)"><g><path d="M 114.1875 -67.875 C 113.4375 -63.71875 111.835938 -61.054688 109.390625 -59.890625 C 106.953125 -58.734375 103.804688 -58.503906 99.953125 -59.203125 C 97.953125 -59.554688 95.957031 -59.972656 93.96875 -60.453125 C 91.988281 -60.929688 90 -61.347656 88 -61.703125 C 86.445312 -61.984375 84.90625 -62.179688 83.375 -62.296875 C 81.84375 -62.410156 80.332031 -62.285156 78.84375 -61.921875 C 75.738281 -55.304688 72.664062 -48.769531 69.625 -42.3125 C 66.59375 -35.851562 63.5 -29.363281 60.34375 -22.84375 C 58.84375 -19.78125 57.519531 -16.613281 56.375 -13.34375 C 55.226562 -10.082031 54.050781 -6.851562 52.84375 -3.65625 C 52.101562 -1.71875 51.320312 0.207031 50.5 2.125 C 49.675781 4.050781 48.675781 5.867188 47.5 7.578125 C 46 9.691406 44.253906 11.304688 42.265625 12.421875 C 40.273438 13.535156 37.96875 13.859375 35.34375 13.390625 C 34.03125 13.148438 32.765625 12.660156 31.546875 11.921875 C 30.328125 11.191406 29.289062 10.289062 28.4375 9.21875 C 27.59375 8.15625 26.972656 6.96875 26.578125 5.65625 C 26.179688 4.351562 26.109375 3.003906 26.359375 1.609375 C 26.679688 -0.230469 27.351562 -2.234375 28.375 -4.390625 C 29.40625 -6.554688 30.582031 -8.773438 31.90625 -11.046875 C 33.226562 -13.328125 34.539062 -15.5625 35.84375 -17.75 C 37.15625 -19.9375 38.25 -21.910156 39.125 -23.671875 C 42.40625 -30.484375 45.515625 -37.304688 48.453125 -44.140625 C 51.398438 -50.984375 54.414062 -57.867188 57.5 -64.796875 C 54.101562 -65.398438 50.734375 -65.84375 47.390625 -66.125 C 44.054688 -66.40625 40.691406 -66.851562 37.296875 -67.46875 C 35.054688 -67.863281 33.140625 -68.363281 31.546875 -68.96875 C 29.953125 -69.570312 28.671875 -70.398438 27.703125 -71.453125 C 26.734375 -72.503906 26.09375 -73.832031 25.78125 -75.4375 C 25.476562 -77.050781 25.550781 -79.09375 26 -81.5625 C 26.550781 -84.65625 27.882812 -86.785156 30 -87.953125 C 32.125 -89.117188 34.570312 -89.769531 37.34375 -89.90625 C 40.113281 -90.039062 42.941406 -89.847656 45.828125 -89.328125 C 48.722656 -88.816406 51.210938 -88.375 53.296875 -88 C 60.773438 -86.65625 68.21875 -85.535156 75.625 -84.640625 C 83.03125 -83.753906 90.523438 -82.945312 98.109375 -82.21875 C 98.828125 -82.175781 99.554688 -82.109375 100.296875 -82.015625 C 101.035156 -81.921875 101.75 -81.8125 102.4375 -81.6875 C 104.132812 -81.382812 105.769531 -80.851562 107.34375 -80.09375 C 108.914062 -79.332031 110.253906 -78.351562 111.359375 -77.15625 C 112.460938 -75.96875 113.289062 -74.585938 113.84375 -73.015625 C 114.40625 -71.441406 114.519531 -69.726562 114.1875 -67.875 Z M 114.1875 -67.875 "/></g></g></g><g fill="#5c4f42" fill-opacity="1"><g transform="translate(803.369433, 121.242181)"><g><path d="M 116.09375 -61.125 C 115.09375 -57.582031 113.1875 -55.148438 110.375 -53.828125 C 107.5625 -52.503906 104.453125 -52.320312 101.046875 -53.28125 C 98.335938 -54.050781 95.773438 -55.144531 93.359375 -56.5625 C 90.941406 -57.976562 88.375 -59.066406 85.65625 -59.828125 C 81.375 -61.046875 76.6875 -62.085938 71.59375 -62.953125 C 66.507812 -63.816406 61.695312 -64.445312 57.15625 -64.84375 C 55.164062 -61.5 53.125 -58.222656 51.03125 -55.015625 C 48.945312 -51.816406 46.941406 -48.539062 45.015625 -45.1875 C 50.617188 -44.007812 56.625 -42.796875 63.03125 -41.546875 C 69.445312 -40.304688 75.410156 -38.910156 80.921875 -37.359375 C 82.046875 -37.035156 83.367188 -36.535156 84.890625 -35.859375 C 86.410156 -35.191406 87.820312 -34.363281 89.125 -33.375 C 90.4375 -32.394531 91.460938 -31.269531 92.203125 -30 C 92.953125 -28.738281 93.125 -27.390625 92.71875 -25.953125 C 90.25 -17.210938 84.640625 -14.078125 75.890625 -16.546875 C 74.367188 -16.972656 72.90625 -17.503906 71.5 -18.140625 C 70.101562 -18.785156 68.65625 -19.320312 67.15625 -19.75 C 64.59375 -20.46875 61.867188 -21.132812 58.984375 -21.75 C 56.097656 -22.363281 53.191406 -22.894531 50.265625 -23.34375 C 47.335938 -23.800781 44.410156 -24.179688 41.484375 -24.484375 C 38.554688 -24.796875 35.753906 -24.957031 33.078125 -24.96875 C 31.785156 -22.726562 30.554688 -20.472656 29.390625 -18.203125 C 28.222656 -15.929688 27.035156 -13.660156 25.828125 -11.390625 L 30.21875 -10.15625 C 32.5625 -9.488281 35.023438 -8.828125 37.609375 -8.171875 C 40.191406 -7.523438 42.804688 -6.910156 45.453125 -6.328125 C 48.097656 -5.742188 50.75 -5.238281 53.40625 -4.8125 C 56.0625 -4.394531 58.578125 -4.09375 60.953125 -3.90625 C 62.546875 -3.789062 64.160156 -3.742188 65.796875 -3.765625 C 67.441406 -3.785156 69.054688 -3.570312 70.640625 -3.125 C 73.722656 -2.25 75.617188 -0.613281 76.328125 1.78125 C 77.035156 4.175781 76.992188 6.773438 76.203125 9.578125 C 75.484375 12.140625 74.421875 14.015625 73.015625 15.203125 C 71.617188 16.390625 70.019531 17.132812 68.21875 17.4375 C 66.425781 17.738281 64.5 17.722656 62.4375 17.390625 C 60.382812 17.066406 58.328125 16.648438 56.265625 16.140625 C 53.753906 15.515625 51.125 14.8125 48.375 14.03125 C 45.625 13.257812 42.859375 12.539062 40.078125 11.875 C 37.296875 11.207031 34.515625 10.582031 31.734375 10 C 28.960938 9.425781 26.269531 9.015625 23.65625 8.765625 C 21.4375 8.546875 19.222656 8.304688 17.015625 8.046875 C 14.816406 7.785156 12.625 7.347656 10.4375 6.734375 C 6.738281 5.679688 3.914062 3.703125 1.96875 0.796875 C 0.03125 -2.109375 -0.386719 -5.488281 0.703125 -9.34375 C 1.296875 -11.445312 2.253906 -13.332031 3.578125 -15 C 4.898438 -16.664062 6.097656 -18.398438 7.171875 -20.203125 C 12.023438 -28.441406 16.867188 -36.578125 21.703125 -44.609375 C 26.535156 -52.648438 31.3125 -60.8125 36.03125 -69.09375 C 37.238281 -71.113281 38.28125 -73.238281 39.15625 -75.46875 C 40.039062 -77.695312 41.164062 -79.804688 42.53125 -81.796875 C 44 -83.816406 45.59375 -85.273438 47.3125 -86.171875 C 49.039062 -87.078125 51.160156 -87.378906 53.671875 -87.078125 C 55.492188 -86.890625 57.265625 -86.53125 58.984375 -86 C 60.710938 -85.46875 62.460938 -85.03125 64.234375 -84.6875 C 70.671875 -83.53125 77.351562 -82.113281 84.28125 -80.4375 C 91.21875 -78.757812 97.820312 -77.035156 104.09375 -75.265625 C 105.976562 -74.734375 107.804688 -74.15625 109.578125 -73.53125 C 111.359375 -72.914062 112.835938 -72.09375 114.015625 -71.0625 C 115.191406 -70.039062 116.003906 -68.734375 116.453125 -67.140625 C 116.898438 -65.546875 116.78125 -63.539062 116.09375 -61.125 Z M 116.09375 -61.125 "/></g></g></g><g fill="#5c4f42" fill-opacity="1"><g transform="translate(879.02194, 142.290066)"><g><path d="M 69.25 17.109375 C 68.789062 18.285156 68.101562 19.304688 67.1875 20.171875 C 66.269531 21.035156 65.226562 21.722656 64.0625 22.234375 C 62.894531 22.742188 61.671875 23.023438 60.390625 23.078125 C 59.109375 23.128906 57.878906 22.929688 56.703125 22.484375 C 55.460938 22.003906 54.265625 21.457031 53.109375 20.84375 C 51.960938 20.238281 50.769531 19.695312 49.53125 19.21875 C 44.332031 17.21875 39.023438 15.613281 33.609375 14.40625 C 28.203125 13.207031 22.898438 11.609375 17.703125 9.609375 C 16.242188 9.046875 14.78125 8.5 13.3125 7.96875 C 11.84375 7.4375 10.375 6.882812 8.90625 6.3125 C 7.507812 5.78125 6.328125 4.972656 5.359375 3.890625 C 4.398438 2.804688 3.675781 1.582031 3.1875 0.21875 C 2.707031 -1.144531 2.457031 -2.5625 2.4375 -4.03125 C 2.414062 -5.507812 2.660156 -6.90625 3.171875 -8.21875 C 3.898438 -10.125 4.832031 -11.90625 5.96875 -13.5625 C 7.113281 -15.226562 8.34375 -16.835938 9.65625 -18.390625 C 10.96875 -19.941406 12.316406 -21.476562 13.703125 -23 C 15.097656 -24.519531 16.351562 -26.078125 17.46875 -27.671875 C 21.90625 -33.753906 26.441406 -39.703125 31.078125 -45.515625 C 35.722656 -51.335938 40.300781 -57.285156 44.8125 -63.359375 C 46.34375 -65.367188 47.71875 -67.460938 48.9375 -69.640625 C 50.15625 -71.816406 51.53125 -73.910156 53.0625 -75.921875 C 55.78125 -79.492188 59.191406 -80.488281 63.296875 -78.90625 C 64.609375 -78.394531 65.84375 -77.625 67 -76.59375 C 68.15625 -75.5625 69.070312 -74.40625 69.75 -73.125 C 70.4375 -71.851562 70.867188 -70.472656 71.046875 -68.984375 C 71.222656 -67.492188 71.046875 -66.050781 70.515625 -64.65625 C 69.785156 -62.757812 68.753906 -61.054688 67.421875 -59.546875 C 66.085938 -58.046875 64.691406 -56.613281 63.234375 -55.25 C 62.191406 -54.300781 61.238281 -53.359375 60.375 -52.421875 C 59.519531 -51.492188 58.632812 -50.5 57.71875 -49.4375 C 53.863281 -44.875 50.171875 -40.25 46.640625 -35.5625 C 43.117188 -30.875 39.628906 -26.125 36.171875 -21.3125 C 34.722656 -19.28125 33.3125 -17.242188 31.9375 -15.203125 C 30.5625 -13.171875 29.28125 -11.046875 28.09375 -8.828125 C 33.289062 -6.828125 38.535156 -5.179688 43.828125 -3.890625 C 49.128906 -2.597656 54.375 -0.949219 59.5625 1.046875 C 61.101562 1.640625 62.597656 2.488281 64.046875 3.59375 C 65.503906 4.695312 66.722656 5.9375 67.703125 7.3125 C 68.691406 8.695312 69.363281 10.238281 69.71875 11.9375 C 70.070312 13.632812 69.914062 15.359375 69.25 17.109375 Z M 69.25 17.109375 "/></g></g></g><g fill="#5c4f42" fill-opacity="1"><g transform="translate(945.960501, 167.774507)"><g><path d="M 108.921875 -42.359375 C 108.035156 -40.535156 106.945312 -39.191406 105.65625 -38.328125 C 104.363281 -37.472656 102.960938 -36.972656 101.453125 -36.828125 C 99.953125 -36.679688 98.398438 -36.847656 96.796875 -37.328125 C 95.203125 -37.804688 93.625 -38.425781 92.0625 -39.1875 C 90.582031 -39.90625 89.160156 -40.703125 87.796875 -41.578125 C 86.441406 -42.453125 85.023438 -43.25 83.546875 -43.96875 C 83.191406 -44.132812 82.835938 -44.300781 82.484375 -44.46875 C 82.140625 -44.644531 81.769531 -44.789062 81.375 -44.90625 C 79.445312 -43.570312 77.628906 -42.050781 75.921875 -40.34375 C 74.222656 -38.644531 72.578125 -36.832031 70.984375 -34.90625 C 69.390625 -32.976562 67.859375 -31.039062 66.390625 -29.09375 C 64.929688 -27.15625 63.457031 -25.28125 61.96875 -23.46875 C 58.6875 -19.582031 55.507812 -15.679688 52.4375 -11.765625 C 49.363281 -7.859375 46.394531 -3.855469 43.53125 0.234375 C 43.914062 0.503906 44.316406 0.742188 44.734375 0.953125 C 45.160156 1.160156 45.582031 1.363281 46 1.5625 C 47.769531 2.425781 49.5625 3.226562 51.375 3.96875 C 53.195312 4.71875 54.992188 5.519531 56.765625 6.375 C 60.140625 8.019531 61.910156 9.972656 62.078125 12.234375 C 62.242188 14.492188 61.609375 17.101562 60.171875 20.0625 C 59.242188 21.96875 57.960938 23.347656 56.328125 24.203125 C 54.691406 25.066406 52.953125 25.550781 51.109375 25.65625 C 49.273438 25.769531 47.425781 25.59375 45.5625 25.125 C 43.695312 24.664062 42.023438 24.078125 40.546875 23.359375 C 38.492188 22.359375 36.503906 21.28125 34.578125 20.125 C 32.660156 18.976562 30.675781 17.910156 28.625 16.921875 C 26.15625 15.722656 23.710938 14.601562 21.296875 13.5625 C 18.890625 12.519531 16.453125 11.398438 13.984375 10.203125 C 12.367188 9.410156 10.734375 8.785156 9.078125 8.328125 C 7.421875 7.867188 5.785156 7.25 4.171875 6.46875 C 2.617188 5.71875 1.425781 4.722656 0.59375 3.484375 C -0.238281 2.253906 -0.757812 0.914062 -0.96875 -0.53125 C -1.1875 -1.988281 -1.144531 -3.472656 -0.84375 -4.984375 C -0.550781 -6.492188 -0.0585938 -7.957031 0.625 -9.375 C 1.789062 -11.757812 3.269531 -13.28125 5.0625 -13.9375 C 6.863281 -14.59375 8.769531 -14.757812 10.78125 -14.4375 C 12.800781 -14.113281 14.832031 -13.453125 16.875 -12.453125 C 18.925781 -11.460938 20.796875 -10.554688 22.484375 -9.734375 C 22.835938 -9.554688 23.132812 -9.410156 23.375 -9.296875 C 23.625 -9.179688 23.941406 -9.066406 24.328125 -8.953125 C 25.515625 -10.828125 26.914062 -12.71875 28.53125 -14.625 C 30.15625 -16.539062 31.820312 -18.453125 33.53125 -20.359375 C 35.238281 -22.273438 36.9375 -24.148438 38.625 -25.984375 C 40.3125 -27.828125 41.894531 -29.65625 43.375 -31.46875 C 46.351562 -35.070312 49.25 -38.695312 52.0625 -42.34375 C 54.875 -45.988281 57.675781 -49.703125 60.46875 -53.484375 C 60.21875 -53.691406 59.8125 -53.929688 59.25 -54.203125 C 58.613281 -54.503906 57.953125 -54.800781 57.265625 -55.09375 C 56.585938 -55.394531 55.929688 -55.703125 55.296875 -56.015625 C 52.265625 -57.484375 50.242188 -59.375 49.234375 -61.6875 C 48.222656 -64.007812 48.488281 -66.753906 50.03125 -69.921875 C 51.707031 -73.378906 53.953125 -75.488281 56.765625 -76.25 C 59.578125 -77.019531 62.671875 -76.582031 66.046875 -74.9375 C 68.515625 -73.738281 70.914062 -72.484375 73.25 -71.171875 C 75.582031 -69.867188 77.976562 -68.617188 80.4375 -67.421875 C 83.257812 -66.054688 86.097656 -64.722656 88.953125 -63.421875 C 91.804688 -62.117188 94.675781 -60.851562 97.5625 -59.625 C 99.007812 -59.019531 100.472656 -58.441406 101.953125 -57.890625 C 103.429688 -57.347656 104.875 -56.738281 106.28125 -56.0625 C 107.550781 -55.4375 108.507812 -54.578125 109.15625 -53.484375 C 109.800781 -52.398438 110.179688 -51.21875 110.296875 -49.9375 C 110.421875 -48.65625 110.359375 -47.351562 110.109375 -46.03125 C 109.867188 -44.71875 109.472656 -43.492188 108.921875 -42.359375 Z M 108.921875 -42.359375 "/></g></g></g><g fill="#5c4f42" fill-opacity="1"><g transform="translate(1004.69153, 195.451023)"><g><path d="M 128.046875 -28.5625 C 126.160156 -25.40625 123.679688 -23.554688 120.609375 -23.015625 C 117.546875 -22.472656 114.503906 -23.109375 111.484375 -24.921875 C 109.054688 -26.378906 106.863281 -28.109375 104.90625 -30.109375 C 102.957031 -32.109375 100.773438 -33.832031 98.359375 -35.28125 C 94.535156 -37.582031 90.28125 -39.816406 85.59375 -41.984375 C 80.90625 -44.148438 76.425781 -46.019531 72.15625 -47.59375 C 69.351562 -44.882812 66.523438 -42.257812 63.671875 -39.71875 C 60.816406 -37.1875 58.019531 -34.546875 55.28125 -31.796875 C 60.382812 -29.191406 65.863281 -26.445312 71.71875 -23.5625 C 77.582031 -20.6875 82.96875 -17.78125 87.875 -14.84375 C 88.882812 -14.238281 90.035156 -13.410156 91.328125 -12.359375 C 92.617188 -11.304688 93.765625 -10.132812 94.765625 -8.84375 C 95.773438 -7.550781 96.472656 -6.191406 96.859375 -4.765625 C 97.242188 -3.347656 97.050781 -2.003906 96.28125 -0.734375 C 91.601562 7.054688 85.363281 8.609375 77.5625 3.921875 C 76.21875 3.117188 74.953125 2.222656 73.765625 1.234375 C 72.585938 0.242188 71.328125 -0.648438 69.984375 -1.453125 C 67.703125 -2.828125 65.25 -4.179688 62.625 -5.515625 C 60 -6.859375 57.332031 -8.132812 54.625 -9.34375 C 51.925781 -10.5625 49.203125 -11.695312 46.453125 -12.75 C 43.710938 -13.8125 41.046875 -14.703125 38.453125 -15.421875 C 36.628906 -13.597656 34.851562 -11.742188 33.125 -9.859375 C 31.394531 -7.972656 29.648438 -6.097656 27.890625 -4.234375 L 31.828125 -1.875 C 33.898438 -0.625 36.097656 0.648438 38.421875 1.953125 C 40.753906 3.265625 43.117188 4.550781 45.515625 5.8125 C 47.921875 7.070312 50.34375 8.25 52.78125 9.34375 C 55.226562 10.445312 57.582031 11.40625 59.84375 12.21875 C 61.363281 12.75 62.914062 13.21875 64.5 13.625 C 66.082031 14.03125 67.578125 14.65625 68.984375 15.5 C 71.734375 17.15625 73.132812 19.226562 73.1875 21.71875 C 73.25 24.21875 72.53125 26.710938 71.03125 29.203125 C 69.664062 31.492188 68.148438 33.03125 66.484375 33.8125 C 64.828125 34.59375 63.09375 34.894531 61.28125 34.71875 C 59.46875 34.539062 57.609375 34.019531 55.703125 33.15625 C 53.804688 32.300781 51.925781 31.359375 50.0625 30.328125 C 47.800781 29.066406 45.441406 27.703125 42.984375 26.234375 C 40.535156 24.765625 38.054688 23.34375 35.546875 21.96875 C 33.046875 20.59375 30.53125 19.257812 28 17.96875 C 25.476562 16.6875 22.988281 15.585938 20.53125 14.671875 C 18.445312 13.867188 16.375 13.050781 14.3125 12.21875 C 12.25 11.394531 10.25 10.398438 8.3125 9.234375 C 5.007812 7.253906 2.800781 4.601562 1.6875 1.28125 C 0.570312 -2.03125 1.046875 -5.398438 3.109375 -8.828125 C 4.234375 -10.703125 5.65625 -12.269531 7.375 -13.53125 C 9.09375 -14.789062 10.707031 -16.15625 12.21875 -17.625 C 19.0625 -24.300781 25.867188 -30.882812 32.640625 -37.375 C 39.410156 -43.863281 46.15625 -50.484375 52.875 -57.234375 C 54.582031 -58.859375 56.148438 -60.632812 57.578125 -62.5625 C 59.003906 -64.488281 60.640625 -66.226562 62.484375 -67.78125 C 64.441406 -69.351562 66.363281 -70.34375 68.25 -70.75 C 70.144531 -71.164062 72.269531 -70.90625 74.625 -69.96875 C 76.332031 -69.300781 77.945312 -68.484375 79.46875 -67.515625 C 81 -66.554688 82.578125 -65.679688 84.203125 -64.890625 C 90.097656 -62.085938 96.171875 -58.960938 102.421875 -55.515625 C 108.679688 -52.078125 114.597656 -48.6875 120.171875 -45.34375 C 121.859375 -44.332031 123.476562 -43.296875 125.03125 -42.234375 C 126.582031 -41.171875 127.789062 -39.988281 128.65625 -38.6875 C 129.519531 -37.394531 129.957031 -35.921875 129.96875 -34.265625 C 129.976562 -32.609375 129.335938 -30.707031 128.046875 -28.5625 Z M 128.046875 -28.5625 "/></g></g></g><g fill="#5c4f42" fill-opacity="1"><g transform="translate(1072.174922, 234.852332)"><g><path d="M 123.25 7.359375 C 120.375 11.179688 116.96875 14.039062 113.03125 15.9375 C 109.09375 17.832031 104.9375 19.046875 100.5625 19.578125 C 96.195312 20.117188 91.738281 20.113281 87.1875 19.5625 C 82.632812 19.019531 78.3125 18.144531 74.21875 16.9375 C 75.03125 20.289062 75.609375 23.71875 75.953125 27.21875 C 76.304688 30.726562 76.472656 34.191406 76.453125 37.609375 C 76.410156 40.128906 75.660156 42.363281 74.203125 44.3125 C 73.390625 45.375 72.425781 46.289062 71.3125 47.0625 C 70.195312 47.832031 69.003906 48.40625 67.734375 48.78125 C 66.472656 49.15625 65.171875 49.253906 63.828125 49.078125 C 62.492188 48.898438 61.265625 48.382812 60.140625 47.53125 C 58.140625 46.019531 56.679688 44.28125 55.765625 42.3125 C 54.847656 40.351562 54.203125 38.28125 53.828125 36.09375 C 53.460938 33.90625 53.234375 31.664062 53.140625 29.375 C 53.046875 27.09375 52.84375 24.859375 52.53125 22.671875 C 52.1875 20.535156 51.738281 18.425781 51.1875 16.34375 C 50.644531 14.269531 49.984375 12.253906 49.203125 10.296875 C 48.722656 9.242188 47.984375 8.144531 46.984375 7 C 45.984375 5.863281 44.867188 4.734375 43.640625 3.609375 C 42.421875 2.492188 41.171875 1.453125 39.890625 0.484375 C 38.609375 -0.480469 37.492188 -1.320312 36.546875 -2.03125 L 34.6875 -3.4375 C 33.257812 -2.84375 31.773438 -1.945312 30.234375 -0.75 C 28.703125 0.433594 27.109375 1.734375 25.453125 3.140625 C 23.804688 4.546875 22.09375 5.90625 20.3125 7.21875 C 18.539062 8.53125 16.785156 9.5625 15.046875 10.3125 C 13.304688 11.0625 11.585938 11.457031 9.890625 11.5 C 8.191406 11.539062 6.523438 10.945312 4.890625 9.71875 C 3.773438 8.863281 2.847656 7.84375 2.109375 6.65625 C 1.378906 5.476562 0.890625 4.207031 0.640625 2.84375 C 0.398438 1.476562 0.421875 0.117188 0.703125 -1.234375 C 0.992188 -2.585938 1.5625 -3.828125 2.40625 -4.953125 C 3.351562 -6.210938 4.503906 -7.382812 5.859375 -8.46875 C 7.222656 -9.550781 8.664062 -10.546875 10.1875 -11.453125 C 11.707031 -12.367188 13.226562 -13.253906 14.75 -14.109375 C 16.28125 -14.972656 17.710938 -15.832031 19.046875 -16.6875 C 22.847656 -19.125 26.59375 -21.550781 30.28125 -23.96875 C 33.976562 -26.394531 37.65625 -28.925781 41.3125 -31.5625 C 44.757812 -34.0625 48.035156 -36.71875 51.140625 -39.53125 C 54.242188 -42.351562 57.222656 -45.332031 60.078125 -48.46875 C 60.148438 -50.382812 60.800781 -52.15625 62.03125 -53.78125 C 63.539062 -55.789062 65.578125 -57.03125 68.140625 -57.5 C 70.710938 -57.96875 73.535156 -57.898438 76.609375 -57.296875 C 79.679688 -56.691406 82.890625 -55.710938 86.234375 -54.359375 C 89.585938 -53.015625 92.789062 -51.535156 95.84375 -49.921875 C 98.90625 -48.316406 101.707031 -46.695312 104.25 -45.0625 C 106.800781 -43.4375 108.796875 -42.082031 110.234375 -41 C 112.617188 -39.207031 114.875 -37.316406 117 -35.328125 C 119.125 -33.335938 121.175781 -31.242188 123.15625 -29.046875 C 125.414062 -26.554688 127.054688 -23.75 128.078125 -20.625 C 129.109375 -17.5 129.585938 -14.289062 129.515625 -11 C 129.441406 -7.71875 128.859375 -4.476562 127.765625 -1.28125 C 126.679688 1.914062 125.175781 4.796875 123.25 7.359375 Z M 107.6875 -4.796875 C 108.820312 -6.304688 109.289062 -7.742188 109.09375 -9.109375 C 108.894531 -10.484375 108.25 -11.878906 107.15625 -13.296875 C 105.3125 -15.660156 103.28125 -17.875 101.0625 -19.9375 C 98.851562 -22 96.554688 -23.929688 94.171875 -25.734375 C 88.421875 -30.066406 82.238281 -33.390625 75.625 -35.703125 C 73.539062 -34.628906 71.613281 -33.335938 69.84375 -31.828125 C 68.082031 -30.328125 66.378906 -28.75 64.734375 -27.09375 C 63.085938 -25.4375 61.425781 -23.789062 59.75 -22.15625 C 58.070312 -20.519531 56.265625 -19.0625 54.328125 -17.78125 C 55.421875 -16.757812 56.492188 -15.773438 57.546875 -14.828125 C 58.597656 -13.890625 59.722656 -12.972656 60.921875 -12.078125 C 62.546875 -10.847656 64.597656 -9.539062 67.078125 -8.15625 C 69.566406 -6.78125 72.269531 -5.453125 75.1875 -4.171875 C 78.113281 -2.898438 81.160156 -1.832031 84.328125 -0.96875 C 87.492188 -0.101562 90.546875 0.398438 93.484375 0.546875 C 96.421875 0.703125 99.125 0.382812 101.59375 -0.40625 C 104.0625 -1.207031 106.09375 -2.671875 107.6875 -4.796875 Z M 107.6875 -4.796875 "/></g></g></g><g fill="#5c4f42" fill-opacity="1"><g transform="translate(1146.243756, 291.465001)"><g/></g></g></g></g></svg>