<svg xmlns="http://www.w3.org/2000/svg" xmlns:xlink="http://www.w3.org/1999/xlink" width="2000" zoomAndPan="magnify" viewBox="0 0 1500 1499.999933" height="2000" preserveAspectRatio="xMidYMid meet" version="1.0"><defs><g/><clipPath id="6afb62a187"><rect x="0" width="1028" y="0" height="1500"/></clipPath></defs><g transform="matrix(1, 0, 0, 1, 236, 0.000000000000112861)"><g clip-path="url(#6afb62a187)"><g fill="#000000" fill-opacity="1"><g transform="translate(190.046454, 376.54523)"><g><path d="M 13.125 -274.609375 L 78.78125 -274.609375 L 78.78125 -239.71875 C 81.53125 -250.96875 86.28125 -260.09375 93.03125 -267.09375 C 99.78125 -274.101562 108.785156 -277.609375 120.046875 -277.609375 C 138.554688 -277.609375 152.25 -271.914062 161.125 -260.53125 C 170 -249.15625 174.4375 -232.960938 174.4375 -211.953125 L 174.4375 0 L 109.921875 0 L 109.921875 -205.203125 C 109.921875 -211.203125 108.726562 -216.328125 106.34375 -220.578125 C 103.96875 -224.828125 100.28125 -226.953125 95.28125 -226.953125 C 88.53125 -226.953125 84.09375 -223.890625 81.96875 -217.765625 C 79.84375 -211.640625 78.78125 -203.453125 78.78125 -193.203125 L 78.78125 0 L 13.125 0 Z M 13.125 -274.609375 "/></g></g></g><g fill="#000000" fill-opacity="1"><g transform="translate(377.244746, 376.54523)"><g><path d="M 93.03125 3 C 38.257812 3 10.875 -25.382812 10.875 -82.15625 L 10.875 -192.453125 C 10.875 -218.460938 18.1875 -239.15625 32.8125 -254.53125 C 47.445312 -269.914062 67.519531 -277.609375 93.03125 -277.609375 C 118.539062 -277.609375 138.609375 -269.914062 153.234375 -254.53125 C 167.867188 -239.15625 175.1875 -218.460938 175.1875 -192.453125 L 175.1875 -82.15625 C 175.1875 -25.382812 147.800781 3 93.03125 3 Z M 93.03125 -47.640625 C 98.28125 -47.640625 102.15625 -49.515625 104.65625 -53.265625 C 107.164062 -57.015625 108.421875 -62.144531 108.421875 -68.65625 L 108.421875 -202.953125 C 108.421875 -218.953125 103.289062 -226.953125 93.03125 -226.953125 C 82.78125 -226.953125 77.65625 -218.953125 77.65625 -202.953125 L 77.65625 -68.65625 C 77.65625 -62.144531 78.90625 -57.015625 81.40625 -53.265625 C 83.90625 -49.515625 87.78125 -47.640625 93.03125 -47.640625 Z M 93.03125 -47.640625 "/></g></g></g><g fill="#000000" fill-opacity="1"><g transform="translate(563.692795, 376.54523)"><g><path d="M 13.125 0 L 13.125 -324.125 L 79.90625 -324.125 L 79.90625 0 Z M 13.125 0 "/></g></g></g><g fill="#000000" fill-opacity="1"><g transform="translate(656.729249, 376.54523)"><g><path d="M 63.03125 3 C 41.769531 3 27.195312 -4.0625 19.3125 -18.1875 C 11.4375 -32.320312 7.5 -52.519531 7.5 -78.78125 C 7.5 -100.289062 10.3125 -116.796875 15.9375 -128.296875 C 21.570312 -139.796875 29.390625 -148.234375 39.390625 -153.609375 C 49.390625 -158.992188 64.644531 -164.9375 85.15625 -171.4375 L 103.15625 -177.4375 L 103.15625 -205.578125 C 103.15625 -212.828125 101.71875 -218.390625 98.84375 -222.265625 C 95.96875 -226.140625 92.53125 -228.078125 88.53125 -228.078125 C 85.03125 -228.078125 81.96875 -226.453125 79.34375 -223.203125 C 76.71875 -219.953125 75.40625 -215.578125 75.40625 -210.078125 L 75.40625 -193.578125 L 11.625 -193.578125 L 11.625 -202.578125 C 11.625 -229.585938 17.9375 -248.84375 30.5625 -260.34375 C 43.195312 -271.851562 63.769531 -277.609375 92.28125 -277.609375 C 115.039062 -277.609375 133.546875 -271.664062 147.796875 -259.78125 C 162.054688 -247.90625 169.1875 -231.085938 169.1875 -209.328125 L 169.1875 0 L 103.90625 0 L 103.90625 -32.640625 C 100.65625 -21.378906 95.46875 -12.625 88.34375 -6.375 C 81.21875 -0.125 72.78125 3 63.03125 3 Z M 88.90625 -48.015625 C 93.90625 -48.015625 97.46875 -50.078125 99.59375 -54.203125 C 101.71875 -58.328125 102.78125 -63.394531 102.78125 -69.40625 L 102.78125 -145.9375 C 93.03125 -142.175781 85.84375 -137.421875 81.21875 -131.671875 C 76.59375 -125.921875 74.28125 -117.921875 74.28125 -107.671875 L 74.28125 -72.40625 C 74.28125 -56.144531 79.15625 -48.015625 88.90625 -48.015625 Z M 88.90625 -48.015625 "/></g></g></g><g fill="#000000" fill-opacity="1"><g transform="translate(0.602566, 901.55501)"><g><path d="M 119.296875 3 C 101.285156 3 88.40625 -7.753906 80.65625 -29.265625 L 80.65625 0 L 13.125 0 L 13.125 -324.125 L 80.65625 -324.125 L 80.65625 -261.46875 C 91.15625 -272.226562 103.410156 -277.609375 117.421875 -277.609375 C 138.679688 -277.609375 153.9375 -271.289062 163.1875 -258.65625 C 172.4375 -246.03125 177.0625 -227.835938 177.0625 -204.078125 L 177.0625 -71.65625 C 177.0625 -49.144531 172.3125 -31.070312 162.8125 -17.4375 C 153.3125 -3.8125 138.804688 3 119.296875 3 Z M 97.15625 -48.015625 C 101.65625 -48.015625 104.84375 -49.453125 106.71875 -52.328125 C 108.601562 -55.203125 109.734375 -58.828125 110.109375 -63.203125 C 110.484375 -67.585938 110.671875 -74.40625 110.671875 -83.65625 L 110.671875 -198.078125 C 110.671875 -207.828125 109.796875 -215.078125 108.046875 -219.828125 C 106.296875 -224.578125 102.539062 -226.953125 96.78125 -226.953125 C 90.53125 -226.953125 86.28125 -224.578125 84.03125 -219.828125 C 81.78125 -215.078125 80.65625 -208.078125 80.65625 -198.828125 L 80.65625 -83.65625 C 80.65625 -71.65625 81.65625 -62.710938 83.65625 -56.828125 C 85.65625 -50.953125 90.15625 -48.015625 97.15625 -48.015625 Z M 97.15625 -48.015625 "/></g></g></g><g fill="#000000" fill-opacity="1"><g transform="translate(188.551188, 901.55501)"><g><path d="M 90.03125 3 C 61.769531 3 41.507812 -4.75 29.25 -20.25 C 17 -35.757812 10.875 -58.894531 10.875 -89.65625 L 10.875 -199.953125 C 10.875 -225.210938 18.125 -244.46875 32.625 -257.71875 C 47.132812 -270.976562 67.394531 -277.609375 93.40625 -277.609375 C 146.175781 -277.609375 172.5625 -251.722656 172.5625 -199.953125 L 172.5625 -180.0625 C 172.5625 -160.0625 172.3125 -143.804688 171.8125 -131.296875 L 76.53125 -131.296875 L 76.53125 -78.03125 C 76.53125 -68.53125 77.53125 -61.085938 79.53125 -55.703125 C 81.53125 -50.328125 85.78125 -47.640625 92.28125 -47.640625 C 97.28125 -47.640625 100.84375 -49.140625 102.96875 -52.140625 C 105.101562 -55.140625 106.359375 -58.578125 106.734375 -62.453125 C 107.109375 -66.335938 107.296875 -72.03125 107.296875 -79.53125 L 107.296875 -106.171875 L 172.5625 -106.171875 L 172.5625 -90.40625 C 172.5625 -58.394531 166.367188 -34.820312 153.984375 -19.6875 C 141.609375 -4.5625 120.289062 3 90.03125 3 Z M 107.296875 -163.9375 L 107.296875 -199.203125 C 107.296875 -218.953125 102.414062 -228.828125 92.65625 -228.828125 C 81.65625 -228.828125 76.15625 -218.953125 76.15625 -199.203125 L 76.15625 -163.9375 Z M 107.296875 -163.9375 "/></g></g></g><g fill="#000000" fill-opacity="1"><g transform="translate(371.622864, 901.55501)"><g><path d="M 63.03125 3 C 41.769531 3 27.195312 -4.0625 19.3125 -18.1875 C 11.4375 -32.320312 7.5 -52.519531 7.5 -78.78125 C 7.5 -100.289062 10.3125 -116.796875 15.9375 -128.296875 C 21.570312 -139.796875 29.390625 -148.234375 39.390625 -153.609375 C 49.390625 -158.992188 64.644531 -164.9375 85.15625 -171.4375 L 103.15625 -177.4375 L 103.15625 -205.578125 C 103.15625 -212.828125 101.71875 -218.390625 98.84375 -222.265625 C 95.96875 -226.140625 92.53125 -228.078125 88.53125 -228.078125 C 85.03125 -228.078125 81.96875 -226.453125 79.34375 -223.203125 C 76.71875 -219.953125 75.40625 -215.578125 75.40625 -210.078125 L 75.40625 -193.578125 L 11.625 -193.578125 L 11.625 -202.578125 C 11.625 -229.585938 17.9375 -248.84375 30.5625 -260.34375 C 43.195312 -271.851562 63.769531 -277.609375 92.28125 -277.609375 C 115.039062 -277.609375 133.546875 -271.664062 147.796875 -259.78125 C 162.054688 -247.90625 169.1875 -231.085938 169.1875 -209.328125 L 169.1875 0 L 103.90625 0 L 103.90625 -32.640625 C 100.65625 -21.378906 95.46875 -12.625 88.34375 -6.375 C 81.21875 -0.125 72.78125 3 63.03125 3 Z M 88.90625 -48.015625 C 93.90625 -48.015625 97.46875 -50.078125 99.59375 -54.203125 C 101.71875 -58.328125 102.78125 -63.394531 102.78125 -69.40625 L 102.78125 -145.9375 C 93.03125 -142.175781 85.84375 -137.421875 81.21875 -131.671875 C 76.59375 -125.921875 74.28125 -117.921875 74.28125 -107.671875 L 74.28125 -72.40625 C 74.28125 -56.144531 79.15625 -48.015625 88.90625 -48.015625 Z M 88.90625 -48.015625 "/></g></g></g><g fill="#000000" fill-opacity="1"><g transform="translate(552.818795, 901.55501)"><g><path d="M 66.03125 3 C 45.519531 3 31.445312 -3.125 23.8125 -15.375 C 16.1875 -27.632812 12.375 -45.894531 12.375 -70.15625 L 12.375 -274.609375 L 78.40625 -274.609375 L 78.40625 -83.28125 C 78.40625 -81.53125 78.40625 -76.835938 78.40625 -69.203125 C 78.40625 -61.578125 79.59375 -56.203125 81.96875 -53.078125 C 84.34375 -49.953125 88.03125 -48.390625 93.03125 -48.390625 C 99.78125 -48.390625 104.03125 -51.203125 105.78125 -56.828125 C 107.539062 -62.460938 108.421875 -70.53125 108.421875 -81.03125 L 108.421875 -83.28125 L 108.796875 -274.609375 L 174.0625 -274.609375 L 174.0625 0 L 108.421875 0 L 108.421875 -29.265625 C 103.910156 -17.753906 98.65625 -9.5 92.65625 -4.5 C 86.65625 0.496094 77.78125 3 66.03125 3 Z M 66.03125 3 "/></g></g></g><g fill="#000000" fill-opacity="1"><g transform="translate(740.017087, 901.55501)"><g><path d="M 69.78125 3 C 52.519531 3 40.640625 -0.625 34.140625 -7.875 C 27.640625 -15.125 24.390625 -26.753906 24.390625 -42.765625 L 24.390625 -214.203125 L 6 -214.203125 L 6 -264.09375 L 24.390625 -264.09375 L 24.390625 -322.25 L 88.15625 -322.25 L 88.15625 -264.09375 L 106.921875 -264.09375 L 106.921875 -214.203125 L 88.15625 -214.203125 L 88.15625 -60.015625 C 88.15625 -55.265625 88.53125 -51.765625 89.28125 -49.515625 C 90.03125 -47.265625 92.03125 -46.140625 95.28125 -46.140625 C 97.78125 -46.140625 100.15625 -46.265625 102.40625 -46.515625 C 104.664062 -46.765625 106.171875 -46.890625 106.921875 -46.890625 L 106.921875 -1.875 C 103.160156 -0.875 97.71875 0.1875 90.59375 1.3125 C 83.46875 2.4375 76.53125 3 69.78125 3 Z M 69.78125 3 "/></g></g></g><g fill="#000000" fill-opacity="1"><g transform="translate(854.436909, 901.55501)"><g><path d="M 7.875 4.125 L 39.390625 4.125 C 43.890625 4.125 46.140625 2.25 46.140625 -1.5 C 46.140625 -3.25 46.015625 -4.625 45.765625 -5.625 L 3 -274.609375 L 65.65625 -274.609375 L 78.03125 -140.671875 L 84.03125 -72.40625 L 91.15625 -140.671875 L 105.796875 -274.609375 L 168.8125 -274.609375 L 117.796875 14.25 C 116.046875 25.007812 112.476562 32.953125 107.09375 38.078125 C 101.71875 43.203125 93.28125 45.765625 81.78125 45.765625 L 7.875 45.765625 Z M 7.875 4.125 "/></g></g></g><g fill="#000000" fill-opacity="1"><g transform="translate(51.806026, 1426.56479)"><g><path d="M 13.125 -324.125 L 80.65625 -324.125 L 80.65625 -247.59375 C 87.65625 -267.601562 101.035156 -277.609375 120.796875 -277.609375 C 139.304688 -277.609375 153.3125 -271.726562 162.8125 -259.96875 C 172.3125 -248.21875 177.0625 -232.085938 177.0625 -211.578125 L 177.0625 0 L 111.421875 0 L 111.421875 -207.453125 C 111.421875 -213.453125 110.039062 -218.328125 107.28125 -222.078125 C 104.53125 -225.828125 100.53125 -227.703125 95.28125 -227.703125 C 90.78125 -227.703125 87.21875 -225.765625 84.59375 -221.890625 C 81.96875 -218.015625 80.65625 -213.328125 80.65625 -207.828125 L 80.65625 0 L 13.125 0 Z M 13.125 -324.125 "/></g></g></g><g fill="#000000" fill-opacity="1"><g transform="translate(241.255203, 1426.56479)"><g><path d="M 93.03125 3 C 38.257812 3 10.875 -25.382812 10.875 -82.15625 L 10.875 -192.453125 C 10.875 -218.460938 18.1875 -239.15625 32.8125 -254.53125 C 47.445312 -269.914062 67.519531 -277.609375 93.03125 -277.609375 C 118.539062 -277.609375 138.609375 -269.914062 153.234375 -254.53125 C 167.867188 -239.15625 175.1875 -218.460938 175.1875 -192.453125 L 175.1875 -82.15625 C 175.1875 -25.382812 147.800781 3 93.03125 3 Z M 93.03125 -47.640625 C 98.28125 -47.640625 102.15625 -49.515625 104.65625 -53.265625 C 107.164062 -57.015625 108.421875 -62.144531 108.421875 -68.65625 L 108.421875 -202.953125 C 108.421875 -218.953125 103.289062 -226.953125 93.03125 -226.953125 C 82.78125 -226.953125 77.65625 -218.953125 77.65625 -202.953125 L 77.65625 -68.65625 C 77.65625 -62.144531 78.90625 -57.015625 81.40625 -53.265625 C 83.90625 -49.515625 87.78125 -47.640625 93.03125 -47.640625 Z M 93.03125 -47.640625 "/></g></g></g><g fill="#000000" fill-opacity="1"><g transform="translate(427.703234, 1426.56479)"><g><path d="M 66.03125 3 C 45.519531 3 31.445312 -3.125 23.8125 -15.375 C 16.1875 -27.632812 12.375 -45.894531 12.375 -70.15625 L 12.375 -274.609375 L 78.40625 -274.609375 L 78.40625 -83.28125 C 78.40625 -81.53125 78.40625 -76.835938 78.40625 -69.203125 C 78.40625 -61.578125 79.59375 -56.203125 81.96875 -53.078125 C 84.34375 -49.953125 88.03125 -48.390625 93.03125 -48.390625 C 99.78125 -48.390625 104.03125 -51.203125 105.78125 -56.828125 C 107.539062 -62.460938 108.421875 -70.53125 108.421875 -81.03125 L 108.421875 -83.28125 L 108.796875 -274.609375 L 174.0625 -274.609375 L 174.0625 0 L 108.421875 0 L 108.421875 -29.265625 C 103.910156 -17.753906 98.65625 -9.5 92.65625 -4.5 C 86.65625 0.496094 77.78125 3 66.03125 3 Z M 66.03125 3 "/></g></g></g><g fill="#000000" fill-opacity="1"><g transform="translate(614.901526, 1426.56479)"><g><path d="M 88.53125 3 C 34.257812 3 7.125 -24.507812 7.125 -79.53125 L 7.5 -101.28125 L 73.15625 -101.28125 L 73.53125 -69.03125 C 73.53125 -62.519531 74.78125 -57.578125 77.28125 -54.203125 C 79.78125 -50.828125 83.90625 -49.140625 89.65625 -49.140625 C 98.40625 -49.140625 102.78125 -56.269531 102.78125 -70.53125 C 102.78125 -81.03125 100.71875 -89.28125 96.59375 -95.28125 C 92.46875 -101.289062 85.90625 -107.671875 76.90625 -114.421875 L 42.015625 -141.421875 C 30.015625 -150.679688 21.382812 -160.25 16.125 -170.125 C 10.875 -180 8.25 -193.941406 8.25 -211.953125 C 8.25 -225.960938 11.9375 -237.90625 19.3125 -247.78125 C 26.695312 -257.65625 36.515625 -265.09375 48.765625 -270.09375 C 61.023438 -275.101562 74.65625 -277.609375 89.65625 -277.609375 C 142.925781 -277.609375 169.5625 -251.097656 169.5625 -198.078125 L 169.5625 -192.828125 L 101.65625 -192.828125 L 101.65625 -203.328125 C 101.65625 -209.828125 100.59375 -215.390625 98.46875 -220.015625 C 96.34375 -224.640625 92.78125 -226.953125 87.78125 -226.953125 C 83.28125 -226.953125 79.84375 -225.640625 77.46875 -223.015625 C 75.09375 -220.390625 73.90625 -216.828125 73.90625 -212.328125 C 73.90625 -202.328125 77.78125 -194.578125 85.53125 -189.078125 L 126.046875 -159.4375 C 140.554688 -148.675781 151.6875 -136.984375 159.4375 -124.359375 C 167.1875 -111.734375 171.0625 -95.789062 171.0625 -76.53125 C 171.0625 -51.019531 163.804688 -31.382812 149.296875 -17.625 C 134.796875 -3.875 114.539062 3 88.53125 3 Z M 88.53125 3 "/></g></g></g><g fill="#000000" fill-opacity="1"><g transform="translate(793.096276, 1426.56479)"><g><path d="M 90.03125 3 C 61.769531 3 41.507812 -4.75 29.25 -20.25 C 17 -35.757812 10.875 -58.894531 10.875 -89.65625 L 10.875 -199.953125 C 10.875 -225.210938 18.125 -244.46875 32.625 -257.71875 C 47.132812 -270.976562 67.394531 -277.609375 93.40625 -277.609375 C 146.175781 -277.609375 172.5625 -251.722656 172.5625 -199.953125 L 172.5625 -180.0625 C 172.5625 -160.0625 172.3125 -143.804688 171.8125 -131.296875 L 76.53125 -131.296875 L 76.53125 -78.03125 C 76.53125 -68.53125 77.53125 -61.085938 79.53125 -55.703125 C 81.53125 -50.328125 85.78125 -47.640625 92.28125 -47.640625 C 97.28125 -47.640625 100.84375 -49.140625 102.96875 -52.140625 C 105.101562 -55.140625 106.359375 -58.578125 106.734375 -62.453125 C 107.109375 -66.335938 107.296875 -72.03125 107.296875 -79.53125 L 107.296875 -106.171875 L 172.5625 -106.171875 L 172.5625 -90.40625 C 172.5625 -58.394531 166.367188 -34.820312 153.984375 -19.6875 C 141.609375 -4.5625 120.289062 3 90.03125 3 Z M 107.296875 -163.9375 L 107.296875 -199.203125 C 107.296875 -218.953125 102.414062 -228.828125 92.65625 -228.828125 C 81.65625 -228.828125 76.15625 -218.953125 76.15625 -199.203125 L 76.15625 -163.9375 Z M 107.296875 -163.9375 "/></g></g></g></g></g></svg>