<svg xmlns="http://www.w3.org/2000/svg" xmlns:xlink="http://www.w3.org/1999/xlink" width="2000" zoomAndPan="magnify" viewBox="0 0 1500 1499.999933" height="2000" preserveAspectRatio="xMidYMid meet" version="1.0"><defs><g/><clipPath id="34908d329a"><path d="M 299 147 L 1212.472656 147 L 1212.472656 1350 L 299 1350 Z M 299 147 " clip-rule="nonzero"/></clipPath><clipPath id="52d6e7887a"><path d="M 287.722656 138.199219 L 1212.472656 138.199219 L 1212.472656 1361.449219 L 287.722656 1361.449219 Z M 287.722656 138.199219 " clip-rule="nonzero"/></clipPath><clipPath id="d3333797fb"><rect x="0" width="782" y="0" height="175"/></clipPath><clipPath id="0c1e7ac4eb"><rect x="0" width="816" y="0" height="175"/></clipPath></defs><g clip-path="url(#34908d329a)"><path fill="#ff0000" d="M 1498.941406 759.238281 C 1492.402344 769.976562 1481.285156 776.3125 1470.308594 782.441406 C 1474.949219 789.152344 1474.777344 798.160156 1472.710938 806.058594 C 1470.640625 813.953125 1466.882812 821.335938 1464.78125 829.230469 C 1462.679688 837.125 1463.21875 847.5625 1467.796875 854.300781 C 1461.496094 854.570312 1456.207031 859.621094 1453.632812 865.417969 C 1451.089844 871.210938 1450.679688 877.644531 1450.140625 883.945312 C 1449.601562 890.25 1448.753906 896.753906 1445.464844 902.140625 L 1445.605469 902.175781 C 1454.652344 905.761719 1464.070312 909.597656 1470.480469 916.945312 C 1472.34375 919.109375 1473.9375 921.554688 1474.917969 924.195312 C 1477.15625 930.292969 1476.242188 937.207031 1473.730469 943.167969 C 1471.222656 949.167969 1467.257812 954.414062 1463.367188 959.597656 C 1468.453125 964.648438 1476.78125 970.335938 1479.085938 977.144531 C 1480.539062 981.484375 1480.679688 986.160156 1481.324219 990.699219 C 1483.566406 1006.757812 1492.097656 1021.871094 1491.558594 1038.097656 L 1491.558594 1038.128906 C 1491.527344 1039.789062 1490.308594 1041.179688 1488.886719 1042.03125 C 1487.464844 1042.878906 1485.871094 1043.355469 1484.414062 1044.097656 C 1479.363281 1046.671875 1476.691406 1052.402344 1475.636719 1057.992188 C 1474.582031 1063.585938 1474.753906 1069.347656 1473.570312 1074.898438 C 1471.164062 1086.210938 1462.492188 1095.398438 1454.964844 1104.207031 C 1459.066406 1109.359375 1463.230469 1114.574219 1465.566406 1120.710938 C 1467.902344 1126.84375 1468.171875 1134.125 1464.683594 1139.683594 C 1460.417969 1146.492188 1450.148438 1149.746094 1442.386719 1151.78125 C 1448.113281 1157.339844 1454.179688 1163.46875 1455.324219 1171.367188 C 1456.101562 1176.859375 1454.410156 1182.441406 1455.121094 1187.933594 C 1455.734375 1192.675781 1458.136719 1197.046875 1461.21875 1200.675781 C 1464.300781 1204.304688 1468.058594 1207.355469 1471.753906 1210.371094 C 1465.042969 1220.433594 1465.722656 1234.835938 1468.875 1246.523438 C 1472.03125 1258.214844 1477.613281 1269.125 1480.703125 1280.847656 C 1484.667969 1295.789062 1484.398438 1311.816406 1479.992188 1326.621094 C 1459.902344 1331.394531 1436.621094 1331.433594 1417.070312 1324.757812 C 1408.09375 1321.675781 1399.488281 1317.441406 1390.203125 1315.4375 C 1380.917969 1313.4375 1369.734375 1313.746094 1362.183594 1319.46875 C 1358.726562 1313.78125 1353.402344 1309.234375 1347.242188 1306.765625 C 1340.089844 1303.890625 1332.160156 1303.78125 1324.542969 1302.566406 C 1316.921875 1301.347656 1308.449219 1298.0625 1304.148438 1291.652344 C 1302.316406 1299.679688 1298.558594 1307.273438 1293.234375 1313.574219 C 1291.339844 1315.816406 1289.035156 1318.011719 1286.125 1318.453125 C 1283.925781 1318.757812 1281.75 1318.011719 1279.683594 1317.203125 C 1271.894531 1314.15625 1264.203125 1309.480469 1257.351562 1304.664062 C 1253.289062 1304.460938 1249.628906 1307.101562 1246.816406 1310.019531 C 1244.003906 1312.929688 1241.558594 1316.355469 1238.144531 1318.519531 C 1229.363281 1324.046875 1217.4375 1319.738281 1207.785156 1323.496094 C 1199.855469 1326.578125 1193.144531 1334.066406 1188.8125 1341.390625 C 1186.035156 1339.019531 1182.308594 1338.203125 1178.6875 1337.902344 C 1175.058594 1337.597656 1171.402344 1337.730469 1167.847656 1336.917969 C 1162.527344 1335.734375 1157.851562 1332.578125 1152.667969 1330.921875 C 1145.320312 1328.550781 1137.253906 1329.261719 1129.9375 1326.859375 C 1121.632812 1324.144531 1115.132812 1317.710938 1108.964844 1311.507812 C 1101.273438 1317.269531 1097.714844 1318.554688 1088.765625 1322.109375 C 1085.175781 1323.53125 1081.277344 1324.78125 1077.519531 1323.875 C 1074.402344 1323.097656 1071.828125 1320.921875 1069.558594 1318.660156 C 1062.878906 1312.023438 1057.492188 1303.480469 1053.765625 1294.808594 C 1044.003906 1299.816406 1031.875 1296.097656 1021.40625 1299.417969 C 1014.089844 1301.753906 1007.550781 1307.960938 1005.007812 1315.242188 C 999.71875 1310.191406 991.285156 1310.160156 984.304688 1312.332031 C 977.324219 1314.5 971.019531 1318.460938 964.039062 1320.636719 C 954.582031 1323.546875 944.078125 1322.941406 935.039062 1318.914062 L 935.070312 1316.949219 C 931.648438 1329.964844 922.328125 1341.308594 910.238281 1347.179688 C 906.816406 1348.835938 903.023438 1350.085938 899.292969 1349.515625 C 896.148438 1349.007812 893.328125 1347.277344 890.753906 1345.414062 C 881.296875 1338.667969 873.234375 1329.964844 867.203125 1320 C 856.464844 1321.832031 845.519531 1323.660156 835.523438 1319.320312 C 830.40625 1317.121094 825.964844 1313.429688 820.75 1311.492188 C 812.554688 1308.472656 802.726562 1310.4375 796.285156 1316.335938 C 794.996094 1310.066406 789.609375 1304.851562 783.78125 1302.246094 C 777.921875 1299.636719 771.445312 1298.925781 765.078125 1298.25 C 758.710938 1297.570312 752.238281 1296.828125 746.410156 1294.144531 C 745.394531 1303.464844 741.667969 1310.617188 735.367188 1317.554688 C 732.824219 1320.367188 729.742188 1322.941406 726.015625 1323.523438 C 723.613281 1323.898438 721.136719 1323.382812 718.796875 1322.746094 C 710.257812 1320.441406 702.164062 1316.582031 695.011719 1311.394531 C 683.355469 1315.390625 676.441406 1327.585938 664.417969 1330.265625 C 658.761719 1331.515625 652.730469 1330.40625 647.074219 1331.65625 C 642.632812 1332.636719 638.667969 1334.972656 634.296875 1336.265625 C 626.605469 1338.539062 617.867188 1337.484375 610.984375 1341.585938 C 607.355469 1333.355469 598.519531 1326.644531 589.878906 1324.167969 C 584.796875 1322.714844 579.410156 1322.605469 574.226562 1321.496094 C 564.335938 1319.394531 553.523438 1311.769531 547.53125 1303.644531 C 543.09375 1307.746094 542.273438 1308.523438 537.027344 1311.574219 C 531.769531 1314.621094 525.609375 1316.417969 519.648438 1315.535156 C 514.195312 1314.726562 509.210938 1311.605469 505.722656 1307.371094 C 502.199219 1303.136719 499.351562 1296.089844 498.640625 1290.628906 C 494.066406 1297.945312 485.664062 1302.457031 477.097656 1303.332031 C 471.234375 1303.945312 465.269531 1302.996094 459.480469 1304.078125 C 451.378906 1305.605469 442.816406 1312.511719 439.421875 1320 C 432.269531 1314.710938 422.648438 1314.03125 413.804688 1315.257812 C 399.605469 1317.21875 386.398438 1323.425781 372.566406 1327.117188 C 356.613281 1331.386719 334.3125 1331.492188 321.710938 1326.644531 C 317.273438 1311.84375 317.035156 1295.8125 321 1280.871094 C 324.113281 1269.183594 329.703125 1258.238281 332.828125 1246.550781 C 335.980469 1234.859375 336.691406 1220.457031 329.949219 1210.394531 C 333.675781 1207.378906 337.402344 1204.363281 340.484375 1200.703125 C 343.566406 1197.039062 345.976562 1192.707031 346.582031 1187.957031 C 347.292969 1182.464844 345.570312 1176.882812 346.378906 1171.390625 C 347.53125 1163.492188 353.597656 1157.363281 359.316406 1151.804688 C 351.527344 1149.800781 341.292969 1146.515625 337.019531 1139.707031 C 333.53125 1134.148438 333.800781 1126.867188 336.136719 1120.734375 C 338.476562 1114.605469 342.644531 1109.351562 346.738281 1104.234375 C 339.21875 1095.421875 330.546875 1086.273438 328.132812 1074.921875 C 326.949219 1069.363281 327.152344 1063.609375 326.066406 1058.019531 C 325.011719 1052.425781 322.339844 1046.707031 317.289062 1044.121094 C 315.832031 1043.378906 314.207031 1042.90625 312.816406 1042.054688 C 311.394531 1041.203125 310.175781 1039.816406 310.144531 1038.15625 L 310.144531 1038.121094 C 309.570312 1021.929688 318.105469 1006.785156 320.378906 990.722656 C 321.023438 986.183594 321.152344 981.511719 322.617188 977.167969 C 324.921875 970.359375 333.21875 964.703125 338.335938 959.621094 C 334.402344 954.4375 330.472656 949.183594 327.972656 943.191406 C 325.46875 937.199219 324.511719 930.285156 326.785156 924.21875 C 327.765625 921.546875 329.359375 919.101562 331.222656 916.96875 C 337.59375 909.613281 347.050781 905.753906 356.097656 902.199219 L 356.238281 902.167969 C 352.949219 896.746094 352.132812 890.273438 351.5625 883.972656 C 351.023438 877.667969 350.613281 871.195312 348.070312 865.441406 C 345.527344 859.679688 340.238281 854.601562 333.90625 854.324219 C 338.484375 847.546875 339.023438 837.144531 336.921875 829.253906 C 334.820312 821.367188 331.0625 813.976562 328.992188 806.082031 C 326.925781 798.1875 326.753906 789.179688 331.394531 782.46875 C 320.417969 776.335938 309.300781 770.003906 302.761719 759.261719 C 300.285156 755.230469 298.59375 750.417969 299.445312 745.773438 C 300.089844 742.25 302.117188 739.136719 304.324219 736.285156 C 307.914062 731.640625 312.046875 727.441406 316.660156 723.777344 C 319.738281 721.34375 323.058594 719.070312 325.503906 715.988281 C 327.9375 712.90625 329.402344 708.707031 328.078125 704.980469 C 327.367188 698.773438 327.570312 691.320312 329.53125 685.363281 C 331.730469 678.683594 336.644531 673.132812 338.644531 666.390625 C 340.953125 658.699219 339.1875 649.617188 333.90625 643.585938 C 337.601562 642.023438 341.425781 640.363281 344.074219 637.347656 C 346.445312 634.632812 347.628906 631.109375 348.542969 627.621094 C 351.121094 617.859375 352.003906 607.734375 352.886719 597.703125 C 352.984375 596.722656 353.058594 595.636719 352.507812 594.792969 C 352.003906 593.945312 348.75 593.101562 348.136719 593.878906 C 337.019531 591.207031 327.90625 581.542969 325.878906 570.265625 C 323.84375 558.984375 329.066406 546.78125 338.582031 540.414062 C 330.277344 535.199219 324.449219 526.042969 321.472656 516.691406 C 318.496094 507.34375 317.542969 497.484375 316.054688 487.789062 C 314.566406 478.097656 312.390625 468.269531 307.347656 459.867188 C 315.246094 453.941406 323.746094 448.210938 326.351562 439.097656 C 328.28125 432.460938 327.839844 425.308594 329.433594 418.566406 C 331.601562 409.246094 337.738281 400.949219 345.96875 396.136719 C 341.90625 390.988281 337.902344 384.308594 335.875 378.078125 C 333.839844 371.84375 333.808594 364.699219 337.199219 359.074219 C 341.464844 351.921875 350.988281 348.269531 359.121094 346.375 L 359.457031 346.375 C 355.425781 343.390625 355.589844 343.59375 352.679688 339.53125 C 349.15625 334.585938 347.628906 328.457031 346.714844 322.421875 C 345.796875 316.390625 345.390625 310.261719 343.699219 304.398438 C 343.835938 300.230469 341.597656 295.285156 338.105469 293.015625 C 335.800781 291.527344 332.785156 290.578125 331.664062 288.070312 C 330.953125 286.441406 331.289062 284.511719 332.207031 283.015625 C 333.121094 281.53125 334.78125 280.140625 336.339844 279.289062 C 335.835938 262.582031 329.027344 246.796875 324.71875 230.640625 C 319.398438 210.816406 317.769531 190.046875 319.945312 169.652344 C 332.582031 164.804688 356.710938 165.992188 372.667969 170.265625 C 386.488281 173.960938 399.707031 180.15625 413.902344 182.125 C 422.714844 183.34375 432.335938 182.667969 439.519531 177.386719 C 442.914062 184.90625 451.480469 191.820312 459.578125 193.308594 C 465.375 194.394531 471.332031 193.449219 477.195312 194.050781 C 485.800781 194.933594 494.171875 199.4375 498.742188 206.753906 C 499.484375 201.304688 502.328125 194.289062 505.820312 190.015625 C 509.34375 185.78125 514.320312 182.699219 519.746094 181.847656 C 525.746094 180.933594 531.878906 182.765625 537.125 185.8125 C 542.382812 188.828125 543.191406 189.605469 547.628906 193.742188 C 553.660156 185.609375 564.433594 177.984375 574.324219 175.882812 C 579.507812 174.792969 584.894531 174.664062 589.976562 173.210938 C 598.648438 170.730469 607.460938 164.0625 611.082031 155.789062 C 617.996094 159.894531 626.703125 158.808594 634.394531 161.113281 C 638.734375 162.402344 642.730469 164.742188 647.171875 165.722656 C 652.859375 166.972656 658.859375 165.859375 664.515625 167.113281 C 676.546875 169.785156 683.453125 182.019531 695.109375 185.984375 C 702.261719 180.800781 710.355469 176.902344 718.894531 174.632812 C 721.265625 173.984375 723.710938 173.480469 726.113281 173.855469 C 729.839844 174.425781 732.957031 177.011719 735.464844 179.820312 C 741.734375 186.769531 745.496094 193.914062 746.507812 203.230469 C 752.335938 200.558594 758.808594 199.808594 765.175781 199.128906 C 771.542969 198.449219 778.019531 197.738281 783.878906 195.132812 C 789.738281 192.523438 795.09375 187.300781 796.386719 181.039062 C 802.824219 186.964844 812.652344 188.902344 820.847656 185.886719 C 826.097656 183.957031 830.503906 180.261719 835.621094 178.054688 C 845.617188 173.757812 856.5625 175.578125 867.300781 177.378906 C 873.335938 167.414062 881.394531 158.742188 890.851562 151.964844 C 893.457031 150.101562 896.238281 148.375 899.394531 147.863281 C 903.152344 147.289062 906.945312 148.539062 910.335938 150.199219 C 922.433594 156.058594 931.753906 167.414062 935.167969 180.425781 L 935.136719 178.464844 C 944.1875 174.433594 954.6875 173.820312 964.136719 176.738281 C 971.117188 178.90625 977.421875 182.871094 984.402344 185.042969 C 991.382812 187.210938 999.785156 187.144531 1005.105469 182.136719 C 1007.613281 189.386719 1014.152344 195.621094 1021.503906 197.960938 C 1031.972656 201.277344 1044.101562 197.550781 1053.863281 202.570312 C 1057.589844 193.898438 1062.976562 185.386719 1069.65625 178.71875 C 1071.925781 176.445312 1074.503906 174.28125 1077.617188 173.503906 C 1081.375 172.585938 1085.277344 173.839844 1088.863281 175.269531 C 1097.773438 178.824219 1101.371094 180.117188 1109.0625 185.871094 C 1115.226562 179.667969 1121.699219 173.265625 1130.035156 170.519531 C 1137.351562 168.117188 1145.453125 168.828125 1152.765625 166.457031 C 1157.949219 164.796875 1162.625 161.644531 1167.945312 160.457031 C 1171.5 159.679688 1175.164062 159.8125 1178.785156 159.476562 C 1182.414062 159.175781 1186.140625 158.324219 1188.914062 155.988281 C 1193.253906 163.300781 1199.921875 170.832031 1207.882812 173.878906 C 1217.578125 177.605469 1229.503906 173.308594 1238.242188 178.855469 C 1241.699219 181.023438 1244.101562 184.449219 1246.914062 187.359375 C 1249.726562 190.269531 1253.386719 192.917969 1257.449219 192.710938 C 1264.292969 187.9375 1272.015625 183.253906 1279.78125 180.171875 C 1281.851562 179.363281 1284.015625 178.613281 1286.222656 178.921875 C 1289.132812 179.332031 1291.4375 181.53125 1293.332031 183.800781 C 1298.65625 190.105469 1302.414062 197.699219 1304.246094 205.726562 C 1308.546875 199.324219 1317.023438 196.03125 1324.640625 194.8125 C 1332.265625 193.59375 1340.152344 193.488281 1347.339844 190.613281 C 1353.503906 188.132812 1358.824219 183.597656 1362.28125 177.910156 C 1369.832031 183.671875 1381.015625 183.972656 1390.300781 181.9375 C 1399.585938 179.9375 1408.195312 175.667969 1417.167969 172.621094 C 1436.71875 165.941406 1461.824219 164.863281 1481.953125 169.636719 C 1484.121094 190.03125 1482.496094 210.800781 1477.179688 230.621094 C 1472.839844 246.78125 1466.03125 262.542969 1465.558594 279.273438 C 1467.121094 280.082031 1468.746094 281.472656 1469.695312 283 C 1470.640625 284.53125 1470.945312 286.457031 1470.234375 288.050781 C 1469.113281 290.59375 1466.097656 291.511719 1463.792969 292.996094 C 1460.300781 295.269531 1458.0625 300.214844 1458.203125 304.382812 C 1456.542969 310.246094 1456.132812 316.375 1455.1875 322.40625 C 1454.238281 328.441406 1452.75 334.539062 1449.21875 339.515625 C 1446.308594 343.578125 1446.472656 343.382812 1442.441406 346.355469 L 1442.777344 346.355469 C 1450.910156 348.253906 1460.390625 351.914062 1464.699219 359.058594 C 1468.050781 364.683594 1468.050781 371.835938 1466.023438 378.0625 C 1463.988281 384.300781 1459.992188 390.96875 1455.929688 396.121094 C 1464.160156 400.933594 1470.300781 409.261719 1472.464844 418.550781 C 1474.027344 425.292969 1473.617188 432.402344 1475.546875 439.082031 C 1478.1875 448.164062 1486.664062 453.925781 1494.550781 459.851562 C 1489.46875 468.253906 1487.332031 478.078125 1485.847656 487.773438 C 1484.359375 497.46875 1483.410156 507.324219 1480.425781 516.675781 C 1477.441406 526.027344 1471.648438 535.175781 1463.320312 540.398438 C 1472.839844 546.765625 1478.023438 559 1476.019531 570.25 C 1474.019531 581.496094 1464.90625 591.191406 1453.761719 593.863281 C 1453.148438 593.085938 1449.898438 593.929688 1449.390625 594.777344 C 1448.882812 595.628906 1448.949219 596.675781 1449.015625 597.6875 C 1449.898438 607.75 1450.8125 617.84375 1453.355469 627.605469 C 1454.269531 631.09375 1455.457031 634.617188 1457.824219 637.332031 C 1460.464844 640.347656 1464.300781 642.007812 1467.992188 643.566406 C 1462.707031 649.601562 1460.949219 658.683594 1463.253906 666.375 C 1465.253906 673.117188 1470.167969 678.675781 1472.367188 685.34375 C 1474.328125 691.269531 1474.535156 698.726562 1473.820312 704.960938 C 1472.496094 708.65625 1473.960938 712.890625 1476.398438 715.972656 C 1478.832031 719.054688 1482.160156 721.292969 1485.242188 723.761719 C 1489.820312 727.425781 1493.980469 731.625 1497.574219 736.269531 C 1499.773438 739.113281 1501.808594 742.234375 1502.457031 745.757812 C 1503.140625 750.394531 1501.417969 755.167969 1498.941406 759.238281 Z M 1498.941406 759.238281 " fill-opacity="1" fill-rule="nonzero"/></g><g clip-path="url(#52d6e7887a)"><path fill="#222222" d="M 287.722656 135.707031 L 1513.808594 135.707031 L 1513.808594 1361.792969 L 287.722656 1361.792969 Z M 287.722656 135.707031 " fill-opacity="1" fill-rule="nonzero"/></g><path fill="#f6f4f1" d="M 774.628906 931.859375 C 757.484375 965.140625 820.5625 993.378906 841.488281 1003.886719 C 850.058594 1008.214844 861.910156 1013.550781 870.691406 1017.121094 C 956.25 1051.664062 1055.925781 1060.992188 1119.757812 982.707031 C 1185.0625 902.613281 1157.832031 807.261719 1092.824219 736.625 C 1076.855469 719.269531 1060.253906 701.871094 1040.925781 688.128906 C 1038.53125 686.449219 1027.605469 677.667969 1023.148438 679.265625 C 1020.125 680.355469 1029.746094 679.640625 1032.855469 678.71875 C 1037.3125 677.414062 1042.523438 675.355469 1046.597656 673.296875 C 1063.492188 664.808594 1078.492188 651.402344 1089.921875 636.484375 C 1124.929688 590.808594 1124.339844 524.578125 1092.152344 477.390625 C 1050.589844 416.5 981 416.246094 920.785156 448.644531 C 902.292969 458.605469 884.898438 470.246094 868.84375 483.777344 C 862.078125 489.492188 859.390625 491.96875 853.507812 498.0625 C 853.421875 498.148438 842.917969 510.125 842.371094 509.578125 C 841.78125 508.988281 844.722656 495.542969 844.765625 494.746094 C 845.144531 481.003906 841.320312 467.765625 835.480469 455.410156 C 813.585938 409.269531 761.898438 379.394531 710.839844 389.183594 C 661.296875 398.679688 610.953125 429.484375 593.472656 479.113281 C 587.503906 496.046875 585.109375 513.359375 589.101562 531.050781 C 590.320312 536.472656 592 540.800781 594.523438 545.632812 C 595.910156 548.195312 600.910156 552.398438 598.261719 553.574219 C 589.648438 557.355469 568.21875 550.71875 559.308594 550.382812 C 531.824219 549.332031 504.007812 553.953125 479.425781 566.6875 C 384.453125 615.769531 314.90625 745.742188 385.503906 841.933594 C 396.808594 857.269531 410.550781 870.210938 426.054688 881.222656 C 459.925781 905.257812 502.242188 916.480469 543.128906 920.050781 C 558.46875 921.4375 573.933594 921.3125 589.226562 920.21875 C 590.445312 920.136719 603.09375 917.445312 604.988281 918.75 C 605.40625 919 583.847656 938.582031 582.882812 939.550781 C 570.359375 952.15625 559.9375 966.445312 555.734375 983.925781 C 544.265625 1031.535156 568.089844 1084.570312 613.347656 1104.695312 C 649.488281 1120.832031 690.292969 1111.839844 724.121094 1094.277344 C 783.664062 1063.347656 833.460938 1013.296875 850.4375 947.367188 " fill-opacity="1" fill-rule="nonzero"/><path fill="#f6f4f1" d="M 731.054688 749.902344 C 723.953125 772.554688 753.871094 786.167969 770.722656 792.640625 C 806.230469 806.214844 870.230469 808.480469 879.6875 759.863281 C 895.65625 677.75 773.160156 602.070312 726.558594 687.5 C 720.421875 698.761719 716.429688 710.824219 715.714844 723.679688 C 712.730469 774.738281 758.199219 802.976562 804.59375 803.230469 C 826.90625 803.3125 851.910156 795.457031 861.152344 773.058594 C 869.097656 753.769531 863.675781 732.675781 858.378906 713.511719 " fill-opacity="1" fill-rule="nonzero"/><g transform="matrix(1, 0, 0, 1, 359, 204)"><g clip-path="url(#d3333797fb)"><g fill="#f6f4f1" fill-opacity="1"><g transform="translate(1.135393, 130.64541)"><g><path d="M 7.109375 0 L 7.109375 -101.609375 L 114.53125 -101.609375 L 114.53125 -82.296875 L 30.046875 -82.296875 L 30.046875 -52.40625 L 105.8125 -52.40625 L 105.8125 -33.234375 L 30.046875 -33.234375 L 30.046875 0 Z M 7.109375 0 "/></g></g></g><g fill="#f6f4f1" fill-opacity="1"><g transform="translate(121.316056, 130.64541)"><g><path d="M 7.109375 0 L 7.109375 -101.609375 L 30.046875 -101.609375 L 30.046875 -19.3125 L 111.625 -19.3125 L 111.625 0 Z M 7.109375 0 "/></g></g></g><g fill="#f6f4f1" fill-opacity="1"><g transform="translate(238.592931, 130.64541)"><g><path d="M 69.53125 1.453125 C 54.625 1.453125 42.476562 -0.601562 33.09375 -4.71875 C 23.707031 -8.832031 16.785156 -14.804688 12.328125 -22.640625 C 7.878906 -30.484375 5.65625 -39.921875 5.65625 -50.953125 C 5.65625 -61.984375 7.878906 -71.394531 12.328125 -79.1875 C 16.785156 -86.976562 23.707031 -92.90625 33.09375 -96.96875 C 42.476562 -101.03125 54.625 -103.0625 69.53125 -103.0625 C 84.4375 -103.0625 96.582031 -101.003906 105.96875 -96.890625 C 115.351562 -92.773438 122.269531 -86.847656 126.71875 -79.109375 C 131.175781 -71.367188 133.40625 -61.984375 133.40625 -50.953125 C 133.40625 -39.921875 131.175781 -30.507812 126.71875 -22.71875 C 122.269531 -14.925781 115.351562 -8.945312 105.96875 -4.78125 C 96.582031 -0.625 84.4375 1.453125 69.53125 1.453125 Z M 69.53125 -17.859375 C 83.851562 -17.859375 94.253906 -20.445312 100.734375 -25.625 C 107.222656 -30.800781 110.46875 -39.242188 110.46875 -50.953125 C 110.46875 -62.566406 107.25 -70.9375 100.8125 -76.0625 C 94.375 -81.1875 83.945312 -83.75 69.53125 -83.75 C 55.207031 -83.75 44.800781 -81.207031 38.3125 -76.125 C 31.832031 -71.050781 28.59375 -62.660156 28.59375 -50.953125 C 28.59375 -39.242188 31.832031 -30.800781 38.3125 -25.625 C 44.800781 -20.445312 55.207031 -17.859375 69.53125 -17.859375 Z M 69.53125 -17.859375 "/></g></g></g><g fill="#f6f4f1" fill-opacity="1"><g transform="translate(377.642276, 130.64541)"><g><path d="M 7.109375 0 L 7.109375 -101.609375 L 86.953125 -101.609375 C 94.691406 -101.609375 101.460938 -100.128906 107.265625 -97.171875 C 113.078125 -94.222656 117.625 -89.988281 120.90625 -84.46875 C 124.195312 -78.957031 125.84375 -72.429688 125.84375 -64.890625 C 125.84375 -56.367188 123.757812 -49.179688 119.59375 -43.328125 C 115.4375 -37.472656 109.78125 -33.285156 102.625 -30.765625 L 121.640625 0 L 94.640625 0 L 77.515625 -28.015625 L 30.046875 -28.015625 L 30.046875 0 Z M 30.046875 -47.328125 L 79.6875 -47.328125 C 81.914062 -47.328125 84.359375 -47.421875 87.015625 -47.609375 C 89.679688 -47.804688 92.222656 -48.4375 94.640625 -49.5 C 97.054688 -50.5625 99.039062 -52.300781 100.59375 -54.71875 C 102.144531 -57.144531 102.921875 -60.535156 102.921875 -64.890625 C 102.921875 -69.242188 102.144531 -72.601562 100.59375 -74.96875 C 99.039062 -77.34375 97.054688 -79.0625 94.640625 -80.125 C 92.222656 -81.1875 89.679688 -81.8125 87.015625 -82 C 84.359375 -82.195312 81.914062 -82.296875 79.6875 -82.296875 L 30.046875 -82.296875 Z M 30.046875 -47.328125 "/></g></g></g><g fill="#f6f4f1" fill-opacity="1"><g transform="translate(509.144342, 130.64541)"><g><path d="M 7.109375 0 L 7.109375 -101.609375 L 114.53125 -101.609375 L 114.53125 -83.171875 L 30.046875 -83.171875 L 30.046875 -59.515625 L 114.53125 -59.515625 L 114.53125 -42.09375 L 30.046875 -42.09375 L 30.046875 -18.4375 L 114.53125 -18.4375 L 114.53125 0 Z M 7.109375 0 "/></g></g></g><g fill="#f6f4f1" fill-opacity="1"><g transform="translate(629.324211, 130.64541)"><g><path d="M 5.65625 0 L 60.96875 -101.609375 L 90.578125 -101.609375 L 145.875 0 L 120.484375 0 L 108.140625 -22.5 L 43.40625 -22.5 L 31.0625 0 Z M 52.25 -40.203125 L 99.28125 -40.203125 L 75.765625 -82.890625 Z M 52.25 -40.203125 "/></g></g></g></g></g><g transform="matrix(1, 0, 0, 1, 342, 1120)"><g clip-path="url(#0c1e7ac4eb)"><g fill="#f6f4f1" fill-opacity="1"><g transform="translate(1.012299, 130.3341)"><g><path d="M 5.65625 0 L 60.96875 -101.609375 L 90.578125 -101.609375 L 145.875 0 L 120.484375 0 L 108.140625 -22.5 L 43.40625 -22.5 L 31.0625 0 Z M 52.25 -40.203125 L 99.28125 -40.203125 L 75.765625 -82.890625 Z M 52.25 -40.203125 "/></g></g></g><g fill="#f6f4f1" fill-opacity="1"><g transform="translate(152.53257, 130.3341)"><g><path d="M 56.609375 0 L 56.609375 -82.296875 L 5.65625 -82.296875 L 5.65625 -101.609375 L 130.5 -101.609375 L 130.5 -82.296875 L 79.546875 -82.296875 L 79.546875 0 Z M 56.609375 0 "/></g></g></g><g fill="#f6f4f1" fill-opacity="1"><g transform="translate(288.678827, 130.3341)"><g><path d="M 7.109375 0 L 7.109375 -101.609375 L 114.53125 -101.609375 L 114.53125 -83.171875 L 30.046875 -83.171875 L 30.046875 -59.515625 L 114.53125 -59.515625 L 114.53125 -42.09375 L 30.046875 -42.09375 L 30.046875 -18.4375 L 114.53125 -18.4375 L 114.53125 0 Z M 7.109375 0 "/></g></g></g><g fill="#f6f4f1" fill-opacity="1"><g transform="translate(408.859472, 130.3341)"><g><path d="M 7.109375 0 L 7.109375 -101.609375 L 30.046875 -101.609375 L 30.046875 -19.3125 L 111.625 -19.3125 L 111.625 0 Z M 7.109375 0 "/></g></g></g><g fill="#f6f4f1" fill-opacity="1"><g transform="translate(526.137118, 130.3341)"><g><path d="M 7.109375 0 L 7.109375 -101.609375 L 30.046875 -101.609375 L 30.046875 0 Z M 7.109375 0 "/></g></g></g><g fill="#f6f4f1" fill-opacity="1"><g transform="translate(563.294227, 130.3341)"><g><path d="M 7.109375 0 L 7.109375 -101.609375 L 114.53125 -101.609375 L 114.53125 -83.171875 L 30.046875 -83.171875 L 30.046875 -59.515625 L 114.53125 -59.515625 L 114.53125 -42.09375 L 30.046875 -42.09375 L 30.046875 -18.4375 L 114.53125 -18.4375 L 114.53125 0 Z M 7.109375 0 "/></g></g></g><g fill="#f6f4f1" fill-opacity="1"><g transform="translate(683.474169, 130.3341)"><g><path d="M 7.109375 0 L 7.109375 -101.609375 L 86.953125 -101.609375 C 94.691406 -101.609375 101.460938 -100.128906 107.265625 -97.171875 C 113.078125 -94.222656 117.625 -89.988281 120.90625 -84.46875 C 124.195312 -78.957031 125.84375 -72.429688 125.84375 -64.890625 C 125.84375 -56.367188 123.757812 -49.179688 119.59375 -43.328125 C 115.4375 -37.472656 109.78125 -33.285156 102.625 -30.765625 L 121.640625 0 L 94.640625 0 L 77.515625 -28.015625 L 30.046875 -28.015625 L 30.046875 0 Z M 30.046875 -47.328125 L 79.6875 -47.328125 C 81.914062 -47.328125 84.359375 -47.421875 87.015625 -47.609375 C 89.679688 -47.804688 92.222656 -48.4375 94.640625 -49.5 C 97.054688 -50.5625 99.039062 -52.300781 100.59375 -54.71875 C 102.144531 -57.144531 102.921875 -60.535156 102.921875 -64.890625 C 102.921875 -69.242188 102.144531 -72.601562 100.59375 -74.96875 C 99.039062 -77.34375 97.054688 -79.0625 94.640625 -80.125 C 92.222656 -81.1875 89.679688 -81.8125 87.015625 -82 C 84.359375 -82.195312 81.914062 -82.296875 79.6875 -82.296875 L 30.046875 -82.296875 Z M 30.046875 -47.328125 "/></g></g></g></g></g></svg>