<svg xmlns="http://www.w3.org/2000/svg" xmlns:xlink="http://www.w3.org/1999/xlink" width="2000" zoomAndPan="magnify" viewBox="0 0 1500 1499.999933" height="2000" preserveAspectRatio="xMidYMid meet" version="1.0"><defs><g/><clipPath id="28fbc0fd10"><rect x="0" width="1398" y="0" height="111"/></clipPath></defs><g transform="matrix(1, 0, 0, 1, 70, 694)"><g clip-path="url(#28fbc0fd10)"><g fill="#222222" fill-opacity="1"><g transform="translate(1.77868, 84.814182)"><g><path d="M 0.46875 -40.984375 L 4.546875 -60.28125 L 53.96875 -60.28125 L 58.234375 -40.984375 L 54.4375 -40.796875 L 54.25 -41.171875 C 53.195312 -43.523438 51.894531 -45.859375 50.34375 -48.171875 C 48.800781 -50.492188 47.023438 -52.425781 45.015625 -53.96875 C 43.015625 -55.519531 40.710938 -56.296875 38.109375 -56.296875 L 34.78125 -56.296875 L 34.78125 -7.609375 C 34.78125 -6.242188 35.195312 -5.28125 36.03125 -4.71875 C 36.863281 -4.164062 37.957031 -3.921875 39.3125 -3.984375 L 39.96875 -3.984375 L 39.96875 0 L 17.625 0 L 17.625 -3.984375 L 18.265625 -3.984375 C 21.296875 -3.859375 22.8125 -5.066406 22.8125 -7.609375 L 22.8125 -56.296875 L 19.46875 -56.296875 C 17.0625 -56.296875 14.914062 -55.503906 13.03125 -53.921875 C 11.144531 -52.347656 9.519531 -50.382812 8.15625 -48.03125 C 6.800781 -45.6875 5.597656 -43.398438 4.546875 -41.171875 L 4.359375 -40.796875 Z M 0.46875 -40.984375 "/></g></g></g><g fill="#222222" fill-opacity="1"><g transform="translate(98.776975, 84.814182)"><g><path d="M 1.296875 -56.296875 L 0.65625 -56.296875 L 0.65625 -60.28125 L 23.09375 -60.28125 L 23.09375 -56.296875 L 22.4375 -56.296875 C 21.019531 -56.296875 19.894531 -56.03125 19.0625 -55.5 C 18.226562 -54.976562 17.8125 -54.035156 17.8125 -52.671875 L 17.8125 -31.15625 L 41.921875 -31.15625 L 41.921875 -52.671875 C 41.921875 -54.035156 41.5 -54.976562 40.65625 -55.5 C 39.820312 -56.03125 38.695312 -56.296875 37.28125 -56.296875 L 36.625 -56.296875 L 36.625 -60.28125 L 59.078125 -60.28125 L 59.078125 -56.296875 L 58.421875 -56.296875 C 57.003906 -56.296875 55.890625 -56.03125 55.078125 -55.5 C 54.273438 -54.976562 53.875 -54.035156 53.875 -52.671875 L 53.875 -7.609375 C 53.875 -6.242188 54.273438 -5.296875 55.078125 -4.765625 C 55.890625 -4.242188 57.003906 -3.984375 58.421875 -3.984375 L 59.078125 -3.984375 L 59.078125 0 L 36.625 0 L 36.625 -3.984375 L 37.28125 -3.984375 C 38.695312 -3.984375 39.820312 -4.242188 40.65625 -4.765625 C 41.5 -5.296875 41.921875 -6.242188 41.921875 -7.609375 L 41.921875 -27.171875 L 17.8125 -27.171875 L 17.8125 -7.609375 C 17.8125 -6.242188 18.226562 -5.296875 19.0625 -4.765625 C 19.894531 -4.242188 21.019531 -3.984375 22.4375 -3.984375 L 23.09375 -3.984375 L 23.09375 0 L 0.65625 0 L 0.65625 -3.984375 L 1.296875 -3.984375 C 2.722656 -3.984375 3.851562 -4.242188 4.6875 -4.765625 C 5.519531 -5.296875 5.9375 -6.242188 5.9375 -7.609375 L 5.9375 -52.671875 C 5.9375 -54.035156 5.519531 -54.976562 4.6875 -55.5 C 3.851562 -56.03125 2.722656 -56.296875 1.296875 -56.296875 Z M 1.296875 -56.296875 "/></g></g></g><g fill="#222222" fill-opacity="1"><g transform="translate(197.908071, 84.814182)"><g><path d="M 0.5625 -3.984375 L 1.203125 -3.984375 C 2.628906 -3.921875 3.757812 -4.164062 4.59375 -4.71875 C 5.425781 -5.28125 5.84375 -6.242188 5.84375 -7.609375 L 5.84375 -52.671875 C 5.84375 -54.035156 5.425781 -54.992188 4.59375 -55.546875 C 3.757812 -56.097656 2.628906 -56.347656 1.203125 -56.296875 L 0.5625 -56.296875 L 0.5625 -60.28125 L 45.34375 -60.28125 L 49.515625 -40.984375 L 45.625 -40.796875 L 45.4375 -41.265625 C 45.007812 -42.191406 44.625 -43.148438 44.28125 -44.140625 C 43.9375 -45.128906 43.519531 -46.085938 43.03125 -47.015625 C 41.601562 -50.109375 39.757812 -52.425781 37.5 -53.96875 C 35.25 -55.519531 32.332031 -56.296875 28.75 -56.296875 L 17.71875 -56.296875 L 17.71875 -31.34375 C 19.320312 -31.34375 20.894531 -31.359375 22.4375 -31.390625 C 23.988281 -31.421875 25.535156 -31.4375 27.078125 -31.4375 C 30.359375 -31.5 32.925781 -32.023438 34.78125 -33.015625 C 36.632812 -34.003906 37.59375 -36.101562 37.65625 -39.3125 L 37.65625 -39.875 L 41.640625 -39.875 L 41.640625 -20.3125 L 37.5625 -20.3125 L 37.5625 -20.859375 C 37.625 -22.898438 37.175781 -24.351562 36.21875 -25.21875 C 35.257812 -26.082031 33.988281 -26.625 32.40625 -26.84375 C 30.832031 -27.0625 29.054688 -27.171875 27.078125 -27.171875 C 25.535156 -27.234375 23.988281 -27.265625 22.4375 -27.265625 C 20.894531 -27.265625 19.320312 -27.265625 17.71875 -27.265625 L 17.71875 -3.984375 L 33.109375 -3.984375 C 36.253906 -3.984375 38.785156 -4.816406 40.703125 -6.484375 C 42.617188 -8.160156 44.195312 -10.328125 45.4375 -12.984375 C 45.9375 -13.972656 46.367188 -14.992188 46.734375 -16.046875 C 47.109375 -17.097656 47.507812 -18.117188 47.9375 -19.109375 L 48.125 -19.46875 L 51.9375 -19.28125 L 47.84375 0 L 0.5625 0 Z M 0.5625 -3.984375 "/></g></g></g><g fill="#222222" fill-opacity="1"><g transform="translate(288.87888, 84.814182)"><g/></g></g><g fill="#222222" fill-opacity="1"><g transform="translate(346.281199, 84.814182)"><g><path d="M 30.515625 1.109375 C 24.015625 1.109375 18.601562 -0.1875 14.28125 -2.78125 C 9.957031 -5.375 6.710938 -9.019531 4.546875 -13.71875 C 2.378906 -18.414062 1.296875 -23.859375 1.296875 -30.046875 C 1.296875 -36.171875 2.484375 -41.582031 4.859375 -46.28125 C 7.242188 -50.976562 10.675781 -54.65625 15.15625 -57.3125 C 19.644531 -59.96875 25.007812 -61.296875 31.25 -61.296875 C 34.707031 -61.296875 38.078125 -60.816406 41.359375 -59.859375 C 44.640625 -58.898438 47.640625 -57.335938 50.359375 -55.171875 C 50.546875 -54.992188 50.929688 -54.59375 51.515625 -53.96875 C 52.097656 -53.351562 52.515625 -52.859375 52.765625 -52.484375 L 53.78125 -41.546875 L 50.359375 -41.546875 C 48.992188 -44.203125 47.414062 -46.71875 45.625 -49.09375 C 43.832031 -51.476562 41.726562 -53.425781 39.3125 -54.9375 C 36.90625 -56.457031 34.03125 -57.21875 30.6875 -57.21875 C 27.664062 -57.21875 25.070312 -56.320312 22.90625 -54.53125 C 20.738281 -52.738281 18.988281 -50.453125 17.65625 -47.671875 C 16.332031 -44.890625 15.359375 -41.984375 14.734375 -38.953125 C 14.117188 -35.921875 13.8125 -33.164062 13.8125 -30.6875 C 13.8125 -28.15625 14.117188 -25.328125 14.734375 -22.203125 C 15.359375 -19.085938 16.363281 -16.109375 17.75 -13.265625 C 19.144531 -10.421875 20.9375 -8.070312 23.125 -6.21875 C 25.320312 -4.363281 28 -3.4375 31.15625 -3.4375 C 34.863281 -3.4375 37.9375 -4.082031 40.375 -5.375 C 42.820312 -6.675781 44.878906 -8.484375 46.546875 -10.796875 C 48.222656 -13.117188 49.644531 -15.765625 50.8125 -18.734375 L 54.4375 -18.734375 L 53.328125 -8.34375 C 53.078125 -7.914062 52.703125 -7.4375 52.203125 -6.90625 C 51.710938 -6.382812 51.3125 -5.96875 51 -5.65625 C 48.28125 -3 45.113281 -1.207031 41.5 -0.28125 C 37.882812 0.644531 34.222656 1.109375 30.515625 1.109375 Z M 30.515625 1.109375 "/></g></g></g><g fill="#222222" fill-opacity="1"><g transform="translate(437.066497, 84.814182)"><g><path d="M 23.546875 0 L 0.1875 0 L 0.1875 -3.984375 L 0.828125 -3.984375 C 3.054688 -4.046875 4.925781 -4.695312 6.4375 -5.9375 C 7.957031 -7.175781 9.148438 -8.78125 10.015625 -10.75 L 31.34375 -60.28125 L 35.609375 -60.28125 L 57.78125 -8.15625 C 58.457031 -6.613281 59.257812 -5.53125 60.1875 -4.90625 C 61.113281 -4.289062 62.378906 -3.984375 63.984375 -3.984375 L 64.640625 -3.984375 L 64.640625 0 L 40.0625 0 L 40.0625 -3.984375 L 40.703125 -3.984375 C 41.515625 -3.984375 42.472656 -4.078125 43.578125 -4.265625 C 44.691406 -4.453125 45.25 -5.101562 45.25 -6.21875 C 45.25 -6.769531 45.15625 -7.265625 44.96875 -7.703125 L 38.578125 -22.71875 L 20.03125 -22.71875 L 14.84375 -10.296875 C 14.71875 -9.984375 14.625 -9.59375 14.5625 -9.125 C 14.5 -8.664062 14.46875 -8.222656 14.46875 -7.796875 C 14.46875 -6.242188 15.097656 -5.25 16.359375 -4.8125 C 17.628906 -4.382812 18.851562 -4.109375 20.03125 -3.984375 C 20.519531 -3.984375 21.007812 -3.984375 21.5 -3.984375 C 22 -3.984375 22.46875 -3.984375 22.90625 -3.984375 L 23.546875 -3.984375 Z M 29.21875 -44.796875 L 21.609375 -26.703125 L 36.90625 -26.703125 Z M 29.21875 -44.796875 "/></g></g></g><g fill="#222222" fill-opacity="1"><g transform="translate(540.092248, 84.814182)"><g><path d="M 0.375 -60.28125 L 22.8125 -60.28125 L 22.8125 -56.296875 L 22.15625 -56.296875 C 20.738281 -56.296875 19.613281 -56.03125 18.78125 -55.5 C 17.945312 -54.976562 17.53125 -54.035156 17.53125 -52.671875 L 17.53125 -32.453125 L 34.03125 -47.390625 C 35.019531 -48.316406 35.867188 -49.304688 36.578125 -50.359375 C 37.296875 -51.410156 37.546875 -52.457031 37.328125 -53.5 C 37.109375 -54.550781 36.101562 -55.507812 34.3125 -56.375 L 34.03125 -56.5625 L 34.03125 -60.28125 L 52.765625 -60.28125 L 52.765625 -56.296875 C 51.285156 -55.984375 49.691406 -55.207031 47.984375 -53.96875 C 46.285156 -52.726562 43.890625 -50.84375 40.796875 -48.3125 C 39.003906 -46.832031 37.117188 -45.222656 35.140625 -43.484375 C 33.160156 -41.753906 31.382812 -40.175781 29.8125 -38.75 C 28.238281 -37.332031 27.109375 -36.316406 26.421875 -35.703125 L 47.9375 -7.96875 C 48.863281 -6.800781 49.945312 -5.84375 51.1875 -5.09375 C 52.425781 -4.351562 53.785156 -3.984375 55.265625 -3.984375 L 55.921875 -3.984375 L 55.921875 0 L 30.6875 0 L 30.6875 -3.984375 L 31.34375 -3.984375 C 32.144531 -3.984375 32.828125 -4.109375 33.390625 -4.359375 C 33.941406 -4.671875 34.21875 -5.070312 34.21875 -5.5625 C 34.21875 -5.75 34.15625 -6.03125 34.03125 -6.40625 C 33.96875 -6.457031 33.921875 -6.515625 33.890625 -6.578125 C 33.859375 -6.640625 33.8125 -6.703125 33.75 -6.765625 C 33.6875 -6.890625 33.566406 -7.046875 33.390625 -7.234375 L 17.53125 -27.734375 L 17.53125 -7.609375 C 17.53125 -6.242188 17.945312 -5.296875 18.78125 -4.765625 C 19.613281 -4.242188 20.738281 -3.984375 22.15625 -3.984375 L 22.8125 -3.984375 L 22.8125 0 L 0.375 0 L 0.375 -3.984375 L 1.015625 -3.984375 C 2.441406 -3.984375 3.570312 -4.242188 4.40625 -4.765625 C 5.238281 -5.296875 5.65625 -6.242188 5.65625 -7.609375 L 5.65625 -52.671875 C 5.65625 -54.035156 5.238281 -54.976562 4.40625 -55.5 C 3.570312 -56.03125 2.441406 -56.296875 1.015625 -56.296875 L 0.375 -56.296875 Z M 0.375 -60.28125 "/></g></g></g><g fill="#222222" fill-opacity="1"><g transform="translate(634.957758, 84.814182)"><g><path d="M 0.5625 -3.984375 L 1.203125 -3.984375 C 2.628906 -3.921875 3.757812 -4.164062 4.59375 -4.71875 C 5.425781 -5.28125 5.84375 -6.242188 5.84375 -7.609375 L 5.84375 -52.671875 C 5.84375 -54.035156 5.425781 -54.992188 4.59375 -55.546875 C 3.757812 -56.097656 2.628906 -56.347656 1.203125 -56.296875 L 0.5625 -56.296875 L 0.5625 -60.28125 L 45.34375 -60.28125 L 49.515625 -40.984375 L 45.625 -40.796875 L 45.4375 -41.265625 C 45.007812 -42.191406 44.625 -43.148438 44.28125 -44.140625 C 43.9375 -45.128906 43.519531 -46.085938 43.03125 -47.015625 C 41.601562 -50.109375 39.757812 -52.425781 37.5 -53.96875 C 35.25 -55.519531 32.332031 -56.296875 28.75 -56.296875 L 17.71875 -56.296875 L 17.71875 -31.34375 C 19.320312 -31.34375 20.894531 -31.359375 22.4375 -31.390625 C 23.988281 -31.421875 25.535156 -31.4375 27.078125 -31.4375 C 30.359375 -31.5 32.925781 -32.023438 34.78125 -33.015625 C 36.632812 -34.003906 37.59375 -36.101562 37.65625 -39.3125 L 37.65625 -39.875 L 41.640625 -39.875 L 41.640625 -20.3125 L 37.5625 -20.3125 L 37.5625 -20.859375 C 37.625 -22.898438 37.175781 -24.351562 36.21875 -25.21875 C 35.257812 -26.082031 33.988281 -26.625 32.40625 -26.84375 C 30.832031 -27.0625 29.054688 -27.171875 27.078125 -27.171875 C 25.535156 -27.234375 23.988281 -27.265625 22.4375 -27.265625 C 20.894531 -27.265625 19.320312 -27.265625 17.71875 -27.265625 L 17.71875 -3.984375 L 33.109375 -3.984375 C 36.253906 -3.984375 38.785156 -4.816406 40.703125 -6.484375 C 42.617188 -8.160156 44.195312 -10.328125 45.4375 -12.984375 C 45.9375 -13.972656 46.367188 -14.992188 46.734375 -16.046875 C 47.109375 -17.097656 47.507812 -18.117188 47.9375 -19.109375 L 48.125 -19.46875 L 51.9375 -19.28125 L 47.84375 0 L 0.5625 0 Z M 0.5625 -3.984375 "/></g></g></g><g fill="#222222" fill-opacity="1"><g transform="translate(725.928567, 84.814182)"><g/></g></g><g fill="#222222" fill-opacity="1"><g transform="translate(783.330856, 84.814182)"><g><path d="M 23.546875 0 L 0.1875 0 L 0.1875 -3.984375 L 0.828125 -3.984375 C 3.054688 -4.046875 4.925781 -4.695312 6.4375 -5.9375 C 7.957031 -7.175781 9.148438 -8.78125 10.015625 -10.75 L 31.34375 -60.28125 L 35.609375 -60.28125 L 57.78125 -8.15625 C 58.457031 -6.613281 59.257812 -5.53125 60.1875 -4.90625 C 61.113281 -4.289062 62.378906 -3.984375 63.984375 -3.984375 L 64.640625 -3.984375 L 64.640625 0 L 40.0625 0 L 40.0625 -3.984375 L 40.703125 -3.984375 C 41.515625 -3.984375 42.472656 -4.078125 43.578125 -4.265625 C 44.691406 -4.453125 45.25 -5.101562 45.25 -6.21875 C 45.25 -6.769531 45.15625 -7.265625 44.96875 -7.703125 L 38.578125 -22.71875 L 20.03125 -22.71875 L 14.84375 -10.296875 C 14.71875 -9.984375 14.625 -9.59375 14.5625 -9.125 C 14.5 -8.664062 14.46875 -8.222656 14.46875 -7.796875 C 14.46875 -6.242188 15.097656 -5.25 16.359375 -4.8125 C 17.628906 -4.382812 18.851562 -4.109375 20.03125 -3.984375 C 20.519531 -3.984375 21.007812 -3.984375 21.5 -3.984375 C 22 -3.984375 22.46875 -3.984375 22.90625 -3.984375 L 23.546875 -3.984375 Z M 29.21875 -44.796875 L 21.609375 -26.703125 L 36.90625 -26.703125 Z M 29.21875 -44.796875 "/></g></g></g><g fill="#222222" fill-opacity="1"><g transform="translate(874.486934, 84.814182)"><g><path d="M 0.46875 -40.984375 L 4.546875 -60.28125 L 53.96875 -60.28125 L 58.234375 -40.984375 L 54.4375 -40.796875 L 54.25 -41.171875 C 53.195312 -43.523438 51.894531 -45.859375 50.34375 -48.171875 C 48.800781 -50.492188 47.023438 -52.425781 45.015625 -53.96875 C 43.015625 -55.519531 40.710938 -56.296875 38.109375 -56.296875 L 34.78125 -56.296875 L 34.78125 -7.609375 C 34.78125 -6.242188 35.195312 -5.28125 36.03125 -4.71875 C 36.863281 -4.164062 37.957031 -3.921875 39.3125 -3.984375 L 39.96875 -3.984375 L 39.96875 0 L 17.625 0 L 17.625 -3.984375 L 18.265625 -3.984375 C 21.296875 -3.859375 22.8125 -5.066406 22.8125 -7.609375 L 22.8125 -56.296875 L 19.46875 -56.296875 C 17.0625 -56.296875 14.914062 -55.503906 13.03125 -53.921875 C 11.144531 -52.347656 9.519531 -50.382812 8.15625 -48.03125 C 6.800781 -45.6875 5.597656 -43.398438 4.546875 -41.171875 L 4.359375 -40.796875 Z M 0.46875 -40.984375 "/></g></g></g><g fill="#222222" fill-opacity="1"><g transform="translate(971.485244, 84.814182)"><g><path d="M 0.5625 -3.984375 L 1.203125 -3.984375 C 2.628906 -3.921875 3.757812 -4.164062 4.59375 -4.71875 C 5.425781 -5.28125 5.84375 -6.242188 5.84375 -7.609375 L 5.84375 -52.671875 C 5.84375 -54.035156 5.425781 -54.992188 4.59375 -55.546875 C 3.757812 -56.097656 2.628906 -56.347656 1.203125 -56.296875 L 0.5625 -56.296875 L 0.5625 -60.28125 L 45.34375 -60.28125 L 49.515625 -40.984375 L 45.625 -40.796875 L 45.4375 -41.265625 C 45.007812 -42.191406 44.625 -43.148438 44.28125 -44.140625 C 43.9375 -45.128906 43.519531 -46.085938 43.03125 -47.015625 C 41.601562 -50.109375 39.757812 -52.425781 37.5 -53.96875 C 35.25 -55.519531 32.332031 -56.296875 28.75 -56.296875 L 17.71875 -56.296875 L 17.71875 -31.34375 C 19.320312 -31.34375 20.894531 -31.359375 22.4375 -31.390625 C 23.988281 -31.421875 25.535156 -31.4375 27.078125 -31.4375 C 30.359375 -31.5 32.925781 -32.023438 34.78125 -33.015625 C 36.632812 -34.003906 37.59375 -36.101562 37.65625 -39.3125 L 37.65625 -39.875 L 41.640625 -39.875 L 41.640625 -20.3125 L 37.5625 -20.3125 L 37.5625 -20.859375 C 37.625 -22.898438 37.175781 -24.351562 36.21875 -25.21875 C 35.257812 -26.082031 33.988281 -26.625 32.40625 -26.84375 C 30.832031 -27.0625 29.054688 -27.171875 27.078125 -27.171875 C 25.535156 -27.234375 23.988281 -27.265625 22.4375 -27.265625 C 20.894531 -27.265625 19.320312 -27.265625 17.71875 -27.265625 L 17.71875 -3.984375 L 33.109375 -3.984375 C 36.253906 -3.984375 38.785156 -4.816406 40.703125 -6.484375 C 42.617188 -8.160156 44.195312 -10.328125 45.4375 -12.984375 C 45.9375 -13.972656 46.367188 -14.992188 46.734375 -16.046875 C 47.109375 -17.097656 47.507812 -18.117188 47.9375 -19.109375 L 48.125 -19.46875 L 51.9375 -19.28125 L 47.84375 0 L 0.5625 0 Z M 0.5625 -3.984375 "/></g></g></g><g fill="#222222" fill-opacity="1"><g transform="translate(1062.455993, 84.814182)"><g><path d="M 0.375 -60.28125 L 22.8125 -60.28125 L 22.8125 -56.296875 L 22.15625 -56.296875 C 20.738281 -56.296875 19.613281 -56.03125 18.78125 -55.5 C 17.945312 -54.976562 17.53125 -54.035156 17.53125 -52.671875 L 17.71875 -3.984375 L 24.296875 -3.984375 C 27.140625 -3.984375 29.921875 -4.367188 32.640625 -5.140625 C 35.359375 -5.921875 37.816406 -7.113281 40.015625 -8.71875 C 42.210938 -10.320312 43.894531 -12.394531 45.0625 -14.9375 L 45.25 -15.390625 L 49.15625 -15.203125 L 44.96875 0 L 0.375 0 L 0.375 -3.984375 L 1.015625 -3.984375 C 2.441406 -3.984375 3.570312 -4.242188 4.40625 -4.765625 C 5.238281 -5.296875 5.65625 -6.242188 5.65625 -7.609375 L 5.65625 -52.671875 C 5.65625 -54.035156 5.238281 -54.976562 4.40625 -55.5 C 3.570312 -56.03125 2.441406 -56.296875 1.015625 -56.296875 L 0.375 -56.296875 Z M 0.375 -60.28125 "/></g></g></g><g fill="#222222" fill-opacity="1"><g transform="translate(1150.644864, 84.814182)"><g><path d="M 2.140625 -60.28125 L 24.578125 -60.28125 L 24.578125 -56.296875 L 23.921875 -56.296875 C 22.503906 -56.296875 21.375 -56.03125 20.53125 -55.5 C 19.695312 -54.976562 19.28125 -54.035156 19.28125 -52.671875 L 19.28125 -7.609375 C 19.28125 -6.242188 19.695312 -5.296875 20.53125 -4.765625 C 21.375 -4.242188 22.503906 -3.984375 23.921875 -3.984375 L 24.578125 -3.984375 L 24.578125 0 L 2.140625 0 L 2.140625 -3.984375 L 2.78125 -3.984375 C 4.207031 -3.984375 5.335938 -4.242188 6.171875 -4.765625 C 7.003906 -5.296875 7.421875 -6.242188 7.421875 -7.609375 L 7.421875 -52.671875 C 7.421875 -54.035156 7.003906 -54.976562 6.171875 -55.5 C 5.335938 -56.03125 4.207031 -56.296875 2.78125 -56.296875 L 2.140625 -56.296875 Z M 2.140625 -60.28125 "/></g></g></g><g fill="#222222" fill-opacity="1"><g transform="translate(1215.37299, 84.814182)"><g><path d="M 0.5625 -3.984375 L 1.203125 -3.984375 C 2.628906 -3.921875 3.757812 -4.164062 4.59375 -4.71875 C 5.425781 -5.28125 5.84375 -6.242188 5.84375 -7.609375 L 5.84375 -52.671875 C 5.84375 -54.035156 5.425781 -54.992188 4.59375 -55.546875 C 3.757812 -56.097656 2.628906 -56.347656 1.203125 -56.296875 L 0.5625 -56.296875 L 0.5625 -60.28125 L 45.34375 -60.28125 L 49.515625 -40.984375 L 45.625 -40.796875 L 45.4375 -41.265625 C 45.007812 -42.191406 44.625 -43.148438 44.28125 -44.140625 C 43.9375 -45.128906 43.519531 -46.085938 43.03125 -47.015625 C 41.601562 -50.109375 39.757812 -52.425781 37.5 -53.96875 C 35.25 -55.519531 32.332031 -56.296875 28.75 -56.296875 L 17.71875 -56.296875 L 17.71875 -31.34375 C 19.320312 -31.34375 20.894531 -31.359375 22.4375 -31.390625 C 23.988281 -31.421875 25.535156 -31.4375 27.078125 -31.4375 C 30.359375 -31.5 32.925781 -32.023438 34.78125 -33.015625 C 36.632812 -34.003906 37.59375 -36.101562 37.65625 -39.3125 L 37.65625 -39.875 L 41.640625 -39.875 L 41.640625 -20.3125 L 37.5625 -20.3125 L 37.5625 -20.859375 C 37.625 -22.898438 37.175781 -24.351562 36.21875 -25.21875 C 35.257812 -26.082031 33.988281 -26.625 32.40625 -26.84375 C 30.832031 -27.0625 29.054688 -27.171875 27.078125 -27.171875 C 25.535156 -27.234375 23.988281 -27.265625 22.4375 -27.265625 C 20.894531 -27.265625 19.320312 -27.265625 17.71875 -27.265625 L 17.71875 -3.984375 L 33.109375 -3.984375 C 36.253906 -3.984375 38.785156 -4.816406 40.703125 -6.484375 C 42.617188 -8.160156 44.195312 -10.328125 45.4375 -12.984375 C 45.9375 -13.972656 46.367188 -14.992188 46.734375 -16.046875 C 47.109375 -17.097656 47.507812 -18.117188 47.9375 -19.109375 L 48.125 -19.46875 L 51.9375 -19.28125 L 47.84375 0 L 0.5625 0 Z M 0.5625 -3.984375 "/></g></g></g><g fill="#222222" fill-opacity="1"><g transform="translate(1306.343738, 84.814182)"><g><path d="M 22.53125 0 L 1.015625 0 L 1.015625 -3.984375 L 1.671875 -3.984375 C 3.085938 -3.921875 4.210938 -4.164062 5.046875 -4.71875 C 5.890625 -5.28125 6.3125 -6.242188 6.3125 -7.609375 L 6.3125 -52.671875 C 6.3125 -54.035156 5.890625 -54.992188 5.046875 -55.546875 C 4.210938 -56.097656 3.085938 -56.347656 1.671875 -56.296875 L 1.015625 -56.296875 L 1.015625 -60.28125 L 1.671875 -60.28125 C 5.316406 -60.28125 8.945312 -60.296875 12.5625 -60.328125 C 16.175781 -60.359375 19.8125 -60.375 23.46875 -60.375 C 25.4375 -60.375 27.535156 -60.328125 29.765625 -60.234375 C 31.992188 -60.140625 34.097656 -59.8125 36.078125 -59.25 C 39.847656 -58.269531 42.738281 -56.398438 44.75 -53.640625 C 46.757812 -50.890625 47.765625 -47.691406 47.765625 -44.046875 C 47.765625 -39.347656 46.328125 -35.710938 43.453125 -33.140625 C 40.578125 -30.578125 37.035156 -28.988281 32.828125 -28.375 C 35.734375 -27.320312 37.925781 -25.632812 39.40625 -23.3125 C 40.894531 -21 42.132812 -18.578125 43.125 -16.046875 C 43.425781 -15.304688 43.71875 -14.546875 44 -13.765625 C 44.28125 -12.992188 44.546875 -12.269531 44.796875 -11.59375 C 45.097656 -10.914062 45.390625 -10.25 45.671875 -9.59375 C 45.953125 -8.945312 46.242188 -8.316406 46.546875 -7.703125 C 47.234375 -6.585938 47.960938 -5.703125 48.734375 -5.046875 C 49.503906 -4.398438 50.414062 -4.046875 51.46875 -3.984375 L 52.109375 -3.890625 L 52.109375 0 L 41.171875 0 C 39.378906 0 37.878906 -0.523438 36.671875 -1.578125 C 35.472656 -2.628906 34.5 -3.988281 33.75 -5.65625 C 33.007812 -7.320312 32.332031 -9.050781 31.71875 -10.84375 C 31.28125 -12.269531 30.84375 -13.691406 30.40625 -15.109375 C 29.976562 -16.535156 29.488281 -17.925781 28.9375 -19.28125 C 27.820312 -22.007812 26.519531 -24.066406 25.03125 -25.453125 C 23.550781 -26.847656 21.265625 -27.546875 18.171875 -27.546875 L 18.171875 -7.609375 C 18.171875 -6.242188 18.429688 -5.28125 18.953125 -4.71875 C 19.484375 -4.164062 20.460938 -3.921875 21.890625 -3.984375 L 22.53125 -3.984375 Z M 18.171875 -56.46875 L 18.171875 -31.53125 C 19.785156 -31.53125 21.65625 -31.578125 23.78125 -31.671875 C 25.914062 -31.765625 27.664062 -32.085938 29.03125 -32.640625 C 31.3125 -33.566406 32.945312 -35.128906 33.9375 -37.328125 C 34.925781 -39.523438 35.421875 -41.765625 35.421875 -44.046875 C 35.421875 -46.335938 34.910156 -48.578125 33.890625 -50.765625 C 32.867188 -52.960938 31.25 -54.492188 29.03125 -55.359375 C 27.664062 -55.921875 25.914062 -56.242188 23.78125 -56.328125 C 21.65625 -56.421875 19.785156 -56.46875 18.171875 -56.46875 Z M 18.171875 -56.46875 "/></g></g></g></g></g></svg>