<svg xmlns="http://www.w3.org/2000/svg" xmlns:xlink="http://www.w3.org/1999/xlink" width="2000" zoomAndPan="magnify" viewBox="0 0 1500 1499.999933" height="2000" preserveAspectRatio="xMidYMid meet" version="1.0"><defs><g/><clipPath id="7ad3b0513e"><rect x="0" width="1458" y="0" height="154"/></clipPath></defs><g transform="matrix(1, 0, 0, 1, 21, 636)"><g clip-path="url(#7ad3b0513e)"><g fill="#222222" fill-opacity="1"><g transform="translate(1.216886, 114.65042)"><g><path d="M 6.234375 0 L 6.234375 -88.96875 L 100.28125 -88.96875 L 100.28125 -72.0625 L 26.3125 -72.0625 L 26.3125 -45.875 L 92.65625 -45.875 L 92.65625 -29.109375 L 26.3125 -29.109375 L 26.3125 0 Z M 6.234375 0 "/></g></g></g><g fill="#222222" fill-opacity="1"><g transform="translate(106.447059, 114.65042)"><g><path d="M 6.234375 0 L 6.234375 -88.96875 L 26.3125 -88.96875 L 26.3125 -16.90625 L 97.734375 -16.90625 L 97.734375 0 Z M 6.234375 0 "/></g></g></g><g fill="#222222" fill-opacity="1"><g transform="translate(209.135965, 114.65042)"><g><path d="M 60.875 1.265625 C 47.832031 1.265625 37.203125 -0.53125 28.984375 -4.125 C 20.765625 -7.726562 14.703125 -12.960938 10.796875 -19.828125 C 6.898438 -26.691406 4.953125 -34.953125 4.953125 -44.609375 C 4.953125 -54.265625 6.898438 -62.503906 10.796875 -69.328125 C 14.703125 -76.148438 20.765625 -81.335938 28.984375 -84.890625 C 37.203125 -88.453125 47.832031 -90.234375 60.875 -90.234375 C 73.925781 -90.234375 84.5625 -88.429688 92.78125 -84.828125 C 101 -81.234375 107.054688 -76.046875 110.953125 -69.265625 C 114.847656 -62.484375 116.796875 -54.265625 116.796875 -44.609375 C 116.796875 -34.953125 114.847656 -26.710938 110.953125 -19.890625 C 107.054688 -13.066406 101 -7.832031 92.78125 -4.1875 C 84.5625 -0.550781 73.925781 1.265625 60.875 1.265625 Z M 60.875 -15.625 C 73.414062 -15.625 82.523438 -17.890625 88.203125 -22.421875 C 93.878906 -26.960938 96.71875 -34.359375 96.71875 -44.609375 C 96.71875 -54.773438 93.898438 -62.101562 88.265625 -66.59375 C 82.628906 -71.082031 73.5 -73.328125 60.875 -73.328125 C 48.332031 -73.328125 39.222656 -71.101562 33.546875 -66.65625 C 27.867188 -62.207031 25.03125 -54.859375 25.03125 -44.609375 C 25.03125 -34.359375 27.867188 -26.960938 33.546875 -22.421875 C 39.222656 -17.890625 48.332031 -15.625 60.875 -15.625 Z M 60.875 -15.625 "/></g></g></g><g fill="#222222" fill-opacity="1"><g transform="translate(330.888289, 114.65042)"><g><path d="M 6.234375 0 L 6.234375 -88.96875 L 76.125 -88.96875 C 82.90625 -88.96875 88.835938 -87.675781 93.921875 -85.09375 C 99.003906 -82.507812 102.984375 -78.800781 105.859375 -73.96875 C 108.742188 -69.132812 110.1875 -63.414062 110.1875 -56.8125 C 110.1875 -49.351562 108.363281 -43.0625 104.71875 -37.9375 C 101.082031 -32.8125 96.128906 -29.144531 89.859375 -26.9375 L 106.5 0 L 82.859375 0 L 67.875 -24.53125 L 26.3125 -24.53125 L 26.3125 0 Z M 26.3125 -41.4375 L 69.78125 -41.4375 C 71.726562 -41.4375 73.863281 -41.519531 76.1875 -41.6875 C 78.519531 -41.851562 80.742188 -42.398438 82.859375 -43.328125 C 84.984375 -44.265625 86.722656 -45.789062 88.078125 -47.90625 C 89.429688 -50.03125 90.109375 -53 90.109375 -56.8125 C 90.109375 -60.625 89.429688 -63.566406 88.078125 -65.640625 C 86.722656 -67.710938 84.984375 -69.210938 82.859375 -70.140625 C 80.742188 -71.078125 78.519531 -71.628906 76.1875 -71.796875 C 73.863281 -71.972656 71.726562 -72.0625 69.78125 -72.0625 L 26.3125 -72.0625 Z M 26.3125 -41.4375 "/></g></g></g><g fill="#222222" fill-opacity="1"><g transform="translate(446.031504, 114.65042)"><g><path d="M 6.234375 0 L 6.234375 -88.96875 L 100.28125 -88.96875 L 100.28125 -72.828125 L 26.3125 -72.828125 L 26.3125 -52.109375 L 100.28125 -52.109375 L 100.28125 -36.859375 L 26.3125 -36.859375 L 26.3125 -16.140625 L 100.28125 -16.140625 L 100.28125 0 Z M 6.234375 0 "/></g></g></g><g fill="#222222" fill-opacity="1"><g transform="translate(551.262303, 114.65042)"><g><path d="M 4.953125 0 L 53.375 -88.96875 L 79.3125 -88.96875 L 127.734375 0 L 105.484375 0 L 94.6875 -19.703125 L 38 -19.703125 L 27.203125 0 Z M 45.75 -35.203125 L 86.9375 -35.203125 L 66.34375 -72.578125 Z M 45.75 -35.203125 "/></g></g></g><g fill="#222222" fill-opacity="1"><g transform="translate(683.944324, 114.65042)"><g/></g></g><g fill="#222222" fill-opacity="1"><g transform="translate(744.057503, 114.65042)"><g><path d="M 4.953125 0 L 53.375 -88.96875 L 79.3125 -88.96875 L 127.734375 0 L 105.484375 0 L 94.6875 -19.703125 L 38 -19.703125 L 27.203125 0 Z M 45.75 -35.203125 L 86.9375 -35.203125 L 66.34375 -72.578125 Z M 45.75 -35.203125 "/></g></g></g><g fill="#222222" fill-opacity="1"><g transform="translate(876.739523, 114.65042)"><g><path d="M 49.5625 0 L 49.5625 -72.0625 L 4.953125 -72.0625 L 4.953125 -88.96875 L 114.25 -88.96875 L 114.25 -72.0625 L 69.640625 -72.0625 L 69.640625 0 Z M 49.5625 0 "/></g></g></g><g fill="#222222" fill-opacity="1"><g transform="translate(995.949913, 114.65042)"><g><path d="M 6.234375 0 L 6.234375 -88.96875 L 100.28125 -88.96875 L 100.28125 -72.828125 L 26.3125 -72.828125 L 26.3125 -52.109375 L 100.28125 -52.109375 L 100.28125 -36.859375 L 26.3125 -36.859375 L 26.3125 -16.140625 L 100.28125 -16.140625 L 100.28125 0 Z M 6.234375 0 "/></g></g></g><g fill="#222222" fill-opacity="1"><g transform="translate(1101.18076, 114.65042)"><g><path d="M 6.234375 0 L 6.234375 -88.96875 L 26.3125 -88.96875 L 26.3125 -16.90625 L 97.734375 -16.90625 L 97.734375 0 Z M 6.234375 0 "/></g></g></g><g fill="#222222" fill-opacity="1"><g transform="translate(1203.868999, 114.65042)"><g><path d="M 6.234375 0 L 6.234375 -88.96875 L 26.3125 -88.96875 L 26.3125 0 Z M 6.234375 0 "/></g></g></g><g fill="#222222" fill-opacity="1"><g transform="translate(1236.403996, 114.65042)"><g><path d="M 6.234375 0 L 6.234375 -88.96875 L 100.28125 -88.96875 L 100.28125 -72.828125 L 26.3125 -72.828125 L 26.3125 -52.109375 L 100.28125 -52.109375 L 100.28125 -36.859375 L 26.3125 -36.859375 L 26.3125 -16.140625 L 100.28125 -16.140625 L 100.28125 0 Z M 6.234375 0 "/></g></g></g><g fill="#222222" fill-opacity="1"><g transform="translate(1341.634843, 114.65042)"><g><path d="M 6.234375 0 L 6.234375 -88.96875 L 76.125 -88.96875 C 82.90625 -88.96875 88.835938 -87.675781 93.921875 -85.09375 C 99.003906 -82.507812 102.984375 -78.800781 105.859375 -73.96875 C 108.742188 -69.132812 110.1875 -63.414062 110.1875 -56.8125 C 110.1875 -49.351562 108.363281 -43.0625 104.71875 -37.9375 C 101.082031 -32.8125 96.128906 -29.144531 89.859375 -26.9375 L 106.5 0 L 82.859375 0 L 67.875 -24.53125 L 26.3125 -24.53125 L 26.3125 0 Z M 26.3125 -41.4375 L 69.78125 -41.4375 C 71.726562 -41.4375 73.863281 -41.519531 76.1875 -41.6875 C 78.519531 -41.851562 80.742188 -42.398438 82.859375 -43.328125 C 84.984375 -44.265625 86.722656 -45.789062 88.078125 -47.90625 C 89.429688 -50.03125 90.109375 -53 90.109375 -56.8125 C 90.109375 -60.625 89.429688 -63.566406 88.078125 -65.640625 C 86.722656 -67.710938 84.984375 -69.210938 82.859375 -70.140625 C 80.742188 -71.078125 78.519531 -71.628906 76.1875 -71.796875 C 73.863281 -71.972656 71.726562 -72.0625 69.78125 -72.0625 L 26.3125 -72.0625 Z M 26.3125 -41.4375 "/></g></g></g></g></g></svg>