<svg xmlns="http://www.w3.org/2000/svg" xmlns:xlink="http://www.w3.org/1999/xlink" width="1302" zoomAndPan="magnify" viewBox="99 681 1302 137" height="137" preserveAspectRatio="xMidYMid meet" version="1.0"><defs><g/><clipPath id="41aa8d6768"><rect x="0" width="1302" y="0" height="137"/></clipPath></defs><g transform="matrix(1, 0, 0, 1, 99, 681)"><g clip-path="url(#41aa8d6768)"><g fill="#222222" fill-opacity="1"><g transform="translate(1.110771, 102.222291)"><g><path d="M 5.5625 0 L 5.5625 -79.453125 L 89.546875 -79.453125 L 89.546875 -64.359375 L 23.5 -64.359375 L 23.5 -40.96875 L 82.734375 -40.96875 L 82.734375 -25.984375 L 23.5 -25.984375 L 23.5 0 Z M 5.5625 0 "/></g></g></g><g fill="#222222" fill-opacity="1"><g transform="translate(95.078249, 102.222291)"><g><path d="M 5.5625 0 L 5.5625 -79.453125 L 23.5 -79.453125 L 23.5 -15.09375 L 87.28125 -15.09375 L 87.28125 0 Z M 5.5625 0 "/></g></g></g><g fill="#222222" fill-opacity="1"><g transform="translate(186.776464, 102.222291)"><g><path d="M 54.359375 1.140625 C 42.710938 1.140625 33.21875 -0.46875 25.875 -3.6875 C 18.539062 -6.90625 13.128906 -11.578125 9.640625 -17.703125 C 6.160156 -23.835938 4.421875 -31.21875 4.421875 -39.84375 C 4.421875 -48.46875 6.160156 -55.820312 9.640625 -61.90625 C 13.128906 -68 18.539062 -72.632812 25.875 -75.8125 C 33.21875 -78.988281 42.710938 -80.578125 54.359375 -80.578125 C 66.015625 -80.578125 75.507812 -78.96875 82.84375 -75.75 C 90.1875 -72.539062 95.597656 -67.910156 99.078125 -61.859375 C 102.566406 -55.804688 104.3125 -48.46875 104.3125 -39.84375 C 104.3125 -31.21875 102.566406 -23.859375 99.078125 -17.765625 C 95.597656 -11.671875 90.1875 -6.992188 82.84375 -3.734375 C 75.507812 -0.484375 66.015625 1.140625 54.359375 1.140625 Z M 54.359375 -13.953125 C 65.566406 -13.953125 73.703125 -15.976562 78.765625 -20.03125 C 83.835938 -24.082031 86.375 -30.6875 86.375 -39.84375 C 86.375 -48.914062 83.859375 -55.457031 78.828125 -59.46875 C 73.796875 -63.476562 65.640625 -65.484375 54.359375 -65.484375 C 43.160156 -65.484375 35.023438 -63.5 29.953125 -59.53125 C 24.890625 -55.5625 22.359375 -49 22.359375 -39.84375 C 22.359375 -30.6875 24.890625 -24.082031 29.953125 -20.03125 C 35.023438 -15.976562 43.160156 -13.953125 54.359375 -13.953125 Z M 54.359375 -13.953125 "/></g></g></g><g fill="#222222" fill-opacity="1"><g transform="translate(295.497744, 102.222291)"><g><path d="M 5.5625 0 L 5.5625 -79.453125 L 67.984375 -79.453125 C 74.035156 -79.453125 79.332031 -78.296875 83.875 -75.984375 C 88.414062 -73.679688 91.972656 -70.375 94.546875 -66.0625 C 97.117188 -61.75 98.40625 -56.640625 98.40625 -50.734375 C 98.40625 -44.078125 96.773438 -38.457031 93.515625 -33.875 C 90.265625 -29.300781 85.84375 -26.03125 80.25 -24.0625 L 95.109375 0 L 74 0 L 60.609375 -21.90625 L 23.5 -21.90625 L 23.5 0 Z M 23.5 -37 L 62.3125 -37 C 64.050781 -37 65.960938 -37.070312 68.046875 -37.21875 C 70.128906 -37.375 72.113281 -37.867188 74 -38.703125 C 75.894531 -39.535156 77.445312 -40.894531 78.65625 -42.78125 C 79.863281 -44.675781 80.46875 -47.328125 80.46875 -50.734375 C 80.46875 -54.140625 79.863281 -56.769531 78.65625 -58.625 C 77.445312 -60.476562 75.894531 -61.820312 74 -62.65625 C 72.113281 -63.488281 70.128906 -63.976562 68.046875 -64.125 C 65.960938 -64.28125 64.050781 -64.359375 62.3125 -64.359375 L 23.5 -64.359375 Z M 23.5 -37 "/></g></g></g><g fill="#222222" fill-opacity="1"><g transform="translate(398.317284, 102.222291)"><g><path d="M 5.5625 0 L 5.5625 -79.453125 L 89.546875 -79.453125 L 89.546875 -65.03125 L 23.5 -65.03125 L 23.5 -46.53125 L 89.546875 -46.53125 L 89.546875 -32.921875 L 23.5 -32.921875 L 23.5 -14.421875 L 89.546875 -14.421875 L 89.546875 0 Z M 5.5625 0 "/></g></g></g><g fill="#222222" fill-opacity="1"><g transform="translate(492.285372, 102.222291)"><g><path d="M 4.421875 0 L 47.671875 -79.453125 L 70.828125 -79.453125 L 114.0625 0 L 94.203125 0 L 84.5625 -17.59375 L 33.9375 -17.59375 L 24.28125 0 Z M 40.859375 -31.4375 L 77.640625 -31.4375 L 59.25 -64.8125 Z M 40.859375 -31.4375 "/></g></g></g><g fill="#222222" fill-opacity="1"><g transform="translate(610.766545, 102.222291)"><g/></g></g><g fill="#222222" fill-opacity="1"><g transform="translate(664.445853, 102.222291)"><g><path d="M 4.421875 0 L 47.671875 -79.453125 L 70.828125 -79.453125 L 114.0625 0 L 94.203125 0 L 84.5625 -17.59375 L 33.9375 -17.59375 L 24.28125 0 Z M 40.859375 -31.4375 L 77.640625 -31.4375 L 59.25 -64.8125 Z M 40.859375 -31.4375 "/></g></g></g><g fill="#222222" fill-opacity="1"><g transform="translate(782.927099, 102.222291)"><g><path d="M 44.265625 0 L 44.265625 -64.359375 L 4.421875 -64.359375 L 4.421875 -79.453125 L 102.03125 -79.453125 L 102.03125 -64.359375 L 62.203125 -64.359375 L 62.203125 0 Z M 44.265625 0 "/></g></g></g><g fill="#222222" fill-opacity="1"><g transform="translate(889.378561, 102.222291)"><g><path d="M 5.5625 0 L 5.5625 -79.453125 L 89.546875 -79.453125 L 89.546875 -65.03125 L 23.5 -65.03125 L 23.5 -46.53125 L 89.546875 -46.53125 L 89.546875 -32.921875 L 23.5 -32.921875 L 23.5 -14.421875 L 89.546875 -14.421875 L 89.546875 0 Z M 5.5625 0 "/></g></g></g><g fill="#222222" fill-opacity="1"><g transform="translate(983.346641, 102.222291)"><g><path d="M 5.5625 0 L 5.5625 -79.453125 L 23.5 -79.453125 L 23.5 -15.09375 L 87.28125 -15.09375 L 87.28125 0 Z M 5.5625 0 "/></g></g></g><g fill="#222222" fill-opacity="1"><g transform="translate(1075.044225, 102.222291)"><g><path d="M 5.5625 0 L 5.5625 -79.453125 L 23.5 -79.453125 L 23.5 0 Z M 5.5625 0 "/></g></g></g><g fill="#222222" fill-opacity="1"><g transform="translate(1104.096991, 102.222291)"><g><path d="M 5.5625 0 L 5.5625 -79.453125 L 89.546875 -79.453125 L 89.546875 -65.03125 L 23.5 -65.03125 L 23.5 -46.53125 L 89.546875 -46.53125 L 89.546875 -32.921875 L 23.5 -32.921875 L 23.5 -14.421875 L 89.546875 -14.421875 L 89.546875 0 Z M 5.5625 0 "/></g></g></g><g fill="#222222" fill-opacity="1"><g transform="translate(1198.065071, 102.222291)"><g><path d="M 5.5625 0 L 5.5625 -79.453125 L 67.984375 -79.453125 C 74.035156 -79.453125 79.332031 -78.296875 83.875 -75.984375 C 88.414062 -73.679688 91.972656 -70.375 94.546875 -66.0625 C 97.117188 -61.75 98.40625 -56.640625 98.40625 -50.734375 C 98.40625 -44.078125 96.773438 -38.457031 93.515625 -33.875 C 90.265625 -29.300781 85.84375 -26.03125 80.25 -24.0625 L 95.109375 0 L 74 0 L 60.609375 -21.90625 L 23.5 -21.90625 L 23.5 0 Z M 23.5 -37 L 62.3125 -37 C 64.050781 -37 65.960938 -37.070312 68.046875 -37.21875 C 70.128906 -37.375 72.113281 -37.867188 74 -38.703125 C 75.894531 -39.535156 77.445312 -40.894531 78.65625 -42.78125 C 79.863281 -44.675781 80.46875 -47.328125 80.46875 -50.734375 C 80.46875 -54.140625 79.863281 -56.769531 78.65625 -58.625 C 77.445312 -60.476562 75.894531 -61.820312 74 -62.65625 C 72.113281 -63.488281 70.128906 -63.976562 68.046875 -64.125 C 65.960938 -64.28125 64.050781 -64.359375 62.3125 -64.359375 L 23.5 -64.359375 Z M 23.5 -37 "/></g></g></g></g></g></svg>