<svg xmlns="http://www.w3.org/2000/svg" xmlns:xlink="http://www.w3.org/1999/xlink" width="2000" zoomAndPan="magnify" viewBox="0 0 1500 1499.999933" height="2000" preserveAspectRatio="xMidYMid meet" version="1.0"><defs><g/><clipPath id="6d1d35deeb"><rect x="0" width="1192" y="0" height="95"/></clipPath></defs><g transform="matrix(1, 0, 0, 1, 170, 702)"><g clip-path="url(#6d1d35deeb)"><g fill="#222222" fill-opacity="1"><g transform="translate(1.6161, 72.572647)"><g><path d="M 0.390625 -34.953125 L 3.875 -51.40625 L 46.03125 -51.40625 L 49.65625 -34.953125 L 46.421875 -34.796875 L 46.265625 -35.109375 C 45.367188 -37.109375 44.257812 -39.097656 42.9375 -41.078125 C 41.625 -43.054688 40.109375 -44.703125 38.390625 -46.015625 C 36.679688 -47.335938 34.71875 -48 32.5 -48 L 29.65625 -48 L 29.65625 -6.484375 C 29.65625 -5.328125 30.007812 -4.507812 30.71875 -4.03125 C 31.4375 -3.5625 32.375 -3.351562 33.53125 -3.40625 L 34.078125 -3.40625 L 34.078125 0 L 15.03125 0 L 15.03125 -3.40625 L 15.578125 -3.40625 C 18.160156 -3.300781 19.453125 -4.328125 19.453125 -6.484375 L 19.453125 -48 L 16.609375 -48 C 14.546875 -48 12.710938 -47.328125 11.109375 -45.984375 C 9.503906 -44.640625 8.117188 -42.960938 6.953125 -40.953125 C 5.796875 -38.953125 4.769531 -37.003906 3.875 -35.109375 L 3.71875 -34.796875 Z M 0.390625 -34.953125 "/></g></g></g><g fill="#222222" fill-opacity="1"><g transform="translate(84.335773, 72.572647)"><g><path d="M 1.109375 -48 L 0.546875 -48 L 0.546875 -51.40625 L 19.6875 -51.40625 L 19.6875 -48 L 19.140625 -48 C 17.921875 -48 16.957031 -47.773438 16.25 -47.328125 C 15.539062 -46.878906 15.1875 -46.078125 15.1875 -44.921875 L 15.1875 -26.5625 L 35.75 -26.5625 L 35.75 -44.921875 C 35.75 -46.078125 35.390625 -46.878906 34.671875 -47.328125 C 33.960938 -47.773438 33.003906 -48 31.796875 -48 L 31.234375 -48 L 31.234375 -51.40625 L 50.375 -51.40625 L 50.375 -48 L 49.8125 -48 C 48.601562 -48 47.65625 -47.773438 46.96875 -47.328125 C 46.28125 -46.878906 45.9375 -46.078125 45.9375 -44.921875 L 45.9375 -6.484375 C 45.9375 -5.328125 46.28125 -4.523438 46.96875 -4.078125 C 47.65625 -3.628906 48.601562 -3.40625 49.8125 -3.40625 L 50.375 -3.40625 L 50.375 0 L 31.234375 0 L 31.234375 -3.40625 L 31.796875 -3.40625 C 33.003906 -3.40625 33.960938 -3.628906 34.671875 -4.078125 C 35.390625 -4.523438 35.75 -5.328125 35.75 -6.484375 L 35.75 -23.171875 L 15.1875 -23.171875 L 15.1875 -6.484375 C 15.1875 -5.328125 15.539062 -4.523438 16.25 -4.078125 C 16.957031 -3.628906 17.921875 -3.40625 19.140625 -3.40625 L 19.6875 -3.40625 L 19.6875 0 L 0.546875 0 L 0.546875 -3.40625 L 1.109375 -3.40625 C 2.316406 -3.40625 3.273438 -3.628906 3.984375 -4.078125 C 4.703125 -4.523438 5.0625 -5.328125 5.0625 -6.484375 L 5.0625 -44.921875 C 5.0625 -46.078125 4.703125 -46.878906 3.984375 -47.328125 C 3.273438 -47.773438 2.316406 -48 1.109375 -48 Z M 1.109375 -48 "/></g></g></g><g fill="#222222" fill-opacity="1"><g transform="translate(168.874287, 72.572647)"><g><path d="M 0.46875 -3.40625 L 1.03125 -3.40625 C 2.238281 -3.351562 3.195312 -3.5625 3.90625 -4.03125 C 4.625 -4.507812 4.984375 -5.328125 4.984375 -6.484375 L 4.984375 -44.921875 C 4.984375 -46.078125 4.625 -46.890625 3.90625 -47.359375 C 3.195312 -47.835938 2.238281 -48.050781 1.03125 -48 L 0.46875 -48 L 0.46875 -51.40625 L 38.671875 -51.40625 L 42.234375 -34.953125 L 38.90625 -34.796875 L 38.75 -35.1875 C 38.375 -35.976562 38.039062 -36.796875 37.75 -37.640625 C 37.46875 -38.484375 37.113281 -39.300781 36.6875 -40.09375 C 35.476562 -42.726562 33.910156 -44.703125 31.984375 -46.015625 C 30.054688 -47.335938 27.566406 -48 24.515625 -48 L 15.109375 -48 L 15.109375 -26.734375 C 16.472656 -26.734375 17.8125 -26.742188 19.125 -26.765625 C 20.445312 -26.796875 21.769531 -26.8125 23.09375 -26.8125 C 25.882812 -26.863281 28.070312 -27.3125 29.65625 -28.15625 C 31.238281 -29 32.054688 -30.789062 32.109375 -33.53125 L 32.109375 -34 L 35.5 -34 L 35.5 -17.3125 L 32.03125 -17.3125 L 32.03125 -17.796875 C 32.082031 -19.535156 31.695312 -20.769531 30.875 -21.5 C 30.0625 -22.238281 28.984375 -22.703125 27.640625 -22.890625 C 26.296875 -23.078125 24.78125 -23.171875 23.09375 -23.171875 C 21.769531 -23.222656 20.445312 -23.25 19.125 -23.25 C 17.8125 -23.25 16.472656 -23.25 15.109375 -23.25 L 15.109375 -3.40625 L 28.234375 -3.40625 C 30.921875 -3.40625 33.082031 -4.113281 34.71875 -5.53125 C 36.351562 -6.957031 37.695312 -8.804688 38.75 -11.078125 C 39.164062 -11.921875 39.53125 -12.789062 39.84375 -13.6875 C 40.164062 -14.582031 40.515625 -15.453125 40.890625 -16.296875 L 41.046875 -16.609375 L 44.28125 -16.453125 L 40.796875 0 L 0.46875 0 Z M 0.46875 -3.40625 "/></g></g></g><g fill="#222222" fill-opacity="1"><g transform="translate(246.453749, 72.572647)"><g/></g></g><g fill="#222222" fill-opacity="1"><g transform="translate(295.406167, 72.572647)"><g><path d="M 26.015625 0.953125 C 20.484375 0.953125 15.867188 -0.148438 12.171875 -2.359375 C 8.484375 -4.578125 5.71875 -7.691406 3.875 -11.703125 C 2.03125 -15.710938 1.109375 -20.351562 1.109375 -25.625 C 1.109375 -30.84375 2.125 -35.453125 4.15625 -39.453125 C 6.1875 -43.460938 9.109375 -46.597656 12.921875 -48.859375 C 16.742188 -51.128906 21.320312 -52.265625 26.65625 -52.265625 C 29.601562 -52.265625 32.472656 -51.851562 35.265625 -51.03125 C 38.054688 -50.21875 40.613281 -48.890625 42.9375 -47.046875 C 43.09375 -46.890625 43.421875 -46.546875 43.921875 -46.015625 C 44.421875 -45.492188 44.78125 -45.078125 45 -44.765625 L 45.859375 -35.421875 L 42.9375 -35.421875 C 41.78125 -37.691406 40.4375 -39.84375 38.90625 -41.875 C 37.375 -43.90625 35.578125 -45.566406 33.515625 -46.859375 C 31.460938 -48.148438 29.015625 -48.796875 26.171875 -48.796875 C 23.585938 -48.796875 21.375 -48.03125 19.53125 -46.5 C 17.6875 -44.96875 16.195312 -43.015625 15.0625 -40.640625 C 13.925781 -38.273438 13.09375 -35.800781 12.5625 -33.21875 C 12.039062 -30.632812 11.78125 -28.285156 11.78125 -26.171875 C 11.78125 -24.015625 12.039062 -21.601562 12.5625 -18.9375 C 13.09375 -16.28125 13.953125 -13.738281 15.140625 -11.3125 C 16.328125 -8.882812 17.851562 -6.878906 19.71875 -5.296875 C 21.59375 -3.710938 23.875 -2.921875 26.5625 -2.921875 C 29.726562 -2.921875 32.351562 -3.472656 34.4375 -4.578125 C 36.519531 -5.691406 38.269531 -7.234375 39.6875 -9.203125 C 41.113281 -11.179688 42.328125 -13.4375 43.328125 -15.96875 L 46.421875 -15.96875 L 45.46875 -7.109375 C 45.257812 -6.742188 44.941406 -6.335938 44.515625 -5.890625 C 44.097656 -5.441406 43.757812 -5.085938 43.5 -4.828125 C 41.175781 -2.554688 38.472656 -1.023438 35.390625 -0.234375 C 32.304688 0.554688 29.179688 0.953125 26.015625 0.953125 Z M 26.015625 0.953125 "/></g></g></g><g fill="#222222" fill-opacity="1"><g transform="translate(372.827426, 72.572647)"><g><path d="M 20.078125 0 L 0.15625 0 L 0.15625 -3.40625 L 0.71875 -3.40625 C 2.613281 -3.457031 4.207031 -4.007812 5.5 -5.0625 C 6.789062 -6.113281 7.804688 -7.484375 8.546875 -9.171875 L 26.734375 -51.40625 L 30.359375 -51.40625 L 49.265625 -6.953125 C 49.847656 -5.640625 50.535156 -4.71875 51.328125 -4.1875 C 52.117188 -3.664062 53.195312 -3.40625 54.5625 -3.40625 L 55.125 -3.40625 L 55.125 0 L 34.15625 0 L 34.15625 -3.40625 L 34.71875 -3.40625 C 35.40625 -3.40625 36.222656 -3.484375 37.171875 -3.640625 C 38.117188 -3.796875 38.59375 -4.347656 38.59375 -5.296875 C 38.59375 -5.773438 38.515625 -6.195312 38.359375 -6.5625 L 32.890625 -19.375 L 17.078125 -19.375 L 12.65625 -8.78125 C 12.550781 -8.507812 12.472656 -8.175781 12.421875 -7.78125 C 12.367188 -7.394531 12.34375 -7.015625 12.34375 -6.640625 C 12.34375 -5.328125 12.878906 -4.484375 13.953125 -4.109375 C 15.035156 -3.742188 16.078125 -3.507812 17.078125 -3.40625 C 17.503906 -3.40625 17.925781 -3.40625 18.34375 -3.40625 C 18.769531 -3.40625 19.164062 -3.40625 19.53125 -3.40625 L 20.078125 -3.40625 Z M 24.90625 -38.1875 L 18.421875 -22.78125 L 31.46875 -22.78125 Z M 24.90625 -38.1875 "/></g></g></g><g fill="#222222" fill-opacity="1"><g transform="translate(460.687283, 72.572647)"><g><path d="M 0.3125 -51.40625 L 19.453125 -51.40625 L 19.453125 -48 L 18.90625 -48 C 17.6875 -48 16.722656 -47.773438 16.015625 -47.328125 C 15.304688 -46.878906 14.953125 -46.078125 14.953125 -44.921875 L 14.953125 -27.671875 L 29.015625 -40.40625 C 29.859375 -41.195312 30.582031 -42.039062 31.1875 -42.9375 C 31.800781 -43.832031 32.015625 -44.726562 31.828125 -45.625 C 31.640625 -46.519531 30.785156 -47.335938 29.265625 -48.078125 L 29.015625 -48.234375 L 29.015625 -51.40625 L 45 -51.40625 L 45 -48 C 43.726562 -47.738281 42.367188 -47.078125 40.921875 -46.015625 C 39.472656 -44.960938 37.429688 -43.359375 34.796875 -41.203125 C 33.265625 -39.929688 31.65625 -38.554688 29.96875 -37.078125 C 28.28125 -35.609375 26.765625 -34.265625 25.421875 -33.046875 C 24.078125 -31.835938 23.113281 -30.96875 22.53125 -30.4375 L 40.890625 -6.796875 C 41.671875 -5.796875 42.585938 -4.976562 43.640625 -4.34375 C 44.703125 -3.71875 45.863281 -3.40625 47.125 -3.40625 L 47.6875 -3.40625 L 47.6875 0 L 26.171875 0 L 26.171875 -3.40625 L 26.734375 -3.40625 C 27.410156 -3.40625 27.988281 -3.507812 28.46875 -3.71875 C 28.945312 -3.976562 29.1875 -4.320312 29.1875 -4.75 C 29.1875 -4.90625 29.128906 -5.140625 29.015625 -5.453125 C 28.960938 -5.503906 28.921875 -5.554688 28.890625 -5.609375 C 28.867188 -5.660156 28.832031 -5.710938 28.78125 -5.765625 C 28.726562 -5.878906 28.625 -6.015625 28.46875 -6.171875 L 14.953125 -23.640625 L 14.953125 -6.484375 C 14.953125 -5.328125 15.304688 -4.523438 16.015625 -4.078125 C 16.722656 -3.628906 17.6875 -3.40625 18.90625 -3.40625 L 19.453125 -3.40625 L 19.453125 0 L 0.3125 0 L 0.3125 -3.40625 L 0.875 -3.40625 C 2.082031 -3.40625 3.039062 -3.628906 3.75 -4.078125 C 4.46875 -4.523438 4.828125 -5.328125 4.828125 -6.484375 L 4.828125 -44.921875 C 4.828125 -46.078125 4.46875 -46.878906 3.75 -47.328125 C 3.039062 -47.773438 2.082031 -48 0.875 -48 L 0.3125 -48 Z M 0.3125 -51.40625 "/></g></g></g><g fill="#222222" fill-opacity="1"><g transform="translate(541.588126, 72.572647)"><g><path d="M 0.46875 -3.40625 L 1.03125 -3.40625 C 2.238281 -3.351562 3.195312 -3.5625 3.90625 -4.03125 C 4.625 -4.507812 4.984375 -5.328125 4.984375 -6.484375 L 4.984375 -44.921875 C 4.984375 -46.078125 4.625 -46.890625 3.90625 -47.359375 C 3.195312 -47.835938 2.238281 -48.050781 1.03125 -48 L 0.46875 -48 L 0.46875 -51.40625 L 38.671875 -51.40625 L 42.234375 -34.953125 L 38.90625 -34.796875 L 38.75 -35.1875 C 38.375 -35.976562 38.039062 -36.796875 37.75 -37.640625 C 37.46875 -38.484375 37.113281 -39.300781 36.6875 -40.09375 C 35.476562 -42.726562 33.910156 -44.703125 31.984375 -46.015625 C 30.054688 -47.335938 27.566406 -48 24.515625 -48 L 15.109375 -48 L 15.109375 -26.734375 C 16.472656 -26.734375 17.8125 -26.742188 19.125 -26.765625 C 20.445312 -26.796875 21.769531 -26.8125 23.09375 -26.8125 C 25.882812 -26.863281 28.070312 -27.3125 29.65625 -28.15625 C 31.238281 -29 32.054688 -30.789062 32.109375 -33.53125 L 32.109375 -34 L 35.5 -34 L 35.5 -17.3125 L 32.03125 -17.3125 L 32.03125 -17.796875 C 32.082031 -19.535156 31.695312 -20.769531 30.875 -21.5 C 30.0625 -22.238281 28.984375 -22.703125 27.640625 -22.890625 C 26.296875 -23.078125 24.78125 -23.171875 23.09375 -23.171875 C 21.769531 -23.222656 20.445312 -23.25 19.125 -23.25 C 17.8125 -23.25 16.472656 -23.25 15.109375 -23.25 L 15.109375 -3.40625 L 28.234375 -3.40625 C 30.921875 -3.40625 33.082031 -4.113281 34.71875 -5.53125 C 36.351562 -6.957031 37.695312 -8.804688 38.75 -11.078125 C 39.164062 -11.921875 39.53125 -12.789062 39.84375 -13.6875 C 40.164062 -14.582031 40.515625 -15.453125 40.890625 -16.296875 L 41.046875 -16.609375 L 44.28125 -16.453125 L 40.796875 0 L 0.46875 0 Z M 0.46875 -3.40625 "/></g></g></g><g fill="#222222" fill-opacity="1"><g transform="translate(619.167588, 72.572647)"><g/></g></g><g fill="#222222" fill-opacity="1"><g transform="translate(668.119981, 72.572647)"><g><path d="M 20.078125 0 L 0.15625 0 L 0.15625 -3.40625 L 0.71875 -3.40625 C 2.613281 -3.457031 4.207031 -4.007812 5.5 -5.0625 C 6.789062 -6.113281 7.804688 -7.484375 8.546875 -9.171875 L 26.734375 -51.40625 L 30.359375 -51.40625 L 49.265625 -6.953125 C 49.847656 -5.640625 50.535156 -4.71875 51.328125 -4.1875 C 52.117188 -3.664062 53.195312 -3.40625 54.5625 -3.40625 L 55.125 -3.40625 L 55.125 0 L 34.15625 0 L 34.15625 -3.40625 L 34.71875 -3.40625 C 35.40625 -3.40625 36.222656 -3.484375 37.171875 -3.640625 C 38.117188 -3.796875 38.59375 -4.347656 38.59375 -5.296875 C 38.59375 -5.773438 38.515625 -6.195312 38.359375 -6.5625 L 32.890625 -19.375 L 17.078125 -19.375 L 12.65625 -8.78125 C 12.550781 -8.507812 12.472656 -8.175781 12.421875 -7.78125 C 12.367188 -7.394531 12.34375 -7.015625 12.34375 -6.640625 C 12.34375 -5.328125 12.878906 -4.484375 13.953125 -4.109375 C 15.035156 -3.742188 16.078125 -3.507812 17.078125 -3.40625 C 17.503906 -3.40625 17.925781 -3.40625 18.34375 -3.40625 C 18.769531 -3.40625 19.164062 -3.40625 19.53125 -3.40625 L 20.078125 -3.40625 Z M 24.90625 -38.1875 L 18.421875 -22.78125 L 31.46875 -22.78125 Z M 24.90625 -38.1875 "/></g></g></g><g fill="#222222" fill-opacity="1"><g transform="translate(745.857438, 72.572647)"><g><path d="M 0.390625 -34.953125 L 3.875 -51.40625 L 46.03125 -51.40625 L 49.65625 -34.953125 L 46.421875 -34.796875 L 46.265625 -35.109375 C 45.367188 -37.109375 44.257812 -39.097656 42.9375 -41.078125 C 41.625 -43.054688 40.109375 -44.703125 38.390625 -46.015625 C 36.679688 -47.335938 34.71875 -48 32.5 -48 L 29.65625 -48 L 29.65625 -6.484375 C 29.65625 -5.328125 30.007812 -4.507812 30.71875 -4.03125 C 31.4375 -3.5625 32.375 -3.351562 33.53125 -3.40625 L 34.078125 -3.40625 L 34.078125 0 L 15.03125 0 L 15.03125 -3.40625 L 15.578125 -3.40625 C 18.160156 -3.300781 19.453125 -4.328125 19.453125 -6.484375 L 19.453125 -48 L 16.609375 -48 C 14.546875 -48 12.710938 -47.328125 11.109375 -45.984375 C 9.503906 -44.640625 8.117188 -42.960938 6.953125 -40.953125 C 5.796875 -38.953125 4.769531 -37.003906 3.875 -35.109375 L 3.71875 -34.796875 Z M 0.390625 -34.953125 "/></g></g></g><g fill="#222222" fill-opacity="1"><g transform="translate(828.577124, 72.572647)"><g><path d="M 0.46875 -3.40625 L 1.03125 -3.40625 C 2.238281 -3.351562 3.195312 -3.5625 3.90625 -4.03125 C 4.625 -4.507812 4.984375 -5.328125 4.984375 -6.484375 L 4.984375 -44.921875 C 4.984375 -46.078125 4.625 -46.890625 3.90625 -47.359375 C 3.195312 -47.835938 2.238281 -48.050781 1.03125 -48 L 0.46875 -48 L 0.46875 -51.40625 L 38.671875 -51.40625 L 42.234375 -34.953125 L 38.90625 -34.796875 L 38.75 -35.1875 C 38.375 -35.976562 38.039062 -36.796875 37.75 -37.640625 C 37.46875 -38.484375 37.113281 -39.300781 36.6875 -40.09375 C 35.476562 -42.726562 33.910156 -44.703125 31.984375 -46.015625 C 30.054688 -47.335938 27.566406 -48 24.515625 -48 L 15.109375 -48 L 15.109375 -26.734375 C 16.472656 -26.734375 17.8125 -26.742188 19.125 -26.765625 C 20.445312 -26.796875 21.769531 -26.8125 23.09375 -26.8125 C 25.882812 -26.863281 28.070312 -27.3125 29.65625 -28.15625 C 31.238281 -29 32.054688 -30.789062 32.109375 -33.53125 L 32.109375 -34 L 35.5 -34 L 35.5 -17.3125 L 32.03125 -17.3125 L 32.03125 -17.796875 C 32.082031 -19.535156 31.695312 -20.769531 30.875 -21.5 C 30.0625 -22.238281 28.984375 -22.703125 27.640625 -22.890625 C 26.296875 -23.078125 24.78125 -23.171875 23.09375 -23.171875 C 21.769531 -23.222656 20.445312 -23.25 19.125 -23.25 C 17.8125 -23.25 16.472656 -23.25 15.109375 -23.25 L 15.109375 -3.40625 L 28.234375 -3.40625 C 30.921875 -3.40625 33.082031 -4.113281 34.71875 -5.53125 C 36.351562 -6.957031 37.695312 -8.804688 38.75 -11.078125 C 39.164062 -11.921875 39.53125 -12.789062 39.84375 -13.6875 C 40.164062 -14.582031 40.515625 -15.453125 40.890625 -16.296875 L 41.046875 -16.609375 L 44.28125 -16.453125 L 40.796875 0 L 0.46875 0 Z M 0.46875 -3.40625 "/></g></g></g><g fill="#222222" fill-opacity="1"><g transform="translate(906.156534, 72.572647)"><g><path d="M 0.3125 -51.40625 L 19.453125 -51.40625 L 19.453125 -48 L 18.90625 -48 C 17.6875 -48 16.722656 -47.773438 16.015625 -47.328125 C 15.304688 -46.878906 14.953125 -46.078125 14.953125 -44.921875 L 15.109375 -3.40625 L 20.71875 -3.40625 C 23.144531 -3.40625 25.515625 -3.734375 27.828125 -4.390625 C 30.148438 -5.046875 32.242188 -6.054688 34.109375 -7.421875 C 35.984375 -8.796875 37.425781 -10.566406 38.4375 -12.734375 L 38.59375 -13.125 L 41.90625 -12.96875 L 38.359375 0 L 0.3125 0 L 0.3125 -3.40625 L 0.875 -3.40625 C 2.082031 -3.40625 3.039062 -3.628906 3.75 -4.078125 C 4.46875 -4.523438 4.828125 -5.328125 4.828125 -6.484375 L 4.828125 -44.921875 C 4.828125 -46.078125 4.46875 -46.878906 3.75 -47.328125 C 3.039062 -47.773438 2.082031 -48 0.875 -48 L 0.3125 -48 Z M 0.3125 -51.40625 "/></g></g></g><g fill="#222222" fill-opacity="1"><g transform="translate(981.363573, 72.572647)"><g><path d="M 1.8125 -51.40625 L 20.953125 -51.40625 L 20.953125 -48 L 20.40625 -48 C 19.1875 -48 18.222656 -47.773438 17.515625 -47.328125 C 16.804688 -46.878906 16.453125 -46.078125 16.453125 -44.921875 L 16.453125 -6.484375 C 16.453125 -5.328125 16.804688 -4.523438 17.515625 -4.078125 C 18.222656 -3.628906 19.1875 -3.40625 20.40625 -3.40625 L 20.953125 -3.40625 L 20.953125 0 L 1.8125 0 L 1.8125 -3.40625 L 2.375 -3.40625 C 3.582031 -3.40625 4.539062 -3.628906 5.25 -4.078125 C 5.96875 -4.523438 6.328125 -5.328125 6.328125 -6.484375 L 6.328125 -44.921875 C 6.328125 -46.078125 5.96875 -46.878906 5.25 -47.328125 C 4.539062 -47.773438 3.582031 -48 2.375 -48 L 1.8125 -48 Z M 1.8125 -51.40625 "/></g></g></g><g fill="#222222" fill-opacity="1"><g transform="translate(1036.563402, 72.572647)"><g><path d="M 0.46875 -3.40625 L 1.03125 -3.40625 C 2.238281 -3.351562 3.195312 -3.5625 3.90625 -4.03125 C 4.625 -4.507812 4.984375 -5.328125 4.984375 -6.484375 L 4.984375 -44.921875 C 4.984375 -46.078125 4.625 -46.890625 3.90625 -47.359375 C 3.195312 -47.835938 2.238281 -48.050781 1.03125 -48 L 0.46875 -48 L 0.46875 -51.40625 L 38.671875 -51.40625 L 42.234375 -34.953125 L 38.90625 -34.796875 L 38.75 -35.1875 C 38.375 -35.976562 38.039062 -36.796875 37.75 -37.640625 C 37.46875 -38.484375 37.113281 -39.300781 36.6875 -40.09375 C 35.476562 -42.726562 33.910156 -44.703125 31.984375 -46.015625 C 30.054688 -47.335938 27.566406 -48 24.515625 -48 L 15.109375 -48 L 15.109375 -26.734375 C 16.472656 -26.734375 17.8125 -26.742188 19.125 -26.765625 C 20.445312 -26.796875 21.769531 -26.8125 23.09375 -26.8125 C 25.882812 -26.863281 28.070312 -27.3125 29.65625 -28.15625 C 31.238281 -29 32.054688 -30.789062 32.109375 -33.53125 L 32.109375 -34 L 35.5 -34 L 35.5 -17.3125 L 32.03125 -17.3125 L 32.03125 -17.796875 C 32.082031 -19.535156 31.695312 -20.769531 30.875 -21.5 C 30.0625 -22.238281 28.984375 -22.703125 27.640625 -22.890625 C 26.296875 -23.078125 24.78125 -23.171875 23.09375 -23.171875 C 21.769531 -23.222656 20.445312 -23.25 19.125 -23.25 C 17.8125 -23.25 16.472656 -23.25 15.109375 -23.25 L 15.109375 -3.40625 L 28.234375 -3.40625 C 30.921875 -3.40625 33.082031 -4.113281 34.71875 -5.53125 C 36.351562 -6.957031 37.695312 -8.804688 38.75 -11.078125 C 39.164062 -11.921875 39.53125 -12.789062 39.84375 -13.6875 C 40.164062 -14.582031 40.515625 -15.453125 40.890625 -16.296875 L 41.046875 -16.609375 L 44.28125 -16.453125 L 40.796875 0 L 0.46875 0 Z M 0.46875 -3.40625 "/></g></g></g><g fill="#222222" fill-opacity="1"><g transform="translate(1114.142813, 72.572647)"><g><path d="M 19.21875 0 L 0.875 0 L 0.875 -3.40625 L 1.421875 -3.40625 C 2.640625 -3.351562 3.601562 -3.5625 4.3125 -4.03125 C 5.019531 -4.507812 5.375 -5.328125 5.375 -6.484375 L 5.375 -44.921875 C 5.375 -46.078125 5.019531 -46.890625 4.3125 -47.359375 C 3.601562 -47.835938 2.640625 -48.050781 1.421875 -48 L 0.875 -48 L 0.875 -51.40625 L 1.421875 -51.40625 C 4.535156 -51.40625 7.632812 -51.414062 10.71875 -51.4375 C 13.800781 -51.46875 16.894531 -51.484375 20 -51.484375 C 21.6875 -51.484375 23.476562 -51.441406 25.375 -51.359375 C 27.28125 -51.285156 29.078125 -51.007812 30.765625 -50.53125 C 33.972656 -49.6875 36.429688 -48.09375 38.140625 -45.75 C 39.859375 -43.40625 40.71875 -40.675781 40.71875 -37.5625 C 40.71875 -33.550781 39.492188 -30.453125 37.046875 -28.265625 C 34.597656 -26.078125 31.582031 -24.722656 28 -24.203125 C 30.46875 -23.304688 32.332031 -21.867188 33.59375 -19.890625 C 34.863281 -17.910156 35.921875 -15.84375 36.765625 -13.6875 C 37.035156 -13.050781 37.285156 -12.398438 37.515625 -11.734375 C 37.753906 -11.078125 37.976562 -10.460938 38.1875 -9.890625 C 38.457031 -9.304688 38.707031 -8.738281 38.9375 -8.1875 C 39.175781 -7.632812 39.429688 -7.09375 39.703125 -6.5625 C 40.273438 -5.613281 40.890625 -4.863281 41.546875 -4.3125 C 42.210938 -3.757812 42.992188 -3.457031 43.890625 -3.40625 L 44.4375 -3.328125 L 44.4375 0 L 35.109375 0 C 33.578125 0 32.296875 -0.445312 31.265625 -1.34375 C 30.242188 -2.238281 29.414062 -3.394531 28.78125 -4.8125 C 28.144531 -6.238281 27.566406 -7.71875 27.046875 -9.25 C 26.671875 -10.46875 26.300781 -11.679688 25.9375 -12.890625 C 25.570312 -14.097656 25.148438 -15.285156 24.671875 -16.453125 C 23.722656 -18.765625 22.613281 -20.515625 21.34375 -21.703125 C 20.082031 -22.890625 18.132812 -23.484375 15.5 -23.484375 L 15.5 -6.484375 C 15.5 -5.328125 15.722656 -4.507812 16.171875 -4.03125 C 16.617188 -3.5625 17.445312 -3.351562 18.65625 -3.40625 L 19.21875 -3.40625 Z M 15.5 -48.15625 L 15.5 -26.890625 C 16.875 -26.890625 18.46875 -26.925781 20.28125 -27 C 22.101562 -27.082031 23.59375 -27.359375 24.75 -27.828125 C 26.695312 -28.617188 28.09375 -29.953125 28.9375 -31.828125 C 29.78125 -33.703125 30.203125 -35.613281 30.203125 -37.5625 C 30.203125 -39.507812 29.765625 -41.421875 28.890625 -43.296875 C 28.023438 -45.171875 26.644531 -46.472656 24.75 -47.203125 C 23.59375 -47.679688 22.101562 -47.957031 20.28125 -48.03125 C 18.46875 -48.113281 16.875 -48.15625 15.5 -48.15625 Z M 15.5 -48.15625 "/></g></g></g></g></g></svg>