<svg xmlns="http://www.w3.org/2000/svg" xmlns:xlink="http://www.w3.org/1999/xlink" width="2000" zoomAndPan="magnify" viewBox="0 0 1500 1499.999933" height="2000" preserveAspectRatio="xMidYMid meet" version="1.0"><defs><g/><clipPath id="7e9c3f835e"><path d="M 823 90 L 899 90 L 899 212.839844 L 823 212.839844 Z M 823 90 " clip-rule="nonzero"/></clipPath><clipPath id="15b9cd492e"><rect x="0" width="1394" y="0" height="213"/></clipPath></defs><g transform="matrix(1, 0, 0, 1, 53, 643)"><g clip-path="url(#15b9cd492e)"><g fill="#000000" fill-opacity="1"><g transform="translate(0.698859, 167.997629)"><g><path d="M 67.046875 0 L 67.046875 -48.65625 C 67.046875 -53.71875 65.925781 -58.078125 63.6875 -61.734375 C 61.320312 -65.273438 57.488281 -67.046875 52.1875 -67.046875 C 46.882812 -67.046875 42.578125 -66.046875 39.265625 -64.046875 C 35.960938 -62.035156 33.3125 -59.4375 31.3125 -56.25 C 27.539062 -50.351562 25.65625 -42.453125 25.65625 -32.546875 L 25.65625 0 L 13.265625 0 L 13.265625 -77.84375 L 25.65625 -77.84375 L 25.65625 -64.390625 C 28.25 -68.753906 31.550781 -72.351562 35.5625 -75.1875 C 39.800781 -78.019531 44.691406 -79.4375 50.234375 -79.4375 C 55.785156 -79.4375 60.269531 -78.664062 63.6875 -77.125 C 67.101562 -75.476562 69.992188 -73.296875 72.359375 -70.578125 C 77.078125 -65.035156 79.4375 -57.726562 79.4375 -48.65625 L 79.4375 0 Z M 67.046875 0 "/></g></g></g><g fill="#000000" fill-opacity="1"><g transform="translate(90.742308, 167.997629)"><g><path d="M 76.953125 -39.265625 C 76.953125 -47.054688 74.179688 -53.722656 68.640625 -59.265625 C 63.097656 -64.804688 56.4375 -67.578125 48.65625 -67.578125 C 40.863281 -67.578125 34.195312 -64.804688 28.65625 -59.265625 C 23.113281 -53.722656 20.34375 -47.054688 20.34375 -39.265625 C 20.34375 -31.609375 23.113281 -25.003906 28.65625 -19.453125 C 34.195312 -13.910156 40.863281 -11.140625 48.65625 -11.140625 C 56.4375 -11.140625 63.097656 -13.910156 68.640625 -19.453125 C 74.179688 -25.003906 76.953125 -31.609375 76.953125 -39.265625 Z M 89.34375 -39.265625 C 89.34375 -27.953125 85.390625 -18.398438 77.484375 -10.609375 C 69.347656 -2.710938 59.738281 1.234375 48.65625 1.234375 C 37.5625 1.234375 28.003906 -2.710938 19.984375 -10.609375 C 11.960938 -18.398438 7.953125 -27.953125 7.953125 -39.265625 C 7.953125 -50.472656 11.960938 -60.085938 19.984375 -68.109375 C 27.890625 -76.015625 37.445312 -79.96875 48.65625 -79.96875 C 59.851562 -79.96875 69.460938 -76.015625 77.484375 -68.109375 C 85.390625 -60.085938 89.34375 -50.472656 89.34375 -39.265625 Z M 89.34375 -39.265625 "/></g></g></g><g fill="#000000" fill-opacity="1"><g transform="translate(188.038764, 167.997629)"><g><path d="M 25.65625 0 L 13.265625 0 L 13.265625 -132.6875 L 25.65625 -132.6875 Z M 25.65625 0 "/></g></g></g><g fill="#000000" fill-opacity="1"><g transform="translate(226.957353, 167.997629)"><g><path d="M 75.1875 -38.921875 C 75.1875 -46.460938 72.59375 -53.066406 67.40625 -58.734375 C 62.09375 -64.390625 55.546875 -67.21875 47.765625 -67.21875 C 39.984375 -67.21875 33.5 -64.390625 28.3125 -58.734375 C 23 -53.066406 20.34375 -46.460938 20.34375 -38.921875 C 20.34375 -31.367188 23 -24.765625 28.3125 -19.109375 C 33.5 -13.441406 39.984375 -10.609375 47.765625 -10.609375 C 55.546875 -10.609375 62.09375 -13.441406 67.40625 -19.109375 C 72.59375 -24.765625 75.1875 -31.367188 75.1875 -38.921875 Z M 87.5625 0 L 75.1875 0 L 75.1875 -13.265625 C 74.476562 -12.328125 73.769531 -11.441406 73.0625 -10.609375 C 65.632812 -2.359375 56.550781 1.765625 45.8125 1.765625 C 35.082031 1.765625 26.0625 -2.359375 18.75 -10.609375 C 11.550781 -18.628906 7.953125 -28.066406 7.953125 -38.921875 C 7.953125 -49.765625 11.550781 -59.195312 18.75 -67.21875 C 26.0625 -75.476562 35.082031 -79.609375 45.8125 -79.609375 C 56.550781 -79.609375 65.632812 -75.476562 73.0625 -67.21875 C 73.769531 -66.394531 74.476562 -65.515625 75.1875 -64.578125 L 75.1875 -77.84375 L 87.5625 -77.84375 Z M 87.5625 0 "/></g></g></g><g fill="#000000" fill-opacity="1"><g transform="translate(327.791862, 167.997629)"><g/></g></g><g fill="#000000" fill-opacity="1"><g transform="translate(375.555589, 167.997629)"><g><path d="M 25.65625 0 L 13.265625 0 L 13.265625 -132.6875 L 25.65625 -132.6875 L 25.65625 -64.578125 C 26.363281 -65.515625 27.128906 -66.394531 27.953125 -67.21875 C 35.265625 -75.476562 44.285156 -79.609375 55.015625 -79.609375 C 65.742188 -79.609375 74.828125 -75.476562 82.265625 -67.21875 C 89.335938 -59.195312 92.875 -49.765625 92.875 -38.921875 C 92.875 -28.066406 89.335938 -18.628906 82.265625 -10.609375 C 74.828125 -2.359375 65.742188 1.765625 55.015625 1.765625 C 44.285156 1.765625 35.265625 -2.359375 27.953125 -10.609375 C 27.128906 -11.441406 26.363281 -12.328125 25.65625 -13.265625 Z M 80.5 -38.921875 C 80.5 -46.460938 77.898438 -53.066406 72.703125 -58.734375 C 67.398438 -64.390625 60.859375 -67.21875 53.078125 -67.21875 C 45.285156 -67.21875 38.796875 -64.390625 33.609375 -58.734375 C 28.304688 -53.066406 25.65625 -46.460938 25.65625 -38.921875 C 25.65625 -31.367188 28.304688 -24.765625 33.609375 -19.109375 C 38.796875 -13.441406 45.285156 -10.609375 53.078125 -10.609375 C 60.859375 -10.609375 67.398438 -13.441406 72.703125 -19.109375 C 77.898438 -24.765625 80.5 -31.367188 80.5 -38.921875 Z M 80.5 -38.921875 "/></g></g></g><g fill="#000000" fill-opacity="1"><g transform="translate(476.390082, 167.997629)"><g><path d="M 89.34375 -40.6875 L 89.34375 -34.140625 L 20.875 -34.140625 C 22.050781 -27.421875 25.296875 -21.9375 30.609375 -17.6875 C 36.035156 -13.320312 42.050781 -11.140625 48.65625 -11.140625 C 53.132812 -11.140625 57.4375 -12.203125 61.5625 -14.328125 C 65.570312 -16.335938 68.929688 -19.171875 71.640625 -22.828125 L 85.796875 -22.828125 C 82.492188 -15.390625 77.539062 -9.550781 70.9375 -5.3125 C 64.21875 -0.945312 57.4375 1.234375 50.59375 1.234375 C 43.632812 1.234375 37.738281 0.171875 32.90625 -1.953125 C 27.945312 -4.066406 23.640625 -6.953125 19.984375 -10.609375 C 11.960938 -18.398438 7.953125 -27.953125 7.953125 -39.265625 C 7.953125 -50.472656 11.960938 -60.085938 19.984375 -68.109375 C 27.890625 -76.015625 37.445312 -79.96875 48.65625 -79.96875 C 59.5 -79.96875 68.988281 -76.132812 77.125 -68.46875 C 85.269531 -60.675781 89.34375 -51.414062 89.34375 -40.6875 Z M 76.25 -44.75 C 74.832031 -51.351562 71.53125 -56.835938 66.34375 -61.203125 C 61.15625 -65.453125 55.257812 -67.578125 48.65625 -67.578125 C 38.507812 -67.578125 30.546875 -63.035156 24.765625 -53.953125 C 22.992188 -51.117188 21.753906 -48.050781 21.046875 -44.75 Z M 76.25 -44.75 "/></g></g></g><g fill="#000000" fill-opacity="1"><g transform="translate(572.802007, 167.997629)"><g><path d="M 75.1875 -38.921875 C 75.1875 -46.460938 72.59375 -53.066406 67.40625 -58.734375 C 62.09375 -64.390625 55.546875 -67.21875 47.765625 -67.21875 C 39.984375 -67.21875 33.5 -64.390625 28.3125 -58.734375 C 23 -53.066406 20.34375 -46.460938 20.34375 -38.921875 C 20.34375 -31.367188 23 -24.765625 28.3125 -19.109375 C 33.5 -13.441406 39.984375 -10.609375 47.765625 -10.609375 C 55.546875 -10.609375 62.09375 -13.441406 67.40625 -19.109375 C 72.59375 -24.765625 75.1875 -31.367188 75.1875 -38.921875 Z M 87.5625 0 L 75.1875 0 L 75.1875 -13.265625 C 74.476562 -12.328125 73.769531 -11.441406 73.0625 -10.609375 C 65.632812 -2.359375 56.550781 1.765625 45.8125 1.765625 C 35.082031 1.765625 26.0625 -2.359375 18.75 -10.609375 C 11.550781 -18.628906 7.953125 -28.066406 7.953125 -38.921875 C 7.953125 -49.765625 11.550781 -59.195312 18.75 -67.21875 C 26.0625 -75.476562 35.082031 -79.609375 45.8125 -79.609375 C 56.550781 -79.609375 65.632812 -75.476562 73.0625 -67.21875 C 73.769531 -66.394531 74.476562 -65.515625 75.1875 -64.578125 L 75.1875 -77.84375 L 87.5625 -77.84375 Z M 87.5625 0 "/></g></g></g><g fill="#000000" fill-opacity="1"><g transform="translate(673.636531, 167.997629)"><g><path d="M 67.046875 -13.265625 C 61.265625 -3.359375 52.597656 1.59375 41.046875 1.59375 C 32.316406 1.59375 25.472656 -1.296875 20.515625 -7.078125 C 15.679688 -12.859375 13.265625 -20.226562 13.265625 -29.1875 L 13.265625 -77.84375 L 25.65625 -77.84375 L 25.65625 -29.1875 C 25.65625 -24.113281 26.832031 -19.8125 29.1875 -16.28125 C 31.425781 -12.625 35.203125 -10.796875 40.515625 -10.796875 C 50.179688 -10.796875 57.019531 -13.859375 61.03125 -19.984375 C 65.039062 -26.003906 67.046875 -34.4375 67.046875 -45.28125 L 67.046875 -77.84375 L 79.4375 -77.84375 L 79.4375 0 L 67.046875 0 Z M 67.046875 -13.265625 "/></g></g></g><g fill="#000000" fill-opacity="1"><g transform="translate(763.679965, 167.997629)"><g><path d="M 3.53125 -66.34375 L 3.53125 -77.84375 L 23 -77.84375 L 23 -108.09375 L 35.375 -108.09375 L 35.375 -77.84375 L 54.65625 -77.84375 L 54.65625 -66.34375 L 35.375 -66.34375 L 35.375 0 L 23 0 L 23 -66.34375 Z M 3.53125 -66.34375 "/></g></g></g><g clip-path="url(#7e9c3f835e)"><g fill="#000000" fill-opacity="1"><g transform="translate(821.880975, 167.997629)"><g><path d="M 23.171875 44.234375 L 8.140625 44.234375 L 34.3125 -12.734375 L 1.765625 -77.84375 L 15.921875 -77.84375 L 40.859375 -25.65625 L 63.15625 -77.84375 L 76.953125 -77.84375 Z M 23.171875 44.234375 "/></g></g></g></g><g fill="#000000" fill-opacity="1"><g transform="translate(897.064586, 167.997629)"><g/></g></g><g fill="#000000" fill-opacity="1"><g transform="translate(944.828282, 167.997629)"><g><path d="M 25.65625 0 L 13.265625 0 L 13.265625 -132.6875 L 25.65625 -132.6875 L 25.65625 -64.390625 C 28.25 -68.753906 31.550781 -72.351562 35.5625 -75.1875 C 39.800781 -78.019531 44.691406 -79.4375 50.234375 -79.4375 C 55.785156 -79.4375 60.269531 -78.664062 63.6875 -77.125 C 67.101562 -75.476562 69.992188 -73.296875 72.359375 -70.578125 C 77.078125 -65.035156 79.4375 -57.726562 79.4375 -48.65625 L 79.4375 0 L 67.046875 0 L 67.046875 -48.65625 C 67.046875 -53.71875 65.925781 -58.078125 63.6875 -61.734375 C 61.320312 -65.273438 57.488281 -67.046875 52.1875 -67.046875 C 46.882812 -67.046875 42.578125 -66.222656 39.265625 -64.578125 C 35.960938 -62.804688 33.3125 -60.382812 31.3125 -57.3125 C 27.539062 -51.65625 25.65625 -43.398438 25.65625 -32.546875 Z M 25.65625 0 "/></g></g></g><g fill="#000000" fill-opacity="1"><g transform="translate(1034.871716, 167.997629)"><g><path d="M 75.1875 -38.921875 C 75.1875 -46.460938 72.59375 -53.066406 67.40625 -58.734375 C 62.09375 -64.390625 55.546875 -67.21875 47.765625 -67.21875 C 39.984375 -67.21875 33.5 -64.390625 28.3125 -58.734375 C 23 -53.066406 20.34375 -46.460938 20.34375 -38.921875 C 20.34375 -31.367188 23 -24.765625 28.3125 -19.109375 C 33.5 -13.441406 39.984375 -10.609375 47.765625 -10.609375 C 55.546875 -10.609375 62.09375 -13.441406 67.40625 -19.109375 C 72.59375 -24.765625 75.1875 -31.367188 75.1875 -38.921875 Z M 87.5625 0 L 75.1875 0 L 75.1875 -13.265625 C 74.476562 -12.328125 73.769531 -11.441406 73.0625 -10.609375 C 65.632812 -2.359375 56.550781 1.765625 45.8125 1.765625 C 35.082031 1.765625 26.0625 -2.359375 18.75 -10.609375 C 11.550781 -18.628906 7.953125 -28.066406 7.953125 -38.921875 C 7.953125 -49.765625 11.550781 -59.195312 18.75 -67.21875 C 26.0625 -75.476562 35.082031 -79.609375 45.8125 -79.609375 C 56.550781 -79.609375 65.632812 -75.476562 73.0625 -67.21875 C 73.769531 -66.394531 74.476562 -65.515625 75.1875 -64.578125 L 75.1875 -77.84375 L 87.5625 -77.84375 Z M 87.5625 0 "/></g></g></g><g fill="#000000" fill-opacity="1"><g transform="translate(1135.70624, 167.997629)"><g><path d="M 67.046875 -13.265625 C 61.265625 -3.359375 52.597656 1.59375 41.046875 1.59375 C 32.316406 1.59375 25.472656 -1.296875 20.515625 -7.078125 C 15.679688 -12.859375 13.265625 -20.226562 13.265625 -29.1875 L 13.265625 -77.84375 L 25.65625 -77.84375 L 25.65625 -29.1875 C 25.65625 -24.113281 26.832031 -19.8125 29.1875 -16.28125 C 31.425781 -12.625 35.203125 -10.796875 40.515625 -10.796875 C 50.179688 -10.796875 57.019531 -13.859375 61.03125 -19.984375 C 65.039062 -26.003906 67.046875 -34.4375 67.046875 -45.28125 L 67.046875 -77.84375 L 79.4375 -77.84375 L 79.4375 0 L 67.046875 0 Z M 67.046875 -13.265625 "/></g></g></g><g fill="#000000" fill-opacity="1"><g transform="translate(1225.749735, 167.997629)"><g><path d="M 24.59375 -11.140625 C 27.65625 -9.015625 31.664062 -7.953125 36.625 -7.953125 C 47.945312 -7.953125 53.609375 -12.203125 53.609375 -20.703125 C 53.609375 -25.648438 49.535156 -29.421875 41.390625 -32.015625 C 37.972656 -33.203125 34.316406 -34.265625 30.421875 -35.203125 C 26.410156 -36.148438 22.695312 -37.390625 19.28125 -38.921875 C 15.269531 -40.804688 12.265625 -43.164062 10.265625 -46 C 8.253906 -48.820312 7.25 -52.179688 7.25 -56.078125 C 7.25 -63.859375 9.960938 -69.695312 15.390625 -73.59375 C 20.816406 -77.601562 27.300781 -79.609375 34.84375 -79.609375 C 42.394531 -79.609375 48.648438 -78.078125 53.609375 -75.015625 C 58.554688 -71.941406 61.914062 -66.457031 63.6875 -58.5625 L 50.421875 -58.5625 C 49.003906 -62.914062 46.941406 -65.800781 44.234375 -67.21875 C 41.628906 -68.632812 38.382812 -69.34375 34.5 -69.34375 C 30.601562 -69.34375 27.300781 -68.519531 24.59375 -66.875 C 21.757812 -65.101562 20.34375 -62.507812 20.34375 -59.09375 C 20.34375 -55.550781 21.519531 -52.953125 23.875 -51.296875 C 26.125 -49.765625 28.957031 -48.410156 32.375 -47.234375 C 35.789062 -46.171875 39.503906 -45.226562 43.515625 -44.40625 C 47.410156 -43.457031 51.125 -42.160156 54.65625 -40.515625 C 62.675781 -36.734375 66.6875 -30.660156 66.6875 -22.296875 C 66.6875 -13.921875 63.679688 -7.726562 57.671875 -3.71875 C 54.609375 -1.707031 51.25 -0.171875 47.59375 0.890625 C 44.050781 1.828125 40.15625 2.296875 35.90625 2.296875 C 17.863281 2.296875 7.488281 -5.722656 4.78125 -21.765625 L 17.875 -21.765625 C 19.164062 -16.691406 21.40625 -13.148438 24.59375 -11.140625 Z M 24.59375 -11.140625 "/></g></g></g><g fill="#000000" fill-opacity="1"><g transform="translate(1296.864614, 167.997629)"><g><path d="M 89.34375 -40.6875 L 89.34375 -34.140625 L 20.875 -34.140625 C 22.050781 -27.421875 25.296875 -21.9375 30.609375 -17.6875 C 36.035156 -13.320312 42.050781 -11.140625 48.65625 -11.140625 C 53.132812 -11.140625 57.4375 -12.203125 61.5625 -14.328125 C 65.570312 -16.335938 68.929688 -19.171875 71.640625 -22.828125 L 85.796875 -22.828125 C 82.492188 -15.390625 77.539062 -9.550781 70.9375 -5.3125 C 64.21875 -0.945312 57.4375 1.234375 50.59375 1.234375 C 43.632812 1.234375 37.738281 0.171875 32.90625 -1.953125 C 27.945312 -4.066406 23.640625 -6.953125 19.984375 -10.609375 C 11.960938 -18.398438 7.953125 -27.953125 7.953125 -39.265625 C 7.953125 -50.472656 11.960938 -60.085938 19.984375 -68.109375 C 27.890625 -76.015625 37.445312 -79.96875 48.65625 -79.96875 C 59.5 -79.96875 68.988281 -76.132812 77.125 -68.46875 C 85.269531 -60.675781 89.34375 -51.414062 89.34375 -40.6875 Z M 76.25 -44.75 C 74.832031 -51.351562 71.53125 -56.835938 66.34375 -61.203125 C 61.15625 -65.453125 55.257812 -67.578125 48.65625 -67.578125 C 38.507812 -67.578125 30.546875 -63.035156 24.765625 -53.953125 C 22.992188 -51.117188 21.753906 -48.050781 21.046875 -44.75 Z M 76.25 -44.75 "/></g></g></g></g></g></svg>