<svg xmlns="http://www.w3.org/2000/svg" xmlns:xlink="http://www.w3.org/1999/xlink" width="2000" zoomAndPan="magnify" viewBox="0 0 1500 1499.999933" height="2000" preserveAspectRatio="xMidYMid meet" version="1.0"><defs><g/></defs><g fill="#222222" fill-opacity="1"><g transform="translate(679.423718, 1045.33279)"><g/></g></g><g fill="#222222" fill-opacity="1"><g transform="translate(630.724661, 1032.852409)"><g><path d="M -99.984375 -27.59375 C -96.554688 -32.8125 -91.90625 -36.671875 -86.03125 -39.171875 C -80.15625 -41.679688 -73.457031 -42.367188 -65.9375 -41.234375 C -58.414062 -40.109375 -50.328125 -36.695312 -41.671875 -31 C -34.785156 -26.46875 -29.285156 -21.695312 -25.171875 -16.6875 C -21.066406 -11.675781 -17.941406 -6.992188 -15.796875 -2.640625 C -13.660156 1.710938 -12.234375 5.28125 -11.515625 8.0625 C -10.796875 10.84375 -10.4375 12.234375 -10.4375 12.234375 L -36.078125 24 C -36.078125 24 -36.476562 22.734375 -37.28125 20.203125 C -38.082031 17.679688 -39.609375 14.6875 -41.859375 11.21875 C -44.117188 7.75 -47.304688 4.664062 -51.421875 1.96875 C -52.640625 1.164062 -53.875 0.867188 -55.125 1.078125 C -56.375 1.296875 -57.253906 1.789062 -57.765625 2.5625 C -58.421875 3.5625 -57.957031 5.210938 -56.375 7.515625 C -54.800781 9.828125 -52.84375 12.710938 -50.5 16.171875 C -48.15625 19.628906 -46.078125 23.546875 -44.265625 27.921875 C -42.453125 32.296875 -41.613281 36.941406 -41.75 41.859375 C -41.882812 46.785156 -43.707031 51.921875 -47.21875 57.265625 C -50.71875 62.585938 -55.382812 66.472656 -61.21875 68.921875 C -67.050781 71.367188 -73.757812 72.003906 -81.34375 70.828125 C -88.925781 69.660156 -96.988281 66.265625 -105.53125 60.640625 C -111.195312 56.910156 -115.804688 52.84375 -119.359375 48.4375 C -122.910156 44.039062 -125.660156 39.882812 -127.609375 35.96875 C -129.566406 32.050781 -130.929688 28.804688 -131.703125 26.234375 C -132.484375 23.660156 -132.875 22.375 -132.875 22.375 L -107.234375 10.609375 C -107.234375 10.609375 -106.898438 11.617188 -106.234375 13.640625 C -105.578125 15.660156 -104.445312 17.992188 -102.84375 20.640625 C -101.238281 23.285156 -98.878906 25.628906 -95.765625 27.671875 C -94.546875 28.472656 -93.328125 28.796875 -92.109375 28.640625 C -90.898438 28.492188 -90.003906 27.976562 -89.421875 27.09375 C -88.765625 26.09375 -89.226562 24.429688 -90.8125 22.109375 C -92.394531 19.796875 -94.382812 16.894531 -96.78125 13.40625 C -99.1875 9.925781 -101.265625 6.015625 -103.015625 1.671875 C -104.773438 -2.667969 -105.585938 -7.300781 -105.453125 -12.21875 C -105.316406 -17.144531 -103.492188 -22.269531 -99.984375 -27.59375 Z M -99.984375 -27.59375 "/></g></g></g><g fill="#222222" fill-opacity="1"><g transform="translate(541.327737, 971.923074)"><g><path d="M -63.5 24.90625 L -55.15625 36.09375 L -87.125 59.90625 L -95.46875 48.71875 L -122.671875 68.96875 L -151.25 30.578125 L -124.046875 10.328125 L -134.765625 -4.0625 L -102.796875 -27.875 L -92.078125 -13.484375 L -78.46875 -23.609375 C -75.28125 -25.984375 -73.441406 -28.507812 -72.953125 -31.1875 C -72.460938 -33.875 -73.09375 -36.390625 -74.84375 -38.734375 C -76.03125 -40.335938 -77.253906 -41.707031 -78.515625 -42.84375 C -79.773438 -43.976562 -80.40625 -44.546875 -80.40625 -44.546875 L -48.40625 -68.359375 C -48.40625 -68.359375 -47.101562 -67.171875 -44.5 -64.796875 C -41.90625 -62.421875 -39.101562 -59.207031 -36.09375 -55.15625 C -27.195312 -43.207031 -23.78125 -31.160156 -25.84375 -19.015625 C -27.914062 -6.878906 -35.929688 4.382812 -49.890625 14.78125 Z M -63.5 24.90625 "/></g></g></g><g fill="#222222" fill-opacity="1"><g transform="translate(480.476993, 895.041836)"><g><path d="M -8.484375 -45.15625 C -6.835938 -38.71875 -7.101562 -32.40625 -9.28125 -26.21875 C -11.46875 -20.039062 -15.960938 -14.429688 -22.765625 -9.390625 C -29.578125 -4.359375 -38.90625 -0.320312 -50.75 2.71875 L -104.828125 16.5625 L -116.703125 -29.796875 L -62.625 -43.640625 C -58.757812 -44.640625 -56.066406 -46.1875 -54.546875 -48.28125 C -53.035156 -50.382812 -52.53125 -52.398438 -53.03125 -54.328125 C -53.519531 -56.265625 -54.9375 -57.789062 -57.28125 -58.90625 C -59.625 -60.03125 -62.726562 -60.09375 -66.59375 -59.09375 L -120.671875 -45.25 L -132.53125 -91.609375 L -30.171875 -117.828125 L -18.796875 -73.390625 L -29.40625 -66.5625 C -29.40625 -66.5625 -28.535156 -66.269531 -26.796875 -65.6875 C -25.066406 -65.101562 -23.003906 -64.019531 -20.609375 -62.4375 C -18.222656 -60.851562 -15.882812 -58.671875 -13.59375 -55.890625 C -11.3125 -53.117188 -9.609375 -49.539062 -8.484375 -45.15625 Z M -8.484375 -45.15625 "/></g></g></g><g fill="#222222" fill-opacity="1"><g transform="translate(447.579803, 766.596642)"><g><path d="M -50.6875 -16.078125 C -62.425781 -18.390625 -71.992188 -22.269531 -79.390625 -27.71875 C -86.785156 -33.175781 -91.984375 -39.453125 -94.984375 -46.546875 C -97.992188 -53.640625 -98.789062 -60.769531 -97.375 -67.9375 C -96.40625 -72.894531 -94.828125 -76.953125 -92.640625 -80.109375 C -90.453125 -83.273438 -88.203125 -85.742188 -85.890625 -87.515625 C -83.578125 -89.296875 -81.566406 -90.5625 -79.859375 -91.3125 C -78.160156 -92.0625 -77.3125 -92.4375 -77.3125 -92.4375 L -130.125 -102.84375 L -120.890625 -149.796875 L 23.875 -121.296875 L 15.40625 -78.25 C 11.226562 -77.71875 8.273438 -77.351562 6.546875 -77.15625 C 4.816406 -76.957031 3.773438 -76.820312 3.421875 -76.75 C 3.066406 -76.6875 2.890625 -76.65625 2.890625 -76.65625 C 2.890625 -76.65625 3.535156 -75.984375 4.828125 -74.640625 C 6.128906 -73.296875 7.515625 -71.363281 8.984375 -68.84375 C 10.453125 -66.320312 11.59375 -63.1875 12.40625 -59.4375 C 13.21875 -55.6875 13.140625 -51.332031 12.171875 -46.375 C 10.753906 -39.207031 7.3125 -32.910156 1.84375 -27.484375 C -3.621094 -22.054688 -10.8125 -18.21875 -19.71875 -15.96875 C -28.625 -13.726562 -38.945312 -13.765625 -50.6875 -16.078125 Z M -41.0625 -64.984375 C -36.238281 -64.035156 -32.375 -64.390625 -29.46875 -66.046875 C -26.570312 -67.710938 -24.835938 -69.976562 -24.265625 -72.84375 C -23.679688 -75.84375 -24.421875 -78.628906 -26.484375 -81.203125 C -28.554688 -83.785156 -32.003906 -85.550781 -36.828125 -86.5 C -41.785156 -87.476562 -45.675781 -87.160156 -48.5 -85.546875 C -51.320312 -83.929688 -53.023438 -81.625 -53.609375 -78.625 C -54.179688 -75.757812 -53.472656 -73.015625 -51.484375 -70.390625 C -49.492188 -67.765625 -46.019531 -65.960938 -41.0625 -64.984375 Z M -41.0625 -64.984375 "/></g></g></g><g fill="#222222" fill-opacity="1"><g transform="translate(480.750209, 632.652563)"><g><path d="M -84.859375 -63.75 L -59.84375 -104.546875 L 30.234375 -49.296875 L 5.21875 -8.5 Z M -95.0625 -70 L -127.359375 -89.8125 L -102.34375 -130.609375 L -70.046875 -110.796875 Z M -95.0625 -70 "/></g></g></g><g fill="#222222" fill-opacity="1"><g transform="translate(515.40468, 566.995036)"><g><path d="M -27.90625 -45.28125 C -34.289062 -53.4375 -38.050781 -62.429688 -39.1875 -72.265625 C -40.320312 -82.109375 -38.84375 -91.800781 -34.75 -101.34375 C -30.65625 -110.882812 -23.898438 -119.34375 -14.484375 -126.71875 C -5.066406 -134.101562 4.785156 -138.660156 15.078125 -140.390625 C 25.367188 -142.128906 35.132812 -141.257812 44.375 -137.78125 C 53.613281 -134.300781 61.425781 -128.484375 67.8125 -120.328125 C 74.132812 -112.265625 77.90625 -103.304688 79.125 -93.453125 C 80.34375 -83.597656 78.878906 -73.878906 74.734375 -64.296875 C 70.597656 -54.722656 63.820312 -46.242188 54.40625 -38.859375 C 44.988281 -31.484375 35.15625 -26.945312 24.90625 -25.25 C 14.664062 -23.550781 4.882812 -24.445312 -4.4375 -27.9375 C -13.757812 -31.4375 -21.582031 -37.21875 -27.90625 -45.28125 Z M 30.15625 -90.796875 C 27.375 -94.347656 24.125 -96.394531 20.40625 -96.9375 C 16.6875 -97.488281 13.460938 -96.695312 10.734375 -94.5625 C 8.015625 -92.4375 6.472656 -89.5 6.109375 -85.75 C 5.753906 -82 6.96875 -78.347656 9.75 -74.796875 C 12.539062 -71.234375 15.796875 -69.179688 19.515625 -68.640625 C 23.242188 -68.097656 26.46875 -68.890625 29.1875 -71.015625 C 31.914062 -73.148438 33.457031 -76.085938 33.8125 -79.828125 C 34.164062 -83.578125 32.945312 -87.234375 30.15625 -90.796875 Z M 30.15625 -90.796875 "/></g></g></g><g fill="#222222" fill-opacity="1"><g transform="translate(630.618189, 487.425206)"><g/></g></g><g fill="#222222" fill-opacity="1"><g transform="translate(682.560908, 470.040373)"><g/></g></g><g fill="#222222" fill-opacity="1"><g transform="translate(736.818255, 462.530661)"><g/></g></g><g fill="#222222" fill-opacity="1"><g transform="translate(785.320936, 457.499446)"><g><path d="M 137.921875 -7.359375 C 133.929688 3.917969 128.703125 12.820312 122.234375 19.34375 C 115.773438 25.875 108.816406 30.113281 101.359375 32.0625 C 93.910156 34.019531 86.738281 33.78125 79.84375 31.34375 C 75.207031 29.707031 71.453125 27.570312 68.578125 24.9375 C 65.703125 22.3125 63.550781 19.722656 62.125 17.171875 C 60.695312 14.628906 59.738281 12.457031 59.25 10.65625 C 58.757812 8.863281 58.515625 7.96875 58.515625 7.96875 C 58.515625 7.96875 58.394531 8.097656 58.15625 8.359375 C 57.914062 8.628906 57.265625 9.457031 56.203125 10.84375 C 55.148438 12.238281 53.335938 14.597656 50.765625 17.921875 L 9.40625 3.3125 L 58.515625 -135.828125 L 103.640625 -119.890625 L 85.71875 -69.125 C 85.71875 -69.125 86.472656 -69.664062 87.984375 -70.75 C 89.492188 -71.832031 91.601562 -72.914062 94.3125 -74 C 97.019531 -75.09375 100.320312 -75.765625 104.21875 -76.015625 C 108.113281 -76.265625 112.378906 -75.570312 117.015625 -73.9375 C 123.910156 -71.5 129.644531 -67.179688 134.21875 -60.984375 C 138.789062 -54.796875 141.546875 -47.128906 142.484375 -37.984375 C 143.421875 -28.847656 141.898438 -18.640625 137.921875 -7.359375 Z M 90.921875 -23.953125 C 92.597656 -28.710938 92.84375 -32.609375 91.65625 -35.640625 C 90.46875 -38.671875 88.429688 -40.691406 85.546875 -41.703125 C 82.785156 -42.679688 79.960938 -42.375 77.078125 -40.78125 C 74.191406 -39.1875 71.910156 -36.007812 70.234375 -31.25 C 68.585938 -26.613281 68.378906 -22.738281 69.609375 -19.625 C 70.835938 -16.519531 72.832031 -14.476562 75.59375 -13.5 C 78.476562 -12.488281 81.34375 -12.816406 84.1875 -14.484375 C 87.03125 -16.160156 89.273438 -19.316406 90.921875 -23.953125 Z M 90.921875 -23.953125 "/></g></g></g><g fill="#222222" fill-opacity="1"><g transform="translate(913.070189, 509.664322)"><g><path d="M 7.65625 6.390625 L 102.15625 -106.921875 L 138.90625 -76.28125 L 44.40625 37.03125 Z M 7.65625 6.390625 "/></g></g></g><g fill="#222222" fill-opacity="1"><g transform="translate(973.036576, 553.43772)"><g><path d="M 48.828125 -21.0625 C 57.816406 -26.21875 67.265625 -28.640625 77.171875 -28.328125 C 87.078125 -28.023438 96.453125 -25.160156 105.296875 -19.734375 C 114.148438 -14.316406 121.550781 -6.414062 127.5 3.96875 C 133.4375 14.34375 136.519531 24.75 136.75 35.1875 C 136.976562 45.625 134.703125 55.160156 129.921875 63.796875 C 125.140625 72.429688 118.253906 79.328125 109.265625 84.484375 C 100.378906 89.566406 90.972656 92 81.046875 91.78125 C 71.117188 91.5625 61.710938 88.710938 52.828125 83.234375 C 43.941406 77.753906 36.53125 69.828125 30.59375 59.453125 C 24.644531 49.066406 21.570312 38.679688 21.375 28.296875 C 21.1875 17.921875 23.492188 8.375 28.296875 -0.34375 C 33.097656 -9.070312 39.941406 -15.976562 48.828125 -21.0625 Z M 85.484375 42.953125 C 89.410156 40.703125 91.910156 37.773438 92.984375 34.171875 C 94.054688 30.578125 93.734375 27.28125 92.015625 24.28125 C 90.296875 21.28125 87.613281 19.332031 83.96875 18.4375 C 80.320312 17.539062 76.535156 18.21875 72.609375 20.46875 C 68.679688 22.707031 66.175781 25.628906 65.09375 29.234375 C 64.019531 32.835938 64.34375 36.140625 66.0625 39.140625 C 67.78125 42.140625 70.460938 44.082031 74.109375 44.96875 C 77.765625 45.863281 81.554688 45.191406 85.484375 42.953125 Z M 85.484375 42.953125 "/></g></g></g><g fill="#222222" fill-opacity="1"><g transform="translate(1046.348874, 664.816588)"><g><path d="M 106.90625 150.796875 C 106.832031 157.441406 104.9375 163.46875 101.21875 168.875 C 97.5 174.28125 91.734375 178.535156 83.921875 181.640625 C 76.109375 184.742188 66.019531 186.222656 53.65625 186.078125 L -2.171875 185.421875 L -1.609375 137.5625 L 54.21875 138.21875 C 58.207031 138.257812 61.207031 137.460938 63.21875 135.828125 C 65.238281 134.191406 66.257812 132.378906 66.28125 130.390625 C 66.300781 128.390625 65.320312 126.546875 63.34375 124.859375 C 61.375 123.171875 58.394531 122.304688 54.40625 122.265625 L -1.421875 121.609375 L -0.859375 73.78125 L 54.96875 74.4375 C 58.957031 74.476562 61.957031 73.679688 63.96875 72.046875 C 65.976562 70.410156 67 68.59375 67.03125 66.59375 C 67.050781 64.601562 66.070312 62.765625 64.09375 61.078125 C 62.125 59.390625 59.144531 58.523438 55.15625 58.484375 L -0.671875 57.828125 L -0.109375 9.96875 L 105.546875 11.203125 L 105 57.0625 L 93.015625 60.90625 C 93.015625 60.90625 93.769531 61.445312 95.28125 62.53125 C 96.800781 63.613281 98.507812 65.265625 100.40625 67.484375 C 102.300781 69.703125 103.992188 72.613281 105.484375 76.21875 C 106.972656 79.820312 107.6875 84.082031 107.625 89 C 107.570312 94.050781 106.554688 98.421875 104.578125 102.109375 C 102.609375 105.804688 100.382812 108.875 97.90625 111.3125 C 95.425781 113.75 93.210938 115.582031 91.265625 116.8125 C 89.316406 118.050781 88.34375 118.671875 88.34375 118.671875 C 88.34375 118.671875 89.300781 119.414062 91.21875 120.90625 C 93.132812 122.394531 95.300781 124.515625 97.71875 127.265625 C 100.132812 130.015625 102.285156 133.394531 104.171875 137.40625 C 106.054688 141.414062 106.96875 145.878906 106.90625 150.796875 Z M 106.90625 150.796875 "/></g></g></g><g fill="#222222" fill-opacity="1"><g transform="translate(1045.819014, 852.974462)"><g><path d="M 0.21875 184.859375 C -3.675781 190.234375 -8.703125 194.050781 -14.859375 196.3125 C -21.015625 198.582031 -28.175781 198.726562 -36.34375 196.75 C -44.519531 194.769531 -53.613281 190.15625 -63.625 182.90625 L -108.828125 150.140625 L -80.734375 111.390625 L -35.53125 144.15625 C -32.300781 146.5 -29.390625 147.582031 -26.796875 147.40625 C -24.210938 147.226562 -22.335938 146.332031 -21.171875 144.71875 C -19.992188 143.101562 -19.722656 141.039062 -20.359375 138.53125 C -21.003906 136.019531 -22.941406 133.59375 -26.171875 131.25 L -71.375 98.484375 L -43.296875 59.734375 L 1.90625 92.5 C 5.132812 94.84375 8.039062 95.925781 10.625 95.75 C 13.21875 95.570312 15.101562 94.675781 16.28125 93.0625 C 17.445312 91.445312 17.707031 89.382812 17.0625 86.875 C 16.425781 84.363281 14.492188 81.9375 11.265625 79.59375 L -33.9375 46.828125 L -5.84375 8.078125 L 79.71875 70.09375 L 52.796875 107.21875 L 40.796875 103.4375 C 40.796875 103.4375 41.097656 104.3125 41.703125 106.0625 C 42.316406 107.820312 42.753906 110.15625 43.015625 113.0625 C 43.285156 115.96875 42.988281 119.320312 42.125 123.125 C 41.257812 126.925781 39.382812 130.816406 36.5 134.796875 C 33.53125 138.890625 30.175781 141.875 26.4375 143.75 C 22.695312 145.632812 19.109375 146.851562 15.671875 147.40625 C 12.242188 147.957031 9.375 148.175781 7.0625 148.0625 C 4.757812 147.957031 3.609375 147.90625 3.609375 147.90625 C 3.609375 147.90625 3.960938 149.0625 4.671875 151.375 C 5.378906 153.695312 5.925781 156.679688 6.3125 160.328125 C 6.707031 163.972656 6.507812 167.972656 5.71875 172.328125 C 4.9375 176.691406 3.101562 180.867188 0.21875 184.859375 Z M 0.21875 184.859375 "/></g></g></g><g fill="#222222" fill-opacity="1"><g transform="translate(928.31533, 1001.315457)"><g><path d="M -6.859375 122.453125 C -17.148438 127.117188 -27.347656 129.003906 -37.453125 128.109375 C -47.566406 127.222656 -56.695312 123.992188 -64.84375 118.421875 C -72.988281 112.847656 -79.203125 105.34375 -83.484375 95.90625 C -86.992188 88.15625 -90.695312 79.984375 -94.59375 71.390625 C -98.5 62.796875 -102.070312 54.925781 -105.3125 47.78125 L -63.546875 28.828125 L -54.984375 38.09375 C -54.984375 38.09375 -54.84375 37.1875 -54.5625 35.375 C -54.289062 33.570312 -53.582031 31.351562 -52.4375 28.71875 C -51.289062 26.082031 -49.550781 23.394531 -47.21875 20.65625 C -44.882812 17.925781 -41.660156 15.625 -37.546875 13.75 C -30.890625 10.726562 -24.519531 9.40625 -18.4375 9.78125 C -12.363281 10.164062 -6.960938 12.019531 -2.234375 15.34375 C 2.492188 18.675781 6.148438 23.1875 8.734375 28.875 C 11.367188 34.6875 12.21875 40.503906 11.28125 46.328125 C 10.34375 52.160156 7.253906 57.832031 2.015625 63.34375 C -3.210938 68.863281 -10.972656 73.957031 -21.265625 78.625 L -35.78125 85.21875 C -35.78125 85.21875 -35.035156 85.894531 -33.546875 87.25 C -32.054688 88.613281 -29.785156 89.59375 -26.734375 90.1875 C -23.691406 90.78125 -19.75 89.976562 -14.90625 87.78125 C -11.882812 86.40625 -9.40625 84.546875 -7.46875 82.203125 C -5.539062 79.867188 -4.125 77.769531 -3.21875 75.90625 C -2.320312 74.039062 -1.875 73.109375 -1.875 73.109375 L 24.6875 90.609375 C 24.6875 90.609375 24.164062 91.71875 23.125 93.9375 C 22.09375 96.164062 20.410156 98.972656 18.078125 102.359375 C 15.742188 105.753906 12.546875 109.25 8.484375 112.84375 C 4.429688 116.445312 -0.679688 119.648438 -6.859375 122.453125 Z M -40.71875 50.21875 C -43.019531 51.257812 -44.554688 53.414062 -45.328125 56.6875 C -46.109375 59.96875 -45.257812 64.332031 -42.78125 69.78125 C -37.820312 67.53125 -34.601562 64.898438 -33.125 61.890625 C -31.644531 58.878906 -31.535156 55.984375 -32.796875 53.203125 C -33.398438 51.867188 -34.535156 50.882812 -36.203125 50.25 C -37.878906 49.625 -39.382812 49.613281 -40.71875 50.21875 Z M -40.71875 50.21875 "/></g></g></g></svg>