<svg xmlns="http://www.w3.org/2000/svg" xmlns:xlink="http://www.w3.org/1999/xlink" width="2000" zoomAndPan="magnify" viewBox="0 0 1500 1499.999933" height="2000" preserveAspectRatio="xMidYMid meet" version="1.0"><defs><g/></defs><g fill="#222222" fill-opacity="1"><g transform="translate(257.741471, 681.493745)"><g/></g></g><g fill="#222222" fill-opacity="1"><g transform="translate(295.300058, 681.493745)"><g><path d="M 161.640625 -52.25 C 161.640625 -42.007812 158.753906 -32.535156 152.984375 -23.828125 C 147.210938 -15.128906 138.664062 -8.164062 127.34375 -2.9375 C 116.03125 2.28125 101.878906 4.890625 84.890625 4.890625 C 71.398438 4.890625 59.59375 3.3125 49.46875 0.15625 C 39.34375 -3 30.851562 -6.585938 24 -10.609375 C 17.144531 -14.640625 11.972656 -18.234375 8.484375 -21.390625 C 5.003906 -24.546875 3.265625 -26.125 3.265625 -26.125 L 27.75 -65.3125 C 27.75 -65.3125 29.4375 -63.945312 32.8125 -61.21875 C 36.1875 -58.5 40.972656 -55.78125 47.171875 -53.0625 C 53.378906 -50.34375 60.515625 -48.984375 68.578125 -48.984375 C 70.960938 -48.984375 72.914062 -49.6875 74.4375 -51.09375 C 75.96875 -52.507812 76.734375 -53.984375 76.734375 -55.515625 C 76.734375 -57.472656 74.609375 -59.320312 70.359375 -61.0625 C 66.117188 -62.800781 60.84375 -64.976562 54.53125 -67.59375 C 48.21875 -70.207031 41.847656 -73.691406 35.421875 -78.046875 C 29.003906 -82.398438 23.671875 -88.003906 19.421875 -94.859375 C 15.179688 -101.710938 13.0625 -110.363281 13.0625 -120.8125 C 13.0625 -131.257812 15.945312 -140.78125 21.71875 -149.375 C 27.488281 -157.976562 36.085938 -164.890625 47.515625 -170.109375 C 58.941406 -175.335938 73.035156 -177.953125 89.796875 -177.953125 C 100.898438 -177.953125 110.859375 -176.535156 119.671875 -173.703125 C 128.484375 -170.878906 135.992188 -167.671875 142.203125 -164.078125 C 148.410156 -160.484375 153.203125 -157.269531 156.578125 -154.4375 C 159.953125 -151.613281 161.640625 -150.203125 161.640625 -150.203125 L 137.140625 -111.015625 C 137.140625 -111.015625 135.78125 -112.101562 133.0625 -114.28125 C 130.34375 -116.457031 126.695312 -118.632812 122.125 -120.8125 C 117.550781 -122.988281 112.21875 -124.078125 106.125 -124.078125 C 103.726562 -124.078125 101.765625 -123.421875 100.234375 -122.109375 C 98.710938 -120.804688 97.953125 -119.285156 97.953125 -117.546875 C 97.953125 -115.585938 100.070312 -113.738281 104.3125 -112 C 108.5625 -110.257812 113.894531 -108.082031 120.3125 -105.46875 C 126.738281 -102.851562 133.109375 -99.367188 139.421875 -95.015625 C 145.734375 -90.660156 151.015625 -85.054688 155.265625 -78.203125 C 159.515625 -71.347656 161.640625 -62.695312 161.640625 -52.25 Z M 161.640625 -52.25 "/></g></g></g><g fill="#222222" fill-opacity="1"><g transform="translate(435.709511, 681.493745)"><g><path d="M 29.390625 -107.75 L 6.53125 -107.75 L 6.53125 -173.0625 L 29.390625 -173.0625 L 29.390625 -228.578125 L 107.75 -228.578125 L 107.75 -173.0625 L 137.140625 -173.0625 L 137.140625 -107.75 L 107.75 -107.75 L 107.75 -80 C 107.75 -73.46875 109.269531 -68.566406 112.3125 -65.296875 C 115.363281 -62.035156 119.285156 -60.40625 124.078125 -60.40625 C 127.347656 -60.40625 130.34375 -60.675781 133.0625 -61.21875 C 135.78125 -61.769531 137.140625 -62.046875 137.140625 -62.046875 L 137.140625 3.265625 C 137.140625 3.265625 134.304688 3.804688 128.640625 4.890625 C 122.984375 5.984375 116.019531 6.53125 107.75 6.53125 C 83.375 6.53125 64.21875 -0.757812 50.28125 -15.34375 C 36.351562 -29.925781 29.390625 -51.476562 29.390625 -80 Z M 29.390625 -107.75 "/></g></g></g><g fill="#222222" fill-opacity="1"><g transform="translate(561.424931, 681.493745)"><g><path d="M 75.109375 4.890625 C 64.222656 4.890625 54.316406 1.898438 45.390625 -4.078125 C 36.460938 -10.066406 29.382812 -19.484375 24.15625 -32.328125 C 18.9375 -45.171875 16.328125 -61.601562 16.328125 -81.625 L 16.328125 -173.0625 L 94.6875 -173.0625 L 94.6875 -81.625 C 94.6875 -75.101562 96.046875 -70.207031 98.765625 -66.9375 C 101.492188 -63.675781 104.488281 -62.046875 107.75 -62.046875 C 111.019531 -62.046875 114.015625 -63.675781 116.734375 -66.9375 C 119.453125 -70.207031 120.8125 -75.101562 120.8125 -81.625 L 120.8125 -173.0625 L 199.1875 -173.0625 L 199.1875 0 L 124.078125 0 L 117.546875 -19.59375 C 117.546875 -19.59375 116.726562 -18.335938 115.09375 -15.828125 C 113.46875 -13.328125 110.910156 -10.5 107.421875 -7.34375 C 103.941406 -4.1875 99.535156 -1.359375 94.203125 1.140625 C 88.867188 3.640625 82.503906 4.890625 75.109375 4.890625 Z M 75.109375 4.890625 "/></g></g></g><g fill="#222222" fill-opacity="1"><g transform="translate(749.181857, 681.493745)"><g><path d="M 9.796875 -86.53125 C 9.796875 -106.125 13.003906 -122.722656 19.421875 -136.328125 C 25.847656 -149.929688 34.285156 -160.269531 44.734375 -167.34375 C 55.179688 -174.414062 66.394531 -177.953125 78.375 -177.953125 C 86.644531 -177.953125 93.660156 -176.703125 99.421875 -174.203125 C 105.191406 -171.703125 109.875 -168.875 113.46875 -165.71875 C 117.0625 -162.5625 119.726562 -159.726562 121.46875 -157.21875 C 123.207031 -154.71875 124.078125 -153.46875 124.078125 -153.46875 L 124.078125 -241.640625 L 202.453125 -241.640625 L 202.453125 0 L 130.609375 0 C 128.429688 -6.53125 126.90625 -11.15625 126.03125 -13.875 C 125.164062 -16.59375 124.625 -18.222656 124.40625 -18.765625 C 124.1875 -19.316406 124.078125 -19.59375 124.078125 -19.59375 C 124.078125 -19.59375 123.207031 -18.335938 121.46875 -15.828125 C 119.726562 -13.328125 117.0625 -10.5 113.46875 -7.34375 C 109.875 -4.1875 105.191406 -1.359375 99.421875 1.140625 C 93.660156 3.640625 86.644531 4.890625 78.375 4.890625 C 66.394531 4.890625 55.179688 1.351562 44.734375 -5.71875 C 34.285156 -12.789062 25.847656 -23.128906 19.421875 -36.734375 C 13.003906 -50.335938 9.796875 -66.9375 9.796875 -86.53125 Z M 91.421875 -86.53125 C 91.421875 -78.476562 93.21875 -72.382812 96.8125 -68.25 C 100.40625 -64.113281 104.597656 -62.046875 109.390625 -62.046875 C 114.390625 -62.046875 118.628906 -64.113281 122.109375 -68.25 C 125.597656 -72.382812 127.34375 -78.476562 127.34375 -86.53125 C 127.34375 -94.800781 125.597656 -100.945312 122.109375 -104.96875 C 118.628906 -109 114.390625 -111.015625 109.390625 -111.015625 C 104.597656 -111.015625 100.40625 -109 96.8125 -104.96875 C 93.21875 -100.945312 91.421875 -94.800781 91.421875 -86.53125 Z M 91.421875 -86.53125 "/></g></g></g><g fill="#222222" fill-opacity="1"><g transform="translate(940.204148, 681.493745)"><g><path d="M 16.328125 -173.0625 L 94.6875 -173.0625 L 94.6875 0 L 16.328125 0 Z M 16.328125 -192.65625 L 16.328125 -254.6875 L 94.6875 -254.6875 L 94.6875 -192.65625 Z M 16.328125 -192.65625 "/></g></g></g><g fill="#222222" fill-opacity="1"><g transform="translate(1023.470071, 681.493745)"><g><path d="M 9.796875 -86.53125 C 9.796875 -103.507812 14.039062 -118.910156 22.53125 -132.734375 C 31.019531 -146.554688 42.71875 -157.546875 57.625 -165.703125 C 72.539062 -173.867188 89.796875 -177.953125 109.390625 -177.953125 C 128.984375 -177.953125 146.289062 -173.867188 161.3125 -165.703125 C 176.332031 -157.546875 188.03125 -146.554688 196.40625 -132.734375 C 204.789062 -118.910156 208.984375 -103.507812 208.984375 -86.53125 C 208.984375 -69.769531 204.789062 -54.421875 196.40625 -40.484375 C 188.03125 -26.554688 176.332031 -15.507812 161.3125 -7.34375 C 146.289062 0.8125 128.984375 4.890625 109.390625 4.890625 C 89.796875 4.890625 72.539062 0.8125 57.625 -7.34375 C 42.71875 -15.507812 31.019531 -26.554688 22.53125 -40.484375 C 14.039062 -54.421875 9.796875 -69.769531 9.796875 -86.53125 Z M 130.609375 -86.53125 C 130.609375 -93.9375 128.484375 -99.867188 124.234375 -104.328125 C 119.992188 -108.785156 115.046875 -111.015625 109.390625 -111.015625 C 103.722656 -111.015625 98.765625 -108.785156 94.515625 -104.328125 C 90.273438 -99.867188 88.15625 -93.9375 88.15625 -86.53125 C 88.15625 -79.125 90.273438 -73.191406 94.515625 -68.734375 C 98.765625 -64.273438 103.722656 -62.046875 109.390625 -62.046875 C 115.046875 -62.046875 119.992188 -64.273438 124.234375 -68.734375 C 128.484375 -73.191406 130.609375 -79.125 130.609375 -86.53125 Z M 130.609375 -86.53125 "/></g></g></g><g fill="#222222" fill-opacity="1"><g transform="translate(127.124291, 1024.243716)"><g><path d="M 208.984375 -86.53125 C 208.984375 -66.9375 205.769531 -50.335938 199.34375 -36.734375 C 192.925781 -23.128906 184.492188 -12.789062 174.046875 -5.71875 C 163.597656 1.351562 152.382812 4.890625 140.40625 4.890625 C 132.351562 4.890625 125.382812 3.640625 119.5 1.140625 C 113.625 -1.359375 108.890625 -4.1875 105.296875 -7.34375 C 101.710938 -10.5 99.046875 -13.328125 97.296875 -15.828125 C 95.554688 -18.335938 94.6875 -19.59375 94.6875 -19.59375 C 94.6875 -19.59375 94.578125 -19.316406 94.359375 -18.765625 C 94.148438 -18.222656 93.609375 -16.59375 92.734375 -13.875 C 91.859375 -11.15625 90.332031 -6.53125 88.15625 0 L 16.328125 0 L 16.328125 -241.640625 L 94.6875 -241.640625 L 94.6875 -153.46875 C 94.6875 -153.46875 95.554688 -154.71875 97.296875 -157.21875 C 99.046875 -159.726562 101.710938 -162.5625 105.296875 -165.71875 C 108.890625 -168.875 113.625 -171.703125 119.5 -174.203125 C 125.382812 -176.703125 132.351562 -177.953125 140.40625 -177.953125 C 152.382812 -177.953125 163.597656 -174.414062 174.046875 -167.34375 C 184.492188 -160.269531 192.925781 -149.929688 199.34375 -136.328125 C 205.769531 -122.722656 208.984375 -106.125 208.984375 -86.53125 Z M 127.34375 -86.53125 C 127.34375 -94.800781 125.597656 -100.945312 122.109375 -104.96875 C 118.628906 -109 114.390625 -111.015625 109.390625 -111.015625 C 104.597656 -111.015625 100.40625 -109 96.8125 -104.96875 C 93.21875 -100.945312 91.421875 -94.800781 91.421875 -86.53125 C 91.421875 -78.476562 93.21875 -72.382812 96.8125 -68.25 C 100.40625 -64.113281 104.597656 -62.046875 109.390625 -62.046875 C 114.390625 -62.046875 118.628906 -64.113281 122.109375 -68.25 C 125.597656 -72.382812 127.34375 -78.476562 127.34375 -86.53125 Z M 127.34375 -86.53125 "/></g></g></g><g fill="#222222" fill-opacity="1"><g transform="translate(318.146582, 1024.243716)"><g><path d="M 16.328125 0 L 16.328125 -241.640625 L 94.6875 -241.640625 L 94.6875 0 Z M 16.328125 0 "/></g></g></g><g fill="#222222" fill-opacity="1"><g transform="translate(401.412505, 1024.243716)"><g><path d="M 9.796875 -86.53125 C 9.796875 -103.507812 14.039062 -118.910156 22.53125 -132.734375 C 31.019531 -146.554688 42.71875 -157.546875 57.625 -165.703125 C 72.539062 -173.867188 89.796875 -177.953125 109.390625 -177.953125 C 128.984375 -177.953125 146.289062 -173.867188 161.3125 -165.703125 C 176.332031 -157.546875 188.03125 -146.554688 196.40625 -132.734375 C 204.789062 -118.910156 208.984375 -103.507812 208.984375 -86.53125 C 208.984375 -69.769531 204.789062 -54.421875 196.40625 -40.484375 C 188.03125 -26.554688 176.332031 -15.507812 161.3125 -7.34375 C 146.289062 0.8125 128.984375 4.890625 109.390625 4.890625 C 89.796875 4.890625 72.539062 0.8125 57.625 -7.34375 C 42.71875 -15.507812 31.019531 -26.554688 22.53125 -40.484375 C 14.039062 -54.421875 9.796875 -69.769531 9.796875 -86.53125 Z M 130.609375 -86.53125 C 130.609375 -93.9375 128.484375 -99.867188 124.234375 -104.328125 C 119.992188 -108.785156 115.046875 -111.015625 109.390625 -111.015625 C 103.722656 -111.015625 98.765625 -108.785156 94.515625 -104.328125 C 90.273438 -99.867188 88.15625 -93.9375 88.15625 -86.53125 C 88.15625 -79.125 90.273438 -73.191406 94.515625 -68.734375 C 98.765625 -64.273438 103.722656 -62.046875 109.390625 -62.046875 C 115.046875 -62.046875 119.992188 -64.273438 124.234375 -68.734375 C 128.484375 -73.191406 130.609375 -79.125 130.609375 -86.53125 Z M 130.609375 -86.53125 "/></g></g></g><g fill="#222222" fill-opacity="1"><g transform="translate(592.434796, 1024.243716)"><g><path d="M 244.890625 -177.953125 C 255.773438 -177.953125 265.679688 -174.957031 274.609375 -168.96875 C 283.535156 -162.988281 290.609375 -153.628906 295.828125 -140.890625 C 301.054688 -128.160156 303.671875 -111.671875 303.671875 -91.421875 L 303.671875 0 L 225.3125 0 L 225.3125 -91.421875 C 225.3125 -97.953125 223.945312 -102.847656 221.21875 -106.109375 C 218.5 -109.378906 215.507812 -111.015625 212.25 -111.015625 C 208.976562 -111.015625 205.984375 -109.378906 203.265625 -106.109375 C 200.546875 -102.847656 199.1875 -97.953125 199.1875 -91.421875 L 199.1875 0 L 120.8125 0 L 120.8125 -91.421875 C 120.8125 -97.953125 119.453125 -102.847656 116.734375 -106.109375 C 114.015625 -109.378906 111.019531 -111.015625 107.75 -111.015625 C 104.488281 -111.015625 101.492188 -109.378906 98.765625 -106.109375 C 96.046875 -102.847656 94.6875 -97.953125 94.6875 -91.421875 L 94.6875 0 L 16.328125 0 L 16.328125 -173.0625 L 91.421875 -173.0625 L 97.953125 -153.46875 C 97.953125 -153.46875 98.820312 -154.71875 100.5625 -157.21875 C 102.3125 -159.726562 104.976562 -162.5625 108.5625 -165.71875 C 112.15625 -168.875 116.890625 -171.703125 122.765625 -174.203125 C 128.648438 -176.703125 135.617188 -177.953125 143.671875 -177.953125 C 151.941406 -177.953125 159.125 -176.375 165.21875 -173.21875 C 171.320312 -170.0625 176.382812 -166.46875 180.40625 -162.4375 C 184.4375 -158.414062 187.484375 -154.828125 189.546875 -151.671875 C 191.617188 -148.515625 192.65625 -146.9375 192.65625 -146.9375 C 192.65625 -146.9375 193.851562 -148.515625 196.25 -151.671875 C 198.644531 -154.828125 202.070312 -158.414062 206.53125 -162.4375 C 210.988281 -166.46875 216.484375 -170.0625 223.015625 -173.21875 C 229.546875 -176.375 236.835938 -177.953125 244.890625 -177.953125 Z M 244.890625 -177.953125 "/></g></g></g><g fill="#222222" fill-opacity="1"><g transform="translate(881.417406, 1024.243716)"><g><path d="M 244.890625 -177.953125 C 255.773438 -177.953125 265.679688 -174.957031 274.609375 -168.96875 C 283.535156 -162.988281 290.609375 -153.628906 295.828125 -140.890625 C 301.054688 -128.160156 303.671875 -111.671875 303.671875 -91.421875 L 303.671875 0 L 225.3125 0 L 225.3125 -91.421875 C 225.3125 -97.953125 223.945312 -102.847656 221.21875 -106.109375 C 218.5 -109.378906 215.507812 -111.015625 212.25 -111.015625 C 208.976562 -111.015625 205.984375 -109.378906 203.265625 -106.109375 C 200.546875 -102.847656 199.1875 -97.953125 199.1875 -91.421875 L 199.1875 0 L 120.8125 0 L 120.8125 -91.421875 C 120.8125 -97.953125 119.453125 -102.847656 116.734375 -106.109375 C 114.015625 -109.378906 111.019531 -111.015625 107.75 -111.015625 C 104.488281 -111.015625 101.492188 -109.378906 98.765625 -106.109375 C 96.046875 -102.847656 94.6875 -97.953125 94.6875 -91.421875 L 94.6875 0 L 16.328125 0 L 16.328125 -173.0625 L 91.421875 -173.0625 L 97.953125 -153.46875 C 97.953125 -153.46875 98.820312 -154.71875 100.5625 -157.21875 C 102.3125 -159.726562 104.976562 -162.5625 108.5625 -165.71875 C 112.15625 -168.875 116.890625 -171.703125 122.765625 -174.203125 C 128.648438 -176.703125 135.617188 -177.953125 143.671875 -177.953125 C 151.941406 -177.953125 159.125 -176.375 165.21875 -173.21875 C 171.320312 -170.0625 176.382812 -166.46875 180.40625 -162.4375 C 184.4375 -158.414062 187.484375 -154.828125 189.546875 -151.671875 C 191.617188 -148.515625 192.65625 -146.9375 192.65625 -146.9375 C 192.65625 -146.9375 193.851562 -148.515625 196.25 -151.671875 C 198.644531 -154.828125 202.070312 -158.414062 206.53125 -162.4375 C 210.988281 -166.46875 216.484375 -170.0625 223.015625 -173.21875 C 229.546875 -176.375 236.835938 -177.953125 244.890625 -177.953125 Z M 244.890625 -177.953125 "/></g></g></g><g fill="#222222" fill-opacity="1"><g transform="translate(1170.400016, 1024.243716)"><g><path d="M 93.0625 -177.953125 C 111.5625 -177.953125 128.050781 -173.867188 142.53125 -165.703125 C 157.007812 -157.546875 168.4375 -146.554688 176.8125 -132.734375 C 185.195312 -118.910156 189.390625 -103.507812 189.390625 -86.53125 C 189.390625 -72.59375 189.390625 -57.894531 189.390625 -42.4375 C 189.390625 -26.988281 189.390625 -12.84375 189.390625 0 L 114.28125 0 L 107.75 -19.59375 C 107.75 -19.59375 106.929688 -18.335938 105.296875 -15.828125 C 103.671875 -13.328125 101.113281 -10.5 97.625 -7.34375 C 94.144531 -4.1875 89.738281 -1.359375 84.40625 1.140625 C 79.070312 3.640625 72.707031 4.890625 65.3125 4.890625 C 53.332031 4.890625 42.929688 2.550781 34.109375 -2.125 C 25.296875 -6.800781 18.492188 -13.21875 13.703125 -21.375 C 8.921875 -29.539062 6.53125 -38.742188 6.53125 -48.984375 C 6.53125 -59.429688 9.195312 -68.679688 14.53125 -76.734375 C 19.863281 -84.785156 28.296875 -91.148438 39.828125 -95.828125 C 51.367188 -100.515625 66.390625 -102.859375 84.890625 -102.859375 L 111.015625 -102.859375 C 111.015625 -102.859375 110.363281 -104.378906 109.0625 -107.421875 C 107.757812 -110.472656 105.035156 -113.46875 100.890625 -116.40625 C 96.753906 -119.34375 90.332031 -120.8125 81.625 -120.8125 C 76.1875 -120.8125 71.234375 -119.722656 66.765625 -117.546875 C 62.304688 -115.367188 58.769531 -113.191406 56.15625 -111.015625 C 53.550781 -108.835938 52.25 -107.75 52.25 -107.75 L 24.484375 -151.84375 C 24.484375 -151.84375 26.003906 -153.144531 29.046875 -155.75 C 32.097656 -158.363281 36.507812 -161.410156 42.28125 -164.890625 C 48.050781 -168.378906 55.179688 -171.425781 63.671875 -174.03125 C 72.160156 -176.644531 81.957031 -177.953125 93.0625 -177.953125 Z M 94.6875 -47.34375 C 98.820312 -47.34375 102.578125 -49.519531 105.953125 -53.875 C 109.328125 -58.226562 111.015625 -65.304688 111.015625 -75.109375 C 102.097656 -75.109375 95.515625 -73.363281 91.265625 -69.875 C 87.015625 -66.394531 84.890625 -62.148438 84.890625 -57.140625 C 84.890625 -54.742188 85.925781 -52.507812 88 -50.4375 C 90.070312 -48.375 92.300781 -47.34375 94.6875 -47.34375 Z M 94.6875 -47.34375 "/></g></g></g></svg>