<svg xmlns="http://www.w3.org/2000/svg" xmlns:xlink="http://www.w3.org/1999/xlink" width="2000" zoomAndPan="magnify" viewBox="0 0 1500 1499.999933" height="2000" preserveAspectRatio="xMidYMid meet" version="1.0"><defs><g/><clipPath id="ecbb541399"><rect x="0" width="1273" y="0" height="195"/></clipPath></defs><g transform="matrix(1, 0, 0, 1, 113, 585)"><g clip-path="url(#ecbb541399)"><g fill="#000000" fill-opacity="1"><g transform="translate(1.334407, 153.205865)"><g><path d="M 61.203125 0 L 61.203125 -44.40625 C 61.203125 -49.039062 60.179688 -53.023438 58.140625 -56.359375 C 55.984375 -59.585938 52.484375 -61.203125 47.640625 -61.203125 C 42.796875 -61.203125 38.867188 -60.289062 35.859375 -58.46875 C 32.835938 -56.632812 30.410156 -54.265625 28.578125 -51.359375 C 25.140625 -45.972656 23.421875 -38.757812 23.421875 -29.71875 L 23.421875 0 L 12.109375 0 L 12.109375 -71.0625 L 23.421875 -71.0625 L 23.421875 -58.78125 C 25.785156 -62.769531 28.800781 -66.054688 32.46875 -68.640625 C 36.34375 -71.222656 40.804688 -72.515625 45.859375 -72.515625 C 50.921875 -72.515625 55.015625 -71.8125 58.140625 -70.40625 C 61.265625 -68.90625 63.898438 -66.914062 66.046875 -64.4375 C 70.359375 -59.375 72.515625 -52.695312 72.515625 -44.40625 L 72.515625 0 Z M 61.203125 0 "/></g></g></g><g fill="#000000" fill-opacity="1"><g transform="translate(83.536654, 153.205865)"><g><path d="M 70.25 -35.859375 C 70.25 -42.960938 67.71875 -49.046875 62.65625 -54.109375 C 57.601562 -59.160156 51.519531 -61.6875 44.40625 -61.6875 C 37.300781 -61.6875 31.21875 -59.160156 26.15625 -54.109375 C 21.101562 -49.046875 18.578125 -42.960938 18.578125 -35.859375 C 18.578125 -28.859375 21.101562 -22.828125 26.15625 -17.765625 C 31.21875 -12.703125 37.300781 -10.171875 44.40625 -10.171875 C 51.519531 -10.171875 57.601562 -12.703125 62.65625 -17.765625 C 67.71875 -22.828125 70.25 -28.859375 70.25 -35.859375 Z M 81.5625 -35.859375 C 81.5625 -25.515625 77.953125 -16.789062 70.734375 -9.6875 C 63.304688 -2.476562 54.53125 1.125 44.40625 1.125 C 34.289062 1.125 25.570312 -2.476562 18.25 -9.6875 C 10.925781 -16.789062 7.265625 -25.515625 7.265625 -35.859375 C 7.265625 -46.085938 10.925781 -54.859375 18.25 -62.171875 C 25.457031 -69.390625 34.175781 -73 44.40625 -73 C 54.632812 -73 63.410156 -69.390625 70.734375 -62.171875 C 77.953125 -54.859375 81.5625 -46.085938 81.5625 -35.859375 Z M 81.5625 -35.859375 "/></g></g></g><g fill="#000000" fill-opacity="1"><g transform="translate(172.360299, 153.205865)"><g><path d="M 23.421875 0 L 12.109375 0 L 12.109375 -121.125 L 23.421875 -121.125 Z M 23.421875 0 "/></g></g></g><g fill="#000000" fill-opacity="1"><g transform="translate(207.889763, 153.205865)"><g><path d="M 68.640625 -35.53125 C 68.640625 -42.414062 66.269531 -48.445312 61.53125 -53.625 C 56.6875 -58.789062 50.710938 -61.375 43.609375 -61.375 C 36.503906 -61.375 30.582031 -58.789062 25.84375 -53.625 C 21 -48.445312 18.578125 -42.414062 18.578125 -35.53125 C 18.578125 -28.632812 21 -22.601562 25.84375 -17.4375 C 30.582031 -12.269531 36.503906 -9.6875 43.609375 -9.6875 C 50.710938 -9.6875 56.6875 -12.269531 61.53125 -17.4375 C 66.269531 -22.601562 68.640625 -28.632812 68.640625 -35.53125 Z M 79.9375 0 L 68.640625 0 L 68.640625 -12.109375 C 67.992188 -11.253906 67.347656 -10.445312 66.703125 -9.6875 C 59.921875 -2.15625 51.628906 1.609375 41.828125 1.609375 C 32.023438 1.609375 23.789062 -2.15625 17.125 -9.6875 C 10.550781 -17.007812 7.265625 -25.625 7.265625 -35.53125 C 7.265625 -45.4375 10.550781 -54.050781 17.125 -61.375 C 23.789062 -68.90625 32.023438 -72.671875 41.828125 -72.671875 C 51.628906 -72.671875 59.921875 -68.90625 66.703125 -61.375 C 67.347656 -60.613281 67.992188 -59.804688 68.640625 -58.953125 L 68.640625 -71.0625 L 79.9375 -71.0625 Z M 79.9375 0 "/></g></g></g><g fill="#000000" fill-opacity="1"><g transform="translate(299.943359, 153.205865)"><g/></g></g><g fill="#000000" fill-opacity="1"><g transform="translate(343.547705, 153.205865)"><g><path d="M 23.421875 0 L 12.109375 0 L 12.109375 -121.125 L 23.421875 -121.125 L 23.421875 -58.953125 C 24.066406 -59.804688 24.765625 -60.613281 25.515625 -61.375 C 32.191406 -68.90625 40.425781 -72.671875 50.21875 -72.671875 C 60.019531 -72.671875 68.3125 -68.90625 75.09375 -61.375 C 81.550781 -54.050781 84.78125 -45.4375 84.78125 -35.53125 C 84.78125 -25.625 81.550781 -17.007812 75.09375 -9.6875 C 68.3125 -2.15625 60.019531 1.609375 50.21875 1.609375 C 40.425781 1.609375 32.191406 -2.15625 25.515625 -9.6875 C 24.765625 -10.445312 24.066406 -11.253906 23.421875 -12.109375 Z M 73.484375 -35.53125 C 73.484375 -42.414062 71.113281 -48.445312 66.375 -53.625 C 61.53125 -58.789062 55.554688 -61.375 48.453125 -61.375 C 41.347656 -61.375 35.425781 -58.789062 30.6875 -53.625 C 25.84375 -48.445312 23.421875 -42.414062 23.421875 -35.53125 C 23.421875 -28.632812 25.84375 -22.601562 30.6875 -17.4375 C 35.425781 -12.269531 41.347656 -9.6875 48.453125 -9.6875 C 55.554688 -9.6875 61.53125 -12.269531 66.375 -17.4375 C 71.113281 -22.601562 73.484375 -28.632812 73.484375 -35.53125 Z M 73.484375 -35.53125 "/></g></g></g><g fill="#000000" fill-opacity="1"><g transform="translate(435.601286, 153.205865)"><g><path d="M 81.5625 -37.140625 L 81.5625 -31.171875 L 19.0625 -31.171875 C 20.132812 -25.035156 23.09375 -20.03125 27.9375 -16.15625 C 32.894531 -12.164062 38.382812 -10.171875 44.40625 -10.171875 C 48.5 -10.171875 52.429688 -11.140625 56.203125 -13.078125 C 59.859375 -14.910156 62.925781 -17.492188 65.40625 -20.828125 L 78.328125 -20.828125 C 75.316406 -14.046875 70.796875 -8.71875 64.765625 -4.84375 C 58.628906 -0.863281 52.4375 1.125 46.1875 1.125 C 39.832031 1.125 34.445312 0.152344 30.03125 -1.78125 C 25.507812 -3.71875 21.582031 -6.351562 18.25 -9.6875 C 10.925781 -16.789062 7.265625 -25.515625 7.265625 -35.859375 C 7.265625 -46.085938 10.925781 -54.859375 18.25 -62.171875 C 25.457031 -69.390625 34.175781 -73 44.40625 -73 C 54.3125 -73 62.976562 -69.5 70.40625 -62.5 C 77.84375 -55.394531 81.5625 -46.941406 81.5625 -37.140625 Z M 69.609375 -40.859375 C 68.316406 -46.890625 65.300781 -51.894531 60.5625 -55.875 C 55.820312 -59.75 50.4375 -61.6875 44.40625 -61.6875 C 35.15625 -61.6875 27.890625 -57.539062 22.609375 -49.25 C 20.992188 -46.664062 19.863281 -43.867188 19.21875 -40.859375 Z M 69.609375 -40.859375 "/></g></g></g><g fill="#000000" fill-opacity="1"><g transform="translate(523.617427, 153.205865)"><g><path d="M 68.640625 -35.53125 C 68.640625 -42.414062 66.269531 -48.445312 61.53125 -53.625 C 56.6875 -58.789062 50.710938 -61.375 43.609375 -61.375 C 36.503906 -61.375 30.582031 -58.789062 25.84375 -53.625 C 21 -48.445312 18.578125 -42.414062 18.578125 -35.53125 C 18.578125 -28.632812 21 -22.601562 25.84375 -17.4375 C 30.582031 -12.269531 36.503906 -9.6875 43.609375 -9.6875 C 50.710938 -9.6875 56.6875 -12.269531 61.53125 -17.4375 C 66.269531 -22.601562 68.640625 -28.632812 68.640625 -35.53125 Z M 79.9375 0 L 68.640625 0 L 68.640625 -12.109375 C 67.992188 -11.253906 67.347656 -10.445312 66.703125 -9.6875 C 59.921875 -2.15625 51.628906 1.609375 41.828125 1.609375 C 32.023438 1.609375 23.789062 -2.15625 17.125 -9.6875 C 10.550781 -17.007812 7.265625 -25.625 7.265625 -35.53125 C 7.265625 -45.4375 10.550781 -54.050781 17.125 -61.375 C 23.789062 -68.90625 32.023438 -72.671875 41.828125 -72.671875 C 51.628906 -72.671875 59.921875 -68.90625 66.703125 -61.375 C 67.347656 -60.613281 67.992188 -59.804688 68.640625 -58.953125 L 68.640625 -71.0625 L 79.9375 -71.0625 Z M 79.9375 0 "/></g></g></g><g fill="#000000" fill-opacity="1"><g transform="translate(615.671037, 153.205865)"><g><path d="M 61.203125 -12.109375 C 55.929688 -3.066406 48.019531 1.453125 37.46875 1.453125 C 29.5 1.453125 23.253906 -1.179688 18.734375 -6.453125 C 14.316406 -11.734375 12.109375 -18.460938 12.109375 -26.640625 L 12.109375 -71.0625 L 23.421875 -71.0625 L 23.421875 -26.640625 C 23.421875 -22.015625 24.492188 -18.085938 26.640625 -14.859375 C 28.691406 -11.515625 32.140625 -9.84375 36.984375 -9.84375 C 45.804688 -9.84375 52.050781 -12.644531 55.71875 -18.25 C 59.375 -23.738281 61.203125 -31.4375 61.203125 -41.34375 L 61.203125 -71.0625 L 72.515625 -71.0625 L 72.515625 0 L 61.203125 0 Z M 61.203125 -12.109375 "/></g></g></g><g fill="#000000" fill-opacity="1"><g transform="translate(697.873271, 153.205865)"><g><path d="M 3.234375 -60.5625 L 3.234375 -71.0625 L 21 -71.0625 L 21 -98.671875 L 32.296875 -98.671875 L 32.296875 -71.0625 L 49.90625 -71.0625 L 49.90625 -60.5625 L 32.296875 -60.5625 L 32.296875 0 L 21 0 L 21 -60.5625 Z M 3.234375 -60.5625 "/></g></g></g><g fill="#000000" fill-opacity="1"><g transform="translate(751.005996, 153.205865)"><g><path d="M 21.15625 40.375 L 7.421875 40.375 L 31.328125 -11.625 L 1.609375 -71.0625 L 14.53125 -71.0625 L 37.3125 -23.421875 L 57.65625 -71.0625 L 70.25 -71.0625 Z M 21.15625 40.375 "/></g></g></g><g fill="#000000" fill-opacity="1"><g transform="translate(819.642437, 153.205865)"><g/></g></g><g fill="#000000" fill-opacity="1"><g transform="translate(863.246754, 153.205865)"><g><path d="M 23.421875 0 L 12.109375 0 L 12.109375 -121.125 L 23.421875 -121.125 L 23.421875 -58.78125 C 25.785156 -62.769531 28.800781 -66.054688 32.46875 -68.640625 C 36.34375 -71.222656 40.804688 -72.515625 45.859375 -72.515625 C 50.921875 -72.515625 55.015625 -71.8125 58.140625 -70.40625 C 61.265625 -68.90625 63.898438 -66.914062 66.046875 -64.4375 C 70.359375 -59.375 72.515625 -52.695312 72.515625 -44.40625 L 72.515625 0 L 61.203125 0 L 61.203125 -44.40625 C 61.203125 -49.039062 60.179688 -53.023438 58.140625 -56.359375 C 55.984375 -59.585938 52.484375 -61.203125 47.640625 -61.203125 C 42.796875 -61.203125 38.867188 -60.453125 35.859375 -58.953125 C 32.835938 -57.335938 30.410156 -55.128906 28.578125 -52.328125 C 25.140625 -47.160156 23.421875 -39.625 23.421875 -29.71875 Z M 23.421875 0 "/></g></g></g><g fill="#000000" fill-opacity="1"><g transform="translate(945.448988, 153.205865)"><g><path d="M 68.640625 -35.53125 C 68.640625 -42.414062 66.269531 -48.445312 61.53125 -53.625 C 56.6875 -58.789062 50.710938 -61.375 43.609375 -61.375 C 36.503906 -61.375 30.582031 -58.789062 25.84375 -53.625 C 21 -48.445312 18.578125 -42.414062 18.578125 -35.53125 C 18.578125 -28.632812 21 -22.601562 25.84375 -17.4375 C 30.582031 -12.269531 36.503906 -9.6875 43.609375 -9.6875 C 50.710938 -9.6875 56.6875 -12.269531 61.53125 -17.4375 C 66.269531 -22.601562 68.640625 -28.632812 68.640625 -35.53125 Z M 79.9375 0 L 68.640625 0 L 68.640625 -12.109375 C 67.992188 -11.253906 67.347656 -10.445312 66.703125 -9.6875 C 59.921875 -2.15625 51.628906 1.609375 41.828125 1.609375 C 32.023438 1.609375 23.789062 -2.15625 17.125 -9.6875 C 10.550781 -17.007812 7.265625 -25.625 7.265625 -35.53125 C 7.265625 -45.4375 10.550781 -54.050781 17.125 -61.375 C 23.789062 -68.90625 32.023438 -72.671875 41.828125 -72.671875 C 51.628906 -72.671875 59.921875 -68.90625 66.703125 -61.375 C 67.347656 -60.613281 67.992188 -59.804688 68.640625 -58.953125 L 68.640625 -71.0625 L 79.9375 -71.0625 Z M 79.9375 0 "/></g></g></g><g fill="#000000" fill-opacity="1"><g transform="translate(1037.502598, 153.205865)"><g><path d="M 61.203125 -12.109375 C 55.929688 -3.066406 48.019531 1.453125 37.46875 1.453125 C 29.5 1.453125 23.253906 -1.179688 18.734375 -6.453125 C 14.316406 -11.734375 12.109375 -18.460938 12.109375 -26.640625 L 12.109375 -71.0625 L 23.421875 -71.0625 L 23.421875 -26.640625 C 23.421875 -22.015625 24.492188 -18.085938 26.640625 -14.859375 C 28.691406 -11.515625 32.140625 -9.84375 36.984375 -9.84375 C 45.804688 -9.84375 52.050781 -12.644531 55.71875 -18.25 C 59.375 -23.738281 61.203125 -31.4375 61.203125 -41.34375 L 61.203125 -71.0625 L 72.515625 -71.0625 L 72.515625 0 L 61.203125 0 Z M 61.203125 -12.109375 "/></g></g></g><g fill="#000000" fill-opacity="1"><g transform="translate(1119.704886, 153.205865)"><g><path d="M 22.453125 -10.171875 C 25.242188 -8.234375 28.90625 -7.265625 33.4375 -7.265625 C 43.769531 -7.265625 48.9375 -11.140625 48.9375 -18.890625 C 48.9375 -23.410156 45.222656 -26.859375 37.796875 -29.234375 C 34.671875 -30.304688 31.332031 -31.273438 27.78125 -32.140625 C 24.113281 -33.003906 20.722656 -34.132812 17.609375 -35.53125 C 13.941406 -37.25 11.191406 -39.398438 9.359375 -41.984375 C 7.535156 -44.566406 6.625 -47.640625 6.625 -51.203125 C 6.625 -58.304688 9.097656 -63.632812 14.046875 -67.1875 C 19.003906 -70.84375 24.925781 -72.671875 31.8125 -72.671875 C 38.707031 -72.671875 44.414062 -71.269531 48.9375 -68.46875 C 53.457031 -65.675781 56.523438 -60.671875 58.140625 -53.453125 L 46.03125 -53.453125 C 44.738281 -57.441406 42.851562 -60.082031 40.375 -61.375 C 38.007812 -62.664062 35.050781 -63.3125 31.5 -63.3125 C 27.9375 -63.3125 24.921875 -62.554688 22.453125 -61.046875 C 19.867188 -59.429688 18.578125 -57.0625 18.578125 -53.9375 C 18.578125 -50.707031 19.648438 -48.335938 21.796875 -46.828125 C 23.847656 -45.429688 26.429688 -44.195312 29.546875 -43.125 C 32.671875 -42.15625 36.066406 -41.289062 39.734375 -40.53125 C 43.285156 -39.675781 46.675781 -38.492188 49.90625 -36.984375 C 57.226562 -33.535156 60.890625 -27.988281 60.890625 -20.34375 C 60.890625 -12.695312 58.144531 -7.046875 52.65625 -3.390625 C 49.851562 -1.554688 46.78125 -0.152344 43.4375 0.8125 C 40.207031 1.664062 36.65625 2.09375 32.78125 2.09375 C 16.3125 2.09375 6.835938 -5.222656 4.359375 -19.859375 L 16.3125 -19.859375 C 17.5 -15.234375 19.546875 -12.003906 22.453125 -10.171875 Z M 22.453125 -10.171875 "/></g></g></g><g fill="#000000" fill-opacity="1"><g transform="translate(1184.62691, 153.205865)"><g><path d="M 81.5625 -37.140625 L 81.5625 -31.171875 L 19.0625 -31.171875 C 20.132812 -25.035156 23.09375 -20.03125 27.9375 -16.15625 C 32.894531 -12.164062 38.382812 -10.171875 44.40625 -10.171875 C 48.5 -10.171875 52.429688 -11.140625 56.203125 -13.078125 C 59.859375 -14.910156 62.925781 -17.492188 65.40625 -20.828125 L 78.328125 -20.828125 C 75.316406 -14.046875 70.796875 -8.71875 64.765625 -4.84375 C 58.628906 -0.863281 52.4375 1.125 46.1875 1.125 C 39.832031 1.125 34.445312 0.152344 30.03125 -1.78125 C 25.507812 -3.71875 21.582031 -6.351562 18.25 -9.6875 C 10.925781 -16.789062 7.265625 -25.515625 7.265625 -35.859375 C 7.265625 -46.085938 10.925781 -54.859375 18.25 -62.171875 C 25.457031 -69.390625 34.175781 -73 44.40625 -73 C 54.3125 -73 62.976562 -69.5 70.40625 -62.5 C 77.84375 -55.394531 81.5625 -46.941406 81.5625 -37.140625 Z M 69.609375 -40.859375 C 68.316406 -46.890625 65.300781 -51.894531 60.5625 -55.875 C 55.820312 -59.75 50.4375 -61.6875 44.40625 -61.6875 C 35.15625 -61.6875 27.890625 -57.539062 22.609375 -49.25 C 20.992188 -46.664062 19.863281 -43.867188 19.21875 -40.859375 Z M 69.609375 -40.859375 "/></g></g></g></g></g></svg>